<?xml version="1.0" encoding="utf-8" standalone="no"?>
<!DOCTYPE svg PUBLIC "-//W3C//DTD SVG 1.1//EN"
  "http://www.w3.org/Graphics/SVG/1.1/DTD/svg11.dtd">
<!-- Created with matplotlib (http://matplotlib.org/) -->
<svg height="330.449961pt" version="1.1" viewBox="0 0 330.640613 330.449961" width="330.640613pt" xmlns="http://www.w3.org/2000/svg" xmlns:xlink="http://www.w3.org/1999/xlink">
 <defs>
  <style type="text/css">
*{stroke-linecap:butt;stroke-linejoin:round;}
  </style>
 </defs>
 <g id="figure_1">
  <g id="patch_1">
   <path d="M 0 330.449961 
L 330.640613 330.449961 
L 330.640613 0 
L 0 0 
z
" style="fill:#ffffff;"/>
  </g>
  <g id="axes_1">
   <g id="patch_2">
    <path d="M 78.61243 275 
L 319.940613 275 
L 319.940613 10.7 
L 78.61243 10.7 
z
" style="fill:#ffffff;"/>
   </g>
   <g id="matplotlib.axis_1">
    <g id="xtick_1">
     <g id="line2d_1">
      <defs>
       <path d="M 0 0 
L 0 3.5 
" id="m04c9c324f3" style="stroke:#000000;stroke-width:0.8;"/>
      </defs>
      <g>
       <use style="stroke:#000000;stroke-width:0.8;" x="89.581893" xlink:href="#m04c9c324f3" y="275"/>
      </g>
     </g>
     <g id="text_1">
      <!-- $0$ -->
      <defs>
       <path d="M 42 31.640625 
C 42 37.75 41.90625 48.125 37.703125 56.109375 
C 34 63.109375 28.09375 65.59375 22.90625 65.59375 
C 18.09375 65.59375 12 63.40625 8.203125 56.203125 
C 4.203125 48.71875 3.796875 39.4375 3.796875 31.640625 
C 3.796875 25.953125 3.90625 17.28125 7 9.671875 
C 11.296875 -0.609375 19 -2 22.90625 -2 
C 27.5 -2 34.5 -0.109375 38.59375 9.375 
C 41.59375 16.28125 42 24.359375 42 31.640625 
z
M 22.90625 -0.40625 
C 16.5 -0.40625 12.703125 5.078125 11.296875 12.6875 
C 10.203125 18.5625 10.203125 27.15625 10.203125 32.75 
C 10.203125 40.4375 10.203125 46.828125 11.5 52.921875 
C 13.40625 61.390625 19 64 22.90625 64 
C 27 64 32.296875 61.296875 34.203125 53.125 
C 35.5 47.4375 35.59375 40.734375 35.59375 32.75 
C 35.59375 26.25 35.59375 18.265625 34.40625 12.375 
C 32.296875 1.484375 26.40625 -0.40625 22.90625 -0.40625 
z
" id="CMR17-48"/>
      </defs>
      <g transform="translate(85.012846 296.196641)scale(0.2 -0.2)">
       <use transform="scale(0.996264)" xlink:href="#CMR17-48"/>
      </g>
     </g>
    </g>
    <g id="xtick_2">
     <g id="line2d_2">
      <g>
       <use style="stroke:#000000;stroke-width:0.8;" x="177.337596" xlink:href="#m04c9c324f3" y="275"/>
      </g>
     </g>
     <g id="text_2">
      <!-- $200$ -->
      <defs>
       <path d="M 41.703125 15.453125 
L 39.90625 15.453125 
C 38.90625 8.375 38.09375 7.171875 37.703125 6.5625 
C 37.203125 5.765625 30 5.765625 28.59375 5.765625 
L 9.40625 5.765625 
C 13 9.671875 20 16.75 28.5 24.953125 
C 34.59375 30.734375 41.703125 37.53125 41.703125 47.421875 
C 41.703125 59.21875 32.296875 66 21.796875 66 
C 10.796875 66 4.09375 56.3125 4.09375 47.34375 
C 4.09375 43.4375 7 42.9375 8.203125 42.9375 
C 9.203125 42.9375 12.203125 43.546875 12.203125 47.03125 
C 12.203125 50.109375 9.59375 51 8.203125 51 
C 7.59375 51 7 50.90625 6.59375 50.703125 
C 8.5 59.21875 14.296875 63.40625 20.40625 63.40625 
C 29.09375 63.40625 34.796875 56.515625 34.796875 47.421875 
C 34.796875 38.734375 29.703125 31.25 24 24.75 
L 4.09375 2.28125 
L 4.09375 0 
L 39.296875 0 
z
" id="CMR17-50"/>
      </defs>
      <g transform="translate(163.630453 296.196641)scale(0.2 -0.2)">
       <use transform="scale(0.996264)" xlink:href="#CMR17-50"/>
       <use transform="translate(45.690477 0)scale(0.996264)" xlink:href="#CMR17-48"/>
       <use transform="translate(91.380954 0)scale(0.996264)" xlink:href="#CMR17-48"/>
      </g>
     </g>
    </g>
    <g id="xtick_3">
     <g id="line2d_3">
      <g>
       <use style="stroke:#000000;stroke-width:0.8;" x="265.093299" xlink:href="#m04c9c324f3" y="275"/>
      </g>
     </g>
     <g id="text_3">
      <!-- $400$ -->
      <defs>
       <path d="M 33.59375 64.40625 
C 33.59375 66.5 33.5 66.5 31.703125 66.5 
L 2 19.59375 
L 2 17 
L 27.796875 17 
L 27.796875 7.140625 
C 27.796875 3.5 27.59375 2.5 20.59375 2.5 
L 18.703125 2.5 
L 18.703125 0 
C 21.90625 0 27.296875 0 30.703125 0 
C 34.09375 0 39.5 0 42.703125 0 
L 42.703125 2.5 
L 40.796875 2.5 
C 33.796875 2.5 33.59375 3.5 33.59375 7.140625 
L 33.59375 17 
L 43.796875 17 
L 43.796875 19.59375 
L 33.59375 19.59375 
z
M 28.09375 57.859375 
L 28.09375 19.59375 
L 4 19.59375 
z
" id="CMR17-52"/>
      </defs>
      <g transform="translate(251.386156 296.196641)scale(0.2 -0.2)">
       <use transform="scale(0.996264)" xlink:href="#CMR17-52"/>
       <use transform="translate(45.690477 0)scale(0.996264)" xlink:href="#CMR17-48"/>
       <use transform="translate(91.380954 0)scale(0.996264)" xlink:href="#CMR17-48"/>
      </g>
     </g>
    </g>
    <g id="text_4">
     <!-- Time (days) -->
     <defs>
      <path d="M 35.40625 64.78125 
L 59.296875 64.78125 
L 59.296875 73 
L 2.09375 73 
L 2.09375 64.78125 
L 26.09375 64.78125 
L 26.09375 -0.21875 
L 35.40625 -0.21875 
z
" id="Nimbus_Sans_L_Regular-84"/>
      <path d="M 15 52.484375 
L 6.703125 52.484375 
L 6.703125 0 
L 15 0 
z
M 15 73 
L 6.59375 73 
L 6.59375 62.484375 
L 15 62.484375 
z
" id="Nimbus_Sans_L_Regular-105"/>
      <path d="M 7 52.484375 
L 7 0 
L 15.40625 0 
L 15.40625 32.953125 
C 15.40625 40.578125 20.90625 46.6875 27.703125 46.6875 
C 33.90625 46.6875 37.40625 42.875 37.40625 36.15625 
L 37.40625 0 
L 45.796875 0 
L 45.796875 32.953125 
C 45.796875 40.578125 51.296875 46.6875 58.09375 46.6875 
C 64.203125 46.6875 67.796875 42.78125 67.796875 36.15625 
L 67.796875 0 
L 76.203125 0 
L 76.203125 39.375 
C 76.203125 48.78125 70.796875 54 61 54 
C 54 54 49.796875 51.890625 44.90625 45.984375 
C 41.796875 51.59375 37.59375 54 30.796875 54 
C 23.796875 54 19.203125 51.390625 14.703125 45.078125 
L 14.703125 52.484375 
z
" id="Nimbus_Sans_L_Regular-109"/>
      <path d="M 51.296875 23.890625 
C 51.296875 31.78125 50.703125 36.53125 49.203125 40.375 
C 45.796875 48.859375 37.796875 54 28 54 
C 13.40625 54 4 42.84375 4 25.703125 
C 4 8.546875 13.09375 -2 27.796875 -2 
C 39.796875 -2 48.09375 4.84375 50.203125 16.3125 
L 41.796875 16.3125 
C 39.5 9.34375 34.796875 5.703125 28.09375 5.703125 
C 22.796875 5.703125 18.296875 8.125 15.5 12.578125 
C 13.5 15.59375 12.796875 18.640625 12.703125 23.890625 
z
M 12.90625 31 
C 13.59375 40.265625 19.5 46.28125 27.90625 46.28125 
C 36.09375 46.28125 42.40625 39.53125 42.40625 31 
C 42.40625 31 42.40625 31 42.296875 31 
z
" id="Nimbus_Sans_L_Regular-101"/>
      <path d="M 23.59375 73 
C 13.59375 59.84375 7.296875 41.5625 7.296875 25.796875 
C 7.296875 9.9375 13.59375 -8.34375 23.59375 -21.5 
L 29.09375 -21.5 
C 20.296875 -7.140625 15.40625 9.734375 15.40625 25.796875 
C 15.40625 41.765625 20.296875 58.734375 29.09375 73 
z
" id="Nimbus_Sans_L_Regular-40"/>
      <path d="M 49.5 73 
L 41.203125 73 
L 41.203125 45.890625 
C 37.703125 51.1875 32.09375 54 25.09375 54 
C 11.5 54 2.59375 43.140625 2.59375 26.484375 
C 2.59375 8.84375 11.296875 -2 25.40625 -2 
C 32.59375 -2 37.59375 0.703125 42.09375 7.203125 
L 42.09375 -0.03125 
L 49.5 -0.03125 
z
M 26.5 46.1875 
C 35.5 46.1875 41.203125 38.234375 41.203125 25.796875 
C 41.203125 13.765625 35.40625 5.8125 26.59375 5.8125 
C 17.40625 5.8125 11.296875 13.859375 11.296875 26 
C 11.296875 38.125 17.40625 46.1875 26.5 46.1875 
z
" id="Nimbus_Sans_L_Regular-100"/>
      <path d="M 53.5 5.203125 
C 52.59375 5 52.203125 5 51.703125 5 
C 48.796875 5 47.203125 6.484375 47.203125 9.078125 
L 47.203125 39.765625 
C 47.203125 49.015625 40.40625 54 27.5 54 
C 19.90625 54 13.59375 51.8125 10.09375 47.90625 
C 7.703125 45.203125 6.703125 42.21875 6.5 37.03125 
L 14.90625 37.03125 
C 15.59375 43.390625 19.40625 46.28125 27.203125 46.28125 
C 34.703125 46.28125 38.90625 43.484375 38.90625 38.515625 
L 38.90625 36.328125 
C 38.90625 32.828125 36.796875 31.34375 30.203125 30.546875 
C 18.40625 29.0625 16.59375 28.65625 13.40625 27.359375 
C 7.296875 24.875 4.203125 20.1875 4.203125 13.421875 
C 4.203125 3.96875 10.796875 -2 21.40625 -2 
C 28 -2 33.296875 0.296875 39.203125 5.703125 
C 39.796875 0.390625 42.40625 -2 47.796875 -2 
C 49.5 -2 50.796875 -1.8125 53.5 -1.09375 
z
M 38.90625 16.75 
C 38.90625 13.953125 38.09375 12.265625 35.59375 9.984375 
C 32.203125 6.890625 28.09375 5.3125 23.203125 5.3125 
C 16.703125 5.3125 12.90625 8.390625 12.90625 13.65625 
C 12.90625 19.140625 16.59375 21.921875 25.5 23.21875 
C 34.296875 24.40625 36.09375 24.8125 38.90625 26.09375 
z
" id="Nimbus_Sans_L_Regular-97"/>
      <path d="M 38.796875 52.5 
L 24.296875 11.53125 
L 10.90625 52.5 
L 2 52.5 
L 19.703125 -0.328125 
L 16.5 -8.65625 
C 15.203125 -12.375 13.296875 -13.78125 9.796875 -13.78125 
C 8.59375 -13.78125 7.203125 -13.578125 5.40625 -13.171875 
L 5.40625 -20.703125 
C 7.09375 -21.59375 8.796875 -22 11 -22 
C 13.703125 -22 16.59375 -21.09375 18.796875 -19.484375 
C 21.40625 -17.578125 22.90625 -15.359375 24.5 -11.140625 
L 47.796875 52.5 
z
" id="Nimbus_Sans_L_Regular-121"/>
      <path d="M 43.796875 37.921875 
C 43.703125 48.203125 36.90625 54 24.796875 54 
C 12.59375 54 4.703125 47.71875 4.703125 38.0625 
C 4.703125 29.890625 8.90625 26.015625 21.296875 23.03125 
L 29.09375 21.140625 
C 34.90625 19.734375 37.203125 17.65625 37.203125 13.875 
C 37.203125 9 32.296875 5.703125 25 5.703125 
C 20.5 5.703125 16.703125 7 14.59375 9.1875 
C 13.296875 10.6875 12.703125 12.171875 12.203125 15.84375 
L 3.40625 15.84375 
C 3.796875 3.765625 10.59375 -2 24.296875 -2 
C 37.5 -2 45.90625 4.453125 45.90625 14.515625 
C 45.90625 22.28125 41.5 26.578125 31.09375 29.0625 
L 23.09375 30.953125 
C 16.296875 32.53125 13.40625 34.734375 13.40625 38.40625 
C 13.40625 43.1875 17.703125 46.28125 24.5 46.28125 
C 31.203125 46.28125 34.796875 43.390625 35 37.921875 
z
" id="Nimbus_Sans_L_Regular-115"/>
      <path d="M 9.296875 -21.5 
C 19.296875 -8.34375 25.59375 9.9375 25.59375 25.6875 
C 25.59375 41.5625 19.296875 59.84375 9.296875 73 
L 3.796875 73 
C 12.59375 58.640625 17.5 41.765625 17.5 25.6875 
C 17.5 9.734375 12.59375 -7.25 3.796875 -21.5 
z
" id="Nimbus_Sans_L_Regular-41"/>
     </defs>
     <g transform="translate(146.992963 319.005988)scale(0.2 -0.2)">
      <use transform="scale(0.996264)" xlink:href="#Nimbus_Sans_L_Regular-84"/>
      <use transform="translate(60.871631 0)scale(0.996264)" xlink:href="#Nimbus_Sans_L_Regular-105"/>
      <use transform="translate(82.988415 0)scale(0.996264)" xlink:href="#Nimbus_Sans_L_Regular-109"/>
      <use transform="translate(165.976845 0)scale(0.996264)" xlink:href="#Nimbus_Sans_L_Regular-101"/>
      <use transform="translate(249.063692 0)scale(0.996264)" xlink:href="#Nimbus_Sans_L_Regular-40"/>
      <use transform="translate(282.238922 0)scale(0.996264)" xlink:href="#Nimbus_Sans_L_Regular-100"/>
      <use transform="translate(337.630599 0)scale(0.996264)" xlink:href="#Nimbus_Sans_L_Regular-97"/>
      <use transform="translate(390.034168 0)scale(0.996264)" xlink:href="#Nimbus_Sans_L_Regular-121"/>
      <use transform="translate(439.847368 0)scale(0.996264)" xlink:href="#Nimbus_Sans_L_Regular-115"/>
      <use transform="translate(489.660569 0)scale(0.996264)" xlink:href="#Nimbus_Sans_L_Regular-41"/>
     </g>
    </g>
   </g>
   <g id="matplotlib.axis_2">
    <g id="ytick_1">
     <g id="line2d_4">
      <defs>
       <path d="M 0 0 
L -3.5 0 
" id="mf1f7baf66b" style="stroke:#000000;stroke-width:0.8;"/>
      </defs>
      <g>
       <use style="stroke:#000000;stroke-width:0.8;" x="78.61243" xlink:href="#mf1f7baf66b" y="262.986364"/>
      </g>
     </g>
     <g id="text_5">
      <!-- $0.000$ -->
      <defs>
       <path d="M 18.40625 4.796875 
C 18.40625 7.6875 16 9.671875 13.59375 9.671875 
C 10.703125 9.671875 8.703125 7.28125 8.703125 4.890625 
C 8.703125 2 11.09375 0 13.5 0 
C 16.40625 0 18.40625 2.390625 18.40625 4.796875 
z
" id="CMMI12-58"/>
      </defs>
      <g transform="translate(29.640613 270.084684)scale(0.2 -0.2)">
       <use transform="scale(0.996264)" xlink:href="#CMR17-48"/>
       <use transform="translate(45.690477 0)scale(0.996264)" xlink:href="#CMMI12-58"/>
       <use transform="translate(72.787654 0)scale(0.996264)" xlink:href="#CMR17-48"/>
       <use transform="translate(118.478131 0)scale(0.996264)" xlink:href="#CMR17-48"/>
       <use transform="translate(164.168608 0)scale(0.996264)" xlink:href="#CMR17-48"/>
      </g>
     </g>
    </g>
    <g id="ytick_2">
     <g id="line2d_5">
      <g>
       <use style="stroke:#000000;stroke-width:0.8;" x="78.61243" xlink:href="#mf1f7baf66b" y="207.38562"/>
      </g>
     </g>
     <g id="text_6">
      <!-- $0.001$ -->
      <defs>
       <path d="M 26.59375 63.40625 
C 26.59375 65.5 26.5 65.5 25.09375 65.5 
C 21.203125 61.1875 15.296875 59.796875 9.703125 59.796875 
C 9.40625 59.796875 8.90625 59.796875 8.796875 59.5 
C 8.703125 59.296875 8.703125 59.09375 8.703125 57 
C 11.796875 57 17 57.59375 21 59.984375 
L 21 7.203125 
C 21 3.6875 20.796875 2.5 12.203125 2.5 
L 9.203125 2.5 
L 9.203125 0 
C 14 0 19 0 23.796875 0 
C 28.59375 0 33.59375 0 38.40625 0 
L 38.40625 2.5 
L 35.40625 2.5 
C 26.796875 2.5 26.59375 3.59375 26.59375 7.15625 
z
" id="CMR17-49"/>
      </defs>
      <g transform="translate(29.640613 214.48394)scale(0.2 -0.2)">
       <use transform="scale(0.996264)" xlink:href="#CMR17-48"/>
       <use transform="translate(45.690477 0)scale(0.996264)" xlink:href="#CMMI12-58"/>
       <use transform="translate(72.787654 0)scale(0.996264)" xlink:href="#CMR17-48"/>
       <use transform="translate(118.478131 0)scale(0.996264)" xlink:href="#CMR17-48"/>
       <use transform="translate(164.168608 0)scale(0.996264)" xlink:href="#CMR17-49"/>
      </g>
     </g>
    </g>
    <g id="ytick_3">
     <g id="line2d_6">
      <g>
       <use style="stroke:#000000;stroke-width:0.8;" x="78.61243" xlink:href="#mf1f7baf66b" y="151.784876"/>
      </g>
     </g>
     <g id="text_7">
      <!-- $0.002$ -->
      <g transform="translate(29.640613 158.883196)scale(0.2 -0.2)">
       <use transform="scale(0.996264)" xlink:href="#CMR17-48"/>
       <use transform="translate(45.690477 0)scale(0.996264)" xlink:href="#CMMI12-58"/>
       <use transform="translate(72.787654 0)scale(0.996264)" xlink:href="#CMR17-48"/>
       <use transform="translate(118.478131 0)scale(0.996264)" xlink:href="#CMR17-48"/>
       <use transform="translate(164.168608 0)scale(0.996264)" xlink:href="#CMR17-50"/>
      </g>
     </g>
    </g>
    <g id="ytick_4">
     <g id="line2d_7">
      <g>
       <use style="stroke:#000000;stroke-width:0.8;" x="78.61243" xlink:href="#mf1f7baf66b" y="96.184132"/>
      </g>
     </g>
     <g id="text_8">
      <!-- $0.003$ -->
      <defs>
       <path d="M 22.09375 33.703125 
C 31 33.703125 34.90625 25.96875 34.90625 17.03125 
C 34.90625 5 28.5 0.390625 22.703125 0.390625 
C 17.40625 0.390625 8.796875 3.03125 6.09375 10.828125 
C 6.59375 10.625 7.09375 10.625 7.59375 10.625 
C 10 10.625 11.796875 12.21875 11.796875 14.8125 
C 11.796875 17.703125 9.59375 19 7.59375 19 
C 5.90625 19 3.296875 18.203125 3.296875 14.46875 
C 3.296875 5.234375 12.296875 -2 22.90625 -2 
C 34 -2 42.5 6.71875 42.5 16.953125 
C 42.5 26.671875 34.5 33.703125 25 34.796875 
C 32.59375 36.375 39.90625 43.0625 39.90625 52.015625 
C 39.90625 59.6875 32 65.296875 23 65.296875 
C 13.90625 65.296875 5.90625 59.828125 5.90625 52.015625 
C 5.90625 48.59375 8.5 48 9.796875 48 
C 11.90625 48 13.703125 49.296875 13.703125 51.890625 
C 13.703125 54.46875 11.90625 55.765625 9.796875 55.765625 
C 9.40625 55.765625 8.90625 55.765625 8.5 55.578125 
C 11.40625 61.859375 19.296875 63 22.796875 63 
C 26.296875 63 32.90625 61.328125 32.90625 51.875 
C 32.90625 49.109375 32.5 44.1875 29.09375 39.84375 
C 26.09375 36 22.703125 36 19.40625 35.6875 
C 18.90625 35.6875 16.59375 35.453125 16.203125 35.453125 
C 15.5 35.359375 15.09375 35.265625 15.09375 34.5 
C 15.09375 33.796875 15.203125 33.703125 17.203125 33.703125 
z
" id="CMR17-51"/>
      </defs>
      <g transform="translate(29.640613 103.282452)scale(0.2 -0.2)">
       <use transform="scale(0.996264)" xlink:href="#CMR17-48"/>
       <use transform="translate(45.690477 0)scale(0.996264)" xlink:href="#CMMI12-58"/>
       <use transform="translate(72.787654 0)scale(0.996264)" xlink:href="#CMR17-48"/>
       <use transform="translate(118.478131 0)scale(0.996264)" xlink:href="#CMR17-48"/>
       <use transform="translate(164.168608 0)scale(0.996264)" xlink:href="#CMR17-51"/>
      </g>
     </g>
    </g>
    <g id="ytick_5">
     <g id="line2d_8">
      <g>
       <use style="stroke:#000000;stroke-width:0.8;" x="78.61243" xlink:href="#mf1f7baf66b" y="40.583388"/>
      </g>
     </g>
     <g id="text_9">
      <!-- $0.004$ -->
      <g transform="translate(29.640613 47.681708)scale(0.2 -0.2)">
       <use transform="scale(0.996264)" xlink:href="#CMR17-48"/>
       <use transform="translate(45.690477 0)scale(0.996264)" xlink:href="#CMMI12-58"/>
       <use transform="translate(72.787654 0)scale(0.996264)" xlink:href="#CMR17-48"/>
       <use transform="translate(118.478131 0)scale(0.996264)" xlink:href="#CMR17-48"/>
       <use transform="translate(164.168608 0)scale(0.996264)" xlink:href="#CMR17-52"/>
      </g>
     </g>
    </g>
    <g id="text_10">
     <!-- Heteroplasmy variance -->
     <defs>
      <path d="M 55.09375 33 
L 55.09375 -0.03125 
L 64.40625 -0.03125 
L 64.40625 73 
L 55.09375 73 
L 55.09375 41.21875 
L 17.59375 41.21875 
L 17.59375 73 
L 8.296875 73 
L 8.296875 -0.03125 
L 17.703125 -0.03125 
L 17.703125 33 
z
" id="Nimbus_Sans_L_Regular-72"/>
      <path d="M 25.40625 52.8125 
L 16.796875 52.8125 
L 16.796875 67 
L 8.5 67 
L 8.5 52.8125 
L 1.40625 52.8125 
L 1.40625 46 
L 8.5 46 
L 8.5 6.3125 
C 8.5 1 12.09375 -2 18.59375 -2 
C 20.59375 -2 22.59375 -1.8125 25.40625 -1.296875 
L 25.40625 5.71875 
C 24.296875 5.40625 23 5.3125 21.40625 5.3125 
C 17.796875 5.3125 16.796875 6.3125 16.796875 10.015625 
L 16.796875 46 
L 25.40625 46 
z
" id="Nimbus_Sans_L_Regular-116"/>
      <path d="M 6.90625 52.484375 
L 6.90625 0 
L 15.296875 0 
L 15.296875 27.203125 
C 15.296875 34.703125 17.203125 39.609375 21.203125 42.5 
C 23.796875 44.40625 26.296875 45 32.09375 45 
L 32.09375 53.625 
C 30.703125 53.8125 30 53.8125 28.90625 53.8125 
C 23.5 53.8125 19.40625 50.625 14.59375 42.90625 
L 14.59375 52.484375 
z
" id="Nimbus_Sans_L_Regular-114"/>
      <path d="M 27.203125 54 
C 12.5 54 3.59375 43.53125 3.59375 25.984375 
C 3.59375 8.453125 12.40625 -2 27.296875 -2 
C 42 -2 51 8.453125 51 25.59375 
C 51 43.625 42.296875 54 27.203125 54 
z
M 27.296875 46.28125 
C 36.703125 46.28125 42.296875 38.625 42.296875 25.703125 
C 42.296875 13.453125 36.5 5.703125 27.296875 5.703125 
C 18 5.703125 12.296875 13.359375 12.296875 25.984375 
C 12.296875 38.53125 18 46.28125 27.296875 46.28125 
z
" id="Nimbus_Sans_L_Regular-111"/>
      <path d="M 5.40625 -22 
L 13.796875 -22 
L 13.796875 5 
C 18.203125 -0.421875 23.09375 -2.8125 29.90625 -2.8125 
C 43.40625 -2.8125 52.296875 8.15625 52.296875 24.984375 
C 52.296875 42.71875 43.703125 53.8125 29.796875 53.8125 
C 22.703125 53.8125 17 50.59375 13.09375 44.390625 
L 13.09375 52.328125 
L 5.40625 52.328125 
z
M 28.40625 46 
C 37.59375 46 43.59375 37.8125 43.59375 25.1875 
C 43.59375 13.171875 37.5 5 28.40625 5 
C 19.59375 5 13.796875 13.078125 13.796875 25.5 
C 13.796875 37.921875 19.59375 46 28.40625 46 
z
" id="Nimbus_Sans_L_Regular-112"/>
      <path d="M 15.203125 73 
L 6.796875 73 
L 6.796875 -0.03125 
L 15.203125 -0.03125 
z
" id="Nimbus_Sans_L_Regular-108"/>
      <path d="M 28.5 0 
L 48.59375 52.5 
L 39.203125 52.5 
L 24.40625 9.921875 
L 10.40625 52.5 
L 1 52.5 
L 19.40625 0 
z
" id="Nimbus_Sans_L_Regular-118"/>
      <path d="M 7 52.484375 
L 7 0 
L 15.40625 0 
L 15.40625 28.953125 
C 15.40625 39.671875 21 46.6875 29.59375 46.6875 
C 36.203125 46.6875 40.40625 42.671875 40.40625 36.359375 
L 40.40625 0 
L 48.703125 0 
L 48.703125 39.671875 
C 48.703125 48.390625 42.203125 54 32.09375 54 
C 24.296875 54 19.296875 50.984375 14.703125 43.6875 
L 14.703125 52.484375 
z
" id="Nimbus_Sans_L_Regular-110"/>
      <path d="M 47.09375 34.9375 
C 46.703125 40.03125 45.59375 43.328125 43.59375 46.21875 
C 40 51.109375 33.703125 54 26.40625 54 
C 12.296875 54 3.09375 42.84375 3.09375 25.5 
C 3.09375 8.65625 12.09375 -2 26.296875 -2 
C 38.796875 -2 46.703125 5.46875 47.703125 18.234375 
L 39.296875 18.234375 
C 37.90625 9.875 33.59375 5.703125 26.5 5.703125 
C 17.296875 5.703125 11.796875 13.171875 11.796875 25.5 
C 11.796875 38.53125 17.203125 46.28125 26.296875 46.28125 
C 33.296875 46.28125 37.703125 42.203125 38.703125 34.9375 
z
" id="Nimbus_Sans_L_Regular-99"/>
     </defs>
     <g transform="translate(21.396641 244.467956)rotate(-90)scale(0.2 -0.2)">
      <use transform="scale(0.996264)" xlink:href="#Nimbus_Sans_L_Regular-72"/>
      <use transform="translate(71.929985 0)scale(0.996264)" xlink:href="#Nimbus_Sans_L_Regular-101"/>
      <use transform="translate(127.321662 0)scale(0.996264)" xlink:href="#Nimbus_Sans_L_Regular-116"/>
      <use transform="translate(155.016831 0)scale(0.996264)" xlink:href="#Nimbus_Sans_L_Regular-101"/>
      <use transform="translate(210.408508 0)scale(0.996264)" xlink:href="#Nimbus_Sans_L_Regular-114"/>
      <use transform="translate(243.583738 0)scale(0.996264)" xlink:href="#Nimbus_Sans_L_Regular-111"/>
      <use transform="translate(298.975415 0)scale(0.996264)" xlink:href="#Nimbus_Sans_L_Regular-112"/>
      <use transform="translate(354.367092 0)scale(0.996264)" xlink:href="#Nimbus_Sans_L_Regular-108"/>
      <use transform="translate(376.483876 0)scale(0.996264)" xlink:href="#Nimbus_Sans_L_Regular-97"/>
      <use transform="translate(431.875553 0)scale(0.996264)" xlink:href="#Nimbus_Sans_L_Regular-115"/>
      <use transform="translate(481.688754 0)scale(0.996264)" xlink:href="#Nimbus_Sans_L_Regular-109"/>
      <use transform="translate(563.183791 0)scale(0.996264)" xlink:href="#Nimbus_Sans_L_Regular-121"/>
      <use transform="translate(640.692161 0)scale(0.996264)" xlink:href="#Nimbus_Sans_L_Regular-118"/>
      <use transform="translate(688.014732 0)scale(0.996264)" xlink:href="#Nimbus_Sans_L_Regular-97"/>
      <use transform="translate(743.406409 0)scale(0.996264)" xlink:href="#Nimbus_Sans_L_Regular-114"/>
      <use transform="translate(778.075017 0)scale(0.996264)" xlink:href="#Nimbus_Sans_L_Regular-105"/>
      <use transform="translate(800.191801 0)scale(0.996264)" xlink:href="#Nimbus_Sans_L_Regular-97"/>
      <use transform="translate(855.583478 0)scale(0.996264)" xlink:href="#Nimbus_Sans_L_Regular-110"/>
      <use transform="translate(910.975155 0)scale(0.996264)" xlink:href="#Nimbus_Sans_L_Regular-99"/>
      <use transform="translate(960.788355 0)scale(0.996264)" xlink:href="#Nimbus_Sans_L_Regular-101"/>
     </g>
    </g>
   </g>
   <g id="line2d_9">
    <defs>
     <path d="M -0 7.071068 
L 4.242641 0 
L -0 -7.071068 
L -4.242641 -0 
z
" id="m721c726913" style="stroke:#3ec100;stroke-linejoin:miter;"/>
    </defs>
    <g clip-path="url(#pb37ecbe1c8)">
     <use style="fill:#3ec100;opacity:0.4;stroke:#3ec100;stroke-linejoin:miter;" x="89.581893" xlink:href="#m721c726913" y="262.986364"/>
     <use style="fill:#3ec100;opacity:0.4;stroke:#3ec100;stroke-linejoin:miter;" x="107.133034" xlink:href="#m721c726913" y="250.727538"/>
     <use style="fill:#3ec100;opacity:0.4;stroke:#3ec100;stroke-linejoin:miter;" x="124.684174" xlink:href="#m721c726913" y="238.721182"/>
     <use style="fill:#3ec100;opacity:0.4;stroke:#3ec100;stroke-linejoin:miter;" x="142.235315" xlink:href="#m721c726913" y="226.678574"/>
     <use style="fill:#3ec100;opacity:0.4;stroke:#3ec100;stroke-linejoin:miter;" x="159.786456" xlink:href="#m721c726913" y="214.261952"/>
     <use style="fill:#3ec100;opacity:0.4;stroke:#3ec100;stroke-linejoin:miter;" x="177.337596" xlink:href="#m721c726913" y="202.062228"/>
     <use style="fill:#3ec100;opacity:0.4;stroke:#3ec100;stroke-linejoin:miter;" x="194.888737" xlink:href="#m721c726913" y="189.80613"/>
     <use style="fill:#3ec100;opacity:0.4;stroke:#3ec100;stroke-linejoin:miter;" x="212.439877" xlink:href="#m721c726913" y="175.80852"/>
     <use style="fill:#3ec100;opacity:0.4;stroke:#3ec100;stroke-linejoin:miter;" x="229.991018" xlink:href="#m721c726913" y="163.457584"/>
     <use style="fill:#3ec100;opacity:0.4;stroke:#3ec100;stroke-linejoin:miter;" x="247.542158" xlink:href="#m721c726913" y="151.107771"/>
     <use style="fill:#3ec100;opacity:0.4;stroke:#3ec100;stroke-linejoin:miter;" x="265.093299" xlink:href="#m721c726913" y="137.894619"/>
     <use style="fill:#3ec100;opacity:0.4;stroke:#3ec100;stroke-linejoin:miter;" x="282.64444" xlink:href="#m721c726913" y="126.720901"/>
     <use style="fill:#3ec100;opacity:0.4;stroke:#3ec100;stroke-linejoin:miter;" x="300.19558" xlink:href="#m721c726913" y="114.936267"/>
    </g>
   </g>
   <g id="line2d_10">
    <path clip-path="url(#pb37ecbe1c8)" d="M 89.581893 262.986364 
L 93.969678 259.902989 
L 98.357464 256.819615 
L 102.745249 253.736241 
L 107.133034 250.652866 
L 111.520819 247.569492 
L 115.908604 244.486118 
L 120.296389 241.402743 
L 124.684174 238.319369 
L 129.07196 235.235994 
L 133.459745 232.15262 
L 137.84753 229.069246 
L 142.235315 225.985871 
L 146.6231 222.902497 
L 151.010885 219.819123 
L 155.39867 216.735748 
L 159.786456 213.652374 
L 164.174241 210.569 
L 168.562026 207.485625 
L 172.949811 204.402251 
L 177.337596 201.318877 
L 181.725381 198.235502 
L 186.113166 195.152128 
L 190.500952 192.068754 
L 194.888737 188.985379 
L 199.276522 185.902005 
L 203.664307 182.81863 
L 208.052092 179.735256 
L 212.439877 176.651882 
L 216.827662 173.568507 
L 221.215448 170.485133 
L 225.603233 167.401759 
L 229.991018 164.318384 
L 234.378803 161.23501 
L 238.766588 158.151636 
L 243.154373 155.068261 
L 247.542158 151.984887 
L 251.929944 148.901513 
L 256.317729 145.818138 
L 260.705514 142.734764 
L 265.093299 139.65139 
L 269.481084 136.568015 
L 273.868869 133.484641 
L 278.256654 130.401266 
L 282.64444 127.317892 
L 287.032225 124.234518 
L 291.42001 121.151143 
L 295.807795 118.067769 
L 300.19558 114.984395 
L 304.583365 111.90102 
L 308.97115 108.817646 
" style="fill:none;stroke:#3ec100;stroke-linecap:square;stroke-width:1.5;"/>
   </g>
   <g id="line2d_11">
    <defs>
     <path d="M 0 5 
C 1.326016 5 2.597899 4.473168 3.535534 3.535534 
C 4.473168 2.597899 5 1.326016 5 0 
C 5 -1.326016 4.473168 -2.597899 3.535534 -3.535534 
C 2.597899 -4.473168 1.326016 -5 0 -5 
C -1.326016 -5 -2.597899 -4.473168 -3.535534 -3.535534 
C -4.473168 -2.597899 -5 -1.326016 -5 0 
C -5 1.326016 -4.473168 2.597899 -3.535534 3.535534 
C -2.597899 4.473168 -1.326016 5 0 5 
z
" id="m451a348160" style="stroke:#be4100;"/>
    </defs>
    <g clip-path="url(#pb37ecbe1c8)">
     <use style="fill:#be4100;opacity:0.4;stroke:#be4100;" x="89.581893" xlink:href="#m451a348160" y="262.986364"/>
     <use style="fill:#be4100;opacity:0.4;stroke:#be4100;" x="107.133034" xlink:href="#m451a348160" y="248.505694"/>
     <use style="fill:#be4100;opacity:0.4;stroke:#be4100;" x="124.684174" xlink:href="#m451a348160" y="233.787989"/>
     <use style="fill:#be4100;opacity:0.4;stroke:#be4100;" x="142.235315" xlink:href="#m451a348160" y="219.284301"/>
     <use style="fill:#be4100;opacity:0.4;stroke:#be4100;" x="159.786456" xlink:href="#m451a348160" y="204.723442"/>
     <use style="fill:#be4100;opacity:0.4;stroke:#be4100;" x="177.337596" xlink:href="#m451a348160" y="190.835696"/>
     <use style="fill:#be4100;opacity:0.4;stroke:#be4100;" x="194.888737" xlink:href="#m451a348160" y="175.874873"/>
     <use style="fill:#be4100;opacity:0.4;stroke:#be4100;" x="212.439877" xlink:href="#m451a348160" y="161.140286"/>
     <use style="fill:#be4100;opacity:0.4;stroke:#be4100;" x="229.991018" xlink:href="#m451a348160" y="147.030865"/>
     <use style="fill:#be4100;opacity:0.4;stroke:#be4100;" x="247.542158" xlink:href="#m451a348160" y="134.328061"/>
     <use style="fill:#be4100;opacity:0.4;stroke:#be4100;" x="265.093299" xlink:href="#m451a348160" y="120.242501"/>
     <use style="fill:#be4100;opacity:0.4;stroke:#be4100;" x="282.64444" xlink:href="#m451a348160" y="103.484434"/>
     <use style="fill:#be4100;opacity:0.4;stroke:#be4100;" x="300.19558" xlink:href="#m451a348160" y="88.500244"/>
    </g>
   </g>
   <g id="line2d_12">
    <path clip-path="url(#pb37ecbe1c8)" d="M 89.581893 262.986364 
L 93.969678 259.328963 
L 98.357464 255.671561 
L 102.745249 252.01416 
L 107.133034 248.356759 
L 111.520819 244.699358 
L 115.908604 241.041957 
L 120.296389 237.384556 
L 124.684174 233.727155 
L 129.07196 230.069754 
L 133.459745 226.412353 
L 137.84753 222.754952 
L 142.235315 219.097551 
L 146.6231 215.44015 
L 151.010885 211.782748 
L 155.39867 208.125347 
L 159.786456 204.467946 
L 164.174241 200.810545 
L 168.562026 197.153144 
L 172.949811 193.495743 
L 177.337596 189.838342 
L 181.725381 186.180941 
L 186.113166 182.52354 
L 190.500952 178.866139 
L 194.888737 175.208738 
L 199.276522 171.551337 
L 203.664307 167.893935 
L 208.052092 164.236534 
L 212.439877 160.579133 
L 216.827662 156.921732 
L 221.215448 153.264331 
L 225.603233 149.60693 
L 229.991018 145.949529 
L 234.378803 142.292128 
L 238.766588 138.634727 
L 243.154373 134.977326 
L 247.542158 131.319925 
L 251.929944 127.662524 
L 256.317729 124.005122 
L 260.705514 120.347721 
L 265.093299 116.69032 
L 269.481084 113.032919 
L 273.868869 109.375518 
L 278.256654 105.718117 
L 282.64444 102.060716 
L 287.032225 98.403315 
L 291.42001 94.745914 
L 295.807795 91.088513 
L 300.19558 87.431112 
L 304.583365 83.773711 
L 308.97115 80.116309 
" style="fill:none;stroke:#be4100;stroke-linecap:square;stroke-width:1.5;"/>
   </g>
   <g id="line2d_13">
    <defs>
     <path d="M -5 5 
L 5 5 
L 5 -5 
L -5 -5 
z
" id="m22b990885c" style="stroke:#c0003f;stroke-linejoin:miter;"/>
    </defs>
    <g clip-path="url(#pb37ecbe1c8)">
     <use style="fill:#c0003f;opacity:0.4;stroke:#c0003f;stroke-linejoin:miter;" x="89.581893" xlink:href="#m22b990885c" y="262.986364"/>
     <use style="fill:#c0003f;opacity:0.4;stroke:#c0003f;stroke-linejoin:miter;" x="107.133034" xlink:href="#m22b990885c" y="246.149317"/>
     <use style="fill:#c0003f;opacity:0.4;stroke:#c0003f;stroke-linejoin:miter;" x="124.684174" xlink:href="#m22b990885c" y="228.852065"/>
     <use style="fill:#c0003f;opacity:0.4;stroke:#c0003f;stroke-linejoin:miter;" x="142.235315" xlink:href="#m22b990885c" y="211.120695"/>
     <use style="fill:#c0003f;opacity:0.4;stroke:#c0003f;stroke-linejoin:miter;" x="159.786456" xlink:href="#m22b990885c" y="194.574507"/>
     <use style="fill:#c0003f;opacity:0.4;stroke:#c0003f;stroke-linejoin:miter;" x="177.337596" xlink:href="#m22b990885c" y="177.48621"/>
     <use style="fill:#c0003f;opacity:0.4;stroke:#c0003f;stroke-linejoin:miter;" x="194.888737" xlink:href="#m22b990885c" y="160.148431"/>
     <use style="fill:#c0003f;opacity:0.4;stroke:#c0003f;stroke-linejoin:miter;" x="212.439877" xlink:href="#m22b990885c" y="142.756078"/>
     <use style="fill:#c0003f;opacity:0.4;stroke:#c0003f;stroke-linejoin:miter;" x="229.991018" xlink:href="#m22b990885c" y="126.523803"/>
     <use style="fill:#c0003f;opacity:0.4;stroke:#c0003f;stroke-linejoin:miter;" x="247.542158" xlink:href="#m22b990885c" y="109.517169"/>
     <use style="fill:#c0003f;opacity:0.4;stroke:#c0003f;stroke-linejoin:miter;" x="265.093299" xlink:href="#m22b990885c" y="92.267598"/>
     <use style="fill:#c0003f;opacity:0.4;stroke:#c0003f;stroke-linejoin:miter;" x="282.64444" xlink:href="#m22b990885c" y="74.669472"/>
     <use style="fill:#c0003f;opacity:0.4;stroke:#c0003f;stroke-linejoin:miter;" x="300.19558" xlink:href="#m22b990885c" y="58.342395"/>
    </g>
   </g>
   <g id="line2d_14">
    <path clip-path="url(#pb37ecbe1c8)" d="M 89.581893 262.986364 
L 93.969678 258.762584 
L 98.357464 254.538805 
L 102.745249 250.315025 
L 107.133034 246.091246 
L 111.520819 241.867466 
L 115.908604 237.643687 
L 120.296389 233.419907 
L 124.684174 229.196128 
L 129.07196 224.972348 
L 133.459745 220.748569 
L 137.84753 216.52479 
L 142.235315 212.30101 
L 146.6231 208.077231 
L 151.010885 203.853451 
L 155.39867 199.629672 
L 159.786456 195.405892 
L 164.174241 191.182113 
L 168.562026 186.958333 
L 172.949811 182.734554 
L 177.337596 178.510774 
L 181.725381 174.286995 
L 186.113166 170.063215 
L 190.500952 165.839436 
L 194.888737 161.615657 
L 199.276522 157.391877 
L 203.664307 153.168098 
L 208.052092 148.944318 
L 212.439877 144.720539 
L 216.827662 140.496759 
L 221.215448 136.27298 
L 225.603233 132.0492 
L 229.991018 127.825421 
L 234.378803 123.601641 
L 238.766588 119.377862 
L 243.154373 115.154082 
L 247.542158 110.930303 
L 251.929944 106.706524 
L 256.317729 102.482744 
L 260.705514 98.258965 
L 265.093299 94.035185 
L 269.481084 89.811406 
L 273.868869 85.587626 
L 278.256654 81.363847 
L 282.64444 77.140067 
L 287.032225 72.916288 
L 291.42001 68.692508 
L 295.807795 64.468729 
L 300.19558 60.24495 
L 304.583365 56.02117 
L 308.97115 51.797391 
" style="fill:none;stroke:#c0003f;stroke-linecap:square;stroke-width:1.5;"/>
   </g>
   <g id="line2d_15">
    <defs>
     <path d="M 0 -5 
L -5 5 
L 5 5 
z
" id="m4c64c8eb9c" style="stroke:#4000bf;stroke-linejoin:miter;"/>
    </defs>
    <g clip-path="url(#pb37ecbe1c8)">
     <use style="fill:#4000bf;opacity:0.4;stroke:#4000bf;stroke-linejoin:miter;" x="89.581893" xlink:href="#m4c64c8eb9c" y="262.986364"/>
     <use style="fill:#4000bf;opacity:0.4;stroke:#4000bf;stroke-linejoin:miter;" x="107.133034" xlink:href="#m4c64c8eb9c" y="243.6613"/>
     <use style="fill:#4000bf;opacity:0.4;stroke:#4000bf;stroke-linejoin:miter;" x="124.684174" xlink:href="#m4c64c8eb9c" y="223.423472"/>
     <use style="fill:#4000bf;opacity:0.4;stroke:#4000bf;stroke-linejoin:miter;" x="142.235315" xlink:href="#m4c64c8eb9c" y="204.681851"/>
     <use style="fill:#4000bf;opacity:0.4;stroke:#4000bf;stroke-linejoin:miter;" x="159.786456" xlink:href="#m4c64c8eb9c" y="186.319474"/>
     <use style="fill:#4000bf;opacity:0.4;stroke:#4000bf;stroke-linejoin:miter;" x="177.337596" xlink:href="#m4c64c8eb9c" y="166.894111"/>
     <use style="fill:#4000bf;opacity:0.4;stroke:#4000bf;stroke-linejoin:miter;" x="194.888737" xlink:href="#m4c64c8eb9c" y="147.716434"/>
     <use style="fill:#4000bf;opacity:0.4;stroke:#4000bf;stroke-linejoin:miter;" x="212.439877" xlink:href="#m4c64c8eb9c" y="127.858284"/>
     <use style="fill:#4000bf;opacity:0.4;stroke:#4000bf;stroke-linejoin:miter;" x="229.991018" xlink:href="#m4c64c8eb9c" y="109.329495"/>
     <use style="fill:#4000bf;opacity:0.4;stroke:#4000bf;stroke-linejoin:miter;" x="247.542158" xlink:href="#m4c64c8eb9c" y="92.400006"/>
     <use style="fill:#4000bf;opacity:0.4;stroke:#4000bf;stroke-linejoin:miter;" x="265.093299" xlink:href="#m4c64c8eb9c" y="73.930096"/>
     <use style="fill:#4000bf;opacity:0.4;stroke:#4000bf;stroke-linejoin:miter;" x="282.64444" xlink:href="#m4c64c8eb9c" y="53.125543"/>
     <use style="fill:#4000bf;opacity:0.4;stroke:#4000bf;stroke-linejoin:miter;" x="300.19558" xlink:href="#m4c64c8eb9c" y="31.437361"/>
    </g>
   </g>
   <g id="line2d_16">
    <path clip-path="url(#pb37ecbe1c8)" d="M 89.581893 262.986364 
L 93.969678 258.180909 
L 98.357464 253.375455 
L 102.745249 248.57 
L 107.133034 243.764545 
L 111.520819 238.959091 
L 115.908604 234.153636 
L 120.296389 229.348182 
L 124.684174 224.542727 
L 129.07196 219.737273 
L 133.459745 214.931818 
L 137.84753 210.126364 
L 142.235315 205.320909 
L 146.6231 200.515455 
L 151.010885 195.71 
L 155.39867 190.904545 
L 159.786456 186.099091 
L 164.174241 181.293636 
L 168.562026 176.488182 
L 172.949811 171.682727 
L 177.337596 166.877273 
L 181.725381 162.071818 
L 186.113166 157.266364 
L 190.500952 152.460909 
L 194.888737 147.655455 
L 199.276522 142.85 
L 203.664307 138.044545 
L 208.052092 133.239091 
L 212.439877 128.433636 
L 216.827662 123.628182 
L 221.215448 118.822727 
L 225.603233 114.017273 
L 229.991018 109.211818 
L 234.378803 104.406364 
L 238.766588 99.600909 
L 243.154373 94.795455 
L 247.542158 89.99 
L 251.929944 85.184545 
L 256.317729 80.379091 
L 260.705514 75.573636 
L 265.093299 70.768182 
L 269.481084 65.962727 
L 273.868869 61.157273 
L 278.256654 56.351818 
L 282.64444 51.546364 
L 287.032225 46.740909 
L 291.42001 41.935455 
L 295.807795 37.13 
L 300.19558 32.324545 
L 304.583365 27.519091 
L 308.97115 22.713636 
" style="fill:none;stroke:#4000bf;stroke-linecap:square;stroke-width:1.5;"/>
   </g>
   <g id="patch_3">
    <path d="M 78.61243 275 
L 78.61243 10.7 
" style="fill:none;stroke:#000000;stroke-linecap:square;stroke-linejoin:miter;stroke-width:0.8;"/>
   </g>
   <g id="patch_4">
    <path d="M 319.940613 275 
L 319.940613 10.7 
" style="fill:none;stroke:#000000;stroke-linecap:square;stroke-linejoin:miter;stroke-width:0.8;"/>
   </g>
   <g id="patch_5">
    <path d="M 78.61243 275 
L 319.940613 275 
" style="fill:none;stroke:#000000;stroke-linecap:square;stroke-linejoin:miter;stroke-width:0.8;"/>
   </g>
   <g id="patch_6">
    <path d="M 78.61243 10.7 
L 319.940613 10.7 
" style="fill:none;stroke:#000000;stroke-linecap:square;stroke-linejoin:miter;stroke-width:0.8;"/>
   </g>
   <g id="legend_1">
    <g id="patch_7">
     <path d="M 85.61243 90.543867 
L 194.58696 90.543867 
Q 196.58696 90.543867 196.58696 88.543867 
L 196.58696 17.7 
Q 196.58696 15.7 194.58696 15.7 
L 85.61243 15.7 
Q 83.61243 15.7 83.61243 17.7 
L 83.61243 88.543867 
Q 83.61243 90.543867 85.61243 90.543867 
z
" style="fill:#ffffff;opacity:0.8;stroke:#cccccc;stroke-linejoin:miter;"/>
    </g>
    <g id="text_11">
     <!-- $\mathbb{V}(h) \propto (f_s+\xi(1-f_s))$ -->
     <defs>
      <path d="M 63.703125 60.40625 
C 64.203125 61.59375 65.703125 65.09375 69.90625 65.5 
C 70.5 65.5 72 65.703125 72 67.203125 
C 72 69 70.5 69 68.703125 69 
L 52.59375 69 
C 50.796875 69 49.296875 69 49.296875 67.140625 
C 49.296875 65.59375 50.796875 65.59375 51.40625 65.5 
C 52.90625 65.296875 55 64.90625 55 59.703125 
C 55 53.796875 51.796875 44.296875 50.09375 39.5 
C 49.40625 37.5 49.40625 37.296875 42.09375 19 
C 40.296875 22.703125 25 55.890625 25 62.390625 
C 25 63.109375 27.296875 65.28125 31 65.59375 
C 32.59375 65.59375 32.90625 66.703125 32.90625 67.203125 
C 32.90625 69 31.40625 69 29.59375 69 
L 3.40625 69 
C 1.59375 69 0.09375 69 0.09375 67.203125 
C 0.09375 65.796875 1.40625 65.59375 2.203125 65.5 
C 5.5 65 7.59375 60.296875 7.796875 60 
L 34.703125 0.703125 
C 35.40625 -0.796875 35.90625 -1.40625 36.796875 -1.40625 
C 37.90625 -1.40625 38.203125 -0.90625 38.796875 0.703125 
z
M 62.703125 65.59375 
C 61.5 64.28125 61 63.0625 60.296875 61.453125 
C 59.90625 60.328125 58.796875 57.71875 58.296875 56.59375 
C 58.40625 57.515625 58.5 58.8125 58.5 59.734375 
C 58.5 61.046875 58.40625 63.78125 57.296875 65.59375 
z
M 11.40625 60.859375 
C 10.5 62.78125 8.703125 65.59375 8.5 65.59375 
L 22.703125 65.59375 
C 22.203125 65.1875 21.40625 64.6875 21.40625 62.59375 
C 21.40625 55.78125 34.203125 27.734375 40.5 13.796875 
L 36.796875 4.6875 
z
" id="MSBM10-86"/>
      <path d="M 30.59375 -24.390625 
C 30.59375 -24.296875 30.59375 -24.09375 30.296875 -23.796875 
C 25.703125 -19.125 13.40625 -6.359375 13.40625 24.703125 
C 13.40625 55.765625 25.5 68.421875 30.40625 73.390625 
C 30.40625 73.5 30.59375 73.703125 30.59375 74 
C 30.59375 74.296875 30.296875 74.5 29.90625 74.5 
C 28.796875 74.5 20.296875 67.125 15.40625 56.15625 
C 10.40625 45.109375 9 34.359375 9 24.8125 
C 9 17.625 9.703125 5.484375 15.703125 -7.359375 
C 20.5 -17.734375 28.703125 -25 29.90625 -25 
C 30.40625 -25 30.59375 -24.796875 30.59375 -24.390625 
z
" id="CMR17-40"/>
      <path d="M 28.09375 66.515625 
C 28.203125 66.921875 28.40625 67.515625 28.40625 68 
C 28.40625 69 27.40625 69 27.203125 69 
C 27.09375 69 22.203125 68.5625 21.703125 68.4375 
C 20 68.328125 18.5 68.09375 16.703125 68.09375 
C 14.203125 67.890625 13.5 67.796875 13.5 66 
C 13.5 65 14.296875 65 15.703125 65 
C 20.59375 65 20.703125 64.109375 20.703125 63.125 
C 20.703125 62.53125 20.5 61.734375 20.40625 61.4375 
L 5.90625 3.875 
C 5.5 2.375 5.5 2.1875 5.5 1.578125 
C 5.5 -0.59375 7.203125 -1 8.203125 -1 
C 9.90625 -1 11.203125 0.296875 11.703125 1.390625 
L 16.203125 19.453125 
C 16.703125 21.65625 17.296875 23.75 17.796875 25.9375 
C 18.90625 30.140625 18.90625 30.234375 20.796875 33.125 
C 22.703125 36.015625 27.203125 42.015625 34.90625 42.015625 
C 38.90625 42.015625 40.296875 39.015625 40.296875 35.03125 
C 40.296875 29.4375 36.40625 18.5625 34.203125 12.578125 
C 33.296875 10.171875 32.796875 8.875 32.796875 7.078125 
C 32.796875 2.59375 35.90625 -1 40.703125 -1 
C 50 -1 53.5 13.671875 53.5 14.265625 
C 53.5 14.765625 53.09375 15.171875 52.5 15.171875 
C 51.59375 15.171875 51.5 14.875 51 13.171875 
C 48.703125 5.1875 45 1 41 1 
C 40 1 38.40625 1 38.40625 4.203125 
C 38.40625 6.8125 39.59375 10 40 11.09375 
C 41.796875 15.90625 46.296875 27.703125 46.296875 33.515625 
C 46.296875 39.5 42.796875 44 35.203125 44 
C 29.5 44 24.5 41.3125 20.40625 36.125 
z
" id="CMMI12-104"/>
      <path d="M 26.296875 24.703125 
C 26.296875 31.875 25.59375 44.015625 19.59375 56.859375 
C 14.796875 67.234375 6.59375 74.5 5.40625 74.5 
C 5.09375 74.5 4.703125 74.390625 4.703125 73.890625 
C 4.703125 73.703125 4.796875 73.59375 4.90625 73.390625 
C 9.703125 68.40625 21.90625 55.75 21.90625 24.75 
C 21.90625 -6.359375 9.796875 -19.015625 4.90625 -24.015625 
C 4.796875 -24.203125 4.703125 -24.3125 4.703125 -24.5 
C 4.703125 -25 5.09375 -25 5.40625 -25 
C 6.5 -25 15 -17.625 19.90625 -6.65625 
C 24.90625 4.390625 26.296875 15.140625 26.296875 24.703125 
z
" id="CMR17-41"/>
      <path d="M 72.203125 3.203125 
C 71.796875 3.203125 70.203125 3 69.90625 3 
C 62 3 56.703125 10.796875 53.296875 16 
C 52.296875 17.703125 49.59375 21.796875 48.5 23.5 
C 50.90625 28.90625 57.59375 41.296875 69.5 41.296875 
C 70.203125 41.296875 71.09375 41.296875 72.203125 41 
C 72.203125 43.59375 72.09375 43.703125 71.90625 43.90625 
C 71.203125 44.09375 69.703125 44.203125 68.796875 44.203125 
C 56.09375 44.203125 48.703125 32 46.296875 27 
C 42.296875 33.09375 40.90625 35.296875 37.203125 38.40625 
C 31.09375 43.703125 25.59375 44.203125 23.09375 44.203125 
C 12 44.203125 5.59375 33 5.59375 21.5 
C 5.59375 10.296875 11.796875 -1.09375 22.796875 -1.09375 
C 35.5 -1.09375 42.90625 11.09375 45.296875 16.09375 
C 49.296875 10 50.703125 7.796875 54.40625 4.703125 
C 60.5 -0.59375 66 -1.09375 68.5 -1.09375 
C 69.703125 -1.09375 71.296875 -0.90625 72.203125 -0.6875 
z
M 43.09375 19.59375 
C 40.703125 14.203125 34 1.796875 22.09375 1.796875 
C 12.40625 1.796875 7.796875 12.40625 7.796875 21.5 
C 7.796875 31.40625 13.40625 40.09375 21.703125 40.09375 
C 29.59375 40.09375 34.90625 32.296875 38.296875 27.09375 
C 39.296875 25.40625 42 21.296875 43.09375 19.59375 
z
" id="CMSY10-47"/>
      <path d="M 44.59375 40.09375 
C 46.59375 40.09375 47.40625 40.09375 47.40625 42 
C 47.40625 43 46.59375 43 44.796875 43 
L 36.703125 43 
C 38.59375 53.578125 40 60.890625 40.796875 64.171875 
C 41.40625 66.640625 43.5 69 46.09375 69 
C 48.203125 69 50.296875 68.09375 51.296875 67.15625 
C 47.40625 66.75 46.203125 63.78125 46.203125 62.015625 
C 46.203125 59.953125 47.703125 58.734375 49.59375 58.734375 
C 51.59375 58.734375 54.59375 60.46875 54.59375 64.359375 
C 54.59375 68.640625 50.40625 71 46 71 
C 41.703125 71 37.5 67.71875 35.5 63.71875 
C 33.703125 60.125 32.703125 56.421875 30.40625 43 
L 23.703125 43 
C 21.796875 43 20.796875 43 20.796875 41.203125 
C 20.796875 40.09375 21.40625 40.09375 23.40625 40.09375 
L 29.796875 40.09375 
C 28 30.875 23.90625 8.46875 21.59375 -2.140625 
C 19.90625 -10.765625 18.40625 -18 13.40625 -18 
C 13.09375 -18 10.203125 -18 8.40625 -16.109375 
C 13.5 -15.703125 13.5 -11.34375 13.5 -11.25 
C 13.5 -9.265625 12 -8.078125 10.09375 -8.078125 
C 8.09375 -8.078125 5.09375 -9.765625 5.09375 -13.546875 
C 5.09375 -17.8125 9.5 -20 13.40625 -20 
C 23.59375 -20 27.796875 -1.84375 28.90625 3.109375 
C 30.703125 10.75 35.59375 37.125 36.09375 40.09375 
z
" id="CMMI12-102"/>
      <path d="M 22.796875 20 
C 24.5 19.703125 27.203125 19.109375 27.796875 19 
C 29.09375 18.625 33.59375 17.03125 33.59375 12.234375 
C 33.59375 9.15625 30.796875 1.09375 19.203125 1.09375 
C 17.09375 1.09375 9.59375 1.09375 7.59375 6.8125 
C 11.59375 6.3125 13.59375 9.421875 13.59375 11.640625 
C 13.59375 13.75 12.203125 14.84375 10.203125 14.84375 
C 8 14.84375 5.09375 13.140625 5.09375 8.625 
C 5.09375 2.703125 11.09375 -1 19.09375 -1 
C 34.296875 -1 38.796875 10.171875 38.796875 15.375 
C 38.796875 16.859375 38.796875 19.65625 35.59375 22.84375 
C 33.09375 25.25 30.703125 25.75 25.296875 26.84375 
C 22.59375 27.4375 18.296875 28.34375 18.296875 32.828125 
C 18.296875 34.828125 20.09375 42.015625 29.59375 42.015625 
C 33.796875 42.015625 37.90625 40.453125 38.90625 37 
C 34.5 37 34.296875 33.203125 34.296875 33.109375 
C 34.296875 31 36.203125 30.40625 37.09375 30.40625 
C 38.5 30.40625 41.296875 31.484375 41.296875 35.640625 
C 41.296875 39.765625 37.5 44 29.703125 44 
C 16.59375 44 13.09375 33.75 13.09375 29.671875 
C 13.09375 22.09375 20.5 20.5 22.796875 20 
z
" id="CMMI12-115"/>
      <path d="M 37.703125 23 
L 64.203125 23 
C 65.59375 23 67.296875 23 67.296875 24.6875 
C 67.296875 26.484375 65.703125 26.484375 64.203125 26.484375 
L 37.703125 26.484375 
L 37.703125 52.90625 
C 37.703125 54.296875 37.703125 56 36 56 
C 34.203125 56 34.203125 54.40625 34.203125 52.90625 
L 34.203125 26.484375 
L 7.703125 26.484375 
C 6.296875 26.484375 4.59375 26.484375 4.59375 24.796875 
C 4.59375 23 6.203125 23 7.703125 23 
L 34.203125 23 
L 34.203125 -3.40625 
C 34.203125 -4.796875 34.203125 -6.5 35.90625 -6.5 
C 37.703125 -6.5 37.703125 -4.90625 37.703125 -3.40625 
z
" id="CMR17-43"/>
      <path d="M 26.09375 -0.375 
L 15.59375 3.78125 
C 13 4.75 7 7.125 7 13.046875 
C 7 21.515625 17.5 30.109375 19.59375 30.109375 
C 19.796875 30.109375 20.703125 29.90625 21 29.8125 
C 23.703125 29.015625 26.296875 29.015625 28.09375 29.015625 
C 31.203125 29.015625 37.09375 29.015625 37.09375 32.21875 
C 37.09375 34.65625 33.5 35 29.203125 35 
C 27.203125 35 24.5 35 20.90625 33.796875 
C 18.5 35.8125 17.5 39 17.5 42.03125 
C 17.5 47.53125 21.09375 55.34375 29 59.0625 
C 30.796875 57 33.203125 57 35.296875 57 
C 37.796875 57 43.90625 57 43.90625 59.6875 
C 43.90625 62 39.09375 62 35.90625 62 
C 33.90625 62 32.40625 62 29.59375 61.5 
C 29.09375 62.671875 29 62.875 29 65.046875 
C 29 66.828125 29.40625 68.21875 29.40625 68.5 
C 29.40625 69.09375 28.90625 69.5 28.40625 69.5 
C 26.796875 69.5 26.796875 65.84375 26.796875 65.046875 
C 26.796875 63.671875 26.90625 62.28125 27.5 61 
C 15.5 57.484375 10.203125 48.953125 10.203125 42.4375 
C 10.203125 36.40625 14.203125 33.09375 16.90625 31.578125 
C 6.59375 26.046875 2.203125 15.953125 2.203125 10.609375 
C 2.203125 2 10.09375 -1.078125 13.703125 -2.5625 
L 22.703125 -6.125 
C 25.203125 -7.015625 29.296875 -8.6875 30 -9.09375 
C 31 -9.78125 31.796875 -10.984375 31.796875 -12.5625 
C 31.796875 -14.640625 30.203125 -18 26.703125 -18 
C 25.203125 -18 21.90625 -17.609375 18.296875 -14.921875 
C 17.59375 -14.3125 17.5 -14.21875 17.09375 -14.21875 
C 16.59375 -14.21875 16.09375 -14.625 16.09375 -15.21875 
C 16.09375 -16.3125 21.296875 -20 26.703125 -20 
C 33.09375 -20 37 -13.890625 37 -9.640625 
C 37 -6.578125 35.296875 -4.125 32.09375 -2.734375 
z
M 31.203125 59.640625 
C 32.90625 60 34.703125 60 36 60 
C 39.296875 60 39.59375 59.9375 41.59375 59.5625 
C 40.40625 59.203125 39.59375 58.984375 35.40625 58.984375 
C 33.5 58.984375 32.296875 58.984375 31.203125 59.640625 
z
M 23.296875 32.140625 
C 25.703125 33 27.90625 33 29.09375 33 
C 32.40625 33 32.59375 32.859375 34.796875 32.140625 
C 33.703125 31.421875 32.796875 31 28.5 31 
C 26.09375 31 25.09375 31 23.296875 32.140625 
z
" id="CMMI12-24"/>
      <path d="M 65.90625 23 
C 67.59375 23 69.40625 23 69.40625 25 
C 69.40625 27 67.59375 27 65.90625 27 
L 11.796875 27 
C 10.09375 27 8.296875 27 8.296875 25 
C 8.296875 23 10.09375 23 11.796875 23 
z
" id="CMSY10-0"/>
     </defs>
     <g transform="translate(89.155649 27.540654)scale(0.1 -0.1)">
      <use transform="translate(0 14.943915)scale(0.996264)" xlink:href="#MSBM10-86"/>
      <use transform="translate(71.95259 14.943915)scale(0.996264)" xlink:href="#CMR17-40"/>
      <use transform="translate(107.233358 14.943915)scale(0.996264)" xlink:href="#CMMI12-104"/>
      <use transform="translate(163.387982 14.943915)scale(0.996264)" xlink:href="#CMR17-41"/>
      <use transform="translate(226.342758 14.943915)scale(0.996264)" xlink:href="#CMSY10-47"/>
      <use transform="translate(331.504235 14.943915)scale(0.996264)" xlink:href="#CMR17-40"/>
      <use transform="translate(366.785002 14.943915)scale(0.996264)" xlink:href="#CMMI12-102"/>
      <use transform="translate(414.86824 0)scale(0.697382)" xlink:href="#CMMI12-115"/>
      <use transform="translate(469.670468 14.943915)scale(0.996264)" xlink:href="#CMR17-43"/>
      <use transform="translate(563.524463 14.943915)scale(0.996264)" xlink:href="#CMMI12-24"/>
      <use transform="translate(610.944797 14.943915)scale(0.996264)" xlink:href="#CMR17-40"/>
      <use transform="translate(646.225565 14.943915)scale(0.996264)" xlink:href="#CMR17-49"/>
      <use transform="translate(714.055249 14.943915)scale(0.996264)" xlink:href="#CMSY10-0"/>
      <use transform="translate(813.681923 14.943915)scale(0.996264)" xlink:href="#CMMI12-102"/>
      <use transform="translate(861.765161 0)scale(0.697382)" xlink:href="#CMMI12-115"/>
      <use transform="translate(894.428182 14.943915)scale(0.996264)" xlink:href="#CMR17-41"/>
      <use transform="translate(929.70895 14.943915)scale(0.996264)" xlink:href="#CMR17-41"/>
     </g>
    </g>
    <g id="line2d_17"/>
    <g id="line2d_18">
     <g>
      <use style="fill:#3ec100;opacity:0.4;stroke:#3ec100;stroke-linejoin:miter;" x="97.61243" xlink:href="#m721c726913" y="38.26096"/>
     </g>
    </g>
    <g id="text_12">
     <!-- $\xi=0.2, \kappa = 209.0$ -->
     <defs>
      <path d="M 64.296875 31.515625 
C 65.796875 31.515625 67.296875 31.515625 67.296875 33.203125 
C 67.296875 35 65.59375 35 63.90625 35 
L 8 35 
C 6.296875 35 4.59375 35 4.59375 33.203125 
C 4.59375 31.515625 6.09375 31.515625 7.59375 31.515625 
z
M 63.90625 14 
C 65.59375 14 67.296875 14 67.296875 15.796875 
C 67.296875 17.484375 65.796875 17.484375 64.296875 17.484375 
L 7.59375 17.484375 
C 6.09375 17.484375 4.59375 17.484375 4.59375 15.796875 
C 4.59375 14 6.296875 14 8 14 
z
" id="CMR17-61"/>
      <path d="M 19.5 -0.484375 
C 19.5 5.359375 17.59375 9.671875 13.5 9.671875 
C 10.296875 9.671875 8.703125 7.078125 8.703125 4.890625 
C 8.703125 2.6875 10.203125 0 13.59375 0 
C 14.90625 0 16 0.40625 16.90625 1.296875 
C 17.09375 1.5 17.203125 1.5 17.296875 1.5 
C 17.5 1.5 17.5 0.078125 17.5 -0.421875 
C 17.5 -3.75 16.90625 -10.296875 11.09375 -16.875 
C 10 -18.078125 10 -18.28125 10 -18.484375 
C 10 -19 10.5 -19.5 11 -19.5 
C 11.796875 -19.5 19.5 -12.046875 19.5 -0.484375 
z
" id="CMMI12-59"/>
      <path d="M 21.296875 25 
C 24.59375 26.78125 28.296875 29.875 30.796875 31.96875 
C 36.796875 37.140625 39 38.734375 42.796875 40.21875 
C 42.40625 39.625 42.296875 38.828125 42.296875 38.140625 
C 42.296875 35.4375 44.59375 34.9375 45.59375 34.9375 
C 48.796875 34.9375 50.59375 37.921875 50.59375 39.8125 
C 50.59375 40.40625 50.40625 43 46.90625 43 
C 40.90625 43 35 37.984375 30.59375 34.34375 
C 24.796875 29.3125 21.90625 27.15625 17.796875 25.875 
L 21.59375 41.5 
C 21.59375 43.109375 20.296875 44 19 44 
C 18.09375 44 15.90625 43.703125 15.09375 40.5 
L 5.796875 3.5 
C 5.5 2.3125 5.5 2.09375 5.5 1.5 
C 5.5 0.09375 6.59375 -1 8.09375 -1 
C 11.09375 -1 11.703125 1.65625 12.203125 3.8125 
C 12.796875 5.9375 16.90625 23 17.09375 23 
C 29.796875 23 34.09375 19.75 34.09375 14.734375 
C 34.09375 14.015625 34.09375 13.71875 33.796875 12.59375 
C 33.40625 10.65625 33.40625 9.515625 33.40625 8.90625 
C 33.40625 2.78125 37.296875 -1 42.203125 -1 
C 46.296875 -1 48.59375 1.921875 50.09375 4.546875 
C 52.203125 8.484375 53.5 14.03125 53.5 14.421875 
C 53.5 14.9375 53.09375 15.328125 52.5 15.328125 
C 51.59375 15.328125 51.5 14.9375 51.09375 13.3125 
C 49.796875 8.46875 47.59375 1 42.5 1 
C 40.296875 1 39.203125 2.3125 39.203125 5.84375 
C 39.203125 7.78125 39.59375 10.015625 40 11.515625 
C 40.203125 12.53125 40.5 13.75 40.5 14.859375 
C 40.5 24.078125 27.90625 25 21.296875 25 
z
" id="CMMI12-20"/>
      <path d="M 35.203125 29.125 
C 35.203125 7.25 26.09375 0.484375 18.59375 0.484375 
C 16.296875 0.484375 10.703125 0.484375 8.40625 4.59375 
C 11 4.1875 12.90625 5.578125 12.90625 8.09375 
C 12.90625 10.8125 10.703125 11.703125 9.296875 11.703125 
C 8.40625 11.703125 5.703125 11.296875 5.703125 7.90625 
C 5.703125 1.109375 11.59375 -2 18.796875 -2 
C 30.296875 -2 42 10.53125 42 32.390625 
C 42 59.640625 30.796875 65.296875 23.203125 65.296875 
C 13.296875 65.296875 3.796875 56.6875 3.796875 43.40625 
C 3.796875 31.109375 11.90625 22 22.09375 22 
C 30.5 22 34.203125 29.734375 35.203125 33 
z
M 22.296875 23.59375 
C 19.59375 23.59375 15.796875 24.09375 12.703125 30.03125 
C 10.59375 33.890625 10.59375 38.453125 10.59375 43.296875 
C 10.59375 49.15625 10.59375 53.203125 13.40625 57.5625 
C 14.796875 59.640625 17.40625 63 23.203125 63 
C 35 63 35 45.078125 35 41.125 
C 35 34.09375 31.796875 23.59375 22.296875 23.59375 
z
" id="CMR17-57"/>
     </defs>
     <g transform="translate(115.61243 41.76096)scale(0.1 -0.1)">
      <use transform="scale(0.996264)" xlink:href="#CMMI12-24"/>
      <use transform="translate(75.094342 0)scale(0.996264)" xlink:href="#CMR17-61"/>
      <use transform="translate(174.483139 0)scale(0.996264)" xlink:href="#CMR17-48"/>
      <use transform="translate(220.173617 0)scale(0.996264)" xlink:href="#CMMI12-58"/>
      <use transform="translate(247.270794 0)scale(0.996264)" xlink:href="#CMR17-50"/>
      <use transform="translate(292.961271 0)scale(0.996264)" xlink:href="#CMMI12-59"/>
      <use transform="translate(336.662853 0)scale(0.996264)" xlink:href="#CMMI12-20"/>
      <use transform="translate(420.491486 0)scale(0.996264)" xlink:href="#CMR17-61"/>
      <use transform="translate(519.880283 0)scale(0.996264)" xlink:href="#CMR17-50"/>
      <use transform="translate(565.57076 0)scale(0.996264)" xlink:href="#CMR17-48"/>
      <use transform="translate(611.261237 0)scale(0.996264)" xlink:href="#CMR17-57"/>
      <use transform="translate(656.951714 0)scale(0.996264)" xlink:href="#CMMI12-58"/>
      <use transform="translate(684.048891 0)scale(0.996264)" xlink:href="#CMR17-48"/>
     </g>
    </g>
    <g id="line2d_19"/>
    <g id="line2d_20">
     <g>
      <use style="fill:#be4100;opacity:0.4;stroke:#be4100;" x="97.61243" xlink:href="#m451a348160" y="52.481267"/>
     </g>
    </g>
    <g id="text_13">
     <!-- $\xi=0.4, \kappa = 406.0$ -->
     <defs>
      <path d="M 10.59375 34 
C 10.59375 57.65625 21.796875 63 28.296875 63 
C 30.40625 63 35.5 62.640625 37.5 59 
C 35.90625 59 32.90625 59 32.90625 55.515625 
C 32.90625 52.828125 35.09375 51.921875 36.5 51.921875 
C 37.40625 51.921875 40.09375 52.3125 40.09375 55.625 
C 40.09375 61.78125 35.09375 65.296875 28.203125 65.296875 
C 16.296875 65.296875 3.796875 52.96875 3.796875 31 
C 3.796875 3.953125 15.09375 -2 23.09375 -2 
C 32.796875 -2 42 6.671875 42 20.046875 
C 42 32.515625 33.90625 41.59375 23.703125 41.59375 
C 17.59375 41.59375 13.09375 37.609375 10.59375 30.625 
z
M 23.09375 0.390625 
C 10.796875 0.390625 10.796875 18.75 10.796875 22.4375 
C 10.796875 29.625 14.203125 40 23.5 40 
C 25.203125 40 30.09375 40 33.40625 33.125 
C 35.203125 29.21875 35.203125 25.140625 35.203125 20.140625 
C 35.203125 14.75 35.203125 10.78125 33.09375 6.78125 
C 30.90625 2.671875 27.703125 0.390625 23.09375 0.390625 
z
" id="CMR17-54"/>
     </defs>
     <g transform="translate(115.61243 55.981267)scale(0.1 -0.1)">
      <use transform="scale(0.996264)" xlink:href="#CMMI12-24"/>
      <use transform="translate(75.094342 0)scale(0.996264)" xlink:href="#CMR17-61"/>
      <use transform="translate(174.483139 0)scale(0.996264)" xlink:href="#CMR17-48"/>
      <use transform="translate(220.173617 0)scale(0.996264)" xlink:href="#CMMI12-58"/>
      <use transform="translate(247.270794 0)scale(0.996264)" xlink:href="#CMR17-52"/>
      <use transform="translate(292.961271 0)scale(0.996264)" xlink:href="#CMMI12-59"/>
      <use transform="translate(336.662853 0)scale(0.996264)" xlink:href="#CMMI12-20"/>
      <use transform="translate(420.491486 0)scale(0.996264)" xlink:href="#CMR17-61"/>
      <use transform="translate(519.880283 0)scale(0.996264)" xlink:href="#CMR17-52"/>
      <use transform="translate(565.57076 0)scale(0.996264)" xlink:href="#CMR17-48"/>
      <use transform="translate(611.261237 0)scale(0.996264)" xlink:href="#CMR17-54"/>
      <use transform="translate(656.951714 0)scale(0.996264)" xlink:href="#CMMI12-58"/>
      <use transform="translate(684.048891 0)scale(0.996264)" xlink:href="#CMR17-48"/>
     </g>
    </g>
    <g id="line2d_21"/>
    <g id="line2d_22">
     <g>
      <use style="fill:#c0003f;opacity:0.4;stroke:#c0003f;stroke-linejoin:miter;" x="97.61243" xlink:href="#m22b990885c" y="66.701574"/>
     </g>
    </g>
    <g id="text_14">
     <!-- $\xi=0.6, \kappa = 605.0$ -->
     <defs>
      <path d="M 11.40625 57.6875 
C 12.40625 57.28125 16.5 56 20.703125 56 
C 30 56 35.09375 61.109375 38 64.0625 
C 38 64.953125 38 65.5 37.40625 65.5 
C 37.296875 65.5 37.09375 65.5 36.296875 65.046875 
C 32.796875 63.40625 28.703125 62.078125 23.703125 62.078125 
C 20.703125 62.078125 16.203125 62.484375 11.296875 64.671875 
C 10.203125 65.171875 10 65.171875 9.90625 65.171875 
C 9.40625 65.171875 9.296875 65.0625 9.296875 63.078125 
L 9.296875 34.421875 
C 9.296875 32.640625 9.296875 32.140625 10.296875 32.140625 
C 10.796875 32.140625 11 32.34375 11.5 33.03125 
C 14.703125 37.515625 19.09375 39.40625 24.09375 39.40625 
C 27.59375 39.40625 35.09375 37.21875 35.09375 20.140625 
C 35.09375 16.953125 35.09375 11.171875 32.09375 6.578125 
C 29.59375 2.484375 25.703125 0.390625 21.40625 0.390625 
C 14.796875 0.390625 8.09375 5 6.296875 12.71875 
C 6.703125 12.609375 7.5 12.421875 7.90625 12.421875 
C 9.203125 12.421875 11.703125 13.125 11.703125 16.21875 
C 11.703125 18.90625 9.796875 20 7.90625 20 
C 5.59375 20 4.09375 18.59375 4.09375 15.796875 
C 4.09375 7.09375 11 -2 21.59375 -2 
C 31.90625 -2 41.703125 6.875 41.703125 19.75 
C 41.703125 31.71875 33.90625 41 24.203125 41 
C 19.09375 41 14.796875 39.109375 11.40625 35.53125 
z
" id="CMR17-53"/>
     </defs>
     <g transform="translate(115.61243 70.201574)scale(0.1 -0.1)">
      <use transform="scale(0.996264)" xlink:href="#CMMI12-24"/>
      <use transform="translate(75.094342 0)scale(0.996264)" xlink:href="#CMR17-61"/>
      <use transform="translate(174.483139 0)scale(0.996264)" xlink:href="#CMR17-48"/>
      <use transform="translate(220.173617 0)scale(0.996264)" xlink:href="#CMMI12-58"/>
      <use transform="translate(247.270794 0)scale(0.996264)" xlink:href="#CMR17-54"/>
      <use transform="translate(292.961271 0)scale(0.996264)" xlink:href="#CMMI12-59"/>
      <use transform="translate(336.662853 0)scale(0.996264)" xlink:href="#CMMI12-20"/>
      <use transform="translate(420.491486 0)scale(0.996264)" xlink:href="#CMR17-61"/>
      <use transform="translate(519.880283 0)scale(0.996264)" xlink:href="#CMR17-54"/>
      <use transform="translate(565.57076 0)scale(0.996264)" xlink:href="#CMR17-48"/>
      <use transform="translate(611.261237 0)scale(0.996264)" xlink:href="#CMR17-53"/>
      <use transform="translate(656.951714 0)scale(0.996264)" xlink:href="#CMMI12-58"/>
      <use transform="translate(684.048891 0)scale(0.996264)" xlink:href="#CMR17-48"/>
     </g>
    </g>
    <g id="line2d_23"/>
    <g id="line2d_24">
     <g>
      <use style="fill:#4000bf;opacity:0.4;stroke:#4000bf;stroke-linejoin:miter;" x="97.61243" xlink:href="#m4c64c8eb9c" y="80.92188"/>
     </g>
    </g>
    <g id="text_15">
     <!-- $\xi=0.8, \kappa = 801.0$ -->
     <defs>
      <path d="M 27.203125 35.375 
C 33.5 38.546875 39.90625 43.328125 39.90625 50.984375 
C 39.90625 60.015625 31.09375 65.296875 23 65.296875 
C 13.90625 65.296875 5.90625 58.734375 5.90625 49.6875 
C 5.90625 47.203125 6.5 42.921875 10.40625 39.140625 
C 11.40625 38.15625 15.59375 35.171875 18.296875 33.28125 
C 13.796875 30.984375 3.296875 25.53125 3.296875 14.59375 
C 3.296875 4.359375 13.09375 -2 22.796875 -2 
C 33.5 -2 42.5 5.65625 42.5 15.78125 
C 42.5 24.84375 36.40625 29.015625 32.40625 31.703125 
z
M 14.09375 44.09375 
C 13.296875 44.59375 9.296875 47.671875 9.296875 52.359375 
C 9.296875 58.421875 15.59375 63 22.796875 63 
C 30.703125 63 36.5 57.4375 36.5 50.96875 
C 36.5 41.703125 26.09375 36.421875 25.59375 36.421875 
C 25.5 36.421875 25.40625 36.421875 24.59375 37.03125 
z
M 32.5 23.734375 
C 34 22.640625 38.796875 19.375 38.796875 13.296875 
C 38.796875 5.953125 31.40625 0.390625 23 0.390625 
C 13.90625 0.390625 7 6.84375 7 14.6875 
C 7 22.546875 13.09375 29.09375 20 32.1875 
z
" id="CMR17-56"/>
     </defs>
     <g transform="translate(115.61243 84.42188)scale(0.1 -0.1)">
      <use transform="scale(0.996264)" xlink:href="#CMMI12-24"/>
      <use transform="translate(75.094342 0)scale(0.996264)" xlink:href="#CMR17-61"/>
      <use transform="translate(174.483139 0)scale(0.996264)" xlink:href="#CMR17-48"/>
      <use transform="translate(220.173617 0)scale(0.996264)" xlink:href="#CMMI12-58"/>
      <use transform="translate(247.270794 0)scale(0.996264)" xlink:href="#CMR17-56"/>
      <use transform="translate(292.961271 0)scale(0.996264)" xlink:href="#CMMI12-59"/>
      <use transform="translate(336.662853 0)scale(0.996264)" xlink:href="#CMMI12-20"/>
      <use transform="translate(420.491486 0)scale(0.996264)" xlink:href="#CMR17-61"/>
      <use transform="translate(519.880283 0)scale(0.996264)" xlink:href="#CMR17-56"/>
      <use transform="translate(565.57076 0)scale(0.996264)" xlink:href="#CMR17-48"/>
      <use transform="translate(611.261237 0)scale(0.996264)" xlink:href="#CMR17-49"/>
      <use transform="translate(656.951714 0)scale(0.996264)" xlink:href="#CMMI12-58"/>
      <use transform="translate(684.048891 0)scale(0.996264)" xlink:href="#CMR17-48"/>
     </g>
    </g>
   </g>
  </g>
 </g>
 <defs>
  <clipPath id="pb37ecbe1c8">
   <rect height="264.3" width="241.328183" x="78.61243" y="10.7"/>
  </clipPath>
 </defs>
</svg>
