<?xml version="1.0" encoding="utf-8" standalone="no"?>
<!DOCTYPE svg PUBLIC "-//W3C//DTD SVG 1.1//EN"
  "http://www.w3.org/Graphics/SVG/1.1/DTD/svg11.dtd">
<!-- Created with matplotlib (http://matplotlib.org/) -->
<svg height="330.048281pt" version="1.1" viewBox="0 0 1410.73038 330.048281" width="1410.73038pt" xmlns="http://www.w3.org/2000/svg" xmlns:xlink="http://www.w3.org/1999/xlink">
 <defs>
  <style type="text/css">
*{stroke-linecap:butt;stroke-linejoin:round;}
  </style>
 </defs>
 <g id="figure_1">
  <g id="patch_1">
   <path d="M 0 330.048281 
L 1410.73038 330.048281 
L 1410.73038 0 
L 0 0 
z
" style="fill:#ffffff;"/>
  </g>
  <g id="axes_1">
   <g id="patch_2">
    <path d="M 80.953931 274.59832 
L 321.587769 274.59832 
L 321.587769 14.29832 
L 80.953931 14.29832 
z
" style="fill:#ffffff;"/>
   </g>
   <g id="PolyCollection_1">
    <defs>
     <path d="M 91.891832 -237.659961 
L 91.891832 -237.659961 
L 94.808606 -239.162644 
L 97.72538 -238.838101 
L 100.642154 -238.766806 
L 103.558928 -238.580814 
L 106.475701 -237.763838 
L 109.392475 -236.2067 
L 112.309249 -235.552235 
L 115.226023 -234.768003 
L 118.142797 -234.455723 
L 121.05957 -234.412078 
L 123.976344 -233.915456 
L 126.893118 -232.867982 
L 129.809892 -230.629395 
L 132.726666 -229.859066 
L 135.643439 -228.600311 
L 138.560213 -228.565762 
L 141.476987 -227.663848 
L 144.393761 -226.632067 
L 147.310535 -225.773 
L 150.227308 -225.452549 
L 153.144082 -224.400691 
L 156.060856 -223.579895 
L 158.97763 -222.93346 
L 161.894404 -222.265237 
L 164.811177 -220.543979 
L 167.727951 -220.014133 
L 170.644725 -219.686634 
L 173.561499 -218.702428 
L 176.478273 -217.54842 
L 179.395046 -218.617771 
L 182.31182 -218.394962 
L 185.228594 -218.888225 
L 188.145368 -217.946403 
L 191.062142 -216.673429 
L 193.978916 -216.836238 
L 196.895689 -217.403775 
L 199.812463 -216.69118 
L 202.729237 -215.73842 
L 205.646011 -215.067486 
L 208.562785 -215.062002 
L 211.479558 -214.759782 
L 214.396332 -214.578681 
L 217.313106 -215.112919 
L 220.22988 -214.674062 
L 223.146654 -214.390714 
L 226.063427 -214.195439 
L 228.980201 -213.869956 
L 231.896975 -214.020745 
L 234.813749 -213.830643 
L 237.730523 -213.443279 
L 240.647296 -212.951355 
L 243.56407 -212.383763 
L 246.480844 -211.854754 
L 249.397618 -212.223423 
L 252.314392 -211.45345 
L 255.231165 -211.806631 
L 258.147939 -211.625917 
L 261.064713 -210.792161 
L 263.981487 -210.669671 
L 266.898261 -210.439696 
L 269.815034 -210.518488 
L 272.731808 -210.067461 
L 275.648582 -209.558156 
L 278.565356 -209.016891 
L 281.48213 -208.997328 
L 284.398903 -209.86857 
L 287.315677 -209.339969 
L 290.232451 -209.788048 
L 293.149225 -209.414676 
L 296.065999 -210.358143 
L 298.982772 -209.506395 
L 301.899546 -209.895786 
L 304.81632 -210.12808 
L 307.733094 -210.856034 
L 310.649868 -210.778574 
L 310.649868 -204.150186 
L 310.649868 -204.150186 
L 307.733094 -204.219795 
L 304.81632 -203.503345 
L 301.899546 -203.2684 
L 298.982772 -202.869343 
L 296.065999 -203.724382 
L 293.149225 -202.790565 
L 290.232451 -203.176229 
L 287.315677 -202.723409 
L 284.398903 -203.268025 
L 281.48213 -202.392914 
L 278.565356 -202.418123 
L 275.648582 -202.959185 
L 272.731808 -203.462448 
L 269.815034 -203.90555 
L 266.898261 -203.830245 
L 263.981487 -204.061522 
L 261.064713 -204.173041 
L 258.147939 -205.005465 
L 255.231165 -205.208434 
L 252.314392 -204.847872 
L 249.397618 -205.614971 
L 246.480844 -205.252978 
L 243.56407 -205.79198 
L 240.647296 -206.360337 
L 237.730523 -206.836469 
L 234.813749 -207.220113 
L 231.896975 -207.412392 
L 228.980201 -207.263315 
L 226.063427 -207.591446 
L 223.146654 -207.78558 
L 220.22988 -208.07359 
L 217.313106 -208.511162 
L 214.396332 -207.979993 
L 211.479558 -208.161229 
L 208.562785 -208.457959 
L 205.646011 -208.466532 
L 202.729237 -209.122087 
L 199.812463 -210.075243 
L 196.895689 -210.794559 
L 193.978916 -210.232915 
L 191.062142 -210.087529 
L 188.145368 -211.368357 
L 185.228594 -212.31293 
L 182.31182 -211.838398 
L 179.395046 -212.078922 
L 176.478273 -211.014073 
L 173.561499 -212.179598 
L 170.644725 -213.174193 
L 167.727951 -213.521913 
L 164.811177 -214.068147 
L 161.894404 -215.80107 
L 158.97763 -216.48875 
L 156.060856 -217.145116 
L 153.144082 -217.987117 
L 150.227308 -219.078829 
L 147.310535 -219.422143 
L 144.393761 -220.323225 
L 141.476987 -221.385036 
L 138.560213 -222.340623 
L 135.643439 -222.440909 
L 132.726666 -223.759125 
L 129.809892 -224.614369 
L 126.893118 -226.9555 
L 123.976344 -228.114329 
L 121.05957 -228.748971 
L 118.142797 -228.937773 
L 115.226023 -229.416805 
L 112.309249 -230.398449 
L 109.392475 -231.296153 
L 106.475701 -233.151028 
L 103.558928 -234.325606 
L 100.642154 -234.965286 
L 97.72538 -235.648081 
L 94.808606 -236.837442 
L 91.891832 -237.659961 
z
" id="m80c20cbde8" style="stroke:#ff0000;stroke-opacity:0.3;"/>
    </defs>
    <g clip-path="url(#p9783491cbb)">
     <use style="fill:#ff0000;fill-opacity:0.3;stroke:#ff0000;stroke-opacity:0.3;" x="0" xlink:href="#m80c20cbde8" y="330.048281"/>
    </g>
   </g>
   <g id="matplotlib.axis_1">
    <g id="xtick_1">
     <g id="line2d_1">
      <defs>
       <path d="M 0 0 
L 0 3.5 
" id="m82c25fdbc0" style="stroke:#000000;stroke-width:0.8;"/>
      </defs>
      <g>
       <use style="stroke:#000000;stroke-width:0.8;" x="91.891832" xlink:href="#m82c25fdbc0" y="274.59832"/>
      </g>
     </g>
     <g id="text_1">
      <!-- 0 -->
      <defs>
       <path d="M 27.5 71 
C 20.90625 71 14.90625 68.125 11.203125 63.21875 
C 6.59375 57.046875 4.296875 47.5625 4.296875 34.5 
C 4.296875 10.671875 12.296875 -2 27.5 -2 
C 42.5 -2 50.703125 10.671875 50.703125 33.90625 
C 50.703125 47.65625 48.5 56.84375 43.796875 63.21875 
C 40.09375 68.21875 34.203125 71 27.5 71 
z
M 27.5 63.1875 
C 37 63.1875 41.703125 53.625 41.703125 34.703125 
C 41.703125 14.671875 37.09375 5.3125 27.296875 5.3125 
C 18 5.3125 13.296875 15.078125 13.296875 34.40625 
C 13.296875 53.71875 18 63.1875 27.5 63.1875 
z
" id="Nimbus_Sans_L_Regular-48"/>
      </defs>
      <g transform="translate(86.352668 295.794961)scale(0.2 -0.2)">
       <use transform="scale(0.996264)" xlink:href="#Nimbus_Sans_L_Regular-48"/>
      </g>
     </g>
    </g>
    <g id="xtick_2">
     <g id="line2d_2">
      <g>
       <use style="stroke:#000000;stroke-width:0.8;" x="164.811177" xlink:href="#m82c25fdbc0" y="274.59832"/>
      </g>
     </g>
     <g id="text_2">
      <!-- 250 -->
      <defs>
       <path d="M 50.59375 8.71875 
L 13.296875 8.71875 
C 14.203125 14.53125 17.40625 18.234375 26.09375 23.34375 
L 36.09375 28.75 
C 46 34.15625 51.09375 41.453125 51.09375 50.171875 
C 51.09375 56.078125 48.703125 61.59375 44.5 65.390625 
C 40.296875 69.203125 35.09375 71 28.40625 71 
C 19.40625 71 12.703125 67.796875 8.796875 61.796875 
C 6.296875 57.984375 5.203125 53.578125 5 46.359375 
L 13.796875 46.359375 
C 14.09375 51.171875 14.703125 54.078125 15.90625 56.375 
C 18.203125 60.6875 22.796875 63.296875 28.09375 63.296875 
C 36.09375 63.296875 42.09375 57.578125 42.09375 49.96875 
C 42.09375 44.359375 38.796875 39.546875 32.5 35.953125 
L 23.296875 30.75 
C 8.5 22.34375 4.203125 15.625 3.40625 0 
L 50.59375 0 
z
" id="Nimbus_Sans_L_Regular-50"/>
       <path d="M 47.59375 71 
L 11 71 
L 5.703125 32.59375 
L 13.796875 32.59375 
C 17.90625 37.484375 21.296875 39.1875 26.796875 39.1875 
C 36.296875 39.1875 42.296875 32.6875 42.296875 22.203125 
C 42.296875 12 36.40625 5.8125 26.796875 5.8125 
C 19.09375 5.8125 14.40625 9.703125 12.296875 17.703125 
L 3.5 17.703125 
C 4.703125 11.90625 5.703125 9.09375 7.796875 6.484375 
C 11.796875 1.09375 19 -2 27 -2 
C 41.296875 -2 51.296875 8.390625 51.296875 23.390625 
C 51.296875 37.40625 42 47 28.40625 47 
C 23.40625 47 19.40625 45.703125 15.296875 42.6875 
L 18.09375 62.296875 
L 47.59375 62.296875 
z
" id="Nimbus_Sans_L_Regular-53"/>
      </defs>
      <g transform="translate(148.193683 295.794961)scale(0.2 -0.2)">
       <use transform="scale(0.996264)" xlink:href="#Nimbus_Sans_L_Regular-50"/>
       <use transform="translate(55.391677 0)scale(0.996264)" xlink:href="#Nimbus_Sans_L_Regular-53"/>
       <use transform="translate(110.783354 0)scale(0.996264)" xlink:href="#Nimbus_Sans_L_Regular-48"/>
      </g>
     </g>
    </g>
    <g id="xtick_3">
     <g id="line2d_3">
      <g>
       <use style="stroke:#000000;stroke-width:0.8;" x="237.730523" xlink:href="#m82c25fdbc0" y="274.59832"/>
      </g>
     </g>
     <g id="text_3">
      <!-- 500 -->
      <g transform="translate(221.113029 295.794961)scale(0.2 -0.2)">
       <use transform="scale(0.996264)" xlink:href="#Nimbus_Sans_L_Regular-53"/>
       <use transform="translate(55.391677 0)scale(0.996264)" xlink:href="#Nimbus_Sans_L_Regular-48"/>
       <use transform="translate(110.783354 0)scale(0.996264)" xlink:href="#Nimbus_Sans_L_Regular-48"/>
      </g>
     </g>
    </g>
    <g id="xtick_4">
     <g id="line2d_4">
      <g>
       <use style="stroke:#000000;stroke-width:0.8;" x="310.649868" xlink:href="#m82c25fdbc0" y="274.59832"/>
      </g>
     </g>
     <g id="text_4">
      <!-- 750 -->
      <defs>
       <path d="M 52 70.703125 
L 4.59375 70.703125 
L 4.59375 62 
L 42.90625 62 
C 26 37.78125 19.09375 22.90625 13.796875 -0.5 
L 23.203125 -0.5 
C 27.09375 22.296875 36 41.890625 52 63.296875 
z
" id="Nimbus_Sans_L_Regular-55"/>
      </defs>
      <g transform="translate(294.032374 295.794961)scale(0.2 -0.2)">
       <use transform="scale(0.996264)" xlink:href="#Nimbus_Sans_L_Regular-55"/>
       <use transform="translate(55.391677 0)scale(0.996264)" xlink:href="#Nimbus_Sans_L_Regular-53"/>
       <use transform="translate(110.783354 0)scale(0.996264)" xlink:href="#Nimbus_Sans_L_Regular-48"/>
      </g>
     </g>
    </g>
    <g id="text_5">
     <!-- Time (days) -->
     <defs>
      <path d="M 35.40625 64.78125 
L 59.296875 64.78125 
L 59.296875 73 
L 2.09375 73 
L 2.09375 64.78125 
L 26.09375 64.78125 
L 26.09375 -0.21875 
L 35.40625 -0.21875 
z
" id="Nimbus_Sans_L_Regular-84"/>
      <path d="M 15 52.484375 
L 6.703125 52.484375 
L 6.703125 0 
L 15 0 
z
M 15 73 
L 6.59375 73 
L 6.59375 62.484375 
L 15 62.484375 
z
" id="Nimbus_Sans_L_Regular-105"/>
      <path d="M 7 52.484375 
L 7 0 
L 15.40625 0 
L 15.40625 32.953125 
C 15.40625 40.578125 20.90625 46.6875 27.703125 46.6875 
C 33.90625 46.6875 37.40625 42.875 37.40625 36.15625 
L 37.40625 0 
L 45.796875 0 
L 45.796875 32.953125 
C 45.796875 40.578125 51.296875 46.6875 58.09375 46.6875 
C 64.203125 46.6875 67.796875 42.78125 67.796875 36.15625 
L 67.796875 0 
L 76.203125 0 
L 76.203125 39.375 
C 76.203125 48.78125 70.796875 54 61 54 
C 54 54 49.796875 51.890625 44.90625 45.984375 
C 41.796875 51.59375 37.59375 54 30.796875 54 
C 23.796875 54 19.203125 51.390625 14.703125 45.078125 
L 14.703125 52.484375 
z
" id="Nimbus_Sans_L_Regular-109"/>
      <path d="M 51.296875 23.890625 
C 51.296875 31.78125 50.703125 36.53125 49.203125 40.375 
C 45.796875 48.859375 37.796875 54 28 54 
C 13.40625 54 4 42.84375 4 25.703125 
C 4 8.546875 13.09375 -2 27.796875 -2 
C 39.796875 -2 48.09375 4.84375 50.203125 16.3125 
L 41.796875 16.3125 
C 39.5 9.34375 34.796875 5.703125 28.09375 5.703125 
C 22.796875 5.703125 18.296875 8.125 15.5 12.578125 
C 13.5 15.59375 12.796875 18.640625 12.703125 23.890625 
z
M 12.90625 31 
C 13.59375 40.265625 19.5 46.28125 27.90625 46.28125 
C 36.09375 46.28125 42.40625 39.53125 42.40625 31 
C 42.40625 31 42.40625 31 42.296875 31 
z
" id="Nimbus_Sans_L_Regular-101"/>
      <path d="M 23.59375 73 
C 13.59375 59.84375 7.296875 41.5625 7.296875 25.796875 
C 7.296875 9.9375 13.59375 -8.34375 23.59375 -21.5 
L 29.09375 -21.5 
C 20.296875 -7.140625 15.40625 9.734375 15.40625 25.796875 
C 15.40625 41.765625 20.296875 58.734375 29.09375 73 
z
" id="Nimbus_Sans_L_Regular-40"/>
      <path d="M 49.5 73 
L 41.203125 73 
L 41.203125 45.890625 
C 37.703125 51.1875 32.09375 54 25.09375 54 
C 11.5 54 2.59375 43.140625 2.59375 26.484375 
C 2.59375 8.84375 11.296875 -2 25.40625 -2 
C 32.59375 -2 37.59375 0.703125 42.09375 7.203125 
L 42.09375 -0.03125 
L 49.5 -0.03125 
z
M 26.5 46.1875 
C 35.5 46.1875 41.203125 38.234375 41.203125 25.796875 
C 41.203125 13.765625 35.40625 5.8125 26.59375 5.8125 
C 17.40625 5.8125 11.296875 13.859375 11.296875 26 
C 11.296875 38.125 17.40625 46.1875 26.5 46.1875 
z
" id="Nimbus_Sans_L_Regular-100"/>
      <path d="M 53.5 5.203125 
C 52.59375 5 52.203125 5 51.703125 5 
C 48.796875 5 47.203125 6.484375 47.203125 9.078125 
L 47.203125 39.765625 
C 47.203125 49.015625 40.40625 54 27.5 54 
C 19.90625 54 13.59375 51.8125 10.09375 47.90625 
C 7.703125 45.203125 6.703125 42.21875 6.5 37.03125 
L 14.90625 37.03125 
C 15.59375 43.390625 19.40625 46.28125 27.203125 46.28125 
C 34.703125 46.28125 38.90625 43.484375 38.90625 38.515625 
L 38.90625 36.328125 
C 38.90625 32.828125 36.796875 31.34375 30.203125 30.546875 
C 18.40625 29.0625 16.59375 28.65625 13.40625 27.359375 
C 7.296875 24.875 4.203125 20.1875 4.203125 13.421875 
C 4.203125 3.96875 10.796875 -2 21.40625 -2 
C 28 -2 33.296875 0.296875 39.203125 5.703125 
C 39.796875 0.390625 42.40625 -2 47.796875 -2 
C 49.5 -2 50.796875 -1.8125 53.5 -1.09375 
z
M 38.90625 16.75 
C 38.90625 13.953125 38.09375 12.265625 35.59375 9.984375 
C 32.203125 6.890625 28.09375 5.3125 23.203125 5.3125 
C 16.703125 5.3125 12.90625 8.390625 12.90625 13.65625 
C 12.90625 19.140625 16.59375 21.921875 25.5 23.21875 
C 34.296875 24.40625 36.09375 24.8125 38.90625 26.09375 
z
" id="Nimbus_Sans_L_Regular-97"/>
      <path d="M 38.796875 52.5 
L 24.296875 11.53125 
L 10.90625 52.5 
L 2 52.5 
L 19.703125 -0.328125 
L 16.5 -8.65625 
C 15.203125 -12.375 13.296875 -13.78125 9.796875 -13.78125 
C 8.59375 -13.78125 7.203125 -13.578125 5.40625 -13.171875 
L 5.40625 -20.703125 
C 7.09375 -21.59375 8.796875 -22 11 -22 
C 13.703125 -22 16.59375 -21.09375 18.796875 -19.484375 
C 21.40625 -17.578125 22.90625 -15.359375 24.5 -11.140625 
L 47.796875 52.5 
z
" id="Nimbus_Sans_L_Regular-121"/>
      <path d="M 43.796875 37.921875 
C 43.703125 48.203125 36.90625 54 24.796875 54 
C 12.59375 54 4.703125 47.71875 4.703125 38.0625 
C 4.703125 29.890625 8.90625 26.015625 21.296875 23.03125 
L 29.09375 21.140625 
C 34.90625 19.734375 37.203125 17.65625 37.203125 13.875 
C 37.203125 9 32.296875 5.703125 25 5.703125 
C 20.5 5.703125 16.703125 7 14.59375 9.1875 
C 13.296875 10.6875 12.703125 12.171875 12.203125 15.84375 
L 3.40625 15.84375 
C 3.796875 3.765625 10.59375 -2 24.296875 -2 
C 37.5 -2 45.90625 4.453125 45.90625 14.515625 
C 45.90625 22.28125 41.5 26.578125 31.09375 29.0625 
L 23.09375 30.953125 
C 16.296875 32.53125 13.40625 34.734375 13.40625 38.40625 
C 13.40625 43.1875 17.703125 46.28125 24.5 46.28125 
C 31.203125 46.28125 34.796875 43.390625 35 37.921875 
z
" id="Nimbus_Sans_L_Regular-115"/>
      <path d="M 9.296875 -21.5 
C 19.296875 -8.34375 25.59375 9.9375 25.59375 25.6875 
C 25.59375 41.5625 19.296875 59.84375 9.296875 73 
L 3.796875 73 
C 12.59375 58.640625 17.5 41.765625 17.5 25.6875 
C 17.5 9.734375 12.59375 -7.25 3.796875 -21.5 
z
" id="Nimbus_Sans_L_Regular-41"/>
     </defs>
     <g transform="translate(148.987291 318.604309)scale(0.2 -0.2)">
      <use transform="scale(0.996264)" xlink:href="#Nimbus_Sans_L_Regular-84"/>
      <use transform="translate(60.871631 0)scale(0.996264)" xlink:href="#Nimbus_Sans_L_Regular-105"/>
      <use transform="translate(82.988415 0)scale(0.996264)" xlink:href="#Nimbus_Sans_L_Regular-109"/>
      <use transform="translate(165.976845 0)scale(0.996264)" xlink:href="#Nimbus_Sans_L_Regular-101"/>
      <use transform="translate(249.063692 0)scale(0.996264)" xlink:href="#Nimbus_Sans_L_Regular-40"/>
      <use transform="translate(282.238922 0)scale(0.996264)" xlink:href="#Nimbus_Sans_L_Regular-100"/>
      <use transform="translate(337.630599 0)scale(0.996264)" xlink:href="#Nimbus_Sans_L_Regular-97"/>
      <use transform="translate(390.034168 0)scale(0.996264)" xlink:href="#Nimbus_Sans_L_Regular-121"/>
      <use transform="translate(439.847368 0)scale(0.996264)" xlink:href="#Nimbus_Sans_L_Regular-115"/>
      <use transform="translate(489.660569 0)scale(0.996264)" xlink:href="#Nimbus_Sans_L_Regular-41"/>
     </g>
    </g>
   </g>
   <g id="matplotlib.axis_2">
    <g id="ytick_1">
     <g id="line2d_5">
      <defs>
       <path d="M 0 0 
L -3.5 0 
" id="mc07d6c6632" style="stroke:#000000;stroke-width:0.8;"/>
      </defs>
      <g>
       <use style="stroke:#000000;stroke-width:0.8;" x="80.953931" xlink:href="#mc07d6c6632" y="274.59832"/>
      </g>
     </g>
     <g id="text_6">
      <!-- 985 -->
      <defs>
       <path d="M 5.296875 16.625 
C 7 4.9375 14.59375 -2 25.40625 -2 
C 33.203125 -2 40.296875 1.78125 44.40625 8.0625 
C 48.90625 14.9375 50.90625 23.625 50.90625 36.484375 
C 50.90625 48.359375 49.09375 55.9375 44.90625 62.21875 
C 41 67.921875 34.796875 71 27 71 
C 13.5 71 3.796875 61.078125 3.796875 47.296875 
C 3.796875 34.21875 12.796875 25 25.59375 25 
C 32.296875 25 37.203125 27.40625 41.796875 32.90625 
C 41.703125 15.484375 36.09375 5.8125 26 5.8125 
C 19.796875 5.8125 15.5 9.75 14.09375 16.625 
z
M 26.90625 63.296875 
C 35.09375 63.296875 41.296875 56.59375 41.296875 47.515625 
C 41.296875 38.921875 35.203125 32.8125 26.59375 32.8125 
C 18.09375 32.8125 12.796875 38.625 12.796875 48 
C 12.796875 56.875 18.796875 63.296875 26.90625 63.296875 
z
" id="Nimbus_Sans_L_Regular-57"/>
       <path d="M 39.09375 37.484375 
C 46.40625 41.875 48.796875 45.46875 48.796875 52.15625 
C 48.796875 63.21875 40.09375 71 27.5 71 
C 15 71 6.203125 63.21875 6.203125 52.15625 
C 6.203125 45.578125 8.59375 41.984375 15.796875 37.484375 
C 7.703125 33.59375 3.703125 27.71875 3.703125 19.9375 
C 3.703125 6.96875 13.5 -2 27.5 -2 
C 41.5 -2 51.296875 6.984375 51.296875 19.84375 
C 51.296875 27.71875 47.296875 33.59375 39.09375 37.484375 
z
M 27.5 63.1875 
C 35 63.1875 39.796875 58.8125 39.796875 51.953125 
C 39.796875 45.375 34.90625 41 27.5 41 
C 20.09375 41 15.203125 45.375 15.203125 52.046875 
C 15.203125 58.8125 20.09375 63.1875 27.5 63.1875 
z
M 27.5 33.578125 
C 36.296875 33.578125 42.296875 28 42.296875 19.734375 
C 42.296875 11.390625 36.296875 5.8125 27.296875 5.8125 
C 18.703125 5.8125 12.703125 11.484375 12.703125 19.734375 
C 12.703125 28 18.703125 33.578125 27.5 33.578125 
z
" id="Nimbus_Sans_L_Regular-56"/>
      </defs>
      <g transform="translate(40.718943 281.696641)scale(0.2 -0.2)">
       <use transform="scale(0.996264)" xlink:href="#Nimbus_Sans_L_Regular-57"/>
       <use transform="translate(55.391677 0)scale(0.996264)" xlink:href="#Nimbus_Sans_L_Regular-56"/>
       <use transform="translate(110.783354 0)scale(0.996264)" xlink:href="#Nimbus_Sans_L_Regular-53"/>
      </g>
     </g>
    </g>
    <g id="ytick_2">
     <g id="line2d_6">
      <g>
       <use style="stroke:#000000;stroke-width:0.8;" x="80.953931" xlink:href="#mc07d6c6632" y="209.52332"/>
      </g>
     </g>
     <g id="text_7">
      <!-- 990 -->
      <g transform="translate(40.718943 216.621641)scale(0.2 -0.2)">
       <use transform="scale(0.996264)" xlink:href="#Nimbus_Sans_L_Regular-57"/>
       <use transform="translate(55.391677 0)scale(0.996264)" xlink:href="#Nimbus_Sans_L_Regular-57"/>
       <use transform="translate(110.783354 0)scale(0.996264)" xlink:href="#Nimbus_Sans_L_Regular-48"/>
      </g>
     </g>
    </g>
    <g id="ytick_3">
     <g id="line2d_7">
      <g>
       <use style="stroke:#000000;stroke-width:0.8;" x="80.953931" xlink:href="#mc07d6c6632" y="144.44832"/>
      </g>
     </g>
     <g id="text_8">
      <!-- 995 -->
      <g transform="translate(40.718943 151.546641)scale(0.2 -0.2)">
       <use transform="scale(0.996264)" xlink:href="#Nimbus_Sans_L_Regular-57"/>
       <use transform="translate(55.391677 0)scale(0.996264)" xlink:href="#Nimbus_Sans_L_Regular-57"/>
       <use transform="translate(110.783354 0)scale(0.996264)" xlink:href="#Nimbus_Sans_L_Regular-53"/>
      </g>
     </g>
    </g>
    <g id="ytick_4">
     <g id="line2d_8">
      <g>
       <use style="stroke:#000000;stroke-width:0.8;" x="80.953931" xlink:href="#mc07d6c6632" y="79.37332"/>
      </g>
     </g>
     <g id="text_9">
      <!-- 1000 -->
      <defs>
       <path d="M 25.90625 50.59375 
L 25.90625 0 
L 34.703125 0 
L 34.703125 71.015625 
L 28.90625 71.015625 
C 25.796875 60.109375 23.796875 58.609375 10.203125 56.90625 
L 10.203125 50.59375 
z
" id="Nimbus_Sans_L_Regular-49"/>
      </defs>
      <g transform="translate(29.640613 86.471641)scale(0.2 -0.2)">
       <use transform="scale(0.996264)" xlink:href="#Nimbus_Sans_L_Regular-49"/>
       <use transform="translate(55.391677 0)scale(0.996264)" xlink:href="#Nimbus_Sans_L_Regular-48"/>
       <use transform="translate(110.783354 0)scale(0.996264)" xlink:href="#Nimbus_Sans_L_Regular-48"/>
       <use transform="translate(166.175031 0)scale(0.996264)" xlink:href="#Nimbus_Sans_L_Regular-48"/>
      </g>
     </g>
    </g>
    <g id="ytick_5">
     <g id="line2d_9">
      <g>
       <use style="stroke:#000000;stroke-width:0.8;" x="80.953931" xlink:href="#mc07d6c6632" y="14.29832"/>
      </g>
     </g>
     <g id="text_10">
      <!-- 1005 -->
      <g transform="translate(29.640613 21.396641)scale(0.2 -0.2)">
       <use transform="scale(0.996264)" xlink:href="#Nimbus_Sans_L_Regular-49"/>
       <use transform="translate(55.391677 0)scale(0.996264)" xlink:href="#Nimbus_Sans_L_Regular-48"/>
       <use transform="translate(110.783354 0)scale(0.996264)" xlink:href="#Nimbus_Sans_L_Regular-48"/>
       <use transform="translate(166.175031 0)scale(0.996264)" xlink:href="#Nimbus_Sans_L_Regular-53"/>
      </g>
     </g>
    </g>
    <g id="text_11">
     <!-- Mean copy number -->
     <defs>
      <path d="M 46.796875 -0.03125 
L 67.296875 61.171875 
L 67.296875 -0.03125 
L 76.09375 -0.03125 
L 76.09375 73 
L 63.203125 73 
L 42 9.390625 
L 20.40625 73 
L 7.5 73 
L 7.5 -0.03125 
L 16.296875 -0.03125 
L 16.296875 61.171875 
L 37 -0.03125 
z
" id="Nimbus_Sans_L_Regular-77"/>
      <path d="M 7 52.484375 
L 7 0 
L 15.40625 0 
L 15.40625 28.953125 
C 15.40625 39.671875 21 46.6875 29.59375 46.6875 
C 36.203125 46.6875 40.40625 42.671875 40.40625 36.359375 
L 40.40625 0 
L 48.703125 0 
L 48.703125 39.671875 
C 48.703125 48.390625 42.203125 54 32.09375 54 
C 24.296875 54 19.296875 50.984375 14.703125 43.6875 
L 14.703125 52.484375 
z
" id="Nimbus_Sans_L_Regular-110"/>
      <path d="M 47.09375 34.9375 
C 46.703125 40.03125 45.59375 43.328125 43.59375 46.21875 
C 40 51.109375 33.703125 54 26.40625 54 
C 12.296875 54 3.09375 42.84375 3.09375 25.5 
C 3.09375 8.65625 12.09375 -2 26.296875 -2 
C 38.796875 -2 46.703125 5.46875 47.703125 18.234375 
L 39.296875 18.234375 
C 37.90625 9.875 33.59375 5.703125 26.5 5.703125 
C 17.296875 5.703125 11.796875 13.171875 11.796875 25.5 
C 11.796875 38.53125 17.203125 46.28125 26.296875 46.28125 
C 33.296875 46.28125 37.703125 42.203125 38.703125 34.9375 
z
" id="Nimbus_Sans_L_Regular-99"/>
      <path d="M 27.203125 54 
C 12.5 54 3.59375 43.53125 3.59375 25.984375 
C 3.59375 8.453125 12.40625 -2 27.296875 -2 
C 42 -2 51 8.453125 51 25.59375 
C 51 43.625 42.296875 54 27.203125 54 
z
M 27.296875 46.28125 
C 36.703125 46.28125 42.296875 38.625 42.296875 25.703125 
C 42.296875 13.453125 36.5 5.703125 27.296875 5.703125 
C 18 5.703125 12.296875 13.359375 12.296875 25.984375 
C 12.296875 38.53125 18 46.28125 27.296875 46.28125 
z
" id="Nimbus_Sans_L_Regular-111"/>
      <path d="M 5.40625 -22 
L 13.796875 -22 
L 13.796875 5 
C 18.203125 -0.421875 23.09375 -2.8125 29.90625 -2.8125 
C 43.40625 -2.8125 52.296875 8.15625 52.296875 24.984375 
C 52.296875 42.71875 43.703125 53.8125 29.796875 53.8125 
C 22.703125 53.8125 17 50.59375 13.09375 44.390625 
L 13.09375 52.328125 
L 5.40625 52.328125 
z
M 28.40625 46 
C 37.59375 46 43.59375 37.8125 43.59375 25.1875 
C 43.59375 13.171875 37.5 5 28.40625 5 
C 19.59375 5 13.796875 13.078125 13.796875 25.5 
C 13.796875 37.921875 19.59375 46 28.40625 46 
z
" id="Nimbus_Sans_L_Regular-112"/>
      <path d="M 48.203125 0.515625 
L 48.203125 53 
L 39.90625 53 
L 39.90625 23.109375 
C 39.90625 12.34375 34.296875 5.3125 25.59375 5.3125 
C 19 5.3125 14.796875 9.328125 14.796875 15.671875 
L 14.796875 53 
L 6.5 53 
L 6.5 12.375 
C 6.5 3.625 13 -2 23.203125 -2 
C 30.90625 -2 35.796875 0.703125 40.703125 7.625 
L 40.703125 0.515625 
z
" id="Nimbus_Sans_L_Regular-117"/>
      <path d="M 5.40625 73 
L 5.40625 -0.03125 
L 12.90625 -0.03125 
L 12.90625 7 
C 16.90625 0.890625 22.203125 -2 29.5 -2 
C 43.296875 -2 52.296875 9.25 52.296875 26.59375 
C 52.296875 43.53125 43.703125 54 29.90625 54 
C 22.703125 54 17.59375 51.28125 13.703125 45.390625 
L 13.703125 73 
z
M 28.296875 46.1875 
C 37.59375 46.1875 43.59375 38.125 43.59375 25.703125 
C 43.59375 13.859375 37.40625 5.8125 28.296875 5.8125 
C 19.5 5.8125 13.703125 13.765625 13.703125 26 
C 13.703125 38.234375 19.5 46.1875 28.296875 46.1875 
z
" id="Nimbus_Sans_L_Regular-98"/>
      <path d="M 6.90625 52.484375 
L 6.90625 0 
L 15.296875 0 
L 15.296875 27.203125 
C 15.296875 34.703125 17.203125 39.609375 21.203125 42.5 
C 23.796875 44.40625 26.296875 45 32.09375 45 
L 32.09375 53.625 
C 30.703125 53.8125 30 53.8125 28.90625 53.8125 
C 23.5 53.8125 19.40625 50.625 14.59375 42.90625 
L 14.59375 52.484375 
z
" id="Nimbus_Sans_L_Regular-114"/>
     </defs>
     <g transform="translate(21.396641 229.319256)rotate(-90)scale(0.2 -0.2)">
      <use transform="scale(0.996264)" xlink:href="#Nimbus_Sans_L_Regular-77"/>
      <use transform="translate(82.98843 0)scale(0.996264)" xlink:href="#Nimbus_Sans_L_Regular-101"/>
      <use transform="translate(138.380107 0)scale(0.996264)" xlink:href="#Nimbus_Sans_L_Regular-97"/>
      <use transform="translate(193.771784 0)scale(0.996264)" xlink:href="#Nimbus_Sans_L_Regular-110"/>
      <use transform="translate(276.858631 0)scale(0.996264)" xlink:href="#Nimbus_Sans_L_Regular-99"/>
      <use transform="translate(326.671831 0)scale(0.996264)" xlink:href="#Nimbus_Sans_L_Regular-111"/>
      <use transform="translate(382.063508 0)scale(0.996264)" xlink:href="#Nimbus_Sans_L_Regular-112"/>
      <use transform="translate(434.467077 0)scale(0.996264)" xlink:href="#Nimbus_Sans_L_Regular-121"/>
      <use transform="translate(511.975447 0)scale(0.996264)" xlink:href="#Nimbus_Sans_L_Regular-110"/>
      <use transform="translate(566.371027 0)scale(0.996264)" xlink:href="#Nimbus_Sans_L_Regular-117"/>
      <use transform="translate(621.762704 0)scale(0.996264)" xlink:href="#Nimbus_Sans_L_Regular-109"/>
      <use transform="translate(704.751135 0)scale(0.996264)" xlink:href="#Nimbus_Sans_L_Regular-98"/>
      <use transform="translate(760.142812 0)scale(0.996264)" xlink:href="#Nimbus_Sans_L_Regular-101"/>
      <use transform="translate(815.534489 0)scale(0.996264)" xlink:href="#Nimbus_Sans_L_Regular-114"/>
     </g>
    </g>
   </g>
   <g id="line2d_10">
    <defs>
     <path d="M -5 5 
L 5 5 
L 5 -5 
L -5 -5 
z
" id="m707d703867" style="stroke:#0000ff;stroke-linejoin:miter;"/>
    </defs>
    <g clip-path="url(#p9783491cbb)">
     <use style="fill:#0000ff;opacity:0.5;stroke:#0000ff;stroke-linejoin:miter;" x="91.891832" xlink:href="#m707d703867" y="92.38832"/>
     <use style="fill:#0000ff;opacity:0.5;stroke:#0000ff;stroke-linejoin:miter;" x="106.475701" xlink:href="#m707d703867" y="94.590849"/>
     <use style="fill:#0000ff;opacity:0.5;stroke:#0000ff;stroke-linejoin:miter;" x="121.05957" xlink:href="#m707d703867" y="98.467757"/>
     <use style="fill:#0000ff;opacity:0.5;stroke:#0000ff;stroke-linejoin:miter;" x="135.643439" xlink:href="#m707d703867" y="104.527671"/>
     <use style="fill:#0000ff;opacity:0.5;stroke:#0000ff;stroke-linejoin:miter;" x="150.227308" xlink:href="#m707d703867" y="107.782592"/>
     <use style="fill:#0000ff;opacity:0.5;stroke:#0000ff;stroke-linejoin:miter;" x="164.811177" xlink:href="#m707d703867" y="112.742218"/>
     <use style="fill:#0000ff;opacity:0.5;stroke:#0000ff;stroke-linejoin:miter;" x="179.395046" xlink:href="#m707d703867" y="114.699935"/>
     <use style="fill:#0000ff;opacity:0.5;stroke:#0000ff;stroke-linejoin:miter;" x="193.978916" xlink:href="#m707d703867" y="116.513705"/>
     <use style="fill:#0000ff;opacity:0.5;stroke:#0000ff;stroke-linejoin:miter;" x="208.562785" xlink:href="#m707d703867" y="118.2883"/>
     <use style="fill:#0000ff;opacity:0.5;stroke:#0000ff;stroke-linejoin:miter;" x="223.146654" xlink:href="#m707d703867" y="118.960135"/>
     <use style="fill:#0000ff;opacity:0.5;stroke:#0000ff;stroke-linejoin:miter;" x="237.730523" xlink:href="#m707d703867" y="119.908408"/>
     <use style="fill:#0000ff;opacity:0.5;stroke:#0000ff;stroke-linejoin:miter;" x="252.314392" xlink:href="#m707d703867" y="121.89762"/>
     <use style="fill:#0000ff;opacity:0.5;stroke:#0000ff;stroke-linejoin:miter;" x="266.898261" xlink:href="#m707d703867" y="122.913311"/>
     <use style="fill:#0000ff;opacity:0.5;stroke:#0000ff;stroke-linejoin:miter;" x="281.48213" xlink:href="#m707d703867" y="124.35316"/>
     <use style="fill:#0000ff;opacity:0.5;stroke:#0000ff;stroke-linejoin:miter;" x="296.065999" xlink:href="#m707d703867" y="123.007019"/>
     <use style="fill:#0000ff;opacity:0.5;stroke:#0000ff;stroke-linejoin:miter;" x="310.649868" xlink:href="#m707d703867" y="122.583901"/>
    </g>
   </g>
   <g id="line2d_11">
    <path clip-path="url(#p9783491cbb)" d="M 91.891832 92.38832 
L 94.808606 92.38832 
L 97.72538 92.38832 
L 100.642154 92.38832 
L 103.558928 92.38832 
L 106.475701 92.38832 
L 109.392475 92.38832 
L 112.309249 92.38832 
L 115.226023 92.38832 
L 118.142797 92.38832 
L 121.05957 92.38832 
L 123.976344 92.38832 
L 126.893118 92.38832 
L 129.809892 92.38832 
L 132.726666 92.38832 
L 135.643439 92.38832 
L 138.560213 92.38832 
L 141.476987 92.38832 
L 144.393761 92.38832 
L 147.310535 92.38832 
L 150.227308 92.38832 
L 153.144082 92.38832 
L 156.060856 92.38832 
L 158.97763 92.38832 
L 161.894404 92.38832 
L 164.811177 92.38832 
L 167.727951 92.38832 
L 170.644725 92.38832 
L 173.561499 92.38832 
L 176.478273 92.38832 
L 179.395046 92.38832 
L 182.31182 92.38832 
L 185.228594 92.38832 
L 188.145368 92.38832 
L 191.062142 92.38832 
L 193.978916 92.38832 
L 196.895689 92.38832 
L 199.812463 92.38832 
L 202.729237 92.38832 
L 205.646011 92.38832 
L 208.562785 92.38832 
L 211.479558 92.38832 
L 214.396332 92.38832 
L 217.313106 92.38832 
L 220.22988 92.38832 
L 223.146654 92.38832 
L 226.063427 92.38832 
L 228.980201 92.38832 
L 231.896975 92.38832 
L 234.813749 92.38832 
L 237.730523 92.38832 
L 240.647296 92.38832 
L 243.56407 92.38832 
L 246.480844 92.38832 
L 249.397618 92.38832 
L 252.314392 92.38832 
L 255.231165 92.38832 
L 258.147939 92.38832 
L 261.064713 92.38832 
L 263.981487 92.38832 
L 266.898261 92.38832 
L 269.815034 92.38832 
L 272.731808 92.38832 
L 275.648582 92.38832 
L 278.565356 92.38832 
L 281.48213 92.38832 
L 284.398903 92.38832 
L 287.315677 92.38832 
L 290.232451 92.38832 
L 293.149225 92.38832 
L 296.065999 92.38832 
L 298.982772 92.38832 
L 301.899546 92.38832 
L 304.81632 92.38832 
L 307.733094 92.38832 
L 310.649868 92.38832 
" style="fill:none;stroke:#ff0000;stroke-linecap:square;stroke-width:1.5;"/>
   </g>
   <g id="patch_3">
    <path d="M 80.953931 274.59832 
L 80.953931 14.29832 
" style="fill:none;stroke:#000000;stroke-linecap:square;stroke-linejoin:miter;stroke-width:0.8;"/>
   </g>
   <g id="patch_4">
    <path d="M 321.587769 274.59832 
L 321.587769 14.29832 
" style="fill:none;stroke:#000000;stroke-linecap:square;stroke-linejoin:miter;stroke-width:0.8;"/>
   </g>
   <g id="patch_5">
    <path d="M 80.953931 274.59832 
L 321.587769 274.59832 
" style="fill:none;stroke:#000000;stroke-linecap:square;stroke-linejoin:miter;stroke-width:0.8;"/>
   </g>
   <g id="patch_6">
    <path d="M 80.953931 14.29832 
L 321.587769 14.29832 
" style="fill:none;stroke:#000000;stroke-linecap:square;stroke-linejoin:miter;stroke-width:0.8;"/>
   </g>
   <g id="legend_1">
    <g id="patch_7">
     <path d="M 176.368883 90.2897 
L 311.087769 90.2897 
Q 314.087769 90.2897 314.087769 87.2897 
L 314.087769 24.79832 
Q 314.087769 21.79832 311.087769 21.79832 
L 176.368883 21.79832 
Q 173.368883 21.79832 173.368883 24.79832 
L 173.368883 87.2897 
Q 173.368883 90.2897 176.368883 90.2897 
z
" style="fill:#ffffff;opacity:0.8;stroke:#cccccc;stroke-linejoin:miter;"/>
    </g>
    <g id="line2d_12"/>
    <g id="line2d_13">
     <g>
      <use style="fill:#0000ff;opacity:0.5;stroke:#0000ff;stroke-linejoin:miter;" x="194.368883" xlink:href="#m707d703867" y="33.195801"/>
     </g>
    </g>
    <g id="text_12">
     <!-- Simulation -->
     <defs>
      <path d="M 59.59375 52.109375 
C 59.5 66.484375 49.703125 74.8125 32.90625 74.8125 
C 16.90625 74.8125 7 66.5625 7 53.28125 
C 7 44.328125 11.703125 38.703125 21.296875 36.1875 
L 39.40625 31.359375 
C 48.59375 28.9375 52.796875 25.21875 52.796875 19.484375 
C 52.796875 15.546875 50.703125 11.53125 47.59375 9.328125 
C 44.703125 7.3125 40.09375 6.203125 34.203125 6.203125 
C 26.296875 6.203125 20.90625 8.125 17.40625 12.34375 
C 14.703125 15.5625 13.5 19.09375 13.59375 23.609375 
L 4.796875 23.609375 
C 4.90625 16.890625 6.203125 12.46875 9.09375 8.4375 
C 14.09375 1.609375 22.5 -2 33.59375 -2 
C 42.296875 -2 49.40625 0.015625 54.09375 3.625 
C 59 7.546875 62.09375 14.078125 62.09375 20.421875 
C 62.09375 29.46875 56.5 36.109375 46.59375 38.828125 
L 28.296875 43.765625 
C 19.5 46.171875 16.296875 48.984375 16.296875 54.625 
C 16.296875 62.0625 22.796875 67 32.59375 67 
C 44.203125 67 50.703125 61.671875 50.796875 52.109375 
z
" id="Nimbus_Sans_L_Regular-83"/>
      <path d="M 15.203125 73 
L 6.796875 73 
L 6.796875 -0.03125 
L 15.203125 -0.03125 
z
" id="Nimbus_Sans_L_Regular-108"/>
      <path d="M 25.40625 52.8125 
L 16.796875 52.8125 
L 16.796875 67 
L 8.5 67 
L 8.5 52.8125 
L 1.40625 52.8125 
L 1.40625 46 
L 8.5 46 
L 8.5 6.3125 
C 8.5 1 12.09375 -2 18.59375 -2 
C 20.59375 -2 22.59375 -1.8125 25.40625 -1.296875 
L 25.40625 5.71875 
C 24.296875 5.40625 23 5.3125 21.40625 5.3125 
C 17.796875 5.3125 16.796875 6.3125 16.796875 10.015625 
L 16.796875 46 
L 25.40625 46 
z
" id="Nimbus_Sans_L_Regular-116"/>
     </defs>
     <g transform="translate(221.368883 38.445801)scale(0.15 -0.15)">
      <use transform="scale(0.996264)" xlink:href="#Nimbus_Sans_L_Regular-83"/>
      <use transform="translate(66.450031 0)scale(0.996264)" xlink:href="#Nimbus_Sans_L_Regular-105"/>
      <use transform="translate(88.566815 0)scale(0.996264)" xlink:href="#Nimbus_Sans_L_Regular-109"/>
      <use transform="translate(170.559149 0)scale(0.996264)" xlink:href="#Nimbus_Sans_L_Regular-117"/>
      <use transform="translate(225.950826 0)scale(0.996264)" xlink:href="#Nimbus_Sans_L_Regular-108"/>
      <use transform="translate(248.06761 0)scale(0.996264)" xlink:href="#Nimbus_Sans_L_Regular-97"/>
      <use transform="translate(303.459287 0)scale(0.996264)" xlink:href="#Nimbus_Sans_L_Regular-116"/>
      <use transform="translate(331.154457 0)scale(0.996264)" xlink:href="#Nimbus_Sans_L_Regular-105"/>
      <use transform="translate(353.271241 0)scale(0.996264)" xlink:href="#Nimbus_Sans_L_Regular-111"/>
      <use transform="translate(408.662918 0)scale(0.996264)" xlink:href="#Nimbus_Sans_L_Regular-110"/>
     </g>
    </g>
    <g id="line2d_14">
     <path d="M 179.368883 54.526261 
L 209.368883 54.526261 
" style="fill:none;stroke:#ff0000;stroke-linecap:square;stroke-width:1.5;"/>
    </g>
    <g id="line2d_15"/>
    <g id="text_13">
     <!-- Deterministic -->
     <defs>
      <path d="M 8.90625 0 
L 37 0 
C 55.40625 0 66.703125 13.828125 66.703125 36.546875 
C 66.703125 59.171875 55.5 73 37 73 
L 8.90625 73 
z
M 18.203125 8.21875 
L 18.203125 64.78125 
L 35.40625 64.78125 
C 49.796875 64.78125 57.40625 55.0625 57.40625 36.453125 
C 57.40625 18.03125 49.796875 8.21875 35.40625 8.21875 
z
" id="Nimbus_Sans_L_Regular-68"/>
     </defs>
     <g transform="translate(221.368883 59.776261)scale(0.15 -0.15)">
      <use transform="scale(0.996264)" xlink:href="#Nimbus_Sans_L_Regular-68"/>
      <use transform="translate(71.929985 0)scale(0.996264)" xlink:href="#Nimbus_Sans_L_Regular-101"/>
      <use transform="translate(127.321662 0)scale(0.996264)" xlink:href="#Nimbus_Sans_L_Regular-116"/>
      <use transform="translate(155.016831 0)scale(0.996264)" xlink:href="#Nimbus_Sans_L_Regular-101"/>
      <use transform="translate(210.408508 0)scale(0.996264)" xlink:href="#Nimbus_Sans_L_Regular-114"/>
      <use transform="translate(246.074353 0)scale(0.996264)" xlink:href="#Nimbus_Sans_L_Regular-109"/>
      <use transform="translate(329.062783 0)scale(0.996264)" xlink:href="#Nimbus_Sans_L_Regular-105"/>
      <use transform="translate(351.179567 0)scale(0.996264)" xlink:href="#Nimbus_Sans_L_Regular-110"/>
      <use transform="translate(406.571244 0)scale(0.996264)" xlink:href="#Nimbus_Sans_L_Regular-105"/>
      <use transform="translate(428.688028 0)scale(0.996264)" xlink:href="#Nimbus_Sans_L_Regular-115"/>
      <use transform="translate(478.501229 0)scale(0.996264)" xlink:href="#Nimbus_Sans_L_Regular-116"/>
      <use transform="translate(506.196399 0)scale(0.996264)" xlink:href="#Nimbus_Sans_L_Regular-105"/>
      <use transform="translate(528.313183 0)scale(0.996264)" xlink:href="#Nimbus_Sans_L_Regular-99"/>
     </g>
    </g>
    <g id="patch_8">
     <path d="M 179.368883 81.106721 
L 209.368883 81.106721 
L 209.368883 70.606721 
L 179.368883 70.606721 
z
" style="fill:#ff0000;opacity:0.3;stroke:#ff0000;stroke-linejoin:miter;"/>
    </g>
    <g id="text_14">
     <!-- $\pm$ 2 SEM -->
     <defs>
      <path d="M 40.90625 31 
L 68.703125 31 
C 70.40625 31 72.203125 31 72.203125 33 
C 72.203125 35 70.40625 35 68.703125 35 
L 40.90625 35 
L 40.90625 62.78125 
C 40.90625 64.390625 40.90625 66.5 38.90625 66.5 
C 36.90625 66.5 36.90625 64.6875 36.90625 63.09375 
L 36.90625 35 
L 9 35 
C 7.296875 35 5.5 35 5.5 33 
C 5.5 31 7.296875 31 9 31 
L 36.90625 31 
L 36.90625 4 
L 9 4 
C 7.296875 4 5.5 4 5.5 2 
C 5.5 0 7.296875 0 9 0 
L 68.703125 0 
C 70.40625 0 72.203125 0 72.203125 2 
C 72.203125 4 70.40625 4 68.703125 4 
L 40.90625 4 
z
" id="CMSY10-6"/>
      <path d="M 18.296875 33 
L 58 33 
L 58 41.21875 
L 18.296875 41.21875 
L 18.296875 64.78125 
L 59.5 64.78125 
L 59.5 73 
L 9 73 
L 9 0 
L 61.296875 0 
L 61.296875 8.21875 
L 18.296875 8.21875 
z
" id="Nimbus_Sans_L_Regular-69"/>
     </defs>
     <g transform="translate(221.368883 81.106721)scale(0.15 -0.15)">
      <use transform="scale(0.996264)" xlink:href="#CMSY10-6"/>
      <use transform="translate(105.182637 0)scale(0.996264)" xlink:href="#Nimbus_Sans_L_Regular-50"/>
      <use transform="translate(188.269484 0)scale(0.996264)" xlink:href="#Nimbus_Sans_L_Regular-83"/>
      <use transform="translate(254.719515 0)scale(0.996264)" xlink:href="#Nimbus_Sans_L_Regular-69"/>
      <use transform="translate(321.169546 0)scale(0.996264)" xlink:href="#Nimbus_Sans_L_Regular-77"/>
     </g>
    </g>
   </g>
  </g>
  <g id="axes_2">
   <g id="patch_9">
    <path d="M 439.70827 274.59832 
L 680.342109 274.59832 
L 680.342109 14.29832 
L 439.70827 14.29832 
z
" style="fill:#ffffff;"/>
   </g>
   <g id="matplotlib.axis_3">
    <g id="xtick_5">
     <g id="line2d_16">
      <g>
       <use style="stroke:#000000;stroke-width:0.8;" x="450.646172" xlink:href="#m82c25fdbc0" y="274.59832"/>
      </g>
     </g>
     <g id="text_15">
      <!-- 0 -->
      <g transform="translate(445.107007 295.794961)scale(0.2 -0.2)">
       <use transform="scale(0.996264)" xlink:href="#Nimbus_Sans_L_Regular-48"/>
      </g>
     </g>
    </g>
    <g id="xtick_6">
     <g id="line2d_17">
      <g>
       <use style="stroke:#000000;stroke-width:0.8;" x="523.565517" xlink:href="#m82c25fdbc0" y="274.59832"/>
      </g>
     </g>
     <g id="text_16">
      <!-- 250 -->
      <g transform="translate(506.948023 295.794961)scale(0.2 -0.2)">
       <use transform="scale(0.996264)" xlink:href="#Nimbus_Sans_L_Regular-50"/>
       <use transform="translate(55.391677 0)scale(0.996264)" xlink:href="#Nimbus_Sans_L_Regular-53"/>
       <use transform="translate(110.783354 0)scale(0.996264)" xlink:href="#Nimbus_Sans_L_Regular-48"/>
      </g>
     </g>
    </g>
    <g id="xtick_7">
     <g id="line2d_18">
      <g>
       <use style="stroke:#000000;stroke-width:0.8;" x="596.484862" xlink:href="#m82c25fdbc0" y="274.59832"/>
      </g>
     </g>
     <g id="text_17">
      <!-- 500 -->
      <g transform="translate(579.867368 295.794961)scale(0.2 -0.2)">
       <use transform="scale(0.996264)" xlink:href="#Nimbus_Sans_L_Regular-53"/>
       <use transform="translate(55.391677 0)scale(0.996264)" xlink:href="#Nimbus_Sans_L_Regular-48"/>
       <use transform="translate(110.783354 0)scale(0.996264)" xlink:href="#Nimbus_Sans_L_Regular-48"/>
      </g>
     </g>
    </g>
    <g id="xtick_8">
     <g id="line2d_19">
      <g>
       <use style="stroke:#000000;stroke-width:0.8;" x="669.404207" xlink:href="#m82c25fdbc0" y="274.59832"/>
      </g>
     </g>
     <g id="text_18">
      <!-- 750 -->
      <g transform="translate(652.786713 295.794961)scale(0.2 -0.2)">
       <use transform="scale(0.996264)" xlink:href="#Nimbus_Sans_L_Regular-55"/>
       <use transform="translate(55.391677 0)scale(0.996264)" xlink:href="#Nimbus_Sans_L_Regular-53"/>
       <use transform="translate(110.783354 0)scale(0.996264)" xlink:href="#Nimbus_Sans_L_Regular-48"/>
      </g>
     </g>
    </g>
    <g id="text_19">
     <!-- Time (days) -->
     <g transform="translate(507.741631 318.604309)scale(0.2 -0.2)">
      <use transform="scale(0.996264)" xlink:href="#Nimbus_Sans_L_Regular-84"/>
      <use transform="translate(60.871631 0)scale(0.996264)" xlink:href="#Nimbus_Sans_L_Regular-105"/>
      <use transform="translate(82.988415 0)scale(0.996264)" xlink:href="#Nimbus_Sans_L_Regular-109"/>
      <use transform="translate(165.976845 0)scale(0.996264)" xlink:href="#Nimbus_Sans_L_Regular-101"/>
      <use transform="translate(249.063692 0)scale(0.996264)" xlink:href="#Nimbus_Sans_L_Regular-40"/>
      <use transform="translate(282.238922 0)scale(0.996264)" xlink:href="#Nimbus_Sans_L_Regular-100"/>
      <use transform="translate(337.630599 0)scale(0.996264)" xlink:href="#Nimbus_Sans_L_Regular-97"/>
      <use transform="translate(390.034168 0)scale(0.996264)" xlink:href="#Nimbus_Sans_L_Regular-121"/>
      <use transform="translate(439.847368 0)scale(0.996264)" xlink:href="#Nimbus_Sans_L_Regular-115"/>
      <use transform="translate(489.660569 0)scale(0.996264)" xlink:href="#Nimbus_Sans_L_Regular-41"/>
     </g>
    </g>
   </g>
   <g id="matplotlib.axis_4">
    <g id="ytick_6">
     <g id="line2d_20">
      <g>
       <use style="stroke:#000000;stroke-width:0.8;" x="439.70827" xlink:href="#mc07d6c6632" y="262.766502"/>
      </g>
     </g>
     <g id="text_20">
      <!-- 0 -->
      <g transform="translate(421.629941 269.864822)scale(0.2 -0.2)">
       <use transform="scale(0.996264)" xlink:href="#Nimbus_Sans_L_Regular-48"/>
      </g>
     </g>
    </g>
    <g id="ytick_7">
     <g id="line2d_21">
      <g>
       <use style="stroke:#000000;stroke-width:0.8;" x="439.70827" xlink:href="#mc07d6c6632" y="189.897943"/>
      </g>
     </g>
     <g id="text_21">
      <!-- 500 -->
      <g transform="translate(399.473282 196.996263)scale(0.2 -0.2)">
       <use transform="scale(0.996264)" xlink:href="#Nimbus_Sans_L_Regular-53"/>
       <use transform="translate(55.391677 0)scale(0.996264)" xlink:href="#Nimbus_Sans_L_Regular-48"/>
       <use transform="translate(110.783354 0)scale(0.996264)" xlink:href="#Nimbus_Sans_L_Regular-48"/>
      </g>
     </g>
    </g>
    <g id="ytick_8">
     <g id="line2d_22">
      <g>
       <use style="stroke:#000000;stroke-width:0.8;" x="439.70827" xlink:href="#mc07d6c6632" y="117.029384"/>
      </g>
     </g>
     <g id="text_22">
      <!-- 1000 -->
      <g transform="translate(388.394953 124.127704)scale(0.2 -0.2)">
       <use transform="scale(0.996264)" xlink:href="#Nimbus_Sans_L_Regular-49"/>
       <use transform="translate(55.391677 0)scale(0.996264)" xlink:href="#Nimbus_Sans_L_Regular-48"/>
       <use transform="translate(110.783354 0)scale(0.996264)" xlink:href="#Nimbus_Sans_L_Regular-48"/>
       <use transform="translate(166.175031 0)scale(0.996264)" xlink:href="#Nimbus_Sans_L_Regular-48"/>
      </g>
     </g>
    </g>
    <g id="ytick_9">
     <g id="line2d_23">
      <g>
       <use style="stroke:#000000;stroke-width:0.8;" x="439.70827" xlink:href="#mc07d6c6632" y="44.160825"/>
      </g>
     </g>
     <g id="text_23">
      <!-- 1500 -->
      <g transform="translate(388.394953 51.259146)scale(0.2 -0.2)">
       <use transform="scale(0.996264)" xlink:href="#Nimbus_Sans_L_Regular-49"/>
       <use transform="translate(55.391677 0)scale(0.996264)" xlink:href="#Nimbus_Sans_L_Regular-53"/>
       <use transform="translate(110.783354 0)scale(0.996264)" xlink:href="#Nimbus_Sans_L_Regular-48"/>
       <use transform="translate(166.175031 0)scale(0.996264)" xlink:href="#Nimbus_Sans_L_Regular-48"/>
      </g>
     </g>
    </g>
    <g id="text_24">
     <!-- Copy number variance -->
     <defs>
      <path d="M 66.203125 50.453125 
C 63.296875 66.4375 54.09375 74.21875 38.09375 74.21875 
C 28.296875 74.21875 20.40625 71.125 15 65.125 
C 8.40625 57.953125 4.796875 47.578125 4.796875 35.796875 
C 4.796875 23.828125 8.5 13.5625 15.40625 6.46875 
C 21 0.6875 28.203125 -2 37.703125 -2 
C 55.5 -2 65.5 7.578125 67.703125 26.828125 
L 58.09375 26.828125 
C 57.296875 21.859375 56.296875 18.46875 54.796875 15.578125 
C 51.796875 9.59375 45.59375 6.203125 37.796875 6.203125 
C 23.296875 6.203125 14.09375 17.765625 14.09375 35.90625 
C 14.09375 54.546875 22.90625 66 37 66 
C 42.90625 66 48.40625 64.21875 51.40625 61.40625 
C 54.09375 58.921875 55.59375 55.828125 56.703125 50.453125 
z
" id="Nimbus_Sans_L_Regular-67"/>
      <path d="M 28.5 0 
L 48.59375 52.5 
L 39.203125 52.5 
L 24.40625 9.921875 
L 10.40625 52.5 
L 1 52.5 
L 19.40625 0 
z
" id="Nimbus_Sans_L_Regular-118"/>
     </defs>
     <g transform="translate(380.15098 244.163363)rotate(-90)scale(0.2 -0.2)">
      <use transform="scale(0.996264)" xlink:href="#Nimbus_Sans_L_Regular-67"/>
      <use transform="translate(71.929985 0)scale(0.996264)" xlink:href="#Nimbus_Sans_L_Regular-111"/>
      <use transform="translate(127.321662 0)scale(0.996264)" xlink:href="#Nimbus_Sans_L_Regular-112"/>
      <use transform="translate(179.725231 0)scale(0.996264)" xlink:href="#Nimbus_Sans_L_Regular-121"/>
      <use transform="translate(257.233601 0)scale(0.996264)" xlink:href="#Nimbus_Sans_L_Regular-110"/>
      <use transform="translate(311.629181 0)scale(0.996264)" xlink:href="#Nimbus_Sans_L_Regular-117"/>
      <use transform="translate(367.020858 0)scale(0.996264)" xlink:href="#Nimbus_Sans_L_Regular-109"/>
      <use transform="translate(450.009288 0)scale(0.996264)" xlink:href="#Nimbus_Sans_L_Regular-98"/>
      <use transform="translate(505.400965 0)scale(0.996264)" xlink:href="#Nimbus_Sans_L_Regular-101"/>
      <use transform="translate(560.792642 0)scale(0.996264)" xlink:href="#Nimbus_Sans_L_Regular-114"/>
      <use transform="translate(621.663042 0)scale(0.996264)" xlink:href="#Nimbus_Sans_L_Regular-118"/>
      <use transform="translate(668.985612 0)scale(0.996264)" xlink:href="#Nimbus_Sans_L_Regular-97"/>
      <use transform="translate(724.377289 0)scale(0.996264)" xlink:href="#Nimbus_Sans_L_Regular-114"/>
      <use transform="translate(759.045897 0)scale(0.996264)" xlink:href="#Nimbus_Sans_L_Regular-105"/>
      <use transform="translate(781.162681 0)scale(0.996264)" xlink:href="#Nimbus_Sans_L_Regular-97"/>
      <use transform="translate(836.554358 0)scale(0.996264)" xlink:href="#Nimbus_Sans_L_Regular-110"/>
      <use transform="translate(891.946035 0)scale(0.996264)" xlink:href="#Nimbus_Sans_L_Regular-99"/>
      <use transform="translate(941.759235 0)scale(0.996264)" xlink:href="#Nimbus_Sans_L_Regular-101"/>
     </g>
    </g>
   </g>
   <g id="line2d_24">
    <g clip-path="url(#paf21f064be)">
     <use style="fill:#0000ff;opacity:0.5;stroke:#0000ff;stroke-linejoin:miter;" x="450.646172" xlink:href="#m707d703867" y="262.766502"/>
     <use style="fill:#0000ff;opacity:0.5;stroke:#0000ff;stroke-linejoin:miter;" x="465.230041" xlink:href="#m707d703867" y="148.348856"/>
     <use style="fill:#0000ff;opacity:0.5;stroke:#0000ff;stroke-linejoin:miter;" x="479.81391" xlink:href="#m707d703867" y="90.313207"/>
     <use style="fill:#0000ff;opacity:0.5;stroke:#0000ff;stroke-linejoin:miter;" x="494.397779" xlink:href="#m707d703867" y="58.762397"/>
     <use style="fill:#0000ff;opacity:0.5;stroke:#0000ff;stroke-linejoin:miter;" x="508.981648" xlink:href="#m707d703867" y="44.318624"/>
     <use style="fill:#0000ff;opacity:0.5;stroke:#0000ff;stroke-linejoin:miter;" x="523.565517" xlink:href="#m707d703867" y="37.263109"/>
     <use style="fill:#0000ff;opacity:0.5;stroke:#0000ff;stroke-linejoin:miter;" x="538.149386" xlink:href="#m707d703867" y="32.85304"/>
     <use style="fill:#0000ff;opacity:0.5;stroke:#0000ff;stroke-linejoin:miter;" x="552.733255" xlink:href="#m707d703867" y="28.296694"/>
     <use style="fill:#0000ff;opacity:0.5;stroke:#0000ff;stroke-linejoin:miter;" x="567.317124" xlink:href="#m707d703867" y="28.245565"/>
     <use style="fill:#0000ff;opacity:0.5;stroke:#0000ff;stroke-linejoin:miter;" x="581.900993" xlink:href="#m707d703867" y="28.168075"/>
     <use style="fill:#0000ff;opacity:0.5;stroke:#0000ff;stroke-linejoin:miter;" x="596.484862" xlink:href="#m707d703867" y="28.048994"/>
     <use style="fill:#0000ff;opacity:0.5;stroke:#0000ff;stroke-linejoin:miter;" x="611.068731" xlink:href="#m707d703867" y="28.136542"/>
     <use style="fill:#0000ff;opacity:0.5;stroke:#0000ff;stroke-linejoin:miter;" x="625.6526" xlink:href="#m707d703867" y="27.86129"/>
     <use style="fill:#0000ff;opacity:0.5;stroke:#0000ff;stroke-linejoin:miter;" x="640.236469" xlink:href="#m707d703867" y="28.219231"/>
     <use style="fill:#0000ff;opacity:0.5;stroke:#0000ff;stroke-linejoin:miter;" x="654.820338" xlink:href="#m707d703867" y="26.130138"/>
     <use style="fill:#0000ff;opacity:0.5;stroke:#0000ff;stroke-linejoin:miter;" x="669.404207" xlink:href="#m707d703867" y="26.513265"/>
    </g>
   </g>
   <g id="patch_10">
    <path d="M 439.70827 274.59832 
L 439.70827 14.29832 
" style="fill:none;stroke:#000000;stroke-linecap:square;stroke-linejoin:miter;stroke-width:0.8;"/>
   </g>
   <g id="patch_11">
    <path d="M 680.342109 274.59832 
L 680.342109 14.29832 
" style="fill:none;stroke:#000000;stroke-linecap:square;stroke-linejoin:miter;stroke-width:0.8;"/>
   </g>
   <g id="patch_12">
    <path d="M 439.70827 274.59832 
L 680.342109 274.59832 
" style="fill:none;stroke:#000000;stroke-linecap:square;stroke-linejoin:miter;stroke-width:0.8;"/>
   </g>
   <g id="patch_13">
    <path d="M 439.70827 14.29832 
L 680.342109 14.29832 
" style="fill:none;stroke:#000000;stroke-linecap:square;stroke-linejoin:miter;stroke-width:0.8;"/>
   </g>
   <g id="legend_2">
    <g id="patch_14">
     <path d="M 552.233968 267.09832 
L 669.842109 267.09832 
Q 672.842109 267.09832 672.842109 264.09832 
L 672.842109 244.26786 
Q 672.842109 241.26786 669.842109 241.26786 
L 552.233968 241.26786 
Q 549.233968 241.26786 549.233968 244.26786 
L 549.233968 264.09832 
Q 549.233968 267.09832 552.233968 267.09832 
z
" style="fill:#ffffff;opacity:0.8;stroke:#cccccc;stroke-linejoin:miter;"/>
    </g>
    <g id="line2d_25"/>
    <g id="line2d_26">
     <g>
      <use style="fill:#0000ff;opacity:0.5;stroke:#0000ff;stroke-linejoin:miter;" x="570.233968" xlink:href="#m707d703867" y="252.665341"/>
     </g>
    </g>
    <g id="text_25">
     <!-- Simulation -->
     <g transform="translate(597.233968 257.915341)scale(0.15 -0.15)">
      <use transform="scale(0.996264)" xlink:href="#Nimbus_Sans_L_Regular-83"/>
      <use transform="translate(66.450031 0)scale(0.996264)" xlink:href="#Nimbus_Sans_L_Regular-105"/>
      <use transform="translate(88.566815 0)scale(0.996264)" xlink:href="#Nimbus_Sans_L_Regular-109"/>
      <use transform="translate(170.559149 0)scale(0.996264)" xlink:href="#Nimbus_Sans_L_Regular-117"/>
      <use transform="translate(225.950826 0)scale(0.996264)" xlink:href="#Nimbus_Sans_L_Regular-108"/>
      <use transform="translate(248.06761 0)scale(0.996264)" xlink:href="#Nimbus_Sans_L_Regular-97"/>
      <use transform="translate(303.459287 0)scale(0.996264)" xlink:href="#Nimbus_Sans_L_Regular-116"/>
      <use transform="translate(331.154457 0)scale(0.996264)" xlink:href="#Nimbus_Sans_L_Regular-105"/>
      <use transform="translate(353.271241 0)scale(0.996264)" xlink:href="#Nimbus_Sans_L_Regular-111"/>
      <use transform="translate(408.662918 0)scale(0.996264)" xlink:href="#Nimbus_Sans_L_Regular-110"/>
     </g>
    </g>
   </g>
  </g>
  <g id="axes_3">
   <g id="patch_15">
    <path d="M 798.462609 274.59832 
L 1039.096448 274.59832 
L 1039.096448 14.29832 
L 798.462609 14.29832 
z
" style="fill:#ffffff;"/>
   </g>
   <g id="matplotlib.axis_5">
    <g id="xtick_9">
     <g id="line2d_27">
      <g>
       <use style="stroke:#000000;stroke-width:0.8;" x="809.400511" xlink:href="#m82c25fdbc0" y="274.59832"/>
      </g>
     </g>
     <g id="text_26">
      <!-- 0 -->
      <g transform="translate(803.861346 295.794961)scale(0.2 -0.2)">
       <use transform="scale(0.996264)" xlink:href="#Nimbus_Sans_L_Regular-48"/>
      </g>
     </g>
    </g>
    <g id="xtick_10">
     <g id="line2d_28">
      <g>
       <use style="stroke:#000000;stroke-width:0.8;" x="882.319856" xlink:href="#m82c25fdbc0" y="274.59832"/>
      </g>
     </g>
     <g id="text_27">
      <!-- 250 -->
      <g transform="translate(865.702362 295.794961)scale(0.2 -0.2)">
       <use transform="scale(0.996264)" xlink:href="#Nimbus_Sans_L_Regular-50"/>
       <use transform="translate(55.391677 0)scale(0.996264)" xlink:href="#Nimbus_Sans_L_Regular-53"/>
       <use transform="translate(110.783354 0)scale(0.996264)" xlink:href="#Nimbus_Sans_L_Regular-48"/>
      </g>
     </g>
    </g>
    <g id="xtick_11">
     <g id="line2d_29">
      <g>
       <use style="stroke:#000000;stroke-width:0.8;" x="955.239201" xlink:href="#m82c25fdbc0" y="274.59832"/>
      </g>
     </g>
     <g id="text_28">
      <!-- 500 -->
      <g transform="translate(938.621707 295.794961)scale(0.2 -0.2)">
       <use transform="scale(0.996264)" xlink:href="#Nimbus_Sans_L_Regular-53"/>
       <use transform="translate(55.391677 0)scale(0.996264)" xlink:href="#Nimbus_Sans_L_Regular-48"/>
       <use transform="translate(110.783354 0)scale(0.996264)" xlink:href="#Nimbus_Sans_L_Regular-48"/>
      </g>
     </g>
    </g>
    <g id="xtick_12">
     <g id="line2d_30">
      <g>
       <use style="stroke:#000000;stroke-width:0.8;" x="1028.158546" xlink:href="#m82c25fdbc0" y="274.59832"/>
      </g>
     </g>
     <g id="text_29">
      <!-- 750 -->
      <g transform="translate(1011.541052 295.794961)scale(0.2 -0.2)">
       <use transform="scale(0.996264)" xlink:href="#Nimbus_Sans_L_Regular-55"/>
       <use transform="translate(55.391677 0)scale(0.996264)" xlink:href="#Nimbus_Sans_L_Regular-53"/>
       <use transform="translate(110.783354 0)scale(0.996264)" xlink:href="#Nimbus_Sans_L_Regular-48"/>
      </g>
     </g>
    </g>
    <g id="text_30">
     <!-- Time (days) -->
     <g transform="translate(866.49597 318.604309)scale(0.2 -0.2)">
      <use transform="scale(0.996264)" xlink:href="#Nimbus_Sans_L_Regular-84"/>
      <use transform="translate(60.871631 0)scale(0.996264)" xlink:href="#Nimbus_Sans_L_Regular-105"/>
      <use transform="translate(82.988415 0)scale(0.996264)" xlink:href="#Nimbus_Sans_L_Regular-109"/>
      <use transform="translate(165.976845 0)scale(0.996264)" xlink:href="#Nimbus_Sans_L_Regular-101"/>
      <use transform="translate(249.063692 0)scale(0.996264)" xlink:href="#Nimbus_Sans_L_Regular-40"/>
      <use transform="translate(282.238922 0)scale(0.996264)" xlink:href="#Nimbus_Sans_L_Regular-100"/>
      <use transform="translate(337.630599 0)scale(0.996264)" xlink:href="#Nimbus_Sans_L_Regular-97"/>
      <use transform="translate(390.034168 0)scale(0.996264)" xlink:href="#Nimbus_Sans_L_Regular-121"/>
      <use transform="translate(439.847368 0)scale(0.996264)" xlink:href="#Nimbus_Sans_L_Regular-115"/>
      <use transform="translate(489.660569 0)scale(0.996264)" xlink:href="#Nimbus_Sans_L_Regular-41"/>
     </g>
    </g>
   </g>
   <g id="matplotlib.axis_6">
    <g id="ytick_10">
     <g id="line2d_31">
      <g>
       <use style="stroke:#000000;stroke-width:0.8;" x="798.462609" xlink:href="#mc07d6c6632" y="261.58332"/>
      </g>
     </g>
     <g id="text_31">
      <!-- 0.2995 -->
      <defs>
       <path d="M 19.09375 10.421875 
L 8.703125 10.421875 
L 8.703125 0 
L 19.09375 0 
z
" id="Nimbus_Sans_L_Regular-46"/>
      </defs>
      <g transform="translate(730.531935 268.681641)scale(0.2 -0.2)">
       <use transform="scale(0.996264)" xlink:href="#Nimbus_Sans_L_Regular-48"/>
       <use transform="translate(55.391677 0)scale(0.996264)" xlink:href="#Nimbus_Sans_L_Regular-46"/>
       <use transform="translate(83.086847 0)scale(0.996264)" xlink:href="#Nimbus_Sans_L_Regular-50"/>
       <use transform="translate(138.478524 0)scale(0.996264)" xlink:href="#Nimbus_Sans_L_Regular-57"/>
       <use transform="translate(193.8702 0)scale(0.996264)" xlink:href="#Nimbus_Sans_L_Regular-57"/>
       <use transform="translate(249.261877 0)scale(0.996264)" xlink:href="#Nimbus_Sans_L_Regular-53"/>
      </g>
     </g>
    </g>
    <g id="ytick_11">
     <g id="line2d_32">
      <g>
       <use style="stroke:#000000;stroke-width:0.8;" x="798.462609" xlink:href="#mc07d6c6632" y="196.50832"/>
      </g>
     </g>
     <g id="text_32">
      <!-- 0.3000 -->
      <defs>
       <path d="M 22.09375 33 
L 23.203125 33 
L 26.90625 33 
C 36.59375 33 41.59375 28.59375 41.59375 20.0625 
C 41.59375 11.125 36.09375 5.8125 26.90625 5.8125 
C 17.296875 5.8125 12.59375 10.640625 12 21.015625 
L 3.203125 21.015625 
C 3.59375 15.28125 4.59375 11.5625 6.296875 8.34375 
C 9.90625 1.515625 16.90625 -2 26.59375 -2 
C 41.203125 -2 50.59375 6.734375 50.59375 20.203125 
C 50.59375 29.25 47.09375 34.28125 38.59375 37.203125 
C 45.203125 39.78125 48.5 44.71875 48.5 51.734375 
C 48.5 63.78125 40.40625 71 26.90625 71 
C 12.59375 71 5 63.28125 4.703125 48.359375 
L 13.5 48.359375 
C 13.59375 52.59375 14 54.953125 15.09375 57.109375 
C 17.09375 60.9375 21.5 63.296875 27 63.296875 
C 34.796875 63.296875 39.5 58.75 39.5 51.359375 
C 39.5 46.421875 37.703125 43.453125 33.796875 41.890625 
C 31.40625 40.90625 28.296875 40.5 22.09375 40.5 
z
" id="Nimbus_Sans_L_Regular-51"/>
      </defs>
      <g transform="translate(730.531935 203.606641)scale(0.2 -0.2)">
       <use transform="scale(0.996264)" xlink:href="#Nimbus_Sans_L_Regular-48"/>
       <use transform="translate(55.391677 0)scale(0.996264)" xlink:href="#Nimbus_Sans_L_Regular-46"/>
       <use transform="translate(83.086847 0)scale(0.996264)" xlink:href="#Nimbus_Sans_L_Regular-51"/>
       <use transform="translate(138.478524 0)scale(0.996264)" xlink:href="#Nimbus_Sans_L_Regular-48"/>
       <use transform="translate(193.8702 0)scale(0.996264)" xlink:href="#Nimbus_Sans_L_Regular-48"/>
       <use transform="translate(249.261877 0)scale(0.996264)" xlink:href="#Nimbus_Sans_L_Regular-48"/>
      </g>
     </g>
    </g>
    <g id="ytick_12">
     <g id="line2d_33">
      <g>
       <use style="stroke:#000000;stroke-width:0.8;" x="798.462609" xlink:href="#mc07d6c6632" y="131.43332"/>
      </g>
     </g>
     <g id="text_33">
      <!-- 0.3005 -->
      <g transform="translate(730.531935 138.531641)scale(0.2 -0.2)">
       <use transform="scale(0.996264)" xlink:href="#Nimbus_Sans_L_Regular-48"/>
       <use transform="translate(55.391677 0)scale(0.996264)" xlink:href="#Nimbus_Sans_L_Regular-46"/>
       <use transform="translate(83.086847 0)scale(0.996264)" xlink:href="#Nimbus_Sans_L_Regular-51"/>
       <use transform="translate(138.478524 0)scale(0.996264)" xlink:href="#Nimbus_Sans_L_Regular-48"/>
       <use transform="translate(193.8702 0)scale(0.996264)" xlink:href="#Nimbus_Sans_L_Regular-48"/>
       <use transform="translate(249.261877 0)scale(0.996264)" xlink:href="#Nimbus_Sans_L_Regular-53"/>
      </g>
     </g>
    </g>
    <g id="ytick_13">
     <g id="line2d_34">
      <g>
       <use style="stroke:#000000;stroke-width:0.8;" x="798.462609" xlink:href="#mc07d6c6632" y="66.35832"/>
      </g>
     </g>
     <g id="text_34">
      <!-- 0.3010 -->
      <g transform="translate(730.531935 73.456641)scale(0.2 -0.2)">
       <use transform="scale(0.996264)" xlink:href="#Nimbus_Sans_L_Regular-48"/>
       <use transform="translate(55.391677 0)scale(0.996264)" xlink:href="#Nimbus_Sans_L_Regular-46"/>
       <use transform="translate(83.086847 0)scale(0.996264)" xlink:href="#Nimbus_Sans_L_Regular-51"/>
       <use transform="translate(138.478524 0)scale(0.996264)" xlink:href="#Nimbus_Sans_L_Regular-48"/>
       <use transform="translate(193.8702 0)scale(0.996264)" xlink:href="#Nimbus_Sans_L_Regular-49"/>
       <use transform="translate(249.261877 0)scale(0.996264)" xlink:href="#Nimbus_Sans_L_Regular-48"/>
      </g>
     </g>
    </g>
    <g id="text_35">
     <!-- Mean heteroplasmy -->
     <defs>
      <path d="M 7 73 
L 7 -0.03125 
L 15.296875 -0.03125 
L 15.296875 28.9375 
C 15.296875 39.671875 20.90625 46.6875 29.5 46.6875 
C 32.203125 46.6875 34.90625 45.78125 36.90625 44.28125 
C 39.296875 42.578125 40.296875 40.0625 40.296875 36.359375 
L 40.296875 -0.03125 
L 48.59375 -0.03125 
L 48.59375 39.65625 
C 48.59375 48.484375 42.296875 54 32.09375 54 
C 24.703125 54 20.203125 51.6875 15.296875 45.28125 
L 15.296875 73 
z
" id="Nimbus_Sans_L_Regular-104"/>
     </defs>
     <g transform="translate(722.287962 231.780014)rotate(-90)scale(0.2 -0.2)">
      <use transform="scale(0.996264)" xlink:href="#Nimbus_Sans_L_Regular-77"/>
      <use transform="translate(82.98843 0)scale(0.996264)" xlink:href="#Nimbus_Sans_L_Regular-101"/>
      <use transform="translate(138.380107 0)scale(0.996264)" xlink:href="#Nimbus_Sans_L_Regular-97"/>
      <use transform="translate(193.771784 0)scale(0.996264)" xlink:href="#Nimbus_Sans_L_Regular-110"/>
      <use transform="translate(276.858631 0)scale(0.996264)" xlink:href="#Nimbus_Sans_L_Regular-104"/>
      <use transform="translate(332.250308 0)scale(0.996264)" xlink:href="#Nimbus_Sans_L_Regular-101"/>
      <use transform="translate(387.641985 0)scale(0.996264)" xlink:href="#Nimbus_Sans_L_Regular-116"/>
      <use transform="translate(415.337154 0)scale(0.996264)" xlink:href="#Nimbus_Sans_L_Regular-101"/>
      <use transform="translate(470.728831 0)scale(0.996264)" xlink:href="#Nimbus_Sans_L_Regular-114"/>
      <use transform="translate(503.904061 0)scale(0.996264)" xlink:href="#Nimbus_Sans_L_Regular-111"/>
      <use transform="translate(559.295738 0)scale(0.996264)" xlink:href="#Nimbus_Sans_L_Regular-112"/>
      <use transform="translate(614.687415 0)scale(0.996264)" xlink:href="#Nimbus_Sans_L_Regular-108"/>
      <use transform="translate(636.804199 0)scale(0.996264)" xlink:href="#Nimbus_Sans_L_Regular-97"/>
      <use transform="translate(692.195876 0)scale(0.996264)" xlink:href="#Nimbus_Sans_L_Regular-115"/>
      <use transform="translate(742.009077 0)scale(0.996264)" xlink:href="#Nimbus_Sans_L_Regular-109"/>
      <use transform="translate(823.504114 0)scale(0.996264)" xlink:href="#Nimbus_Sans_L_Regular-121"/>
     </g>
    </g>
   </g>
   <g id="LineCollection_1">
    <path clip-path="url(#p92d0d00b78)" d="M 809.400511 157.46332 
L 809.400511 157.46332 
" style="fill:none;stroke:#0000ff;stroke-opacity:0.5;stroke-width:3;"/>
    <path clip-path="url(#p92d0d00b78)" d="M 823.98438 173.033582 
L 823.98438 148.288858 
" style="fill:none;stroke:#0000ff;stroke-opacity:0.5;stroke-width:3;"/>
    <path clip-path="url(#p92d0d00b78)" d="M 838.568249 170.171633 
L 838.568249 135.186416 
" style="fill:none;stroke:#0000ff;stroke-opacity:0.5;stroke-width:3;"/>
    <path clip-path="url(#p92d0d00b78)" d="M 853.152118 180.073821 
L 853.152118 137.310491 
" style="fill:none;stroke:#0000ff;stroke-opacity:0.5;stroke-width:3;"/>
    <path clip-path="url(#p92d0d00b78)" d="M 867.735987 184.575132 
L 867.735987 135.167688 
" style="fill:none;stroke:#0000ff;stroke-opacity:0.5;stroke-width:3;"/>
    <path clip-path="url(#p92d0d00b78)" d="M 882.319856 181.734545 
L 882.319856 126.368325 
" style="fill:none;stroke:#0000ff;stroke-opacity:0.5;stroke-width:3;"/>
    <path clip-path="url(#p92d0d00b78)" d="M 896.903725 190.233053 
L 896.903725 129.699797 
" style="fill:none;stroke:#0000ff;stroke-opacity:0.5;stroke-width:3;"/>
    <path clip-path="url(#p92d0d00b78)" d="M 911.487594 191.633509 
L 911.487594 126.18452 
" style="fill:none;stroke:#0000ff;stroke-opacity:0.5;stroke-width:3;"/>
    <path clip-path="url(#p92d0d00b78)" d="M 926.071463 200.991409 
L 926.071463 130.974511 
" style="fill:none;stroke:#0000ff;stroke-opacity:0.5;stroke-width:3;"/>
    <path clip-path="url(#p92d0d00b78)" d="M 940.655332 194.246355 
L 940.655332 120.072703 
" style="fill:none;stroke:#0000ff;stroke-opacity:0.5;stroke-width:3;"/>
    <path clip-path="url(#p92d0d00b78)" d="M 955.239201 195.920718 
L 955.239201 117.721215 
" style="fill:none;stroke:#0000ff;stroke-opacity:0.5;stroke-width:3;"/>
    <path clip-path="url(#p92d0d00b78)" d="M 969.82307 198.514692 
L 969.82307 116.541149 
" style="fill:none;stroke:#0000ff;stroke-opacity:0.5;stroke-width:3;"/>
    <path clip-path="url(#p92d0d00b78)" d="M 984.406939 195.267198 
L 984.406939 109.670505 
" style="fill:none;stroke:#0000ff;stroke-opacity:0.5;stroke-width:3;"/>
    <path clip-path="url(#p92d0d00b78)" d="M 998.990808 192.367225 
L 998.990808 103.210872 
" style="fill:none;stroke:#0000ff;stroke-opacity:0.5;stroke-width:3;"/>
    <path clip-path="url(#p92d0d00b78)" d="M 1013.574677 183.753673 
L 1013.574677 91.269066 
" style="fill:none;stroke:#0000ff;stroke-opacity:0.5;stroke-width:3;"/>
    <path clip-path="url(#p92d0d00b78)" d="M 1028.158546 179.719264 
L 1028.158546 83.937548 
" style="fill:none;stroke:#0000ff;stroke-opacity:0.5;stroke-width:3;"/>
   </g>
   <g id="line2d_35">
    <path clip-path="url(#p92d0d00b78)" d="M 809.400511 157.424236 
L 812.317285 157.424236 
L 815.234059 157.424236 
L 818.150832 157.424236 
L 821.067606 157.424236 
L 823.98438 157.424236 
L 826.901154 157.424236 
L 829.817928 157.424236 
L 832.734701 157.424236 
L 835.651475 157.424236 
L 838.568249 157.424236 
L 841.485023 157.424236 
L 844.401797 157.424236 
L 847.31857 157.424236 
L 850.235344 157.424236 
L 853.152118 157.424236 
L 856.068892 157.424236 
L 858.985666 157.424236 
L 861.902439 157.424236 
L 864.819213 157.424236 
L 867.735987 157.424236 
L 870.652761 157.424236 
L 873.569535 157.424236 
L 876.486308 157.424236 
L 879.403082 157.424236 
L 882.319856 157.424236 
L 885.23663 157.424236 
L 888.153404 157.424236 
L 891.070177 157.424236 
L 893.986951 157.424236 
L 896.903725 157.424236 
L 899.820499 157.424236 
L 902.737273 157.424236 
L 905.654046 157.424236 
L 908.57082 157.424236 
L 911.487594 157.424236 
L 914.404368 157.424236 
L 917.321142 157.424236 
L 920.237916 157.424236 
L 923.154689 157.424236 
L 926.071463 157.424236 
L 928.988237 157.424236 
L 931.905011 157.424236 
L 934.821785 157.424236 
L 937.738558 157.424236 
L 940.655332 157.424236 
L 943.572106 157.424236 
L 946.48888 157.424236 
L 949.405654 157.424236 
L 952.322427 157.424236 
L 955.239201 157.424236 
L 958.155975 157.424236 
L 961.072749 157.424236 
L 963.989523 157.424236 
L 966.906296 157.424236 
L 969.82307 157.424236 
L 972.739844 157.424236 
L 975.656618 157.424236 
L 978.573392 157.424236 
L 981.490165 157.424236 
L 984.406939 157.424236 
L 987.323713 157.424236 
L 990.240487 157.424236 
L 993.157261 157.424236 
L 996.074034 157.424236 
L 998.990808 157.424236 
L 1001.907582 157.424236 
L 1004.824356 157.424236 
L 1007.74113 157.424236 
L 1010.657903 157.424236 
L 1013.574677 157.424236 
L 1016.491451 157.424236 
L 1019.408225 157.424236 
L 1022.324999 157.424236 
L 1025.241772 157.424236 
L 1028.158546 157.424236 
" style="fill:none;stroke:#ff0000;stroke-linecap:square;stroke-width:1.5;"/>
   </g>
   <g id="line2d_36">
    <g clip-path="url(#p92d0d00b78)">
     <use style="fill:#0000ff;opacity:0.5;stroke:#0000ff;stroke-linejoin:miter;" x="809.400511" xlink:href="#m707d703867" y="157.46332"/>
     <use style="fill:#0000ff;opacity:0.5;stroke:#0000ff;stroke-linejoin:miter;" x="823.98438" xlink:href="#m707d703867" y="160.66122"/>
     <use style="fill:#0000ff;opacity:0.5;stroke:#0000ff;stroke-linejoin:miter;" x="838.568249" xlink:href="#m707d703867" y="152.679024"/>
     <use style="fill:#0000ff;opacity:0.5;stroke:#0000ff;stroke-linejoin:miter;" x="853.152118" xlink:href="#m707d703867" y="158.692156"/>
     <use style="fill:#0000ff;opacity:0.5;stroke:#0000ff;stroke-linejoin:miter;" x="867.735987" xlink:href="#m707d703867" y="159.87141"/>
     <use style="fill:#0000ff;opacity:0.5;stroke:#0000ff;stroke-linejoin:miter;" x="882.319856" xlink:href="#m707d703867" y="154.051435"/>
     <use style="fill:#0000ff;opacity:0.5;stroke:#0000ff;stroke-linejoin:miter;" x="896.903725" xlink:href="#m707d703867" y="159.966425"/>
     <use style="fill:#0000ff;opacity:0.5;stroke:#0000ff;stroke-linejoin:miter;" x="911.487594" xlink:href="#m707d703867" y="158.909015"/>
     <use style="fill:#0000ff;opacity:0.5;stroke:#0000ff;stroke-linejoin:miter;" x="926.071463" xlink:href="#m707d703867" y="165.98296"/>
     <use style="fill:#0000ff;opacity:0.5;stroke:#0000ff;stroke-linejoin:miter;" x="940.655332" xlink:href="#m707d703867" y="157.159529"/>
     <use style="fill:#0000ff;opacity:0.5;stroke:#0000ff;stroke-linejoin:miter;" x="955.239201" xlink:href="#m707d703867" y="156.820966"/>
     <use style="fill:#0000ff;opacity:0.5;stroke:#0000ff;stroke-linejoin:miter;" x="969.82307" xlink:href="#m707d703867" y="157.52792"/>
     <use style="fill:#0000ff;opacity:0.5;stroke:#0000ff;stroke-linejoin:miter;" x="984.406939" xlink:href="#m707d703867" y="152.468852"/>
     <use style="fill:#0000ff;opacity:0.5;stroke:#0000ff;stroke-linejoin:miter;" x="998.990808" xlink:href="#m707d703867" y="147.789048"/>
     <use style="fill:#0000ff;opacity:0.5;stroke:#0000ff;stroke-linejoin:miter;" x="1013.574677" xlink:href="#m707d703867" y="137.51137"/>
     <use style="fill:#0000ff;opacity:0.5;stroke:#0000ff;stroke-linejoin:miter;" x="1028.158546" xlink:href="#m707d703867" y="131.828406"/>
    </g>
   </g>
   <g id="patch_16">
    <path d="M 798.462609 274.59832 
L 798.462609 14.29832 
" style="fill:none;stroke:#000000;stroke-linecap:square;stroke-linejoin:miter;stroke-width:0.8;"/>
   </g>
   <g id="patch_17">
    <path d="M 1039.096448 274.59832 
L 1039.096448 14.29832 
" style="fill:none;stroke:#000000;stroke-linecap:square;stroke-linejoin:miter;stroke-width:0.8;"/>
   </g>
   <g id="patch_18">
    <path d="M 798.462609 274.59832 
L 1039.096448 274.59832 
" style="fill:none;stroke:#000000;stroke-linecap:square;stroke-linejoin:miter;stroke-width:0.8;"/>
   </g>
   <g id="patch_19">
    <path d="M 798.462609 14.29832 
L 1039.096448 14.29832 
" style="fill:none;stroke:#000000;stroke-linecap:square;stroke-linejoin:miter;stroke-width:0.8;"/>
   </g>
   <g id="legend_3">
    <g id="patch_20">
     <path d="M 808.962609 68.95924 
L 959.11503 68.95924 
Q 962.11503 68.95924 962.11503 65.95924 
L 962.11503 24.79832 
Q 962.11503 21.79832 959.11503 21.79832 
L 808.962609 21.79832 
Q 805.962609 21.79832 805.962609 24.79832 
L 805.962609 65.95924 
Q 805.962609 68.95924 808.962609 68.95924 
z
" style="fill:#ffffff;opacity:0.8;stroke:#cccccc;stroke-linejoin:miter;"/>
    </g>
    <g id="line2d_37">
     <path d="M 811.962609 33.195801 
L 841.962609 33.195801 
" style="fill:none;stroke:#ff0000;stroke-linecap:square;stroke-width:1.5;"/>
    </g>
    <g id="line2d_38"/>
    <g id="text_36">
     <!-- Deterministic -->
     <g transform="translate(853.962609 38.445801)scale(0.15 -0.15)">
      <use transform="scale(0.996264)" xlink:href="#Nimbus_Sans_L_Regular-68"/>
      <use transform="translate(71.929985 0)scale(0.996264)" xlink:href="#Nimbus_Sans_L_Regular-101"/>
      <use transform="translate(127.321662 0)scale(0.996264)" xlink:href="#Nimbus_Sans_L_Regular-116"/>
      <use transform="translate(155.016831 0)scale(0.996264)" xlink:href="#Nimbus_Sans_L_Regular-101"/>
      <use transform="translate(210.408508 0)scale(0.996264)" xlink:href="#Nimbus_Sans_L_Regular-114"/>
      <use transform="translate(246.074353 0)scale(0.996264)" xlink:href="#Nimbus_Sans_L_Regular-109"/>
      <use transform="translate(329.062783 0)scale(0.996264)" xlink:href="#Nimbus_Sans_L_Regular-105"/>
      <use transform="translate(351.179567 0)scale(0.996264)" xlink:href="#Nimbus_Sans_L_Regular-110"/>
      <use transform="translate(406.571244 0)scale(0.996264)" xlink:href="#Nimbus_Sans_L_Regular-105"/>
      <use transform="translate(428.688028 0)scale(0.996264)" xlink:href="#Nimbus_Sans_L_Regular-115"/>
      <use transform="translate(478.501229 0)scale(0.996264)" xlink:href="#Nimbus_Sans_L_Regular-116"/>
      <use transform="translate(506.196399 0)scale(0.996264)" xlink:href="#Nimbus_Sans_L_Regular-105"/>
      <use transform="translate(528.313183 0)scale(0.996264)" xlink:href="#Nimbus_Sans_L_Regular-99"/>
     </g>
    </g>
    <g id="LineCollection_2">
     <path d="M 826.962609 62.026261 
L 826.962609 47.026261 
" style="fill:none;stroke:#0000ff;stroke-opacity:0.5;stroke-width:3;"/>
    </g>
    <g id="line2d_39"/>
    <g id="line2d_40">
     <g>
      <use style="fill:#0000ff;opacity:0.5;stroke:#0000ff;stroke-linejoin:miter;" x="826.962609" xlink:href="#m707d703867" y="54.526261"/>
     </g>
    </g>
    <g id="text_37">
     <!-- Mean $\pm$ 2 SEM -->
     <g transform="translate(853.962609 59.776261)scale(0.15 -0.15)">
      <use transform="scale(0.996264)" xlink:href="#Nimbus_Sans_L_Regular-77"/>
      <use transform="translate(82.98843 0)scale(0.996264)" xlink:href="#Nimbus_Sans_L_Regular-101"/>
      <use transform="translate(138.380107 0)scale(0.996264)" xlink:href="#Nimbus_Sans_L_Regular-97"/>
      <use transform="translate(193.771784 0)scale(0.996264)" xlink:href="#Nimbus_Sans_L_Regular-110"/>
      <use transform="translate(276.858631 0)scale(0.996264)" xlink:href="#CMSY10-6"/>
      <use transform="translate(382.041268 0)scale(0.996264)" xlink:href="#Nimbus_Sans_L_Regular-50"/>
      <use transform="translate(465.128115 0)scale(0.996264)" xlink:href="#Nimbus_Sans_L_Regular-83"/>
      <use transform="translate(531.578146 0)scale(0.996264)" xlink:href="#Nimbus_Sans_L_Regular-69"/>
      <use transform="translate(598.028177 0)scale(0.996264)" xlink:href="#Nimbus_Sans_L_Regular-77"/>
     </g>
    </g>
   </g>
  </g>
  <g id="axes_4">
   <g id="patch_21">
    <path d="M 1157.216948 274.59832 
L 1397.850787 274.59832 
L 1397.850787 14.29832 
L 1157.216948 14.29832 
z
" style="fill:#ffffff;"/>
   </g>
   <g id="matplotlib.axis_7">
    <g id="xtick_13">
     <g id="line2d_41">
      <g>
       <use style="stroke:#000000;stroke-width:0.8;" x="1168.15485" xlink:href="#m82c25fdbc0" y="274.59832"/>
      </g>
     </g>
     <g id="text_38">
      <!-- 0 -->
      <g transform="translate(1162.615686 295.794961)scale(0.2 -0.2)">
       <use transform="scale(0.996264)" xlink:href="#Nimbus_Sans_L_Regular-48"/>
      </g>
     </g>
    </g>
    <g id="xtick_14">
     <g id="line2d_42">
      <g>
       <use style="stroke:#000000;stroke-width:0.8;" x="1241.074195" xlink:href="#m82c25fdbc0" y="274.59832"/>
      </g>
     </g>
     <g id="text_39">
      <!-- 250 -->
      <g transform="translate(1224.456701 295.794961)scale(0.2 -0.2)">
       <use transform="scale(0.996264)" xlink:href="#Nimbus_Sans_L_Regular-50"/>
       <use transform="translate(55.391677 0)scale(0.996264)" xlink:href="#Nimbus_Sans_L_Regular-53"/>
       <use transform="translate(110.783354 0)scale(0.996264)" xlink:href="#Nimbus_Sans_L_Regular-48"/>
      </g>
     </g>
    </g>
    <g id="xtick_15">
     <g id="line2d_43">
      <g>
       <use style="stroke:#000000;stroke-width:0.8;" x="1313.99354" xlink:href="#m82c25fdbc0" y="274.59832"/>
      </g>
     </g>
     <g id="text_40">
      <!-- 500 -->
      <g transform="translate(1297.376046 295.794961)scale(0.2 -0.2)">
       <use transform="scale(0.996264)" xlink:href="#Nimbus_Sans_L_Regular-53"/>
       <use transform="translate(55.391677 0)scale(0.996264)" xlink:href="#Nimbus_Sans_L_Regular-48"/>
       <use transform="translate(110.783354 0)scale(0.996264)" xlink:href="#Nimbus_Sans_L_Regular-48"/>
      </g>
     </g>
    </g>
    <g id="xtick_16">
     <g id="line2d_44">
      <g>
       <use style="stroke:#000000;stroke-width:0.8;" x="1386.912886" xlink:href="#m82c25fdbc0" y="274.59832"/>
      </g>
     </g>
     <g id="text_41">
      <!-- 750 -->
      <g transform="translate(1370.295392 295.794961)scale(0.2 -0.2)">
       <use transform="scale(0.996264)" xlink:href="#Nimbus_Sans_L_Regular-55"/>
       <use transform="translate(55.391677 0)scale(0.996264)" xlink:href="#Nimbus_Sans_L_Regular-53"/>
       <use transform="translate(110.783354 0)scale(0.996264)" xlink:href="#Nimbus_Sans_L_Regular-48"/>
      </g>
     </g>
    </g>
    <g id="text_42">
     <!-- Time (days) -->
     <g transform="translate(1225.250309 318.604309)scale(0.2 -0.2)">
      <use transform="scale(0.996264)" xlink:href="#Nimbus_Sans_L_Regular-84"/>
      <use transform="translate(60.871631 0)scale(0.996264)" xlink:href="#Nimbus_Sans_L_Regular-105"/>
      <use transform="translate(82.988415 0)scale(0.996264)" xlink:href="#Nimbus_Sans_L_Regular-109"/>
      <use transform="translate(165.976845 0)scale(0.996264)" xlink:href="#Nimbus_Sans_L_Regular-101"/>
      <use transform="translate(249.063692 0)scale(0.996264)" xlink:href="#Nimbus_Sans_L_Regular-40"/>
      <use transform="translate(282.238922 0)scale(0.996264)" xlink:href="#Nimbus_Sans_L_Regular-100"/>
      <use transform="translate(337.630599 0)scale(0.996264)" xlink:href="#Nimbus_Sans_L_Regular-97"/>
      <use transform="translate(390.034168 0)scale(0.996264)" xlink:href="#Nimbus_Sans_L_Regular-121"/>
      <use transform="translate(439.847368 0)scale(0.996264)" xlink:href="#Nimbus_Sans_L_Regular-115"/>
      <use transform="translate(489.660569 0)scale(0.996264)" xlink:href="#Nimbus_Sans_L_Regular-41"/>
     </g>
    </g>
   </g>
   <g id="matplotlib.axis_8">
    <g id="ytick_14">
     <g id="line2d_45">
      <g>
       <use style="stroke:#000000;stroke-width:0.8;" x="1157.216948" xlink:href="#mc07d6c6632" y="262.766502"/>
      </g>
     </g>
     <g id="text_43">
      <!-- 0.00 -->
      <g transform="translate(1111.442933 269.864822)scale(0.2 -0.2)">
       <use transform="scale(0.996264)" xlink:href="#Nimbus_Sans_L_Regular-48"/>
       <use transform="translate(55.391677 0)scale(0.996264)" xlink:href="#Nimbus_Sans_L_Regular-46"/>
       <use transform="translate(83.086847 0)scale(0.996264)" xlink:href="#Nimbus_Sans_L_Regular-48"/>
       <use transform="translate(138.478524 0)scale(0.996264)" xlink:href="#Nimbus_Sans_L_Regular-48"/>
      </g>
     </g>
    </g>
    <g id="ytick_15">
     <g id="line2d_46">
      <g>
       <use style="stroke:#000000;stroke-width:0.8;" x="1157.216948" xlink:href="#mc07d6c6632" y="192.858872"/>
      </g>
     </g>
     <g id="text_44">
      <!-- 0.00 -->
      <g transform="translate(1111.442933 199.957192)scale(0.2 -0.2)">
       <use transform="scale(0.996264)" xlink:href="#Nimbus_Sans_L_Regular-48"/>
       <use transform="translate(55.391677 0)scale(0.996264)" xlink:href="#Nimbus_Sans_L_Regular-46"/>
       <use transform="translate(83.086847 0)scale(0.996264)" xlink:href="#Nimbus_Sans_L_Regular-48"/>
       <use transform="translate(138.478524 0)scale(0.996264)" xlink:href="#Nimbus_Sans_L_Regular-48"/>
      </g>
     </g>
    </g>
    <g id="ytick_16">
     <g id="line2d_47">
      <g>
       <use style="stroke:#000000;stroke-width:0.8;" x="1157.216948" xlink:href="#mc07d6c6632" y="122.951242"/>
      </g>
     </g>
     <g id="text_45">
      <!-- 0.00 -->
      <g transform="translate(1111.442933 130.049562)scale(0.2 -0.2)">
       <use transform="scale(0.996264)" xlink:href="#Nimbus_Sans_L_Regular-48"/>
       <use transform="translate(55.391677 0)scale(0.996264)" xlink:href="#Nimbus_Sans_L_Regular-46"/>
       <use transform="translate(83.086847 0)scale(0.996264)" xlink:href="#Nimbus_Sans_L_Regular-48"/>
       <use transform="translate(138.478524 0)scale(0.996264)" xlink:href="#Nimbus_Sans_L_Regular-48"/>
      </g>
     </g>
    </g>
    <g id="ytick_17">
     <g id="line2d_48">
      <g>
       <use style="stroke:#000000;stroke-width:0.8;" x="1157.216948" xlink:href="#mc07d6c6632" y="53.043611"/>
      </g>
     </g>
     <g id="text_46">
      <!-- 0.00 -->
      <g transform="translate(1111.442933 60.141932)scale(0.2 -0.2)">
       <use transform="scale(0.996264)" xlink:href="#Nimbus_Sans_L_Regular-48"/>
       <use transform="translate(55.391677 0)scale(0.996264)" xlink:href="#Nimbus_Sans_L_Regular-46"/>
       <use transform="translate(83.086847 0)scale(0.996264)" xlink:href="#Nimbus_Sans_L_Regular-48"/>
       <use transform="translate(138.478524 0)scale(0.996264)" xlink:href="#Nimbus_Sans_L_Regular-48"/>
      </g>
     </g>
    </g>
    <g id="text_47">
     <!-- Heteroplasmy variance -->
     <defs>
      <path d="M 55.09375 33 
L 55.09375 -0.03125 
L 64.40625 -0.03125 
L 64.40625 73 
L 55.09375 73 
L 55.09375 41.21875 
L 17.59375 41.21875 
L 17.59375 73 
L 8.296875 73 
L 8.296875 -0.03125 
L 17.703125 -0.03125 
L 17.703125 33 
z
" id="Nimbus_Sans_L_Regular-72"/>
     </defs>
     <g transform="translate(1103.19896 246.066276)rotate(-90)scale(0.2 -0.2)">
      <use transform="scale(0.996264)" xlink:href="#Nimbus_Sans_L_Regular-72"/>
      <use transform="translate(71.929985 0)scale(0.996264)" xlink:href="#Nimbus_Sans_L_Regular-101"/>
      <use transform="translate(127.321662 0)scale(0.996264)" xlink:href="#Nimbus_Sans_L_Regular-116"/>
      <use transform="translate(155.016831 0)scale(0.996264)" xlink:href="#Nimbus_Sans_L_Regular-101"/>
      <use transform="translate(210.408508 0)scale(0.996264)" xlink:href="#Nimbus_Sans_L_Regular-114"/>
      <use transform="translate(243.583738 0)scale(0.996264)" xlink:href="#Nimbus_Sans_L_Regular-111"/>
      <use transform="translate(298.975415 0)scale(0.996264)" xlink:href="#Nimbus_Sans_L_Regular-112"/>
      <use transform="translate(354.367092 0)scale(0.996264)" xlink:href="#Nimbus_Sans_L_Regular-108"/>
      <use transform="translate(376.483876 0)scale(0.996264)" xlink:href="#Nimbus_Sans_L_Regular-97"/>
      <use transform="translate(431.875553 0)scale(0.996264)" xlink:href="#Nimbus_Sans_L_Regular-115"/>
      <use transform="translate(481.688754 0)scale(0.996264)" xlink:href="#Nimbus_Sans_L_Regular-109"/>
      <use transform="translate(563.183791 0)scale(0.996264)" xlink:href="#Nimbus_Sans_L_Regular-121"/>
      <use transform="translate(640.692161 0)scale(0.996264)" xlink:href="#Nimbus_Sans_L_Regular-118"/>
      <use transform="translate(688.014732 0)scale(0.996264)" xlink:href="#Nimbus_Sans_L_Regular-97"/>
      <use transform="translate(743.406409 0)scale(0.996264)" xlink:href="#Nimbus_Sans_L_Regular-114"/>
      <use transform="translate(778.075017 0)scale(0.996264)" xlink:href="#Nimbus_Sans_L_Regular-105"/>
      <use transform="translate(800.191801 0)scale(0.996264)" xlink:href="#Nimbus_Sans_L_Regular-97"/>
      <use transform="translate(855.583478 0)scale(0.996264)" xlink:href="#Nimbus_Sans_L_Regular-110"/>
      <use transform="translate(910.975155 0)scale(0.996264)" xlink:href="#Nimbus_Sans_L_Regular-99"/>
      <use transform="translate(960.788355 0)scale(0.996264)" xlink:href="#Nimbus_Sans_L_Regular-101"/>
     </g>
    </g>
   </g>
   <g id="line2d_49">
    <defs>
     <path d="M -5 5 
L 5 -5 
M -5 -5 
L 5 5 
" id="m48e2045e00" style="stroke:#000000;"/>
    </defs>
    <g clip-path="url(#p3c431bfc92)">
     <use style="stroke:#000000;" x="1168.15485" xlink:href="#m48e2045e00" y="262.766502"/>
     <use style="stroke:#000000;" x="1171.071624" xlink:href="#m48e2045e00" y="259.607293"/>
     <use style="stroke:#000000;" x="1173.988398" xlink:href="#m48e2045e00" y="256.453415"/>
     <use style="stroke:#000000;" x="1176.905172" xlink:href="#m48e2045e00" y="253.314757"/>
     <use style="stroke:#000000;" x="1179.821945" xlink:href="#m48e2045e00" y="250.17194"/>
     <use style="stroke:#000000;" x="1182.738719" xlink:href="#m48e2045e00" y="246.972889"/>
     <use style="stroke:#000000;" x="1185.655493" xlink:href="#m48e2045e00" y="243.862685"/>
     <use style="stroke:#000000;" x="1188.572267" xlink:href="#m48e2045e00" y="240.661532"/>
     <use style="stroke:#000000;" x="1191.489041" xlink:href="#m48e2045e00" y="237.602953"/>
     <use style="stroke:#000000;" x="1194.405814" xlink:href="#m48e2045e00" y="234.414216"/>
     <use style="stroke:#000000;" x="1197.322588" xlink:href="#m48e2045e00" y="231.195717"/>
     <use style="stroke:#000000;" x="1200.239362" xlink:href="#m48e2045e00" y="228.123185"/>
     <use style="stroke:#000000;" x="1203.156136" xlink:href="#m48e2045e00" y="225.020377"/>
     <use style="stroke:#000000;" x="1206.07291" xlink:href="#m48e2045e00" y="221.905965"/>
     <use style="stroke:#000000;" x="1208.989683" xlink:href="#m48e2045e00" y="218.768222"/>
     <use style="stroke:#000000;" x="1211.906457" xlink:href="#m48e2045e00" y="215.597217"/>
     <use style="stroke:#000000;" x="1214.823231" xlink:href="#m48e2045e00" y="212.438854"/>
     <use style="stroke:#000000;" x="1217.740005" xlink:href="#m48e2045e00" y="209.267599"/>
     <use style="stroke:#000000;" x="1220.656779" xlink:href="#m48e2045e00" y="206.154751"/>
     <use style="stroke:#000000;" x="1223.573552" xlink:href="#m48e2045e00" y="203.043346"/>
     <use style="stroke:#000000;" x="1226.490326" xlink:href="#m48e2045e00" y="199.801239"/>
     <use style="stroke:#000000;" x="1229.4071" xlink:href="#m48e2045e00" y="196.598532"/>
     <use style="stroke:#000000;" x="1232.323874" xlink:href="#m48e2045e00" y="193.407407"/>
     <use style="stroke:#000000;" x="1235.240648" xlink:href="#m48e2045e00" y="190.250948"/>
     <use style="stroke:#000000;" x="1238.157422" xlink:href="#m48e2045e00" y="186.984716"/>
     <use style="stroke:#000000;" x="1241.074195" xlink:href="#m48e2045e00" y="183.697547"/>
     <use style="stroke:#000000;" x="1243.990969" xlink:href="#m48e2045e00" y="180.578282"/>
     <use style="stroke:#000000;" x="1246.907743" xlink:href="#m48e2045e00" y="177.643678"/>
     <use style="stroke:#000000;" x="1249.824517" xlink:href="#m48e2045e00" y="174.467368"/>
     <use style="stroke:#000000;" x="1252.741291" xlink:href="#m48e2045e00" y="171.370337"/>
     <use style="stroke:#000000;" x="1255.658064" xlink:href="#m48e2045e00" y="168.250725"/>
     <use style="stroke:#000000;" x="1258.574838" xlink:href="#m48e2045e00" y="165.064033"/>
     <use style="stroke:#000000;" x="1261.491612" xlink:href="#m48e2045e00" y="161.835508"/>
     <use style="stroke:#000000;" x="1264.408386" xlink:href="#m48e2045e00" y="158.701748"/>
     <use style="stroke:#000000;" x="1267.32516" xlink:href="#m48e2045e00" y="155.245522"/>
     <use style="stroke:#000000;" x="1270.241933" xlink:href="#m48e2045e00" y="152.276715"/>
     <use style="stroke:#000000;" x="1273.158707" xlink:href="#m48e2045e00" y="149.071759"/>
     <use style="stroke:#000000;" x="1276.075481" xlink:href="#m48e2045e00" y="146.069131"/>
     <use style="stroke:#000000;" x="1278.992255" xlink:href="#m48e2045e00" y="143.104985"/>
     <use style="stroke:#000000;" x="1281.909029" xlink:href="#m48e2045e00" y="139.650089"/>
     <use style="stroke:#000000;" x="1284.825802" xlink:href="#m48e2045e00" y="136.315585"/>
     <use style="stroke:#000000;" x="1287.742576" xlink:href="#m48e2045e00" y="133.289491"/>
     <use style="stroke:#000000;" x="1290.65935" xlink:href="#m48e2045e00" y="129.994654"/>
     <use style="stroke:#000000;" x="1293.576124" xlink:href="#m48e2045e00" y="126.998633"/>
     <use style="stroke:#000000;" x="1296.492898" xlink:href="#m48e2045e00" y="123.924334"/>
     <use style="stroke:#000000;" x="1299.409671" xlink:href="#m48e2045e00" y="120.85566"/>
     <use style="stroke:#000000;" x="1302.326445" xlink:href="#m48e2045e00" y="117.834098"/>
     <use style="stroke:#000000;" x="1305.243219" xlink:href="#m48e2045e00" y="114.592089"/>
     <use style="stroke:#000000;" x="1308.159993" xlink:href="#m48e2045e00" y="111.513986"/>
     <use style="stroke:#000000;" x="1311.076767" xlink:href="#m48e2045e00" y="108.422452"/>
     <use style="stroke:#000000;" x="1313.99354" xlink:href="#m48e2045e00" y="105.032895"/>
     <use style="stroke:#000000;" x="1316.910314" xlink:href="#m48e2045e00" y="101.740362"/>
     <use style="stroke:#000000;" x="1319.827088" xlink:href="#m48e2045e00" y="98.679647"/>
     <use style="stroke:#000000;" x="1322.743862" xlink:href="#m48e2045e00" y="95.619493"/>
     <use style="stroke:#000000;" x="1325.660636" xlink:href="#m48e2045e00" y="92.451107"/>
     <use style="stroke:#000000;" x="1328.577409" xlink:href="#m48e2045e00" y="89.440523"/>
     <use style="stroke:#000000;" x="1331.494183" xlink:href="#m48e2045e00" y="86.452132"/>
     <use style="stroke:#000000;" x="1334.410957" xlink:href="#m48e2045e00" y="83.478307"/>
     <use style="stroke:#000000;" x="1337.327731" xlink:href="#m48e2045e00" y="80.369688"/>
     <use style="stroke:#000000;" x="1340.244505" xlink:href="#m48e2045e00" y="76.819769"/>
     <use style="stroke:#000000;" x="1343.161278" xlink:href="#m48e2045e00" y="73.780245"/>
     <use style="stroke:#000000;" x="1346.078052" xlink:href="#m48e2045e00" y="70.812726"/>
     <use style="stroke:#000000;" x="1348.994826" xlink:href="#m48e2045e00" y="67.633865"/>
     <use style="stroke:#000000;" x="1351.9116" xlink:href="#m48e2045e00" y="64.251557"/>
     <use style="stroke:#000000;" x="1354.828374" xlink:href="#m48e2045e00" y="61.063845"/>
     <use style="stroke:#000000;" x="1357.745148" xlink:href="#m48e2045e00" y="57.734883"/>
     <use style="stroke:#000000;" x="1360.661921" xlink:href="#m48e2045e00" y="54.505536"/>
     <use style="stroke:#000000;" x="1363.578695" xlink:href="#m48e2045e00" y="51.514783"/>
     <use style="stroke:#000000;" x="1366.495469" xlink:href="#m48e2045e00" y="48.097329"/>
     <use style="stroke:#000000;" x="1369.412243" xlink:href="#m48e2045e00" y="45.013052"/>
     <use style="stroke:#000000;" x="1372.329017" xlink:href="#m48e2045e00" y="42.141276"/>
     <use style="stroke:#000000;" x="1375.24579" xlink:href="#m48e2045e00" y="38.839654"/>
     <use style="stroke:#000000;" x="1378.162564" xlink:href="#m48e2045e00" y="35.496704"/>
     <use style="stroke:#000000;" x="1381.079338" xlink:href="#m48e2045e00" y="32.361437"/>
     <use style="stroke:#000000;" x="1383.996112" xlink:href="#m48e2045e00" y="29.345627"/>
     <use style="stroke:#000000;" x="1386.912886" xlink:href="#m48e2045e00" y="26.130138"/>
    </g>
   </g>
   <g id="line2d_50">
    <path clip-path="url(#p3c431bfc92)" d="M 1168.15485 262.766502 
L 1171.071624 259.611463 
L 1173.988398 256.456423 
L 1176.905172 253.301383 
L 1179.821945 250.146344 
L 1182.738719 246.991304 
L 1185.655493 243.836265 
L 1188.572267 240.681225 
L 1191.489041 237.526186 
L 1194.405814 234.371146 
L 1197.322588 231.216107 
L 1200.239362 228.061067 
L 1203.156136 224.906028 
L 1206.07291 221.750988 
L 1208.989683 218.595949 
L 1211.906457 215.440909 
L 1214.823231 212.285869 
L 1217.740005 209.13083 
L 1220.656779 205.97579 
L 1223.573552 202.820751 
L 1226.490326 199.665711 
L 1229.4071 196.510672 
L 1232.323874 193.355632 
L 1235.240648 190.200593 
L 1238.157422 187.045553 
L 1241.074195 183.890514 
L 1243.990969 180.735474 
L 1246.907743 177.580434 
L 1249.824517 174.425395 
L 1252.741291 171.270355 
L 1255.658064 168.115316 
L 1258.574838 164.960276 
L 1261.491612 161.805237 
L 1264.408386 158.650197 
L 1267.32516 155.495158 
L 1270.241933 152.340118 
L 1273.158707 149.185079 
L 1276.075481 146.030039 
L 1278.992255 142.875 
L 1281.909029 139.71996 
L 1284.825802 136.56492 
L 1287.742576 133.409881 
L 1290.65935 130.254841 
L 1293.576124 127.099802 
L 1296.492898 123.944762 
L 1299.409671 120.789723 
L 1302.326445 117.634683 
L 1305.243219 114.479644 
L 1308.159993 111.324604 
L 1311.076767 108.169565 
L 1313.99354 105.014525 
L 1316.910314 101.859486 
L 1319.827088 98.704446 
L 1322.743862 95.549406 
L 1325.660636 92.394367 
L 1328.577409 89.239327 
L 1331.494183 86.084288 
L 1334.410957 82.929248 
L 1337.327731 79.774209 
L 1340.244505 76.619169 
L 1343.161278 73.46413 
L 1346.078052 70.30909 
L 1348.994826 67.154051 
L 1351.9116 63.999011 
L 1354.828374 60.843971 
L 1357.745148 57.688932 
L 1360.661921 54.533892 
L 1363.578695 51.378853 
L 1366.495469 48.223813 
L 1369.412243 45.068774 
L 1372.329017 41.913734 
L 1375.24579 38.758695 
L 1378.162564 35.603655 
L 1381.079338 32.448616 
L 1383.996112 29.293576 
L 1386.912886 26.138537 
" style="fill:none;stroke:#ff0000;stroke-linecap:square;stroke-width:1.5;"/>
   </g>
   <g id="patch_22">
    <path d="M 1157.216948 274.59832 
L 1157.216948 14.29832 
" style="fill:none;stroke:#000000;stroke-linecap:square;stroke-linejoin:miter;stroke-width:0.8;"/>
   </g>
   <g id="patch_23">
    <path d="M 1397.850787 274.59832 
L 1397.850787 14.29832 
" style="fill:none;stroke:#000000;stroke-linecap:square;stroke-linejoin:miter;stroke-width:0.8;"/>
   </g>
   <g id="patch_24">
    <path d="M 1157.216948 274.59832 
L 1397.850787 274.59832 
" style="fill:none;stroke:#000000;stroke-linecap:square;stroke-linejoin:miter;stroke-width:0.8;"/>
   </g>
   <g id="patch_25">
    <path d="M 1157.216948 14.29832 
L 1397.850787 14.29832 
" style="fill:none;stroke:#000000;stroke-linecap:square;stroke-linejoin:miter;stroke-width:0.8;"/>
   </g>
   <g id="legend_4">
    <g id="patch_26">
     <path d="M 1167.716948 68.95924 
L 1285.325089 68.95924 
Q 1288.325089 68.95924 1288.325089 65.95924 
L 1288.325089 24.79832 
Q 1288.325089 21.79832 1285.325089 21.79832 
L 1167.716948 21.79832 
Q 1164.716948 21.79832 1164.716948 24.79832 
L 1164.716948 65.95924 
Q 1164.716948 68.95924 1167.716948 68.95924 
z
" style="fill:#ffffff;opacity:0.8;stroke:#cccccc;stroke-linejoin:miter;"/>
    </g>
    <g id="line2d_51"/>
    <g id="line2d_52">
     <g>
      <use style="stroke:#000000;" x="1185.716948" xlink:href="#m48e2045e00" y="33.195801"/>
     </g>
    </g>
    <g id="text_48">
     <!-- Simulation -->
     <g transform="translate(1212.716948 38.445801)scale(0.15 -0.15)">
      <use transform="scale(0.996264)" xlink:href="#Nimbus_Sans_L_Regular-83"/>
      <use transform="translate(66.450031 0)scale(0.996264)" xlink:href="#Nimbus_Sans_L_Regular-105"/>
      <use transform="translate(88.566815 0)scale(0.996264)" xlink:href="#Nimbus_Sans_L_Regular-109"/>
      <use transform="translate(170.559149 0)scale(0.996264)" xlink:href="#Nimbus_Sans_L_Regular-117"/>
      <use transform="translate(225.950826 0)scale(0.996264)" xlink:href="#Nimbus_Sans_L_Regular-108"/>
      <use transform="translate(248.06761 0)scale(0.996264)" xlink:href="#Nimbus_Sans_L_Regular-97"/>
      <use transform="translate(303.459287 0)scale(0.996264)" xlink:href="#Nimbus_Sans_L_Regular-116"/>
      <use transform="translate(331.154457 0)scale(0.996264)" xlink:href="#Nimbus_Sans_L_Regular-105"/>
      <use transform="translate(353.271241 0)scale(0.996264)" xlink:href="#Nimbus_Sans_L_Regular-111"/>
      <use transform="translate(408.662918 0)scale(0.996264)" xlink:href="#Nimbus_Sans_L_Regular-110"/>
     </g>
    </g>
    <g id="line2d_53">
     <path d="M 1170.716948 54.526261 
L 1200.716948 54.526261 
" style="fill:none;stroke:#ff0000;stroke-linecap:square;stroke-width:1.5;"/>
    </g>
    <g id="line2d_54"/>
    <g id="text_49">
     <!-- Ansatz -->
     <defs>
      <path d="M 47.40625 22 
L 54.90625 0 
L 65.296875 0 
L 39.703125 73 
L 27.703125 73 
L 1.703125 0 
L 11.59375 0 
L 19.296875 22 
z
M 44.796875 29.8125 
L 21.59375 29.8125 
L 33.59375 63 
z
" id="Nimbus_Sans_L_Regular-65"/>
      <path d="M 44.296875 52.3125 
L 5.203125 52.3125 
L 5.203125 45 
L 34.40625 45 
L 3.09375 7.515625 
L 3.09375 0 
L 45.703125 0 
L 45.703125 7.3125 
L 13.203125 7.3125 
L 44.296875 44.90625 
z
" id="Nimbus_Sans_L_Regular-122"/>
     </defs>
     <g transform="translate(1212.716948 59.776261)scale(0.15 -0.15)">
      <use transform="scale(0.996264)" xlink:href="#Nimbus_Sans_L_Regular-65"/>
      <use transform="translate(66.450031 0)scale(0.996264)" xlink:href="#Nimbus_Sans_L_Regular-110"/>
      <use transform="translate(121.841708 0)scale(0.996264)" xlink:href="#Nimbus_Sans_L_Regular-115"/>
      <use transform="translate(171.654909 0)scale(0.996264)" xlink:href="#Nimbus_Sans_L_Regular-97"/>
      <use transform="translate(227.046586 0)scale(0.996264)" xlink:href="#Nimbus_Sans_L_Regular-116"/>
      <use transform="translate(254.741755 0)scale(0.996264)" xlink:href="#Nimbus_Sans_L_Regular-122"/>
     </g>
    </g>
   </g>
  </g>
 </g>
 <defs>
  <clipPath id="p9783491cbb">
   <rect height="260.3" width="240.633839" x="80.953931" y="14.29832"/>
  </clipPath>
  <clipPath id="paf21f064be">
   <rect height="260.3" width="240.633839" x="439.70827" y="14.29832"/>
  </clipPath>
  <clipPath id="p92d0d00b78">
   <rect height="260.3" width="240.633839" x="798.462609" y="14.29832"/>
  </clipPath>
  <clipPath id="p3c431bfc92">
   <rect height="260.3" width="240.633839" x="1157.216948" y="14.29832"/>
  </clipPath>
 </defs>
</svg>
