<?xml version="1.0" encoding="utf-8" standalone="no"?>
<!DOCTYPE svg PUBLIC "-//W3C//DTD SVG 1.1//EN"
  "http://www.w3.org/Graphics/SVG/1.1/DTD/svg11.dtd">
<!-- Created with matplotlib (http://matplotlib.org/) -->
<svg height="360pt" version="1.1" viewBox="0 0 720 360" width="720pt" xmlns="http://www.w3.org/2000/svg" xmlns:xlink="http://www.w3.org/1999/xlink">
 <defs>
  <style type="text/css">
*{stroke-linecap:butt;stroke-linejoin:round;}
  </style>
 </defs>
 <g id="figure_1">
  <g id="patch_1">
   <path d="M 0 360 
L 720 360 
L 720 0 
L 0 0 
z
" style="fill:#ffffff;"/>
  </g>
  <g id="axes_1">
   <g id="patch_2">
    <path d="M 91.876191 289.4 
L 350.269048 289.4 
L 350.269048 37.767754 
L 91.876191 37.767754 
z
" style="fill:#ffffff;"/>
   </g>
   <g id="matplotlib.axis_1">
    <g id="xtick_1">
     <g id="line2d_1">
      <defs>
       <path d="M 0 0 
L 0 3.5 
" id="m296718d274" style="stroke:#000000;stroke-width:0.8;"/>
      </defs>
      <g>
       <use style="stroke:#000000;stroke-width:0.8;" x="103.621321" xlink:href="#m296718d274" y="289.4"/>
      </g>
     </g>
     <g id="text_1">
      <!-- $0$ -->
      <defs>
       <path d="M 42 31.640625 
C 42 37.75 41.90625 48.125 37.703125 56.109375 
C 34 63.109375 28.09375 65.59375 22.90625 65.59375 
C 18.09375 65.59375 12 63.40625 8.203125 56.203125 
C 4.203125 48.71875 3.796875 39.4375 3.796875 31.640625 
C 3.796875 25.953125 3.90625 17.28125 7 9.671875 
C 11.296875 -0.609375 19 -2 22.90625 -2 
C 27.5 -2 34.5 -0.109375 38.59375 9.375 
C 41.59375 16.28125 42 24.359375 42 31.640625 
z
M 22.90625 -0.40625 
C 16.5 -0.40625 12.703125 5.078125 11.296875 12.6875 
C 10.203125 18.5625 10.203125 27.15625 10.203125 32.75 
C 10.203125 40.4375 10.203125 46.828125 11.5 52.921875 
C 13.40625 61.390625 19 64 22.90625 64 
C 27 64 32.296875 61.296875 34.203125 53.125 
C 35.5 47.4375 35.59375 40.734375 35.59375 32.75 
C 35.59375 26.25 35.59375 18.265625 34.40625 12.375 
C 32.296875 1.484375 26.40625 -0.40625 22.90625 -0.40625 
z
" id="CMR17-48"/>
      </defs>
      <g transform="translate(99.052273 310.596641)scale(0.2 -0.2)">
       <use transform="scale(0.996264)" xlink:href="#CMR17-48"/>
      </g>
     </g>
    </g>
    <g id="xtick_2">
     <g id="line2d_2">
      <g>
       <use style="stroke:#000000;stroke-width:0.8;" x="221.072619" xlink:href="#m296718d274" y="289.4"/>
      </g>
     </g>
     <g id="text_2">
      <!-- $50$ -->
      <defs>
       <path d="M 11.40625 57.6875 
C 12.40625 57.28125 16.5 56 20.703125 56 
C 30 56 35.09375 61.109375 38 64.0625 
C 38 64.953125 38 65.5 37.40625 65.5 
C 37.296875 65.5 37.09375 65.5 36.296875 65.046875 
C 32.796875 63.40625 28.703125 62.078125 23.703125 62.078125 
C 20.703125 62.078125 16.203125 62.484375 11.296875 64.671875 
C 10.203125 65.171875 10 65.171875 9.90625 65.171875 
C 9.40625 65.171875 9.296875 65.0625 9.296875 63.078125 
L 9.296875 34.421875 
C 9.296875 32.640625 9.296875 32.140625 10.296875 32.140625 
C 10.796875 32.140625 11 32.34375 11.5 33.03125 
C 14.703125 37.515625 19.09375 39.40625 24.09375 39.40625 
C 27.59375 39.40625 35.09375 37.21875 35.09375 20.140625 
C 35.09375 16.953125 35.09375 11.171875 32.09375 6.578125 
C 29.59375 2.484375 25.703125 0.390625 21.40625 0.390625 
C 14.796875 0.390625 8.09375 5 6.296875 12.71875 
C 6.703125 12.609375 7.5 12.421875 7.90625 12.421875 
C 9.203125 12.421875 11.703125 13.125 11.703125 16.21875 
C 11.703125 18.90625 9.796875 20 7.90625 20 
C 5.59375 20 4.09375 18.59375 4.09375 15.796875 
C 4.09375 7.09375 11 -2 21.59375 -2 
C 31.90625 -2 41.703125 6.875 41.703125 19.75 
C 41.703125 31.71875 33.90625 41 24.203125 41 
C 19.09375 41 14.796875 39.109375 11.40625 35.53125 
z
" id="CMR17-53"/>
      </defs>
      <g transform="translate(211.934524 310.596641)scale(0.2 -0.2)">
       <use transform="scale(0.996264)" xlink:href="#CMR17-53"/>
       <use transform="translate(45.690477 0)scale(0.996264)" xlink:href="#CMR17-48"/>
      </g>
     </g>
    </g>
    <g id="xtick_3">
     <g id="line2d_3">
      <g>
       <use style="stroke:#000000;stroke-width:0.8;" x="338.523918" xlink:href="#m296718d274" y="289.4"/>
      </g>
     </g>
     <g id="text_3">
      <!-- $100$ -->
      <defs>
       <path d="M 26.59375 63.40625 
C 26.59375 65.5 26.5 65.5 25.09375 65.5 
C 21.203125 61.1875 15.296875 59.796875 9.703125 59.796875 
C 9.40625 59.796875 8.90625 59.796875 8.796875 59.5 
C 8.703125 59.296875 8.703125 59.09375 8.703125 57 
C 11.796875 57 17 57.59375 21 59.984375 
L 21 7.203125 
C 21 3.6875 20.796875 2.5 12.203125 2.5 
L 9.203125 2.5 
L 9.203125 0 
C 14 0 19 0 23.796875 0 
C 28.59375 0 33.59375 0 38.40625 0 
L 38.40625 2.5 
L 35.40625 2.5 
C 26.796875 2.5 26.59375 3.59375 26.59375 7.15625 
z
" id="CMR17-49"/>
      </defs>
      <g transform="translate(324.816775 310.596641)scale(0.2 -0.2)">
       <use transform="scale(0.996264)" xlink:href="#CMR17-49"/>
       <use transform="translate(45.690477 0)scale(0.996264)" xlink:href="#CMR17-48"/>
       <use transform="translate(91.380954 0)scale(0.996264)" xlink:href="#CMR17-48"/>
      </g>
     </g>
    </g>
    <g id="text_4">
     <!-- Time (years) -->
     <defs>
      <path d="M 35.40625 64.78125 
L 59.296875 64.78125 
L 59.296875 73 
L 2.09375 73 
L 2.09375 64.78125 
L 26.09375 64.78125 
L 26.09375 -0.21875 
L 35.40625 -0.21875 
z
" id="Nimbus_Sans_L_Regular-84"/>
      <path d="M 15 52.484375 
L 6.703125 52.484375 
L 6.703125 0 
L 15 0 
z
M 15 73 
L 6.59375 73 
L 6.59375 62.484375 
L 15 62.484375 
z
" id="Nimbus_Sans_L_Regular-105"/>
      <path d="M 7 52.484375 
L 7 0 
L 15.40625 0 
L 15.40625 32.953125 
C 15.40625 40.578125 20.90625 46.6875 27.703125 46.6875 
C 33.90625 46.6875 37.40625 42.875 37.40625 36.15625 
L 37.40625 0 
L 45.796875 0 
L 45.796875 32.953125 
C 45.796875 40.578125 51.296875 46.6875 58.09375 46.6875 
C 64.203125 46.6875 67.796875 42.78125 67.796875 36.15625 
L 67.796875 0 
L 76.203125 0 
L 76.203125 39.375 
C 76.203125 48.78125 70.796875 54 61 54 
C 54 54 49.796875 51.890625 44.90625 45.984375 
C 41.796875 51.59375 37.59375 54 30.796875 54 
C 23.796875 54 19.203125 51.390625 14.703125 45.078125 
L 14.703125 52.484375 
z
" id="Nimbus_Sans_L_Regular-109"/>
      <path d="M 51.296875 23.890625 
C 51.296875 31.78125 50.703125 36.53125 49.203125 40.375 
C 45.796875 48.859375 37.796875 54 28 54 
C 13.40625 54 4 42.84375 4 25.703125 
C 4 8.546875 13.09375 -2 27.796875 -2 
C 39.796875 -2 48.09375 4.84375 50.203125 16.3125 
L 41.796875 16.3125 
C 39.5 9.34375 34.796875 5.703125 28.09375 5.703125 
C 22.796875 5.703125 18.296875 8.125 15.5 12.578125 
C 13.5 15.59375 12.796875 18.640625 12.703125 23.890625 
z
M 12.90625 31 
C 13.59375 40.265625 19.5 46.28125 27.90625 46.28125 
C 36.09375 46.28125 42.40625 39.53125 42.40625 31 
C 42.40625 31 42.40625 31 42.296875 31 
z
" id="Nimbus_Sans_L_Regular-101"/>
      <path d="M 23.59375 73 
C 13.59375 59.84375 7.296875 41.5625 7.296875 25.796875 
C 7.296875 9.9375 13.59375 -8.34375 23.59375 -21.5 
L 29.09375 -21.5 
C 20.296875 -7.140625 15.40625 9.734375 15.40625 25.796875 
C 15.40625 41.765625 20.296875 58.734375 29.09375 73 
z
" id="Nimbus_Sans_L_Regular-40"/>
      <path d="M 38.796875 52.5 
L 24.296875 11.53125 
L 10.90625 52.5 
L 2 52.5 
L 19.703125 -0.328125 
L 16.5 -8.65625 
C 15.203125 -12.375 13.296875 -13.78125 9.796875 -13.78125 
C 8.59375 -13.78125 7.203125 -13.578125 5.40625 -13.171875 
L 5.40625 -20.703125 
C 7.09375 -21.59375 8.796875 -22 11 -22 
C 13.703125 -22 16.59375 -21.09375 18.796875 -19.484375 
C 21.40625 -17.578125 22.90625 -15.359375 24.5 -11.140625 
L 47.796875 52.5 
z
" id="Nimbus_Sans_L_Regular-121"/>
      <path d="M 53.5 5.203125 
C 52.59375 5 52.203125 5 51.703125 5 
C 48.796875 5 47.203125 6.484375 47.203125 9.078125 
L 47.203125 39.765625 
C 47.203125 49.015625 40.40625 54 27.5 54 
C 19.90625 54 13.59375 51.8125 10.09375 47.90625 
C 7.703125 45.203125 6.703125 42.21875 6.5 37.03125 
L 14.90625 37.03125 
C 15.59375 43.390625 19.40625 46.28125 27.203125 46.28125 
C 34.703125 46.28125 38.90625 43.484375 38.90625 38.515625 
L 38.90625 36.328125 
C 38.90625 32.828125 36.796875 31.34375 30.203125 30.546875 
C 18.40625 29.0625 16.59375 28.65625 13.40625 27.359375 
C 7.296875 24.875 4.203125 20.1875 4.203125 13.421875 
C 4.203125 3.96875 10.796875 -2 21.40625 -2 
C 28 -2 33.296875 0.296875 39.203125 5.703125 
C 39.796875 0.390625 42.40625 -2 47.796875 -2 
C 49.5 -2 50.796875 -1.8125 53.5 -1.09375 
z
M 38.90625 16.75 
C 38.90625 13.953125 38.09375 12.265625 35.59375 9.984375 
C 32.203125 6.890625 28.09375 5.3125 23.203125 5.3125 
C 16.703125 5.3125 12.90625 8.390625 12.90625 13.65625 
C 12.90625 19.140625 16.59375 21.921875 25.5 23.21875 
C 34.296875 24.40625 36.09375 24.8125 38.90625 26.09375 
z
" id="Nimbus_Sans_L_Regular-97"/>
      <path d="M 6.90625 52.484375 
L 6.90625 0 
L 15.296875 0 
L 15.296875 27.203125 
C 15.296875 34.703125 17.203125 39.609375 21.203125 42.5 
C 23.796875 44.40625 26.296875 45 32.09375 45 
L 32.09375 53.625 
C 30.703125 53.8125 30 53.8125 28.90625 53.8125 
C 23.5 53.8125 19.40625 50.625 14.59375 42.90625 
L 14.59375 52.484375 
z
" id="Nimbus_Sans_L_Regular-114"/>
      <path d="M 43.796875 37.921875 
C 43.703125 48.203125 36.90625 54 24.796875 54 
C 12.59375 54 4.703125 47.71875 4.703125 38.0625 
C 4.703125 29.890625 8.90625 26.015625 21.296875 23.03125 
L 29.09375 21.140625 
C 34.90625 19.734375 37.203125 17.65625 37.203125 13.875 
C 37.203125 9 32.296875 5.703125 25 5.703125 
C 20.5 5.703125 16.703125 7 14.59375 9.1875 
C 13.296875 10.6875 12.703125 12.171875 12.203125 15.84375 
L 3.40625 15.84375 
C 3.796875 3.765625 10.59375 -2 24.296875 -2 
C 37.5 -2 45.90625 4.453125 45.90625 14.515625 
C 45.90625 22.28125 41.5 26.578125 31.09375 29.0625 
L 23.09375 30.953125 
C 16.296875 32.53125 13.40625 34.734375 13.40625 38.40625 
C 13.40625 43.1875 17.703125 46.28125 24.5 46.28125 
C 31.203125 46.28125 34.796875 43.390625 35 37.921875 
z
" id="Nimbus_Sans_L_Regular-115"/>
      <path d="M 9.296875 -21.5 
C 19.296875 -8.34375 25.59375 9.9375 25.59375 25.6875 
C 25.59375 41.5625 19.296875 59.84375 9.296875 73 
L 3.796875 73 
C 12.59375 58.640625 17.5 41.765625 17.5 25.6875 
C 17.5 9.734375 12.59375 -7.25 3.796875 -21.5 
z
" id="Nimbus_Sans_L_Regular-41"/>
     </defs>
     <g transform="translate(165.371928 333.405988)scale(0.2 -0.2)">
      <use transform="scale(0.996264)" xlink:href="#Nimbus_Sans_L_Regular-84"/>
      <use transform="translate(60.871631 0)scale(0.996264)" xlink:href="#Nimbus_Sans_L_Regular-105"/>
      <use transform="translate(82.988415 0)scale(0.996264)" xlink:href="#Nimbus_Sans_L_Regular-109"/>
      <use transform="translate(165.976845 0)scale(0.996264)" xlink:href="#Nimbus_Sans_L_Regular-101"/>
      <use transform="translate(249.063692 0)scale(0.996264)" xlink:href="#Nimbus_Sans_L_Regular-40"/>
      <use transform="translate(282.238922 0)scale(0.996264)" xlink:href="#Nimbus_Sans_L_Regular-121"/>
      <use transform="translate(330.060111 0)scale(0.996264)" xlink:href="#Nimbus_Sans_L_Regular-101"/>
      <use transform="translate(385.451788 0)scale(0.996264)" xlink:href="#Nimbus_Sans_L_Regular-97"/>
      <use transform="translate(440.843465 0)scale(0.996264)" xlink:href="#Nimbus_Sans_L_Regular-114"/>
      <use transform="translate(474.018695 0)scale(0.996264)" xlink:href="#Nimbus_Sans_L_Regular-115"/>
      <use transform="translate(523.831895 0)scale(0.996264)" xlink:href="#Nimbus_Sans_L_Regular-41"/>
     </g>
    </g>
   </g>
   <g id="matplotlib.axis_2">
    <g id="ytick_1">
     <g id="line2d_4">
      <defs>
       <path d="M 0 0 
L -3.5 0 
" id="mc5c39a43b1" style="stroke:#000000;stroke-width:0.8;"/>
      </defs>
      <g>
       <use style="stroke:#000000;stroke-width:0.8;" x="91.876191" xlink:href="#mc5c39a43b1" y="277.962171"/>
      </g>
     </g>
     <g id="text_5">
      <!-- $0$ -->
      <g transform="translate(75.738095 285.060491)scale(0.2 -0.2)">
       <use transform="scale(0.996264)" xlink:href="#CMR17-48"/>
      </g>
     </g>
    </g>
    <g id="ytick_2">
     <g id="line2d_5">
      <g>
       <use style="stroke:#000000;stroke-width:0.8;" x="91.876191" xlink:href="#mc5c39a43b1" y="205.419332"/>
      </g>
     </g>
     <g id="text_6">
      <!-- $20$ -->
      <defs>
       <path d="M 41.703125 15.453125 
L 39.90625 15.453125 
C 38.90625 8.375 38.09375 7.171875 37.703125 6.5625 
C 37.203125 5.765625 30 5.765625 28.59375 5.765625 
L 9.40625 5.765625 
C 13 9.671875 20 16.75 28.5 24.953125 
C 34.59375 30.734375 41.703125 37.53125 41.703125 47.421875 
C 41.703125 59.21875 32.296875 66 21.796875 66 
C 10.796875 66 4.09375 56.3125 4.09375 47.34375 
C 4.09375 43.4375 7 42.9375 8.203125 42.9375 
C 9.203125 42.9375 12.203125 43.546875 12.203125 47.03125 
C 12.203125 50.109375 9.59375 51 8.203125 51 
C 7.59375 51 7 50.90625 6.59375 50.703125 
C 8.5 59.21875 14.296875 63.40625 20.40625 63.40625 
C 29.09375 63.40625 34.796875 56.515625 34.796875 47.421875 
C 34.796875 38.734375 29.703125 31.25 24 24.75 
L 4.09375 2.28125 
L 4.09375 0 
L 39.296875 0 
z
" id="CMR17-50"/>
      </defs>
      <g transform="translate(66.6 212.517652)scale(0.2 -0.2)">
       <use transform="scale(0.996264)" xlink:href="#CMR17-50"/>
       <use transform="translate(45.690477 0)scale(0.996264)" xlink:href="#CMR17-48"/>
      </g>
     </g>
    </g>
    <g id="ytick_3">
     <g id="line2d_6">
      <g>
       <use style="stroke:#000000;stroke-width:0.8;" x="91.876191" xlink:href="#mc5c39a43b1" y="132.876493"/>
      </g>
     </g>
     <g id="text_7">
      <!-- $40$ -->
      <defs>
       <path d="M 33.59375 64.40625 
C 33.59375 66.5 33.5 66.5 31.703125 66.5 
L 2 19.59375 
L 2 17 
L 27.796875 17 
L 27.796875 7.140625 
C 27.796875 3.5 27.59375 2.5 20.59375 2.5 
L 18.703125 2.5 
L 18.703125 0 
C 21.90625 0 27.296875 0 30.703125 0 
C 34.09375 0 39.5 0 42.703125 0 
L 42.703125 2.5 
L 40.796875 2.5 
C 33.796875 2.5 33.59375 3.5 33.59375 7.140625 
L 33.59375 17 
L 43.796875 17 
L 43.796875 19.59375 
L 33.59375 19.59375 
z
M 28.09375 57.859375 
L 28.09375 19.59375 
L 4 19.59375 
z
" id="CMR17-52"/>
      </defs>
      <g transform="translate(66.6 139.974814)scale(0.2 -0.2)">
       <use transform="scale(0.996264)" xlink:href="#CMR17-52"/>
       <use transform="translate(45.690477 0)scale(0.996264)" xlink:href="#CMR17-48"/>
      </g>
     </g>
    </g>
    <g id="ytick_4">
     <g id="line2d_7">
      <g>
       <use style="stroke:#000000;stroke-width:0.8;" x="91.876191" xlink:href="#mc5c39a43b1" y="60.333655"/>
      </g>
     </g>
     <g id="text_8">
      <!-- $60$ -->
      <defs>
       <path d="M 10.59375 34 
C 10.59375 57.65625 21.796875 63 28.296875 63 
C 30.40625 63 35.5 62.640625 37.5 59 
C 35.90625 59 32.90625 59 32.90625 55.515625 
C 32.90625 52.828125 35.09375 51.921875 36.5 51.921875 
C 37.40625 51.921875 40.09375 52.3125 40.09375 55.625 
C 40.09375 61.78125 35.09375 65.296875 28.203125 65.296875 
C 16.296875 65.296875 3.796875 52.96875 3.796875 31 
C 3.796875 3.953125 15.09375 -2 23.09375 -2 
C 32.796875 -2 42 6.671875 42 20.046875 
C 42 32.515625 33.90625 41.59375 23.703125 41.59375 
C 17.59375 41.59375 13.09375 37.609375 10.59375 30.625 
z
M 23.09375 0.390625 
C 10.796875 0.390625 10.796875 18.75 10.796875 22.4375 
C 10.796875 29.625 14.203125 40 23.5 40 
C 25.203125 40 30.09375 40 33.40625 33.125 
C 35.203125 29.21875 35.203125 25.140625 35.203125 20.140625 
C 35.203125 14.75 35.203125 10.78125 33.09375 6.78125 
C 30.90625 2.671875 27.703125 0.390625 23.09375 0.390625 
z
" id="CMR17-54"/>
      </defs>
      <g transform="translate(66.6 67.431975)scale(0.2 -0.2)">
       <use transform="scale(0.996264)" xlink:href="#CMR17-54"/>
       <use transform="translate(45.690477 0)scale(0.996264)" xlink:href="#CMR17-48"/>
      </g>
     </g>
    </g>
    <g id="text_9">
     <!-- Mean number of distinct mutations -->
     <defs>
      <path d="M 46.796875 -0.03125 
L 67.296875 61.171875 
L 67.296875 -0.03125 
L 76.09375 -0.03125 
L 76.09375 73 
L 63.203125 73 
L 42 9.390625 
L 20.40625 73 
L 7.5 73 
L 7.5 -0.03125 
L 16.296875 -0.03125 
L 16.296875 61.171875 
L 37 -0.03125 
z
" id="Nimbus_Sans_L_Regular-77"/>
      <path d="M 7 52.484375 
L 7 0 
L 15.40625 0 
L 15.40625 28.953125 
C 15.40625 39.671875 21 46.6875 29.59375 46.6875 
C 36.203125 46.6875 40.40625 42.671875 40.40625 36.359375 
L 40.40625 0 
L 48.703125 0 
L 48.703125 39.671875 
C 48.703125 48.390625 42.203125 54 32.09375 54 
C 24.296875 54 19.296875 50.984375 14.703125 43.6875 
L 14.703125 52.484375 
z
" id="Nimbus_Sans_L_Regular-110"/>
      <path d="M 48.203125 0.515625 
L 48.203125 53 
L 39.90625 53 
L 39.90625 23.109375 
C 39.90625 12.34375 34.296875 5.3125 25.59375 5.3125 
C 19 5.3125 14.796875 9.328125 14.796875 15.671875 
L 14.796875 53 
L 6.5 53 
L 6.5 12.375 
C 6.5 3.625 13 -2 23.203125 -2 
C 30.90625 -2 35.796875 0.703125 40.703125 7.625 
L 40.703125 0.515625 
z
" id="Nimbus_Sans_L_Regular-117"/>
      <path d="M 5.40625 73 
L 5.40625 -0.03125 
L 12.90625 -0.03125 
L 12.90625 7 
C 16.90625 0.890625 22.203125 -2 29.5 -2 
C 43.296875 -2 52.296875 9.25 52.296875 26.59375 
C 52.296875 43.53125 43.703125 54 29.90625 54 
C 22.703125 54 17.59375 51.28125 13.703125 45.390625 
L 13.703125 73 
z
M 28.296875 46.1875 
C 37.59375 46.1875 43.59375 38.125 43.59375 25.703125 
C 43.59375 13.859375 37.40625 5.8125 28.296875 5.8125 
C 19.5 5.8125 13.703125 13.765625 13.703125 26 
C 13.703125 38.234375 19.5 46.1875 28.296875 46.1875 
z
" id="Nimbus_Sans_L_Regular-98"/>
      <path d="M 27.203125 54 
C 12.5 54 3.59375 43.53125 3.59375 25.984375 
C 3.59375 8.453125 12.40625 -2 27.296875 -2 
C 42 -2 51 8.453125 51 25.59375 
C 51 43.625 42.296875 54 27.203125 54 
z
M 27.296875 46.28125 
C 36.703125 46.28125 42.296875 38.625 42.296875 25.703125 
C 42.296875 13.453125 36.5 5.703125 27.296875 5.703125 
C 18 5.703125 12.296875 13.359375 12.296875 25.984375 
C 12.296875 38.53125 18 46.28125 27.296875 46.28125 
z
" id="Nimbus_Sans_L_Regular-111"/>
      <path d="M 25.796875 52 
L 17.09375 52 
L 17.09375 60.25 
C 17.09375 63.78125 19.09375 65.59375 22.90625 65.59375 
C 23.59375 65.59375 23.90625 65.59375 25.796875 65.59375 
L 25.796875 72.5 
C 23.90625 72.90625 22.796875 73 21.09375 73 
C 13.40625 73 8.796875 68.5625 8.796875 60.984375 
L 8.796875 52 
L 1.796875 52 
L 1.796875 45.1875 
L 8.796875 45.1875 
L 8.796875 -0.40625 
L 17.09375 -0.40625 
L 17.09375 45.1875 
L 25.796875 45.1875 
z
" id="Nimbus_Sans_L_Regular-102"/>
      <path d="M 49.5 73 
L 41.203125 73 
L 41.203125 45.890625 
C 37.703125 51.1875 32.09375 54 25.09375 54 
C 11.5 54 2.59375 43.140625 2.59375 26.484375 
C 2.59375 8.84375 11.296875 -2 25.40625 -2 
C 32.59375 -2 37.59375 0.703125 42.09375 7.203125 
L 42.09375 -0.03125 
L 49.5 -0.03125 
z
M 26.5 46.1875 
C 35.5 46.1875 41.203125 38.234375 41.203125 25.796875 
C 41.203125 13.765625 35.40625 5.8125 26.59375 5.8125 
C 17.40625 5.8125 11.296875 13.859375 11.296875 26 
C 11.296875 38.125 17.40625 46.1875 26.5 46.1875 
z
" id="Nimbus_Sans_L_Regular-100"/>
      <path d="M 25.40625 52.8125 
L 16.796875 52.8125 
L 16.796875 67 
L 8.5 67 
L 8.5 52.8125 
L 1.40625 52.8125 
L 1.40625 46 
L 8.5 46 
L 8.5 6.3125 
C 8.5 1 12.09375 -2 18.59375 -2 
C 20.59375 -2 22.59375 -1.8125 25.40625 -1.296875 
L 25.40625 5.71875 
C 24.296875 5.40625 23 5.3125 21.40625 5.3125 
C 17.796875 5.3125 16.796875 6.3125 16.796875 10.015625 
L 16.796875 46 
L 25.40625 46 
z
" id="Nimbus_Sans_L_Regular-116"/>
      <path d="M 47.09375 34.9375 
C 46.703125 40.03125 45.59375 43.328125 43.59375 46.21875 
C 40 51.109375 33.703125 54 26.40625 54 
C 12.296875 54 3.09375 42.84375 3.09375 25.5 
C 3.09375 8.65625 12.09375 -2 26.296875 -2 
C 38.796875 -2 46.703125 5.46875 47.703125 18.234375 
L 39.296875 18.234375 
C 37.90625 9.875 33.59375 5.703125 26.5 5.703125 
C 17.296875 5.703125 11.796875 13.171875 11.796875 25.5 
C 11.796875 38.53125 17.203125 46.28125 26.296875 46.28125 
C 33.296875 46.28125 37.703125 42.203125 38.703125 34.9375 
z
" id="Nimbus_Sans_L_Regular-99"/>
     </defs>
     <g transform="translate(37.076086 315.651631)rotate(-90)scale(0.2 -0.2)">
      <use transform="scale(0.996264)" xlink:href="#Nimbus_Sans_L_Regular-77"/>
      <use transform="translate(82.98843 0)scale(0.996264)" xlink:href="#Nimbus_Sans_L_Regular-101"/>
      <use transform="translate(138.380107 0)scale(0.996264)" xlink:href="#Nimbus_Sans_L_Regular-97"/>
      <use transform="translate(193.771784 0)scale(0.996264)" xlink:href="#Nimbus_Sans_L_Regular-110"/>
      <use transform="translate(276.858631 0)scale(0.996264)" xlink:href="#Nimbus_Sans_L_Regular-110"/>
      <use transform="translate(331.254211 0)scale(0.996264)" xlink:href="#Nimbus_Sans_L_Regular-117"/>
      <use transform="translate(386.645888 0)scale(0.996264)" xlink:href="#Nimbus_Sans_L_Regular-109"/>
      <use transform="translate(469.634318 0)scale(0.996264)" xlink:href="#Nimbus_Sans_L_Regular-98"/>
      <use transform="translate(525.025995 0)scale(0.996264)" xlink:href="#Nimbus_Sans_L_Regular-101"/>
      <use transform="translate(580.417672 0)scale(0.996264)" xlink:href="#Nimbus_Sans_L_Regular-114"/>
      <use transform="translate(641.288071 0)scale(0.996264)" xlink:href="#Nimbus_Sans_L_Regular-111"/>
      <use transform="translate(696.679748 0)scale(0.996264)" xlink:href="#Nimbus_Sans_L_Regular-102"/>
      <use transform="translate(752.070088 0)scale(0.996264)" xlink:href="#Nimbus_Sans_L_Regular-100"/>
      <use transform="translate(807.461764 0)scale(0.996264)" xlink:href="#Nimbus_Sans_L_Regular-105"/>
      <use transform="translate(829.578549 0)scale(0.996264)" xlink:href="#Nimbus_Sans_L_Regular-115"/>
      <use transform="translate(879.391749 0)scale(0.996264)" xlink:href="#Nimbus_Sans_L_Regular-116"/>
      <use transform="translate(907.086919 0)scale(0.996264)" xlink:href="#Nimbus_Sans_L_Regular-105"/>
      <use transform="translate(929.203703 0)scale(0.996264)" xlink:href="#Nimbus_Sans_L_Regular-110"/>
      <use transform="translate(984.59538 0)scale(0.996264)" xlink:href="#Nimbus_Sans_L_Regular-99"/>
      <use transform="translate(1034.408581 0)scale(0.996264)" xlink:href="#Nimbus_Sans_L_Regular-116"/>
      <use transform="translate(1089.79892 0)scale(0.996264)" xlink:href="#Nimbus_Sans_L_Regular-109"/>
      <use transform="translate(1171.791253 0)scale(0.996264)" xlink:href="#Nimbus_Sans_L_Regular-117"/>
      <use transform="translate(1227.18293 0)scale(0.996264)" xlink:href="#Nimbus_Sans_L_Regular-116"/>
      <use transform="translate(1254.8781 0)scale(0.996264)" xlink:href="#Nimbus_Sans_L_Regular-97"/>
      <use transform="translate(1310.269777 0)scale(0.996264)" xlink:href="#Nimbus_Sans_L_Regular-116"/>
      <use transform="translate(1337.964947 0)scale(0.996264)" xlink:href="#Nimbus_Sans_L_Regular-105"/>
      <use transform="translate(1360.081731 0)scale(0.996264)" xlink:href="#Nimbus_Sans_L_Regular-111"/>
      <use transform="translate(1415.473408 0)scale(0.996264)" xlink:href="#Nimbus_Sans_L_Regular-110"/>
      <use transform="translate(1470.865085 0)scale(0.996264)" xlink:href="#Nimbus_Sans_L_Regular-115"/>
     </g>
     <!--  per cell -->
     <defs>
      <path d="M 5.40625 -22 
L 13.796875 -22 
L 13.796875 5 
C 18.203125 -0.421875 23.09375 -2.8125 29.90625 -2.8125 
C 43.40625 -2.8125 52.296875 8.15625 52.296875 24.984375 
C 52.296875 42.71875 43.703125 53.8125 29.796875 53.8125 
C 22.703125 53.8125 17 50.59375 13.09375 44.390625 
L 13.09375 52.328125 
L 5.40625 52.328125 
z
M 28.40625 46 
C 37.59375 46 43.59375 37.8125 43.59375 25.1875 
C 43.59375 13.171875 37.5 5 28.40625 5 
C 19.59375 5 13.796875 13.078125 13.796875 25.5 
C 13.796875 37.921875 19.59375 46 28.40625 46 
z
" id="Nimbus_Sans_L_Regular-112"/>
      <path d="M 15.203125 73 
L 6.796875 73 
L 6.796875 -0.03125 
L 15.203125 -0.03125 
z
" id="Nimbus_Sans_L_Regular-108"/>
     </defs>
     <g transform="translate(58.356027 195.693082)rotate(-90)scale(0.2 -0.2)">
      <use transform="scale(0.996264)" xlink:href="#Nimbus_Sans_L_Regular-112"/>
      <use transform="translate(55.391677 0)scale(0.996264)" xlink:href="#Nimbus_Sans_L_Regular-101"/>
      <use transform="translate(110.783354 0)scale(0.996264)" xlink:href="#Nimbus_Sans_L_Regular-114"/>
      <use transform="translate(171.653753 0)scale(0.996264)" xlink:href="#Nimbus_Sans_L_Regular-99"/>
      <use transform="translate(221.466954 0)scale(0.996264)" xlink:href="#Nimbus_Sans_L_Regular-101"/>
      <use transform="translate(276.858631 0)scale(0.996264)" xlink:href="#Nimbus_Sans_L_Regular-108"/>
      <use transform="translate(298.975415 0)scale(0.996264)" xlink:href="#Nimbus_Sans_L_Regular-108"/>
     </g>
    </g>
   </g>
   <g id="line2d_8">
    <path clip-path="url(#pee2bc16a7d)" d="M 103.621321 277.962171 
L 115.366451 158.84683 
L 127.11158 133.877585 
L 138.85671 122.190933 
L 150.60184 112.2707 
L 162.34697 104.831432 
L 174.0921 96.304021 
L 185.83723 91.944197 
L 197.58236 86.797282 
L 209.327489 82.455593 
L 221.072619 77.39573 
L 232.817749 74.639103 
L 244.562879 70.982944 
L 256.308009 67.584312 
L 268.053139 65.139618 
L 279.798269 61.940479 
L 291.543398 59.415988 
L 303.288528 56.851599 
L 315.033658 54.914705 
L 326.778788 51.46892 
L 338.523918 49.205583 
" style="fill:none;stroke:#ff0000;stroke-linecap:square;stroke-width:1.5;"/>
    <defs>
     <path d="M 0 -5 
L -1.12257 -1.545085 
L -4.755283 -1.545085 
L -1.816356 0.59017 
L -2.938926 4.045085 
L -0 1.90983 
L 2.938926 4.045085 
L 1.816356 0.59017 
L 4.755283 -1.545085 
L 1.12257 -1.545085 
z
" id="m3515601997" style="stroke:#ff0000;stroke-linejoin:bevel;"/>
    </defs>
    <g clip-path="url(#pee2bc16a7d)">
     <use style="fill:#ff0000;stroke:#ff0000;stroke-linejoin:bevel;" x="103.621321" xlink:href="#m3515601997" y="277.962171"/>
     <use style="fill:#ff0000;stroke:#ff0000;stroke-linejoin:bevel;" x="115.366451" xlink:href="#m3515601997" y="158.84683"/>
     <use style="fill:#ff0000;stroke:#ff0000;stroke-linejoin:bevel;" x="127.11158" xlink:href="#m3515601997" y="133.877585"/>
     <use style="fill:#ff0000;stroke:#ff0000;stroke-linejoin:bevel;" x="138.85671" xlink:href="#m3515601997" y="122.190933"/>
     <use style="fill:#ff0000;stroke:#ff0000;stroke-linejoin:bevel;" x="150.60184" xlink:href="#m3515601997" y="112.2707"/>
     <use style="fill:#ff0000;stroke:#ff0000;stroke-linejoin:bevel;" x="162.34697" xlink:href="#m3515601997" y="104.831432"/>
     <use style="fill:#ff0000;stroke:#ff0000;stroke-linejoin:bevel;" x="174.0921" xlink:href="#m3515601997" y="96.304021"/>
     <use style="fill:#ff0000;stroke:#ff0000;stroke-linejoin:bevel;" x="185.83723" xlink:href="#m3515601997" y="91.944197"/>
     <use style="fill:#ff0000;stroke:#ff0000;stroke-linejoin:bevel;" x="197.58236" xlink:href="#m3515601997" y="86.797282"/>
     <use style="fill:#ff0000;stroke:#ff0000;stroke-linejoin:bevel;" x="209.327489" xlink:href="#m3515601997" y="82.455593"/>
     <use style="fill:#ff0000;stroke:#ff0000;stroke-linejoin:bevel;" x="221.072619" xlink:href="#m3515601997" y="77.39573"/>
     <use style="fill:#ff0000;stroke:#ff0000;stroke-linejoin:bevel;" x="232.817749" xlink:href="#m3515601997" y="74.639103"/>
     <use style="fill:#ff0000;stroke:#ff0000;stroke-linejoin:bevel;" x="244.562879" xlink:href="#m3515601997" y="70.982944"/>
     <use style="fill:#ff0000;stroke:#ff0000;stroke-linejoin:bevel;" x="256.308009" xlink:href="#m3515601997" y="67.584312"/>
     <use style="fill:#ff0000;stroke:#ff0000;stroke-linejoin:bevel;" x="268.053139" xlink:href="#m3515601997" y="65.139618"/>
     <use style="fill:#ff0000;stroke:#ff0000;stroke-linejoin:bevel;" x="279.798269" xlink:href="#m3515601997" y="61.940479"/>
     <use style="fill:#ff0000;stroke:#ff0000;stroke-linejoin:bevel;" x="291.543398" xlink:href="#m3515601997" y="59.415988"/>
     <use style="fill:#ff0000;stroke:#ff0000;stroke-linejoin:bevel;" x="303.288528" xlink:href="#m3515601997" y="56.851599"/>
     <use style="fill:#ff0000;stroke:#ff0000;stroke-linejoin:bevel;" x="315.033658" xlink:href="#m3515601997" y="54.914705"/>
     <use style="fill:#ff0000;stroke:#ff0000;stroke-linejoin:bevel;" x="326.778788" xlink:href="#m3515601997" y="51.46892"/>
     <use style="fill:#ff0000;stroke:#ff0000;stroke-linejoin:bevel;" x="338.523918" xlink:href="#m3515601997" y="49.205583"/>
    </g>
   </g>
   <g id="line2d_9">
    <path clip-path="url(#pee2bc16a7d)" d="M 103.621321 277.962171 
L 115.366451 170.225174 
L 127.11158 145.397387 
L 138.85671 130.014678 
L 150.60184 121.215232 
L 162.34697 113.888405 
L 174.0921 105.966727 
L 185.83723 101.02656 
L 197.58236 96.764668 
L 209.327489 92.350437 
L 221.072619 89.894862 
L 232.817749 84.766083 
L 244.562879 81.392841 
L 256.308009 79.724356 
L 268.053139 76.151621 
L 279.798269 73.750453 
L 291.543398 71.269488 
L 303.288528 69.379747 
L 315.033658 66.318439 
L 326.778788 64.907481 
L 338.523918 62.557093 
" style="fill:none;opacity:0.5;stroke:#404040;stroke-linecap:square;stroke-width:1.5;"/>
    <defs>
     <path d="M -5 5 
L 5 5 
L 5 -5 
L -5 -5 
z
" id="m77ceee7f27" style="stroke:#404040;stroke-linejoin:miter;"/>
    </defs>
    <g clip-path="url(#pee2bc16a7d)">
     <use style="fill:#404040;opacity:0.5;stroke:#404040;stroke-linejoin:miter;" x="103.621321" xlink:href="#m77ceee7f27" y="277.962171"/>
     <use style="fill:#404040;opacity:0.5;stroke:#404040;stroke-linejoin:miter;" x="115.366451" xlink:href="#m77ceee7f27" y="170.225174"/>
     <use style="fill:#404040;opacity:0.5;stroke:#404040;stroke-linejoin:miter;" x="127.11158" xlink:href="#m77ceee7f27" y="145.397387"/>
     <use style="fill:#404040;opacity:0.5;stroke:#404040;stroke-linejoin:miter;" x="138.85671" xlink:href="#m77ceee7f27" y="130.014678"/>
     <use style="fill:#404040;opacity:0.5;stroke:#404040;stroke-linejoin:miter;" x="150.60184" xlink:href="#m77ceee7f27" y="121.215232"/>
     <use style="fill:#404040;opacity:0.5;stroke:#404040;stroke-linejoin:miter;" x="162.34697" xlink:href="#m77ceee7f27" y="113.888405"/>
     <use style="fill:#404040;opacity:0.5;stroke:#404040;stroke-linejoin:miter;" x="174.0921" xlink:href="#m77ceee7f27" y="105.966727"/>
     <use style="fill:#404040;opacity:0.5;stroke:#404040;stroke-linejoin:miter;" x="185.83723" xlink:href="#m77ceee7f27" y="101.02656"/>
     <use style="fill:#404040;opacity:0.5;stroke:#404040;stroke-linejoin:miter;" x="197.58236" xlink:href="#m77ceee7f27" y="96.764668"/>
     <use style="fill:#404040;opacity:0.5;stroke:#404040;stroke-linejoin:miter;" x="209.327489" xlink:href="#m77ceee7f27" y="92.350437"/>
     <use style="fill:#404040;opacity:0.5;stroke:#404040;stroke-linejoin:miter;" x="221.072619" xlink:href="#m77ceee7f27" y="89.894862"/>
     <use style="fill:#404040;opacity:0.5;stroke:#404040;stroke-linejoin:miter;" x="232.817749" xlink:href="#m77ceee7f27" y="84.766083"/>
     <use style="fill:#404040;opacity:0.5;stroke:#404040;stroke-linejoin:miter;" x="244.562879" xlink:href="#m77ceee7f27" y="81.392841"/>
     <use style="fill:#404040;opacity:0.5;stroke:#404040;stroke-linejoin:miter;" x="256.308009" xlink:href="#m77ceee7f27" y="79.724356"/>
     <use style="fill:#404040;opacity:0.5;stroke:#404040;stroke-linejoin:miter;" x="268.053139" xlink:href="#m77ceee7f27" y="76.151621"/>
     <use style="fill:#404040;opacity:0.5;stroke:#404040;stroke-linejoin:miter;" x="279.798269" xlink:href="#m77ceee7f27" y="73.750453"/>
     <use style="fill:#404040;opacity:0.5;stroke:#404040;stroke-linejoin:miter;" x="291.543398" xlink:href="#m77ceee7f27" y="71.269488"/>
     <use style="fill:#404040;opacity:0.5;stroke:#404040;stroke-linejoin:miter;" x="303.288528" xlink:href="#m77ceee7f27" y="69.379747"/>
     <use style="fill:#404040;opacity:0.5;stroke:#404040;stroke-linejoin:miter;" x="315.033658" xlink:href="#m77ceee7f27" y="66.318439"/>
     <use style="fill:#404040;opacity:0.5;stroke:#404040;stroke-linejoin:miter;" x="326.778788" xlink:href="#m77ceee7f27" y="64.907481"/>
     <use style="fill:#404040;opacity:0.5;stroke:#404040;stroke-linejoin:miter;" x="338.523918" xlink:href="#m77ceee7f27" y="62.557093"/>
    </g>
   </g>
   <g id="line2d_10">
    <path clip-path="url(#pee2bc16a7d)" d="M 103.621321 277.962171 
L 115.366451 181.367754 
L 127.11158 158.386183 
L 138.85671 144.628433 
L 150.60184 135.585968 
L 162.34697 128.980943 
L 174.0921 121.748422 
L 185.83723 116.267811 
L 197.58236 112.089343 
L 209.327489 107.152803 
L 221.072619 103.217354 
L 232.817749 98.995361 
L 244.562879 95.204997 
L 256.308009 93.746886 
L 268.053139 91.276803 
L 279.798269 89.488622 
L 291.543398 86.848062 
L 303.288528 83.688822 
L 315.033658 81.940539 
L 326.778788 81.011991 
L 338.523918 77.450138 
" style="fill:none;opacity:0.5;stroke:#808080;stroke-linecap:square;stroke-width:1.5;"/>
    <defs>
     <path d="M 0 5 
C 1.326016 5 2.597899 4.473168 3.535534 3.535534 
C 4.473168 2.597899 5 1.326016 5 0 
C 5 -1.326016 4.473168 -2.597899 3.535534 -3.535534 
C 2.597899 -4.473168 1.326016 -5 0 -5 
C -1.326016 -5 -2.597899 -4.473168 -3.535534 -3.535534 
C -4.473168 -2.597899 -5 -1.326016 -5 0 
C -5 1.326016 -4.473168 2.597899 -3.535534 3.535534 
C -2.597899 4.473168 -1.326016 5 0 5 
z
" id="me3e1949c39" style="stroke:#808080;"/>
    </defs>
    <g clip-path="url(#pee2bc16a7d)">
     <use style="fill:#808080;opacity:0.5;stroke:#808080;" x="103.621321" xlink:href="#me3e1949c39" y="277.962171"/>
     <use style="fill:#808080;opacity:0.5;stroke:#808080;" x="115.366451" xlink:href="#me3e1949c39" y="181.367754"/>
     <use style="fill:#808080;opacity:0.5;stroke:#808080;" x="127.11158" xlink:href="#me3e1949c39" y="158.386183"/>
     <use style="fill:#808080;opacity:0.5;stroke:#808080;" x="138.85671" xlink:href="#me3e1949c39" y="144.628433"/>
     <use style="fill:#808080;opacity:0.5;stroke:#808080;" x="150.60184" xlink:href="#me3e1949c39" y="135.585968"/>
     <use style="fill:#808080;opacity:0.5;stroke:#808080;" x="162.34697" xlink:href="#me3e1949c39" y="128.980943"/>
     <use style="fill:#808080;opacity:0.5;stroke:#808080;" x="174.0921" xlink:href="#me3e1949c39" y="121.748422"/>
     <use style="fill:#808080;opacity:0.5;stroke:#808080;" x="185.83723" xlink:href="#me3e1949c39" y="116.267811"/>
     <use style="fill:#808080;opacity:0.5;stroke:#808080;" x="197.58236" xlink:href="#me3e1949c39" y="112.089343"/>
     <use style="fill:#808080;opacity:0.5;stroke:#808080;" x="209.327489" xlink:href="#me3e1949c39" y="107.152803"/>
     <use style="fill:#808080;opacity:0.5;stroke:#808080;" x="221.072619" xlink:href="#me3e1949c39" y="103.217354"/>
     <use style="fill:#808080;opacity:0.5;stroke:#808080;" x="232.817749" xlink:href="#me3e1949c39" y="98.995361"/>
     <use style="fill:#808080;opacity:0.5;stroke:#808080;" x="244.562879" xlink:href="#me3e1949c39" y="95.204997"/>
     <use style="fill:#808080;opacity:0.5;stroke:#808080;" x="256.308009" xlink:href="#me3e1949c39" y="93.746886"/>
     <use style="fill:#808080;opacity:0.5;stroke:#808080;" x="268.053139" xlink:href="#me3e1949c39" y="91.276803"/>
     <use style="fill:#808080;opacity:0.5;stroke:#808080;" x="279.798269" xlink:href="#me3e1949c39" y="89.488622"/>
     <use style="fill:#808080;opacity:0.5;stroke:#808080;" x="291.543398" xlink:href="#me3e1949c39" y="86.848062"/>
     <use style="fill:#808080;opacity:0.5;stroke:#808080;" x="303.288528" xlink:href="#me3e1949c39" y="83.688822"/>
     <use style="fill:#808080;opacity:0.5;stroke:#808080;" x="315.033658" xlink:href="#me3e1949c39" y="81.940539"/>
     <use style="fill:#808080;opacity:0.5;stroke:#808080;" x="326.778788" xlink:href="#me3e1949c39" y="81.011991"/>
     <use style="fill:#808080;opacity:0.5;stroke:#808080;" x="338.523918" xlink:href="#me3e1949c39" y="77.450138"/>
    </g>
   </g>
   <g id="line2d_11">
    <path clip-path="url(#pee2bc16a7d)" d="M 103.621321 277.962171 
L 115.366451 203.08708 
L 127.11158 180.341273 
L 138.85671 167.167493 
L 150.60184 157.472143 
L 162.34697 149.604872 
L 174.0921 144.58128 
L 185.83723 138.926566 
L 197.58236 135.13983 
L 209.327489 131.425637 
L 221.072619 126.518114 
L 232.817749 124.42888 
L 244.562879 120.058174 
L 256.308009 118.473113 
L 268.053139 116.478185 
L 279.798269 113.710675 
L 291.543398 111.61056 
L 303.288528 109.006272 
L 315.033658 107.972537 
L 326.778788 106.568833 
L 338.523918 103.717899 
" style="fill:none;opacity:0.5;stroke:#c0c0c0;stroke-linecap:square;stroke-width:1.5;"/>
    <defs>
     <path d="M -0 7.071068 
L 4.242641 0 
L -0 -7.071068 
L -4.242641 -0 
z
" id="medefeecd27" style="stroke:#c0c0c0;stroke-linejoin:miter;"/>
    </defs>
    <g clip-path="url(#pee2bc16a7d)">
     <use style="fill:#c0c0c0;opacity:0.5;stroke:#c0c0c0;stroke-linejoin:miter;" x="103.621321" xlink:href="#medefeecd27" y="277.962171"/>
     <use style="fill:#c0c0c0;opacity:0.5;stroke:#c0c0c0;stroke-linejoin:miter;" x="115.366451" xlink:href="#medefeecd27" y="203.08708"/>
     <use style="fill:#c0c0c0;opacity:0.5;stroke:#c0c0c0;stroke-linejoin:miter;" x="127.11158" xlink:href="#medefeecd27" y="180.341273"/>
     <use style="fill:#c0c0c0;opacity:0.5;stroke:#c0c0c0;stroke-linejoin:miter;" x="138.85671" xlink:href="#medefeecd27" y="167.167493"/>
     <use style="fill:#c0c0c0;opacity:0.5;stroke:#c0c0c0;stroke-linejoin:miter;" x="150.60184" xlink:href="#medefeecd27" y="157.472143"/>
     <use style="fill:#c0c0c0;opacity:0.5;stroke:#c0c0c0;stroke-linejoin:miter;" x="162.34697" xlink:href="#medefeecd27" y="149.604872"/>
     <use style="fill:#c0c0c0;opacity:0.5;stroke:#c0c0c0;stroke-linejoin:miter;" x="174.0921" xlink:href="#medefeecd27" y="144.58128"/>
     <use style="fill:#c0c0c0;opacity:0.5;stroke:#c0c0c0;stroke-linejoin:miter;" x="185.83723" xlink:href="#medefeecd27" y="138.926566"/>
     <use style="fill:#c0c0c0;opacity:0.5;stroke:#c0c0c0;stroke-linejoin:miter;" x="197.58236" xlink:href="#medefeecd27" y="135.13983"/>
     <use style="fill:#c0c0c0;opacity:0.5;stroke:#c0c0c0;stroke-linejoin:miter;" x="209.327489" xlink:href="#medefeecd27" y="131.425637"/>
     <use style="fill:#c0c0c0;opacity:0.5;stroke:#c0c0c0;stroke-linejoin:miter;" x="221.072619" xlink:href="#medefeecd27" y="126.518114"/>
     <use style="fill:#c0c0c0;opacity:0.5;stroke:#c0c0c0;stroke-linejoin:miter;" x="232.817749" xlink:href="#medefeecd27" y="124.42888"/>
     <use style="fill:#c0c0c0;opacity:0.5;stroke:#c0c0c0;stroke-linejoin:miter;" x="244.562879" xlink:href="#medefeecd27" y="120.058174"/>
     <use style="fill:#c0c0c0;opacity:0.5;stroke:#c0c0c0;stroke-linejoin:miter;" x="256.308009" xlink:href="#medefeecd27" y="118.473113"/>
     <use style="fill:#c0c0c0;opacity:0.5;stroke:#c0c0c0;stroke-linejoin:miter;" x="268.053139" xlink:href="#medefeecd27" y="116.478185"/>
     <use style="fill:#c0c0c0;opacity:0.5;stroke:#c0c0c0;stroke-linejoin:miter;" x="279.798269" xlink:href="#medefeecd27" y="113.710675"/>
     <use style="fill:#c0c0c0;opacity:0.5;stroke:#c0c0c0;stroke-linejoin:miter;" x="291.543398" xlink:href="#medefeecd27" y="111.61056"/>
     <use style="fill:#c0c0c0;opacity:0.5;stroke:#c0c0c0;stroke-linejoin:miter;" x="303.288528" xlink:href="#medefeecd27" y="109.006272"/>
     <use style="fill:#c0c0c0;opacity:0.5;stroke:#c0c0c0;stroke-linejoin:miter;" x="315.033658" xlink:href="#medefeecd27" y="107.972537"/>
     <use style="fill:#c0c0c0;opacity:0.5;stroke:#c0c0c0;stroke-linejoin:miter;" x="326.778788" xlink:href="#medefeecd27" y="106.568833"/>
     <use style="fill:#c0c0c0;opacity:0.5;stroke:#c0c0c0;stroke-linejoin:miter;" x="338.523918" xlink:href="#medefeecd27" y="103.717899"/>
    </g>
   </g>
   <g id="patch_3">
    <path d="M 91.876191 289.4 
L 91.876191 37.767754 
" style="fill:none;stroke:#000000;stroke-linecap:square;stroke-linejoin:miter;stroke-width:0.8;"/>
   </g>
   <g id="patch_4">
    <path d="M 350.269048 289.4 
L 350.269048 37.767754 
" style="fill:none;stroke:#000000;stroke-linecap:square;stroke-linejoin:miter;stroke-width:0.8;"/>
   </g>
   <g id="patch_5">
    <path d="M 91.876191 289.4 
L 350.269048 289.4 
" style="fill:none;stroke:#000000;stroke-linecap:square;stroke-linejoin:miter;stroke-width:0.8;"/>
   </g>
   <g id="patch_6">
    <path d="M 91.876191 37.767754 
L 350.269048 37.767754 
" style="fill:none;stroke:#000000;stroke-linecap:square;stroke-linejoin:miter;stroke-width:0.8;"/>
   </g>
   <g id="legend_1">
    <g id="patch_7">
     <path d="M 98.876191 102.648981 
L 166.0256 102.648981 
Q 168.0256 102.648981 168.0256 100.648981 
L 168.0256 44.767754 
Q 168.0256 42.767754 166.0256 42.767754 
L 98.876191 42.767754 
Q 96.876191 42.767754 96.876191 44.767754 
L 96.876191 100.648981 
Q 96.876191 102.648981 98.876191 102.648981 
z
" style="fill:#ffffff;opacity:0.8;stroke:#cccccc;stroke-linejoin:miter;"/>
    </g>
    <g id="line2d_12">
     <path d="M 100.876191 50.366074 
L 120.876191 50.366074 
" style="fill:none;opacity:0.5;stroke:#c0c0c0;stroke-linecap:square;stroke-width:1.5;"/>
    </g>
    <g id="line2d_13">
     <g>
      <use style="fill:#c0c0c0;opacity:0.5;stroke:#c0c0c0;stroke-linejoin:miter;" x="110.876191" xlink:href="#medefeecd27" y="50.366074"/>
     </g>
    </g>
    <g id="text_10">
     <!-- $f_s = 0.2$ -->
     <defs>
      <path d="M 44.59375 40.09375 
C 46.59375 40.09375 47.40625 40.09375 47.40625 42 
C 47.40625 43 46.59375 43 44.796875 43 
L 36.703125 43 
C 38.59375 53.578125 40 60.890625 40.796875 64.171875 
C 41.40625 66.640625 43.5 69 46.09375 69 
C 48.203125 69 50.296875 68.09375 51.296875 67.15625 
C 47.40625 66.75 46.203125 63.78125 46.203125 62.015625 
C 46.203125 59.953125 47.703125 58.734375 49.59375 58.734375 
C 51.59375 58.734375 54.59375 60.46875 54.59375 64.359375 
C 54.59375 68.640625 50.40625 71 46 71 
C 41.703125 71 37.5 67.71875 35.5 63.71875 
C 33.703125 60.125 32.703125 56.421875 30.40625 43 
L 23.703125 43 
C 21.796875 43 20.796875 43 20.796875 41.203125 
C 20.796875 40.09375 21.40625 40.09375 23.40625 40.09375 
L 29.796875 40.09375 
C 28 30.875 23.90625 8.46875 21.59375 -2.140625 
C 19.90625 -10.765625 18.40625 -18 13.40625 -18 
C 13.09375 -18 10.203125 -18 8.40625 -16.109375 
C 13.5 -15.703125 13.5 -11.34375 13.5 -11.25 
C 13.5 -9.265625 12 -8.078125 10.09375 -8.078125 
C 8.09375 -8.078125 5.09375 -9.765625 5.09375 -13.546875 
C 5.09375 -17.8125 9.5 -20 13.40625 -20 
C 23.59375 -20 27.796875 -1.84375 28.90625 3.109375 
C 30.703125 10.75 35.59375 37.125 36.09375 40.09375 
z
" id="CMMI12-102"/>
      <path d="M 22.796875 20 
C 24.5 19.703125 27.203125 19.109375 27.796875 19 
C 29.09375 18.625 33.59375 17.03125 33.59375 12.234375 
C 33.59375 9.15625 30.796875 1.09375 19.203125 1.09375 
C 17.09375 1.09375 9.59375 1.09375 7.59375 6.8125 
C 11.59375 6.3125 13.59375 9.421875 13.59375 11.640625 
C 13.59375 13.75 12.203125 14.84375 10.203125 14.84375 
C 8 14.84375 5.09375 13.140625 5.09375 8.625 
C 5.09375 2.703125 11.09375 -1 19.09375 -1 
C 34.296875 -1 38.796875 10.171875 38.796875 15.375 
C 38.796875 16.859375 38.796875 19.65625 35.59375 22.84375 
C 33.09375 25.25 30.703125 25.75 25.296875 26.84375 
C 22.59375 27.4375 18.296875 28.34375 18.296875 32.828125 
C 18.296875 34.828125 20.09375 42.015625 29.59375 42.015625 
C 33.796875 42.015625 37.90625 40.453125 38.90625 37 
C 34.5 37 34.296875 33.203125 34.296875 33.109375 
C 34.296875 31 36.203125 30.40625 37.09375 30.40625 
C 38.5 30.40625 41.296875 31.484375 41.296875 35.640625 
C 41.296875 39.765625 37.5 44 29.703125 44 
C 16.59375 44 13.09375 33.75 13.09375 29.671875 
C 13.09375 22.09375 20.5 20.5 22.796875 20 
z
" id="CMMI12-115"/>
      <path d="M 64.296875 31.515625 
C 65.796875 31.515625 67.296875 31.515625 67.296875 33.203125 
C 67.296875 35 65.59375 35 63.90625 35 
L 8 35 
C 6.296875 35 4.59375 35 4.59375 33.203125 
C 4.59375 31.515625 6.09375 31.515625 7.59375 31.515625 
z
M 63.90625 14 
C 65.59375 14 67.296875 14 67.296875 15.796875 
C 67.296875 17.484375 65.796875 17.484375 64.296875 17.484375 
L 7.59375 17.484375 
C 6.09375 17.484375 4.59375 17.484375 4.59375 15.796875 
C 4.59375 14 6.296875 14 8 14 
z
" id="CMR17-61"/>
      <path d="M 18.40625 4.796875 
C 18.40625 7.6875 16 9.671875 13.59375 9.671875 
C 10.703125 9.671875 8.703125 7.28125 8.703125 4.890625 
C 8.703125 2 11.09375 0 13.5 0 
C 16.40625 0 18.40625 2.390625 18.40625 4.796875 
z
" id="CMMI12-58"/>
     </defs>
     <g transform="translate(128.876191 53.866074)scale(0.1 -0.1)">
      <use transform="translate(0 14.943915)scale(0.996264)" xlink:href="#CMMI12-102"/>
      <use transform="translate(48.083238 0)scale(0.697382)" xlink:href="#CMMI12-115"/>
      <use transform="translate(108.420267 14.943915)scale(0.996264)" xlink:href="#CMR17-61"/>
      <use transform="translate(207.809064 14.943915)scale(0.996264)" xlink:href="#CMR17-48"/>
      <use transform="translate(253.499542 14.943915)scale(0.996264)" xlink:href="#CMMI12-58"/>
      <use transform="translate(280.596719 14.943915)scale(0.996264)" xlink:href="#CMR17-50"/>
     </g>
    </g>
    <g id="line2d_14">
     <path d="M 100.876191 64.586381 
L 120.876191 64.586381 
" style="fill:none;stroke:#ff0000;stroke-linecap:square;stroke-width:1.5;"/>
    </g>
    <g id="line2d_15">
     <g>
      <use style="fill:#ff0000;stroke:#ff0000;stroke-linejoin:bevel;" x="110.876191" xlink:href="#m3515601997" y="64.586381"/>
     </g>
    </g>
    <g id="text_11">
     <!-- $f_s = 0.8$ -->
     <defs>
      <path d="M 27.203125 35.375 
C 33.5 38.546875 39.90625 43.328125 39.90625 50.984375 
C 39.90625 60.015625 31.09375 65.296875 23 65.296875 
C 13.90625 65.296875 5.90625 58.734375 5.90625 49.6875 
C 5.90625 47.203125 6.5 42.921875 10.40625 39.140625 
C 11.40625 38.15625 15.59375 35.171875 18.296875 33.28125 
C 13.796875 30.984375 3.296875 25.53125 3.296875 14.59375 
C 3.296875 4.359375 13.09375 -2 22.796875 -2 
C 33.5 -2 42.5 5.65625 42.5 15.78125 
C 42.5 24.84375 36.40625 29.015625 32.40625 31.703125 
z
M 14.09375 44.09375 
C 13.296875 44.59375 9.296875 47.671875 9.296875 52.359375 
C 9.296875 58.421875 15.59375 63 22.796875 63 
C 30.703125 63 36.5 57.4375 36.5 50.96875 
C 36.5 41.703125 26.09375 36.421875 25.59375 36.421875 
C 25.5 36.421875 25.40625 36.421875 24.59375 37.03125 
z
M 32.5 23.734375 
C 34 22.640625 38.796875 19.375 38.796875 13.296875 
C 38.796875 5.953125 31.40625 0.390625 23 0.390625 
C 13.90625 0.390625 7 6.84375 7 14.6875 
C 7 22.546875 13.09375 29.09375 20 32.1875 
z
" id="CMR17-56"/>
     </defs>
     <g transform="translate(128.876191 68.086381)scale(0.1 -0.1)">
      <use transform="translate(0 14.943915)scale(0.996264)" xlink:href="#CMMI12-102"/>
      <use transform="translate(48.083238 0)scale(0.697382)" xlink:href="#CMMI12-115"/>
      <use transform="translate(108.420267 14.943915)scale(0.996264)" xlink:href="#CMR17-61"/>
      <use transform="translate(207.809064 14.943915)scale(0.996264)" xlink:href="#CMR17-48"/>
      <use transform="translate(253.499542 14.943915)scale(0.996264)" xlink:href="#CMMI12-58"/>
      <use transform="translate(280.596719 14.943915)scale(0.996264)" xlink:href="#CMR17-56"/>
     </g>
    </g>
    <g id="line2d_16">
     <path d="M 100.876191 78.806688 
L 120.876191 78.806688 
" style="fill:none;opacity:0.5;stroke:#404040;stroke-linecap:square;stroke-width:1.5;"/>
    </g>
    <g id="line2d_17">
     <g>
      <use style="fill:#404040;opacity:0.5;stroke:#404040;stroke-linejoin:miter;" x="110.876191" xlink:href="#m77ceee7f27" y="78.806688"/>
     </g>
    </g>
    <g id="text_12">
     <!-- $f_s = 0.6$ -->
     <g transform="translate(128.876191 82.306688)scale(0.1 -0.1)">
      <use transform="translate(0 14.943915)scale(0.996264)" xlink:href="#CMMI12-102"/>
      <use transform="translate(48.083238 0)scale(0.697382)" xlink:href="#CMMI12-115"/>
      <use transform="translate(108.420267 14.943915)scale(0.996264)" xlink:href="#CMR17-61"/>
      <use transform="translate(207.809064 14.943915)scale(0.996264)" xlink:href="#CMR17-48"/>
      <use transform="translate(253.499542 14.943915)scale(0.996264)" xlink:href="#CMMI12-58"/>
      <use transform="translate(280.596719 14.943915)scale(0.996264)" xlink:href="#CMR17-54"/>
     </g>
    </g>
    <g id="line2d_18">
     <path d="M 100.876191 93.026994 
L 120.876191 93.026994 
" style="fill:none;opacity:0.5;stroke:#808080;stroke-linecap:square;stroke-width:1.5;"/>
    </g>
    <g id="line2d_19">
     <g>
      <use style="fill:#808080;opacity:0.5;stroke:#808080;" x="110.876191" xlink:href="#me3e1949c39" y="93.026994"/>
     </g>
    </g>
    <g id="text_13">
     <!-- $f_s = 0.4$ -->
     <g transform="translate(128.876191 96.526994)scale(0.1 -0.1)">
      <use transform="translate(0 14.943915)scale(0.996264)" xlink:href="#CMMI12-102"/>
      <use transform="translate(48.083238 0)scale(0.697382)" xlink:href="#CMMI12-115"/>
      <use transform="translate(108.420267 14.943915)scale(0.996264)" xlink:href="#CMR17-61"/>
      <use transform="translate(207.809064 14.943915)scale(0.996264)" xlink:href="#CMR17-48"/>
      <use transform="translate(253.499542 14.943915)scale(0.996264)" xlink:href="#CMMI12-58"/>
      <use transform="translate(280.596719 14.943915)scale(0.996264)" xlink:href="#CMR17-52"/>
     </g>
    </g>
   </g>
  </g>
  <g id="axes_2">
   <g id="patch_8">
    <path d="M 436.507143 289.4 
L 694.9 289.4 
L 694.9 37.767754 
L 436.507143 37.767754 
z
" style="fill:#ffffff;"/>
   </g>
   <g id="matplotlib.axis_3">
    <g id="xtick_4">
     <g id="line2d_20">
      <g>
       <use style="stroke:#000000;stroke-width:0.8;" x="448.252273" xlink:href="#m296718d274" y="289.4"/>
      </g>
     </g>
     <g id="text_14">
      <!-- $0$ -->
      <g transform="translate(443.683225 310.596641)scale(0.2 -0.2)">
       <use transform="scale(0.996264)" xlink:href="#CMR17-48"/>
      </g>
     </g>
    </g>
    <g id="xtick_5">
     <g id="line2d_21">
      <g>
       <use style="stroke:#000000;stroke-width:0.8;" x="565.703572" xlink:href="#m296718d274" y="289.4"/>
      </g>
     </g>
     <g id="text_15">
      <!-- $50$ -->
      <g transform="translate(556.565476 310.596641)scale(0.2 -0.2)">
       <use transform="scale(0.996264)" xlink:href="#CMR17-53"/>
       <use transform="translate(45.690477 0)scale(0.996264)" xlink:href="#CMR17-48"/>
      </g>
     </g>
    </g>
    <g id="xtick_6">
     <g id="line2d_22">
      <g>
       <use style="stroke:#000000;stroke-width:0.8;" x="683.15487" xlink:href="#m296718d274" y="289.4"/>
      </g>
     </g>
     <g id="text_16">
      <!-- $100$ -->
      <g transform="translate(669.447727 310.596641)scale(0.2 -0.2)">
       <use transform="scale(0.996264)" xlink:href="#CMR17-49"/>
       <use transform="translate(45.690477 0)scale(0.996264)" xlink:href="#CMR17-48"/>
       <use transform="translate(91.380954 0)scale(0.996264)" xlink:href="#CMR17-48"/>
      </g>
     </g>
    </g>
    <g id="text_17">
     <!-- Time (years) -->
     <g transform="translate(510.00288 333.405988)scale(0.2 -0.2)">
      <use transform="scale(0.996264)" xlink:href="#Nimbus_Sans_L_Regular-84"/>
      <use transform="translate(60.871631 0)scale(0.996264)" xlink:href="#Nimbus_Sans_L_Regular-105"/>
      <use transform="translate(82.988415 0)scale(0.996264)" xlink:href="#Nimbus_Sans_L_Regular-109"/>
      <use transform="translate(165.976845 0)scale(0.996264)" xlink:href="#Nimbus_Sans_L_Regular-101"/>
      <use transform="translate(249.063692 0)scale(0.996264)" xlink:href="#Nimbus_Sans_L_Regular-40"/>
      <use transform="translate(282.238922 0)scale(0.996264)" xlink:href="#Nimbus_Sans_L_Regular-121"/>
      <use transform="translate(330.060111 0)scale(0.996264)" xlink:href="#Nimbus_Sans_L_Regular-101"/>
      <use transform="translate(385.451788 0)scale(0.996264)" xlink:href="#Nimbus_Sans_L_Regular-97"/>
      <use transform="translate(440.843465 0)scale(0.996264)" xlink:href="#Nimbus_Sans_L_Regular-114"/>
      <use transform="translate(474.018695 0)scale(0.996264)" xlink:href="#Nimbus_Sans_L_Regular-115"/>
      <use transform="translate(523.831895 0)scale(0.996264)" xlink:href="#Nimbus_Sans_L_Regular-41"/>
     </g>
    </g>
   </g>
   <g id="matplotlib.axis_4">
    <g id="ytick_5">
     <g id="line2d_23">
      <g>
       <use style="stroke:#000000;stroke-width:0.8;" x="436.507143" xlink:href="#mc5c39a43b1" y="277.962171"/>
      </g>
     </g>
     <g id="text_18">
      <!-- $0$ -->
      <g transform="translate(420.369048 285.060491)scale(0.2 -0.2)">
       <use transform="scale(0.996264)" xlink:href="#CMR17-48"/>
      </g>
     </g>
    </g>
    <g id="ytick_6">
     <g id="line2d_24">
      <g>
       <use style="stroke:#000000;stroke-width:0.8;" x="436.507143" xlink:href="#mc5c39a43b1" y="204.782532"/>
      </g>
     </g>
     <g id="text_19">
      <!-- $2$ -->
      <g transform="translate(420.369048 211.880852)scale(0.2 -0.2)">
       <use transform="scale(0.996264)" xlink:href="#CMR17-50"/>
      </g>
     </g>
    </g>
    <g id="ytick_7">
     <g id="line2d_25">
      <g>
       <use style="stroke:#000000;stroke-width:0.8;" x="436.507143" xlink:href="#mc5c39a43b1" y="131.602893"/>
      </g>
     </g>
     <g id="text_20">
      <!-- $4$ -->
      <g transform="translate(420.369048 138.701213)scale(0.2 -0.2)">
       <use transform="scale(0.996264)" xlink:href="#CMR17-52"/>
      </g>
     </g>
    </g>
    <g id="ytick_8">
     <g id="line2d_26">
      <g>
       <use style="stroke:#000000;stroke-width:0.8;" x="436.507143" xlink:href="#mc5c39a43b1" y="58.423254"/>
      </g>
     </g>
     <g id="text_21">
      <!-- $6$ -->
      <g transform="translate(420.369048 65.521574)scale(0.2 -0.2)">
       <use transform="scale(0.996264)" xlink:href="#CMR17-54"/>
      </g>
     </g>
    </g>
    <g id="text_22">
     <!-- Mean number of mutations -->
     <g transform="translate(390.845133 281.878766)rotate(-90)scale(0.2 -0.2)">
      <use transform="scale(0.996264)" xlink:href="#Nimbus_Sans_L_Regular-77"/>
      <use transform="translate(82.98843 0)scale(0.996264)" xlink:href="#Nimbus_Sans_L_Regular-101"/>
      <use transform="translate(138.380107 0)scale(0.996264)" xlink:href="#Nimbus_Sans_L_Regular-97"/>
      <use transform="translate(193.771784 0)scale(0.996264)" xlink:href="#Nimbus_Sans_L_Regular-110"/>
      <use transform="translate(276.858631 0)scale(0.996264)" xlink:href="#Nimbus_Sans_L_Regular-110"/>
      <use transform="translate(331.254211 0)scale(0.996264)" xlink:href="#Nimbus_Sans_L_Regular-117"/>
      <use transform="translate(386.645888 0)scale(0.996264)" xlink:href="#Nimbus_Sans_L_Regular-109"/>
      <use transform="translate(469.634318 0)scale(0.996264)" xlink:href="#Nimbus_Sans_L_Regular-98"/>
      <use transform="translate(525.025995 0)scale(0.996264)" xlink:href="#Nimbus_Sans_L_Regular-101"/>
      <use transform="translate(580.417672 0)scale(0.996264)" xlink:href="#Nimbus_Sans_L_Regular-114"/>
      <use transform="translate(641.288071 0)scale(0.996264)" xlink:href="#Nimbus_Sans_L_Regular-111"/>
      <use transform="translate(696.679748 0)scale(0.996264)" xlink:href="#Nimbus_Sans_L_Regular-102"/>
      <use transform="translate(752.070088 0)scale(0.996264)" xlink:href="#Nimbus_Sans_L_Regular-109"/>
      <use transform="translate(834.062421 0)scale(0.996264)" xlink:href="#Nimbus_Sans_L_Regular-117"/>
      <use transform="translate(889.454098 0)scale(0.996264)" xlink:href="#Nimbus_Sans_L_Regular-116"/>
      <use transform="translate(917.149268 0)scale(0.996264)" xlink:href="#Nimbus_Sans_L_Regular-97"/>
      <use transform="translate(972.540944 0)scale(0.996264)" xlink:href="#Nimbus_Sans_L_Regular-116"/>
      <use transform="translate(1000.236114 0)scale(0.996264)" xlink:href="#Nimbus_Sans_L_Regular-105"/>
      <use transform="translate(1022.352898 0)scale(0.996264)" xlink:href="#Nimbus_Sans_L_Regular-111"/>
      <use transform="translate(1077.744575 0)scale(0.996264)" xlink:href="#Nimbus_Sans_L_Regular-110"/>
      <use transform="translate(1133.136252 0)scale(0.996264)" xlink:href="#Nimbus_Sans_L_Regular-115"/>
     </g>
     <!--  per mtDNA -->
     <defs>
      <path d="M 8.90625 0 
L 37 0 
C 55.40625 0 66.703125 13.828125 66.703125 36.546875 
C 66.703125 59.171875 55.5 73 37 73 
L 8.90625 73 
z
M 18.203125 8.21875 
L 18.203125 64.78125 
L 35.40625 64.78125 
C 49.796875 64.78125 57.40625 55.0625 57.40625 36.453125 
C 57.40625 18.03125 49.796875 8.21875 35.40625 8.21875 
z
" id="Nimbus_Sans_L_Regular-68"/>
      <path d="M 64.59375 73 
L 55.796875 73 
L 55.796875 13.296875 
L 17.703125 73 
L 7.59375 73 
L 7.59375 -0.03125 
L 16.40625 -0.03125 
L 16.40625 59.171875 
L 54.09375 -0.03125 
L 64.59375 -0.03125 
z
" id="Nimbus_Sans_L_Regular-78"/>
      <path d="M 47.40625 22 
L 54.90625 0 
L 65.296875 0 
L 39.703125 73 
L 27.703125 73 
L 1.703125 0 
L 11.59375 0 
L 19.296875 22 
z
M 44.796875 29.8125 
L 21.59375 29.8125 
L 33.59375 63 
z
" id="Nimbus_Sans_L_Regular-65"/>
     </defs>
     <g transform="translate(412.125075 212.848597)rotate(-90)scale(0.2 -0.2)">
      <use transform="scale(0.996264)" xlink:href="#Nimbus_Sans_L_Regular-112"/>
      <use transform="translate(55.391677 0)scale(0.996264)" xlink:href="#Nimbus_Sans_L_Regular-101"/>
      <use transform="translate(110.783354 0)scale(0.996264)" xlink:href="#Nimbus_Sans_L_Regular-114"/>
      <use transform="translate(171.653753 0)scale(0.996264)" xlink:href="#Nimbus_Sans_L_Regular-109"/>
      <use transform="translate(254.642183 0)scale(0.996264)" xlink:href="#Nimbus_Sans_L_Regular-116"/>
      <use transform="translate(282.337353 0)scale(0.996264)" xlink:href="#Nimbus_Sans_L_Regular-68"/>
      <use transform="translate(354.267338 0)scale(0.996264)" xlink:href="#Nimbus_Sans_L_Regular-78"/>
      <use transform="translate(426.197323 0)scale(0.996264)" xlink:href="#Nimbus_Sans_L_Regular-65"/>
     </g>
    </g>
   </g>
   <g id="line2d_27">
    <path clip-path="url(#pcc17bfcb5d)" d="M 448.252273 277.962171 
L 459.997403 266.817204 
L 471.742533 255.415634 
L 483.487663 244.458776 
L 495.232792 232.839496 
L 506.977922 221.435473 
L 518.723052 210.285092 
L 530.468182 199.343711 
L 542.213312 187.774157 
L 553.958442 175.96761 
L 565.703572 164.357404 
L 577.448701 151.929818 
L 589.193831 140.916063 
L 600.938961 129.297917 
L 612.684091 117.113324 
L 624.429221 105.138428 
L 636.174351 93.77663 
L 647.919481 82.216589 
L 659.66461 71.253145 
L 671.40974 60.246744 
L 683.15487 49.205583 
" style="fill:none;stroke:#ff0000;stroke-linecap:square;stroke-width:1.5;"/>
    <g clip-path="url(#pcc17bfcb5d)">
     <use style="fill:#ff0000;stroke:#ff0000;stroke-linejoin:bevel;" x="448.252273" xlink:href="#m3515601997" y="277.962171"/>
     <use style="fill:#ff0000;stroke:#ff0000;stroke-linejoin:bevel;" x="459.997403" xlink:href="#m3515601997" y="266.817204"/>
     <use style="fill:#ff0000;stroke:#ff0000;stroke-linejoin:bevel;" x="471.742533" xlink:href="#m3515601997" y="255.415634"/>
     <use style="fill:#ff0000;stroke:#ff0000;stroke-linejoin:bevel;" x="483.487663" xlink:href="#m3515601997" y="244.458776"/>
     <use style="fill:#ff0000;stroke:#ff0000;stroke-linejoin:bevel;" x="495.232792" xlink:href="#m3515601997" y="232.839496"/>
     <use style="fill:#ff0000;stroke:#ff0000;stroke-linejoin:bevel;" x="506.977922" xlink:href="#m3515601997" y="221.435473"/>
     <use style="fill:#ff0000;stroke:#ff0000;stroke-linejoin:bevel;" x="518.723052" xlink:href="#m3515601997" y="210.285092"/>
     <use style="fill:#ff0000;stroke:#ff0000;stroke-linejoin:bevel;" x="530.468182" xlink:href="#m3515601997" y="199.343711"/>
     <use style="fill:#ff0000;stroke:#ff0000;stroke-linejoin:bevel;" x="542.213312" xlink:href="#m3515601997" y="187.774157"/>
     <use style="fill:#ff0000;stroke:#ff0000;stroke-linejoin:bevel;" x="553.958442" xlink:href="#m3515601997" y="175.96761"/>
     <use style="fill:#ff0000;stroke:#ff0000;stroke-linejoin:bevel;" x="565.703572" xlink:href="#m3515601997" y="164.357404"/>
     <use style="fill:#ff0000;stroke:#ff0000;stroke-linejoin:bevel;" x="577.448701" xlink:href="#m3515601997" y="151.929818"/>
     <use style="fill:#ff0000;stroke:#ff0000;stroke-linejoin:bevel;" x="589.193831" xlink:href="#m3515601997" y="140.916063"/>
     <use style="fill:#ff0000;stroke:#ff0000;stroke-linejoin:bevel;" x="600.938961" xlink:href="#m3515601997" y="129.297917"/>
     <use style="fill:#ff0000;stroke:#ff0000;stroke-linejoin:bevel;" x="612.684091" xlink:href="#m3515601997" y="117.113324"/>
     <use style="fill:#ff0000;stroke:#ff0000;stroke-linejoin:bevel;" x="624.429221" xlink:href="#m3515601997" y="105.138428"/>
     <use style="fill:#ff0000;stroke:#ff0000;stroke-linejoin:bevel;" x="636.174351" xlink:href="#m3515601997" y="93.77663"/>
     <use style="fill:#ff0000;stroke:#ff0000;stroke-linejoin:bevel;" x="647.919481" xlink:href="#m3515601997" y="82.216589"/>
     <use style="fill:#ff0000;stroke:#ff0000;stroke-linejoin:bevel;" x="659.66461" xlink:href="#m3515601997" y="71.253145"/>
     <use style="fill:#ff0000;stroke:#ff0000;stroke-linejoin:bevel;" x="671.40974" xlink:href="#m3515601997" y="60.246744"/>
     <use style="fill:#ff0000;stroke:#ff0000;stroke-linejoin:bevel;" x="683.15487" xlink:href="#m3515601997" y="49.205583"/>
    </g>
   </g>
   <g id="line2d_28">
    <path clip-path="url(#pcc17bfcb5d)" d="M 448.252273 277.962171 
L 459.997403 269.554196 
L 471.742533 260.712413 
L 483.487663 252.128441 
L 495.232792 243.695292 
L 506.977922 234.949484 
L 518.723052 226.689954 
L 530.468182 218.582748 
L 542.213312 209.903387 
L 553.958442 200.912719 
L 565.703572 192.309245 
L 577.448701 183.783525 
L 589.193831 175.008627 
L 600.938961 166.01785 
L 612.684091 157.521474 
L 624.429221 149.479837 
L 636.174351 141.48745 
L 647.919481 133.755765 
L 659.66461 124.963817 
L 671.40974 116.028107 
L 683.15487 108.026206 
" style="fill:none;opacity:0.5;stroke:#404040;stroke-linecap:square;stroke-width:1.5;"/>
    <g clip-path="url(#pcc17bfcb5d)">
     <use style="fill:#404040;opacity:0.5;stroke:#404040;stroke-linejoin:miter;" x="448.252273" xlink:href="#m77ceee7f27" y="277.962171"/>
     <use style="fill:#404040;opacity:0.5;stroke:#404040;stroke-linejoin:miter;" x="459.997403" xlink:href="#m77ceee7f27" y="269.554196"/>
     <use style="fill:#404040;opacity:0.5;stroke:#404040;stroke-linejoin:miter;" x="471.742533" xlink:href="#m77ceee7f27" y="260.712413"/>
     <use style="fill:#404040;opacity:0.5;stroke:#404040;stroke-linejoin:miter;" x="483.487663" xlink:href="#m77ceee7f27" y="252.128441"/>
     <use style="fill:#404040;opacity:0.5;stroke:#404040;stroke-linejoin:miter;" x="495.232792" xlink:href="#m77ceee7f27" y="243.695292"/>
     <use style="fill:#404040;opacity:0.5;stroke:#404040;stroke-linejoin:miter;" x="506.977922" xlink:href="#m77ceee7f27" y="234.949484"/>
     <use style="fill:#404040;opacity:0.5;stroke:#404040;stroke-linejoin:miter;" x="518.723052" xlink:href="#m77ceee7f27" y="226.689954"/>
     <use style="fill:#404040;opacity:0.5;stroke:#404040;stroke-linejoin:miter;" x="530.468182" xlink:href="#m77ceee7f27" y="218.582748"/>
     <use style="fill:#404040;opacity:0.5;stroke:#404040;stroke-linejoin:miter;" x="542.213312" xlink:href="#m77ceee7f27" y="209.903387"/>
     <use style="fill:#404040;opacity:0.5;stroke:#404040;stroke-linejoin:miter;" x="553.958442" xlink:href="#m77ceee7f27" y="200.912719"/>
     <use style="fill:#404040;opacity:0.5;stroke:#404040;stroke-linejoin:miter;" x="565.703572" xlink:href="#m77ceee7f27" y="192.309245"/>
     <use style="fill:#404040;opacity:0.5;stroke:#404040;stroke-linejoin:miter;" x="577.448701" xlink:href="#m77ceee7f27" y="183.783525"/>
     <use style="fill:#404040;opacity:0.5;stroke:#404040;stroke-linejoin:miter;" x="589.193831" xlink:href="#m77ceee7f27" y="175.008627"/>
     <use style="fill:#404040;opacity:0.5;stroke:#404040;stroke-linejoin:miter;" x="600.938961" xlink:href="#m77ceee7f27" y="166.01785"/>
     <use style="fill:#404040;opacity:0.5;stroke:#404040;stroke-linejoin:miter;" x="612.684091" xlink:href="#m77ceee7f27" y="157.521474"/>
     <use style="fill:#404040;opacity:0.5;stroke:#404040;stroke-linejoin:miter;" x="624.429221" xlink:href="#m77ceee7f27" y="149.479837"/>
     <use style="fill:#404040;opacity:0.5;stroke:#404040;stroke-linejoin:miter;" x="636.174351" xlink:href="#m77ceee7f27" y="141.48745"/>
     <use style="fill:#404040;opacity:0.5;stroke:#404040;stroke-linejoin:miter;" x="647.919481" xlink:href="#m77ceee7f27" y="133.755765"/>
     <use style="fill:#404040;opacity:0.5;stroke:#404040;stroke-linejoin:miter;" x="659.66461" xlink:href="#m77ceee7f27" y="124.963817"/>
     <use style="fill:#404040;opacity:0.5;stroke:#404040;stroke-linejoin:miter;" x="671.40974" xlink:href="#m77ceee7f27" y="116.028107"/>
     <use style="fill:#404040;opacity:0.5;stroke:#404040;stroke-linejoin:miter;" x="683.15487" xlink:href="#m77ceee7f27" y="108.026206"/>
    </g>
   </g>
   <g id="line2d_29">
    <path clip-path="url(#pcc17bfcb5d)" d="M 448.252273 277.962171 
L 459.997403 272.274905 
L 471.742533 266.553099 
L 483.487663 260.961882 
L 495.232792 255.375385 
L 506.977922 249.831186 
L 518.723052 243.94575 
L 530.468182 238.091379 
L 542.213312 232.003308 
L 553.958442 225.935289 
L 565.703572 220.325594 
L 577.448701 214.651245 
L 589.193831 208.656076 
L 600.938961 202.214439 
L 612.684091 196.957104 
L 624.429221 191.191719 
L 636.174351 185.488354 
L 647.919481 180.30215 
L 659.66461 174.377929 
L 671.40974 169.42524 
L 683.15487 163.772735 
" style="fill:none;opacity:0.5;stroke:#808080;stroke-linecap:square;stroke-width:1.5;"/>
    <g clip-path="url(#pcc17bfcb5d)">
     <use style="fill:#808080;opacity:0.5;stroke:#808080;" x="448.252273" xlink:href="#me3e1949c39" y="277.962171"/>
     <use style="fill:#808080;opacity:0.5;stroke:#808080;" x="459.997403" xlink:href="#me3e1949c39" y="272.274905"/>
     <use style="fill:#808080;opacity:0.5;stroke:#808080;" x="471.742533" xlink:href="#me3e1949c39" y="266.553099"/>
     <use style="fill:#808080;opacity:0.5;stroke:#808080;" x="483.487663" xlink:href="#me3e1949c39" y="260.961882"/>
     <use style="fill:#808080;opacity:0.5;stroke:#808080;" x="495.232792" xlink:href="#me3e1949c39" y="255.375385"/>
     <use style="fill:#808080;opacity:0.5;stroke:#808080;" x="506.977922" xlink:href="#me3e1949c39" y="249.831186"/>
     <use style="fill:#808080;opacity:0.5;stroke:#808080;" x="518.723052" xlink:href="#me3e1949c39" y="243.94575"/>
     <use style="fill:#808080;opacity:0.5;stroke:#808080;" x="530.468182" xlink:href="#me3e1949c39" y="238.091379"/>
     <use style="fill:#808080;opacity:0.5;stroke:#808080;" x="542.213312" xlink:href="#me3e1949c39" y="232.003308"/>
     <use style="fill:#808080;opacity:0.5;stroke:#808080;" x="553.958442" xlink:href="#me3e1949c39" y="225.935289"/>
     <use style="fill:#808080;opacity:0.5;stroke:#808080;" x="565.703572" xlink:href="#me3e1949c39" y="220.325594"/>
     <use style="fill:#808080;opacity:0.5;stroke:#808080;" x="577.448701" xlink:href="#me3e1949c39" y="214.651245"/>
     <use style="fill:#808080;opacity:0.5;stroke:#808080;" x="589.193831" xlink:href="#me3e1949c39" y="208.656076"/>
     <use style="fill:#808080;opacity:0.5;stroke:#808080;" x="600.938961" xlink:href="#me3e1949c39" y="202.214439"/>
     <use style="fill:#808080;opacity:0.5;stroke:#808080;" x="612.684091" xlink:href="#me3e1949c39" y="196.957104"/>
     <use style="fill:#808080;opacity:0.5;stroke:#808080;" x="624.429221" xlink:href="#me3e1949c39" y="191.191719"/>
     <use style="fill:#808080;opacity:0.5;stroke:#808080;" x="636.174351" xlink:href="#me3e1949c39" y="185.488354"/>
     <use style="fill:#808080;opacity:0.5;stroke:#808080;" x="647.919481" xlink:href="#me3e1949c39" y="180.30215"/>
     <use style="fill:#808080;opacity:0.5;stroke:#808080;" x="659.66461" xlink:href="#me3e1949c39" y="174.377929"/>
     <use style="fill:#808080;opacity:0.5;stroke:#808080;" x="671.40974" xlink:href="#me3e1949c39" y="169.42524"/>
     <use style="fill:#808080;opacity:0.5;stroke:#808080;" x="683.15487" xlink:href="#me3e1949c39" y="163.772735"/>
    </g>
   </g>
   <g id="line2d_30">
    <path clip-path="url(#pcc17bfcb5d)" d="M 448.252273 277.962171 
L 459.997403 275.166782 
L 471.742533 272.253427 
L 483.487663 269.28237 
L 495.232792 266.332755 
L 506.977922 263.64816 
L 518.723052 260.812705 
L 530.468182 258.096716 
L 542.213312 255.192289 
L 553.958442 252.400962 
L 565.703572 249.471508 
L 577.448701 246.553909 
L 589.193831 243.596134 
L 600.938961 240.77001 
L 612.684091 237.805795 
L 624.429221 234.974292 
L 636.174351 231.930604 
L 647.919481 229.260023 
L 659.66461 226.527715 
L 671.40974 223.74773 
L 683.15487 220.85311 
" style="fill:none;opacity:0.5;stroke:#c0c0c0;stroke-linecap:square;stroke-width:1.5;"/>
    <g clip-path="url(#pcc17bfcb5d)">
     <use style="fill:#c0c0c0;opacity:0.5;stroke:#c0c0c0;stroke-linejoin:miter;" x="448.252273" xlink:href="#medefeecd27" y="277.962171"/>
     <use style="fill:#c0c0c0;opacity:0.5;stroke:#c0c0c0;stroke-linejoin:miter;" x="459.997403" xlink:href="#medefeecd27" y="275.166782"/>
     <use style="fill:#c0c0c0;opacity:0.5;stroke:#c0c0c0;stroke-linejoin:miter;" x="471.742533" xlink:href="#medefeecd27" y="272.253427"/>
     <use style="fill:#c0c0c0;opacity:0.5;stroke:#c0c0c0;stroke-linejoin:miter;" x="483.487663" xlink:href="#medefeecd27" y="269.28237"/>
     <use style="fill:#c0c0c0;opacity:0.5;stroke:#c0c0c0;stroke-linejoin:miter;" x="495.232792" xlink:href="#medefeecd27" y="266.332755"/>
     <use style="fill:#c0c0c0;opacity:0.5;stroke:#c0c0c0;stroke-linejoin:miter;" x="506.977922" xlink:href="#medefeecd27" y="263.64816"/>
     <use style="fill:#c0c0c0;opacity:0.5;stroke:#c0c0c0;stroke-linejoin:miter;" x="518.723052" xlink:href="#medefeecd27" y="260.812705"/>
     <use style="fill:#c0c0c0;opacity:0.5;stroke:#c0c0c0;stroke-linejoin:miter;" x="530.468182" xlink:href="#medefeecd27" y="258.096716"/>
     <use style="fill:#c0c0c0;opacity:0.5;stroke:#c0c0c0;stroke-linejoin:miter;" x="542.213312" xlink:href="#medefeecd27" y="255.192289"/>
     <use style="fill:#c0c0c0;opacity:0.5;stroke:#c0c0c0;stroke-linejoin:miter;" x="553.958442" xlink:href="#medefeecd27" y="252.400962"/>
     <use style="fill:#c0c0c0;opacity:0.5;stroke:#c0c0c0;stroke-linejoin:miter;" x="565.703572" xlink:href="#medefeecd27" y="249.471508"/>
     <use style="fill:#c0c0c0;opacity:0.5;stroke:#c0c0c0;stroke-linejoin:miter;" x="577.448701" xlink:href="#medefeecd27" y="246.553909"/>
     <use style="fill:#c0c0c0;opacity:0.5;stroke:#c0c0c0;stroke-linejoin:miter;" x="589.193831" xlink:href="#medefeecd27" y="243.596134"/>
     <use style="fill:#c0c0c0;opacity:0.5;stroke:#c0c0c0;stroke-linejoin:miter;" x="600.938961" xlink:href="#medefeecd27" y="240.77001"/>
     <use style="fill:#c0c0c0;opacity:0.5;stroke:#c0c0c0;stroke-linejoin:miter;" x="612.684091" xlink:href="#medefeecd27" y="237.805795"/>
     <use style="fill:#c0c0c0;opacity:0.5;stroke:#c0c0c0;stroke-linejoin:miter;" x="624.429221" xlink:href="#medefeecd27" y="234.974292"/>
     <use style="fill:#c0c0c0;opacity:0.5;stroke:#c0c0c0;stroke-linejoin:miter;" x="636.174351" xlink:href="#medefeecd27" y="231.930604"/>
     <use style="fill:#c0c0c0;opacity:0.5;stroke:#c0c0c0;stroke-linejoin:miter;" x="647.919481" xlink:href="#medefeecd27" y="229.260023"/>
     <use style="fill:#c0c0c0;opacity:0.5;stroke:#c0c0c0;stroke-linejoin:miter;" x="659.66461" xlink:href="#medefeecd27" y="226.527715"/>
     <use style="fill:#c0c0c0;opacity:0.5;stroke:#c0c0c0;stroke-linejoin:miter;" x="671.40974" xlink:href="#medefeecd27" y="223.74773"/>
     <use style="fill:#c0c0c0;opacity:0.5;stroke:#c0c0c0;stroke-linejoin:miter;" x="683.15487" xlink:href="#medefeecd27" y="220.85311"/>
    </g>
   </g>
   <g id="patch_9">
    <path d="M 436.507143 289.4 
L 436.507143 37.767754 
" style="fill:none;stroke:#000000;stroke-linecap:square;stroke-linejoin:miter;stroke-width:0.8;"/>
   </g>
   <g id="patch_10">
    <path d="M 694.9 289.4 
L 694.9 37.767754 
" style="fill:none;stroke:#000000;stroke-linecap:square;stroke-linejoin:miter;stroke-width:0.8;"/>
   </g>
   <g id="patch_11">
    <path d="M 436.507143 289.4 
L 694.9 289.4 
" style="fill:none;stroke:#000000;stroke-linecap:square;stroke-linejoin:miter;stroke-width:0.8;"/>
   </g>
   <g id="patch_12">
    <path d="M 436.507143 37.767754 
L 694.9 37.767754 
" style="fill:none;stroke:#000000;stroke-linecap:square;stroke-linejoin:miter;stroke-width:0.8;"/>
   </g>
   <g id="legend_2">
    <g id="patch_13">
     <path d="M 443.507143 102.648981 
L 510.656552 102.648981 
Q 512.656552 102.648981 512.656552 100.648981 
L 512.656552 44.767754 
Q 512.656552 42.767754 510.656552 42.767754 
L 443.507143 42.767754 
Q 441.507143 42.767754 441.507143 44.767754 
L 441.507143 100.648981 
Q 441.507143 102.648981 443.507143 102.648981 
z
" style="fill:#ffffff;opacity:0.8;stroke:#cccccc;stroke-linejoin:miter;"/>
    </g>
    <g id="line2d_31">
     <path d="M 445.507143 50.366074 
L 465.507143 50.366074 
" style="fill:none;opacity:0.5;stroke:#c0c0c0;stroke-linecap:square;stroke-width:1.5;"/>
    </g>
    <g id="line2d_32">
     <g>
      <use style="fill:#c0c0c0;opacity:0.5;stroke:#c0c0c0;stroke-linejoin:miter;" x="455.507143" xlink:href="#medefeecd27" y="50.366074"/>
     </g>
    </g>
    <g id="text_23">
     <!-- $f_s = 0.2$ -->
     <g transform="translate(473.507143 53.866074)scale(0.1 -0.1)">
      <use transform="translate(0 14.943915)scale(0.996264)" xlink:href="#CMMI12-102"/>
      <use transform="translate(48.083238 0)scale(0.697382)" xlink:href="#CMMI12-115"/>
      <use transform="translate(108.420267 14.943915)scale(0.996264)" xlink:href="#CMR17-61"/>
      <use transform="translate(207.809064 14.943915)scale(0.996264)" xlink:href="#CMR17-48"/>
      <use transform="translate(253.499542 14.943915)scale(0.996264)" xlink:href="#CMMI12-58"/>
      <use transform="translate(280.596719 14.943915)scale(0.996264)" xlink:href="#CMR17-50"/>
     </g>
    </g>
    <g id="line2d_33">
     <path d="M 445.507143 64.586381 
L 465.507143 64.586381 
" style="fill:none;stroke:#ff0000;stroke-linecap:square;stroke-width:1.5;"/>
    </g>
    <g id="line2d_34">
     <g>
      <use style="fill:#ff0000;stroke:#ff0000;stroke-linejoin:bevel;" x="455.507143" xlink:href="#m3515601997" y="64.586381"/>
     </g>
    </g>
    <g id="text_24">
     <!-- $f_s = 0.8$ -->
     <g transform="translate(473.507143 68.086381)scale(0.1 -0.1)">
      <use transform="translate(0 14.943915)scale(0.996264)" xlink:href="#CMMI12-102"/>
      <use transform="translate(48.083238 0)scale(0.697382)" xlink:href="#CMMI12-115"/>
      <use transform="translate(108.420267 14.943915)scale(0.996264)" xlink:href="#CMR17-61"/>
      <use transform="translate(207.809064 14.943915)scale(0.996264)" xlink:href="#CMR17-48"/>
      <use transform="translate(253.499542 14.943915)scale(0.996264)" xlink:href="#CMMI12-58"/>
      <use transform="translate(280.596719 14.943915)scale(0.996264)" xlink:href="#CMR17-56"/>
     </g>
    </g>
    <g id="line2d_35">
     <path d="M 445.507143 78.806688 
L 465.507143 78.806688 
" style="fill:none;opacity:0.5;stroke:#404040;stroke-linecap:square;stroke-width:1.5;"/>
    </g>
    <g id="line2d_36">
     <g>
      <use style="fill:#404040;opacity:0.5;stroke:#404040;stroke-linejoin:miter;" x="455.507143" xlink:href="#m77ceee7f27" y="78.806688"/>
     </g>
    </g>
    <g id="text_25">
     <!-- $f_s = 0.6$ -->
     <g transform="translate(473.507143 82.306688)scale(0.1 -0.1)">
      <use transform="translate(0 14.943915)scale(0.996264)" xlink:href="#CMMI12-102"/>
      <use transform="translate(48.083238 0)scale(0.697382)" xlink:href="#CMMI12-115"/>
      <use transform="translate(108.420267 14.943915)scale(0.996264)" xlink:href="#CMR17-61"/>
      <use transform="translate(207.809064 14.943915)scale(0.996264)" xlink:href="#CMR17-48"/>
      <use transform="translate(253.499542 14.943915)scale(0.996264)" xlink:href="#CMMI12-58"/>
      <use transform="translate(280.596719 14.943915)scale(0.996264)" xlink:href="#CMR17-54"/>
     </g>
    </g>
    <g id="line2d_37">
     <path d="M 445.507143 93.026994 
L 465.507143 93.026994 
" style="fill:none;opacity:0.5;stroke:#808080;stroke-linecap:square;stroke-width:1.5;"/>
    </g>
    <g id="line2d_38">
     <g>
      <use style="fill:#808080;opacity:0.5;stroke:#808080;" x="455.507143" xlink:href="#me3e1949c39" y="93.026994"/>
     </g>
    </g>
    <g id="text_26">
     <!-- $f_s = 0.4$ -->
     <g transform="translate(473.507143 96.526994)scale(0.1 -0.1)">
      <use transform="translate(0 14.943915)scale(0.996264)" xlink:href="#CMMI12-102"/>
      <use transform="translate(48.083238 0)scale(0.697382)" xlink:href="#CMMI12-115"/>
      <use transform="translate(108.420267 14.943915)scale(0.996264)" xlink:href="#CMR17-61"/>
      <use transform="translate(207.809064 14.943915)scale(0.996264)" xlink:href="#CMR17-48"/>
      <use transform="translate(253.499542 14.943915)scale(0.996264)" xlink:href="#CMMI12-58"/>
      <use transform="translate(280.596719 14.943915)scale(0.996264)" xlink:href="#CMR17-52"/>
     </g>
    </g>
   </g>
  </g>
 </g>
 <defs>
  <clipPath id="pee2bc16a7d">
   <rect height="251.632246" width="258.392857" x="91.876191" y="37.767754"/>
  </clipPath>
  <clipPath id="pcc17bfcb5d">
   <rect height="251.632246" width="258.392857" x="436.507143" y="37.767754"/>
  </clipPath>
 </defs>
</svg>
