<?xml version="1.0" encoding="utf-8" standalone="no"?>
<!DOCTYPE svg PUBLIC "-//W3C//DTD SVG 1.1//EN"
  "http://www.w3.org/Graphics/SVG/1.1/DTD/svg11.dtd">
<!-- Created with matplotlib (http://matplotlib.org/) -->
<svg height="360pt" version="1.1" viewBox="0 0 720 360" width="720pt" xmlns="http://www.w3.org/2000/svg" xmlns:xlink="http://www.w3.org/1999/xlink">
 <defs>
  <style type="text/css">
*{stroke-linecap:butt;stroke-linejoin:round;}
  </style>
 </defs>
 <g id="figure_1">
  <g id="patch_1">
   <path d="M 0 360 
L 720 360 
L 720 0 
L 0 0 
z
" style="fill:#ffffff;"/>
  </g>
  <g id="axes_1">
   <g id="patch_2">
    <path d="M 95.756659 289.4 
L 349.650596 289.4 
L 349.650596 25.1 
L 95.756659 25.1 
z
" style="fill:#ffffff;"/>
   </g>
   <g id="matplotlib.axis_1">
    <g id="xtick_1">
     <g id="line2d_1">
      <defs>
       <path d="M 0 0 
L 0 3.5 
" id="ma1090a3160" style="stroke:#000000;stroke-width:0.8;"/>
      </defs>
      <g>
       <use style="stroke:#000000;stroke-width:0.8;" x="107.297292" xlink:href="#ma1090a3160" y="289.4"/>
      </g>
     </g>
     <g id="text_1">
      <!-- 0 -->
      <defs>
       <path d="M 27.5 71 
C 20.90625 71 14.90625 68.125 11.203125 63.21875 
C 6.59375 57.046875 4.296875 47.5625 4.296875 34.5 
C 4.296875 10.671875 12.296875 -2 27.5 -2 
C 42.5 -2 50.703125 10.671875 50.703125 33.90625 
C 50.703125 47.65625 48.5 56.84375 43.796875 63.21875 
C 40.09375 68.21875 34.203125 71 27.5 71 
z
M 27.5 63.1875 
C 37 63.1875 41.703125 53.625 41.703125 34.703125 
C 41.703125 14.671875 37.09375 5.3125 27.296875 5.3125 
C 18 5.3125 13.296875 15.078125 13.296875 34.40625 
C 13.296875 53.71875 18 63.1875 27.5 63.1875 
z
" id="Nimbus_Sans_L_Regular-48"/>
      </defs>
      <g transform="translate(101.758127 310.596641)scale(0.2 -0.2)">
       <use transform="scale(0.996264)" xlink:href="#Nimbus_Sans_L_Regular-48"/>
      </g>
     </g>
    </g>
    <g id="xtick_2">
     <g id="line2d_2">
      <g>
       <use style="stroke:#000000;stroke-width:0.8;" x="222.703627" xlink:href="#ma1090a3160" y="289.4"/>
      </g>
     </g>
     <g id="text_2">
      <!-- 50 -->
      <defs>
       <path d="M 47.59375 71 
L 11 71 
L 5.703125 32.59375 
L 13.796875 32.59375 
C 17.90625 37.484375 21.296875 39.1875 26.796875 39.1875 
C 36.296875 39.1875 42.296875 32.6875 42.296875 22.203125 
C 42.296875 12 36.40625 5.8125 26.796875 5.8125 
C 19.09375 5.8125 14.40625 9.703125 12.296875 17.703125 
L 3.5 17.703125 
C 4.703125 11.90625 5.703125 9.09375 7.796875 6.484375 
C 11.796875 1.09375 19 -2 27 -2 
C 41.296875 -2 51.296875 8.390625 51.296875 23.390625 
C 51.296875 37.40625 42 47 28.40625 47 
C 23.40625 47 19.40625 45.703125 15.296875 42.6875 
L 18.09375 62.296875 
L 47.59375 62.296875 
z
" id="Nimbus_Sans_L_Regular-53"/>
      </defs>
      <g transform="translate(211.625298 310.596641)scale(0.2 -0.2)">
       <use transform="scale(0.996264)" xlink:href="#Nimbus_Sans_L_Regular-53"/>
       <use transform="translate(55.391677 0)scale(0.996264)" xlink:href="#Nimbus_Sans_L_Regular-48"/>
      </g>
     </g>
    </g>
    <g id="xtick_3">
     <g id="line2d_3">
      <g>
       <use style="stroke:#000000;stroke-width:0.8;" x="338.109963" xlink:href="#ma1090a3160" y="289.4"/>
      </g>
     </g>
     <g id="text_3">
      <!-- 100 -->
      <defs>
       <path d="M 25.90625 50.59375 
L 25.90625 0 
L 34.703125 0 
L 34.703125 71.015625 
L 28.90625 71.015625 
C 25.796875 60.109375 23.796875 58.609375 10.203125 56.90625 
L 10.203125 50.59375 
z
" id="Nimbus_Sans_L_Regular-49"/>
      </defs>
      <g transform="translate(321.492469 310.596641)scale(0.2 -0.2)">
       <use transform="scale(0.996264)" xlink:href="#Nimbus_Sans_L_Regular-49"/>
       <use transform="translate(55.391677 0)scale(0.996264)" xlink:href="#Nimbus_Sans_L_Regular-48"/>
       <use transform="translate(110.783354 0)scale(0.996264)" xlink:href="#Nimbus_Sans_L_Regular-48"/>
      </g>
     </g>
    </g>
    <g id="text_4">
     <!-- Time (years) -->
     <defs>
      <path d="M 35.40625 64.78125 
L 59.296875 64.78125 
L 59.296875 73 
L 2.09375 73 
L 2.09375 64.78125 
L 26.09375 64.78125 
L 26.09375 -0.21875 
L 35.40625 -0.21875 
z
" id="Nimbus_Sans_L_Regular-84"/>
      <path d="M 15 52.484375 
L 6.703125 52.484375 
L 6.703125 0 
L 15 0 
z
M 15 73 
L 6.59375 73 
L 6.59375 62.484375 
L 15 62.484375 
z
" id="Nimbus_Sans_L_Regular-105"/>
      <path d="M 7 52.484375 
L 7 0 
L 15.40625 0 
L 15.40625 32.953125 
C 15.40625 40.578125 20.90625 46.6875 27.703125 46.6875 
C 33.90625 46.6875 37.40625 42.875 37.40625 36.15625 
L 37.40625 0 
L 45.796875 0 
L 45.796875 32.953125 
C 45.796875 40.578125 51.296875 46.6875 58.09375 46.6875 
C 64.203125 46.6875 67.796875 42.78125 67.796875 36.15625 
L 67.796875 0 
L 76.203125 0 
L 76.203125 39.375 
C 76.203125 48.78125 70.796875 54 61 54 
C 54 54 49.796875 51.890625 44.90625 45.984375 
C 41.796875 51.59375 37.59375 54 30.796875 54 
C 23.796875 54 19.203125 51.390625 14.703125 45.078125 
L 14.703125 52.484375 
z
" id="Nimbus_Sans_L_Regular-109"/>
      <path d="M 51.296875 23.890625 
C 51.296875 31.78125 50.703125 36.53125 49.203125 40.375 
C 45.796875 48.859375 37.796875 54 28 54 
C 13.40625 54 4 42.84375 4 25.703125 
C 4 8.546875 13.09375 -2 27.796875 -2 
C 39.796875 -2 48.09375 4.84375 50.203125 16.3125 
L 41.796875 16.3125 
C 39.5 9.34375 34.796875 5.703125 28.09375 5.703125 
C 22.796875 5.703125 18.296875 8.125 15.5 12.578125 
C 13.5 15.59375 12.796875 18.640625 12.703125 23.890625 
z
M 12.90625 31 
C 13.59375 40.265625 19.5 46.28125 27.90625 46.28125 
C 36.09375 46.28125 42.40625 39.53125 42.40625 31 
C 42.40625 31 42.40625 31 42.296875 31 
z
" id="Nimbus_Sans_L_Regular-101"/>
      <path d="M 23.59375 73 
C 13.59375 59.84375 7.296875 41.5625 7.296875 25.796875 
C 7.296875 9.9375 13.59375 -8.34375 23.59375 -21.5 
L 29.09375 -21.5 
C 20.296875 -7.140625 15.40625 9.734375 15.40625 25.796875 
C 15.40625 41.765625 20.296875 58.734375 29.09375 73 
z
" id="Nimbus_Sans_L_Regular-40"/>
      <path d="M 38.796875 52.5 
L 24.296875 11.53125 
L 10.90625 52.5 
L 2 52.5 
L 19.703125 -0.328125 
L 16.5 -8.65625 
C 15.203125 -12.375 13.296875 -13.78125 9.796875 -13.78125 
C 8.59375 -13.78125 7.203125 -13.578125 5.40625 -13.171875 
L 5.40625 -20.703125 
C 7.09375 -21.59375 8.796875 -22 11 -22 
C 13.703125 -22 16.59375 -21.09375 18.796875 -19.484375 
C 21.40625 -17.578125 22.90625 -15.359375 24.5 -11.140625 
L 47.796875 52.5 
z
" id="Nimbus_Sans_L_Regular-121"/>
      <path d="M 53.5 5.203125 
C 52.59375 5 52.203125 5 51.703125 5 
C 48.796875 5 47.203125 6.484375 47.203125 9.078125 
L 47.203125 39.765625 
C 47.203125 49.015625 40.40625 54 27.5 54 
C 19.90625 54 13.59375 51.8125 10.09375 47.90625 
C 7.703125 45.203125 6.703125 42.21875 6.5 37.03125 
L 14.90625 37.03125 
C 15.59375 43.390625 19.40625 46.28125 27.203125 46.28125 
C 34.703125 46.28125 38.90625 43.484375 38.90625 38.515625 
L 38.90625 36.328125 
C 38.90625 32.828125 36.796875 31.34375 30.203125 30.546875 
C 18.40625 29.0625 16.59375 28.65625 13.40625 27.359375 
C 7.296875 24.875 4.203125 20.1875 4.203125 13.421875 
C 4.203125 3.96875 10.796875 -2 21.40625 -2 
C 28 -2 33.296875 0.296875 39.203125 5.703125 
C 39.796875 0.390625 42.40625 -2 47.796875 -2 
C 49.5 -2 50.796875 -1.8125 53.5 -1.09375 
z
M 38.90625 16.75 
C 38.90625 13.953125 38.09375 12.265625 35.59375 9.984375 
C 32.203125 6.890625 28.09375 5.3125 23.203125 5.3125 
C 16.703125 5.3125 12.90625 8.390625 12.90625 13.65625 
C 12.90625 19.140625 16.59375 21.921875 25.5 23.21875 
C 34.296875 24.40625 36.09375 24.8125 38.90625 26.09375 
z
" id="Nimbus_Sans_L_Regular-97"/>
      <path d="M 6.90625 52.484375 
L 6.90625 0 
L 15.296875 0 
L 15.296875 27.203125 
C 15.296875 34.703125 17.203125 39.609375 21.203125 42.5 
C 23.796875 44.40625 26.296875 45 32.09375 45 
L 32.09375 53.625 
C 30.703125 53.8125 30 53.8125 28.90625 53.8125 
C 23.5 53.8125 19.40625 50.625 14.59375 42.90625 
L 14.59375 52.484375 
z
" id="Nimbus_Sans_L_Regular-114"/>
      <path d="M 43.796875 37.921875 
C 43.703125 48.203125 36.90625 54 24.796875 54 
C 12.59375 54 4.703125 47.71875 4.703125 38.0625 
C 4.703125 29.890625 8.90625 26.015625 21.296875 23.03125 
L 29.09375 21.140625 
C 34.90625 19.734375 37.203125 17.65625 37.203125 13.875 
C 37.203125 9 32.296875 5.703125 25 5.703125 
C 20.5 5.703125 16.703125 7 14.59375 9.1875 
C 13.296875 10.6875 12.703125 12.171875 12.203125 15.84375 
L 3.40625 15.84375 
C 3.796875 3.765625 10.59375 -2 24.296875 -2 
C 37.5 -2 45.90625 4.453125 45.90625 14.515625 
C 45.90625 22.28125 41.5 26.578125 31.09375 29.0625 
L 23.09375 30.953125 
C 16.296875 32.53125 13.40625 34.734375 13.40625 38.40625 
C 13.40625 43.1875 17.703125 46.28125 24.5 46.28125 
C 31.203125 46.28125 34.796875 43.390625 35 37.921875 
z
" id="Nimbus_Sans_L_Regular-115"/>
      <path d="M 9.296875 -21.5 
C 19.296875 -8.34375 25.59375 9.9375 25.59375 25.6875 
C 25.59375 41.5625 19.296875 59.84375 9.296875 73 
L 3.796875 73 
C 12.59375 58.640625 17.5 41.765625 17.5 25.6875 
C 17.5 9.734375 12.59375 -7.25 3.796875 -21.5 
z
" id="Nimbus_Sans_L_Regular-41"/>
     </defs>
     <g transform="translate(167.002936 333.405988)scale(0.2 -0.2)">
      <use transform="scale(0.996264)" xlink:href="#Nimbus_Sans_L_Regular-84"/>
      <use transform="translate(60.871631 0)scale(0.996264)" xlink:href="#Nimbus_Sans_L_Regular-105"/>
      <use transform="translate(82.988415 0)scale(0.996264)" xlink:href="#Nimbus_Sans_L_Regular-109"/>
      <use transform="translate(165.976845 0)scale(0.996264)" xlink:href="#Nimbus_Sans_L_Regular-101"/>
      <use transform="translate(249.063692 0)scale(0.996264)" xlink:href="#Nimbus_Sans_L_Regular-40"/>
      <use transform="translate(282.238922 0)scale(0.996264)" xlink:href="#Nimbus_Sans_L_Regular-121"/>
      <use transform="translate(330.060111 0)scale(0.996264)" xlink:href="#Nimbus_Sans_L_Regular-101"/>
      <use transform="translate(385.451788 0)scale(0.996264)" xlink:href="#Nimbus_Sans_L_Regular-97"/>
      <use transform="translate(440.843465 0)scale(0.996264)" xlink:href="#Nimbus_Sans_L_Regular-114"/>
      <use transform="translate(474.018695 0)scale(0.996264)" xlink:href="#Nimbus_Sans_L_Regular-115"/>
      <use transform="translate(523.831895 0)scale(0.996264)" xlink:href="#Nimbus_Sans_L_Regular-41"/>
     </g>
    </g>
   </g>
   <g id="matplotlib.axis_2">
    <g id="ytick_1">
     <g id="line2d_4">
      <defs>
       <path d="M 0 0 
L -3.5 0 
" id="m6ed6a61462" style="stroke:#000000;stroke-width:0.8;"/>
      </defs>
      <g>
       <use style="stroke:#000000;stroke-width:0.8;" x="95.756659" xlink:href="#m6ed6a61462" y="277.386364"/>
      </g>
     </g>
     <g id="text_5">
      <!-- 0 -->
      <g transform="translate(77.678329 284.484684)scale(0.2 -0.2)">
       <use transform="scale(0.996264)" xlink:href="#Nimbus_Sans_L_Regular-48"/>
      </g>
     </g>
    </g>
    <g id="ytick_2">
     <g id="line2d_5">
      <g>
       <use style="stroke:#000000;stroke-width:0.8;" x="95.756659" xlink:href="#m6ed6a61462" y="201.191549"/>
      </g>
     </g>
     <g id="text_6">
      <!-- 20 -->
      <defs>
       <path d="M 50.59375 8.71875 
L 13.296875 8.71875 
C 14.203125 14.53125 17.40625 18.234375 26.09375 23.34375 
L 36.09375 28.75 
C 46 34.15625 51.09375 41.453125 51.09375 50.171875 
C 51.09375 56.078125 48.703125 61.59375 44.5 65.390625 
C 40.296875 69.203125 35.09375 71 28.40625 71 
C 19.40625 71 12.703125 67.796875 8.796875 61.796875 
C 6.296875 57.984375 5.203125 53.578125 5 46.359375 
L 13.796875 46.359375 
C 14.09375 51.171875 14.703125 54.078125 15.90625 56.375 
C 18.203125 60.6875 22.796875 63.296875 28.09375 63.296875 
C 36.09375 63.296875 42.09375 57.578125 42.09375 49.96875 
C 42.09375 44.359375 38.796875 39.546875 32.5 35.953125 
L 23.296875 30.75 
C 8.5 22.34375 4.203125 15.625 3.40625 0 
L 50.59375 0 
z
" id="Nimbus_Sans_L_Regular-50"/>
      </defs>
      <g transform="translate(66.6 208.28987)scale(0.2 -0.2)">
       <use transform="scale(0.996264)" xlink:href="#Nimbus_Sans_L_Regular-50"/>
       <use transform="translate(55.391677 0)scale(0.996264)" xlink:href="#Nimbus_Sans_L_Regular-48"/>
      </g>
     </g>
    </g>
    <g id="ytick_3">
     <g id="line2d_6">
      <g>
       <use style="stroke:#000000;stroke-width:0.8;" x="95.756659" xlink:href="#m6ed6a61462" y="124.996735"/>
      </g>
     </g>
     <g id="text_7">
      <!-- 40 -->
      <defs>
       <path d="M 32.703125 17 
L 32.703125 0 
L 41.5 0 
L 41.5 17 
L 52 17 
L 52 24.90625 
L 41.5 24.90625 
L 41.5 71.015625 
L 35 71.015625 
L 2.796875 26.3125 
L 2.796875 17 
z
M 32.703125 24.90625 
L 10.5 24.90625 
L 32.703125 55.984375 
z
" id="Nimbus_Sans_L_Regular-52"/>
      </defs>
      <g transform="translate(66.6 132.095055)scale(0.2 -0.2)">
       <use transform="scale(0.996264)" xlink:href="#Nimbus_Sans_L_Regular-52"/>
       <use transform="translate(55.391677 0)scale(0.996264)" xlink:href="#Nimbus_Sans_L_Regular-48"/>
      </g>
     </g>
    </g>
    <g id="ytick_4">
     <g id="line2d_7">
      <g>
       <use style="stroke:#000000;stroke-width:0.8;" x="95.756659" xlink:href="#m6ed6a61462" y="48.801921"/>
      </g>
     </g>
     <g id="text_8">
      <!-- 60 -->
      <defs>
       <path d="M 49.796875 52.84375 
C 48.09375 64.234375 40.5 71 29.703125 71 
C 21.90625 71 14.90625 67.21875 10.703125 60.9375 
C 6.296875 54.0625 4.296875 45.375 4.296875 32.515625 
C 4.296875 20.640625 6.09375 13.0625 10.296875 6.78125 
C 14.09375 1.078125 20.296875 -2 28.09375 -2 
C 41.59375 -2 51.296875 8.09375 51.296875 22.109375 
C 51.296875 35.4375 42.296875 44.8125 29.59375 44.8125 
C 22.59375 44.8125 17.09375 42.109375 13.296875 36.90625 
C 13.40625 53.8125 19 63.1875 29.09375 63.1875 
C 35.296875 63.1875 39.59375 59.421875 41 52.84375 
z
M 28.5 37 
C 37 37 42.296875 31.03125 42.296875 21.40625 
C 42.296875 12.390625 36.296875 5.8125 28.203125 5.8125 
C 20 5.8125 13.796875 12.703125 13.796875 21.90625 
C 13.796875 30.828125 19.796875 37 28.5 37 
z
" id="Nimbus_Sans_L_Regular-54"/>
      </defs>
      <g transform="translate(66.6 55.900241)scale(0.2 -0.2)">
       <use transform="scale(0.996264)" xlink:href="#Nimbus_Sans_L_Regular-54"/>
       <use transform="translate(55.391677 0)scale(0.996264)" xlink:href="#Nimbus_Sans_L_Regular-48"/>
      </g>
     </g>
    </g>
    <g id="text_9">
     <!-- Mean number of distinct  -->
     <defs>
      <path d="M 46.796875 -0.03125 
L 67.296875 61.171875 
L 67.296875 -0.03125 
L 76.09375 -0.03125 
L 76.09375 73 
L 63.203125 73 
L 42 9.390625 
L 20.40625 73 
L 7.5 73 
L 7.5 -0.03125 
L 16.296875 -0.03125 
L 16.296875 61.171875 
L 37 -0.03125 
z
" id="Nimbus_Sans_L_Regular-77"/>
      <path d="M 7 52.484375 
L 7 0 
L 15.40625 0 
L 15.40625 28.953125 
C 15.40625 39.671875 21 46.6875 29.59375 46.6875 
C 36.203125 46.6875 40.40625 42.671875 40.40625 36.359375 
L 40.40625 0 
L 48.703125 0 
L 48.703125 39.671875 
C 48.703125 48.390625 42.203125 54 32.09375 54 
C 24.296875 54 19.296875 50.984375 14.703125 43.6875 
L 14.703125 52.484375 
z
" id="Nimbus_Sans_L_Regular-110"/>
      <path d="M 48.203125 0.515625 
L 48.203125 53 
L 39.90625 53 
L 39.90625 23.109375 
C 39.90625 12.34375 34.296875 5.3125 25.59375 5.3125 
C 19 5.3125 14.796875 9.328125 14.796875 15.671875 
L 14.796875 53 
L 6.5 53 
L 6.5 12.375 
C 6.5 3.625 13 -2 23.203125 -2 
C 30.90625 -2 35.796875 0.703125 40.703125 7.625 
L 40.703125 0.515625 
z
" id="Nimbus_Sans_L_Regular-117"/>
      <path d="M 5.40625 73 
L 5.40625 -0.03125 
L 12.90625 -0.03125 
L 12.90625 7 
C 16.90625 0.890625 22.203125 -2 29.5 -2 
C 43.296875 -2 52.296875 9.25 52.296875 26.59375 
C 52.296875 43.53125 43.703125 54 29.90625 54 
C 22.703125 54 17.59375 51.28125 13.703125 45.390625 
L 13.703125 73 
z
M 28.296875 46.1875 
C 37.59375 46.1875 43.59375 38.125 43.59375 25.703125 
C 43.59375 13.859375 37.40625 5.8125 28.296875 5.8125 
C 19.5 5.8125 13.703125 13.765625 13.703125 26 
C 13.703125 38.234375 19.5 46.1875 28.296875 46.1875 
z
" id="Nimbus_Sans_L_Regular-98"/>
      <path d="M 27.203125 54 
C 12.5 54 3.59375 43.53125 3.59375 25.984375 
C 3.59375 8.453125 12.40625 -2 27.296875 -2 
C 42 -2 51 8.453125 51 25.59375 
C 51 43.625 42.296875 54 27.203125 54 
z
M 27.296875 46.28125 
C 36.703125 46.28125 42.296875 38.625 42.296875 25.703125 
C 42.296875 13.453125 36.5 5.703125 27.296875 5.703125 
C 18 5.703125 12.296875 13.359375 12.296875 25.984375 
C 12.296875 38.53125 18 46.28125 27.296875 46.28125 
z
" id="Nimbus_Sans_L_Regular-111"/>
      <path d="M 25.796875 52 
L 17.09375 52 
L 17.09375 60.25 
C 17.09375 63.78125 19.09375 65.59375 22.90625 65.59375 
C 23.59375 65.59375 23.90625 65.59375 25.796875 65.59375 
L 25.796875 72.5 
C 23.90625 72.90625 22.796875 73 21.09375 73 
C 13.40625 73 8.796875 68.5625 8.796875 60.984375 
L 8.796875 52 
L 1.796875 52 
L 1.796875 45.1875 
L 8.796875 45.1875 
L 8.796875 -0.40625 
L 17.09375 -0.40625 
L 17.09375 45.1875 
L 25.796875 45.1875 
z
" id="Nimbus_Sans_L_Regular-102"/>
      <path d="M 49.5 73 
L 41.203125 73 
L 41.203125 45.890625 
C 37.703125 51.1875 32.09375 54 25.09375 54 
C 11.5 54 2.59375 43.140625 2.59375 26.484375 
C 2.59375 8.84375 11.296875 -2 25.40625 -2 
C 32.59375 -2 37.59375 0.703125 42.09375 7.203125 
L 42.09375 -0.03125 
L 49.5 -0.03125 
z
M 26.5 46.1875 
C 35.5 46.1875 41.203125 38.234375 41.203125 25.796875 
C 41.203125 13.765625 35.40625 5.8125 26.59375 5.8125 
C 17.40625 5.8125 11.296875 13.859375 11.296875 26 
C 11.296875 38.125 17.40625 46.1875 26.5 46.1875 
z
" id="Nimbus_Sans_L_Regular-100"/>
      <path d="M 25.40625 52.8125 
L 16.796875 52.8125 
L 16.796875 67 
L 8.5 67 
L 8.5 52.8125 
L 1.40625 52.8125 
L 1.40625 46 
L 8.5 46 
L 8.5 6.3125 
C 8.5 1 12.09375 -2 18.59375 -2 
C 20.59375 -2 22.59375 -1.8125 25.40625 -1.296875 
L 25.40625 5.71875 
C 24.296875 5.40625 23 5.3125 21.40625 5.3125 
C 17.796875 5.3125 16.796875 6.3125 16.796875 10.015625 
L 16.796875 46 
L 25.40625 46 
z
" id="Nimbus_Sans_L_Regular-116"/>
      <path d="M 47.09375 34.9375 
C 46.703125 40.03125 45.59375 43.328125 43.59375 46.21875 
C 40 51.109375 33.703125 54 26.40625 54 
C 12.296875 54 3.09375 42.84375 3.09375 25.5 
C 3.09375 8.65625 12.09375 -2 26.296875 -2 
C 38.796875 -2 46.703125 5.46875 47.703125 18.234375 
L 39.296875 18.234375 
C 37.90625 9.875 33.59375 5.703125 26.5 5.703125 
C 17.296875 5.703125 11.796875 13.171875 11.796875 25.5 
C 11.796875 38.53125 17.203125 46.28125 26.296875 46.28125 
C 33.296875 46.28125 37.703125 42.203125 38.703125 34.9375 
z
" id="Nimbus_Sans_L_Regular-99"/>
     </defs>
     <g transform="translate(37.076086 263.460323)rotate(-90)scale(0.2 -0.2)">
      <use transform="scale(0.996264)" xlink:href="#Nimbus_Sans_L_Regular-77"/>
      <use transform="translate(82.98843 0)scale(0.996264)" xlink:href="#Nimbus_Sans_L_Regular-101"/>
      <use transform="translate(138.380107 0)scale(0.996264)" xlink:href="#Nimbus_Sans_L_Regular-97"/>
      <use transform="translate(193.771784 0)scale(0.996264)" xlink:href="#Nimbus_Sans_L_Regular-110"/>
      <use transform="translate(276.858631 0)scale(0.996264)" xlink:href="#Nimbus_Sans_L_Regular-110"/>
      <use transform="translate(331.254211 0)scale(0.996264)" xlink:href="#Nimbus_Sans_L_Regular-117"/>
      <use transform="translate(386.645888 0)scale(0.996264)" xlink:href="#Nimbus_Sans_L_Regular-109"/>
      <use transform="translate(469.634318 0)scale(0.996264)" xlink:href="#Nimbus_Sans_L_Regular-98"/>
      <use transform="translate(525.025995 0)scale(0.996264)" xlink:href="#Nimbus_Sans_L_Regular-101"/>
      <use transform="translate(580.417672 0)scale(0.996264)" xlink:href="#Nimbus_Sans_L_Regular-114"/>
      <use transform="translate(641.288071 0)scale(0.996264)" xlink:href="#Nimbus_Sans_L_Regular-111"/>
      <use transform="translate(696.679748 0)scale(0.996264)" xlink:href="#Nimbus_Sans_L_Regular-102"/>
      <use transform="translate(752.070088 0)scale(0.996264)" xlink:href="#Nimbus_Sans_L_Regular-100"/>
      <use transform="translate(807.461764 0)scale(0.996264)" xlink:href="#Nimbus_Sans_L_Regular-105"/>
      <use transform="translate(829.578549 0)scale(0.996264)" xlink:href="#Nimbus_Sans_L_Regular-115"/>
      <use transform="translate(879.391749 0)scale(0.996264)" xlink:href="#Nimbus_Sans_L_Regular-116"/>
      <use transform="translate(907.086919 0)scale(0.996264)" xlink:href="#Nimbus_Sans_L_Regular-105"/>
      <use transform="translate(929.203703 0)scale(0.996264)" xlink:href="#Nimbus_Sans_L_Regular-110"/>
      <use transform="translate(984.59538 0)scale(0.996264)" xlink:href="#Nimbus_Sans_L_Regular-99"/>
      <use transform="translate(1034.408581 0)scale(0.996264)" xlink:href="#Nimbus_Sans_L_Regular-116"/>
     </g>
     <!-- mutations per cell -->
     <defs>
      <path d="M 5.40625 -22 
L 13.796875 -22 
L 13.796875 5 
C 18.203125 -0.421875 23.09375 -2.8125 29.90625 -2.8125 
C 43.40625 -2.8125 52.296875 8.15625 52.296875 24.984375 
C 52.296875 42.71875 43.703125 53.8125 29.796875 53.8125 
C 22.703125 53.8125 17 50.59375 13.09375 44.390625 
L 13.09375 52.328125 
L 5.40625 52.328125 
z
M 28.40625 46 
C 37.59375 46 43.59375 37.8125 43.59375 25.1875 
C 43.59375 13.171875 37.5 5 28.40625 5 
C 19.59375 5 13.796875 13.078125 13.796875 25.5 
C 13.796875 37.921875 19.59375 46 28.40625 46 
z
" id="Nimbus_Sans_L_Regular-112"/>
      <path d="M 15.203125 73 
L 6.796875 73 
L 6.796875 -0.03125 
L 15.203125 -0.03125 
z
" id="Nimbus_Sans_L_Regular-108"/>
     </defs>
     <g transform="translate(58.356027 235.216635)rotate(-90)scale(0.2 -0.2)">
      <use transform="scale(0.996264)" xlink:href="#Nimbus_Sans_L_Regular-109"/>
      <use transform="translate(81.992333 0)scale(0.996264)" xlink:href="#Nimbus_Sans_L_Regular-117"/>
      <use transform="translate(137.38401 0)scale(0.996264)" xlink:href="#Nimbus_Sans_L_Regular-116"/>
      <use transform="translate(165.07918 0)scale(0.996264)" xlink:href="#Nimbus_Sans_L_Regular-97"/>
      <use transform="translate(220.470857 0)scale(0.996264)" xlink:href="#Nimbus_Sans_L_Regular-116"/>
      <use transform="translate(248.166027 0)scale(0.996264)" xlink:href="#Nimbus_Sans_L_Regular-105"/>
      <use transform="translate(270.282811 0)scale(0.996264)" xlink:href="#Nimbus_Sans_L_Regular-111"/>
      <use transform="translate(325.674488 0)scale(0.996264)" xlink:href="#Nimbus_Sans_L_Regular-110"/>
      <use transform="translate(381.066165 0)scale(0.996264)" xlink:href="#Nimbus_Sans_L_Regular-115"/>
      <use transform="translate(458.574535 0)scale(0.996264)" xlink:href="#Nimbus_Sans_L_Regular-112"/>
      <use transform="translate(513.966212 0)scale(0.996264)" xlink:href="#Nimbus_Sans_L_Regular-101"/>
      <use transform="translate(569.357889 0)scale(0.996264)" xlink:href="#Nimbus_Sans_L_Regular-114"/>
      <use transform="translate(630.228288 0)scale(0.996264)" xlink:href="#Nimbus_Sans_L_Regular-99"/>
      <use transform="translate(680.041489 0)scale(0.996264)" xlink:href="#Nimbus_Sans_L_Regular-101"/>
      <use transform="translate(735.433166 0)scale(0.996264)" xlink:href="#Nimbus_Sans_L_Regular-108"/>
      <use transform="translate(757.54995 0)scale(0.996264)" xlink:href="#Nimbus_Sans_L_Regular-108"/>
     </g>
    </g>
   </g>
   <g id="line2d_8">
    <path clip-path="url(#pb3c35d69ee)" d="M 107.297292 277.386364 
L 118.837926 152.274479 
L 130.378559 126.048224 
L 141.919193 113.773239 
L 153.459826 103.353598 
L 165.00046 95.53982 
L 176.541093 86.58312 
L 188.081727 82.003811 
L 199.62236 76.597789 
L 211.162994 72.037529 
L 222.703627 66.722941 
L 234.244261 63.827538 
L 245.784895 59.98732 
L 257.325528 56.417593 
L 268.866162 53.849827 
L 280.406795 50.489636 
L 291.947429 47.838056 
L 303.488062 45.14457 
L 315.028696 43.110168 
L 326.569329 39.490915 
L 338.109963 37.113636 
" style="fill:none;stroke:#ff0000;stroke-linecap:square;stroke-width:1.5;"/>
    <defs>
     <path d="M 0 -5 
L -5 5 
L 5 5 
z
" id="m09fa764d38" style="stroke:#ff0000;stroke-linejoin:miter;"/>
    </defs>
    <g clip-path="url(#pb3c35d69ee)">
     <use style="fill:#ff0000;stroke:#ff0000;stroke-linejoin:miter;" x="107.297292" xlink:href="#m09fa764d38" y="277.386364"/>
     <use style="fill:#ff0000;stroke:#ff0000;stroke-linejoin:miter;" x="118.837926" xlink:href="#m09fa764d38" y="152.274479"/>
     <use style="fill:#ff0000;stroke:#ff0000;stroke-linejoin:miter;" x="130.378559" xlink:href="#m09fa764d38" y="126.048224"/>
     <use style="fill:#ff0000;stroke:#ff0000;stroke-linejoin:miter;" x="141.919193" xlink:href="#m09fa764d38" y="113.773239"/>
     <use style="fill:#ff0000;stroke:#ff0000;stroke-linejoin:miter;" x="153.459826" xlink:href="#m09fa764d38" y="103.353598"/>
     <use style="fill:#ff0000;stroke:#ff0000;stroke-linejoin:miter;" x="165.00046" xlink:href="#m09fa764d38" y="95.53982"/>
     <use style="fill:#ff0000;stroke:#ff0000;stroke-linejoin:miter;" x="176.541093" xlink:href="#m09fa764d38" y="86.58312"/>
     <use style="fill:#ff0000;stroke:#ff0000;stroke-linejoin:miter;" x="188.081727" xlink:href="#m09fa764d38" y="82.003811"/>
     <use style="fill:#ff0000;stroke:#ff0000;stroke-linejoin:miter;" x="199.62236" xlink:href="#m09fa764d38" y="76.597789"/>
     <use style="fill:#ff0000;stroke:#ff0000;stroke-linejoin:miter;" x="211.162994" xlink:href="#m09fa764d38" y="72.037529"/>
     <use style="fill:#ff0000;stroke:#ff0000;stroke-linejoin:miter;" x="222.703627" xlink:href="#m09fa764d38" y="66.722941"/>
     <use style="fill:#ff0000;stroke:#ff0000;stroke-linejoin:miter;" x="234.244261" xlink:href="#m09fa764d38" y="63.827538"/>
     <use style="fill:#ff0000;stroke:#ff0000;stroke-linejoin:miter;" x="245.784895" xlink:href="#m09fa764d38" y="59.98732"/>
     <use style="fill:#ff0000;stroke:#ff0000;stroke-linejoin:miter;" x="257.325528" xlink:href="#m09fa764d38" y="56.417593"/>
     <use style="fill:#ff0000;stroke:#ff0000;stroke-linejoin:miter;" x="268.866162" xlink:href="#m09fa764d38" y="53.849827"/>
     <use style="fill:#ff0000;stroke:#ff0000;stroke-linejoin:miter;" x="280.406795" xlink:href="#m09fa764d38" y="50.489636"/>
     <use style="fill:#ff0000;stroke:#ff0000;stroke-linejoin:miter;" x="291.947429" xlink:href="#m09fa764d38" y="47.838056"/>
     <use style="fill:#ff0000;stroke:#ff0000;stroke-linejoin:miter;" x="303.488062" xlink:href="#m09fa764d38" y="45.14457"/>
     <use style="fill:#ff0000;stroke:#ff0000;stroke-linejoin:miter;" x="315.028696" xlink:href="#m09fa764d38" y="43.110168"/>
     <use style="fill:#ff0000;stroke:#ff0000;stroke-linejoin:miter;" x="326.569329" xlink:href="#m09fa764d38" y="39.490915"/>
     <use style="fill:#ff0000;stroke:#ff0000;stroke-linejoin:miter;" x="338.109963" xlink:href="#m09fa764d38" y="37.113636"/>
    </g>
   </g>
   <g id="line2d_9">
    <path clip-path="url(#pb3c35d69ee)" d="M 107.297292 277.386364 
L 118.837926 164.225635 
L 130.378559 138.14796 
L 141.919193 121.99085 
L 153.459826 112.748419 
L 165.00046 105.052742 
L 176.541093 96.732269 
L 188.081727 91.543402 
L 199.62236 87.066957 
L 211.162994 82.430502 
L 222.703627 79.851308 
L 234.244261 74.464334 
L 245.784895 70.921275 
L 257.325528 69.168795 
L 268.866162 65.4162 
L 280.406795 62.894152 
L 291.947429 60.288289 
L 303.488062 58.303414 
L 315.028696 55.087993 
L 326.569329 53.606004 
L 338.109963 51.137292 
" style="fill:none;opacity:0.5;stroke:#404040;stroke-linecap:square;stroke-width:1.5;"/>
    <defs>
     <path d="M -5 5 
L 5 5 
L 5 -5 
L -5 -5 
z
" id="mf509eb2005" style="stroke:#404040;stroke-linejoin:miter;"/>
    </defs>
    <g clip-path="url(#pb3c35d69ee)">
     <use style="fill:#404040;opacity:0.5;stroke:#404040;stroke-linejoin:miter;" x="107.297292" xlink:href="#mf509eb2005" y="277.386364"/>
     <use style="fill:#404040;opacity:0.5;stroke:#404040;stroke-linejoin:miter;" x="118.837926" xlink:href="#mf509eb2005" y="164.225635"/>
     <use style="fill:#404040;opacity:0.5;stroke:#404040;stroke-linejoin:miter;" x="130.378559" xlink:href="#mf509eb2005" y="138.14796"/>
     <use style="fill:#404040;opacity:0.5;stroke:#404040;stroke-linejoin:miter;" x="141.919193" xlink:href="#mf509eb2005" y="121.99085"/>
     <use style="fill:#404040;opacity:0.5;stroke:#404040;stroke-linejoin:miter;" x="153.459826" xlink:href="#mf509eb2005" y="112.748419"/>
     <use style="fill:#404040;opacity:0.5;stroke:#404040;stroke-linejoin:miter;" x="165.00046" xlink:href="#mf509eb2005" y="105.052742"/>
     <use style="fill:#404040;opacity:0.5;stroke:#404040;stroke-linejoin:miter;" x="176.541093" xlink:href="#mf509eb2005" y="96.732269"/>
     <use style="fill:#404040;opacity:0.5;stroke:#404040;stroke-linejoin:miter;" x="188.081727" xlink:href="#mf509eb2005" y="91.543402"/>
     <use style="fill:#404040;opacity:0.5;stroke:#404040;stroke-linejoin:miter;" x="199.62236" xlink:href="#mf509eb2005" y="87.066957"/>
     <use style="fill:#404040;opacity:0.5;stroke:#404040;stroke-linejoin:miter;" x="211.162994" xlink:href="#mf509eb2005" y="82.430502"/>
     <use style="fill:#404040;opacity:0.5;stroke:#404040;stroke-linejoin:miter;" x="222.703627" xlink:href="#mf509eb2005" y="79.851308"/>
     <use style="fill:#404040;opacity:0.5;stroke:#404040;stroke-linejoin:miter;" x="234.244261" xlink:href="#mf509eb2005" y="74.464334"/>
     <use style="fill:#404040;opacity:0.5;stroke:#404040;stroke-linejoin:miter;" x="245.784895" xlink:href="#mf509eb2005" y="70.921275"/>
     <use style="fill:#404040;opacity:0.5;stroke:#404040;stroke-linejoin:miter;" x="257.325528" xlink:href="#mf509eb2005" y="69.168795"/>
     <use style="fill:#404040;opacity:0.5;stroke:#404040;stroke-linejoin:miter;" x="268.866162" xlink:href="#mf509eb2005" y="65.4162"/>
     <use style="fill:#404040;opacity:0.5;stroke:#404040;stroke-linejoin:miter;" x="280.406795" xlink:href="#mf509eb2005" y="62.894152"/>
     <use style="fill:#404040;opacity:0.5;stroke:#404040;stroke-linejoin:miter;" x="291.947429" xlink:href="#mf509eb2005" y="60.288289"/>
     <use style="fill:#404040;opacity:0.5;stroke:#404040;stroke-linejoin:miter;" x="303.488062" xlink:href="#mf509eb2005" y="58.303414"/>
     <use style="fill:#404040;opacity:0.5;stroke:#404040;stroke-linejoin:miter;" x="315.028696" xlink:href="#mf509eb2005" y="55.087993"/>
     <use style="fill:#404040;opacity:0.5;stroke:#404040;stroke-linejoin:miter;" x="326.569329" xlink:href="#mf509eb2005" y="53.606004"/>
     <use style="fill:#404040;opacity:0.5;stroke:#404040;stroke-linejoin:miter;" x="338.109963" xlink:href="#mf509eb2005" y="51.137292"/>
    </g>
   </g>
   <g id="line2d_10">
    <path clip-path="url(#pb3c35d69ee)" d="M 107.297292 277.386364 
L 118.837926 175.929159 
L 130.378559 151.790642 
L 141.919193 137.340295 
L 153.459826 127.842611 
L 165.00046 120.905074 
L 176.541093 113.308451 
L 188.081727 107.551932 
L 199.62236 103.163111 
L 211.162994 97.978054 
L 222.703627 93.844485 
L 234.244261 89.409947 
L 245.784895 85.428768 
L 257.325528 83.897252 
L 268.866162 81.302819 
L 280.406795 79.424617 
L 291.947429 76.651125 
L 303.488062 73.332841 
L 315.028696 71.496546 
L 326.569329 70.521253 
L 338.109963 66.780087 
" style="fill:none;opacity:0.5;stroke:#808080;stroke-linecap:square;stroke-width:1.5;"/>
    <defs>
     <path d="M 0 5 
C 1.326016 5 2.597899 4.473168 3.535534 3.535534 
C 4.473168 2.597899 5 1.326016 5 0 
C 5 -1.326016 4.473168 -2.597899 3.535534 -3.535534 
C 2.597899 -4.473168 1.326016 -5 0 -5 
C -1.326016 -5 -2.597899 -4.473168 -3.535534 -3.535534 
C -4.473168 -2.597899 -5 -1.326016 -5 0 
C -5 1.326016 -4.473168 2.597899 -3.535534 3.535534 
C -2.597899 4.473168 -1.326016 5 0 5 
z
" id="m22c3d994a6" style="stroke:#808080;"/>
    </defs>
    <g clip-path="url(#pb3c35d69ee)">
     <use style="fill:#808080;opacity:0.5;stroke:#808080;" x="107.297292" xlink:href="#m22c3d994a6" y="277.386364"/>
     <use style="fill:#808080;opacity:0.5;stroke:#808080;" x="118.837926" xlink:href="#m22c3d994a6" y="175.929159"/>
     <use style="fill:#808080;opacity:0.5;stroke:#808080;" x="130.378559" xlink:href="#m22c3d994a6" y="151.790642"/>
     <use style="fill:#808080;opacity:0.5;stroke:#808080;" x="141.919193" xlink:href="#m22c3d994a6" y="137.340295"/>
     <use style="fill:#808080;opacity:0.5;stroke:#808080;" x="153.459826" xlink:href="#m22c3d994a6" y="127.842611"/>
     <use style="fill:#808080;opacity:0.5;stroke:#808080;" x="165.00046" xlink:href="#m22c3d994a6" y="120.905074"/>
     <use style="fill:#808080;opacity:0.5;stroke:#808080;" x="176.541093" xlink:href="#m22c3d994a6" y="113.308451"/>
     <use style="fill:#808080;opacity:0.5;stroke:#808080;" x="188.081727" xlink:href="#m22c3d994a6" y="107.551932"/>
     <use style="fill:#808080;opacity:0.5;stroke:#808080;" x="199.62236" xlink:href="#m22c3d994a6" y="103.163111"/>
     <use style="fill:#808080;opacity:0.5;stroke:#808080;" x="211.162994" xlink:href="#m22c3d994a6" y="97.978054"/>
     <use style="fill:#808080;opacity:0.5;stroke:#808080;" x="222.703627" xlink:href="#m22c3d994a6" y="93.844485"/>
     <use style="fill:#808080;opacity:0.5;stroke:#808080;" x="234.244261" xlink:href="#m22c3d994a6" y="89.409947"/>
     <use style="fill:#808080;opacity:0.5;stroke:#808080;" x="245.784895" xlink:href="#m22c3d994a6" y="85.428768"/>
     <use style="fill:#808080;opacity:0.5;stroke:#808080;" x="257.325528" xlink:href="#m22c3d994a6" y="83.897252"/>
     <use style="fill:#808080;opacity:0.5;stroke:#808080;" x="268.866162" xlink:href="#m22c3d994a6" y="81.302819"/>
     <use style="fill:#808080;opacity:0.5;stroke:#808080;" x="280.406795" xlink:href="#m22c3d994a6" y="79.424617"/>
     <use style="fill:#808080;opacity:0.5;stroke:#808080;" x="291.947429" xlink:href="#m22c3d994a6" y="76.651125"/>
     <use style="fill:#808080;opacity:0.5;stroke:#808080;" x="303.488062" xlink:href="#m22c3d994a6" y="73.332841"/>
     <use style="fill:#808080;opacity:0.5;stroke:#808080;" x="315.028696" xlink:href="#m22c3d994a6" y="71.496546"/>
     <use style="fill:#808080;opacity:0.5;stroke:#808080;" x="326.569329" xlink:href="#m22c3d994a6" y="70.521253"/>
     <use style="fill:#808080;opacity:0.5;stroke:#808080;" x="338.109963" xlink:href="#m22c3d994a6" y="66.780087"/>
    </g>
   </g>
   <g id="line2d_11">
    <path clip-path="url(#pb3c35d69ee)" d="M 107.297292 277.386364 
L 118.837926 198.741886 
L 130.378559 174.851002 
L 141.919193 161.014024 
L 153.459826 150.830587 
L 165.00046 142.567259 
L 176.541093 137.290768 
L 188.081727 131.351383 
L 199.62236 127.374013 
L 211.162994 123.472839 
L 222.703627 118.31826 
L 234.244261 116.123849 
L 245.784895 111.533111 
L 257.325528 109.868255 
L 268.866162 107.772897 
L 280.406795 104.866065 
L 291.947429 102.660225 
L 303.488062 99.924831 
L 315.028696 98.839055 
L 326.569329 97.364686 
L 338.109963 94.37023 
" style="fill:none;opacity:0.5;stroke:#c0c0c0;stroke-linecap:square;stroke-width:1.5;"/>
    <defs>
     <path d="M -0 7.071068 
L 4.242641 0 
L -0 -7.071068 
L -4.242641 -0 
z
" id="m479b2df8a5" style="stroke:#c0c0c0;stroke-linejoin:miter;"/>
    </defs>
    <g clip-path="url(#pb3c35d69ee)">
     <use style="fill:#c0c0c0;opacity:0.5;stroke:#c0c0c0;stroke-linejoin:miter;" x="107.297292" xlink:href="#m479b2df8a5" y="277.386364"/>
     <use style="fill:#c0c0c0;opacity:0.5;stroke:#c0c0c0;stroke-linejoin:miter;" x="118.837926" xlink:href="#m479b2df8a5" y="198.741886"/>
     <use style="fill:#c0c0c0;opacity:0.5;stroke:#c0c0c0;stroke-linejoin:miter;" x="130.378559" xlink:href="#m479b2df8a5" y="174.851002"/>
     <use style="fill:#c0c0c0;opacity:0.5;stroke:#c0c0c0;stroke-linejoin:miter;" x="141.919193" xlink:href="#m479b2df8a5" y="161.014024"/>
     <use style="fill:#c0c0c0;opacity:0.5;stroke:#c0c0c0;stroke-linejoin:miter;" x="153.459826" xlink:href="#m479b2df8a5" y="150.830587"/>
     <use style="fill:#c0c0c0;opacity:0.5;stroke:#c0c0c0;stroke-linejoin:miter;" x="165.00046" xlink:href="#m479b2df8a5" y="142.567259"/>
     <use style="fill:#c0c0c0;opacity:0.5;stroke:#c0c0c0;stroke-linejoin:miter;" x="176.541093" xlink:href="#m479b2df8a5" y="137.290768"/>
     <use style="fill:#c0c0c0;opacity:0.5;stroke:#c0c0c0;stroke-linejoin:miter;" x="188.081727" xlink:href="#m479b2df8a5" y="131.351383"/>
     <use style="fill:#c0c0c0;opacity:0.5;stroke:#c0c0c0;stroke-linejoin:miter;" x="199.62236" xlink:href="#m479b2df8a5" y="127.374013"/>
     <use style="fill:#c0c0c0;opacity:0.5;stroke:#c0c0c0;stroke-linejoin:miter;" x="211.162994" xlink:href="#m479b2df8a5" y="123.472839"/>
     <use style="fill:#c0c0c0;opacity:0.5;stroke:#c0c0c0;stroke-linejoin:miter;" x="222.703627" xlink:href="#m479b2df8a5" y="118.31826"/>
     <use style="fill:#c0c0c0;opacity:0.5;stroke:#c0c0c0;stroke-linejoin:miter;" x="234.244261" xlink:href="#m479b2df8a5" y="116.123849"/>
     <use style="fill:#c0c0c0;opacity:0.5;stroke:#c0c0c0;stroke-linejoin:miter;" x="245.784895" xlink:href="#m479b2df8a5" y="111.533111"/>
     <use style="fill:#c0c0c0;opacity:0.5;stroke:#c0c0c0;stroke-linejoin:miter;" x="257.325528" xlink:href="#m479b2df8a5" y="109.868255"/>
     <use style="fill:#c0c0c0;opacity:0.5;stroke:#c0c0c0;stroke-linejoin:miter;" x="268.866162" xlink:href="#m479b2df8a5" y="107.772897"/>
     <use style="fill:#c0c0c0;opacity:0.5;stroke:#c0c0c0;stroke-linejoin:miter;" x="280.406795" xlink:href="#m479b2df8a5" y="104.866065"/>
     <use style="fill:#c0c0c0;opacity:0.5;stroke:#c0c0c0;stroke-linejoin:miter;" x="291.947429" xlink:href="#m479b2df8a5" y="102.660225"/>
     <use style="fill:#c0c0c0;opacity:0.5;stroke:#c0c0c0;stroke-linejoin:miter;" x="303.488062" xlink:href="#m479b2df8a5" y="99.924831"/>
     <use style="fill:#c0c0c0;opacity:0.5;stroke:#c0c0c0;stroke-linejoin:miter;" x="315.028696" xlink:href="#m479b2df8a5" y="98.839055"/>
     <use style="fill:#c0c0c0;opacity:0.5;stroke:#c0c0c0;stroke-linejoin:miter;" x="326.569329" xlink:href="#m479b2df8a5" y="97.364686"/>
     <use style="fill:#c0c0c0;opacity:0.5;stroke:#c0c0c0;stroke-linejoin:miter;" x="338.109963" xlink:href="#m479b2df8a5" y="94.37023"/>
    </g>
   </g>
   <g id="patch_3">
    <path d="M 95.756659 289.4 
L 95.756659 25.1 
" style="fill:none;stroke:#000000;stroke-linecap:square;stroke-linejoin:miter;stroke-width:0.8;"/>
   </g>
   <g id="patch_4">
    <path d="M 349.650596 289.4 
L 349.650596 25.1 
" style="fill:none;stroke:#000000;stroke-linecap:square;stroke-linejoin:miter;stroke-width:0.8;"/>
   </g>
   <g id="patch_5">
    <path d="M 95.756659 289.4 
L 349.650596 289.4 
" style="fill:none;stroke:#000000;stroke-linecap:square;stroke-linejoin:miter;stroke-width:0.8;"/>
   </g>
   <g id="patch_6">
    <path d="M 95.756659 25.1 
L 349.650596 25.1 
" style="fill:none;stroke:#000000;stroke-linecap:square;stroke-linejoin:miter;stroke-width:0.8;"/>
   </g>
   <g id="legend_1">
    <g id="patch_7">
     <path d="M 238.078605 281.9 
L 339.150596 281.9 
Q 342.150596 281.9 342.150596 278.9 
L 342.150596 195.07816 
Q 342.150596 192.07816 339.150596 192.07816 
L 238.078605 192.07816 
Q 235.078605 192.07816 235.078605 195.07816 
L 235.078605 278.9 
Q 235.078605 281.9 238.078605 281.9 
z
" style="fill:#ffffff;opacity:0.8;stroke:#cccccc;stroke-linejoin:miter;"/>
    </g>
    <g id="line2d_12">
     <path d="M 241.078605 203.47564 
L 271.078605 203.47564 
" style="fill:none;stroke:#ff0000;stroke-linecap:square;stroke-width:1.5;"/>
    </g>
    <g id="line2d_13">
     <g>
      <use style="fill:#ff0000;stroke:#ff0000;stroke-linejoin:miter;" x="256.078605" xlink:href="#m09fa764d38" y="203.47564"/>
     </g>
    </g>
    <g id="text_10">
     <!-- $f_s = $ 0.8 -->
     <defs>
      <path d="M 44.59375 40.09375 
C 46.59375 40.09375 47.40625 40.09375 47.40625 42 
C 47.40625 43 46.59375 43 44.796875 43 
L 36.703125 43 
C 38.59375 53.578125 40 60.890625 40.796875 64.171875 
C 41.40625 66.640625 43.5 69 46.09375 69 
C 48.203125 69 50.296875 68.09375 51.296875 67.15625 
C 47.40625 66.75 46.203125 63.78125 46.203125 62.015625 
C 46.203125 59.953125 47.703125 58.734375 49.59375 58.734375 
C 51.59375 58.734375 54.59375 60.46875 54.59375 64.359375 
C 54.59375 68.640625 50.40625 71 46 71 
C 41.703125 71 37.5 67.71875 35.5 63.71875 
C 33.703125 60.125 32.703125 56.421875 30.40625 43 
L 23.703125 43 
C 21.796875 43 20.796875 43 20.796875 41.203125 
C 20.796875 40.09375 21.40625 40.09375 23.40625 40.09375 
L 29.796875 40.09375 
C 28 30.875 23.90625 8.46875 21.59375 -2.140625 
C 19.90625 -10.765625 18.40625 -18 13.40625 -18 
C 13.09375 -18 10.203125 -18 8.40625 -16.109375 
C 13.5 -15.703125 13.5 -11.34375 13.5 -11.25 
C 13.5 -9.265625 12 -8.078125 10.09375 -8.078125 
C 8.09375 -8.078125 5.09375 -9.765625 5.09375 -13.546875 
C 5.09375 -17.8125 9.5 -20 13.40625 -20 
C 23.59375 -20 27.796875 -1.84375 28.90625 3.109375 
C 30.703125 10.75 35.59375 37.125 36.09375 40.09375 
z
" id="CMMI12-102"/>
      <path d="M 22.796875 20 
C 24.5 19.703125 27.203125 19.109375 27.796875 19 
C 29.09375 18.625 33.59375 17.03125 33.59375 12.234375 
C 33.59375 9.15625 30.796875 1.09375 19.203125 1.09375 
C 17.09375 1.09375 9.59375 1.09375 7.59375 6.8125 
C 11.59375 6.3125 13.59375 9.421875 13.59375 11.640625 
C 13.59375 13.75 12.203125 14.84375 10.203125 14.84375 
C 8 14.84375 5.09375 13.140625 5.09375 8.625 
C 5.09375 2.703125 11.09375 -1 19.09375 -1 
C 34.296875 -1 38.796875 10.171875 38.796875 15.375 
C 38.796875 16.859375 38.796875 19.65625 35.59375 22.84375 
C 33.09375 25.25 30.703125 25.75 25.296875 26.84375 
C 22.59375 27.4375 18.296875 28.34375 18.296875 32.828125 
C 18.296875 34.828125 20.09375 42.015625 29.59375 42.015625 
C 33.796875 42.015625 37.90625 40.453125 38.90625 37 
C 34.5 37 34.296875 33.203125 34.296875 33.109375 
C 34.296875 31 36.203125 30.40625 37.09375 30.40625 
C 38.5 30.40625 41.296875 31.484375 41.296875 35.640625 
C 41.296875 39.765625 37.5 44 29.703125 44 
C 16.59375 44 13.09375 33.75 13.09375 29.671875 
C 13.09375 22.09375 20.5 20.5 22.796875 20 
z
" id="CMMI12-115"/>
      <path d="M 64.296875 31.515625 
C 65.796875 31.515625 67.296875 31.515625 67.296875 33.203125 
C 67.296875 35 65.59375 35 63.90625 35 
L 8 35 
C 6.296875 35 4.59375 35 4.59375 33.203125 
C 4.59375 31.515625 6.09375 31.515625 7.59375 31.515625 
z
M 63.90625 14 
C 65.59375 14 67.296875 14 67.296875 15.796875 
C 67.296875 17.484375 65.796875 17.484375 64.296875 17.484375 
L 7.59375 17.484375 
C 6.09375 17.484375 4.59375 17.484375 4.59375 15.796875 
C 4.59375 14 6.296875 14 8 14 
z
" id="CMR17-61"/>
      <path d="M 19.09375 10.421875 
L 8.703125 10.421875 
L 8.703125 0 
L 19.09375 0 
z
" id="Nimbus_Sans_L_Regular-46"/>
      <path d="M 39.09375 37.484375 
C 46.40625 41.875 48.796875 45.46875 48.796875 52.15625 
C 48.796875 63.21875 40.09375 71 27.5 71 
C 15 71 6.203125 63.21875 6.203125 52.15625 
C 6.203125 45.578125 8.59375 41.984375 15.796875 37.484375 
C 7.703125 33.59375 3.703125 27.71875 3.703125 19.9375 
C 3.703125 6.96875 13.5 -2 27.5 -2 
C 41.5 -2 51.296875 6.984375 51.296875 19.84375 
C 51.296875 27.71875 47.296875 33.59375 39.09375 37.484375 
z
M 27.5 63.1875 
C 35 63.1875 39.796875 58.8125 39.796875 51.953125 
C 39.796875 45.375 34.90625 41 27.5 41 
C 20.09375 41 15.203125 45.375 15.203125 52.046875 
C 15.203125 58.8125 20.09375 63.1875 27.5 63.1875 
z
M 27.5 33.578125 
C 36.296875 33.578125 42.296875 28 42.296875 19.734375 
C 42.296875 11.390625 36.296875 5.8125 27.296875 5.8125 
C 18.703125 5.8125 12.703125 11.484375 12.703125 19.734375 
C 12.703125 28 18.703125 33.578125 27.5 33.578125 
z
" id="Nimbus_Sans_L_Regular-56"/>
     </defs>
     <g transform="translate(283.078605 208.72564)scale(0.15 -0.15)">
      <use transform="translate(0 14.943915)scale(0.996264)" xlink:href="#CMMI12-102"/>
      <use transform="translate(48.083238 0)scale(0.697382)" xlink:href="#CMMI12-115"/>
      <use transform="translate(108.420267 14.943915)scale(0.996264)" xlink:href="#CMR17-61"/>
      <use transform="translate(207.830225 14.943915)scale(0.996264)" xlink:href="#Nimbus_Sans_L_Regular-48"/>
      <use transform="translate(263.221902 14.943915)scale(0.996264)" xlink:href="#Nimbus_Sans_L_Regular-46"/>
      <use transform="translate(290.917072 14.943915)scale(0.996264)" xlink:href="#Nimbus_Sans_L_Regular-56"/>
     </g>
    </g>
    <g id="line2d_14">
     <path d="M 241.078605 224.8061 
L 271.078605 224.8061 
" style="fill:none;opacity:0.5;stroke:#404040;stroke-linecap:square;stroke-width:1.5;"/>
    </g>
    <g id="line2d_15">
     <g>
      <use style="fill:#404040;opacity:0.5;stroke:#404040;stroke-linejoin:miter;" x="256.078605" xlink:href="#mf509eb2005" y="224.8061"/>
     </g>
    </g>
    <g id="text_11">
     <!-- $f_s = $ 0.6 -->
     <g transform="translate(283.078605 230.0561)scale(0.15 -0.15)">
      <use transform="translate(0 14.943915)scale(0.996264)" xlink:href="#CMMI12-102"/>
      <use transform="translate(48.083238 0)scale(0.697382)" xlink:href="#CMMI12-115"/>
      <use transform="translate(108.420267 14.943915)scale(0.996264)" xlink:href="#CMR17-61"/>
      <use transform="translate(207.830225 14.943915)scale(0.996264)" xlink:href="#Nimbus_Sans_L_Regular-48"/>
      <use transform="translate(263.221902 14.943915)scale(0.996264)" xlink:href="#Nimbus_Sans_L_Regular-46"/>
      <use transform="translate(290.917072 14.943915)scale(0.996264)" xlink:href="#Nimbus_Sans_L_Regular-54"/>
     </g>
    </g>
    <g id="line2d_16">
     <path d="M 241.078605 246.13656 
L 271.078605 246.13656 
" style="fill:none;opacity:0.5;stroke:#808080;stroke-linecap:square;stroke-width:1.5;"/>
    </g>
    <g id="line2d_17">
     <g>
      <use style="fill:#808080;opacity:0.5;stroke:#808080;" x="256.078605" xlink:href="#m22c3d994a6" y="246.13656"/>
     </g>
    </g>
    <g id="text_12">
     <!-- $f_s = $ 0.4 -->
     <g transform="translate(283.078605 251.38656)scale(0.15 -0.15)">
      <use transform="translate(0 14.943915)scale(0.996264)" xlink:href="#CMMI12-102"/>
      <use transform="translate(48.083238 0)scale(0.697382)" xlink:href="#CMMI12-115"/>
      <use transform="translate(108.420267 14.943915)scale(0.996264)" xlink:href="#CMR17-61"/>
      <use transform="translate(207.830225 14.943915)scale(0.996264)" xlink:href="#Nimbus_Sans_L_Regular-48"/>
      <use transform="translate(263.221902 14.943915)scale(0.996264)" xlink:href="#Nimbus_Sans_L_Regular-46"/>
      <use transform="translate(290.917072 14.943915)scale(0.996264)" xlink:href="#Nimbus_Sans_L_Regular-52"/>
     </g>
    </g>
    <g id="line2d_18">
     <path d="M 241.078605 267.46702 
L 271.078605 267.46702 
" style="fill:none;opacity:0.5;stroke:#c0c0c0;stroke-linecap:square;stroke-width:1.5;"/>
    </g>
    <g id="line2d_19">
     <g>
      <use style="fill:#c0c0c0;opacity:0.5;stroke:#c0c0c0;stroke-linejoin:miter;" x="256.078605" xlink:href="#m479b2df8a5" y="267.46702"/>
     </g>
    </g>
    <g id="text_13">
     <!-- $f_s = $ 0.2 -->
     <g transform="translate(283.078605 272.71702)scale(0.15 -0.15)">
      <use transform="translate(0 14.943915)scale(0.996264)" xlink:href="#CMMI12-102"/>
      <use transform="translate(48.083238 0)scale(0.697382)" xlink:href="#CMMI12-115"/>
      <use transform="translate(108.420267 14.943915)scale(0.996264)" xlink:href="#CMR17-61"/>
      <use transform="translate(207.830225 14.943915)scale(0.996264)" xlink:href="#Nimbus_Sans_L_Regular-48"/>
      <use transform="translate(263.221902 14.943915)scale(0.996264)" xlink:href="#Nimbus_Sans_L_Regular-46"/>
      <use transform="translate(290.917072 14.943915)scale(0.996264)" xlink:href="#Nimbus_Sans_L_Regular-50"/>
     </g>
    </g>
   </g>
  </g>
  <g id="axes_2">
   <g id="patch_8">
    <path d="M 439.417494 289.4 
L 693.311432 289.4 
L 693.311432 25.1 
L 439.417494 25.1 
z
" style="fill:#ffffff;"/>
   </g>
   <g id="matplotlib.axis_3">
    <g id="xtick_4">
     <g id="line2d_20">
      <g>
       <use style="stroke:#000000;stroke-width:0.8;" x="450.958127" xlink:href="#ma1090a3160" y="289.4"/>
      </g>
     </g>
     <g id="text_14">
      <!-- 0 -->
      <g transform="translate(445.418963 310.596641)scale(0.2 -0.2)">
       <use transform="scale(0.996264)" xlink:href="#Nimbus_Sans_L_Regular-48"/>
      </g>
     </g>
    </g>
    <g id="xtick_5">
     <g id="line2d_21">
      <g>
       <use style="stroke:#000000;stroke-width:0.8;" x="566.364463" xlink:href="#ma1090a3160" y="289.4"/>
      </g>
     </g>
     <g id="text_15">
      <!-- 50 -->
      <g transform="translate(555.286133 310.596641)scale(0.2 -0.2)">
       <use transform="scale(0.996264)" xlink:href="#Nimbus_Sans_L_Regular-53"/>
       <use transform="translate(55.391677 0)scale(0.996264)" xlink:href="#Nimbus_Sans_L_Regular-48"/>
      </g>
     </g>
    </g>
    <g id="xtick_6">
     <g id="line2d_22">
      <g>
       <use style="stroke:#000000;stroke-width:0.8;" x="681.770798" xlink:href="#ma1090a3160" y="289.4"/>
      </g>
     </g>
     <g id="text_16">
      <!-- 100 -->
      <g transform="translate(665.153304 310.596641)scale(0.2 -0.2)">
       <use transform="scale(0.996264)" xlink:href="#Nimbus_Sans_L_Regular-49"/>
       <use transform="translate(55.391677 0)scale(0.996264)" xlink:href="#Nimbus_Sans_L_Regular-48"/>
       <use transform="translate(110.783354 0)scale(0.996264)" xlink:href="#Nimbus_Sans_L_Regular-48"/>
      </g>
     </g>
    </g>
    <g id="text_17">
     <!-- Time (years) -->
     <g transform="translate(510.663772 333.405988)scale(0.2 -0.2)">
      <use transform="scale(0.996264)" xlink:href="#Nimbus_Sans_L_Regular-84"/>
      <use transform="translate(60.871631 0)scale(0.996264)" xlink:href="#Nimbus_Sans_L_Regular-105"/>
      <use transform="translate(82.988415 0)scale(0.996264)" xlink:href="#Nimbus_Sans_L_Regular-109"/>
      <use transform="translate(165.976845 0)scale(0.996264)" xlink:href="#Nimbus_Sans_L_Regular-101"/>
      <use transform="translate(249.063692 0)scale(0.996264)" xlink:href="#Nimbus_Sans_L_Regular-40"/>
      <use transform="translate(282.238922 0)scale(0.996264)" xlink:href="#Nimbus_Sans_L_Regular-121"/>
      <use transform="translate(330.060111 0)scale(0.996264)" xlink:href="#Nimbus_Sans_L_Regular-101"/>
      <use transform="translate(385.451788 0)scale(0.996264)" xlink:href="#Nimbus_Sans_L_Regular-97"/>
      <use transform="translate(440.843465 0)scale(0.996264)" xlink:href="#Nimbus_Sans_L_Regular-114"/>
      <use transform="translate(474.018695 0)scale(0.996264)" xlink:href="#Nimbus_Sans_L_Regular-115"/>
      <use transform="translate(523.831895 0)scale(0.996264)" xlink:href="#Nimbus_Sans_L_Regular-41"/>
     </g>
    </g>
   </g>
   <g id="matplotlib.axis_4">
    <g id="ytick_5">
     <g id="line2d_23">
      <g>
       <use style="stroke:#000000;stroke-width:0.8;" x="439.417494" xlink:href="#m6ed6a61462" y="277.386364"/>
      </g>
     </g>
     <g id="text_18">
      <!-- 0 -->
      <g transform="translate(421.339165 284.484684)scale(0.2 -0.2)">
       <use transform="scale(0.996264)" xlink:href="#Nimbus_Sans_L_Regular-48"/>
      </g>
     </g>
    </g>
    <g id="ytick_6">
     <g id="line2d_24">
      <g>
       <use style="stroke:#000000;stroke-width:0.8;" x="439.417494" xlink:href="#m6ed6a61462" y="200.522691"/>
      </g>
     </g>
     <g id="text_19">
      <!-- 2 -->
      <g transform="translate(421.339165 207.621011)scale(0.2 -0.2)">
       <use transform="scale(0.996264)" xlink:href="#Nimbus_Sans_L_Regular-50"/>
      </g>
     </g>
    </g>
    <g id="ytick_7">
     <g id="line2d_25">
      <g>
       <use style="stroke:#000000;stroke-width:0.8;" x="439.417494" xlink:href="#m6ed6a61462" y="123.659019"/>
      </g>
     </g>
     <g id="text_20">
      <!-- 4 -->
      <g transform="translate(421.339165 130.757339)scale(0.2 -0.2)">
       <use transform="scale(0.996264)" xlink:href="#Nimbus_Sans_L_Regular-52"/>
      </g>
     </g>
    </g>
    <g id="ytick_8">
     <g id="line2d_26">
      <g>
       <use style="stroke:#000000;stroke-width:0.8;" x="439.417494" xlink:href="#m6ed6a61462" y="46.795346"/>
      </g>
     </g>
     <g id="text_21">
      <!-- 6 -->
      <g transform="translate(421.339165 53.893666)scale(0.2 -0.2)">
       <use transform="scale(0.996264)" xlink:href="#Nimbus_Sans_L_Regular-54"/>
      </g>
     </g>
    </g>
    <g id="text_22">
     <!-- Mean number of mutations -->
     <g transform="translate(391.81525 275.544889)rotate(-90)scale(0.2 -0.2)">
      <use transform="scale(0.996264)" xlink:href="#Nimbus_Sans_L_Regular-77"/>
      <use transform="translate(82.98843 0)scale(0.996264)" xlink:href="#Nimbus_Sans_L_Regular-101"/>
      <use transform="translate(138.380107 0)scale(0.996264)" xlink:href="#Nimbus_Sans_L_Regular-97"/>
      <use transform="translate(193.771784 0)scale(0.996264)" xlink:href="#Nimbus_Sans_L_Regular-110"/>
      <use transform="translate(276.858631 0)scale(0.996264)" xlink:href="#Nimbus_Sans_L_Regular-110"/>
      <use transform="translate(331.254211 0)scale(0.996264)" xlink:href="#Nimbus_Sans_L_Regular-117"/>
      <use transform="translate(386.645888 0)scale(0.996264)" xlink:href="#Nimbus_Sans_L_Regular-109"/>
      <use transform="translate(469.634318 0)scale(0.996264)" xlink:href="#Nimbus_Sans_L_Regular-98"/>
      <use transform="translate(525.025995 0)scale(0.996264)" xlink:href="#Nimbus_Sans_L_Regular-101"/>
      <use transform="translate(580.417672 0)scale(0.996264)" xlink:href="#Nimbus_Sans_L_Regular-114"/>
      <use transform="translate(641.288071 0)scale(0.996264)" xlink:href="#Nimbus_Sans_L_Regular-111"/>
      <use transform="translate(696.679748 0)scale(0.996264)" xlink:href="#Nimbus_Sans_L_Regular-102"/>
      <use transform="translate(752.070088 0)scale(0.996264)" xlink:href="#Nimbus_Sans_L_Regular-109"/>
      <use transform="translate(834.062421 0)scale(0.996264)" xlink:href="#Nimbus_Sans_L_Regular-117"/>
      <use transform="translate(889.454098 0)scale(0.996264)" xlink:href="#Nimbus_Sans_L_Regular-116"/>
      <use transform="translate(917.149268 0)scale(0.996264)" xlink:href="#Nimbus_Sans_L_Regular-97"/>
      <use transform="translate(972.540944 0)scale(0.996264)" xlink:href="#Nimbus_Sans_L_Regular-116"/>
      <use transform="translate(1000.236114 0)scale(0.996264)" xlink:href="#Nimbus_Sans_L_Regular-105"/>
      <use transform="translate(1022.352898 0)scale(0.996264)" xlink:href="#Nimbus_Sans_L_Regular-111"/>
      <use transform="translate(1077.744575 0)scale(0.996264)" xlink:href="#Nimbus_Sans_L_Regular-110"/>
      <use transform="translate(1133.136252 0)scale(0.996264)" xlink:href="#Nimbus_Sans_L_Regular-115"/>
     </g>
     <!--  per mtDNA -->
     <defs>
      <path d="M 8.90625 0 
L 37 0 
C 55.40625 0 66.703125 13.828125 66.703125 36.546875 
C 66.703125 59.171875 55.5 73 37 73 
L 8.90625 73 
z
M 18.203125 8.21875 
L 18.203125 64.78125 
L 35.40625 64.78125 
C 49.796875 64.78125 57.40625 55.0625 57.40625 36.453125 
C 57.40625 18.03125 49.796875 8.21875 35.40625 8.21875 
z
" id="Nimbus_Sans_L_Regular-68"/>
      <path d="M 64.59375 73 
L 55.796875 73 
L 55.796875 13.296875 
L 17.703125 73 
L 7.59375 73 
L 7.59375 -0.03125 
L 16.40625 -0.03125 
L 16.40625 59.171875 
L 54.09375 -0.03125 
L 64.59375 -0.03125 
z
" id="Nimbus_Sans_L_Regular-78"/>
      <path d="M 47.40625 22 
L 54.90625 0 
L 65.296875 0 
L 39.703125 73 
L 27.703125 73 
L 1.703125 0 
L 11.59375 0 
L 19.296875 22 
z
M 44.796875 29.8125 
L 21.59375 29.8125 
L 33.59375 63 
z
" id="Nimbus_Sans_L_Regular-65"/>
     </defs>
     <g transform="translate(413.095192 206.51472)rotate(-90)scale(0.2 -0.2)">
      <use transform="scale(0.996264)" xlink:href="#Nimbus_Sans_L_Regular-112"/>
      <use transform="translate(55.391677 0)scale(0.996264)" xlink:href="#Nimbus_Sans_L_Regular-101"/>
      <use transform="translate(110.783354 0)scale(0.996264)" xlink:href="#Nimbus_Sans_L_Regular-114"/>
      <use transform="translate(171.653753 0)scale(0.996264)" xlink:href="#Nimbus_Sans_L_Regular-109"/>
      <use transform="translate(254.642183 0)scale(0.996264)" xlink:href="#Nimbus_Sans_L_Regular-116"/>
      <use transform="translate(282.337353 0)scale(0.996264)" xlink:href="#Nimbus_Sans_L_Regular-68"/>
      <use transform="translate(354.267338 0)scale(0.996264)" xlink:href="#Nimbus_Sans_L_Regular-78"/>
      <use transform="translate(426.197323 0)scale(0.996264)" xlink:href="#Nimbus_Sans_L_Regular-65"/>
     </g>
    </g>
   </g>
   <g id="line2d_27">
    <path clip-path="url(#p5ad9f50787)" d="M 450.958127 277.386364 
L 462.498761 265.680334 
L 474.039395 253.704781 
L 485.580028 242.19633 
L 497.120662 229.992108 
L 508.661295 218.013981 
L 520.201929 206.302263 
L 531.742562 194.810068 
L 543.283196 182.658075 
L 554.823829 170.257159 
L 566.364463 158.062468 
L 577.905096 145.009249 
L 589.44573 133.441035 
L 600.986363 121.238005 
L 612.526997 108.440011 
L 624.06763 95.862271 
L 635.608264 83.928494 
L 647.148898 71.786493 
L 658.689531 60.271124 
L 670.230165 48.710635 
L 681.770798 37.113636 
" style="fill:none;stroke:#ff0000;stroke-linecap:square;stroke-width:1.5;"/>
    <g clip-path="url(#p5ad9f50787)">
     <use style="fill:#ff0000;stroke:#ff0000;stroke-linejoin:miter;" x="450.958127" xlink:href="#m09fa764d38" y="277.386364"/>
     <use style="fill:#ff0000;stroke:#ff0000;stroke-linejoin:miter;" x="462.498761" xlink:href="#m09fa764d38" y="265.680334"/>
     <use style="fill:#ff0000;stroke:#ff0000;stroke-linejoin:miter;" x="474.039395" xlink:href="#m09fa764d38" y="253.704781"/>
     <use style="fill:#ff0000;stroke:#ff0000;stroke-linejoin:miter;" x="485.580028" xlink:href="#m09fa764d38" y="242.19633"/>
     <use style="fill:#ff0000;stroke:#ff0000;stroke-linejoin:miter;" x="497.120662" xlink:href="#m09fa764d38" y="229.992108"/>
     <use style="fill:#ff0000;stroke:#ff0000;stroke-linejoin:miter;" x="508.661295" xlink:href="#m09fa764d38" y="218.013981"/>
     <use style="fill:#ff0000;stroke:#ff0000;stroke-linejoin:miter;" x="520.201929" xlink:href="#m09fa764d38" y="206.302263"/>
     <use style="fill:#ff0000;stroke:#ff0000;stroke-linejoin:miter;" x="531.742562" xlink:href="#m09fa764d38" y="194.810068"/>
     <use style="fill:#ff0000;stroke:#ff0000;stroke-linejoin:miter;" x="543.283196" xlink:href="#m09fa764d38" y="182.658075"/>
     <use style="fill:#ff0000;stroke:#ff0000;stroke-linejoin:miter;" x="554.823829" xlink:href="#m09fa764d38" y="170.257159"/>
     <use style="fill:#ff0000;stroke:#ff0000;stroke-linejoin:miter;" x="566.364463" xlink:href="#m09fa764d38" y="158.062468"/>
     <use style="fill:#ff0000;stroke:#ff0000;stroke-linejoin:miter;" x="577.905096" xlink:href="#m09fa764d38" y="145.009249"/>
     <use style="fill:#ff0000;stroke:#ff0000;stroke-linejoin:miter;" x="589.44573" xlink:href="#m09fa764d38" y="133.441035"/>
     <use style="fill:#ff0000;stroke:#ff0000;stroke-linejoin:miter;" x="600.986363" xlink:href="#m09fa764d38" y="121.238005"/>
     <use style="fill:#ff0000;stroke:#ff0000;stroke-linejoin:miter;" x="612.526997" xlink:href="#m09fa764d38" y="108.440011"/>
     <use style="fill:#ff0000;stroke:#ff0000;stroke-linejoin:miter;" x="624.06763" xlink:href="#m09fa764d38" y="95.862271"/>
     <use style="fill:#ff0000;stroke:#ff0000;stroke-linejoin:miter;" x="635.608264" xlink:href="#m09fa764d38" y="83.928494"/>
     <use style="fill:#ff0000;stroke:#ff0000;stroke-linejoin:miter;" x="647.148898" xlink:href="#m09fa764d38" y="71.786493"/>
     <use style="fill:#ff0000;stroke:#ff0000;stroke-linejoin:miter;" x="658.689531" xlink:href="#m09fa764d38" y="60.271124"/>
     <use style="fill:#ff0000;stroke:#ff0000;stroke-linejoin:miter;" x="670.230165" xlink:href="#m09fa764d38" y="48.710635"/>
     <use style="fill:#ff0000;stroke:#ff0000;stroke-linejoin:miter;" x="681.770798" xlink:href="#m09fa764d38" y="37.113636"/>
    </g>
   </g>
   <g id="line2d_28">
    <path clip-path="url(#p5ad9f50787)" d="M 450.958127 277.386364 
L 462.498761 268.555112 
L 474.039395 259.268212 
L 485.580028 250.252104 
L 497.120662 241.394411 
L 508.661295 232.208318 
L 520.201929 223.532984 
L 531.742562 215.017642 
L 543.283196 205.901342 
L 554.823829 196.458063 
L 566.364463 187.42147 
L 577.905096 178.466545 
L 589.44573 169.249899 
L 600.986363 159.806505 
L 612.526997 150.882402 
L 624.06763 142.43593 
L 635.608264 134.041187 
L 647.148898 125.920271 
L 658.689531 116.685716 
L 670.230165 107.300162 
L 681.770798 98.895427 
" style="fill:none;opacity:0.5;stroke:#404040;stroke-linecap:square;stroke-width:1.5;"/>
    <g clip-path="url(#p5ad9f50787)">
     <use style="fill:#404040;opacity:0.5;stroke:#404040;stroke-linejoin:miter;" x="450.958127" xlink:href="#mf509eb2005" y="277.386364"/>
     <use style="fill:#404040;opacity:0.5;stroke:#404040;stroke-linejoin:miter;" x="462.498761" xlink:href="#mf509eb2005" y="268.555112"/>
     <use style="fill:#404040;opacity:0.5;stroke:#404040;stroke-linejoin:miter;" x="474.039395" xlink:href="#mf509eb2005" y="259.268212"/>
     <use style="fill:#404040;opacity:0.5;stroke:#404040;stroke-linejoin:miter;" x="485.580028" xlink:href="#mf509eb2005" y="250.252104"/>
     <use style="fill:#404040;opacity:0.5;stroke:#404040;stroke-linejoin:miter;" x="497.120662" xlink:href="#mf509eb2005" y="241.394411"/>
     <use style="fill:#404040;opacity:0.5;stroke:#404040;stroke-linejoin:miter;" x="508.661295" xlink:href="#mf509eb2005" y="232.208318"/>
     <use style="fill:#404040;opacity:0.5;stroke:#404040;stroke-linejoin:miter;" x="520.201929" xlink:href="#mf509eb2005" y="223.532984"/>
     <use style="fill:#404040;opacity:0.5;stroke:#404040;stroke-linejoin:miter;" x="531.742562" xlink:href="#mf509eb2005" y="215.017642"/>
     <use style="fill:#404040;opacity:0.5;stroke:#404040;stroke-linejoin:miter;" x="543.283196" xlink:href="#mf509eb2005" y="205.901342"/>
     <use style="fill:#404040;opacity:0.5;stroke:#404040;stroke-linejoin:miter;" x="554.823829" xlink:href="#mf509eb2005" y="196.458063"/>
     <use style="fill:#404040;opacity:0.5;stroke:#404040;stroke-linejoin:miter;" x="566.364463" xlink:href="#mf509eb2005" y="187.42147"/>
     <use style="fill:#404040;opacity:0.5;stroke:#404040;stroke-linejoin:miter;" x="577.905096" xlink:href="#mf509eb2005" y="178.466545"/>
     <use style="fill:#404040;opacity:0.5;stroke:#404040;stroke-linejoin:miter;" x="589.44573" xlink:href="#mf509eb2005" y="169.249899"/>
     <use style="fill:#404040;opacity:0.5;stroke:#404040;stroke-linejoin:miter;" x="600.986363" xlink:href="#mf509eb2005" y="159.806505"/>
     <use style="fill:#404040;opacity:0.5;stroke:#404040;stroke-linejoin:miter;" x="612.526997" xlink:href="#mf509eb2005" y="150.882402"/>
     <use style="fill:#404040;opacity:0.5;stroke:#404040;stroke-linejoin:miter;" x="624.06763" xlink:href="#mf509eb2005" y="142.43593"/>
     <use style="fill:#404040;opacity:0.5;stroke:#404040;stroke-linejoin:miter;" x="635.608264" xlink:href="#mf509eb2005" y="134.041187"/>
     <use style="fill:#404040;opacity:0.5;stroke:#404040;stroke-linejoin:miter;" x="647.148898" xlink:href="#mf509eb2005" y="125.920271"/>
     <use style="fill:#404040;opacity:0.5;stroke:#404040;stroke-linejoin:miter;" x="658.689531" xlink:href="#mf509eb2005" y="116.685716"/>
     <use style="fill:#404040;opacity:0.5;stroke:#404040;stroke-linejoin:miter;" x="670.230165" xlink:href="#mf509eb2005" y="107.300162"/>
     <use style="fill:#404040;opacity:0.5;stroke:#404040;stroke-linejoin:miter;" x="681.770798" xlink:href="#mf509eb2005" y="98.895427"/>
    </g>
   </g>
   <g id="line2d_29">
    <path clip-path="url(#p5ad9f50787)" d="M 450.958127 277.386364 
L 462.498761 271.412788 
L 474.039395 265.402933 
L 485.580028 259.530241 
L 497.120662 253.662506 
L 508.661295 247.839199 
L 520.201929 241.657477 
L 531.742562 235.508383 
L 543.283196 229.113825 
L 554.823829 222.740328 
L 566.364463 216.848228 
L 577.905096 210.888219 
L 589.44573 204.591239 
L 600.986363 197.825314 
L 612.526997 192.303313 
L 624.06763 186.247685 
L 635.608264 180.2572 
L 647.148898 174.80991 
L 658.689531 168.587449 
L 670.230165 163.385431 
L 681.770798 157.448366 
" style="fill:none;opacity:0.5;stroke:#808080;stroke-linecap:square;stroke-width:1.5;"/>
    <g clip-path="url(#p5ad9f50787)">
     <use style="fill:#808080;opacity:0.5;stroke:#808080;" x="450.958127" xlink:href="#m22c3d994a6" y="277.386364"/>
     <use style="fill:#808080;opacity:0.5;stroke:#808080;" x="462.498761" xlink:href="#m22c3d994a6" y="271.412788"/>
     <use style="fill:#808080;opacity:0.5;stroke:#808080;" x="474.039395" xlink:href="#m22c3d994a6" y="265.402933"/>
     <use style="fill:#808080;opacity:0.5;stroke:#808080;" x="485.580028" xlink:href="#m22c3d994a6" y="259.530241"/>
     <use style="fill:#808080;opacity:0.5;stroke:#808080;" x="497.120662" xlink:href="#m22c3d994a6" y="253.662506"/>
     <use style="fill:#808080;opacity:0.5;stroke:#808080;" x="508.661295" xlink:href="#m22c3d994a6" y="247.839199"/>
     <use style="fill:#808080;opacity:0.5;stroke:#808080;" x="520.201929" xlink:href="#m22c3d994a6" y="241.657477"/>
     <use style="fill:#808080;opacity:0.5;stroke:#808080;" x="531.742562" xlink:href="#m22c3d994a6" y="235.508383"/>
     <use style="fill:#808080;opacity:0.5;stroke:#808080;" x="543.283196" xlink:href="#m22c3d994a6" y="229.113825"/>
     <use style="fill:#808080;opacity:0.5;stroke:#808080;" x="554.823829" xlink:href="#m22c3d994a6" y="222.740328"/>
     <use style="fill:#808080;opacity:0.5;stroke:#808080;" x="566.364463" xlink:href="#m22c3d994a6" y="216.848228"/>
     <use style="fill:#808080;opacity:0.5;stroke:#808080;" x="577.905096" xlink:href="#m22c3d994a6" y="210.888219"/>
     <use style="fill:#808080;opacity:0.5;stroke:#808080;" x="589.44573" xlink:href="#m22c3d994a6" y="204.591239"/>
     <use style="fill:#808080;opacity:0.5;stroke:#808080;" x="600.986363" xlink:href="#m22c3d994a6" y="197.825314"/>
     <use style="fill:#808080;opacity:0.5;stroke:#808080;" x="612.526997" xlink:href="#m22c3d994a6" y="192.303313"/>
     <use style="fill:#808080;opacity:0.5;stroke:#808080;" x="624.06763" xlink:href="#m22c3d994a6" y="186.247685"/>
     <use style="fill:#808080;opacity:0.5;stroke:#808080;" x="635.608264" xlink:href="#m22c3d994a6" y="180.2572"/>
     <use style="fill:#808080;opacity:0.5;stroke:#808080;" x="647.148898" xlink:href="#m22c3d994a6" y="174.80991"/>
     <use style="fill:#808080;opacity:0.5;stroke:#808080;" x="658.689531" xlink:href="#m22c3d994a6" y="168.587449"/>
     <use style="fill:#808080;opacity:0.5;stroke:#808080;" x="670.230165" xlink:href="#m22c3d994a6" y="163.385431"/>
     <use style="fill:#808080;opacity:0.5;stroke:#808080;" x="681.770798" xlink:href="#m22c3d994a6" y="157.448366"/>
    </g>
   </g>
   <g id="line2d_30">
    <path clip-path="url(#p5ad9f50787)" d="M 450.958127 277.386364 
L 462.498761 274.450248 
L 474.039395 271.390229 
L 485.580028 268.269602 
L 497.120662 265.171496 
L 508.661295 262.351752 
L 520.201929 259.373554 
L 531.742562 256.520836 
L 543.283196 253.470194 
L 554.823829 250.538344 
L 566.364463 247.461414 
L 577.905096 244.396937 
L 589.44573 241.290261 
L 600.986363 238.321862 
L 612.526997 235.208423 
L 624.06763 232.234375 
L 635.608264 229.037461 
L 647.148898 226.232437 
L 658.689531 223.362578 
L 670.230165 220.442642 
L 681.770798 217.402299 
" style="fill:none;opacity:0.5;stroke:#c0c0c0;stroke-linecap:square;stroke-width:1.5;"/>
    <g clip-path="url(#p5ad9f50787)">
     <use style="fill:#c0c0c0;opacity:0.5;stroke:#c0c0c0;stroke-linejoin:miter;" x="450.958127" xlink:href="#m479b2df8a5" y="277.386364"/>
     <use style="fill:#c0c0c0;opacity:0.5;stroke:#c0c0c0;stroke-linejoin:miter;" x="462.498761" xlink:href="#m479b2df8a5" y="274.450248"/>
     <use style="fill:#c0c0c0;opacity:0.5;stroke:#c0c0c0;stroke-linejoin:miter;" x="474.039395" xlink:href="#m479b2df8a5" y="271.390229"/>
     <use style="fill:#c0c0c0;opacity:0.5;stroke:#c0c0c0;stroke-linejoin:miter;" x="485.580028" xlink:href="#m479b2df8a5" y="268.269602"/>
     <use style="fill:#c0c0c0;opacity:0.5;stroke:#c0c0c0;stroke-linejoin:miter;" x="497.120662" xlink:href="#m479b2df8a5" y="265.171496"/>
     <use style="fill:#c0c0c0;opacity:0.5;stroke:#c0c0c0;stroke-linejoin:miter;" x="508.661295" xlink:href="#m479b2df8a5" y="262.351752"/>
     <use style="fill:#c0c0c0;opacity:0.5;stroke:#c0c0c0;stroke-linejoin:miter;" x="520.201929" xlink:href="#m479b2df8a5" y="259.373554"/>
     <use style="fill:#c0c0c0;opacity:0.5;stroke:#c0c0c0;stroke-linejoin:miter;" x="531.742562" xlink:href="#m479b2df8a5" y="256.520836"/>
     <use style="fill:#c0c0c0;opacity:0.5;stroke:#c0c0c0;stroke-linejoin:miter;" x="543.283196" xlink:href="#m479b2df8a5" y="253.470194"/>
     <use style="fill:#c0c0c0;opacity:0.5;stroke:#c0c0c0;stroke-linejoin:miter;" x="554.823829" xlink:href="#m479b2df8a5" y="250.538344"/>
     <use style="fill:#c0c0c0;opacity:0.5;stroke:#c0c0c0;stroke-linejoin:miter;" x="566.364463" xlink:href="#m479b2df8a5" y="247.461414"/>
     <use style="fill:#c0c0c0;opacity:0.5;stroke:#c0c0c0;stroke-linejoin:miter;" x="577.905096" xlink:href="#m479b2df8a5" y="244.396937"/>
     <use style="fill:#c0c0c0;opacity:0.5;stroke:#c0c0c0;stroke-linejoin:miter;" x="589.44573" xlink:href="#m479b2df8a5" y="241.290261"/>
     <use style="fill:#c0c0c0;opacity:0.5;stroke:#c0c0c0;stroke-linejoin:miter;" x="600.986363" xlink:href="#m479b2df8a5" y="238.321862"/>
     <use style="fill:#c0c0c0;opacity:0.5;stroke:#c0c0c0;stroke-linejoin:miter;" x="612.526997" xlink:href="#m479b2df8a5" y="235.208423"/>
     <use style="fill:#c0c0c0;opacity:0.5;stroke:#c0c0c0;stroke-linejoin:miter;" x="624.06763" xlink:href="#m479b2df8a5" y="232.234375"/>
     <use style="fill:#c0c0c0;opacity:0.5;stroke:#c0c0c0;stroke-linejoin:miter;" x="635.608264" xlink:href="#m479b2df8a5" y="229.037461"/>
     <use style="fill:#c0c0c0;opacity:0.5;stroke:#c0c0c0;stroke-linejoin:miter;" x="647.148898" xlink:href="#m479b2df8a5" y="226.232437"/>
     <use style="fill:#c0c0c0;opacity:0.5;stroke:#c0c0c0;stroke-linejoin:miter;" x="658.689531" xlink:href="#m479b2df8a5" y="223.362578"/>
     <use style="fill:#c0c0c0;opacity:0.5;stroke:#c0c0c0;stroke-linejoin:miter;" x="670.230165" xlink:href="#m479b2df8a5" y="220.442642"/>
     <use style="fill:#c0c0c0;opacity:0.5;stroke:#c0c0c0;stroke-linejoin:miter;" x="681.770798" xlink:href="#m479b2df8a5" y="217.402299"/>
    </g>
   </g>
   <g id="patch_9">
    <path d="M 439.417494 289.4 
L 439.417494 25.1 
" style="fill:none;stroke:#000000;stroke-linecap:square;stroke-linejoin:miter;stroke-width:0.8;"/>
   </g>
   <g id="patch_10">
    <path d="M 693.311432 289.4 
L 693.311432 25.1 
" style="fill:none;stroke:#000000;stroke-linecap:square;stroke-linejoin:miter;stroke-width:0.8;"/>
   </g>
   <g id="patch_11">
    <path d="M 439.417494 289.4 
L 693.311432 289.4 
" style="fill:none;stroke:#000000;stroke-linecap:square;stroke-linejoin:miter;stroke-width:0.8;"/>
   </g>
   <g id="patch_12">
    <path d="M 439.417494 25.1 
L 693.311432 25.1 
" style="fill:none;stroke:#000000;stroke-linecap:square;stroke-linejoin:miter;stroke-width:0.8;"/>
   </g>
   <g id="legend_2">
    <g id="patch_13">
     <path d="M 618.042092 284.4 
L 686.311432 284.4 
Q 688.311432 284.4 688.311432 282.4 
L 688.311432 226.518773 
Q 688.311432 224.518773 686.311432 224.518773 
L 618.042092 224.518773 
Q 616.042092 224.518773 616.042092 226.518773 
L 616.042092 282.4 
Q 616.042092 284.4 618.042092 284.4 
z
" style="fill:#ffffff;opacity:0.8;stroke:#cccccc;stroke-linejoin:miter;"/>
    </g>
    <g id="line2d_31">
     <path d="M 620.042092 232.117094 
L 640.042092 232.117094 
" style="fill:none;stroke:#ff0000;stroke-linecap:square;stroke-width:1.5;"/>
    </g>
    <g id="line2d_32">
     <g>
      <use style="fill:#ff0000;stroke:#ff0000;stroke-linejoin:miter;" x="630.042092" xlink:href="#m09fa764d38" y="232.117094"/>
     </g>
    </g>
    <g id="text_23">
     <!-- $f_s = $ 0.8 -->
     <g transform="translate(648.042092 235.617094)scale(0.1 -0.1)">
      <use transform="translate(0 14.943915)scale(0.996264)" xlink:href="#CMMI12-102"/>
      <use transform="translate(48.083238 0)scale(0.697382)" xlink:href="#CMMI12-115"/>
      <use transform="translate(108.420267 14.943915)scale(0.996264)" xlink:href="#CMR17-61"/>
      <use transform="translate(207.830225 14.943915)scale(0.996264)" xlink:href="#Nimbus_Sans_L_Regular-48"/>
      <use transform="translate(263.221902 14.943915)scale(0.996264)" xlink:href="#Nimbus_Sans_L_Regular-46"/>
      <use transform="translate(290.917072 14.943915)scale(0.996264)" xlink:href="#Nimbus_Sans_L_Regular-56"/>
     </g>
    </g>
    <g id="line2d_33">
     <path d="M 620.042092 246.3374 
L 640.042092 246.3374 
" style="fill:none;opacity:0.5;stroke:#404040;stroke-linecap:square;stroke-width:1.5;"/>
    </g>
    <g id="line2d_34">
     <g>
      <use style="fill:#404040;opacity:0.5;stroke:#404040;stroke-linejoin:miter;" x="630.042092" xlink:href="#mf509eb2005" y="246.3374"/>
     </g>
    </g>
    <g id="text_24">
     <!-- $f_s = $ 0.6 -->
     <g transform="translate(648.042092 249.8374)scale(0.1 -0.1)">
      <use transform="translate(0 14.943915)scale(0.996264)" xlink:href="#CMMI12-102"/>
      <use transform="translate(48.083238 0)scale(0.697382)" xlink:href="#CMMI12-115"/>
      <use transform="translate(108.420267 14.943915)scale(0.996264)" xlink:href="#CMR17-61"/>
      <use transform="translate(207.830225 14.943915)scale(0.996264)" xlink:href="#Nimbus_Sans_L_Regular-48"/>
      <use transform="translate(263.221902 14.943915)scale(0.996264)" xlink:href="#Nimbus_Sans_L_Regular-46"/>
      <use transform="translate(290.917072 14.943915)scale(0.996264)" xlink:href="#Nimbus_Sans_L_Regular-54"/>
     </g>
    </g>
    <g id="line2d_35">
     <path d="M 620.042092 260.557707 
L 640.042092 260.557707 
" style="fill:none;opacity:0.5;stroke:#808080;stroke-linecap:square;stroke-width:1.5;"/>
    </g>
    <g id="line2d_36">
     <g>
      <use style="fill:#808080;opacity:0.5;stroke:#808080;" x="630.042092" xlink:href="#m22c3d994a6" y="260.557707"/>
     </g>
    </g>
    <g id="text_25">
     <!-- $f_s = $ 0.4 -->
     <g transform="translate(648.042092 264.057707)scale(0.1 -0.1)">
      <use transform="translate(0 14.943915)scale(0.996264)" xlink:href="#CMMI12-102"/>
      <use transform="translate(48.083238 0)scale(0.697382)" xlink:href="#CMMI12-115"/>
      <use transform="translate(108.420267 14.943915)scale(0.996264)" xlink:href="#CMR17-61"/>
      <use transform="translate(207.830225 14.943915)scale(0.996264)" xlink:href="#Nimbus_Sans_L_Regular-48"/>
      <use transform="translate(263.221902 14.943915)scale(0.996264)" xlink:href="#Nimbus_Sans_L_Regular-46"/>
      <use transform="translate(290.917072 14.943915)scale(0.996264)" xlink:href="#Nimbus_Sans_L_Regular-52"/>
     </g>
    </g>
    <g id="line2d_37">
     <path d="M 620.042092 274.778014 
L 640.042092 274.778014 
" style="fill:none;opacity:0.5;stroke:#c0c0c0;stroke-linecap:square;stroke-width:1.5;"/>
    </g>
    <g id="line2d_38">
     <g>
      <use style="fill:#c0c0c0;opacity:0.5;stroke:#c0c0c0;stroke-linejoin:miter;" x="630.042092" xlink:href="#m479b2df8a5" y="274.778014"/>
     </g>
    </g>
    <g id="text_26">
     <!-- $f_s = $ 0.2 -->
     <g transform="translate(648.042092 278.278014)scale(0.1 -0.1)">
      <use transform="translate(0 14.943915)scale(0.996264)" xlink:href="#CMMI12-102"/>
      <use transform="translate(48.083238 0)scale(0.697382)" xlink:href="#CMMI12-115"/>
      <use transform="translate(108.420267 14.943915)scale(0.996264)" xlink:href="#CMR17-61"/>
      <use transform="translate(207.830225 14.943915)scale(0.996264)" xlink:href="#Nimbus_Sans_L_Regular-48"/>
      <use transform="translate(263.221902 14.943915)scale(0.996264)" xlink:href="#Nimbus_Sans_L_Regular-46"/>
      <use transform="translate(290.917072 14.943915)scale(0.996264)" xlink:href="#Nimbus_Sans_L_Regular-50"/>
     </g>
    </g>
   </g>
  </g>
 </g>
 <defs>
  <clipPath id="pb3c35d69ee">
   <rect height="264.3" width="253.893938" x="95.756659" y="25.1"/>
  </clipPath>
  <clipPath id="p5ad9f50787">
   <rect height="264.3" width="253.893938" x="439.417494" y="25.1"/>
  </clipPath>
 </defs>
</svg>
