<?xml version="1.0" encoding="utf-8" standalone="no"?>
<!DOCTYPE svg PUBLIC "-//W3C//DTD SVG 1.1//EN"
  "http://www.w3.org/Graphics/SVG/1.1/DTD/svg11.dtd">
<!-- Created with matplotlib (http://matplotlib.org/) -->
<svg height="330.449961pt" version="1.1" viewBox="0 0 330.640613 330.449961" width="330.640613pt" xmlns="http://www.w3.org/2000/svg" xmlns:xlink="http://www.w3.org/1999/xlink">
 <defs>
  <style type="text/css">
*{stroke-linecap:butt;stroke-linejoin:round;}
  </style>
 </defs>
 <g id="figure_1">
  <g id="patch_1">
   <path d="M 0 330.449961 
L 330.640613 330.449961 
L 330.640613 0 
L 0 0 
z
" style="fill:#ffffff;"/>
  </g>
  <g id="axes_1">
   <g id="patch_2">
    <path d="M 86.492958 275 
L 319.940613 275 
L 319.940613 10.7 
L 86.492958 10.7 
z
" style="fill:#ffffff;"/>
   </g>
   <g id="matplotlib.axis_1">
    <g id="xtick_1">
     <g id="line2d_1">
      <defs>
       <path d="M 0 0 
L 0 3.5 
" id="m5738e93418" style="stroke:#000000;stroke-width:0.8;"/>
      </defs>
      <g>
       <use style="stroke:#000000;stroke-width:0.8;" x="97.104215" xlink:href="#m5738e93418" y="275"/>
      </g>
     </g>
     <g id="text_1">
      <!-- 0 -->
      <defs>
       <path d="M 27.5 71 
C 20.90625 71 14.90625 68.125 11.203125 63.21875 
C 6.59375 57.046875 4.296875 47.5625 4.296875 34.5 
C 4.296875 10.671875 12.296875 -2 27.5 -2 
C 42.5 -2 50.703125 10.671875 50.703125 33.90625 
C 50.703125 47.65625 48.5 56.84375 43.796875 63.21875 
C 40.09375 68.21875 34.203125 71 27.5 71 
z
M 27.5 63.1875 
C 37 63.1875 41.703125 53.625 41.703125 34.703125 
C 41.703125 14.671875 37.09375 5.3125 27.296875 5.3125 
C 18 5.3125 13.296875 15.078125 13.296875 34.40625 
C 13.296875 53.71875 18 63.1875 27.5 63.1875 
z
" id="Nimbus_Sans_L_Regular-48"/>
      </defs>
      <g transform="translate(91.565051 296.196641)scale(0.2 -0.2)">
       <use transform="scale(0.996264)" xlink:href="#Nimbus_Sans_L_Regular-48"/>
      </g>
     </g>
    </g>
    <g id="xtick_2">
     <g id="line2d_2">
      <g>
       <use style="stroke:#000000;stroke-width:0.8;" x="181.994272" xlink:href="#m5738e93418" y="275"/>
      </g>
     </g>
     <g id="text_2">
      <!-- 200 -->
      <defs>
       <path d="M 50.59375 8.71875 
L 13.296875 8.71875 
C 14.203125 14.53125 17.40625 18.234375 26.09375 23.34375 
L 36.09375 28.75 
C 46 34.15625 51.09375 41.453125 51.09375 50.171875 
C 51.09375 56.078125 48.703125 61.59375 44.5 65.390625 
C 40.296875 69.203125 35.09375 71 28.40625 71 
C 19.40625 71 12.703125 67.796875 8.796875 61.796875 
C 6.296875 57.984375 5.203125 53.578125 5 46.359375 
L 13.796875 46.359375 
C 14.09375 51.171875 14.703125 54.078125 15.90625 56.375 
C 18.203125 60.6875 22.796875 63.296875 28.09375 63.296875 
C 36.09375 63.296875 42.09375 57.578125 42.09375 49.96875 
C 42.09375 44.359375 38.796875 39.546875 32.5 35.953125 
L 23.296875 30.75 
C 8.5 22.34375 4.203125 15.625 3.40625 0 
L 50.59375 0 
z
" id="Nimbus_Sans_L_Regular-50"/>
      </defs>
      <g transform="translate(165.376778 296.196641)scale(0.2 -0.2)">
       <use transform="scale(0.996264)" xlink:href="#Nimbus_Sans_L_Regular-50"/>
       <use transform="translate(55.391677 0)scale(0.996264)" xlink:href="#Nimbus_Sans_L_Regular-48"/>
       <use transform="translate(110.783354 0)scale(0.996264)" xlink:href="#Nimbus_Sans_L_Regular-48"/>
      </g>
     </g>
    </g>
    <g id="xtick_3">
     <g id="line2d_3">
      <g>
       <use style="stroke:#000000;stroke-width:0.8;" x="266.884328" xlink:href="#m5738e93418" y="275"/>
      </g>
     </g>
     <g id="text_3">
      <!-- 400 -->
      <defs>
       <path d="M 32.703125 17 
L 32.703125 0 
L 41.5 0 
L 41.5 17 
L 52 17 
L 52 24.90625 
L 41.5 24.90625 
L 41.5 71.015625 
L 35 71.015625 
L 2.796875 26.3125 
L 2.796875 17 
z
M 32.703125 24.90625 
L 10.5 24.90625 
L 32.703125 55.984375 
z
" id="Nimbus_Sans_L_Regular-52"/>
      </defs>
      <g transform="translate(250.266834 296.196641)scale(0.2 -0.2)">
       <use transform="scale(0.996264)" xlink:href="#Nimbus_Sans_L_Regular-52"/>
       <use transform="translate(55.391677 0)scale(0.996264)" xlink:href="#Nimbus_Sans_L_Regular-48"/>
       <use transform="translate(110.783354 0)scale(0.996264)" xlink:href="#Nimbus_Sans_L_Regular-48"/>
      </g>
     </g>
    </g>
    <g id="text_4">
     <!-- Time (days) -->
     <defs>
      <path d="M 35.40625 64.78125 
L 59.296875 64.78125 
L 59.296875 73 
L 2.09375 73 
L 2.09375 64.78125 
L 26.09375 64.78125 
L 26.09375 -0.21875 
L 35.40625 -0.21875 
z
" id="Nimbus_Sans_L_Regular-84"/>
      <path d="M 15 52.484375 
L 6.703125 52.484375 
L 6.703125 0 
L 15 0 
z
M 15 73 
L 6.59375 73 
L 6.59375 62.484375 
L 15 62.484375 
z
" id="Nimbus_Sans_L_Regular-105"/>
      <path d="M 7 52.484375 
L 7 0 
L 15.40625 0 
L 15.40625 32.953125 
C 15.40625 40.578125 20.90625 46.6875 27.703125 46.6875 
C 33.90625 46.6875 37.40625 42.875 37.40625 36.15625 
L 37.40625 0 
L 45.796875 0 
L 45.796875 32.953125 
C 45.796875 40.578125 51.296875 46.6875 58.09375 46.6875 
C 64.203125 46.6875 67.796875 42.78125 67.796875 36.15625 
L 67.796875 0 
L 76.203125 0 
L 76.203125 39.375 
C 76.203125 48.78125 70.796875 54 61 54 
C 54 54 49.796875 51.890625 44.90625 45.984375 
C 41.796875 51.59375 37.59375 54 30.796875 54 
C 23.796875 54 19.203125 51.390625 14.703125 45.078125 
L 14.703125 52.484375 
z
" id="Nimbus_Sans_L_Regular-109"/>
      <path d="M 51.296875 23.890625 
C 51.296875 31.78125 50.703125 36.53125 49.203125 40.375 
C 45.796875 48.859375 37.796875 54 28 54 
C 13.40625 54 4 42.84375 4 25.703125 
C 4 8.546875 13.09375 -2 27.796875 -2 
C 39.796875 -2 48.09375 4.84375 50.203125 16.3125 
L 41.796875 16.3125 
C 39.5 9.34375 34.796875 5.703125 28.09375 5.703125 
C 22.796875 5.703125 18.296875 8.125 15.5 12.578125 
C 13.5 15.59375 12.796875 18.640625 12.703125 23.890625 
z
M 12.90625 31 
C 13.59375 40.265625 19.5 46.28125 27.90625 46.28125 
C 36.09375 46.28125 42.40625 39.53125 42.40625 31 
C 42.40625 31 42.40625 31 42.296875 31 
z
" id="Nimbus_Sans_L_Regular-101"/>
      <path d="M 23.59375 73 
C 13.59375 59.84375 7.296875 41.5625 7.296875 25.796875 
C 7.296875 9.9375 13.59375 -8.34375 23.59375 -21.5 
L 29.09375 -21.5 
C 20.296875 -7.140625 15.40625 9.734375 15.40625 25.796875 
C 15.40625 41.765625 20.296875 58.734375 29.09375 73 
z
" id="Nimbus_Sans_L_Regular-40"/>
      <path d="M 49.5 73 
L 41.203125 73 
L 41.203125 45.890625 
C 37.703125 51.1875 32.09375 54 25.09375 54 
C 11.5 54 2.59375 43.140625 2.59375 26.484375 
C 2.59375 8.84375 11.296875 -2 25.40625 -2 
C 32.59375 -2 37.59375 0.703125 42.09375 7.203125 
L 42.09375 -0.03125 
L 49.5 -0.03125 
z
M 26.5 46.1875 
C 35.5 46.1875 41.203125 38.234375 41.203125 25.796875 
C 41.203125 13.765625 35.40625 5.8125 26.59375 5.8125 
C 17.40625 5.8125 11.296875 13.859375 11.296875 26 
C 11.296875 38.125 17.40625 46.1875 26.5 46.1875 
z
" id="Nimbus_Sans_L_Regular-100"/>
      <path d="M 53.5 5.203125 
C 52.59375 5 52.203125 5 51.703125 5 
C 48.796875 5 47.203125 6.484375 47.203125 9.078125 
L 47.203125 39.765625 
C 47.203125 49.015625 40.40625 54 27.5 54 
C 19.90625 54 13.59375 51.8125 10.09375 47.90625 
C 7.703125 45.203125 6.703125 42.21875 6.5 37.03125 
L 14.90625 37.03125 
C 15.59375 43.390625 19.40625 46.28125 27.203125 46.28125 
C 34.703125 46.28125 38.90625 43.484375 38.90625 38.515625 
L 38.90625 36.328125 
C 38.90625 32.828125 36.796875 31.34375 30.203125 30.546875 
C 18.40625 29.0625 16.59375 28.65625 13.40625 27.359375 
C 7.296875 24.875 4.203125 20.1875 4.203125 13.421875 
C 4.203125 3.96875 10.796875 -2 21.40625 -2 
C 28 -2 33.296875 0.296875 39.203125 5.703125 
C 39.796875 0.390625 42.40625 -2 47.796875 -2 
C 49.5 -2 50.796875 -1.8125 53.5 -1.09375 
z
M 38.90625 16.75 
C 38.90625 13.953125 38.09375 12.265625 35.59375 9.984375 
C 32.203125 6.890625 28.09375 5.3125 23.203125 5.3125 
C 16.703125 5.3125 12.90625 8.390625 12.90625 13.65625 
C 12.90625 19.140625 16.59375 21.921875 25.5 23.21875 
C 34.296875 24.40625 36.09375 24.8125 38.90625 26.09375 
z
" id="Nimbus_Sans_L_Regular-97"/>
      <path d="M 38.796875 52.5 
L 24.296875 11.53125 
L 10.90625 52.5 
L 2 52.5 
L 19.703125 -0.328125 
L 16.5 -8.65625 
C 15.203125 -12.375 13.296875 -13.78125 9.796875 -13.78125 
C 8.59375 -13.78125 7.203125 -13.578125 5.40625 -13.171875 
L 5.40625 -20.703125 
C 7.09375 -21.59375 8.796875 -22 11 -22 
C 13.703125 -22 16.59375 -21.09375 18.796875 -19.484375 
C 21.40625 -17.578125 22.90625 -15.359375 24.5 -11.140625 
L 47.796875 52.5 
z
" id="Nimbus_Sans_L_Regular-121"/>
      <path d="M 43.796875 37.921875 
C 43.703125 48.203125 36.90625 54 24.796875 54 
C 12.59375 54 4.703125 47.71875 4.703125 38.0625 
C 4.703125 29.890625 8.90625 26.015625 21.296875 23.03125 
L 29.09375 21.140625 
C 34.90625 19.734375 37.203125 17.65625 37.203125 13.875 
C 37.203125 9 32.296875 5.703125 25 5.703125 
C 20.5 5.703125 16.703125 7 14.59375 9.1875 
C 13.296875 10.6875 12.703125 12.171875 12.203125 15.84375 
L 3.40625 15.84375 
C 3.796875 3.765625 10.59375 -2 24.296875 -2 
C 37.5 -2 45.90625 4.453125 45.90625 14.515625 
C 45.90625 22.28125 41.5 26.578125 31.09375 29.0625 
L 23.09375 30.953125 
C 16.296875 32.53125 13.40625 34.734375 13.40625 38.40625 
C 13.40625 43.1875 17.703125 46.28125 24.5 46.28125 
C 31.203125 46.28125 34.796875 43.390625 35 37.921875 
z
" id="Nimbus_Sans_L_Regular-115"/>
      <path d="M 9.296875 -21.5 
C 19.296875 -8.34375 25.59375 9.9375 25.59375 25.6875 
C 25.59375 41.5625 19.296875 59.84375 9.296875 73 
L 3.796875 73 
C 12.59375 58.640625 17.5 41.765625 17.5 25.6875 
C 17.5 9.734375 12.59375 -7.25 3.796875 -21.5 
z
" id="Nimbus_Sans_L_Regular-41"/>
     </defs>
     <g transform="translate(150.933227 319.005988)scale(0.2 -0.2)">
      <use transform="scale(0.996264)" xlink:href="#Nimbus_Sans_L_Regular-84"/>
      <use transform="translate(60.871631 0)scale(0.996264)" xlink:href="#Nimbus_Sans_L_Regular-105"/>
      <use transform="translate(82.988415 0)scale(0.996264)" xlink:href="#Nimbus_Sans_L_Regular-109"/>
      <use transform="translate(165.976845 0)scale(0.996264)" xlink:href="#Nimbus_Sans_L_Regular-101"/>
      <use transform="translate(249.063692 0)scale(0.996264)" xlink:href="#Nimbus_Sans_L_Regular-40"/>
      <use transform="translate(282.238922 0)scale(0.996264)" xlink:href="#Nimbus_Sans_L_Regular-100"/>
      <use transform="translate(337.630599 0)scale(0.996264)" xlink:href="#Nimbus_Sans_L_Regular-97"/>
      <use transform="translate(390.034168 0)scale(0.996264)" xlink:href="#Nimbus_Sans_L_Regular-121"/>
      <use transform="translate(439.847368 0)scale(0.996264)" xlink:href="#Nimbus_Sans_L_Regular-115"/>
      <use transform="translate(489.660569 0)scale(0.996264)" xlink:href="#Nimbus_Sans_L_Regular-41"/>
     </g>
    </g>
   </g>
   <g id="matplotlib.axis_2">
    <g id="ytick_1">
     <g id="line2d_4">
      <defs>
       <path d="M 0 0 
L -3.5 0 
" id="m919005e5a3" style="stroke:#000000;stroke-width:0.8;"/>
      </defs>
      <g>
       <use style="stroke:#000000;stroke-width:0.8;" x="86.492958" xlink:href="#m919005e5a3" y="262.986364"/>
      </g>
     </g>
     <g id="text_5">
      <!-- 0.000 -->
      <defs>
       <path d="M 19.09375 10.421875 
L 8.703125 10.421875 
L 8.703125 0 
L 19.09375 0 
z
" id="Nimbus_Sans_L_Regular-46"/>
      </defs>
      <g transform="translate(29.640613 270.084684)scale(0.2 -0.2)">
       <use transform="scale(0.996264)" xlink:href="#Nimbus_Sans_L_Regular-48"/>
       <use transform="translate(55.391677 0)scale(0.996264)" xlink:href="#Nimbus_Sans_L_Regular-46"/>
       <use transform="translate(83.086847 0)scale(0.996264)" xlink:href="#Nimbus_Sans_L_Regular-48"/>
       <use transform="translate(138.478524 0)scale(0.996264)" xlink:href="#Nimbus_Sans_L_Regular-48"/>
       <use transform="translate(193.8702 0)scale(0.996264)" xlink:href="#Nimbus_Sans_L_Regular-48"/>
      </g>
     </g>
    </g>
    <g id="ytick_2">
     <g id="line2d_5">
      <g>
       <use style="stroke:#000000;stroke-width:0.8;" x="86.492958" xlink:href="#m919005e5a3" y="210.082076"/>
      </g>
     </g>
     <g id="text_6">
      <!-- 0.001 -->
      <defs>
       <path d="M 25.90625 50.59375 
L 25.90625 0 
L 34.703125 0 
L 34.703125 71.015625 
L 28.90625 71.015625 
C 25.796875 60.109375 23.796875 58.609375 10.203125 56.90625 
L 10.203125 50.59375 
z
" id="Nimbus_Sans_L_Regular-49"/>
      </defs>
      <g transform="translate(29.640613 217.180397)scale(0.2 -0.2)">
       <use transform="scale(0.996264)" xlink:href="#Nimbus_Sans_L_Regular-48"/>
       <use transform="translate(55.391677 0)scale(0.996264)" xlink:href="#Nimbus_Sans_L_Regular-46"/>
       <use transform="translate(83.086847 0)scale(0.996264)" xlink:href="#Nimbus_Sans_L_Regular-48"/>
       <use transform="translate(138.478524 0)scale(0.996264)" xlink:href="#Nimbus_Sans_L_Regular-48"/>
       <use transform="translate(193.8702 0)scale(0.996264)" xlink:href="#Nimbus_Sans_L_Regular-49"/>
      </g>
     </g>
    </g>
    <g id="ytick_3">
     <g id="line2d_6">
      <g>
       <use style="stroke:#000000;stroke-width:0.8;" x="86.492958" xlink:href="#m919005e5a3" y="157.177789"/>
      </g>
     </g>
     <g id="text_7">
      <!-- 0.002 -->
      <g transform="translate(29.640613 164.276109)scale(0.2 -0.2)">
       <use transform="scale(0.996264)" xlink:href="#Nimbus_Sans_L_Regular-48"/>
       <use transform="translate(55.391677 0)scale(0.996264)" xlink:href="#Nimbus_Sans_L_Regular-46"/>
       <use transform="translate(83.086847 0)scale(0.996264)" xlink:href="#Nimbus_Sans_L_Regular-48"/>
       <use transform="translate(138.478524 0)scale(0.996264)" xlink:href="#Nimbus_Sans_L_Regular-48"/>
       <use transform="translate(193.8702 0)scale(0.996264)" xlink:href="#Nimbus_Sans_L_Regular-50"/>
      </g>
     </g>
    </g>
    <g id="ytick_4">
     <g id="line2d_7">
      <g>
       <use style="stroke:#000000;stroke-width:0.8;" x="86.492958" xlink:href="#m919005e5a3" y="104.273502"/>
      </g>
     </g>
     <g id="text_8">
      <!-- 0.003 -->
      <defs>
       <path d="M 22.09375 33 
L 23.203125 33 
L 26.90625 33 
C 36.59375 33 41.59375 28.59375 41.59375 20.0625 
C 41.59375 11.125 36.09375 5.8125 26.90625 5.8125 
C 17.296875 5.8125 12.59375 10.640625 12 21.015625 
L 3.203125 21.015625 
C 3.59375 15.28125 4.59375 11.5625 6.296875 8.34375 
C 9.90625 1.515625 16.90625 -2 26.59375 -2 
C 41.203125 -2 50.59375 6.734375 50.59375 20.203125 
C 50.59375 29.25 47.09375 34.28125 38.59375 37.203125 
C 45.203125 39.78125 48.5 44.71875 48.5 51.734375 
C 48.5 63.78125 40.40625 71 26.90625 71 
C 12.59375 71 5 63.28125 4.703125 48.359375 
L 13.5 48.359375 
C 13.59375 52.59375 14 54.953125 15.09375 57.109375 
C 17.09375 60.9375 21.5 63.296875 27 63.296875 
C 34.796875 63.296875 39.5 58.75 39.5 51.359375 
C 39.5 46.421875 37.703125 43.453125 33.796875 41.890625 
C 31.40625 40.90625 28.296875 40.5 22.09375 40.5 
z
" id="Nimbus_Sans_L_Regular-51"/>
      </defs>
      <g transform="translate(29.640613 111.371822)scale(0.2 -0.2)">
       <use transform="scale(0.996264)" xlink:href="#Nimbus_Sans_L_Regular-48"/>
       <use transform="translate(55.391677 0)scale(0.996264)" xlink:href="#Nimbus_Sans_L_Regular-46"/>
       <use transform="translate(83.086847 0)scale(0.996264)" xlink:href="#Nimbus_Sans_L_Regular-48"/>
       <use transform="translate(138.478524 0)scale(0.996264)" xlink:href="#Nimbus_Sans_L_Regular-48"/>
       <use transform="translate(193.8702 0)scale(0.996264)" xlink:href="#Nimbus_Sans_L_Regular-51"/>
      </g>
     </g>
    </g>
    <g id="ytick_5">
     <g id="line2d_8">
      <g>
       <use style="stroke:#000000;stroke-width:0.8;" x="86.492958" xlink:href="#m919005e5a3" y="51.369214"/>
      </g>
     </g>
     <g id="text_9">
      <!-- 0.004 -->
      <g transform="translate(29.640613 58.467535)scale(0.2 -0.2)">
       <use transform="scale(0.996264)" xlink:href="#Nimbus_Sans_L_Regular-48"/>
       <use transform="translate(55.391677 0)scale(0.996264)" xlink:href="#Nimbus_Sans_L_Regular-46"/>
       <use transform="translate(83.086847 0)scale(0.996264)" xlink:href="#Nimbus_Sans_L_Regular-48"/>
       <use transform="translate(138.478524 0)scale(0.996264)" xlink:href="#Nimbus_Sans_L_Regular-48"/>
       <use transform="translate(193.8702 0)scale(0.996264)" xlink:href="#Nimbus_Sans_L_Regular-52"/>
      </g>
     </g>
    </g>
    <g id="text_10">
     <!-- Heteroplasmy variance -->
     <defs>
      <path d="M 55.09375 33 
L 55.09375 -0.03125 
L 64.40625 -0.03125 
L 64.40625 73 
L 55.09375 73 
L 55.09375 41.21875 
L 17.59375 41.21875 
L 17.59375 73 
L 8.296875 73 
L 8.296875 -0.03125 
L 17.703125 -0.03125 
L 17.703125 33 
z
" id="Nimbus_Sans_L_Regular-72"/>
      <path d="M 25.40625 52.8125 
L 16.796875 52.8125 
L 16.796875 67 
L 8.5 67 
L 8.5 52.8125 
L 1.40625 52.8125 
L 1.40625 46 
L 8.5 46 
L 8.5 6.3125 
C 8.5 1 12.09375 -2 18.59375 -2 
C 20.59375 -2 22.59375 -1.8125 25.40625 -1.296875 
L 25.40625 5.71875 
C 24.296875 5.40625 23 5.3125 21.40625 5.3125 
C 17.796875 5.3125 16.796875 6.3125 16.796875 10.015625 
L 16.796875 46 
L 25.40625 46 
z
" id="Nimbus_Sans_L_Regular-116"/>
      <path d="M 6.90625 52.484375 
L 6.90625 0 
L 15.296875 0 
L 15.296875 27.203125 
C 15.296875 34.703125 17.203125 39.609375 21.203125 42.5 
C 23.796875 44.40625 26.296875 45 32.09375 45 
L 32.09375 53.625 
C 30.703125 53.8125 30 53.8125 28.90625 53.8125 
C 23.5 53.8125 19.40625 50.625 14.59375 42.90625 
L 14.59375 52.484375 
z
" id="Nimbus_Sans_L_Regular-114"/>
      <path d="M 27.203125 54 
C 12.5 54 3.59375 43.53125 3.59375 25.984375 
C 3.59375 8.453125 12.40625 -2 27.296875 -2 
C 42 -2 51 8.453125 51 25.59375 
C 51 43.625 42.296875 54 27.203125 54 
z
M 27.296875 46.28125 
C 36.703125 46.28125 42.296875 38.625 42.296875 25.703125 
C 42.296875 13.453125 36.5 5.703125 27.296875 5.703125 
C 18 5.703125 12.296875 13.359375 12.296875 25.984375 
C 12.296875 38.53125 18 46.28125 27.296875 46.28125 
z
" id="Nimbus_Sans_L_Regular-111"/>
      <path d="M 5.40625 -22 
L 13.796875 -22 
L 13.796875 5 
C 18.203125 -0.421875 23.09375 -2.8125 29.90625 -2.8125 
C 43.40625 -2.8125 52.296875 8.15625 52.296875 24.984375 
C 52.296875 42.71875 43.703125 53.8125 29.796875 53.8125 
C 22.703125 53.8125 17 50.59375 13.09375 44.390625 
L 13.09375 52.328125 
L 5.40625 52.328125 
z
M 28.40625 46 
C 37.59375 46 43.59375 37.8125 43.59375 25.1875 
C 43.59375 13.171875 37.5 5 28.40625 5 
C 19.59375 5 13.796875 13.078125 13.796875 25.5 
C 13.796875 37.921875 19.59375 46 28.40625 46 
z
" id="Nimbus_Sans_L_Regular-112"/>
      <path d="M 15.203125 73 
L 6.796875 73 
L 6.796875 -0.03125 
L 15.203125 -0.03125 
z
" id="Nimbus_Sans_L_Regular-108"/>
      <path d="M 28.5 0 
L 48.59375 52.5 
L 39.203125 52.5 
L 24.40625 9.921875 
L 10.40625 52.5 
L 1 52.5 
L 19.40625 0 
z
" id="Nimbus_Sans_L_Regular-118"/>
      <path d="M 7 52.484375 
L 7 0 
L 15.40625 0 
L 15.40625 28.953125 
C 15.40625 39.671875 21 46.6875 29.59375 46.6875 
C 36.203125 46.6875 40.40625 42.671875 40.40625 36.359375 
L 40.40625 0 
L 48.703125 0 
L 48.703125 39.671875 
C 48.703125 48.390625 42.203125 54 32.09375 54 
C 24.296875 54 19.296875 50.984375 14.703125 43.6875 
L 14.703125 52.484375 
z
" id="Nimbus_Sans_L_Regular-110"/>
      <path d="M 47.09375 34.9375 
C 46.703125 40.03125 45.59375 43.328125 43.59375 46.21875 
C 40 51.109375 33.703125 54 26.40625 54 
C 12.296875 54 3.09375 42.84375 3.09375 25.5 
C 3.09375 8.65625 12.09375 -2 26.296875 -2 
C 38.796875 -2 46.703125 5.46875 47.703125 18.234375 
L 39.296875 18.234375 
C 37.90625 9.875 33.59375 5.703125 26.5 5.703125 
C 17.296875 5.703125 11.796875 13.171875 11.796875 25.5 
C 11.796875 38.53125 17.203125 46.28125 26.296875 46.28125 
C 33.296875 46.28125 37.703125 42.203125 38.703125 34.9375 
z
" id="Nimbus_Sans_L_Regular-99"/>
     </defs>
     <g transform="translate(21.396641 244.467956)rotate(-90)scale(0.2 -0.2)">
      <use transform="scale(0.996264)" xlink:href="#Nimbus_Sans_L_Regular-72"/>
      <use transform="translate(71.929985 0)scale(0.996264)" xlink:href="#Nimbus_Sans_L_Regular-101"/>
      <use transform="translate(127.321662 0)scale(0.996264)" xlink:href="#Nimbus_Sans_L_Regular-116"/>
      <use transform="translate(155.016831 0)scale(0.996264)" xlink:href="#Nimbus_Sans_L_Regular-101"/>
      <use transform="translate(210.408508 0)scale(0.996264)" xlink:href="#Nimbus_Sans_L_Regular-114"/>
      <use transform="translate(243.583738 0)scale(0.996264)" xlink:href="#Nimbus_Sans_L_Regular-111"/>
      <use transform="translate(298.975415 0)scale(0.996264)" xlink:href="#Nimbus_Sans_L_Regular-112"/>
      <use transform="translate(354.367092 0)scale(0.996264)" xlink:href="#Nimbus_Sans_L_Regular-108"/>
      <use transform="translate(376.483876 0)scale(0.996264)" xlink:href="#Nimbus_Sans_L_Regular-97"/>
      <use transform="translate(431.875553 0)scale(0.996264)" xlink:href="#Nimbus_Sans_L_Regular-115"/>
      <use transform="translate(481.688754 0)scale(0.996264)" xlink:href="#Nimbus_Sans_L_Regular-109"/>
      <use transform="translate(563.183791 0)scale(0.996264)" xlink:href="#Nimbus_Sans_L_Regular-121"/>
      <use transform="translate(640.692161 0)scale(0.996264)" xlink:href="#Nimbus_Sans_L_Regular-118"/>
      <use transform="translate(688.014732 0)scale(0.996264)" xlink:href="#Nimbus_Sans_L_Regular-97"/>
      <use transform="translate(743.406409 0)scale(0.996264)" xlink:href="#Nimbus_Sans_L_Regular-114"/>
      <use transform="translate(778.075017 0)scale(0.996264)" xlink:href="#Nimbus_Sans_L_Regular-105"/>
      <use transform="translate(800.191801 0)scale(0.996264)" xlink:href="#Nimbus_Sans_L_Regular-97"/>
      <use transform="translate(855.583478 0)scale(0.996264)" xlink:href="#Nimbus_Sans_L_Regular-110"/>
      <use transform="translate(910.975155 0)scale(0.996264)" xlink:href="#Nimbus_Sans_L_Regular-99"/>
      <use transform="translate(960.788355 0)scale(0.996264)" xlink:href="#Nimbus_Sans_L_Regular-101"/>
     </g>
    </g>
   </g>
   <g id="line2d_9">
    <defs>
     <path d="M -0 7.071068 
L 4.242641 0 
L -0 -7.071068 
L -4.242641 -0 
z
" id="ma1f39446ca" style="stroke:#3ec100;stroke-linejoin:miter;"/>
    </defs>
    <g clip-path="url(#p84f0a028e5)">
     <use style="fill:#3ec100;opacity:0.4;stroke:#3ec100;stroke-linejoin:miter;" x="97.104215" xlink:href="#ma1f39446ca" y="262.986364"/>
     <use style="fill:#3ec100;opacity:0.4;stroke:#3ec100;stroke-linejoin:miter;" x="114.082227" xlink:href="#ma1f39446ca" y="255.777245"/>
     <use style="fill:#3ec100;opacity:0.4;stroke:#3ec100;stroke-linejoin:miter;" x="131.060238" xlink:href="#ma1f39446ca" y="248.514565"/>
     <use style="fill:#3ec100;opacity:0.4;stroke:#3ec100;stroke-linejoin:miter;" x="148.038249" xlink:href="#ma1f39446ca" y="241.553707"/>
     <use style="fill:#3ec100;opacity:0.4;stroke:#3ec100;stroke-linejoin:miter;" x="165.016261" xlink:href="#ma1f39446ca" y="234.287708"/>
     <use style="fill:#3ec100;opacity:0.4;stroke:#3ec100;stroke-linejoin:miter;" x="181.994272" xlink:href="#ma1f39446ca" y="227.094518"/>
     <use style="fill:#3ec100;opacity:0.4;stroke:#3ec100;stroke-linejoin:miter;" x="198.972283" xlink:href="#ma1f39446ca" y="219.937517"/>
     <use style="fill:#3ec100;opacity:0.4;stroke:#3ec100;stroke-linejoin:miter;" x="215.950294" xlink:href="#ma1f39446ca" y="212.484961"/>
     <use style="fill:#3ec100;opacity:0.4;stroke:#3ec100;stroke-linejoin:miter;" x="232.928306" xlink:href="#ma1f39446ca" y="205.142215"/>
     <use style="fill:#3ec100;opacity:0.4;stroke:#3ec100;stroke-linejoin:miter;" x="249.906317" xlink:href="#ma1f39446ca" y="197.972615"/>
     <use style="fill:#3ec100;opacity:0.4;stroke:#3ec100;stroke-linejoin:miter;" x="266.884328" xlink:href="#ma1f39446ca" y="190.818431"/>
     <use style="fill:#3ec100;opacity:0.4;stroke:#3ec100;stroke-linejoin:miter;" x="283.862339" xlink:href="#ma1f39446ca" y="183.750923"/>
     <use style="fill:#3ec100;opacity:0.4;stroke:#3ec100;stroke-linejoin:miter;" x="300.840351" xlink:href="#ma1f39446ca" y="176.403743"/>
    </g>
   </g>
   <g id="line2d_10">
    <path clip-path="url(#p84f0a028e5)" d="M 97.104215 262.986364 
L 101.348718 261.195624 
L 105.593221 259.404885 
L 109.837724 257.614146 
L 114.082227 255.823407 
L 118.32673 254.032667 
L 122.571232 252.241928 
L 126.815735 250.451189 
L 131.060238 248.660449 
L 135.304741 246.86971 
L 139.549244 245.078971 
L 143.793746 243.288232 
L 148.038249 241.497492 
L 152.282752 239.706753 
L 156.527255 237.916014 
L 160.771758 236.125275 
L 165.016261 234.334535 
L 169.260763 232.543796 
L 173.505266 230.753057 
L 177.749769 228.962318 
L 181.994272 227.171578 
L 186.238775 225.380839 
L 190.483277 223.5901 
L 194.72778 221.79936 
L 198.972283 220.008621 
L 203.216786 218.217882 
L 207.461289 216.427143 
L 211.705792 214.636403 
L 215.950294 212.845664 
L 220.194797 211.054925 
L 224.4393 209.264186 
L 228.683803 207.473446 
L 232.928306 205.682707 
L 237.172808 203.891968 
L 241.417311 202.101228 
L 245.661814 200.310489 
L 249.906317 198.51975 
L 254.15082 196.729011 
L 258.395322 194.938271 
L 262.639825 193.147532 
L 266.884328 191.356793 
L 271.128831 189.566054 
L 275.373334 187.775314 
L 279.617837 185.984575 
L 283.862339 184.193836 
L 288.106842 182.403097 
L 292.351345 180.612357 
L 296.595848 178.821618 
L 300.840351 177.030879 
L 305.084853 175.240139 
L 309.329356 173.4494 
" style="fill:none;stroke:#3ec100;stroke-linecap:square;stroke-width:1.5;"/>
   </g>
   <g id="line2d_11">
    <defs>
     <path d="M 0 5 
C 1.326016 5 2.597899 4.473168 3.535534 3.535534 
C 4.473168 2.597899 5 1.326016 5 0 
C 5 -1.326016 4.473168 -2.597899 3.535534 -3.535534 
C 2.597899 -4.473168 1.326016 -5 0 -5 
C -1.326016 -5 -2.597899 -4.473168 -3.535534 -3.535534 
C -4.473168 -2.597899 -5 -1.326016 -5 0 
C -5 1.326016 -4.473168 2.597899 -3.535534 3.535534 
C -2.597899 4.473168 -1.326016 5 0 5 
z
" id="m7662653400" style="stroke:#be4100;"/>
    </defs>
    <g clip-path="url(#p84f0a028e5)">
     <use style="fill:#be4100;opacity:0.4;stroke:#be4100;" x="97.104215" xlink:href="#m7662653400" y="262.986364"/>
     <use style="fill:#be4100;opacity:0.4;stroke:#be4100;" x="114.082227" xlink:href="#m7662653400" y="248.071997"/>
     <use style="fill:#be4100;opacity:0.4;stroke:#be4100;" x="131.060238" xlink:href="#m7662653400" y="233.044551"/>
     <use style="fill:#be4100;opacity:0.4;stroke:#be4100;" x="148.038249" xlink:href="#m7662653400" y="218.976535"/>
     <use style="fill:#be4100;opacity:0.4;stroke:#be4100;" x="165.016261" xlink:href="#m7662653400" y="205.109935"/>
     <use style="fill:#be4100;opacity:0.4;stroke:#be4100;" x="181.994272" xlink:href="#m7662653400" y="191.006719"/>
     <use style="fill:#be4100;opacity:0.4;stroke:#be4100;" x="198.972283" xlink:href="#m7662653400" y="177.553706"/>
     <use style="fill:#be4100;opacity:0.4;stroke:#be4100;" x="215.950294" xlink:href="#m7662653400" y="162.718835"/>
     <use style="fill:#be4100;opacity:0.4;stroke:#be4100;" x="232.928306" xlink:href="#m7662653400" y="149.052932"/>
     <use style="fill:#be4100;opacity:0.4;stroke:#be4100;" x="249.906317" xlink:href="#m7662653400" y="134.110346"/>
     <use style="fill:#be4100;opacity:0.4;stroke:#be4100;" x="266.884328" xlink:href="#m7662653400" y="118.733788"/>
     <use style="fill:#be4100;opacity:0.4;stroke:#be4100;" x="283.862339" xlink:href="#m7662653400" y="104.768718"/>
     <use style="fill:#be4100;opacity:0.4;stroke:#be4100;" x="300.840351" xlink:href="#m7662653400" y="90.618308"/>
    </g>
   </g>
   <g id="line2d_12">
    <path clip-path="url(#p84f0a028e5)" d="M 97.104215 262.986364 
L 101.348718 259.404885 
L 105.593221 255.823407 
L 109.837724 252.241928 
L 114.082227 248.660449 
L 118.32673 245.078971 
L 122.571232 241.497492 
L 126.815735 237.916014 
L 131.060238 234.334535 
L 135.304741 230.753057 
L 139.549244 227.171578 
L 143.793746 223.5901 
L 148.038249 220.008621 
L 152.282752 216.427143 
L 156.527255 212.845664 
L 160.771758 209.264186 
L 165.016261 205.682707 
L 169.260763 202.101228 
L 173.505266 198.51975 
L 177.749769 194.938271 
L 181.994272 191.356793 
L 186.238775 187.775314 
L 190.483277 184.193836 
L 194.72778 180.612357 
L 198.972283 177.030879 
L 203.216786 173.4494 
L 207.461289 169.867922 
L 211.705792 166.286443 
L 215.950294 162.704965 
L 220.194797 159.123486 
L 224.4393 155.542007 
L 228.683803 151.960529 
L 232.928306 148.37905 
L 237.172808 144.797572 
L 241.417311 141.216093 
L 245.661814 137.634615 
L 249.906317 134.053136 
L 254.15082 130.471658 
L 258.395322 126.890179 
L 262.639825 123.308701 
L 266.884328 119.727222 
L 271.128831 116.145744 
L 275.373334 112.564265 
L 279.617837 108.982786 
L 283.862339 105.401308 
L 288.106842 101.819829 
L 292.351345 98.238351 
L 296.595848 94.656872 
L 300.840351 91.075394 
L 305.084853 87.493915 
L 309.329356 83.912437 
" style="fill:none;stroke:#be4100;stroke-linecap:square;stroke-width:1.5;"/>
   </g>
   <g id="line2d_13">
    <defs>
     <path d="M -5 5 
L 5 5 
L 5 -5 
L -5 -5 
z
" id="m1c8bbbc0b7" style="stroke:#c0003f;stroke-linejoin:miter;"/>
    </defs>
    <g clip-path="url(#p84f0a028e5)">
     <use style="fill:#c0003f;opacity:0.4;stroke:#c0003f;stroke-linejoin:miter;" x="97.104215" xlink:href="#m1c8bbbc0b7" y="262.986364"/>
     <use style="fill:#c0003f;opacity:0.4;stroke:#c0003f;stroke-linejoin:miter;" x="114.082227" xlink:href="#m1c8bbbc0b7" y="246.274204"/>
     <use style="fill:#c0003f;opacity:0.4;stroke:#c0003f;stroke-linejoin:miter;" x="131.060238" xlink:href="#m1c8bbbc0b7" y="229.3642"/>
     <use style="fill:#c0003f;opacity:0.4;stroke:#c0003f;stroke-linejoin:miter;" x="148.038249" xlink:href="#m1c8bbbc0b7" y="212.629715"/>
     <use style="fill:#c0003f;opacity:0.4;stroke:#c0003f;stroke-linejoin:miter;" x="165.016261" xlink:href="#m1c8bbbc0b7" y="195.813933"/>
     <use style="fill:#c0003f;opacity:0.4;stroke:#c0003f;stroke-linejoin:miter;" x="181.994272" xlink:href="#m1c8bbbc0b7" y="179.017988"/>
     <use style="fill:#c0003f;opacity:0.4;stroke:#c0003f;stroke-linejoin:miter;" x="198.972283" xlink:href="#m1c8bbbc0b7" y="161.145774"/>
     <use style="fill:#c0003f;opacity:0.4;stroke:#c0003f;stroke-linejoin:miter;" x="215.950294" xlink:href="#m1c8bbbc0b7" y="145.829358"/>
     <use style="fill:#c0003f;opacity:0.4;stroke:#c0003f;stroke-linejoin:miter;" x="232.928306" xlink:href="#m1c8bbbc0b7" y="128.173681"/>
     <use style="fill:#c0003f;opacity:0.4;stroke:#c0003f;stroke-linejoin:miter;" x="249.906317" xlink:href="#m1c8bbbc0b7" y="110.66952"/>
     <use style="fill:#c0003f;opacity:0.4;stroke:#c0003f;stroke-linejoin:miter;" x="266.884328" xlink:href="#m1c8bbbc0b7" y="93.228016"/>
     <use style="fill:#c0003f;opacity:0.4;stroke:#c0003f;stroke-linejoin:miter;" x="283.862339" xlink:href="#m1c8bbbc0b7" y="75.935186"/>
     <use style="fill:#c0003f;opacity:0.4;stroke:#c0003f;stroke-linejoin:miter;" x="300.840351" xlink:href="#m1c8bbbc0b7" y="59.633457"/>
    </g>
   </g>
   <g id="line2d_14">
    <path clip-path="url(#p84f0a028e5)" d="M 97.104215 262.986364 
L 101.348718 258.818707 
L 105.593221 254.65105 
L 109.837724 250.483393 
L 114.082227 246.315736 
L 118.32673 242.148079 
L 122.571232 237.980422 
L 126.815735 233.812765 
L 131.060238 229.645108 
L 135.304741 225.477451 
L 139.549244 221.309795 
L 143.793746 217.142138 
L 148.038249 212.974481 
L 152.282752 208.806824 
L 156.527255 204.639167 
L 160.771758 200.47151 
L 165.016261 196.303853 
L 169.260763 192.136196 
L 173.505266 187.968539 
L 177.749769 183.800882 
L 181.994272 179.633225 
L 186.238775 175.465569 
L 190.483277 171.297912 
L 194.72778 167.130255 
L 198.972283 162.962598 
L 203.216786 158.794941 
L 207.461289 154.627284 
L 211.705792 150.459627 
L 215.950294 146.29197 
L 220.194797 142.124313 
L 224.4393 137.956656 
L 228.683803 133.788999 
L 232.928306 129.621342 
L 237.172808 125.453686 
L 241.417311 121.286029 
L 245.661814 117.118372 
L 249.906317 112.950715 
L 254.15082 108.783058 
L 258.395322 104.615401 
L 262.639825 100.447744 
L 266.884328 96.280087 
L 271.128831 92.11243 
L 275.373334 87.944773 
L 279.617837 83.777116 
L 283.862339 79.60946 
L 288.106842 75.441803 
L 292.351345 71.274146 
L 296.595848 67.106489 
L 300.840351 62.938832 
L 305.084853 58.771175 
L 309.329356 54.603518 
" style="fill:none;stroke:#c0003f;stroke-linecap:square;stroke-width:1.5;"/>
   </g>
   <g id="line2d_15">
    <defs>
     <path d="M 0 -5 
L -5 5 
L 5 5 
z
" id="mdc3212b0fc" style="stroke:#4000bf;stroke-linejoin:miter;"/>
    </defs>
    <g clip-path="url(#p84f0a028e5)">
     <use style="fill:#4000bf;opacity:0.4;stroke:#4000bf;stroke-linejoin:miter;" x="97.104215" xlink:href="#mdc3212b0fc" y="262.986364"/>
     <use style="fill:#4000bf;opacity:0.4;stroke:#4000bf;stroke-linejoin:miter;" x="114.082227" xlink:href="#mdc3212b0fc" y="243.947761"/>
     <use style="fill:#4000bf;opacity:0.4;stroke:#4000bf;stroke-linejoin:miter;" x="131.060238" xlink:href="#mdc3212b0fc" y="224.479488"/>
     <use style="fill:#4000bf;opacity:0.4;stroke:#4000bf;stroke-linejoin:miter;" x="148.038249" xlink:href="#mdc3212b0fc" y="205.355074"/>
     <use style="fill:#4000bf;opacity:0.4;stroke:#4000bf;stroke-linejoin:miter;" x="165.016261" xlink:href="#mdc3212b0fc" y="185.2381"/>
     <use style="fill:#4000bf;opacity:0.4;stroke:#4000bf;stroke-linejoin:miter;" x="181.994272" xlink:href="#mdc3212b0fc" y="164.772584"/>
     <use style="fill:#4000bf;opacity:0.4;stroke:#4000bf;stroke-linejoin:miter;" x="198.972283" xlink:href="#mdc3212b0fc" y="144.69272"/>
     <use style="fill:#4000bf;opacity:0.4;stroke:#4000bf;stroke-linejoin:miter;" x="215.950294" xlink:href="#mdc3212b0fc" y="124.213042"/>
     <use style="fill:#4000bf;opacity:0.4;stroke:#4000bf;stroke-linejoin:miter;" x="232.928306" xlink:href="#mdc3212b0fc" y="104.071651"/>
     <use style="fill:#4000bf;opacity:0.4;stroke:#4000bf;stroke-linejoin:miter;" x="249.906317" xlink:href="#mdc3212b0fc" y="83.909661"/>
     <use style="fill:#4000bf;opacity:0.4;stroke:#4000bf;stroke-linejoin:miter;" x="266.884328" xlink:href="#mdc3212b0fc" y="64.021628"/>
     <use style="fill:#4000bf;opacity:0.4;stroke:#4000bf;stroke-linejoin:miter;" x="283.862339" xlink:href="#mdc3212b0fc" y="43.431199"/>
     <use style="fill:#4000bf;opacity:0.4;stroke:#4000bf;stroke-linejoin:miter;" x="300.840351" xlink:href="#mdc3212b0fc" y="22.713636"/>
    </g>
   </g>
   <g id="line2d_16">
    <path clip-path="url(#p84f0a028e5)" d="M 97.104215 262.986364 
L 101.348718 258.223327 
L 105.593221 253.460291 
L 109.837724 248.697254 
L 114.082227 243.934218 
L 118.32673 239.171181 
L 122.571232 234.408145 
L 126.815735 229.645108 
L 131.060238 224.882072 
L 135.304741 220.119035 
L 139.549244 215.355999 
L 143.793746 210.592962 
L 148.038249 205.829926 
L 152.282752 201.06689 
L 156.527255 196.303853 
L 160.771758 191.540817 
L 165.016261 186.77778 
L 169.260763 182.014744 
L 173.505266 177.251707 
L 177.749769 172.488671 
L 181.994272 167.725634 
L 186.238775 162.962598 
L 190.483277 158.199561 
L 194.72778 153.436525 
L 198.972283 148.673488 
L 203.216786 143.910452 
L 207.461289 139.147415 
L 211.705792 134.384379 
L 215.950294 129.621342 
L 220.194797 124.858306 
L 224.4393 120.09527 
L 228.683803 115.332233 
L 232.928306 110.569197 
L 237.172808 105.80616 
L 241.417311 101.043124 
L 245.661814 96.280087 
L 249.906317 91.517051 
L 254.15082 86.754014 
L 258.395322 81.990978 
L 262.639825 77.227941 
L 266.884328 72.464905 
L 271.128831 67.701868 
L 275.373334 62.938832 
L 279.617837 58.175795 
L 283.862339 53.412759 
L 288.106842 48.649722 
L 292.351345 43.886686 
L 296.595848 39.12365 
L 300.840351 34.360613 
L 305.084853 29.597577 
L 309.329356 24.83454 
" style="fill:none;stroke:#4000bf;stroke-linecap:square;stroke-width:1.5;"/>
   </g>
   <g id="patch_3">
    <path d="M 86.492958 275 
L 86.492958 10.7 
" style="fill:none;stroke:#000000;stroke-linecap:square;stroke-linejoin:miter;stroke-width:0.8;"/>
   </g>
   <g id="patch_4">
    <path d="M 319.940613 275 
L 319.940613 10.7 
" style="fill:none;stroke:#000000;stroke-linecap:square;stroke-linejoin:miter;stroke-width:0.8;"/>
   </g>
   <g id="patch_5">
    <path d="M 86.492958 275 
L 319.940613 275 
" style="fill:none;stroke:#000000;stroke-linecap:square;stroke-linejoin:miter;stroke-width:0.8;"/>
   </g>
   <g id="patch_6">
    <path d="M 86.492958 10.7 
L 319.940613 10.7 
" style="fill:none;stroke:#000000;stroke-linecap:square;stroke-linejoin:miter;stroke-width:0.8;"/>
   </g>
   <g id="legend_1">
    <g id="patch_7">
     <path d="M 93.492958 75.581227 
L 199.808301 75.581227 
Q 201.808301 75.581227 201.808301 73.581227 
L 201.808301 17.7 
Q 201.808301 15.7 199.808301 15.7 
L 93.492958 15.7 
Q 91.492958 15.7 91.492958 17.7 
L 91.492958 73.581227 
Q 91.492958 75.581227 93.492958 75.581227 
z
" style="fill:#ffffff;opacity:0.8;stroke:#cccccc;stroke-linejoin:miter;"/>
    </g>
    <g id="line2d_17"/>
    <g id="line2d_18">
     <g>
      <use style="fill:#3ec100;opacity:0.4;stroke:#3ec100;stroke-linejoin:miter;" x="105.492958" xlink:href="#ma1f39446ca" y="23.29832"/>
     </g>
    </g>
    <g id="text_11">
     <!-- 0.75 $\cdot \mu, \kappa =$ 259 -->
     <defs>
      <path d="M 52 70.703125 
L 4.59375 70.703125 
L 4.59375 62 
L 42.90625 62 
C 26 37.78125 19.09375 22.90625 13.796875 -0.5 
L 23.203125 -0.5 
C 27.09375 22.296875 36 41.890625 52 63.296875 
z
" id="Nimbus_Sans_L_Regular-55"/>
      <path d="M 47.59375 71 
L 11 71 
L 5.703125 32.59375 
L 13.796875 32.59375 
C 17.90625 37.484375 21.296875 39.1875 26.796875 39.1875 
C 36.296875 39.1875 42.296875 32.6875 42.296875 22.203125 
C 42.296875 12 36.40625 5.8125 26.796875 5.8125 
C 19.09375 5.8125 14.40625 9.703125 12.296875 17.703125 
L 3.5 17.703125 
C 4.703125 11.90625 5.703125 9.09375 7.796875 6.484375 
C 11.796875 1.09375 19 -2 27 -2 
C 41.296875 -2 51.296875 8.390625 51.296875 23.390625 
C 51.296875 37.40625 42 47 28.40625 47 
C 23.40625 47 19.40625 45.703125 15.296875 42.6875 
L 18.09375 62.296875 
L 47.59375 62.296875 
z
" id="Nimbus_Sans_L_Regular-53"/>
      <path d="M 19.203125 25.296875 
C 19.203125 28.203125 16.796875 30.59375 13.90625 30.59375 
C 11 30.59375 8.59375 28.203125 8.59375 25.296875 
C 8.59375 22.390625 11 20 13.90625 20 
C 16.796875 20 19.203125 22.390625 19.203125 25.296875 
z
" id="CMSY10-1"/>
      <path d="M 14.40625 2.1875 
C 16.90625 -0.09375 20.59375 -1 24 -1 
C 30.40625 -1 34.796875 3.25 37.09375 6.328125 
C 38.09375 1.078125 42.296875 -1 45.796875 -1 
C 48.796875 -1 51.203125 0.78125 53 4.328125 
C 54.59375 7.703125 56 13.734375 56 14.109375 
C 56 14.609375 55.59375 15 55 15 
C 54.09375 15 54 14.5 53.59375 13.03125 
C 52.09375 7.203125 50.203125 1 46.09375 1 
C 43.203125 1 43 3.578125 43 5.59375 
C 43 7.875 43.90625 11.484375 44.59375 14.46875 
L 47.40625 25.234375 
C 47.796875 27.140625 48.90625 31.609375 49.40625 33.421875 
C 50 35.8125 51.09375 40.109375 51.09375 40.5 
C 51.09375 42 49.90625 43 48.40625 43 
C 47.5 43 45.40625 42.59375 44.59375 39.609375 
L 37.59375 11.875 
C 37.09375 9.875 37.09375 9.671875 35.796875 8.078125 
C 34.59375 6.390625 30.703125 1 24.40625 1 
C 18.796875 1 17 5.09375 17 9.765625 
C 17 12.671875 17.90625 16.15625 18.296875 17.859375 
L 22.796875 35.828125 
C 23.296875 37.71875 24.09375 40.90625 24.09375 41.515625 
C 24.09375 43.109375 22.796875 44 21.5 44 
C 20.59375 44 18.40625 43.703125 17.59375 40.5 
L 3.09375 -17.296875 
C 3 -17.796875 2.796875 -18.390625 2.796875 -19 
C 2.796875 -20.5 4 -21.5 5.5 -21.5 
C 8.40625 -21.5 9 -19.1875 9.703125 -16.40625 
z
" id="CMMI12-22"/>
      <path d="M 19.5 -0.484375 
C 19.5 5.359375 17.59375 9.671875 13.5 9.671875 
C 10.296875 9.671875 8.703125 7.078125 8.703125 4.890625 
C 8.703125 2.6875 10.203125 0 13.59375 0 
C 14.90625 0 16 0.40625 16.90625 1.296875 
C 17.09375 1.5 17.203125 1.5 17.296875 1.5 
C 17.5 1.5 17.5 0.078125 17.5 -0.421875 
C 17.5 -3.75 16.90625 -10.296875 11.09375 -16.875 
C 10 -18.078125 10 -18.28125 10 -18.484375 
C 10 -19 10.5 -19.5 11 -19.5 
C 11.796875 -19.5 19.5 -12.046875 19.5 -0.484375 
z
" id="CMMI12-59"/>
      <path d="M 21.296875 25 
C 24.59375 26.78125 28.296875 29.875 30.796875 31.96875 
C 36.796875 37.140625 39 38.734375 42.796875 40.21875 
C 42.40625 39.625 42.296875 38.828125 42.296875 38.140625 
C 42.296875 35.4375 44.59375 34.9375 45.59375 34.9375 
C 48.796875 34.9375 50.59375 37.921875 50.59375 39.8125 
C 50.59375 40.40625 50.40625 43 46.90625 43 
C 40.90625 43 35 37.984375 30.59375 34.34375 
C 24.796875 29.3125 21.90625 27.15625 17.796875 25.875 
L 21.59375 41.5 
C 21.59375 43.109375 20.296875 44 19 44 
C 18.09375 44 15.90625 43.703125 15.09375 40.5 
L 5.796875 3.5 
C 5.5 2.3125 5.5 2.09375 5.5 1.5 
C 5.5 0.09375 6.59375 -1 8.09375 -1 
C 11.09375 -1 11.703125 1.65625 12.203125 3.8125 
C 12.796875 5.9375 16.90625 23 17.09375 23 
C 29.796875 23 34.09375 19.75 34.09375 14.734375 
C 34.09375 14.015625 34.09375 13.71875 33.796875 12.59375 
C 33.40625 10.65625 33.40625 9.515625 33.40625 8.90625 
C 33.40625 2.78125 37.296875 -1 42.203125 -1 
C 46.296875 -1 48.59375 1.921875 50.09375 4.546875 
C 52.203125 8.484375 53.5 14.03125 53.5 14.421875 
C 53.5 14.9375 53.09375 15.328125 52.5 15.328125 
C 51.59375 15.328125 51.5 14.9375 51.09375 13.3125 
C 49.796875 8.46875 47.59375 1 42.5 1 
C 40.296875 1 39.203125 2.3125 39.203125 5.84375 
C 39.203125 7.78125 39.59375 10.015625 40 11.515625 
C 40.203125 12.53125 40.5 13.75 40.5 14.859375 
C 40.5 24.078125 27.90625 25 21.296875 25 
z
" id="CMMI12-20"/>
      <path d="M 64.296875 31.515625 
C 65.796875 31.515625 67.296875 31.515625 67.296875 33.203125 
C 67.296875 35 65.59375 35 63.90625 35 
L 8 35 
C 6.296875 35 4.59375 35 4.59375 33.203125 
C 4.59375 31.515625 6.09375 31.515625 7.59375 31.515625 
z
M 63.90625 14 
C 65.59375 14 67.296875 14 67.296875 15.796875 
C 67.296875 17.484375 65.796875 17.484375 64.296875 17.484375 
L 7.59375 17.484375 
C 6.09375 17.484375 4.59375 17.484375 4.59375 15.796875 
C 4.59375 14 6.296875 14 8 14 
z
" id="CMR17-61"/>
      <path d="M 5.296875 16.625 
C 7 4.9375 14.59375 -2 25.40625 -2 
C 33.203125 -2 40.296875 1.78125 44.40625 8.0625 
C 48.90625 14.9375 50.90625 23.625 50.90625 36.484375 
C 50.90625 48.359375 49.09375 55.9375 44.90625 62.21875 
C 41 67.921875 34.796875 71 27 71 
C 13.5 71 3.796875 61.078125 3.796875 47.296875 
C 3.796875 34.21875 12.796875 25 25.59375 25 
C 32.296875 25 37.203125 27.40625 41.796875 32.90625 
C 41.703125 15.484375 36.09375 5.8125 26 5.8125 
C 19.796875 5.8125 15.5 9.75 14.09375 16.625 
z
M 26.90625 63.296875 
C 35.09375 63.296875 41.296875 56.59375 41.296875 47.515625 
C 41.296875 38.921875 35.203125 32.8125 26.59375 32.8125 
C 18.09375 32.8125 12.796875 38.625 12.796875 48 
C 12.796875 56.875 18.796875 63.296875 26.90625 63.296875 
z
" id="Nimbus_Sans_L_Regular-57"/>
     </defs>
     <g transform="translate(123.492958 26.79832)scale(0.1 -0.1)">
      <use transform="scale(0.996264)" xlink:href="#Nimbus_Sans_L_Regular-48"/>
      <use transform="translate(55.391677 0)scale(0.996264)" xlink:href="#Nimbus_Sans_L_Regular-46"/>
      <use transform="translate(83.086847 0)scale(0.996264)" xlink:href="#Nimbus_Sans_L_Regular-55"/>
      <use transform="translate(138.478524 0)scale(0.996264)" xlink:href="#Nimbus_Sans_L_Regular-53"/>
      <use transform="translate(221.56537 0)scale(0.996264)" xlink:href="#CMSY10-1"/>
      <use transform="translate(249.239455 0)scale(0.996264)" xlink:href="#CMMI12-22"/>
      <use transform="translate(307.930876 0)scale(0.996264)" xlink:href="#CMMI12-59"/>
      <use transform="translate(351.632459 0)scale(0.996264)" xlink:href="#CMMI12-20"/>
      <use transform="translate(435.461091 0)scale(0.996264)" xlink:href="#CMR17-61"/>
      <use transform="translate(534.871049 0)scale(0.996264)" xlink:href="#Nimbus_Sans_L_Regular-50"/>
      <use transform="translate(590.262726 0)scale(0.996264)" xlink:href="#Nimbus_Sans_L_Regular-53"/>
      <use transform="translate(645.654403 0)scale(0.996264)" xlink:href="#Nimbus_Sans_L_Regular-57"/>
     </g>
    </g>
    <g id="line2d_19"/>
    <g id="line2d_20">
     <g>
      <use style="fill:#be4100;opacity:0.4;stroke:#be4100;" x="105.492958" xlink:href="#m7662653400" y="37.518627"/>
     </g>
    </g>
    <g id="text_12">
     <!-- 1.50 $\cdot \mu, \kappa =$ -483 -->
     <defs>
      <path d="M 28.40625 31.203125 
L 4.59375 31.203125 
L 4.59375 24 
L 28.40625 24 
z
" id="Nimbus_Sans_L_Regular-45"/>
      <path d="M 39.09375 37.484375 
C 46.40625 41.875 48.796875 45.46875 48.796875 52.15625 
C 48.796875 63.21875 40.09375 71 27.5 71 
C 15 71 6.203125 63.21875 6.203125 52.15625 
C 6.203125 45.578125 8.59375 41.984375 15.796875 37.484375 
C 7.703125 33.59375 3.703125 27.71875 3.703125 19.9375 
C 3.703125 6.96875 13.5 -2 27.5 -2 
C 41.5 -2 51.296875 6.984375 51.296875 19.84375 
C 51.296875 27.71875 47.296875 33.59375 39.09375 37.484375 
z
M 27.5 63.1875 
C 35 63.1875 39.796875 58.8125 39.796875 51.953125 
C 39.796875 45.375 34.90625 41 27.5 41 
C 20.09375 41 15.203125 45.375 15.203125 52.046875 
C 15.203125 58.8125 20.09375 63.1875 27.5 63.1875 
z
M 27.5 33.578125 
C 36.296875 33.578125 42.296875 28 42.296875 19.734375 
C 42.296875 11.390625 36.296875 5.8125 27.296875 5.8125 
C 18.703125 5.8125 12.703125 11.484375 12.703125 19.734375 
C 12.703125 28 18.703125 33.578125 27.5 33.578125 
z
" id="Nimbus_Sans_L_Regular-56"/>
     </defs>
     <g transform="translate(123.492958 41.018627)scale(0.1 -0.1)">
      <use transform="scale(0.996264)" xlink:href="#Nimbus_Sans_L_Regular-49"/>
      <use transform="translate(55.391677 0)scale(0.996264)" xlink:href="#Nimbus_Sans_L_Regular-46"/>
      <use transform="translate(83.086847 0)scale(0.996264)" xlink:href="#Nimbus_Sans_L_Regular-53"/>
      <use transform="translate(138.478524 0)scale(0.996264)" xlink:href="#Nimbus_Sans_L_Regular-48"/>
      <use transform="translate(221.56537 0)scale(0.996264)" xlink:href="#CMSY10-1"/>
      <use transform="translate(249.239455 0)scale(0.996264)" xlink:href="#CMMI12-22"/>
      <use transform="translate(307.930876 0)scale(0.996264)" xlink:href="#CMMI12-59"/>
      <use transform="translate(351.632459 0)scale(0.996264)" xlink:href="#CMMI12-20"/>
      <use transform="translate(435.461091 0)scale(0.996264)" xlink:href="#CMR17-61"/>
      <use transform="translate(534.871049 0)scale(0.996264)" xlink:href="#Nimbus_Sans_L_Regular-45"/>
      <use transform="translate(568.046279 0)scale(0.996264)" xlink:href="#Nimbus_Sans_L_Regular-52"/>
      <use transform="translate(623.437956 0)scale(0.996264)" xlink:href="#Nimbus_Sans_L_Regular-56"/>
      <use transform="translate(678.829633 0)scale(0.996264)" xlink:href="#Nimbus_Sans_L_Regular-51"/>
     </g>
    </g>
    <g id="line2d_21"/>
    <g id="line2d_22">
     <g>
      <use style="fill:#c0003f;opacity:0.4;stroke:#c0003f;stroke-linejoin:miter;" x="105.492958" xlink:href="#m1c8bbbc0b7" y="51.738934"/>
     </g>
    </g>
    <g id="text_13">
     <!-- 1.75 $\cdot \mu, \kappa =$ -730 -->
     <g transform="translate(123.492958 55.238934)scale(0.1 -0.1)">
      <use transform="scale(0.996264)" xlink:href="#Nimbus_Sans_L_Regular-49"/>
      <use transform="translate(55.391677 0)scale(0.996264)" xlink:href="#Nimbus_Sans_L_Regular-46"/>
      <use transform="translate(83.086847 0)scale(0.996264)" xlink:href="#Nimbus_Sans_L_Regular-55"/>
      <use transform="translate(138.478524 0)scale(0.996264)" xlink:href="#Nimbus_Sans_L_Regular-53"/>
      <use transform="translate(221.56537 0)scale(0.996264)" xlink:href="#CMSY10-1"/>
      <use transform="translate(249.239455 0)scale(0.996264)" xlink:href="#CMMI12-22"/>
      <use transform="translate(307.930876 0)scale(0.996264)" xlink:href="#CMMI12-59"/>
      <use transform="translate(351.632459 0)scale(0.996264)" xlink:href="#CMMI12-20"/>
      <use transform="translate(435.461091 0)scale(0.996264)" xlink:href="#CMR17-61"/>
      <use transform="translate(534.871049 0)scale(0.996264)" xlink:href="#Nimbus_Sans_L_Regular-45"/>
      <use transform="translate(568.046279 0)scale(0.996264)" xlink:href="#Nimbus_Sans_L_Regular-55"/>
      <use transform="translate(623.437956 0)scale(0.996264)" xlink:href="#Nimbus_Sans_L_Regular-51"/>
      <use transform="translate(678.829633 0)scale(0.996264)" xlink:href="#Nimbus_Sans_L_Regular-48"/>
     </g>
    </g>
    <g id="line2d_23"/>
    <g id="line2d_24">
     <g>
      <use style="fill:#4000bf;opacity:0.4;stroke:#4000bf;stroke-linejoin:miter;" x="105.492958" xlink:href="#mdc3212b0fc" y="65.95924"/>
     </g>
    </g>
    <g id="text_14">
     <!-- 2.00 $\cdot \mu, \kappa =$ -978 -->
     <g transform="translate(123.492958 69.45924)scale(0.1 -0.1)">
      <use transform="scale(0.996264)" xlink:href="#Nimbus_Sans_L_Regular-50"/>
      <use transform="translate(55.391677 0)scale(0.996264)" xlink:href="#Nimbus_Sans_L_Regular-46"/>
      <use transform="translate(83.086847 0)scale(0.996264)" xlink:href="#Nimbus_Sans_L_Regular-48"/>
      <use transform="translate(138.478524 0)scale(0.996264)" xlink:href="#Nimbus_Sans_L_Regular-48"/>
      <use transform="translate(221.56537 0)scale(0.996264)" xlink:href="#CMSY10-1"/>
      <use transform="translate(249.239455 0)scale(0.996264)" xlink:href="#CMMI12-22"/>
      <use transform="translate(307.930876 0)scale(0.996264)" xlink:href="#CMMI12-59"/>
      <use transform="translate(351.632459 0)scale(0.996264)" xlink:href="#CMMI12-20"/>
      <use transform="translate(435.461091 0)scale(0.996264)" xlink:href="#CMR17-61"/>
      <use transform="translate(534.871049 0)scale(0.996264)" xlink:href="#Nimbus_Sans_L_Regular-45"/>
      <use transform="translate(568.046279 0)scale(0.996264)" xlink:href="#Nimbus_Sans_L_Regular-57"/>
      <use transform="translate(623.437956 0)scale(0.996264)" xlink:href="#Nimbus_Sans_L_Regular-55"/>
      <use transform="translate(678.829633 0)scale(0.996264)" xlink:href="#Nimbus_Sans_L_Regular-56"/>
     </g>
    </g>
   </g>
  </g>
 </g>
 <defs>
  <clipPath id="p84f0a028e5">
   <rect height="264.3" width="233.447655" x="86.492958" y="10.7"/>
  </clipPath>
 </defs>
</svg>
