<?xml version="1.0" encoding="utf-8" standalone="no"?>
<!DOCTYPE svg PUBLIC "-//W3C//DTD SVG 1.1//EN"
  "http://www.w3.org/Graphics/SVG/1.1/DTD/svg11.dtd">
<!-- Created with matplotlib (http://matplotlib.org/) -->
<svg height="330.449961pt" version="1.1" viewBox="0 0 330.640613 330.449961" width="330.640613pt" xmlns="http://www.w3.org/2000/svg" xmlns:xlink="http://www.w3.org/1999/xlink">
 <defs>
  <style type="text/css">
*{stroke-linecap:butt;stroke-linejoin:round;}
  </style>
 </defs>
 <g id="figure_1">
  <g id="patch_1">
   <path d="M 0 330.449961 
L 330.640613 330.449961 
L 330.640613 0 
L 0 0 
z
" style="fill:#ffffff;"/>
  </g>
  <g id="axes_1">
   <g id="patch_2">
    <path d="M 78.61243 275 
L 319.940613 275 
L 319.940613 10.7 
L 78.61243 10.7 
z
" style="fill:#ffffff;"/>
   </g>
   <g id="matplotlib.axis_1">
    <g id="xtick_1">
     <g id="line2d_1">
      <defs>
       <path d="M 0 0 
L 0 3.5 
" id="m8f3e9763cd" style="stroke:#000000;stroke-width:0.8;"/>
      </defs>
      <g>
       <use style="stroke:#000000;stroke-width:0.8;" x="89.581893" xlink:href="#m8f3e9763cd" y="275"/>
      </g>
     </g>
     <g id="text_1">
      <!-- $0$ -->
      <defs>
       <path d="M 42 31.640625 
C 42 37.75 41.90625 48.125 37.703125 56.109375 
C 34 63.109375 28.09375 65.59375 22.90625 65.59375 
C 18.09375 65.59375 12 63.40625 8.203125 56.203125 
C 4.203125 48.71875 3.796875 39.4375 3.796875 31.640625 
C 3.796875 25.953125 3.90625 17.28125 7 9.671875 
C 11.296875 -0.609375 19 -2 22.90625 -2 
C 27.5 -2 34.5 -0.109375 38.59375 9.375 
C 41.59375 16.28125 42 24.359375 42 31.640625 
z
M 22.90625 -0.40625 
C 16.5 -0.40625 12.703125 5.078125 11.296875 12.6875 
C 10.203125 18.5625 10.203125 27.15625 10.203125 32.75 
C 10.203125 40.4375 10.203125 46.828125 11.5 52.921875 
C 13.40625 61.390625 19 64 22.90625 64 
C 27 64 32.296875 61.296875 34.203125 53.125 
C 35.5 47.4375 35.59375 40.734375 35.59375 32.75 
C 35.59375 26.25 35.59375 18.265625 34.40625 12.375 
C 32.296875 1.484375 26.40625 -0.40625 22.90625 -0.40625 
z
" id="CMR17-48"/>
      </defs>
      <g transform="translate(85.012846 296.196641)scale(0.2 -0.2)">
       <use transform="scale(0.996264)" xlink:href="#CMR17-48"/>
      </g>
     </g>
    </g>
    <g id="xtick_2">
     <g id="line2d_2">
      <g>
       <use style="stroke:#000000;stroke-width:0.8;" x="177.337596" xlink:href="#m8f3e9763cd" y="275"/>
      </g>
     </g>
     <g id="text_2">
      <!-- $200$ -->
      <defs>
       <path d="M 41.703125 15.453125 
L 39.90625 15.453125 
C 38.90625 8.375 38.09375 7.171875 37.703125 6.5625 
C 37.203125 5.765625 30 5.765625 28.59375 5.765625 
L 9.40625 5.765625 
C 13 9.671875 20 16.75 28.5 24.953125 
C 34.59375 30.734375 41.703125 37.53125 41.703125 47.421875 
C 41.703125 59.21875 32.296875 66 21.796875 66 
C 10.796875 66 4.09375 56.3125 4.09375 47.34375 
C 4.09375 43.4375 7 42.9375 8.203125 42.9375 
C 9.203125 42.9375 12.203125 43.546875 12.203125 47.03125 
C 12.203125 50.109375 9.59375 51 8.203125 51 
C 7.59375 51 7 50.90625 6.59375 50.703125 
C 8.5 59.21875 14.296875 63.40625 20.40625 63.40625 
C 29.09375 63.40625 34.796875 56.515625 34.796875 47.421875 
C 34.796875 38.734375 29.703125 31.25 24 24.75 
L 4.09375 2.28125 
L 4.09375 0 
L 39.296875 0 
z
" id="CMR17-50"/>
      </defs>
      <g transform="translate(163.630453 296.196641)scale(0.2 -0.2)">
       <use transform="scale(0.996264)" xlink:href="#CMR17-50"/>
       <use transform="translate(45.690477 0)scale(0.996264)" xlink:href="#CMR17-48"/>
       <use transform="translate(91.380954 0)scale(0.996264)" xlink:href="#CMR17-48"/>
      </g>
     </g>
    </g>
    <g id="xtick_3">
     <g id="line2d_3">
      <g>
       <use style="stroke:#000000;stroke-width:0.8;" x="265.093299" xlink:href="#m8f3e9763cd" y="275"/>
      </g>
     </g>
     <g id="text_3">
      <!-- $400$ -->
      <defs>
       <path d="M 33.59375 64.40625 
C 33.59375 66.5 33.5 66.5 31.703125 66.5 
L 2 19.59375 
L 2 17 
L 27.796875 17 
L 27.796875 7.140625 
C 27.796875 3.5 27.59375 2.5 20.59375 2.5 
L 18.703125 2.5 
L 18.703125 0 
C 21.90625 0 27.296875 0 30.703125 0 
C 34.09375 0 39.5 0 42.703125 0 
L 42.703125 2.5 
L 40.796875 2.5 
C 33.796875 2.5 33.59375 3.5 33.59375 7.140625 
L 33.59375 17 
L 43.796875 17 
L 43.796875 19.59375 
L 33.59375 19.59375 
z
M 28.09375 57.859375 
L 28.09375 19.59375 
L 4 19.59375 
z
" id="CMR17-52"/>
      </defs>
      <g transform="translate(251.386156 296.196641)scale(0.2 -0.2)">
       <use transform="scale(0.996264)" xlink:href="#CMR17-52"/>
       <use transform="translate(45.690477 0)scale(0.996264)" xlink:href="#CMR17-48"/>
       <use transform="translate(91.380954 0)scale(0.996264)" xlink:href="#CMR17-48"/>
      </g>
     </g>
    </g>
    <g id="text_4">
     <!-- Time (days) -->
     <defs>
      <path d="M 35.40625 64.78125 
L 59.296875 64.78125 
L 59.296875 73 
L 2.09375 73 
L 2.09375 64.78125 
L 26.09375 64.78125 
L 26.09375 -0.21875 
L 35.40625 -0.21875 
z
" id="Nimbus_Sans_L_Regular-84"/>
      <path d="M 15 52.484375 
L 6.703125 52.484375 
L 6.703125 0 
L 15 0 
z
M 15 73 
L 6.59375 73 
L 6.59375 62.484375 
L 15 62.484375 
z
" id="Nimbus_Sans_L_Regular-105"/>
      <path d="M 7 52.484375 
L 7 0 
L 15.40625 0 
L 15.40625 32.953125 
C 15.40625 40.578125 20.90625 46.6875 27.703125 46.6875 
C 33.90625 46.6875 37.40625 42.875 37.40625 36.15625 
L 37.40625 0 
L 45.796875 0 
L 45.796875 32.953125 
C 45.796875 40.578125 51.296875 46.6875 58.09375 46.6875 
C 64.203125 46.6875 67.796875 42.78125 67.796875 36.15625 
L 67.796875 0 
L 76.203125 0 
L 76.203125 39.375 
C 76.203125 48.78125 70.796875 54 61 54 
C 54 54 49.796875 51.890625 44.90625 45.984375 
C 41.796875 51.59375 37.59375 54 30.796875 54 
C 23.796875 54 19.203125 51.390625 14.703125 45.078125 
L 14.703125 52.484375 
z
" id="Nimbus_Sans_L_Regular-109"/>
      <path d="M 51.296875 23.890625 
C 51.296875 31.78125 50.703125 36.53125 49.203125 40.375 
C 45.796875 48.859375 37.796875 54 28 54 
C 13.40625 54 4 42.84375 4 25.703125 
C 4 8.546875 13.09375 -2 27.796875 -2 
C 39.796875 -2 48.09375 4.84375 50.203125 16.3125 
L 41.796875 16.3125 
C 39.5 9.34375 34.796875 5.703125 28.09375 5.703125 
C 22.796875 5.703125 18.296875 8.125 15.5 12.578125 
C 13.5 15.59375 12.796875 18.640625 12.703125 23.890625 
z
M 12.90625 31 
C 13.59375 40.265625 19.5 46.28125 27.90625 46.28125 
C 36.09375 46.28125 42.40625 39.53125 42.40625 31 
C 42.40625 31 42.40625 31 42.296875 31 
z
" id="Nimbus_Sans_L_Regular-101"/>
      <path d="M 23.59375 73 
C 13.59375 59.84375 7.296875 41.5625 7.296875 25.796875 
C 7.296875 9.9375 13.59375 -8.34375 23.59375 -21.5 
L 29.09375 -21.5 
C 20.296875 -7.140625 15.40625 9.734375 15.40625 25.796875 
C 15.40625 41.765625 20.296875 58.734375 29.09375 73 
z
" id="Nimbus_Sans_L_Regular-40"/>
      <path d="M 49.5 73 
L 41.203125 73 
L 41.203125 45.890625 
C 37.703125 51.1875 32.09375 54 25.09375 54 
C 11.5 54 2.59375 43.140625 2.59375 26.484375 
C 2.59375 8.84375 11.296875 -2 25.40625 -2 
C 32.59375 -2 37.59375 0.703125 42.09375 7.203125 
L 42.09375 -0.03125 
L 49.5 -0.03125 
z
M 26.5 46.1875 
C 35.5 46.1875 41.203125 38.234375 41.203125 25.796875 
C 41.203125 13.765625 35.40625 5.8125 26.59375 5.8125 
C 17.40625 5.8125 11.296875 13.859375 11.296875 26 
C 11.296875 38.125 17.40625 46.1875 26.5 46.1875 
z
" id="Nimbus_Sans_L_Regular-100"/>
      <path d="M 53.5 5.203125 
C 52.59375 5 52.203125 5 51.703125 5 
C 48.796875 5 47.203125 6.484375 47.203125 9.078125 
L 47.203125 39.765625 
C 47.203125 49.015625 40.40625 54 27.5 54 
C 19.90625 54 13.59375 51.8125 10.09375 47.90625 
C 7.703125 45.203125 6.703125 42.21875 6.5 37.03125 
L 14.90625 37.03125 
C 15.59375 43.390625 19.40625 46.28125 27.203125 46.28125 
C 34.703125 46.28125 38.90625 43.484375 38.90625 38.515625 
L 38.90625 36.328125 
C 38.90625 32.828125 36.796875 31.34375 30.203125 30.546875 
C 18.40625 29.0625 16.59375 28.65625 13.40625 27.359375 
C 7.296875 24.875 4.203125 20.1875 4.203125 13.421875 
C 4.203125 3.96875 10.796875 -2 21.40625 -2 
C 28 -2 33.296875 0.296875 39.203125 5.703125 
C 39.796875 0.390625 42.40625 -2 47.796875 -2 
C 49.5 -2 50.796875 -1.8125 53.5 -1.09375 
z
M 38.90625 16.75 
C 38.90625 13.953125 38.09375 12.265625 35.59375 9.984375 
C 32.203125 6.890625 28.09375 5.3125 23.203125 5.3125 
C 16.703125 5.3125 12.90625 8.390625 12.90625 13.65625 
C 12.90625 19.140625 16.59375 21.921875 25.5 23.21875 
C 34.296875 24.40625 36.09375 24.8125 38.90625 26.09375 
z
" id="Nimbus_Sans_L_Regular-97"/>
      <path d="M 38.796875 52.5 
L 24.296875 11.53125 
L 10.90625 52.5 
L 2 52.5 
L 19.703125 -0.328125 
L 16.5 -8.65625 
C 15.203125 -12.375 13.296875 -13.78125 9.796875 -13.78125 
C 8.59375 -13.78125 7.203125 -13.578125 5.40625 -13.171875 
L 5.40625 -20.703125 
C 7.09375 -21.59375 8.796875 -22 11 -22 
C 13.703125 -22 16.59375 -21.09375 18.796875 -19.484375 
C 21.40625 -17.578125 22.90625 -15.359375 24.5 -11.140625 
L 47.796875 52.5 
z
" id="Nimbus_Sans_L_Regular-121"/>
      <path d="M 43.796875 37.921875 
C 43.703125 48.203125 36.90625 54 24.796875 54 
C 12.59375 54 4.703125 47.71875 4.703125 38.0625 
C 4.703125 29.890625 8.90625 26.015625 21.296875 23.03125 
L 29.09375 21.140625 
C 34.90625 19.734375 37.203125 17.65625 37.203125 13.875 
C 37.203125 9 32.296875 5.703125 25 5.703125 
C 20.5 5.703125 16.703125 7 14.59375 9.1875 
C 13.296875 10.6875 12.703125 12.171875 12.203125 15.84375 
L 3.40625 15.84375 
C 3.796875 3.765625 10.59375 -2 24.296875 -2 
C 37.5 -2 45.90625 4.453125 45.90625 14.515625 
C 45.90625 22.28125 41.5 26.578125 31.09375 29.0625 
L 23.09375 30.953125 
C 16.296875 32.53125 13.40625 34.734375 13.40625 38.40625 
C 13.40625 43.1875 17.703125 46.28125 24.5 46.28125 
C 31.203125 46.28125 34.796875 43.390625 35 37.921875 
z
" id="Nimbus_Sans_L_Regular-115"/>
      <path d="M 9.296875 -21.5 
C 19.296875 -8.34375 25.59375 9.9375 25.59375 25.6875 
C 25.59375 41.5625 19.296875 59.84375 9.296875 73 
L 3.796875 73 
C 12.59375 58.640625 17.5 41.765625 17.5 25.6875 
C 17.5 9.734375 12.59375 -7.25 3.796875 -21.5 
z
" id="Nimbus_Sans_L_Regular-41"/>
     </defs>
     <g transform="translate(146.992963 319.005988)scale(0.2 -0.2)">
      <use transform="scale(0.996264)" xlink:href="#Nimbus_Sans_L_Regular-84"/>
      <use transform="translate(60.871631 0)scale(0.996264)" xlink:href="#Nimbus_Sans_L_Regular-105"/>
      <use transform="translate(82.988415 0)scale(0.996264)" xlink:href="#Nimbus_Sans_L_Regular-109"/>
      <use transform="translate(165.976845 0)scale(0.996264)" xlink:href="#Nimbus_Sans_L_Regular-101"/>
      <use transform="translate(249.063692 0)scale(0.996264)" xlink:href="#Nimbus_Sans_L_Regular-40"/>
      <use transform="translate(282.238922 0)scale(0.996264)" xlink:href="#Nimbus_Sans_L_Regular-100"/>
      <use transform="translate(337.630599 0)scale(0.996264)" xlink:href="#Nimbus_Sans_L_Regular-97"/>
      <use transform="translate(390.034168 0)scale(0.996264)" xlink:href="#Nimbus_Sans_L_Regular-121"/>
      <use transform="translate(439.847368 0)scale(0.996264)" xlink:href="#Nimbus_Sans_L_Regular-115"/>
      <use transform="translate(489.660569 0)scale(0.996264)" xlink:href="#Nimbus_Sans_L_Regular-41"/>
     </g>
    </g>
   </g>
   <g id="matplotlib.axis_2">
    <g id="ytick_1">
     <g id="line2d_4">
      <defs>
       <path d="M 0 0 
L -3.5 0 
" id="mf932cb7155" style="stroke:#000000;stroke-width:0.8;"/>
      </defs>
      <g>
       <use style="stroke:#000000;stroke-width:0.8;" x="78.61243" xlink:href="#mf932cb7155" y="262.986364"/>
      </g>
     </g>
     <g id="text_5">
      <!-- $0.000$ -->
      <defs>
       <path d="M 18.40625 4.796875 
C 18.40625 7.6875 16 9.671875 13.59375 9.671875 
C 10.703125 9.671875 8.703125 7.28125 8.703125 4.890625 
C 8.703125 2 11.09375 0 13.5 0 
C 16.40625 0 18.40625 2.390625 18.40625 4.796875 
z
" id="CMMI12-58"/>
      </defs>
      <g transform="translate(29.640613 270.084684)scale(0.2 -0.2)">
       <use transform="scale(0.996264)" xlink:href="#CMR17-48"/>
       <use transform="translate(45.690477 0)scale(0.996264)" xlink:href="#CMMI12-58"/>
       <use transform="translate(72.787654 0)scale(0.996264)" xlink:href="#CMR17-48"/>
       <use transform="translate(118.478131 0)scale(0.996264)" xlink:href="#CMR17-48"/>
       <use transform="translate(164.168608 0)scale(0.996264)" xlink:href="#CMR17-48"/>
      </g>
     </g>
    </g>
    <g id="ytick_2">
     <g id="line2d_5">
      <g>
       <use style="stroke:#000000;stroke-width:0.8;" x="78.61243" xlink:href="#mf932cb7155" y="210.082076"/>
      </g>
     </g>
     <g id="text_6">
      <!-- $0.001$ -->
      <defs>
       <path d="M 26.59375 63.40625 
C 26.59375 65.5 26.5 65.5 25.09375 65.5 
C 21.203125 61.1875 15.296875 59.796875 9.703125 59.796875 
C 9.40625 59.796875 8.90625 59.796875 8.796875 59.5 
C 8.703125 59.296875 8.703125 59.09375 8.703125 57 
C 11.796875 57 17 57.59375 21 59.984375 
L 21 7.203125 
C 21 3.6875 20.796875 2.5 12.203125 2.5 
L 9.203125 2.5 
L 9.203125 0 
C 14 0 19 0 23.796875 0 
C 28.59375 0 33.59375 0 38.40625 0 
L 38.40625 2.5 
L 35.40625 2.5 
C 26.796875 2.5 26.59375 3.59375 26.59375 7.15625 
z
" id="CMR17-49"/>
      </defs>
      <g transform="translate(29.640613 217.180397)scale(0.2 -0.2)">
       <use transform="scale(0.996264)" xlink:href="#CMR17-48"/>
       <use transform="translate(45.690477 0)scale(0.996264)" xlink:href="#CMMI12-58"/>
       <use transform="translate(72.787654 0)scale(0.996264)" xlink:href="#CMR17-48"/>
       <use transform="translate(118.478131 0)scale(0.996264)" xlink:href="#CMR17-48"/>
       <use transform="translate(164.168608 0)scale(0.996264)" xlink:href="#CMR17-49"/>
      </g>
     </g>
    </g>
    <g id="ytick_3">
     <g id="line2d_6">
      <g>
       <use style="stroke:#000000;stroke-width:0.8;" x="78.61243" xlink:href="#mf932cb7155" y="157.177789"/>
      </g>
     </g>
     <g id="text_7">
      <!-- $0.002$ -->
      <g transform="translate(29.640613 164.276109)scale(0.2 -0.2)">
       <use transform="scale(0.996264)" xlink:href="#CMR17-48"/>
       <use transform="translate(45.690477 0)scale(0.996264)" xlink:href="#CMMI12-58"/>
       <use transform="translate(72.787654 0)scale(0.996264)" xlink:href="#CMR17-48"/>
       <use transform="translate(118.478131 0)scale(0.996264)" xlink:href="#CMR17-48"/>
       <use transform="translate(164.168608 0)scale(0.996264)" xlink:href="#CMR17-50"/>
      </g>
     </g>
    </g>
    <g id="ytick_4">
     <g id="line2d_7">
      <g>
       <use style="stroke:#000000;stroke-width:0.8;" x="78.61243" xlink:href="#mf932cb7155" y="104.273502"/>
      </g>
     </g>
     <g id="text_8">
      <!-- $0.003$ -->
      <defs>
       <path d="M 22.09375 33.703125 
C 31 33.703125 34.90625 25.96875 34.90625 17.03125 
C 34.90625 5 28.5 0.390625 22.703125 0.390625 
C 17.40625 0.390625 8.796875 3.03125 6.09375 10.828125 
C 6.59375 10.625 7.09375 10.625 7.59375 10.625 
C 10 10.625 11.796875 12.21875 11.796875 14.8125 
C 11.796875 17.703125 9.59375 19 7.59375 19 
C 5.90625 19 3.296875 18.203125 3.296875 14.46875 
C 3.296875 5.234375 12.296875 -2 22.90625 -2 
C 34 -2 42.5 6.71875 42.5 16.953125 
C 42.5 26.671875 34.5 33.703125 25 34.796875 
C 32.59375 36.375 39.90625 43.0625 39.90625 52.015625 
C 39.90625 59.6875 32 65.296875 23 65.296875 
C 13.90625 65.296875 5.90625 59.828125 5.90625 52.015625 
C 5.90625 48.59375 8.5 48 9.796875 48 
C 11.90625 48 13.703125 49.296875 13.703125 51.890625 
C 13.703125 54.46875 11.90625 55.765625 9.796875 55.765625 
C 9.40625 55.765625 8.90625 55.765625 8.5 55.578125 
C 11.40625 61.859375 19.296875 63 22.796875 63 
C 26.296875 63 32.90625 61.328125 32.90625 51.875 
C 32.90625 49.109375 32.5 44.1875 29.09375 39.84375 
C 26.09375 36 22.703125 36 19.40625 35.6875 
C 18.90625 35.6875 16.59375 35.453125 16.203125 35.453125 
C 15.5 35.359375 15.09375 35.265625 15.09375 34.5 
C 15.09375 33.796875 15.203125 33.703125 17.203125 33.703125 
z
" id="CMR17-51"/>
      </defs>
      <g transform="translate(29.640613 111.371822)scale(0.2 -0.2)">
       <use transform="scale(0.996264)" xlink:href="#CMR17-48"/>
       <use transform="translate(45.690477 0)scale(0.996264)" xlink:href="#CMMI12-58"/>
       <use transform="translate(72.787654 0)scale(0.996264)" xlink:href="#CMR17-48"/>
       <use transform="translate(118.478131 0)scale(0.996264)" xlink:href="#CMR17-48"/>
       <use transform="translate(164.168608 0)scale(0.996264)" xlink:href="#CMR17-51"/>
      </g>
     </g>
    </g>
    <g id="ytick_5">
     <g id="line2d_8">
      <g>
       <use style="stroke:#000000;stroke-width:0.8;" x="78.61243" xlink:href="#mf932cb7155" y="51.369214"/>
      </g>
     </g>
     <g id="text_9">
      <!-- $0.004$ -->
      <g transform="translate(29.640613 58.467535)scale(0.2 -0.2)">
       <use transform="scale(0.996264)" xlink:href="#CMR17-48"/>
       <use transform="translate(45.690477 0)scale(0.996264)" xlink:href="#CMMI12-58"/>
       <use transform="translate(72.787654 0)scale(0.996264)" xlink:href="#CMR17-48"/>
       <use transform="translate(118.478131 0)scale(0.996264)" xlink:href="#CMR17-48"/>
       <use transform="translate(164.168608 0)scale(0.996264)" xlink:href="#CMR17-52"/>
      </g>
     </g>
    </g>
    <g id="text_10">
     <!-- Heteroplasmy variance -->
     <defs>
      <path d="M 55.09375 33 
L 55.09375 -0.03125 
L 64.40625 -0.03125 
L 64.40625 73 
L 55.09375 73 
L 55.09375 41.21875 
L 17.59375 41.21875 
L 17.59375 73 
L 8.296875 73 
L 8.296875 -0.03125 
L 17.703125 -0.03125 
L 17.703125 33 
z
" id="Nimbus_Sans_L_Regular-72"/>
      <path d="M 25.40625 52.8125 
L 16.796875 52.8125 
L 16.796875 67 
L 8.5 67 
L 8.5 52.8125 
L 1.40625 52.8125 
L 1.40625 46 
L 8.5 46 
L 8.5 6.3125 
C 8.5 1 12.09375 -2 18.59375 -2 
C 20.59375 -2 22.59375 -1.8125 25.40625 -1.296875 
L 25.40625 5.71875 
C 24.296875 5.40625 23 5.3125 21.40625 5.3125 
C 17.796875 5.3125 16.796875 6.3125 16.796875 10.015625 
L 16.796875 46 
L 25.40625 46 
z
" id="Nimbus_Sans_L_Regular-116"/>
      <path d="M 6.90625 52.484375 
L 6.90625 0 
L 15.296875 0 
L 15.296875 27.203125 
C 15.296875 34.703125 17.203125 39.609375 21.203125 42.5 
C 23.796875 44.40625 26.296875 45 32.09375 45 
L 32.09375 53.625 
C 30.703125 53.8125 30 53.8125 28.90625 53.8125 
C 23.5 53.8125 19.40625 50.625 14.59375 42.90625 
L 14.59375 52.484375 
z
" id="Nimbus_Sans_L_Regular-114"/>
      <path d="M 27.203125 54 
C 12.5 54 3.59375 43.53125 3.59375 25.984375 
C 3.59375 8.453125 12.40625 -2 27.296875 -2 
C 42 -2 51 8.453125 51 25.59375 
C 51 43.625 42.296875 54 27.203125 54 
z
M 27.296875 46.28125 
C 36.703125 46.28125 42.296875 38.625 42.296875 25.703125 
C 42.296875 13.453125 36.5 5.703125 27.296875 5.703125 
C 18 5.703125 12.296875 13.359375 12.296875 25.984375 
C 12.296875 38.53125 18 46.28125 27.296875 46.28125 
z
" id="Nimbus_Sans_L_Regular-111"/>
      <path d="M 5.40625 -22 
L 13.796875 -22 
L 13.796875 5 
C 18.203125 -0.421875 23.09375 -2.8125 29.90625 -2.8125 
C 43.40625 -2.8125 52.296875 8.15625 52.296875 24.984375 
C 52.296875 42.71875 43.703125 53.8125 29.796875 53.8125 
C 22.703125 53.8125 17 50.59375 13.09375 44.390625 
L 13.09375 52.328125 
L 5.40625 52.328125 
z
M 28.40625 46 
C 37.59375 46 43.59375 37.8125 43.59375 25.1875 
C 43.59375 13.171875 37.5 5 28.40625 5 
C 19.59375 5 13.796875 13.078125 13.796875 25.5 
C 13.796875 37.921875 19.59375 46 28.40625 46 
z
" id="Nimbus_Sans_L_Regular-112"/>
      <path d="M 15.203125 73 
L 6.796875 73 
L 6.796875 -0.03125 
L 15.203125 -0.03125 
z
" id="Nimbus_Sans_L_Regular-108"/>
      <path d="M 28.5 0 
L 48.59375 52.5 
L 39.203125 52.5 
L 24.40625 9.921875 
L 10.40625 52.5 
L 1 52.5 
L 19.40625 0 
z
" id="Nimbus_Sans_L_Regular-118"/>
      <path d="M 7 52.484375 
L 7 0 
L 15.40625 0 
L 15.40625 28.953125 
C 15.40625 39.671875 21 46.6875 29.59375 46.6875 
C 36.203125 46.6875 40.40625 42.671875 40.40625 36.359375 
L 40.40625 0 
L 48.703125 0 
L 48.703125 39.671875 
C 48.703125 48.390625 42.203125 54 32.09375 54 
C 24.296875 54 19.296875 50.984375 14.703125 43.6875 
L 14.703125 52.484375 
z
" id="Nimbus_Sans_L_Regular-110"/>
      <path d="M 47.09375 34.9375 
C 46.703125 40.03125 45.59375 43.328125 43.59375 46.21875 
C 40 51.109375 33.703125 54 26.40625 54 
C 12.296875 54 3.09375 42.84375 3.09375 25.5 
C 3.09375 8.65625 12.09375 -2 26.296875 -2 
C 38.796875 -2 46.703125 5.46875 47.703125 18.234375 
L 39.296875 18.234375 
C 37.90625 9.875 33.59375 5.703125 26.5 5.703125 
C 17.296875 5.703125 11.796875 13.171875 11.796875 25.5 
C 11.796875 38.53125 17.203125 46.28125 26.296875 46.28125 
C 33.296875 46.28125 37.703125 42.203125 38.703125 34.9375 
z
" id="Nimbus_Sans_L_Regular-99"/>
     </defs>
     <g transform="translate(21.396641 244.467956)rotate(-90)scale(0.2 -0.2)">
      <use transform="scale(0.996264)" xlink:href="#Nimbus_Sans_L_Regular-72"/>
      <use transform="translate(71.929985 0)scale(0.996264)" xlink:href="#Nimbus_Sans_L_Regular-101"/>
      <use transform="translate(127.321662 0)scale(0.996264)" xlink:href="#Nimbus_Sans_L_Regular-116"/>
      <use transform="translate(155.016831 0)scale(0.996264)" xlink:href="#Nimbus_Sans_L_Regular-101"/>
      <use transform="translate(210.408508 0)scale(0.996264)" xlink:href="#Nimbus_Sans_L_Regular-114"/>
      <use transform="translate(243.583738 0)scale(0.996264)" xlink:href="#Nimbus_Sans_L_Regular-111"/>
      <use transform="translate(298.975415 0)scale(0.996264)" xlink:href="#Nimbus_Sans_L_Regular-112"/>
      <use transform="translate(354.367092 0)scale(0.996264)" xlink:href="#Nimbus_Sans_L_Regular-108"/>
      <use transform="translate(376.483876 0)scale(0.996264)" xlink:href="#Nimbus_Sans_L_Regular-97"/>
      <use transform="translate(431.875553 0)scale(0.996264)" xlink:href="#Nimbus_Sans_L_Regular-115"/>
      <use transform="translate(481.688754 0)scale(0.996264)" xlink:href="#Nimbus_Sans_L_Regular-109"/>
      <use transform="translate(563.183791 0)scale(0.996264)" xlink:href="#Nimbus_Sans_L_Regular-121"/>
      <use transform="translate(640.692161 0)scale(0.996264)" xlink:href="#Nimbus_Sans_L_Regular-118"/>
      <use transform="translate(688.014732 0)scale(0.996264)" xlink:href="#Nimbus_Sans_L_Regular-97"/>
      <use transform="translate(743.406409 0)scale(0.996264)" xlink:href="#Nimbus_Sans_L_Regular-114"/>
      <use transform="translate(778.075017 0)scale(0.996264)" xlink:href="#Nimbus_Sans_L_Regular-105"/>
      <use transform="translate(800.191801 0)scale(0.996264)" xlink:href="#Nimbus_Sans_L_Regular-97"/>
      <use transform="translate(855.583478 0)scale(0.996264)" xlink:href="#Nimbus_Sans_L_Regular-110"/>
      <use transform="translate(910.975155 0)scale(0.996264)" xlink:href="#Nimbus_Sans_L_Regular-99"/>
      <use transform="translate(960.788355 0)scale(0.996264)" xlink:href="#Nimbus_Sans_L_Regular-101"/>
     </g>
    </g>
   </g>
   <g id="line2d_9">
    <defs>
     <path d="M -0 7.071068 
L 4.242641 0 
L -0 -7.071068 
L -4.242641 -0 
z
" id="md738b0fee9" style="stroke:#3ec100;stroke-linejoin:miter;"/>
    </defs>
    <g clip-path="url(#p2b72de2bf3)">
     <use style="fill:#3ec100;opacity:0.4;stroke:#3ec100;stroke-linejoin:miter;" x="89.581893" xlink:href="#md738b0fee9" y="262.986364"/>
     <use style="fill:#3ec100;opacity:0.4;stroke:#3ec100;stroke-linejoin:miter;" x="107.133034" xlink:href="#md738b0fee9" y="255.777245"/>
     <use style="fill:#3ec100;opacity:0.4;stroke:#3ec100;stroke-linejoin:miter;" x="124.684174" xlink:href="#md738b0fee9" y="248.514565"/>
     <use style="fill:#3ec100;opacity:0.4;stroke:#3ec100;stroke-linejoin:miter;" x="142.235315" xlink:href="#md738b0fee9" y="241.553707"/>
     <use style="fill:#3ec100;opacity:0.4;stroke:#3ec100;stroke-linejoin:miter;" x="159.786456" xlink:href="#md738b0fee9" y="234.287708"/>
     <use style="fill:#3ec100;opacity:0.4;stroke:#3ec100;stroke-linejoin:miter;" x="177.337596" xlink:href="#md738b0fee9" y="227.094518"/>
     <use style="fill:#3ec100;opacity:0.4;stroke:#3ec100;stroke-linejoin:miter;" x="194.888737" xlink:href="#md738b0fee9" y="219.937517"/>
     <use style="fill:#3ec100;opacity:0.4;stroke:#3ec100;stroke-linejoin:miter;" x="212.439877" xlink:href="#md738b0fee9" y="212.484961"/>
     <use style="fill:#3ec100;opacity:0.4;stroke:#3ec100;stroke-linejoin:miter;" x="229.991018" xlink:href="#md738b0fee9" y="205.142215"/>
     <use style="fill:#3ec100;opacity:0.4;stroke:#3ec100;stroke-linejoin:miter;" x="247.542158" xlink:href="#md738b0fee9" y="197.972615"/>
     <use style="fill:#3ec100;opacity:0.4;stroke:#3ec100;stroke-linejoin:miter;" x="265.093299" xlink:href="#md738b0fee9" y="190.818431"/>
     <use style="fill:#3ec100;opacity:0.4;stroke:#3ec100;stroke-linejoin:miter;" x="282.64444" xlink:href="#md738b0fee9" y="183.750923"/>
     <use style="fill:#3ec100;opacity:0.4;stroke:#3ec100;stroke-linejoin:miter;" x="300.19558" xlink:href="#md738b0fee9" y="176.403743"/>
    </g>
   </g>
   <g id="line2d_10">
    <path clip-path="url(#p2b72de2bf3)" d="M 89.581893 262.986364 
L 93.969678 261.195624 
L 98.357464 259.404885 
L 102.745249 257.614146 
L 107.133034 255.823407 
L 111.520819 254.032667 
L 115.908604 252.241928 
L 120.296389 250.451189 
L 124.684174 248.660449 
L 129.07196 246.86971 
L 133.459745 245.078971 
L 137.84753 243.288232 
L 142.235315 241.497492 
L 146.6231 239.706753 
L 151.010885 237.916014 
L 155.39867 236.125275 
L 159.786456 234.334535 
L 164.174241 232.543796 
L 168.562026 230.753057 
L 172.949811 228.962318 
L 177.337596 227.171578 
L 181.725381 225.380839 
L 186.113166 223.5901 
L 190.500952 221.79936 
L 194.888737 220.008621 
L 199.276522 218.217882 
L 203.664307 216.427143 
L 208.052092 214.636403 
L 212.439877 212.845664 
L 216.827662 211.054925 
L 221.215448 209.264186 
L 225.603233 207.473446 
L 229.991018 205.682707 
L 234.378803 203.891968 
L 238.766588 202.101228 
L 243.154373 200.310489 
L 247.542158 198.51975 
L 251.929944 196.729011 
L 256.317729 194.938271 
L 260.705514 193.147532 
L 265.093299 191.356793 
L 269.481084 189.566054 
L 273.868869 187.775314 
L 278.256654 185.984575 
L 282.64444 184.193836 
L 287.032225 182.403097 
L 291.42001 180.612357 
L 295.807795 178.821618 
L 300.19558 177.030879 
L 304.583365 175.240139 
L 308.97115 173.4494 
" style="fill:none;stroke:#3ec100;stroke-linecap:square;stroke-width:1.5;"/>
   </g>
   <g id="line2d_11">
    <defs>
     <path d="M 0 5 
C 1.326016 5 2.597899 4.473168 3.535534 3.535534 
C 4.473168 2.597899 5 1.326016 5 0 
C 5 -1.326016 4.473168 -2.597899 3.535534 -3.535534 
C 2.597899 -4.473168 1.326016 -5 0 -5 
C -1.326016 -5 -2.597899 -4.473168 -3.535534 -3.535534 
C -4.473168 -2.597899 -5 -1.326016 -5 0 
C -5 1.326016 -4.473168 2.597899 -3.535534 3.535534 
C -2.597899 4.473168 -1.326016 5 0 5 
z
" id="m8f2c753804" style="stroke:#be4100;"/>
    </defs>
    <g clip-path="url(#p2b72de2bf3)">
     <use style="fill:#be4100;opacity:0.4;stroke:#be4100;" x="89.581893" xlink:href="#m8f2c753804" y="262.986364"/>
     <use style="fill:#be4100;opacity:0.4;stroke:#be4100;" x="107.133034" xlink:href="#m8f2c753804" y="248.071997"/>
     <use style="fill:#be4100;opacity:0.4;stroke:#be4100;" x="124.684174" xlink:href="#m8f2c753804" y="233.044551"/>
     <use style="fill:#be4100;opacity:0.4;stroke:#be4100;" x="142.235315" xlink:href="#m8f2c753804" y="218.976535"/>
     <use style="fill:#be4100;opacity:0.4;stroke:#be4100;" x="159.786456" xlink:href="#m8f2c753804" y="205.109935"/>
     <use style="fill:#be4100;opacity:0.4;stroke:#be4100;" x="177.337596" xlink:href="#m8f2c753804" y="191.006719"/>
     <use style="fill:#be4100;opacity:0.4;stroke:#be4100;" x="194.888737" xlink:href="#m8f2c753804" y="177.553706"/>
     <use style="fill:#be4100;opacity:0.4;stroke:#be4100;" x="212.439877" xlink:href="#m8f2c753804" y="162.718835"/>
     <use style="fill:#be4100;opacity:0.4;stroke:#be4100;" x="229.991018" xlink:href="#m8f2c753804" y="149.052932"/>
     <use style="fill:#be4100;opacity:0.4;stroke:#be4100;" x="247.542158" xlink:href="#m8f2c753804" y="134.110346"/>
     <use style="fill:#be4100;opacity:0.4;stroke:#be4100;" x="265.093299" xlink:href="#m8f2c753804" y="118.733788"/>
     <use style="fill:#be4100;opacity:0.4;stroke:#be4100;" x="282.64444" xlink:href="#m8f2c753804" y="104.768718"/>
     <use style="fill:#be4100;opacity:0.4;stroke:#be4100;" x="300.19558" xlink:href="#m8f2c753804" y="90.618308"/>
    </g>
   </g>
   <g id="line2d_12">
    <path clip-path="url(#p2b72de2bf3)" d="M 89.581893 262.986364 
L 93.969678 259.404885 
L 98.357464 255.823407 
L 102.745249 252.241928 
L 107.133034 248.660449 
L 111.520819 245.078971 
L 115.908604 241.497492 
L 120.296389 237.916014 
L 124.684174 234.334535 
L 129.07196 230.753057 
L 133.459745 227.171578 
L 137.84753 223.5901 
L 142.235315 220.008621 
L 146.6231 216.427143 
L 151.010885 212.845664 
L 155.39867 209.264186 
L 159.786456 205.682707 
L 164.174241 202.101228 
L 168.562026 198.51975 
L 172.949811 194.938271 
L 177.337596 191.356793 
L 181.725381 187.775314 
L 186.113166 184.193836 
L 190.500952 180.612357 
L 194.888737 177.030879 
L 199.276522 173.4494 
L 203.664307 169.867922 
L 208.052092 166.286443 
L 212.439877 162.704965 
L 216.827662 159.123486 
L 221.215448 155.542007 
L 225.603233 151.960529 
L 229.991018 148.37905 
L 234.378803 144.797572 
L 238.766588 141.216093 
L 243.154373 137.634615 
L 247.542158 134.053136 
L 251.929944 130.471658 
L 256.317729 126.890179 
L 260.705514 123.308701 
L 265.093299 119.727222 
L 269.481084 116.145744 
L 273.868869 112.564265 
L 278.256654 108.982786 
L 282.64444 105.401308 
L 287.032225 101.819829 
L 291.42001 98.238351 
L 295.807795 94.656872 
L 300.19558 91.075394 
L 304.583365 87.493915 
L 308.97115 83.912437 
" style="fill:none;stroke:#be4100;stroke-linecap:square;stroke-width:1.5;"/>
   </g>
   <g id="line2d_13">
    <defs>
     <path d="M -5 5 
L 5 5 
L 5 -5 
L -5 -5 
z
" id="mf57d93e976" style="stroke:#c0003f;stroke-linejoin:miter;"/>
    </defs>
    <g clip-path="url(#p2b72de2bf3)">
     <use style="fill:#c0003f;opacity:0.4;stroke:#c0003f;stroke-linejoin:miter;" x="89.581893" xlink:href="#mf57d93e976" y="262.986364"/>
     <use style="fill:#c0003f;opacity:0.4;stroke:#c0003f;stroke-linejoin:miter;" x="107.133034" xlink:href="#mf57d93e976" y="246.274204"/>
     <use style="fill:#c0003f;opacity:0.4;stroke:#c0003f;stroke-linejoin:miter;" x="124.684174" xlink:href="#mf57d93e976" y="229.3642"/>
     <use style="fill:#c0003f;opacity:0.4;stroke:#c0003f;stroke-linejoin:miter;" x="142.235315" xlink:href="#mf57d93e976" y="212.629715"/>
     <use style="fill:#c0003f;opacity:0.4;stroke:#c0003f;stroke-linejoin:miter;" x="159.786456" xlink:href="#mf57d93e976" y="195.813933"/>
     <use style="fill:#c0003f;opacity:0.4;stroke:#c0003f;stroke-linejoin:miter;" x="177.337596" xlink:href="#mf57d93e976" y="179.017988"/>
     <use style="fill:#c0003f;opacity:0.4;stroke:#c0003f;stroke-linejoin:miter;" x="194.888737" xlink:href="#mf57d93e976" y="161.145774"/>
     <use style="fill:#c0003f;opacity:0.4;stroke:#c0003f;stroke-linejoin:miter;" x="212.439877" xlink:href="#mf57d93e976" y="145.829358"/>
     <use style="fill:#c0003f;opacity:0.4;stroke:#c0003f;stroke-linejoin:miter;" x="229.991018" xlink:href="#mf57d93e976" y="128.173681"/>
     <use style="fill:#c0003f;opacity:0.4;stroke:#c0003f;stroke-linejoin:miter;" x="247.542158" xlink:href="#mf57d93e976" y="110.66952"/>
     <use style="fill:#c0003f;opacity:0.4;stroke:#c0003f;stroke-linejoin:miter;" x="265.093299" xlink:href="#mf57d93e976" y="93.228016"/>
     <use style="fill:#c0003f;opacity:0.4;stroke:#c0003f;stroke-linejoin:miter;" x="282.64444" xlink:href="#mf57d93e976" y="75.935186"/>
     <use style="fill:#c0003f;opacity:0.4;stroke:#c0003f;stroke-linejoin:miter;" x="300.19558" xlink:href="#mf57d93e976" y="59.633457"/>
    </g>
   </g>
   <g id="line2d_14">
    <path clip-path="url(#p2b72de2bf3)" d="M 89.581893 262.986364 
L 93.969678 258.818707 
L 98.357464 254.65105 
L 102.745249 250.483393 
L 107.133034 246.315736 
L 111.520819 242.148079 
L 115.908604 237.980422 
L 120.296389 233.812765 
L 124.684174 229.645108 
L 129.07196 225.477451 
L 133.459745 221.309795 
L 137.84753 217.142138 
L 142.235315 212.974481 
L 146.6231 208.806824 
L 151.010885 204.639167 
L 155.39867 200.47151 
L 159.786456 196.303853 
L 164.174241 192.136196 
L 168.562026 187.968539 
L 172.949811 183.800882 
L 177.337596 179.633225 
L 181.725381 175.465569 
L 186.113166 171.297912 
L 190.500952 167.130255 
L 194.888737 162.962598 
L 199.276522 158.794941 
L 203.664307 154.627284 
L 208.052092 150.459627 
L 212.439877 146.29197 
L 216.827662 142.124313 
L 221.215448 137.956656 
L 225.603233 133.788999 
L 229.991018 129.621342 
L 234.378803 125.453686 
L 238.766588 121.286029 
L 243.154373 117.118372 
L 247.542158 112.950715 
L 251.929944 108.783058 
L 256.317729 104.615401 
L 260.705514 100.447744 
L 265.093299 96.280087 
L 269.481084 92.11243 
L 273.868869 87.944773 
L 278.256654 83.777116 
L 282.64444 79.60946 
L 287.032225 75.441803 
L 291.42001 71.274146 
L 295.807795 67.106489 
L 300.19558 62.938832 
L 304.583365 58.771175 
L 308.97115 54.603518 
" style="fill:none;stroke:#c0003f;stroke-linecap:square;stroke-width:1.5;"/>
   </g>
   <g id="line2d_15">
    <defs>
     <path d="M 0 -5 
L -5 5 
L 5 5 
z
" id="meeff46ed67" style="stroke:#4000bf;stroke-linejoin:miter;"/>
    </defs>
    <g clip-path="url(#p2b72de2bf3)">
     <use style="fill:#4000bf;opacity:0.4;stroke:#4000bf;stroke-linejoin:miter;" x="89.581893" xlink:href="#meeff46ed67" y="262.986364"/>
     <use style="fill:#4000bf;opacity:0.4;stroke:#4000bf;stroke-linejoin:miter;" x="107.133034" xlink:href="#meeff46ed67" y="243.947761"/>
     <use style="fill:#4000bf;opacity:0.4;stroke:#4000bf;stroke-linejoin:miter;" x="124.684174" xlink:href="#meeff46ed67" y="224.479488"/>
     <use style="fill:#4000bf;opacity:0.4;stroke:#4000bf;stroke-linejoin:miter;" x="142.235315" xlink:href="#meeff46ed67" y="205.355074"/>
     <use style="fill:#4000bf;opacity:0.4;stroke:#4000bf;stroke-linejoin:miter;" x="159.786456" xlink:href="#meeff46ed67" y="185.2381"/>
     <use style="fill:#4000bf;opacity:0.4;stroke:#4000bf;stroke-linejoin:miter;" x="177.337596" xlink:href="#meeff46ed67" y="164.772584"/>
     <use style="fill:#4000bf;opacity:0.4;stroke:#4000bf;stroke-linejoin:miter;" x="194.888737" xlink:href="#meeff46ed67" y="144.69272"/>
     <use style="fill:#4000bf;opacity:0.4;stroke:#4000bf;stroke-linejoin:miter;" x="212.439877" xlink:href="#meeff46ed67" y="124.213042"/>
     <use style="fill:#4000bf;opacity:0.4;stroke:#4000bf;stroke-linejoin:miter;" x="229.991018" xlink:href="#meeff46ed67" y="104.071651"/>
     <use style="fill:#4000bf;opacity:0.4;stroke:#4000bf;stroke-linejoin:miter;" x="247.542158" xlink:href="#meeff46ed67" y="83.909661"/>
     <use style="fill:#4000bf;opacity:0.4;stroke:#4000bf;stroke-linejoin:miter;" x="265.093299" xlink:href="#meeff46ed67" y="64.021628"/>
     <use style="fill:#4000bf;opacity:0.4;stroke:#4000bf;stroke-linejoin:miter;" x="282.64444" xlink:href="#meeff46ed67" y="43.431199"/>
     <use style="fill:#4000bf;opacity:0.4;stroke:#4000bf;stroke-linejoin:miter;" x="300.19558" xlink:href="#meeff46ed67" y="22.713636"/>
    </g>
   </g>
   <g id="line2d_16">
    <path clip-path="url(#p2b72de2bf3)" d="M 89.581893 262.986364 
L 93.969678 258.223327 
L 98.357464 253.460291 
L 102.745249 248.697254 
L 107.133034 243.934218 
L 111.520819 239.171181 
L 115.908604 234.408145 
L 120.296389 229.645108 
L 124.684174 224.882072 
L 129.07196 220.119035 
L 133.459745 215.355999 
L 137.84753 210.592962 
L 142.235315 205.829926 
L 146.6231 201.06689 
L 151.010885 196.303853 
L 155.39867 191.540817 
L 159.786456 186.77778 
L 164.174241 182.014744 
L 168.562026 177.251707 
L 172.949811 172.488671 
L 177.337596 167.725634 
L 181.725381 162.962598 
L 186.113166 158.199561 
L 190.500952 153.436525 
L 194.888737 148.673488 
L 199.276522 143.910452 
L 203.664307 139.147415 
L 208.052092 134.384379 
L 212.439877 129.621342 
L 216.827662 124.858306 
L 221.215448 120.09527 
L 225.603233 115.332233 
L 229.991018 110.569197 
L 234.378803 105.80616 
L 238.766588 101.043124 
L 243.154373 96.280087 
L 247.542158 91.517051 
L 251.929944 86.754014 
L 256.317729 81.990978 
L 260.705514 77.227941 
L 265.093299 72.464905 
L 269.481084 67.701868 
L 273.868869 62.938832 
L 278.256654 58.175795 
L 282.64444 53.412759 
L 287.032225 48.649722 
L 291.42001 43.886686 
L 295.807795 39.12365 
L 300.19558 34.360613 
L 304.583365 29.597577 
L 308.97115 24.83454 
" style="fill:none;stroke:#4000bf;stroke-linecap:square;stroke-width:1.5;"/>
   </g>
   <g id="patch_3">
    <path d="M 78.61243 275 
L 78.61243 10.7 
" style="fill:none;stroke:#000000;stroke-linecap:square;stroke-linejoin:miter;stroke-width:0.8;"/>
   </g>
   <g id="patch_4">
    <path d="M 319.940613 275 
L 319.940613 10.7 
" style="fill:none;stroke:#000000;stroke-linecap:square;stroke-linejoin:miter;stroke-width:0.8;"/>
   </g>
   <g id="patch_5">
    <path d="M 78.61243 275 
L 319.940613 275 
" style="fill:none;stroke:#000000;stroke-linecap:square;stroke-linejoin:miter;stroke-width:0.8;"/>
   </g>
   <g id="patch_6">
    <path d="M 78.61243 10.7 
L 319.940613 10.7 
" style="fill:none;stroke:#000000;stroke-linecap:square;stroke-linejoin:miter;stroke-width:0.8;"/>
   </g>
   <g id="legend_1">
    <g id="patch_7">
     <path d="M 85.61243 75.581227 
L 200.754247 75.581227 
Q 202.754247 75.581227 202.754247 73.581227 
L 202.754247 17.7 
Q 202.754247 15.7 200.754247 15.7 
L 85.61243 15.7 
Q 83.61243 15.7 83.61243 17.7 
L 83.61243 73.581227 
Q 83.61243 75.581227 85.61243 75.581227 
z
" style="fill:#ffffff;opacity:0.8;stroke:#cccccc;stroke-linejoin:miter;"/>
    </g>
    <g id="line2d_17"/>
    <g id="line2d_18">
     <g>
      <use style="fill:#3ec100;opacity:0.4;stroke:#3ec100;stroke-linejoin:miter;" x="97.61243" xlink:href="#md738b0fee9" y="23.29832"/>
     </g>
    </g>
    <g id="text_11">
     <!-- $\mu=0.75, \kappa = 259$ -->
     <defs>
      <path d="M 14.40625 2.1875 
C 16.90625 -0.09375 20.59375 -1 24 -1 
C 30.40625 -1 34.796875 3.25 37.09375 6.328125 
C 38.09375 1.078125 42.296875 -1 45.796875 -1 
C 48.796875 -1 51.203125 0.78125 53 4.328125 
C 54.59375 7.703125 56 13.734375 56 14.109375 
C 56 14.609375 55.59375 15 55 15 
C 54.09375 15 54 14.5 53.59375 13.03125 
C 52.09375 7.203125 50.203125 1 46.09375 1 
C 43.203125 1 43 3.578125 43 5.59375 
C 43 7.875 43.90625 11.484375 44.59375 14.46875 
L 47.40625 25.234375 
C 47.796875 27.140625 48.90625 31.609375 49.40625 33.421875 
C 50 35.8125 51.09375 40.109375 51.09375 40.5 
C 51.09375 42 49.90625 43 48.40625 43 
C 47.5 43 45.40625 42.59375 44.59375 39.609375 
L 37.59375 11.875 
C 37.09375 9.875 37.09375 9.671875 35.796875 8.078125 
C 34.59375 6.390625 30.703125 1 24.40625 1 
C 18.796875 1 17 5.09375 17 9.765625 
C 17 12.671875 17.90625 16.15625 18.296875 17.859375 
L 22.796875 35.828125 
C 23.296875 37.71875 24.09375 40.90625 24.09375 41.515625 
C 24.09375 43.109375 22.796875 44 21.5 44 
C 20.59375 44 18.40625 43.703125 17.59375 40.5 
L 3.09375 -17.296875 
C 3 -17.796875 2.796875 -18.390625 2.796875 -19 
C 2.796875 -20.5 4 -21.5 5.5 -21.5 
C 8.40625 -21.5 9 -19.1875 9.703125 -16.40625 
z
" id="CMMI12-22"/>
      <path d="M 64.296875 31.515625 
C 65.796875 31.515625 67.296875 31.515625 67.296875 33.203125 
C 67.296875 35 65.59375 35 63.90625 35 
L 8 35 
C 6.296875 35 4.59375 35 4.59375 33.203125 
C 4.59375 31.515625 6.09375 31.515625 7.59375 31.515625 
z
M 63.90625 14 
C 65.59375 14 67.296875 14 67.296875 15.796875 
C 67.296875 17.484375 65.796875 17.484375 64.296875 17.484375 
L 7.59375 17.484375 
C 6.09375 17.484375 4.59375 17.484375 4.59375 15.796875 
C 4.59375 14 6.296875 14 8 14 
z
" id="CMR17-61"/>
      <path d="M 45.09375 61.578125 
L 45.09375 63.765625 
L 21.59375 63.765625 
C 9.90625 63.765625 9.703125 65.078125 9.296875 67 
L 7.5 67 
L 4.59375 48.34375 
L 6.40625 48.34375 
C 6.703125 50.234375 7.40625 55.3125 8.59375 57.203125 
C 9.203125 58 16.59375 58 18.296875 58 
L 40.296875 58 
L 29.203125 41.578125 
C 21.796875 30.53125 16.703125 15.609375 16.703125 2.578125 
C 16.703125 1.390625 16.703125 -2 20.296875 -2 
C 23.90625 -2 23.90625 1.390625 23.90625 2.671875 
L 23.90625 7.265625 
C 23.90625 23.5625 26.703125 34.3125 31.296875 41.1875 
z
" id="CMR17-55"/>
      <path d="M 11.40625 57.6875 
C 12.40625 57.28125 16.5 56 20.703125 56 
C 30 56 35.09375 61.109375 38 64.0625 
C 38 64.953125 38 65.5 37.40625 65.5 
C 37.296875 65.5 37.09375 65.5 36.296875 65.046875 
C 32.796875 63.40625 28.703125 62.078125 23.703125 62.078125 
C 20.703125 62.078125 16.203125 62.484375 11.296875 64.671875 
C 10.203125 65.171875 10 65.171875 9.90625 65.171875 
C 9.40625 65.171875 9.296875 65.0625 9.296875 63.078125 
L 9.296875 34.421875 
C 9.296875 32.640625 9.296875 32.140625 10.296875 32.140625 
C 10.796875 32.140625 11 32.34375 11.5 33.03125 
C 14.703125 37.515625 19.09375 39.40625 24.09375 39.40625 
C 27.59375 39.40625 35.09375 37.21875 35.09375 20.140625 
C 35.09375 16.953125 35.09375 11.171875 32.09375 6.578125 
C 29.59375 2.484375 25.703125 0.390625 21.40625 0.390625 
C 14.796875 0.390625 8.09375 5 6.296875 12.71875 
C 6.703125 12.609375 7.5 12.421875 7.90625 12.421875 
C 9.203125 12.421875 11.703125 13.125 11.703125 16.21875 
C 11.703125 18.90625 9.796875 20 7.90625 20 
C 5.59375 20 4.09375 18.59375 4.09375 15.796875 
C 4.09375 7.09375 11 -2 21.59375 -2 
C 31.90625 -2 41.703125 6.875 41.703125 19.75 
C 41.703125 31.71875 33.90625 41 24.203125 41 
C 19.09375 41 14.796875 39.109375 11.40625 35.53125 
z
" id="CMR17-53"/>
      <path d="M 19.5 -0.484375 
C 19.5 5.359375 17.59375 9.671875 13.5 9.671875 
C 10.296875 9.671875 8.703125 7.078125 8.703125 4.890625 
C 8.703125 2.6875 10.203125 0 13.59375 0 
C 14.90625 0 16 0.40625 16.90625 1.296875 
C 17.09375 1.5 17.203125 1.5 17.296875 1.5 
C 17.5 1.5 17.5 0.078125 17.5 -0.421875 
C 17.5 -3.75 16.90625 -10.296875 11.09375 -16.875 
C 10 -18.078125 10 -18.28125 10 -18.484375 
C 10 -19 10.5 -19.5 11 -19.5 
C 11.796875 -19.5 19.5 -12.046875 19.5 -0.484375 
z
" id="CMMI12-59"/>
      <path d="M 21.296875 25 
C 24.59375 26.78125 28.296875 29.875 30.796875 31.96875 
C 36.796875 37.140625 39 38.734375 42.796875 40.21875 
C 42.40625 39.625 42.296875 38.828125 42.296875 38.140625 
C 42.296875 35.4375 44.59375 34.9375 45.59375 34.9375 
C 48.796875 34.9375 50.59375 37.921875 50.59375 39.8125 
C 50.59375 40.40625 50.40625 43 46.90625 43 
C 40.90625 43 35 37.984375 30.59375 34.34375 
C 24.796875 29.3125 21.90625 27.15625 17.796875 25.875 
L 21.59375 41.5 
C 21.59375 43.109375 20.296875 44 19 44 
C 18.09375 44 15.90625 43.703125 15.09375 40.5 
L 5.796875 3.5 
C 5.5 2.3125 5.5 2.09375 5.5 1.5 
C 5.5 0.09375 6.59375 -1 8.09375 -1 
C 11.09375 -1 11.703125 1.65625 12.203125 3.8125 
C 12.796875 5.9375 16.90625 23 17.09375 23 
C 29.796875 23 34.09375 19.75 34.09375 14.734375 
C 34.09375 14.015625 34.09375 13.71875 33.796875 12.59375 
C 33.40625 10.65625 33.40625 9.515625 33.40625 8.90625 
C 33.40625 2.78125 37.296875 -1 42.203125 -1 
C 46.296875 -1 48.59375 1.921875 50.09375 4.546875 
C 52.203125 8.484375 53.5 14.03125 53.5 14.421875 
C 53.5 14.9375 53.09375 15.328125 52.5 15.328125 
C 51.59375 15.328125 51.5 14.9375 51.09375 13.3125 
C 49.796875 8.46875 47.59375 1 42.5 1 
C 40.296875 1 39.203125 2.3125 39.203125 5.84375 
C 39.203125 7.78125 39.59375 10.015625 40 11.515625 
C 40.203125 12.53125 40.5 13.75 40.5 14.859375 
C 40.5 24.078125 27.90625 25 21.296875 25 
z
" id="CMMI12-20"/>
      <path d="M 35.203125 29.125 
C 35.203125 7.25 26.09375 0.484375 18.59375 0.484375 
C 16.296875 0.484375 10.703125 0.484375 8.40625 4.59375 
C 11 4.1875 12.90625 5.578125 12.90625 8.09375 
C 12.90625 10.8125 10.703125 11.703125 9.296875 11.703125 
C 8.40625 11.703125 5.703125 11.296875 5.703125 7.90625 
C 5.703125 1.109375 11.59375 -2 18.796875 -2 
C 30.296875 -2 42 10.53125 42 32.390625 
C 42 59.640625 30.796875 65.296875 23.203125 65.296875 
C 13.296875 65.296875 3.796875 56.6875 3.796875 43.40625 
C 3.796875 31.109375 11.90625 22 22.09375 22 
C 30.5 22 34.203125 29.734375 35.203125 33 
z
M 22.296875 23.59375 
C 19.59375 23.59375 15.796875 24.09375 12.703125 30.03125 
C 10.59375 33.890625 10.59375 38.453125 10.59375 43.296875 
C 10.59375 49.15625 10.59375 53.203125 13.40625 57.5625 
C 14.796875 59.640625 17.40625 63 23.203125 63 
C 35 63 35 45.078125 35 41.125 
C 35 34.09375 31.796875 23.59375 22.296875 23.59375 
z
" id="CMR17-57"/>
     </defs>
     <g transform="translate(115.61243 26.79832)scale(0.1 -0.1)">
      <use transform="scale(0.996264)" xlink:href="#CMMI12-22"/>
      <use transform="translate(86.36543 0)scale(0.996264)" xlink:href="#CMR17-61"/>
      <use transform="translate(185.754227 0)scale(0.996264)" xlink:href="#CMR17-48"/>
      <use transform="translate(231.444704 0)scale(0.996264)" xlink:href="#CMMI12-58"/>
      <use transform="translate(258.541882 0)scale(0.996264)" xlink:href="#CMR17-55"/>
      <use transform="translate(304.232359 0)scale(0.996264)" xlink:href="#CMR17-53"/>
      <use transform="translate(349.922836 0)scale(0.996264)" xlink:href="#CMMI12-59"/>
      <use transform="translate(393.624418 0)scale(0.996264)" xlink:href="#CMMI12-20"/>
      <use transform="translate(477.453051 0)scale(0.996264)" xlink:href="#CMR17-61"/>
      <use transform="translate(576.841848 0)scale(0.996264)" xlink:href="#CMR17-50"/>
      <use transform="translate(622.532325 0)scale(0.996264)" xlink:href="#CMR17-53"/>
      <use transform="translate(668.222802 0)scale(0.996264)" xlink:href="#CMR17-57"/>
     </g>
    </g>
    <g id="line2d_19"/>
    <g id="line2d_20">
     <g>
      <use style="fill:#be4100;opacity:0.4;stroke:#be4100;" x="97.61243" xlink:href="#m8f2c753804" y="37.518627"/>
     </g>
    </g>
    <g id="text_12">
     <!-- $\mu=1.50, \kappa = -483$ -->
     <defs>
      <path d="M 65.90625 23 
C 67.59375 23 69.40625 23 69.40625 25 
C 69.40625 27 67.59375 27 65.90625 27 
L 11.796875 27 
C 10.09375 27 8.296875 27 8.296875 25 
C 8.296875 23 10.09375 23 11.796875 23 
z
" id="CMSY10-0"/>
      <path d="M 27.203125 35.375 
C 33.5 38.546875 39.90625 43.328125 39.90625 50.984375 
C 39.90625 60.015625 31.09375 65.296875 23 65.296875 
C 13.90625 65.296875 5.90625 58.734375 5.90625 49.6875 
C 5.90625 47.203125 6.5 42.921875 10.40625 39.140625 
C 11.40625 38.15625 15.59375 35.171875 18.296875 33.28125 
C 13.796875 30.984375 3.296875 25.53125 3.296875 14.59375 
C 3.296875 4.359375 13.09375 -2 22.796875 -2 
C 33.5 -2 42.5 5.65625 42.5 15.78125 
C 42.5 24.84375 36.40625 29.015625 32.40625 31.703125 
z
M 14.09375 44.09375 
C 13.296875 44.59375 9.296875 47.671875 9.296875 52.359375 
C 9.296875 58.421875 15.59375 63 22.796875 63 
C 30.703125 63 36.5 57.4375 36.5 50.96875 
C 36.5 41.703125 26.09375 36.421875 25.59375 36.421875 
C 25.5 36.421875 25.40625 36.421875 24.59375 37.03125 
z
M 32.5 23.734375 
C 34 22.640625 38.796875 19.375 38.796875 13.296875 
C 38.796875 5.953125 31.40625 0.390625 23 0.390625 
C 13.90625 0.390625 7 6.84375 7 14.6875 
C 7 22.546875 13.09375 29.09375 20 32.1875 
z
" id="CMR17-56"/>
     </defs>
     <g transform="translate(115.61243 41.018627)scale(0.1 -0.1)">
      <use transform="scale(0.996264)" xlink:href="#CMMI12-22"/>
      <use transform="translate(86.36543 0)scale(0.996264)" xlink:href="#CMR17-61"/>
      <use transform="translate(185.754227 0)scale(0.996264)" xlink:href="#CMR17-49"/>
      <use transform="translate(231.444704 0)scale(0.996264)" xlink:href="#CMMI12-58"/>
      <use transform="translate(258.541882 0)scale(0.996264)" xlink:href="#CMR17-53"/>
      <use transform="translate(304.232359 0)scale(0.996264)" xlink:href="#CMR17-48"/>
      <use transform="translate(349.922836 0)scale(0.996264)" xlink:href="#CMMI12-59"/>
      <use transform="translate(393.624418 0)scale(0.996264)" xlink:href="#CMMI12-20"/>
      <use transform="translate(477.453051 0)scale(0.996264)" xlink:href="#CMR17-61"/>
      <use transform="translate(576.841848 0)scale(0.996264)" xlink:href="#CMSY10-0"/>
      <use transform="translate(654.329316 0)scale(0.996264)" xlink:href="#CMR17-52"/>
      <use transform="translate(700.019793 0)scale(0.996264)" xlink:href="#CMR17-56"/>
      <use transform="translate(745.71027 0)scale(0.996264)" xlink:href="#CMR17-51"/>
     </g>
    </g>
    <g id="line2d_21"/>
    <g id="line2d_22">
     <g>
      <use style="fill:#c0003f;opacity:0.4;stroke:#c0003f;stroke-linejoin:miter;" x="97.61243" xlink:href="#mf57d93e976" y="51.738934"/>
     </g>
    </g>
    <g id="text_13">
     <!-- $\mu=1.75, \kappa = -730$ -->
     <g transform="translate(115.61243 55.238934)scale(0.1 -0.1)">
      <use transform="scale(0.996264)" xlink:href="#CMMI12-22"/>
      <use transform="translate(86.36543 0)scale(0.996264)" xlink:href="#CMR17-61"/>
      <use transform="translate(185.754227 0)scale(0.996264)" xlink:href="#CMR17-49"/>
      <use transform="translate(231.444704 0)scale(0.996264)" xlink:href="#CMMI12-58"/>
      <use transform="translate(258.541882 0)scale(0.996264)" xlink:href="#CMR17-55"/>
      <use transform="translate(304.232359 0)scale(0.996264)" xlink:href="#CMR17-53"/>
      <use transform="translate(349.922836 0)scale(0.996264)" xlink:href="#CMMI12-59"/>
      <use transform="translate(393.624418 0)scale(0.996264)" xlink:href="#CMMI12-20"/>
      <use transform="translate(477.453051 0)scale(0.996264)" xlink:href="#CMR17-61"/>
      <use transform="translate(576.841848 0)scale(0.996264)" xlink:href="#CMSY10-0"/>
      <use transform="translate(654.329316 0)scale(0.996264)" xlink:href="#CMR17-55"/>
      <use transform="translate(700.019793 0)scale(0.996264)" xlink:href="#CMR17-51"/>
      <use transform="translate(745.71027 0)scale(0.996264)" xlink:href="#CMR17-48"/>
     </g>
    </g>
    <g id="line2d_23"/>
    <g id="line2d_24">
     <g>
      <use style="fill:#4000bf;opacity:0.4;stroke:#4000bf;stroke-linejoin:miter;" x="97.61243" xlink:href="#meeff46ed67" y="65.95924"/>
     </g>
    </g>
    <g id="text_14">
     <!-- $\mu=2.00, \kappa = -978$ -->
     <g transform="translate(115.61243 69.45924)scale(0.1 -0.1)">
      <use transform="scale(0.996264)" xlink:href="#CMMI12-22"/>
      <use transform="translate(86.36543 0)scale(0.996264)" xlink:href="#CMR17-61"/>
      <use transform="translate(185.754227 0)scale(0.996264)" xlink:href="#CMR17-50"/>
      <use transform="translate(231.444704 0)scale(0.996264)" xlink:href="#CMMI12-58"/>
      <use transform="translate(258.541882 0)scale(0.996264)" xlink:href="#CMR17-48"/>
      <use transform="translate(304.232359 0)scale(0.996264)" xlink:href="#CMR17-48"/>
      <use transform="translate(349.922836 0)scale(0.996264)" xlink:href="#CMMI12-59"/>
      <use transform="translate(393.624418 0)scale(0.996264)" xlink:href="#CMMI12-20"/>
      <use transform="translate(477.453051 0)scale(0.996264)" xlink:href="#CMR17-61"/>
      <use transform="translate(576.841848 0)scale(0.996264)" xlink:href="#CMSY10-0"/>
      <use transform="translate(654.329316 0)scale(0.996264)" xlink:href="#CMR17-57"/>
      <use transform="translate(700.019793 0)scale(0.996264)" xlink:href="#CMR17-55"/>
      <use transform="translate(745.71027 0)scale(0.996264)" xlink:href="#CMR17-56"/>
     </g>
    </g>
   </g>
  </g>
 </g>
 <defs>
  <clipPath id="p2b72de2bf3">
   <rect height="264.3" width="241.328183" x="78.61243" y="10.7"/>
  </clipPath>
 </defs>
</svg>
