<?xml version="1.0" encoding="utf-8" standalone="no"?>
<!DOCTYPE svg PUBLIC "-//W3C//DTD SVG 1.1//EN"
  "http://www.w3.org/Graphics/SVG/1.1/DTD/svg11.dtd">
<!-- Created with matplotlib (http://matplotlib.org/) -->
<svg height="360pt" version="1.1" viewBox="0 0 720 360" width="720pt" xmlns="http://www.w3.org/2000/svg" xmlns:xlink="http://www.w3.org/1999/xlink">
 <defs>
  <style type="text/css">
*{stroke-linecap:butt;stroke-linejoin:round;}
  </style>
 </defs>
 <g id="figure_1">
  <g id="patch_1">
   <path d="M 0 360 
L 720 360 
L 720 0 
L 0 0 
z
" style="fill:#ffffff;"/>
  </g>
  <g id="axes_1">
   <g id="patch_2">
    <path d="M 90.793114 289.4 
L 335.836569 289.4 
L 335.836569 29.1 
L 90.793114 29.1 
z
" style="fill:#ffffff;"/>
   </g>
   <g id="matplotlib.axis_1">
    <g id="xtick_1">
     <g id="line2d_1">
      <defs>
       <path d="M 0 0 
L 0 3.5 
" id="m54d3f7f7c4" style="stroke:#000000;stroke-width:0.8;"/>
      </defs>
      <g>
       <use style="stroke:#000000;stroke-width:0.8;" x="115.995012" xlink:href="#m54d3f7f7c4" y="289.4"/>
      </g>
     </g>
     <g id="text_1">
      <!-- $-5.0$ -->
      <defs>
       <path d="M 65.90625 23 
C 67.59375 23 69.40625 23 69.40625 25 
C 69.40625 27 67.59375 27 65.90625 27 
L 11.796875 27 
C 10.09375 27 8.296875 27 8.296875 25 
C 8.296875 23 10.09375 23 11.796875 23 
z
" id="CMSY10-0"/>
       <path d="M 11.40625 57.6875 
C 12.40625 57.28125 16.5 56 20.703125 56 
C 30 56 35.09375 61.109375 38 64.0625 
C 38 64.953125 38 65.5 37.40625 65.5 
C 37.296875 65.5 37.09375 65.5 36.296875 65.046875 
C 32.796875 63.40625 28.703125 62.078125 23.703125 62.078125 
C 20.703125 62.078125 16.203125 62.484375 11.296875 64.671875 
C 10.203125 65.171875 10 65.171875 9.90625 65.171875 
C 9.40625 65.171875 9.296875 65.0625 9.296875 63.078125 
L 9.296875 34.421875 
C 9.296875 32.640625 9.296875 32.140625 10.296875 32.140625 
C 10.796875 32.140625 11 32.34375 11.5 33.03125 
C 14.703125 37.515625 19.09375 39.40625 24.09375 39.40625 
C 27.59375 39.40625 35.09375 37.21875 35.09375 20.140625 
C 35.09375 16.953125 35.09375 11.171875 32.09375 6.578125 
C 29.59375 2.484375 25.703125 0.390625 21.40625 0.390625 
C 14.796875 0.390625 8.09375 5 6.296875 12.71875 
C 6.703125 12.609375 7.5 12.421875 7.90625 12.421875 
C 9.203125 12.421875 11.703125 13.125 11.703125 16.21875 
C 11.703125 18.90625 9.796875 20 7.90625 20 
C 5.59375 20 4.09375 18.59375 4.09375 15.796875 
C 4.09375 7.09375 11 -2 21.59375 -2 
C 31.90625 -2 41.703125 6.875 41.703125 19.75 
C 41.703125 31.71875 33.90625 41 24.203125 41 
C 19.09375 41 14.796875 39.109375 11.40625 35.53125 
z
" id="CMR17-53"/>
       <path d="M 18.40625 4.796875 
C 18.40625 7.6875 16 9.671875 13.59375 9.671875 
C 10.703125 9.671875 8.703125 7.28125 8.703125 4.890625 
C 8.703125 2 11.09375 0 13.5 0 
C 16.40625 0 18.40625 2.390625 18.40625 4.796875 
z
" id="CMMI12-58"/>
       <path d="M 42 31.640625 
C 42 37.75 41.90625 48.125 37.703125 56.109375 
C 34 63.109375 28.09375 65.59375 22.90625 65.59375 
C 18.09375 65.59375 12 63.40625 8.203125 56.203125 
C 4.203125 48.71875 3.796875 39.4375 3.796875 31.640625 
C 3.796875 25.953125 3.90625 17.28125 7 9.671875 
C 11.296875 -0.609375 19 -2 22.90625 -2 
C 27.5 -2 34.5 -0.109375 38.59375 9.375 
C 41.59375 16.28125 42 24.359375 42 31.640625 
z
M 22.90625 -0.40625 
C 16.5 -0.40625 12.703125 5.078125 11.296875 12.6875 
C 10.203125 18.5625 10.203125 27.15625 10.203125 32.75 
C 10.203125 40.4375 10.203125 46.828125 11.5 52.921875 
C 13.40625 61.390625 19 64 22.90625 64 
C 27 64 32.296875 61.296875 34.203125 53.125 
C 35.5 47.4375 35.59375 40.734375 35.59375 32.75 
C 35.59375 26.25 35.59375 18.265625 34.40625 12.375 
C 32.296875 1.484375 26.40625 -0.40625 22.90625 -0.40625 
z
" id="CMR17-48"/>
      </defs>
      <g transform="translate(96.398455 310.596641)scale(0.2 -0.2)">
       <use transform="scale(0.996264)" xlink:href="#CMSY10-0"/>
       <use transform="translate(77.487468 0)scale(0.996264)" xlink:href="#CMR17-53"/>
       <use transform="translate(123.177945 0)scale(0.996264)" xlink:href="#CMMI12-58"/>
       <use transform="translate(150.275122 0)scale(0.996264)" xlink:href="#CMR17-48"/>
      </g>
     </g>
    </g>
    <g id="xtick_2">
     <g id="line2d_2">
      <g>
       <use style="stroke:#000000;stroke-width:0.8;" x="186.312808" xlink:href="#m54d3f7f7c4" y="289.4"/>
      </g>
     </g>
     <g id="text_2">
      <!-- $-2.5$ -->
      <defs>
       <path d="M 41.703125 15.453125 
L 39.90625 15.453125 
C 38.90625 8.375 38.09375 7.171875 37.703125 6.5625 
C 37.203125 5.765625 30 5.765625 28.59375 5.765625 
L 9.40625 5.765625 
C 13 9.671875 20 16.75 28.5 24.953125 
C 34.59375 30.734375 41.703125 37.53125 41.703125 47.421875 
C 41.703125 59.21875 32.296875 66 21.796875 66 
C 10.796875 66 4.09375 56.3125 4.09375 47.34375 
C 4.09375 43.4375 7 42.9375 8.203125 42.9375 
C 9.203125 42.9375 12.203125 43.546875 12.203125 47.03125 
C 12.203125 50.109375 9.59375 51 8.203125 51 
C 7.59375 51 7 50.90625 6.59375 50.703125 
C 8.5 59.21875 14.296875 63.40625 20.40625 63.40625 
C 29.09375 63.40625 34.796875 56.515625 34.796875 47.421875 
C 34.796875 38.734375 29.703125 31.25 24 24.75 
L 4.09375 2.28125 
L 4.09375 0 
L 39.296875 0 
z
" id="CMR17-50"/>
      </defs>
      <g transform="translate(166.716251 310.596641)scale(0.2 -0.2)">
       <use transform="scale(0.996264)" xlink:href="#CMSY10-0"/>
       <use transform="translate(77.487468 0)scale(0.996264)" xlink:href="#CMR17-50"/>
       <use transform="translate(123.177945 0)scale(0.996264)" xlink:href="#CMMI12-58"/>
       <use transform="translate(150.275122 0)scale(0.996264)" xlink:href="#CMR17-53"/>
      </g>
     </g>
    </g>
    <g id="xtick_3">
     <g id="line2d_3">
      <g>
       <use style="stroke:#000000;stroke-width:0.8;" x="256.630604" xlink:href="#m54d3f7f7c4" y="289.4"/>
      </g>
     </g>
     <g id="text_3">
      <!-- $0.0$ -->
      <g transform="translate(244.782791 310.596641)scale(0.2 -0.2)">
       <use transform="scale(0.996264)" xlink:href="#CMR17-48"/>
       <use transform="translate(45.690477 0)scale(0.996264)" xlink:href="#CMMI12-58"/>
       <use transform="translate(72.787654 0)scale(0.996264)" xlink:href="#CMR17-48"/>
      </g>
     </g>
    </g>
    <g id="xtick_4">
     <g id="line2d_4">
      <g>
       <use style="stroke:#000000;stroke-width:0.8;" x="326.9484" xlink:href="#m54d3f7f7c4" y="289.4"/>
      </g>
     </g>
     <g id="text_4">
      <!-- $2.5$ -->
      <g transform="translate(315.100586 310.596641)scale(0.2 -0.2)">
       <use transform="scale(0.996264)" xlink:href="#CMR17-50"/>
       <use transform="translate(45.690477 0)scale(0.996264)" xlink:href="#CMMI12-58"/>
       <use transform="translate(72.787654 0)scale(0.996264)" xlink:href="#CMR17-53"/>
      </g>
     </g>
    </g>
    <g id="text_5">
     <!-- Mutant relative control strength, $\delta$ -->
     <defs>
      <path d="M 46.796875 -0.03125 
L 67.296875 61.171875 
L 67.296875 -0.03125 
L 76.09375 -0.03125 
L 76.09375 73 
L 63.203125 73 
L 42 9.390625 
L 20.40625 73 
L 7.5 73 
L 7.5 -0.03125 
L 16.296875 -0.03125 
L 16.296875 61.171875 
L 37 -0.03125 
z
" id="Nimbus_Sans_L_Regular-77"/>
      <path d="M 48.203125 0.515625 
L 48.203125 53 
L 39.90625 53 
L 39.90625 23.109375 
C 39.90625 12.34375 34.296875 5.3125 25.59375 5.3125 
C 19 5.3125 14.796875 9.328125 14.796875 15.671875 
L 14.796875 53 
L 6.5 53 
L 6.5 12.375 
C 6.5 3.625 13 -2 23.203125 -2 
C 30.90625 -2 35.796875 0.703125 40.703125 7.625 
L 40.703125 0.515625 
z
" id="Nimbus_Sans_L_Regular-117"/>
      <path d="M 25.40625 52.8125 
L 16.796875 52.8125 
L 16.796875 67 
L 8.5 67 
L 8.5 52.8125 
L 1.40625 52.8125 
L 1.40625 46 
L 8.5 46 
L 8.5 6.3125 
C 8.5 1 12.09375 -2 18.59375 -2 
C 20.59375 -2 22.59375 -1.8125 25.40625 -1.296875 
L 25.40625 5.71875 
C 24.296875 5.40625 23 5.3125 21.40625 5.3125 
C 17.796875 5.3125 16.796875 6.3125 16.796875 10.015625 
L 16.796875 46 
L 25.40625 46 
z
" id="Nimbus_Sans_L_Regular-116"/>
      <path d="M 53.5 5.203125 
C 52.59375 5 52.203125 5 51.703125 5 
C 48.796875 5 47.203125 6.484375 47.203125 9.078125 
L 47.203125 39.765625 
C 47.203125 49.015625 40.40625 54 27.5 54 
C 19.90625 54 13.59375 51.8125 10.09375 47.90625 
C 7.703125 45.203125 6.703125 42.21875 6.5 37.03125 
L 14.90625 37.03125 
C 15.59375 43.390625 19.40625 46.28125 27.203125 46.28125 
C 34.703125 46.28125 38.90625 43.484375 38.90625 38.515625 
L 38.90625 36.328125 
C 38.90625 32.828125 36.796875 31.34375 30.203125 30.546875 
C 18.40625 29.0625 16.59375 28.65625 13.40625 27.359375 
C 7.296875 24.875 4.203125 20.1875 4.203125 13.421875 
C 4.203125 3.96875 10.796875 -2 21.40625 -2 
C 28 -2 33.296875 0.296875 39.203125 5.703125 
C 39.796875 0.390625 42.40625 -2 47.796875 -2 
C 49.5 -2 50.796875 -1.8125 53.5 -1.09375 
z
M 38.90625 16.75 
C 38.90625 13.953125 38.09375 12.265625 35.59375 9.984375 
C 32.203125 6.890625 28.09375 5.3125 23.203125 5.3125 
C 16.703125 5.3125 12.90625 8.390625 12.90625 13.65625 
C 12.90625 19.140625 16.59375 21.921875 25.5 23.21875 
C 34.296875 24.40625 36.09375 24.8125 38.90625 26.09375 
z
" id="Nimbus_Sans_L_Regular-97"/>
      <path d="M 7 52.484375 
L 7 0 
L 15.40625 0 
L 15.40625 28.953125 
C 15.40625 39.671875 21 46.6875 29.59375 46.6875 
C 36.203125 46.6875 40.40625 42.671875 40.40625 36.359375 
L 40.40625 0 
L 48.703125 0 
L 48.703125 39.671875 
C 48.703125 48.390625 42.203125 54 32.09375 54 
C 24.296875 54 19.296875 50.984375 14.703125 43.6875 
L 14.703125 52.484375 
z
" id="Nimbus_Sans_L_Regular-110"/>
      <path d="M 6.90625 52.484375 
L 6.90625 0 
L 15.296875 0 
L 15.296875 27.203125 
C 15.296875 34.703125 17.203125 39.609375 21.203125 42.5 
C 23.796875 44.40625 26.296875 45 32.09375 45 
L 32.09375 53.625 
C 30.703125 53.8125 30 53.8125 28.90625 53.8125 
C 23.5 53.8125 19.40625 50.625 14.59375 42.90625 
L 14.59375 52.484375 
z
" id="Nimbus_Sans_L_Regular-114"/>
      <path d="M 51.296875 23.890625 
C 51.296875 31.78125 50.703125 36.53125 49.203125 40.375 
C 45.796875 48.859375 37.796875 54 28 54 
C 13.40625 54 4 42.84375 4 25.703125 
C 4 8.546875 13.09375 -2 27.796875 -2 
C 39.796875 -2 48.09375 4.84375 50.203125 16.3125 
L 41.796875 16.3125 
C 39.5 9.34375 34.796875 5.703125 28.09375 5.703125 
C 22.796875 5.703125 18.296875 8.125 15.5 12.578125 
C 13.5 15.59375 12.796875 18.640625 12.703125 23.890625 
z
M 12.90625 31 
C 13.59375 40.265625 19.5 46.28125 27.90625 46.28125 
C 36.09375 46.28125 42.40625 39.53125 42.40625 31 
C 42.40625 31 42.40625 31 42.296875 31 
z
" id="Nimbus_Sans_L_Regular-101"/>
      <path d="M 15.203125 73 
L 6.796875 73 
L 6.796875 -0.03125 
L 15.203125 -0.03125 
z
" id="Nimbus_Sans_L_Regular-108"/>
      <path d="M 15 52.484375 
L 6.703125 52.484375 
L 6.703125 0 
L 15 0 
z
M 15 73 
L 6.59375 73 
L 6.59375 62.484375 
L 15 62.484375 
z
" id="Nimbus_Sans_L_Regular-105"/>
      <path d="M 28.5 0 
L 48.59375 52.5 
L 39.203125 52.5 
L 24.40625 9.921875 
L 10.40625 52.5 
L 1 52.5 
L 19.40625 0 
z
" id="Nimbus_Sans_L_Regular-118"/>
      <path d="M 47.09375 34.9375 
C 46.703125 40.03125 45.59375 43.328125 43.59375 46.21875 
C 40 51.109375 33.703125 54 26.40625 54 
C 12.296875 54 3.09375 42.84375 3.09375 25.5 
C 3.09375 8.65625 12.09375 -2 26.296875 -2 
C 38.796875 -2 46.703125 5.46875 47.703125 18.234375 
L 39.296875 18.234375 
C 37.90625 9.875 33.59375 5.703125 26.5 5.703125 
C 17.296875 5.703125 11.796875 13.171875 11.796875 25.5 
C 11.796875 38.53125 17.203125 46.28125 26.296875 46.28125 
C 33.296875 46.28125 37.703125 42.203125 38.703125 34.9375 
z
" id="Nimbus_Sans_L_Regular-99"/>
      <path d="M 27.203125 54 
C 12.5 54 3.59375 43.53125 3.59375 25.984375 
C 3.59375 8.453125 12.40625 -2 27.296875 -2 
C 42 -2 51 8.453125 51 25.59375 
C 51 43.625 42.296875 54 27.203125 54 
z
M 27.296875 46.28125 
C 36.703125 46.28125 42.296875 38.625 42.296875 25.703125 
C 42.296875 13.453125 36.5 5.703125 27.296875 5.703125 
C 18 5.703125 12.296875 13.359375 12.296875 25.984375 
C 12.296875 38.53125 18 46.28125 27.296875 46.28125 
z
" id="Nimbus_Sans_L_Regular-111"/>
      <path d="M 43.796875 37.921875 
C 43.703125 48.203125 36.90625 54 24.796875 54 
C 12.59375 54 4.703125 47.71875 4.703125 38.0625 
C 4.703125 29.890625 8.90625 26.015625 21.296875 23.03125 
L 29.09375 21.140625 
C 34.90625 19.734375 37.203125 17.65625 37.203125 13.875 
C 37.203125 9 32.296875 5.703125 25 5.703125 
C 20.5 5.703125 16.703125 7 14.59375 9.1875 
C 13.296875 10.6875 12.703125 12.171875 12.203125 15.84375 
L 3.40625 15.84375 
C 3.796875 3.765625 10.59375 -2 24.296875 -2 
C 37.5 -2 45.90625 4.453125 45.90625 14.515625 
C 45.90625 22.28125 41.5 26.578125 31.09375 29.0625 
L 23.09375 30.953125 
C 16.296875 32.53125 13.40625 34.734375 13.40625 38.40625 
C 13.40625 43.1875 17.703125 46.28125 24.5 46.28125 
C 31.203125 46.28125 34.796875 43.390625 35 37.921875 
z
" id="Nimbus_Sans_L_Regular-115"/>
      <path d="M 41.203125 52.203125 
L 41.203125 44.59375 
C 37 50.8125 31.90625 53.71875 25.203125 53.71875 
C 11.90625 53.71875 2.90625 42.0625 2.90625 25 
C 2.90625 16.375 5.203125 9.34375 9.5 4.3125 
C 13.40625 -0.109375 19 -2.703125 24.5 -2.703125 
C 31.09375 -2.703125 35.703125 0.09375 40.40625 6.703125 
L 40.40625 4.03125 
C 40.40625 -3 39.5 -7.265625 37.40625 -10.140625 
C 35.203125 -13.1875 30.90625 -14.984375 25.796875 -14.984375 
C 22 -14.984375 18.59375 -14 16.296875 -12.234375 
C 14.40625 -10.75 13.59375 -9.375 13.09375 -6.34375 
L 4.59375 -6.34375 
C 5.5 -16.140625 13.203125 -22 25.5 -22 
C 33.296875 -22 40 -19.484375 43.40625 -15.296875 
C 47.40625 -10.484375 48.90625 -3.890625 48.90625 8.40625 
L 48.90625 52.203125 
z
M 26.09375 46 
C 35.09375 46 40.40625 38.359375 40.40625 25.203125 
C 40.40625 12.625 35 5 26.203125 5 
C 17.09375 5 11.59375 12.75 11.59375 25.5 
C 11.59375 38.15625 17.203125 46 26.09375 46 
z
" id="Nimbus_Sans_L_Regular-103"/>
      <path d="M 7 73 
L 7 -0.03125 
L 15.296875 -0.03125 
L 15.296875 28.9375 
C 15.296875 39.671875 20.90625 46.6875 29.5 46.6875 
C 32.203125 46.6875 34.90625 45.78125 36.90625 44.28125 
C 39.296875 42.578125 40.296875 40.0625 40.296875 36.359375 
L 40.296875 -0.03125 
L 48.59375 -0.03125 
L 48.59375 39.65625 
C 48.59375 48.484375 42.296875 54 32.09375 54 
C 24.703125 54 20.203125 51.6875 15.296875 45.28125 
L 15.296875 73 
z
" id="Nimbus_Sans_L_Regular-104"/>
      <path d="M 8.703125 10 
L 8.703125 -0.421875 
L 14.703125 -0.421875 
L 14.703125 -2.21875 
C 14.703125 -9.109375 13.40625 -11.09375 8.703125 -11.09375 
L 8.703125 -15 
C 15.703125 -15 19.203125 -10.53125 19.203125 -1.96875 
L 19.203125 10 
z
" id="Nimbus_Sans_L_Regular-44"/>
      <path d="M 26 43.671875 
C 13.203125 40.578125 4 27.3125 4 15.640625 
C 4 4.984375 11.203125 -1 19.203125 -1 
C 31 -1 39 15.15625 39 28.40625 
C 39 37.375 34.796875 42.875 32.296875 46.15625 
C 28.59375 50.84375 22.59375 58.53125 22.59375 63.3125 
C 22.59375 65.015625 23.90625 68 28.296875 68 
C 31.40625 68 33.296875 66.90625 36.296875 65.203125 
C 37.203125 64.59375 39.5 63.3125 40.796875 63.3125 
C 42.90625 63.3125 44.40625 65.390625 44.40625 66.984375 
C 44.40625 68.890625 42.90625 69.1875 39.40625 69.984375 
C 34.703125 70.984375 33.296875 70.984375 31.59375 70.984375 
C 29.90625 70.984375 20.09375 70.984375 20.09375 60.8125 
C 20.09375 55.921875 22.59375 50.25 26 43.671875 
z
M 27.09375 41.703125 
C 30.90625 33.828125 32.40625 30.84375 32.40625 24.375 
C 32.40625 16.609375 28.203125 0.984375 19.296875 0.984375 
C 15.40625 0.984375 9.796875 3.578125 9.796875 12.828125 
C 9.796875 19.296875 13.5 38.109375 27.09375 41.703125 
z
" id="CMMI12-14"/>
     </defs>
     <g transform="translate(66.939167 333.037254)scale(0.2 -0.2)">
      <use transform="scale(0.996264)" xlink:href="#Nimbus_Sans_L_Regular-77"/>
      <use transform="translate(82.98843 0)scale(0.996264)" xlink:href="#Nimbus_Sans_L_Regular-117"/>
      <use transform="translate(138.380107 0)scale(0.996264)" xlink:href="#Nimbus_Sans_L_Regular-116"/>
      <use transform="translate(166.075277 0)scale(0.996264)" xlink:href="#Nimbus_Sans_L_Regular-97"/>
      <use transform="translate(221.466954 0)scale(0.996264)" xlink:href="#Nimbus_Sans_L_Regular-110"/>
      <use transform="translate(276.858631 0)scale(0.996264)" xlink:href="#Nimbus_Sans_L_Regular-116"/>
      <use transform="translate(332.24897 0)scale(0.996264)" xlink:href="#Nimbus_Sans_L_Regular-114"/>
      <use transform="translate(365.4242 0)scale(0.996264)" xlink:href="#Nimbus_Sans_L_Regular-101"/>
      <use transform="translate(420.815877 0)scale(0.996264)" xlink:href="#Nimbus_Sans_L_Regular-108"/>
      <use transform="translate(442.932661 0)scale(0.996264)" xlink:href="#Nimbus_Sans_L_Regular-97"/>
      <use transform="translate(498.324338 0)scale(0.996264)" xlink:href="#Nimbus_Sans_L_Regular-116"/>
      <use transform="translate(526.019508 0)scale(0.996264)" xlink:href="#Nimbus_Sans_L_Regular-105"/>
      <use transform="translate(548.136292 0)scale(0.996264)" xlink:href="#Nimbus_Sans_L_Regular-118"/>
      <use transform="translate(595.458863 0)scale(0.996264)" xlink:href="#Nimbus_Sans_L_Regular-101"/>
      <use transform="translate(678.545709 0)scale(0.996264)" xlink:href="#Nimbus_Sans_L_Regular-99"/>
      <use transform="translate(728.35891 0)scale(0.996264)" xlink:href="#Nimbus_Sans_L_Regular-111"/>
      <use transform="translate(783.750587 0)scale(0.996264)" xlink:href="#Nimbus_Sans_L_Regular-110"/>
      <use transform="translate(839.142264 0)scale(0.996264)" xlink:href="#Nimbus_Sans_L_Regular-116"/>
      <use transform="translate(866.837433 0)scale(0.996264)" xlink:href="#Nimbus_Sans_L_Regular-114"/>
      <use transform="translate(900.012663 0)scale(0.996264)" xlink:href="#Nimbus_Sans_L_Regular-111"/>
      <use transform="translate(955.40434 0)scale(0.996264)" xlink:href="#Nimbus_Sans_L_Regular-108"/>
      <use transform="translate(1005.216294 0)scale(0.996264)" xlink:href="#Nimbus_Sans_L_Regular-115"/>
      <use transform="translate(1055.029494 0)scale(0.996264)" xlink:href="#Nimbus_Sans_L_Regular-116"/>
      <use transform="translate(1082.724664 0)scale(0.996264)" xlink:href="#Nimbus_Sans_L_Regular-114"/>
      <use transform="translate(1115.899894 0)scale(0.996264)" xlink:href="#Nimbus_Sans_L_Regular-101"/>
      <use transform="translate(1171.291571 0)scale(0.996264)" xlink:href="#Nimbus_Sans_L_Regular-110"/>
      <use transform="translate(1226.683248 0)scale(0.996264)" xlink:href="#Nimbus_Sans_L_Regular-103"/>
      <use transform="translate(1282.074925 0)scale(0.996264)" xlink:href="#Nimbus_Sans_L_Regular-116"/>
      <use transform="translate(1309.770094 0)scale(0.996264)" xlink:href="#Nimbus_Sans_L_Regular-104"/>
      <use transform="translate(1365.161771 0)scale(0.996264)" xlink:href="#Nimbus_Sans_L_Regular-44"/>
      <use transform="translate(1420.55211 0)scale(0.996264)" xlink:href="#CMMI12-14"/>
     </g>
    </g>
   </g>
   <g id="matplotlib.axis_2">
    <g id="ytick_1">
     <g id="line2d_5">
      <defs>
       <path d="M 0 0 
L -3.5 0 
" id="mae3b939423" style="stroke:#000000;stroke-width:0.8;"/>
      </defs>
      <g>
       <use style="stroke:#000000;stroke-width:0.8;" x="90.793114" xlink:href="#mae3b939423" y="289.4"/>
      </g>
     </g>
     <g id="text_6">
      <!-- $-3.0$ -->
      <defs>
       <path d="M 22.09375 33.703125 
C 31 33.703125 34.90625 25.96875 34.90625 17.03125 
C 34.90625 5 28.5 0.390625 22.703125 0.390625 
C 17.40625 0.390625 8.796875 3.03125 6.09375 10.828125 
C 6.59375 10.625 7.09375 10.625 7.59375 10.625 
C 10 10.625 11.796875 12.21875 11.796875 14.8125 
C 11.796875 17.703125 9.59375 19 7.59375 19 
C 5.90625 19 3.296875 18.203125 3.296875 14.46875 
C 3.296875 5.234375 12.296875 -2 22.90625 -2 
C 34 -2 42.5 6.71875 42.5 16.953125 
C 42.5 26.671875 34.5 33.703125 25 34.796875 
C 32.59375 36.375 39.90625 43.0625 39.90625 52.015625 
C 39.90625 59.6875 32 65.296875 23 65.296875 
C 13.90625 65.296875 5.90625 59.828125 5.90625 52.015625 
C 5.90625 48.59375 8.5 48 9.796875 48 
C 11.90625 48 13.703125 49.296875 13.703125 51.890625 
C 13.703125 54.46875 11.90625 55.765625 9.796875 55.765625 
C 9.40625 55.765625 8.90625 55.765625 8.5 55.578125 
C 11.40625 61.859375 19.296875 63 22.796875 63 
C 26.296875 63 32.90625 61.328125 32.90625 51.875 
C 32.90625 49.109375 32.5 44.1875 29.09375 39.84375 
C 26.09375 36 22.703125 36 19.40625 35.6875 
C 18.90625 35.6875 16.59375 35.453125 16.203125 35.453125 
C 15.5 35.359375 15.09375 35.265625 15.09375 34.5 
C 15.09375 33.796875 15.203125 33.703125 17.203125 33.703125 
z
" id="CMR17-51"/>
      </defs>
      <g transform="translate(44.6 296.49832)scale(0.2 -0.2)">
       <use transform="scale(0.996264)" xlink:href="#CMSY10-0"/>
       <use transform="translate(77.487468 0)scale(0.996264)" xlink:href="#CMR17-51"/>
       <use transform="translate(123.177945 0)scale(0.996264)" xlink:href="#CMMI12-58"/>
       <use transform="translate(150.275122 0)scale(0.996264)" xlink:href="#CMR17-48"/>
      </g>
     </g>
    </g>
    <g id="ytick_2">
     <g id="line2d_6">
      <g>
       <use style="stroke:#000000;stroke-width:0.8;" x="90.793114" xlink:href="#mae3b939423" y="224.325"/>
      </g>
     </g>
     <g id="text_7">
      <!-- $-2.5$ -->
      <g transform="translate(44.6 231.42332)scale(0.2 -0.2)">
       <use transform="scale(0.996264)" xlink:href="#CMSY10-0"/>
       <use transform="translate(77.487468 0)scale(0.996264)" xlink:href="#CMR17-50"/>
       <use transform="translate(123.177945 0)scale(0.996264)" xlink:href="#CMMI12-58"/>
       <use transform="translate(150.275122 0)scale(0.996264)" xlink:href="#CMR17-53"/>
      </g>
     </g>
    </g>
    <g id="ytick_3">
     <g id="line2d_7">
      <g>
       <use style="stroke:#000000;stroke-width:0.8;" x="90.793114" xlink:href="#mae3b939423" y="159.25"/>
      </g>
     </g>
     <g id="text_8">
      <!-- $-2.0$ -->
      <g transform="translate(44.6 166.34832)scale(0.2 -0.2)">
       <use transform="scale(0.996264)" xlink:href="#CMSY10-0"/>
       <use transform="translate(77.487468 0)scale(0.996264)" xlink:href="#CMR17-50"/>
       <use transform="translate(123.177945 0)scale(0.996264)" xlink:href="#CMMI12-58"/>
       <use transform="translate(150.275122 0)scale(0.996264)" xlink:href="#CMR17-48"/>
      </g>
     </g>
    </g>
    <g id="ytick_4">
     <g id="line2d_8">
      <g>
       <use style="stroke:#000000;stroke-width:0.8;" x="90.793114" xlink:href="#mae3b939423" y="94.175"/>
      </g>
     </g>
     <g id="text_9">
      <!-- $-1.5$ -->
      <defs>
       <path d="M 26.59375 63.40625 
C 26.59375 65.5 26.5 65.5 25.09375 65.5 
C 21.203125 61.1875 15.296875 59.796875 9.703125 59.796875 
C 9.40625 59.796875 8.90625 59.796875 8.796875 59.5 
C 8.703125 59.296875 8.703125 59.09375 8.703125 57 
C 11.796875 57 17 57.59375 21 59.984375 
L 21 7.203125 
C 21 3.6875 20.796875 2.5 12.203125 2.5 
L 9.203125 2.5 
L 9.203125 0 
C 14 0 19 0 23.796875 0 
C 28.59375 0 33.59375 0 38.40625 0 
L 38.40625 2.5 
L 35.40625 2.5 
C 26.796875 2.5 26.59375 3.59375 26.59375 7.15625 
z
" id="CMR17-49"/>
      </defs>
      <g transform="translate(44.6 101.27332)scale(0.2 -0.2)">
       <use transform="scale(0.996264)" xlink:href="#CMSY10-0"/>
       <use transform="translate(77.487468 0)scale(0.996264)" xlink:href="#CMR17-49"/>
       <use transform="translate(123.177945 0)scale(0.996264)" xlink:href="#CMMI12-58"/>
       <use transform="translate(150.275122 0)scale(0.996264)" xlink:href="#CMR17-53"/>
      </g>
     </g>
    </g>
    <g id="ytick_5">
     <g id="line2d_9">
      <g>
       <use style="stroke:#000000;stroke-width:0.8;" x="90.793114" xlink:href="#mae3b939423" y="29.1"/>
      </g>
     </g>
     <g id="text_10">
      <!-- $-1.0$ -->
      <g transform="translate(44.6 36.19832)scale(0.2 -0.2)">
       <use transform="scale(0.996264)" xlink:href="#CMSY10-0"/>
       <use transform="translate(77.487468 0)scale(0.996264)" xlink:href="#CMR17-49"/>
       <use transform="translate(123.177945 0)scale(0.996264)" xlink:href="#CMMI12-58"/>
       <use transform="translate(150.275122 0)scale(0.996264)" xlink:href="#CMR17-48"/>
      </g>
     </g>
    </g>
    <g id="text_11">
     <!-- Log10 relative error -->
     <defs>
      <path d="M 17.296875 73 
L 8 73 
L 8 0 
L 53.296875 0 
L 53.296875 8.21875 
L 17.296875 8.21875 
z
" id="Nimbus_Sans_L_Regular-76"/>
      <path d="M 25.90625 50.59375 
L 25.90625 0 
L 34.703125 0 
L 34.703125 71.015625 
L 28.90625 71.015625 
C 25.796875 60.109375 23.796875 58.609375 10.203125 56.90625 
L 10.203125 50.59375 
z
" id="Nimbus_Sans_L_Regular-49"/>
      <path d="M 27.5 71 
C 20.90625 71 14.90625 68.125 11.203125 63.21875 
C 6.59375 57.046875 4.296875 47.5625 4.296875 34.5 
C 4.296875 10.671875 12.296875 -2 27.5 -2 
C 42.5 -2 50.703125 10.671875 50.703125 33.90625 
C 50.703125 47.65625 48.5 56.84375 43.796875 63.21875 
C 40.09375 68.21875 34.203125 71 27.5 71 
z
M 27.5 63.1875 
C 37 63.1875 41.703125 53.625 41.703125 34.703125 
C 41.703125 14.671875 37.09375 5.3125 27.296875 5.3125 
C 18 5.3125 13.296875 15.078125 13.296875 34.40625 
C 13.296875 53.71875 18 63.1875 27.5 63.1875 
z
" id="Nimbus_Sans_L_Regular-48"/>
     </defs>
     <g transform="translate(36.356027 245.375888)rotate(-90)scale(0.2 -0.2)">
      <use transform="scale(0.996264)" xlink:href="#Nimbus_Sans_L_Regular-76"/>
      <use transform="translate(55.391677 0)scale(0.996264)" xlink:href="#Nimbus_Sans_L_Regular-111"/>
      <use transform="translate(110.783354 0)scale(0.996264)" xlink:href="#Nimbus_Sans_L_Regular-103"/>
      <use transform="translate(166.175031 0)scale(0.996264)" xlink:href="#Nimbus_Sans_L_Regular-49"/>
      <use transform="translate(221.566708 0)scale(0.996264)" xlink:href="#Nimbus_Sans_L_Regular-48"/>
      <use transform="translate(304.653554 0)scale(0.996264)" xlink:href="#Nimbus_Sans_L_Regular-114"/>
      <use transform="translate(337.828784 0)scale(0.996264)" xlink:href="#Nimbus_Sans_L_Regular-101"/>
      <use transform="translate(393.220461 0)scale(0.996264)" xlink:href="#Nimbus_Sans_L_Regular-108"/>
      <use transform="translate(415.337245 0)scale(0.996264)" xlink:href="#Nimbus_Sans_L_Regular-97"/>
      <use transform="translate(470.728922 0)scale(0.996264)" xlink:href="#Nimbus_Sans_L_Regular-116"/>
      <use transform="translate(498.424092 0)scale(0.996264)" xlink:href="#Nimbus_Sans_L_Regular-105"/>
      <use transform="translate(520.540876 0)scale(0.996264)" xlink:href="#Nimbus_Sans_L_Regular-118"/>
      <use transform="translate(567.863447 0)scale(0.996264)" xlink:href="#Nimbus_Sans_L_Regular-101"/>
      <use transform="translate(650.950294 0)scale(0.996264)" xlink:href="#Nimbus_Sans_L_Regular-101"/>
      <use transform="translate(706.341971 0)scale(0.996264)" xlink:href="#Nimbus_Sans_L_Regular-114"/>
      <use transform="translate(739.517201 0)scale(0.996264)" xlink:href="#Nimbus_Sans_L_Regular-114"/>
      <use transform="translate(772.69243 0)scale(0.996264)" xlink:href="#Nimbus_Sans_L_Regular-111"/>
      <use transform="translate(828.084107 0)scale(0.996264)" xlink:href="#Nimbus_Sans_L_Regular-114"/>
     </g>
    </g>
   </g>
   <g id="line2d_10">
    <defs>
     <path d="M 0 2.5 
C 0.663008 2.5 1.29895 2.236584 1.767767 1.767767 
C 2.236584 1.29895 2.5 0.663008 2.5 0 
C 2.5 -0.663008 2.236584 -1.29895 1.767767 -1.767767 
C 1.29895 -2.236584 0.663008 -2.5 0 -2.5 
C -0.663008 -2.5 -1.29895 -2.236584 -1.767767 -1.767767 
C -2.236584 -1.29895 -2.5 -0.663008 -2.5 0 
C -2.5 0.663008 -2.236584 1.29895 -1.767767 1.767767 
C -1.29895 2.236584 -0.663008 2.5 0 2.5 
z
" id="mecd8cb19f7" style="stroke:#000000;"/>
    </defs>
    <g clip-path="url(#pe268b815ad)">
     <use style="stroke:#000000;" x="115.995012" xlink:href="#mecd8cb19f7" y="215.888612"/>
     <use style="stroke:#000000;" x="228.503485" xlink:href="#mecd8cb19f7" y="277.579489"/>
     <use style="stroke:#000000;" x="253.817892" xlink:href="#mecd8cb19f7" y="195.689013"/>
     <use style="stroke:#000000;" x="256.349332" xlink:href="#mecd8cb19f7" y="217.58979"/>
     <use style="stroke:#000000;" x="256.911875" xlink:href="#mecd8cb19f7" y="232.428716"/>
     <use style="stroke:#000000;" x="259.443316" xlink:href="#mecd8cb19f7" y="244.73135"/>
     <use style="stroke:#000000;" x="284.757722" xlink:href="#mecd8cb19f7" y="202.936212"/>
     <use style="stroke:#000000;" x="298.821281" xlink:href="#mecd8cb19f7" y="130.367491"/>
     <use style="stroke:#000000;" x="312.88484" xlink:href="#mecd8cb19f7" y="136.374613"/>
    </g>
   </g>
   <g id="line2d_11">
    <path clip-path="url(#pe268b815ad)" d="M 101.931453 68.279054 
L 106.477713 68.279054 
L 111.023974 68.279054 
L 115.570235 68.279054 
L 120.116496 68.279054 
L 124.662756 68.279054 
L 129.209017 68.279054 
L 133.755278 68.279054 
L 138.301539 68.279054 
L 142.847799 68.279054 
L 147.39406 68.279054 
L 151.940321 68.279054 
L 156.486582 68.279054 
L 161.032843 68.279054 
L 165.579103 68.279054 
L 170.125364 68.279054 
L 174.671625 68.279054 
L 179.217886 68.279054 
L 183.764146 68.279054 
L 188.310407 68.279054 
L 192.856668 68.279054 
L 197.402929 68.279054 
L 201.949189 68.279054 
L 206.49545 68.279054 
L 211.041711 68.279054 
L 215.587972 68.279054 
L 220.134233 68.279054 
L 224.680493 68.279054 
L 229.226754 68.279054 
L 233.773015 68.279054 
L 238.319276 68.279054 
L 242.865536 68.279054 
L 247.411797 68.279054 
L 251.958058 68.279054 
L 256.504319 68.279054 
L 261.050579 68.279054 
L 265.59684 68.279054 
L 270.143101 68.279054 
L 274.689362 68.279054 
L 279.235622 68.279054 
L 283.781883 68.279054 
L 288.328144 68.279054 
L 292.874405 68.279054 
L 297.420666 68.279054 
L 301.966926 68.279054 
L 306.513187 68.279054 
L 311.059448 68.279054 
L 315.605709 68.279054 
L 320.151969 68.279054 
L 324.69823 68.279054 
" style="fill:none;stroke:#000000;stroke-dasharray:5.55,2.4;stroke-dashoffset:0;stroke-width:1.5;"/>
   </g>
   <g id="patch_3">
    <path d="M 90.793114 289.4 
L 90.793114 29.1 
" style="fill:none;stroke:#000000;stroke-linecap:square;stroke-linejoin:miter;stroke-width:0.8;"/>
   </g>
   <g id="patch_4">
    <path d="M 335.836569 289.4 
L 335.836569 29.1 
" style="fill:none;stroke:#000000;stroke-linecap:square;stroke-linejoin:miter;stroke-width:0.8;"/>
   </g>
   <g id="patch_5">
    <path d="M 90.793114 289.4 
L 335.836569 289.4 
" style="fill:none;stroke:#000000;stroke-linecap:square;stroke-linejoin:miter;stroke-width:0.8;"/>
   </g>
   <g id="patch_6">
    <path d="M 90.793114 29.1 
L 335.836569 29.1 
" style="fill:none;stroke:#000000;stroke-linecap:square;stroke-linejoin:miter;stroke-width:0.8;"/>
   </g>
  </g>
  <g id="axes_2">
   <g id="patch_7">
    <path d="M 449.856545 289.4 
L 694.9 289.4 
L 694.9 29.1 
L 449.856545 29.1 
z
" style="fill:#ffffff;"/>
   </g>
   <g id="matplotlib.axis_3">
    <g id="xtick_5">
     <g id="line2d_12">
      <g>
       <use style="stroke:#000000;stroke-width:0.8;" x="460.994884" xlink:href="#m54d3f7f7c4" y="289.4"/>
      </g>
     </g>
     <g id="text_12">
      <!-- $0$ -->
      <g transform="translate(456.425836 310.596641)scale(0.2 -0.2)">
       <use transform="scale(0.996264)" xlink:href="#CMR17-48"/>
      </g>
     </g>
    </g>
    <g id="xtick_6">
     <g id="line2d_13">
      <g>
       <use style="stroke:#000000;stroke-width:0.8;" x="550.101595" xlink:href="#m54d3f7f7c4" y="289.4"/>
      </g>
     </g>
     <g id="text_13">
      <!-- $200$ -->
      <g transform="translate(536.394451 310.596641)scale(0.2 -0.2)">
       <use transform="scale(0.996264)" xlink:href="#CMR17-50"/>
       <use transform="translate(45.690477 0)scale(0.996264)" xlink:href="#CMR17-48"/>
       <use transform="translate(91.380954 0)scale(0.996264)" xlink:href="#CMR17-48"/>
      </g>
     </g>
    </g>
    <g id="xtick_7">
     <g id="line2d_14">
      <g>
       <use style="stroke:#000000;stroke-width:0.8;" x="639.208306" xlink:href="#m54d3f7f7c4" y="289.4"/>
      </g>
     </g>
     <g id="text_14">
      <!-- $400$ -->
      <defs>
       <path d="M 33.59375 64.40625 
C 33.59375 66.5 33.5 66.5 31.703125 66.5 
L 2 19.59375 
L 2 17 
L 27.796875 17 
L 27.796875 7.140625 
C 27.796875 3.5 27.59375 2.5 20.59375 2.5 
L 18.703125 2.5 
L 18.703125 0 
C 21.90625 0 27.296875 0 30.703125 0 
C 34.09375 0 39.5 0 42.703125 0 
L 42.703125 2.5 
L 40.796875 2.5 
C 33.796875 2.5 33.59375 3.5 33.59375 7.140625 
L 33.59375 17 
L 43.796875 17 
L 43.796875 19.59375 
L 33.59375 19.59375 
z
M 28.09375 57.859375 
L 28.09375 19.59375 
L 4 19.59375 
z
" id="CMR17-52"/>
      </defs>
      <g transform="translate(625.501162 310.596641)scale(0.2 -0.2)">
       <use transform="scale(0.996264)" xlink:href="#CMR17-52"/>
       <use transform="translate(45.690477 0)scale(0.996264)" xlink:href="#CMR17-48"/>
       <use transform="translate(91.380954 0)scale(0.996264)" xlink:href="#CMR17-48"/>
      </g>
     </g>
    </g>
    <g id="text_15">
     <!-- Time, (days) -->
     <defs>
      <path d="M 35.40625 64.78125 
L 59.296875 64.78125 
L 59.296875 73 
L 2.09375 73 
L 2.09375 64.78125 
L 26.09375 64.78125 
L 26.09375 -0.21875 
L 35.40625 -0.21875 
z
" id="Nimbus_Sans_L_Regular-84"/>
      <path d="M 7 52.484375 
L 7 0 
L 15.40625 0 
L 15.40625 32.953125 
C 15.40625 40.578125 20.90625 46.6875 27.703125 46.6875 
C 33.90625 46.6875 37.40625 42.875 37.40625 36.15625 
L 37.40625 0 
L 45.796875 0 
L 45.796875 32.953125 
C 45.796875 40.578125 51.296875 46.6875 58.09375 46.6875 
C 64.203125 46.6875 67.796875 42.78125 67.796875 36.15625 
L 67.796875 0 
L 76.203125 0 
L 76.203125 39.375 
C 76.203125 48.78125 70.796875 54 61 54 
C 54 54 49.796875 51.890625 44.90625 45.984375 
C 41.796875 51.59375 37.59375 54 30.796875 54 
C 23.796875 54 19.203125 51.390625 14.703125 45.078125 
L 14.703125 52.484375 
z
" id="Nimbus_Sans_L_Regular-109"/>
      <path d="M 23.59375 73 
C 13.59375 59.84375 7.296875 41.5625 7.296875 25.796875 
C 7.296875 9.9375 13.59375 -8.34375 23.59375 -21.5 
L 29.09375 -21.5 
C 20.296875 -7.140625 15.40625 9.734375 15.40625 25.796875 
C 15.40625 41.765625 20.296875 58.734375 29.09375 73 
z
" id="Nimbus_Sans_L_Regular-40"/>
      <path d="M 49.5 73 
L 41.203125 73 
L 41.203125 45.890625 
C 37.703125 51.1875 32.09375 54 25.09375 54 
C 11.5 54 2.59375 43.140625 2.59375 26.484375 
C 2.59375 8.84375 11.296875 -2 25.40625 -2 
C 32.59375 -2 37.59375 0.703125 42.09375 7.203125 
L 42.09375 -0.03125 
L 49.5 -0.03125 
z
M 26.5 46.1875 
C 35.5 46.1875 41.203125 38.234375 41.203125 25.796875 
C 41.203125 13.765625 35.40625 5.8125 26.59375 5.8125 
C 17.40625 5.8125 11.296875 13.859375 11.296875 26 
C 11.296875 38.125 17.40625 46.1875 26.5 46.1875 
z
" id="Nimbus_Sans_L_Regular-100"/>
      <path d="M 38.796875 52.5 
L 24.296875 11.53125 
L 10.90625 52.5 
L 2 52.5 
L 19.703125 -0.328125 
L 16.5 -8.65625 
C 15.203125 -12.375 13.296875 -13.78125 9.796875 -13.78125 
C 8.59375 -13.78125 7.203125 -13.578125 5.40625 -13.171875 
L 5.40625 -20.703125 
C 7.09375 -21.59375 8.796875 -22 11 -22 
C 13.703125 -22 16.59375 -21.09375 18.796875 -19.484375 
C 21.40625 -17.578125 22.90625 -15.359375 24.5 -11.140625 
L 47.796875 52.5 
z
" id="Nimbus_Sans_L_Regular-121"/>
      <path d="M 9.296875 -21.5 
C 19.296875 -8.34375 25.59375 9.9375 25.59375 25.6875 
C 25.59375 41.5625 19.296875 59.84375 9.296875 73 
L 3.796875 73 
C 12.59375 58.640625 17.5 41.765625 17.5 25.6875 
C 17.5 9.734375 12.59375 -7.25 3.796875 -21.5 
z
" id="Nimbus_Sans_L_Regular-41"/>
     </defs>
     <g transform="translate(517.474542 333.405988)scale(0.2 -0.2)">
      <use transform="scale(0.996264)" xlink:href="#Nimbus_Sans_L_Regular-84"/>
      <use transform="translate(60.871631 0)scale(0.996264)" xlink:href="#Nimbus_Sans_L_Regular-105"/>
      <use transform="translate(82.988415 0)scale(0.996264)" xlink:href="#Nimbus_Sans_L_Regular-109"/>
      <use transform="translate(165.976845 0)scale(0.996264)" xlink:href="#Nimbus_Sans_L_Regular-101"/>
      <use transform="translate(219.87513 0)scale(0.996264)" xlink:href="#Nimbus_Sans_L_Regular-44"/>
      <use transform="translate(275.265469 0)scale(0.996264)" xlink:href="#Nimbus_Sans_L_Regular-40"/>
      <use transform="translate(308.440698 0)scale(0.996264)" xlink:href="#Nimbus_Sans_L_Regular-100"/>
      <use transform="translate(363.832375 0)scale(0.996264)" xlink:href="#Nimbus_Sans_L_Regular-97"/>
      <use transform="translate(416.235944 0)scale(0.996264)" xlink:href="#Nimbus_Sans_L_Regular-121"/>
      <use transform="translate(466.049145 0)scale(0.996264)" xlink:href="#Nimbus_Sans_L_Regular-115"/>
      <use transform="translate(515.862345 0)scale(0.996264)" xlink:href="#Nimbus_Sans_L_Regular-41"/>
     </g>
    </g>
   </g>
   <g id="matplotlib.axis_4">
    <g id="ytick_6">
     <g id="line2d_15">
      <g>
       <use style="stroke:#000000;stroke-width:0.8;" x="449.856545" xlink:href="#mae3b939423" y="277.568182"/>
      </g>
     </g>
     <g id="text_16">
      <!-- $0.000$ -->
      <g transform="translate(400.884728 284.666502)scale(0.2 -0.2)">
       <use transform="scale(0.996264)" xlink:href="#CMR17-48"/>
       <use transform="translate(45.690477 0)scale(0.996264)" xlink:href="#CMMI12-58"/>
       <use transform="translate(72.787654 0)scale(0.996264)" xlink:href="#CMR17-48"/>
       <use transform="translate(118.478131 0)scale(0.996264)" xlink:href="#CMR17-48"/>
       <use transform="translate(164.168608 0)scale(0.996264)" xlink:href="#CMR17-48"/>
      </g>
     </g>
    </g>
    <g id="ytick_7">
     <g id="line2d_16">
      <g>
       <use style="stroke:#000000;stroke-width:0.8;" x="449.856545" xlink:href="#mae3b939423" y="232.512433"/>
      </g>
     </g>
     <g id="text_17">
      <!-- $0.001$ -->
      <g transform="translate(400.884728 239.610753)scale(0.2 -0.2)">
       <use transform="scale(0.996264)" xlink:href="#CMR17-48"/>
       <use transform="translate(45.690477 0)scale(0.996264)" xlink:href="#CMMI12-58"/>
       <use transform="translate(72.787654 0)scale(0.996264)" xlink:href="#CMR17-48"/>
       <use transform="translate(118.478131 0)scale(0.996264)" xlink:href="#CMR17-48"/>
       <use transform="translate(164.168608 0)scale(0.996264)" xlink:href="#CMR17-49"/>
      </g>
     </g>
    </g>
    <g id="ytick_8">
     <g id="line2d_17">
      <g>
       <use style="stroke:#000000;stroke-width:0.8;" x="449.856545" xlink:href="#mae3b939423" y="187.456684"/>
      </g>
     </g>
     <g id="text_18">
      <!-- $0.002$ -->
      <g transform="translate(400.884728 194.555004)scale(0.2 -0.2)">
       <use transform="scale(0.996264)" xlink:href="#CMR17-48"/>
       <use transform="translate(45.690477 0)scale(0.996264)" xlink:href="#CMMI12-58"/>
       <use transform="translate(72.787654 0)scale(0.996264)" xlink:href="#CMR17-48"/>
       <use transform="translate(118.478131 0)scale(0.996264)" xlink:href="#CMR17-48"/>
       <use transform="translate(164.168608 0)scale(0.996264)" xlink:href="#CMR17-50"/>
      </g>
     </g>
    </g>
    <g id="ytick_9">
     <g id="line2d_18">
      <g>
       <use style="stroke:#000000;stroke-width:0.8;" x="449.856545" xlink:href="#mae3b939423" y="142.400935"/>
      </g>
     </g>
     <g id="text_19">
      <!-- $0.003$ -->
      <g transform="translate(400.884728 149.499255)scale(0.2 -0.2)">
       <use transform="scale(0.996264)" xlink:href="#CMR17-48"/>
       <use transform="translate(45.690477 0)scale(0.996264)" xlink:href="#CMMI12-58"/>
       <use transform="translate(72.787654 0)scale(0.996264)" xlink:href="#CMR17-48"/>
       <use transform="translate(118.478131 0)scale(0.996264)" xlink:href="#CMR17-48"/>
       <use transform="translate(164.168608 0)scale(0.996264)" xlink:href="#CMR17-51"/>
      </g>
     </g>
    </g>
    <g id="ytick_10">
     <g id="line2d_19">
      <g>
       <use style="stroke:#000000;stroke-width:0.8;" x="449.856545" xlink:href="#mae3b939423" y="97.345185"/>
      </g>
     </g>
     <g id="text_20">
      <!-- $0.004$ -->
      <g transform="translate(400.884728 104.443506)scale(0.2 -0.2)">
       <use transform="scale(0.996264)" xlink:href="#CMR17-48"/>
       <use transform="translate(45.690477 0)scale(0.996264)" xlink:href="#CMMI12-58"/>
       <use transform="translate(72.787654 0)scale(0.996264)" xlink:href="#CMR17-48"/>
       <use transform="translate(118.478131 0)scale(0.996264)" xlink:href="#CMR17-48"/>
       <use transform="translate(164.168608 0)scale(0.996264)" xlink:href="#CMR17-52"/>
      </g>
     </g>
    </g>
    <g id="ytick_11">
     <g id="line2d_20">
      <g>
       <use style="stroke:#000000;stroke-width:0.8;" x="449.856545" xlink:href="#mae3b939423" y="52.289436"/>
      </g>
     </g>
     <g id="text_21">
      <!-- $0.005$ -->
      <g transform="translate(400.884728 59.387757)scale(0.2 -0.2)">
       <use transform="scale(0.996264)" xlink:href="#CMR17-48"/>
       <use transform="translate(45.690477 0)scale(0.996264)" xlink:href="#CMMI12-58"/>
       <use transform="translate(72.787654 0)scale(0.996264)" xlink:href="#CMR17-48"/>
       <use transform="translate(118.478131 0)scale(0.996264)" xlink:href="#CMR17-48"/>
       <use transform="translate(164.168608 0)scale(0.996264)" xlink:href="#CMR17-53"/>
      </g>
     </g>
    </g>
    <g id="text_22">
     <!-- Heteroplasmy variance, $\mathbb{V}(h)$ -->
     <defs>
      <path d="M 55.09375 33 
L 55.09375 -0.03125 
L 64.40625 -0.03125 
L 64.40625 73 
L 55.09375 73 
L 55.09375 41.21875 
L 17.59375 41.21875 
L 17.59375 73 
L 8.296875 73 
L 8.296875 -0.03125 
L 17.703125 -0.03125 
L 17.703125 33 
z
" id="Nimbus_Sans_L_Regular-72"/>
      <path d="M 5.40625 -22 
L 13.796875 -22 
L 13.796875 5 
C 18.203125 -0.421875 23.09375 -2.8125 29.90625 -2.8125 
C 43.40625 -2.8125 52.296875 8.15625 52.296875 24.984375 
C 52.296875 42.71875 43.703125 53.8125 29.796875 53.8125 
C 22.703125 53.8125 17 50.59375 13.09375 44.390625 
L 13.09375 52.328125 
L 5.40625 52.328125 
z
M 28.40625 46 
C 37.59375 46 43.59375 37.8125 43.59375 25.1875 
C 43.59375 13.171875 37.5 5 28.40625 5 
C 19.59375 5 13.796875 13.078125 13.796875 25.5 
C 13.796875 37.921875 19.59375 46 28.40625 46 
z
" id="Nimbus_Sans_L_Regular-112"/>
      <path d="M 63.703125 60.40625 
C 64.203125 61.59375 65.703125 65.09375 69.90625 65.5 
C 70.5 65.5 72 65.703125 72 67.203125 
C 72 69 70.5 69 68.703125 69 
L 52.59375 69 
C 50.796875 69 49.296875 69 49.296875 67.140625 
C 49.296875 65.59375 50.796875 65.59375 51.40625 65.5 
C 52.90625 65.296875 55 64.90625 55 59.703125 
C 55 53.796875 51.796875 44.296875 50.09375 39.5 
C 49.40625 37.5 49.40625 37.296875 42.09375 19 
C 40.296875 22.703125 25 55.890625 25 62.390625 
C 25 63.109375 27.296875 65.28125 31 65.59375 
C 32.59375 65.59375 32.90625 66.703125 32.90625 67.203125 
C 32.90625 69 31.40625 69 29.59375 69 
L 3.40625 69 
C 1.59375 69 0.09375 69 0.09375 67.203125 
C 0.09375 65.796875 1.40625 65.59375 2.203125 65.5 
C 5.5 65 7.59375 60.296875 7.796875 60 
L 34.703125 0.703125 
C 35.40625 -0.796875 35.90625 -1.40625 36.796875 -1.40625 
C 37.90625 -1.40625 38.203125 -0.90625 38.796875 0.703125 
z
M 62.703125 65.59375 
C 61.5 64.28125 61 63.0625 60.296875 61.453125 
C 59.90625 60.328125 58.796875 57.71875 58.296875 56.59375 
C 58.40625 57.515625 58.5 58.8125 58.5 59.734375 
C 58.5 61.046875 58.40625 63.78125 57.296875 65.59375 
z
M 11.40625 60.859375 
C 10.5 62.78125 8.703125 65.59375 8.5 65.59375 
L 22.703125 65.59375 
C 22.203125 65.1875 21.40625 64.6875 21.40625 62.59375 
C 21.40625 55.78125 34.203125 27.734375 40.5 13.796875 
L 36.796875 4.6875 
z
" id="MSBM10-86"/>
      <path d="M 30.59375 -24.390625 
C 30.59375 -24.296875 30.59375 -24.09375 30.296875 -23.796875 
C 25.703125 -19.125 13.40625 -6.359375 13.40625 24.703125 
C 13.40625 55.765625 25.5 68.421875 30.40625 73.390625 
C 30.40625 73.5 30.59375 73.703125 30.59375 74 
C 30.59375 74.296875 30.296875 74.5 29.90625 74.5 
C 28.796875 74.5 20.296875 67.125 15.40625 56.15625 
C 10.40625 45.109375 9 34.359375 9 24.8125 
C 9 17.625 9.703125 5.484375 15.703125 -7.359375 
C 20.5 -17.734375 28.703125 -25 29.90625 -25 
C 30.40625 -25 30.59375 -24.796875 30.59375 -24.390625 
z
" id="CMR17-40"/>
      <path d="M 28.09375 66.515625 
C 28.203125 66.921875 28.40625 67.515625 28.40625 68 
C 28.40625 69 27.40625 69 27.203125 69 
C 27.09375 69 22.203125 68.5625 21.703125 68.4375 
C 20 68.328125 18.5 68.09375 16.703125 68.09375 
C 14.203125 67.890625 13.5 67.796875 13.5 66 
C 13.5 65 14.296875 65 15.703125 65 
C 20.59375 65 20.703125 64.109375 20.703125 63.125 
C 20.703125 62.53125 20.5 61.734375 20.40625 61.4375 
L 5.90625 3.875 
C 5.5 2.375 5.5 2.1875 5.5 1.578125 
C 5.5 -0.59375 7.203125 -1 8.203125 -1 
C 9.90625 -1 11.203125 0.296875 11.703125 1.390625 
L 16.203125 19.453125 
C 16.703125 21.65625 17.296875 23.75 17.796875 25.9375 
C 18.90625 30.140625 18.90625 30.234375 20.796875 33.125 
C 22.703125 36.015625 27.203125 42.015625 34.90625 42.015625 
C 38.90625 42.015625 40.296875 39.015625 40.296875 35.03125 
C 40.296875 29.4375 36.40625 18.5625 34.203125 12.578125 
C 33.296875 10.171875 32.796875 8.875 32.796875 7.078125 
C 32.796875 2.59375 35.90625 -1 40.703125 -1 
C 50 -1 53.5 13.671875 53.5 14.265625 
C 53.5 14.765625 53.09375 15.171875 52.5 15.171875 
C 51.59375 15.171875 51.5 14.875 51 13.171875 
C 48.703125 5.1875 45 1 41 1 
C 40 1 38.40625 1 38.40625 4.203125 
C 38.40625 6.8125 39.59375 10 40 11.09375 
C 41.796875 15.90625 46.296875 27.703125 46.296875 33.515625 
C 46.296875 39.5 42.796875 44 35.203125 44 
C 29.5 44 24.5 41.3125 20.40625 36.125 
z
" id="CMMI12-104"/>
      <path d="M 26.296875 24.703125 
C 26.296875 31.875 25.59375 44.015625 19.59375 56.859375 
C 14.796875 67.234375 6.59375 74.5 5.40625 74.5 
C 5.09375 74.5 4.703125 74.390625 4.703125 73.890625 
C 4.703125 73.703125 4.796875 73.59375 4.90625 73.390625 
C 9.703125 68.40625 21.90625 55.75 21.90625 24.75 
C 21.90625 -6.359375 9.796875 -19.015625 4.90625 -24.015625 
C 4.796875 -24.203125 4.703125 -24.3125 4.703125 -24.5 
C 4.703125 -25 5.09375 -25 5.40625 -25 
C 6.5 -25 15 -17.625 19.90625 -6.65625 
C 24.90625 4.390625 26.296875 15.140625 26.296875 24.703125 
z
" id="CMR17-41"/>
     </defs>
     <g transform="translate(391.920084 286.124509)rotate(-90)scale(0.2 -0.2)">
      <use transform="scale(0.996264)" xlink:href="#Nimbus_Sans_L_Regular-72"/>
      <use transform="translate(71.929985 0)scale(0.996264)" xlink:href="#Nimbus_Sans_L_Regular-101"/>
      <use transform="translate(127.321662 0)scale(0.996264)" xlink:href="#Nimbus_Sans_L_Regular-116"/>
      <use transform="translate(155.016831 0)scale(0.996264)" xlink:href="#Nimbus_Sans_L_Regular-101"/>
      <use transform="translate(210.408508 0)scale(0.996264)" xlink:href="#Nimbus_Sans_L_Regular-114"/>
      <use transform="translate(243.583738 0)scale(0.996264)" xlink:href="#Nimbus_Sans_L_Regular-111"/>
      <use transform="translate(298.975415 0)scale(0.996264)" xlink:href="#Nimbus_Sans_L_Regular-112"/>
      <use transform="translate(354.367092 0)scale(0.996264)" xlink:href="#Nimbus_Sans_L_Regular-108"/>
      <use transform="translate(376.483876 0)scale(0.996264)" xlink:href="#Nimbus_Sans_L_Regular-97"/>
      <use transform="translate(431.875553 0)scale(0.996264)" xlink:href="#Nimbus_Sans_L_Regular-115"/>
      <use transform="translate(481.688754 0)scale(0.996264)" xlink:href="#Nimbus_Sans_L_Regular-109"/>
      <use transform="translate(563.183791 0)scale(0.996264)" xlink:href="#Nimbus_Sans_L_Regular-121"/>
      <use transform="translate(640.692161 0)scale(0.996264)" xlink:href="#Nimbus_Sans_L_Regular-118"/>
      <use transform="translate(688.014732 0)scale(0.996264)" xlink:href="#Nimbus_Sans_L_Regular-97"/>
      <use transform="translate(743.406409 0)scale(0.996264)" xlink:href="#Nimbus_Sans_L_Regular-114"/>
      <use transform="translate(778.075017 0)scale(0.996264)" xlink:href="#Nimbus_Sans_L_Regular-105"/>
      <use transform="translate(800.191801 0)scale(0.996264)" xlink:href="#Nimbus_Sans_L_Regular-97"/>
      <use transform="translate(855.583478 0)scale(0.996264)" xlink:href="#Nimbus_Sans_L_Regular-110"/>
      <use transform="translate(910.975155 0)scale(0.996264)" xlink:href="#Nimbus_Sans_L_Regular-99"/>
      <use transform="translate(960.788355 0)scale(0.996264)" xlink:href="#Nimbus_Sans_L_Regular-101"/>
      <use transform="translate(1014.68664 0)scale(0.996264)" xlink:href="#Nimbus_Sans_L_Regular-44"/>
      <use transform="translate(1070.076979 0)scale(0.996264)" xlink:href="#MSBM10-86"/>
      <use transform="translate(1142.029569 0)scale(0.996264)" xlink:href="#CMR17-40"/>
      <use transform="translate(1177.310336 0)scale(0.996264)" xlink:href="#CMMI12-104"/>
      <use transform="translate(1233.46496 0)scale(0.996264)" xlink:href="#CMR17-41"/>
     </g>
    </g>
   </g>
   <g id="line2d_21">
    <defs>
     <path d="M -5 5 
L 5 -5 
M -5 -5 
L 5 5 
" id="m000fb49565" style="stroke:#000000;"/>
    </defs>
    <g clip-path="url(#pe3b5b170fc)">
     <use style="stroke:#000000;" x="460.994884" xlink:href="#m000fb49565" y="277.568182"/>
     <use style="stroke:#000000;" x="465.450219" xlink:href="#m000fb49565" y="272.94738"/>
     <use style="stroke:#000000;" x="469.905555" xlink:href="#m000fb49565" y="268.153773"/>
     <use style="stroke:#000000;" x="474.36089" xlink:href="#m000fb49565" y="263.55101"/>
     <use style="stroke:#000000;" x="478.816226" xlink:href="#m000fb49565" y="258.858869"/>
     <use style="stroke:#000000;" x="483.271561" xlink:href="#m000fb49565" y="253.933539"/>
     <use style="stroke:#000000;" x="487.726897" xlink:href="#m000fb49565" y="249.166706"/>
     <use style="stroke:#000000;" x="492.182232" xlink:href="#m000fb49565" y="244.379539"/>
     <use style="stroke:#000000;" x="496.637568" xlink:href="#m000fb49565" y="239.490993"/>
     <use style="stroke:#000000;" x="501.092904" xlink:href="#m000fb49565" y="235.014313"/>
     <use style="stroke:#000000;" x="505.548239" xlink:href="#m000fb49565" y="230.053993"/>
     <use style="stroke:#000000;" x="510.003575" xlink:href="#m000fb49565" y="224.86007"/>
     <use style="stroke:#000000;" x="514.45891" xlink:href="#m000fb49565" y="220.374478"/>
     <use style="stroke:#000000;" x="518.914246" xlink:href="#m000fb49565" y="216.004221"/>
     <use style="stroke:#000000;" x="523.369581" xlink:href="#m000fb49565" y="210.653245"/>
     <use style="stroke:#000000;" x="527.824917" xlink:href="#m000fb49565" y="205.84602"/>
     <use style="stroke:#000000;" x="532.280252" xlink:href="#m000fb49565" y="201.058816"/>
     <use style="stroke:#000000;" x="536.735588" xlink:href="#m000fb49565" y="196.330639"/>
     <use style="stroke:#000000;" x="541.190923" xlink:href="#m000fb49565" y="190.905848"/>
     <use style="stroke:#000000;" x="545.646259" xlink:href="#m000fb49565" y="186.856142"/>
     <use style="stroke:#000000;" x="550.101595" xlink:href="#m000fb49565" y="181.863583"/>
     <use style="stroke:#000000;" x="554.55693" xlink:href="#m000fb49565" y="177.035394"/>
     <use style="stroke:#000000;" x="559.012266" xlink:href="#m000fb49565" y="173.006608"/>
     <use style="stroke:#000000;" x="563.467601" xlink:href="#m000fb49565" y="168.29424"/>
     <use style="stroke:#000000;" x="567.922937" xlink:href="#m000fb49565" y="163.399861"/>
     <use style="stroke:#000000;" x="572.378272" xlink:href="#m000fb49565" y="158.926443"/>
     <use style="stroke:#000000;" x="576.833608" xlink:href="#m000fb49565" y="153.783249"/>
     <use style="stroke:#000000;" x="581.288943" xlink:href="#m000fb49565" y="149.076115"/>
     <use style="stroke:#000000;" x="585.744279" xlink:href="#m000fb49565" y="144.218136"/>
     <use style="stroke:#000000;" x="590.199615" xlink:href="#m000fb49565" y="139.153852"/>
     <use style="stroke:#000000;" x="594.65495" xlink:href="#m000fb49565" y="134.826021"/>
     <use style="stroke:#000000;" x="599.110286" xlink:href="#m000fb49565" y="130.636436"/>
     <use style="stroke:#000000;" x="603.565621" xlink:href="#m000fb49565" y="125.660654"/>
     <use style="stroke:#000000;" x="608.020957" xlink:href="#m000fb49565" y="121.29567"/>
     <use style="stroke:#000000;" x="612.476292" xlink:href="#m000fb49565" y="115.925434"/>
     <use style="stroke:#000000;" x="616.931628" xlink:href="#m000fb49565" y="111.528958"/>
     <use style="stroke:#000000;" x="621.386963" xlink:href="#m000fb49565" y="106.707673"/>
     <use style="stroke:#000000;" x="625.842299" xlink:href="#m000fb49565" y="102.101998"/>
     <use style="stroke:#000000;" x="630.297635" xlink:href="#m000fb49565" y="97.353706"/>
     <use style="stroke:#000000;" x="634.75297" xlink:href="#m000fb49565" y="92.959006"/>
     <use style="stroke:#000000;" x="639.208306" xlink:href="#m000fb49565" y="87.027978"/>
     <use style="stroke:#000000;" x="643.663641" xlink:href="#m000fb49565" y="82.628684"/>
     <use style="stroke:#000000;" x="648.118977" xlink:href="#m000fb49565" y="78.57472"/>
     <use style="stroke:#000000;" x="652.574312" xlink:href="#m000fb49565" y="74.12543"/>
     <use style="stroke:#000000;" x="657.029648" xlink:href="#m000fb49565" y="69.024499"/>
     <use style="stroke:#000000;" x="661.484983" xlink:href="#m000fb49565" y="64.787032"/>
     <use style="stroke:#000000;" x="665.940319" xlink:href="#m000fb49565" y="60.399209"/>
     <use style="stroke:#000000;" x="670.395654" xlink:href="#m000fb49565" y="56.302866"/>
     <use style="stroke:#000000;" x="674.85099" xlink:href="#m000fb49565" y="50.292091"/>
     <use style="stroke:#000000;" x="679.306326" xlink:href="#m000fb49565" y="45.364963"/>
     <use style="stroke:#000000;" x="683.761661" xlink:href="#m000fb49565" y="40.931818"/>
    </g>
   </g>
   <g id="line2d_22">
    <path clip-path="url(#pe3b5b170fc)" d="M 460.994884 277.568182 
L 465.450219 272.918313 
L 469.905555 268.268444 
L 474.36089 263.618575 
L 478.816226 258.968706 
L 483.271561 254.318837 
L 487.726897 249.668968 
L 492.182232 245.019099 
L 496.637568 240.36923 
L 501.092904 235.719361 
L 505.548239 231.069493 
L 510.003575 226.419624 
L 514.45891 221.769755 
L 518.914246 217.119886 
L 523.369581 212.470017 
L 527.824917 207.820148 
L 532.280252 203.170279 
L 536.735588 198.52041 
L 541.190923 193.870541 
L 545.646259 189.220672 
L 550.101595 184.570803 
L 554.55693 179.920934 
L 559.012266 175.271065 
L 563.467601 170.621197 
L 567.922937 165.971328 
L 572.378272 161.321459 
L 576.833608 156.67159 
L 581.288943 152.021721 
L 585.744279 147.371852 
L 590.199615 142.721983 
L 594.65495 138.072114 
L 599.110286 133.422245 
L 603.565621 128.772376 
L 608.020957 124.122507 
L 612.476292 119.472638 
L 616.931628 114.822769 
L 621.386963 110.1729 
L 625.842299 105.523032 
L 630.297635 100.873163 
L 634.75297 96.223294 
L 639.208306 91.573425 
L 643.663641 86.923556 
L 648.118977 82.273687 
L 652.574312 77.623818 
L 657.029648 72.973949 
L 661.484983 68.32408 
L 665.940319 63.674211 
L 670.395654 59.024342 
L 674.85099 54.374473 
L 679.306326 49.724604 
L 683.761661 45.074735 
" style="fill:none;stroke:#ff0000;stroke-linecap:square;stroke-width:1.5;"/>
   </g>
   <g id="patch_8">
    <path d="M 449.856545 289.4 
L 449.856545 29.1 
" style="fill:none;stroke:#000000;stroke-linecap:square;stroke-linejoin:miter;stroke-width:0.8;"/>
   </g>
   <g id="patch_9">
    <path d="M 694.9 289.4 
L 694.9 29.1 
" style="fill:none;stroke:#000000;stroke-linecap:square;stroke-linejoin:miter;stroke-width:0.8;"/>
   </g>
   <g id="patch_10">
    <path d="M 449.856545 289.4 
L 694.9 289.4 
" style="fill:none;stroke:#000000;stroke-linecap:square;stroke-linejoin:miter;stroke-width:0.8;"/>
   </g>
   <g id="patch_11">
    <path d="M 449.856545 29.1 
L 694.9 29.1 
" style="fill:none;stroke:#000000;stroke-linecap:square;stroke-linejoin:miter;stroke-width:0.8;"/>
   </g>
   <g id="legend_1">
    <g id="patch_12">
     <path d="M 458.256545 72.828718 
L 552.34303 72.828718 
Q 554.74303 72.828718 554.74303 70.428718 
L 554.74303 37.5 
Q 554.74303 35.1 552.34303 35.1 
L 458.256545 35.1 
Q 455.856545 35.1 455.856545 37.5 
L 455.856545 70.428718 
Q 455.856545 72.828718 458.256545 72.828718 
z
" style="fill:#ffffff;opacity:0.8;stroke:#cccccc;stroke-linejoin:miter;"/>
    </g>
    <g id="line2d_23"/>
    <g id="line2d_24">
     <g>
      <use style="stroke:#000000;" x="472.656545" xlink:href="#m000fb49565" y="44.217984"/>
     </g>
    </g>
    <g id="text_23">
     <!-- Simulation -->
     <defs>
      <path d="M 59.59375 52.109375 
C 59.5 66.484375 49.703125 74.8125 32.90625 74.8125 
C 16.90625 74.8125 7 66.5625 7 53.28125 
C 7 44.328125 11.703125 38.703125 21.296875 36.1875 
L 39.40625 31.359375 
C 48.59375 28.9375 52.796875 25.21875 52.796875 19.484375 
C 52.796875 15.546875 50.703125 11.53125 47.59375 9.328125 
C 44.703125 7.3125 40.09375 6.203125 34.203125 6.203125 
C 26.296875 6.203125 20.90625 8.125 17.40625 12.34375 
C 14.703125 15.5625 13.5 19.09375 13.59375 23.609375 
L 4.796875 23.609375 
C 4.90625 16.890625 6.203125 12.46875 9.09375 8.4375 
C 14.09375 1.609375 22.5 -2 33.59375 -2 
C 42.296875 -2 49.40625 0.015625 54.09375 3.625 
C 59 7.546875 62.09375 14.078125 62.09375 20.421875 
C 62.09375 29.46875 56.5 36.109375 46.59375 38.828125 
L 28.296875 43.765625 
C 19.5 46.171875 16.296875 48.984375 16.296875 54.625 
C 16.296875 62.0625 22.796875 67 32.59375 67 
C 44.203125 67 50.703125 61.671875 50.796875 52.109375 
z
" id="Nimbus_Sans_L_Regular-83"/>
     </defs>
     <g transform="translate(494.256545 48.417984)scale(0.12 -0.12)">
      <use transform="scale(0.996264)" xlink:href="#Nimbus_Sans_L_Regular-83"/>
      <use transform="translate(66.450031 0)scale(0.996264)" xlink:href="#Nimbus_Sans_L_Regular-105"/>
      <use transform="translate(88.566815 0)scale(0.996264)" xlink:href="#Nimbus_Sans_L_Regular-109"/>
      <use transform="translate(170.559149 0)scale(0.996264)" xlink:href="#Nimbus_Sans_L_Regular-117"/>
      <use transform="translate(225.950826 0)scale(0.996264)" xlink:href="#Nimbus_Sans_L_Regular-108"/>
      <use transform="translate(248.06761 0)scale(0.996264)" xlink:href="#Nimbus_Sans_L_Regular-97"/>
      <use transform="translate(303.459287 0)scale(0.996264)" xlink:href="#Nimbus_Sans_L_Regular-116"/>
      <use transform="translate(331.154457 0)scale(0.996264)" xlink:href="#Nimbus_Sans_L_Regular-105"/>
      <use transform="translate(353.271241 0)scale(0.996264)" xlink:href="#Nimbus_Sans_L_Regular-111"/>
      <use transform="translate(408.662918 0)scale(0.996264)" xlink:href="#Nimbus_Sans_L_Regular-110"/>
     </g>
    </g>
    <g id="line2d_25">
     <path d="M 460.656545 61.282343 
L 484.656545 61.282343 
" style="fill:none;stroke:#ff0000;stroke-linecap:square;stroke-width:1.5;"/>
    </g>
    <g id="line2d_26"/>
    <g id="text_24">
     <!-- Ansatz -->
     <defs>
      <path d="M 47.40625 22 
L 54.90625 0 
L 65.296875 0 
L 39.703125 73 
L 27.703125 73 
L 1.703125 0 
L 11.59375 0 
L 19.296875 22 
z
M 44.796875 29.8125 
L 21.59375 29.8125 
L 33.59375 63 
z
" id="Nimbus_Sans_L_Regular-65"/>
      <path d="M 44.296875 52.3125 
L 5.203125 52.3125 
L 5.203125 45 
L 34.40625 45 
L 3.09375 7.515625 
L 3.09375 0 
L 45.703125 0 
L 45.703125 7.3125 
L 13.203125 7.3125 
L 44.296875 44.90625 
z
" id="Nimbus_Sans_L_Regular-122"/>
     </defs>
     <g transform="translate(494.256545 65.482343)scale(0.12 -0.12)">
      <use transform="scale(0.996264)" xlink:href="#Nimbus_Sans_L_Regular-65"/>
      <use transform="translate(66.450031 0)scale(0.996264)" xlink:href="#Nimbus_Sans_L_Regular-110"/>
      <use transform="translate(121.841708 0)scale(0.996264)" xlink:href="#Nimbus_Sans_L_Regular-115"/>
      <use transform="translate(171.654909 0)scale(0.996264)" xlink:href="#Nimbus_Sans_L_Regular-97"/>
      <use transform="translate(227.046586 0)scale(0.996264)" xlink:href="#Nimbus_Sans_L_Regular-116"/>
      <use transform="translate(254.741755 0)scale(0.996264)" xlink:href="#Nimbus_Sans_L_Regular-122"/>
     </g>
    </g>
   </g>
  </g>
 </g>
 <defs>
  <clipPath id="pe268b815ad">
   <rect height="260.3" width="245.043455" x="90.793114" y="29.1"/>
  </clipPath>
  <clipPath id="pe3b5b170fc">
   <rect height="260.3" width="245.043455" x="449.856545" y="29.1"/>
  </clipPath>
 </defs>
</svg>
