<?xml version="1.0" encoding="utf-8" standalone="no"?>
<!DOCTYPE svg PUBLIC "-//W3C//DTD SVG 1.1//EN"
  "http://www.w3.org/Graphics/SVG/1.1/DTD/svg11.dtd">
<!-- Created with matplotlib (http://matplotlib.org/) -->
<svg height="330.449961pt" version="1.1" viewBox="0 0 330.640613 330.449961" width="330.640613pt" xmlns="http://www.w3.org/2000/svg" xmlns:xlink="http://www.w3.org/1999/xlink">
 <defs>
  <style type="text/css">
*{stroke-linecap:butt;stroke-linejoin:round;}
  </style>
 </defs>
 <g id="figure_1">
  <g id="patch_1">
   <path d="M 0 330.449961 
L 330.640613 330.449961 
L 330.640613 0 
L 0 0 
z
" style="fill:#ffffff;"/>
  </g>
  <g id="axes_1">
   <g id="patch_2">
    <path d="M 86.492958 275 
L 319.940613 275 
L 319.940613 10.7 
L 86.492958 10.7 
z
" style="fill:#ffffff;"/>
   </g>
   <g id="matplotlib.axis_1">
    <g id="xtick_1">
     <g id="line2d_1">
      <defs>
       <path d="M 0 0 
L 0 3.5 
" id="mfee716968d" style="stroke:#000000;stroke-width:0.8;"/>
      </defs>
      <g>
       <use style="stroke:#000000;stroke-width:0.8;" x="97.104215" xlink:href="#mfee716968d" y="275"/>
      </g>
     </g>
     <g id="text_1">
      <!-- 0 -->
      <defs>
       <path d="M 27.5 71 
C 20.90625 71 14.90625 68.125 11.203125 63.21875 
C 6.59375 57.046875 4.296875 47.5625 4.296875 34.5 
C 4.296875 10.671875 12.296875 -2 27.5 -2 
C 42.5 -2 50.703125 10.671875 50.703125 33.90625 
C 50.703125 47.65625 48.5 56.84375 43.796875 63.21875 
C 40.09375 68.21875 34.203125 71 27.5 71 
z
M 27.5 63.1875 
C 37 63.1875 41.703125 53.625 41.703125 34.703125 
C 41.703125 14.671875 37.09375 5.3125 27.296875 5.3125 
C 18 5.3125 13.296875 15.078125 13.296875 34.40625 
C 13.296875 53.71875 18 63.1875 27.5 63.1875 
z
" id="Nimbus_Sans_L_Regular-48"/>
      </defs>
      <g transform="translate(91.565051 296.196641)scale(0.2 -0.2)">
       <use transform="scale(0.996264)" xlink:href="#Nimbus_Sans_L_Regular-48"/>
      </g>
     </g>
    </g>
    <g id="xtick_2">
     <g id="line2d_2">
      <g>
       <use style="stroke:#000000;stroke-width:0.8;" x="181.994272" xlink:href="#mfee716968d" y="275"/>
      </g>
     </g>
     <g id="text_2">
      <!-- 200 -->
      <defs>
       <path d="M 50.59375 8.71875 
L 13.296875 8.71875 
C 14.203125 14.53125 17.40625 18.234375 26.09375 23.34375 
L 36.09375 28.75 
C 46 34.15625 51.09375 41.453125 51.09375 50.171875 
C 51.09375 56.078125 48.703125 61.59375 44.5 65.390625 
C 40.296875 69.203125 35.09375 71 28.40625 71 
C 19.40625 71 12.703125 67.796875 8.796875 61.796875 
C 6.296875 57.984375 5.203125 53.578125 5 46.359375 
L 13.796875 46.359375 
C 14.09375 51.171875 14.703125 54.078125 15.90625 56.375 
C 18.203125 60.6875 22.796875 63.296875 28.09375 63.296875 
C 36.09375 63.296875 42.09375 57.578125 42.09375 49.96875 
C 42.09375 44.359375 38.796875 39.546875 32.5 35.953125 
L 23.296875 30.75 
C 8.5 22.34375 4.203125 15.625 3.40625 0 
L 50.59375 0 
z
" id="Nimbus_Sans_L_Regular-50"/>
      </defs>
      <g transform="translate(165.376778 296.196641)scale(0.2 -0.2)">
       <use transform="scale(0.996264)" xlink:href="#Nimbus_Sans_L_Regular-50"/>
       <use transform="translate(55.391677 0)scale(0.996264)" xlink:href="#Nimbus_Sans_L_Regular-48"/>
       <use transform="translate(110.783354 0)scale(0.996264)" xlink:href="#Nimbus_Sans_L_Regular-48"/>
      </g>
     </g>
    </g>
    <g id="xtick_3">
     <g id="line2d_3">
      <g>
       <use style="stroke:#000000;stroke-width:0.8;" x="266.884328" xlink:href="#mfee716968d" y="275"/>
      </g>
     </g>
     <g id="text_3">
      <!-- 400 -->
      <defs>
       <path d="M 32.703125 17 
L 32.703125 0 
L 41.5 0 
L 41.5 17 
L 52 17 
L 52 24.90625 
L 41.5 24.90625 
L 41.5 71.015625 
L 35 71.015625 
L 2.796875 26.3125 
L 2.796875 17 
z
M 32.703125 24.90625 
L 10.5 24.90625 
L 32.703125 55.984375 
z
" id="Nimbus_Sans_L_Regular-52"/>
      </defs>
      <g transform="translate(250.266834 296.196641)scale(0.2 -0.2)">
       <use transform="scale(0.996264)" xlink:href="#Nimbus_Sans_L_Regular-52"/>
       <use transform="translate(55.391677 0)scale(0.996264)" xlink:href="#Nimbus_Sans_L_Regular-48"/>
       <use transform="translate(110.783354 0)scale(0.996264)" xlink:href="#Nimbus_Sans_L_Regular-48"/>
      </g>
     </g>
    </g>
    <g id="text_4">
     <!-- Time (days) -->
     <defs>
      <path d="M 35.40625 64.78125 
L 59.296875 64.78125 
L 59.296875 73 
L 2.09375 73 
L 2.09375 64.78125 
L 26.09375 64.78125 
L 26.09375 -0.21875 
L 35.40625 -0.21875 
z
" id="Nimbus_Sans_L_Regular-84"/>
      <path d="M 15 52.484375 
L 6.703125 52.484375 
L 6.703125 0 
L 15 0 
z
M 15 73 
L 6.59375 73 
L 6.59375 62.484375 
L 15 62.484375 
z
" id="Nimbus_Sans_L_Regular-105"/>
      <path d="M 7 52.484375 
L 7 0 
L 15.40625 0 
L 15.40625 32.953125 
C 15.40625 40.578125 20.90625 46.6875 27.703125 46.6875 
C 33.90625 46.6875 37.40625 42.875 37.40625 36.15625 
L 37.40625 0 
L 45.796875 0 
L 45.796875 32.953125 
C 45.796875 40.578125 51.296875 46.6875 58.09375 46.6875 
C 64.203125 46.6875 67.796875 42.78125 67.796875 36.15625 
L 67.796875 0 
L 76.203125 0 
L 76.203125 39.375 
C 76.203125 48.78125 70.796875 54 61 54 
C 54 54 49.796875 51.890625 44.90625 45.984375 
C 41.796875 51.59375 37.59375 54 30.796875 54 
C 23.796875 54 19.203125 51.390625 14.703125 45.078125 
L 14.703125 52.484375 
z
" id="Nimbus_Sans_L_Regular-109"/>
      <path d="M 51.296875 23.890625 
C 51.296875 31.78125 50.703125 36.53125 49.203125 40.375 
C 45.796875 48.859375 37.796875 54 28 54 
C 13.40625 54 4 42.84375 4 25.703125 
C 4 8.546875 13.09375 -2 27.796875 -2 
C 39.796875 -2 48.09375 4.84375 50.203125 16.3125 
L 41.796875 16.3125 
C 39.5 9.34375 34.796875 5.703125 28.09375 5.703125 
C 22.796875 5.703125 18.296875 8.125 15.5 12.578125 
C 13.5 15.59375 12.796875 18.640625 12.703125 23.890625 
z
M 12.90625 31 
C 13.59375 40.265625 19.5 46.28125 27.90625 46.28125 
C 36.09375 46.28125 42.40625 39.53125 42.40625 31 
C 42.40625 31 42.40625 31 42.296875 31 
z
" id="Nimbus_Sans_L_Regular-101"/>
      <path d="M 23.59375 73 
C 13.59375 59.84375 7.296875 41.5625 7.296875 25.796875 
C 7.296875 9.9375 13.59375 -8.34375 23.59375 -21.5 
L 29.09375 -21.5 
C 20.296875 -7.140625 15.40625 9.734375 15.40625 25.796875 
C 15.40625 41.765625 20.296875 58.734375 29.09375 73 
z
" id="Nimbus_Sans_L_Regular-40"/>
      <path d="M 49.5 73 
L 41.203125 73 
L 41.203125 45.890625 
C 37.703125 51.1875 32.09375 54 25.09375 54 
C 11.5 54 2.59375 43.140625 2.59375 26.484375 
C 2.59375 8.84375 11.296875 -2 25.40625 -2 
C 32.59375 -2 37.59375 0.703125 42.09375 7.203125 
L 42.09375 -0.03125 
L 49.5 -0.03125 
z
M 26.5 46.1875 
C 35.5 46.1875 41.203125 38.234375 41.203125 25.796875 
C 41.203125 13.765625 35.40625 5.8125 26.59375 5.8125 
C 17.40625 5.8125 11.296875 13.859375 11.296875 26 
C 11.296875 38.125 17.40625 46.1875 26.5 46.1875 
z
" id="Nimbus_Sans_L_Regular-100"/>
      <path d="M 53.5 5.203125 
C 52.59375 5 52.203125 5 51.703125 5 
C 48.796875 5 47.203125 6.484375 47.203125 9.078125 
L 47.203125 39.765625 
C 47.203125 49.015625 40.40625 54 27.5 54 
C 19.90625 54 13.59375 51.8125 10.09375 47.90625 
C 7.703125 45.203125 6.703125 42.21875 6.5 37.03125 
L 14.90625 37.03125 
C 15.59375 43.390625 19.40625 46.28125 27.203125 46.28125 
C 34.703125 46.28125 38.90625 43.484375 38.90625 38.515625 
L 38.90625 36.328125 
C 38.90625 32.828125 36.796875 31.34375 30.203125 30.546875 
C 18.40625 29.0625 16.59375 28.65625 13.40625 27.359375 
C 7.296875 24.875 4.203125 20.1875 4.203125 13.421875 
C 4.203125 3.96875 10.796875 -2 21.40625 -2 
C 28 -2 33.296875 0.296875 39.203125 5.703125 
C 39.796875 0.390625 42.40625 -2 47.796875 -2 
C 49.5 -2 50.796875 -1.8125 53.5 -1.09375 
z
M 38.90625 16.75 
C 38.90625 13.953125 38.09375 12.265625 35.59375 9.984375 
C 32.203125 6.890625 28.09375 5.3125 23.203125 5.3125 
C 16.703125 5.3125 12.90625 8.390625 12.90625 13.65625 
C 12.90625 19.140625 16.59375 21.921875 25.5 23.21875 
C 34.296875 24.40625 36.09375 24.8125 38.90625 26.09375 
z
" id="Nimbus_Sans_L_Regular-97"/>
      <path d="M 38.796875 52.5 
L 24.296875 11.53125 
L 10.90625 52.5 
L 2 52.5 
L 19.703125 -0.328125 
L 16.5 -8.65625 
C 15.203125 -12.375 13.296875 -13.78125 9.796875 -13.78125 
C 8.59375 -13.78125 7.203125 -13.578125 5.40625 -13.171875 
L 5.40625 -20.703125 
C 7.09375 -21.59375 8.796875 -22 11 -22 
C 13.703125 -22 16.59375 -21.09375 18.796875 -19.484375 
C 21.40625 -17.578125 22.90625 -15.359375 24.5 -11.140625 
L 47.796875 52.5 
z
" id="Nimbus_Sans_L_Regular-121"/>
      <path d="M 43.796875 37.921875 
C 43.703125 48.203125 36.90625 54 24.796875 54 
C 12.59375 54 4.703125 47.71875 4.703125 38.0625 
C 4.703125 29.890625 8.90625 26.015625 21.296875 23.03125 
L 29.09375 21.140625 
C 34.90625 19.734375 37.203125 17.65625 37.203125 13.875 
C 37.203125 9 32.296875 5.703125 25 5.703125 
C 20.5 5.703125 16.703125 7 14.59375 9.1875 
C 13.296875 10.6875 12.703125 12.171875 12.203125 15.84375 
L 3.40625 15.84375 
C 3.796875 3.765625 10.59375 -2 24.296875 -2 
C 37.5 -2 45.90625 4.453125 45.90625 14.515625 
C 45.90625 22.28125 41.5 26.578125 31.09375 29.0625 
L 23.09375 30.953125 
C 16.296875 32.53125 13.40625 34.734375 13.40625 38.40625 
C 13.40625 43.1875 17.703125 46.28125 24.5 46.28125 
C 31.203125 46.28125 34.796875 43.390625 35 37.921875 
z
" id="Nimbus_Sans_L_Regular-115"/>
      <path d="M 9.296875 -21.5 
C 19.296875 -8.34375 25.59375 9.9375 25.59375 25.6875 
C 25.59375 41.5625 19.296875 59.84375 9.296875 73 
L 3.796875 73 
C 12.59375 58.640625 17.5 41.765625 17.5 25.6875 
C 17.5 9.734375 12.59375 -7.25 3.796875 -21.5 
z
" id="Nimbus_Sans_L_Regular-41"/>
     </defs>
     <g transform="translate(150.933227 319.005988)scale(0.2 -0.2)">
      <use transform="scale(0.996264)" xlink:href="#Nimbus_Sans_L_Regular-84"/>
      <use transform="translate(60.871631 0)scale(0.996264)" xlink:href="#Nimbus_Sans_L_Regular-105"/>
      <use transform="translate(82.988415 0)scale(0.996264)" xlink:href="#Nimbus_Sans_L_Regular-109"/>
      <use transform="translate(165.976845 0)scale(0.996264)" xlink:href="#Nimbus_Sans_L_Regular-101"/>
      <use transform="translate(249.063692 0)scale(0.996264)" xlink:href="#Nimbus_Sans_L_Regular-40"/>
      <use transform="translate(282.238922 0)scale(0.996264)" xlink:href="#Nimbus_Sans_L_Regular-100"/>
      <use transform="translate(337.630599 0)scale(0.996264)" xlink:href="#Nimbus_Sans_L_Regular-97"/>
      <use transform="translate(390.034168 0)scale(0.996264)" xlink:href="#Nimbus_Sans_L_Regular-121"/>
      <use transform="translate(439.847368 0)scale(0.996264)" xlink:href="#Nimbus_Sans_L_Regular-115"/>
      <use transform="translate(489.660569 0)scale(0.996264)" xlink:href="#Nimbus_Sans_L_Regular-41"/>
     </g>
    </g>
   </g>
   <g id="matplotlib.axis_2">
    <g id="ytick_1">
     <g id="line2d_4">
      <defs>
       <path d="M 0 0 
L -3.5 0 
" id="mf0758a4764" style="stroke:#000000;stroke-width:0.8;"/>
      </defs>
      <g>
       <use style="stroke:#000000;stroke-width:0.8;" x="86.492958" xlink:href="#mf0758a4764" y="262.986364"/>
      </g>
     </g>
     <g id="text_5">
      <!-- 0.000 -->
      <defs>
       <path d="M 19.09375 10.421875 
L 8.703125 10.421875 
L 8.703125 0 
L 19.09375 0 
z
" id="Nimbus_Sans_L_Regular-46"/>
      </defs>
      <g transform="translate(29.640613 270.084684)scale(0.2 -0.2)">
       <use transform="scale(0.996264)" xlink:href="#Nimbus_Sans_L_Regular-48"/>
       <use transform="translate(55.391677 0)scale(0.996264)" xlink:href="#Nimbus_Sans_L_Regular-46"/>
       <use transform="translate(83.086847 0)scale(0.996264)" xlink:href="#Nimbus_Sans_L_Regular-48"/>
       <use transform="translate(138.478524 0)scale(0.996264)" xlink:href="#Nimbus_Sans_L_Regular-48"/>
       <use transform="translate(193.8702 0)scale(0.996264)" xlink:href="#Nimbus_Sans_L_Regular-48"/>
      </g>
     </g>
    </g>
    <g id="ytick_2">
     <g id="line2d_5">
      <g>
       <use style="stroke:#000000;stroke-width:0.8;" x="86.492958" xlink:href="#mf0758a4764" y="216.423039"/>
      </g>
     </g>
     <g id="text_6">
      <!-- 0.001 -->
      <defs>
       <path d="M 25.90625 50.59375 
L 25.90625 0 
L 34.703125 0 
L 34.703125 71.015625 
L 28.90625 71.015625 
C 25.796875 60.109375 23.796875 58.609375 10.203125 56.90625 
L 10.203125 50.59375 
z
" id="Nimbus_Sans_L_Regular-49"/>
      </defs>
      <g transform="translate(29.640613 223.52136)scale(0.2 -0.2)">
       <use transform="scale(0.996264)" xlink:href="#Nimbus_Sans_L_Regular-48"/>
       <use transform="translate(55.391677 0)scale(0.996264)" xlink:href="#Nimbus_Sans_L_Regular-46"/>
       <use transform="translate(83.086847 0)scale(0.996264)" xlink:href="#Nimbus_Sans_L_Regular-48"/>
       <use transform="translate(138.478524 0)scale(0.996264)" xlink:href="#Nimbus_Sans_L_Regular-48"/>
       <use transform="translate(193.8702 0)scale(0.996264)" xlink:href="#Nimbus_Sans_L_Regular-49"/>
      </g>
     </g>
    </g>
    <g id="ytick_3">
     <g id="line2d_6">
      <g>
       <use style="stroke:#000000;stroke-width:0.8;" x="86.492958" xlink:href="#mf0758a4764" y="169.859715"/>
      </g>
     </g>
     <g id="text_7">
      <!-- 0.002 -->
      <g transform="translate(29.640613 176.958035)scale(0.2 -0.2)">
       <use transform="scale(0.996264)" xlink:href="#Nimbus_Sans_L_Regular-48"/>
       <use transform="translate(55.391677 0)scale(0.996264)" xlink:href="#Nimbus_Sans_L_Regular-46"/>
       <use transform="translate(83.086847 0)scale(0.996264)" xlink:href="#Nimbus_Sans_L_Regular-48"/>
       <use transform="translate(138.478524 0)scale(0.996264)" xlink:href="#Nimbus_Sans_L_Regular-48"/>
       <use transform="translate(193.8702 0)scale(0.996264)" xlink:href="#Nimbus_Sans_L_Regular-50"/>
      </g>
     </g>
    </g>
    <g id="ytick_4">
     <g id="line2d_7">
      <g>
       <use style="stroke:#000000;stroke-width:0.8;" x="86.492958" xlink:href="#mf0758a4764" y="123.296391"/>
      </g>
     </g>
     <g id="text_8">
      <!-- 0.003 -->
      <defs>
       <path d="M 22.09375 33 
L 23.203125 33 
L 26.90625 33 
C 36.59375 33 41.59375 28.59375 41.59375 20.0625 
C 41.59375 11.125 36.09375 5.8125 26.90625 5.8125 
C 17.296875 5.8125 12.59375 10.640625 12 21.015625 
L 3.203125 21.015625 
C 3.59375 15.28125 4.59375 11.5625 6.296875 8.34375 
C 9.90625 1.515625 16.90625 -2 26.59375 -2 
C 41.203125 -2 50.59375 6.734375 50.59375 20.203125 
C 50.59375 29.25 47.09375 34.28125 38.59375 37.203125 
C 45.203125 39.78125 48.5 44.71875 48.5 51.734375 
C 48.5 63.78125 40.40625 71 26.90625 71 
C 12.59375 71 5 63.28125 4.703125 48.359375 
L 13.5 48.359375 
C 13.59375 52.59375 14 54.953125 15.09375 57.109375 
C 17.09375 60.9375 21.5 63.296875 27 63.296875 
C 34.796875 63.296875 39.5 58.75 39.5 51.359375 
C 39.5 46.421875 37.703125 43.453125 33.796875 41.890625 
C 31.40625 40.90625 28.296875 40.5 22.09375 40.5 
z
" id="Nimbus_Sans_L_Regular-51"/>
      </defs>
      <g transform="translate(29.640613 130.394711)scale(0.2 -0.2)">
       <use transform="scale(0.996264)" xlink:href="#Nimbus_Sans_L_Regular-48"/>
       <use transform="translate(55.391677 0)scale(0.996264)" xlink:href="#Nimbus_Sans_L_Regular-46"/>
       <use transform="translate(83.086847 0)scale(0.996264)" xlink:href="#Nimbus_Sans_L_Regular-48"/>
       <use transform="translate(138.478524 0)scale(0.996264)" xlink:href="#Nimbus_Sans_L_Regular-48"/>
       <use transform="translate(193.8702 0)scale(0.996264)" xlink:href="#Nimbus_Sans_L_Regular-51"/>
      </g>
     </g>
    </g>
    <g id="ytick_5">
     <g id="line2d_8">
      <g>
       <use style="stroke:#000000;stroke-width:0.8;" x="86.492958" xlink:href="#mf0758a4764" y="76.733067"/>
      </g>
     </g>
     <g id="text_9">
      <!-- 0.004 -->
      <g transform="translate(29.640613 83.831387)scale(0.2 -0.2)">
       <use transform="scale(0.996264)" xlink:href="#Nimbus_Sans_L_Regular-48"/>
       <use transform="translate(55.391677 0)scale(0.996264)" xlink:href="#Nimbus_Sans_L_Regular-46"/>
       <use transform="translate(83.086847 0)scale(0.996264)" xlink:href="#Nimbus_Sans_L_Regular-48"/>
       <use transform="translate(138.478524 0)scale(0.996264)" xlink:href="#Nimbus_Sans_L_Regular-48"/>
       <use transform="translate(193.8702 0)scale(0.996264)" xlink:href="#Nimbus_Sans_L_Regular-52"/>
      </g>
     </g>
    </g>
    <g id="ytick_6">
     <g id="line2d_9">
      <g>
       <use style="stroke:#000000;stroke-width:0.8;" x="86.492958" xlink:href="#mf0758a4764" y="30.169743"/>
      </g>
     </g>
     <g id="text_10">
      <!-- 0.005 -->
      <defs>
       <path d="M 47.59375 71 
L 11 71 
L 5.703125 32.59375 
L 13.796875 32.59375 
C 17.90625 37.484375 21.296875 39.1875 26.796875 39.1875 
C 36.296875 39.1875 42.296875 32.6875 42.296875 22.203125 
C 42.296875 12 36.40625 5.8125 26.796875 5.8125 
C 19.09375 5.8125 14.40625 9.703125 12.296875 17.703125 
L 3.5 17.703125 
C 4.703125 11.90625 5.703125 9.09375 7.796875 6.484375 
C 11.796875 1.09375 19 -2 27 -2 
C 41.296875 -2 51.296875 8.390625 51.296875 23.390625 
C 51.296875 37.40625 42 47 28.40625 47 
C 23.40625 47 19.40625 45.703125 15.296875 42.6875 
L 18.09375 62.296875 
L 47.59375 62.296875 
z
" id="Nimbus_Sans_L_Regular-53"/>
      </defs>
      <g transform="translate(29.640613 37.268063)scale(0.2 -0.2)">
       <use transform="scale(0.996264)" xlink:href="#Nimbus_Sans_L_Regular-48"/>
       <use transform="translate(55.391677 0)scale(0.996264)" xlink:href="#Nimbus_Sans_L_Regular-46"/>
       <use transform="translate(83.086847 0)scale(0.996264)" xlink:href="#Nimbus_Sans_L_Regular-48"/>
       <use transform="translate(138.478524 0)scale(0.996264)" xlink:href="#Nimbus_Sans_L_Regular-48"/>
       <use transform="translate(193.8702 0)scale(0.996264)" xlink:href="#Nimbus_Sans_L_Regular-53"/>
      </g>
     </g>
    </g>
    <g id="text_11">
     <!-- Heteroplasmy variance -->
     <defs>
      <path d="M 55.09375 33 
L 55.09375 -0.03125 
L 64.40625 -0.03125 
L 64.40625 73 
L 55.09375 73 
L 55.09375 41.21875 
L 17.59375 41.21875 
L 17.59375 73 
L 8.296875 73 
L 8.296875 -0.03125 
L 17.703125 -0.03125 
L 17.703125 33 
z
" id="Nimbus_Sans_L_Regular-72"/>
      <path d="M 25.40625 52.8125 
L 16.796875 52.8125 
L 16.796875 67 
L 8.5 67 
L 8.5 52.8125 
L 1.40625 52.8125 
L 1.40625 46 
L 8.5 46 
L 8.5 6.3125 
C 8.5 1 12.09375 -2 18.59375 -2 
C 20.59375 -2 22.59375 -1.8125 25.40625 -1.296875 
L 25.40625 5.71875 
C 24.296875 5.40625 23 5.3125 21.40625 5.3125 
C 17.796875 5.3125 16.796875 6.3125 16.796875 10.015625 
L 16.796875 46 
L 25.40625 46 
z
" id="Nimbus_Sans_L_Regular-116"/>
      <path d="M 6.90625 52.484375 
L 6.90625 0 
L 15.296875 0 
L 15.296875 27.203125 
C 15.296875 34.703125 17.203125 39.609375 21.203125 42.5 
C 23.796875 44.40625 26.296875 45 32.09375 45 
L 32.09375 53.625 
C 30.703125 53.8125 30 53.8125 28.90625 53.8125 
C 23.5 53.8125 19.40625 50.625 14.59375 42.90625 
L 14.59375 52.484375 
z
" id="Nimbus_Sans_L_Regular-114"/>
      <path d="M 27.203125 54 
C 12.5 54 3.59375 43.53125 3.59375 25.984375 
C 3.59375 8.453125 12.40625 -2 27.296875 -2 
C 42 -2 51 8.453125 51 25.59375 
C 51 43.625 42.296875 54 27.203125 54 
z
M 27.296875 46.28125 
C 36.703125 46.28125 42.296875 38.625 42.296875 25.703125 
C 42.296875 13.453125 36.5 5.703125 27.296875 5.703125 
C 18 5.703125 12.296875 13.359375 12.296875 25.984375 
C 12.296875 38.53125 18 46.28125 27.296875 46.28125 
z
" id="Nimbus_Sans_L_Regular-111"/>
      <path d="M 5.40625 -22 
L 13.796875 -22 
L 13.796875 5 
C 18.203125 -0.421875 23.09375 -2.8125 29.90625 -2.8125 
C 43.40625 -2.8125 52.296875 8.15625 52.296875 24.984375 
C 52.296875 42.71875 43.703125 53.8125 29.796875 53.8125 
C 22.703125 53.8125 17 50.59375 13.09375 44.390625 
L 13.09375 52.328125 
L 5.40625 52.328125 
z
M 28.40625 46 
C 37.59375 46 43.59375 37.8125 43.59375 25.1875 
C 43.59375 13.171875 37.5 5 28.40625 5 
C 19.59375 5 13.796875 13.078125 13.796875 25.5 
C 13.796875 37.921875 19.59375 46 28.40625 46 
z
" id="Nimbus_Sans_L_Regular-112"/>
      <path d="M 15.203125 73 
L 6.796875 73 
L 6.796875 -0.03125 
L 15.203125 -0.03125 
z
" id="Nimbus_Sans_L_Regular-108"/>
      <path d="M 28.5 0 
L 48.59375 52.5 
L 39.203125 52.5 
L 24.40625 9.921875 
L 10.40625 52.5 
L 1 52.5 
L 19.40625 0 
z
" id="Nimbus_Sans_L_Regular-118"/>
      <path d="M 7 52.484375 
L 7 0 
L 15.40625 0 
L 15.40625 28.953125 
C 15.40625 39.671875 21 46.6875 29.59375 46.6875 
C 36.203125 46.6875 40.40625 42.671875 40.40625 36.359375 
L 40.40625 0 
L 48.703125 0 
L 48.703125 39.671875 
C 48.703125 48.390625 42.203125 54 32.09375 54 
C 24.296875 54 19.296875 50.984375 14.703125 43.6875 
L 14.703125 52.484375 
z
" id="Nimbus_Sans_L_Regular-110"/>
      <path d="M 47.09375 34.9375 
C 46.703125 40.03125 45.59375 43.328125 43.59375 46.21875 
C 40 51.109375 33.703125 54 26.40625 54 
C 12.296875 54 3.09375 42.84375 3.09375 25.5 
C 3.09375 8.65625 12.09375 -2 26.296875 -2 
C 38.796875 -2 46.703125 5.46875 47.703125 18.234375 
L 39.296875 18.234375 
C 37.90625 9.875 33.59375 5.703125 26.5 5.703125 
C 17.296875 5.703125 11.796875 13.171875 11.796875 25.5 
C 11.796875 38.53125 17.203125 46.28125 26.296875 46.28125 
C 33.296875 46.28125 37.703125 42.203125 38.703125 34.9375 
z
" id="Nimbus_Sans_L_Regular-99"/>
     </defs>
     <g transform="translate(21.396641 244.467956)rotate(-90)scale(0.2 -0.2)">
      <use transform="scale(0.996264)" xlink:href="#Nimbus_Sans_L_Regular-72"/>
      <use transform="translate(71.929985 0)scale(0.996264)" xlink:href="#Nimbus_Sans_L_Regular-101"/>
      <use transform="translate(127.321662 0)scale(0.996264)" xlink:href="#Nimbus_Sans_L_Regular-116"/>
      <use transform="translate(155.016831 0)scale(0.996264)" xlink:href="#Nimbus_Sans_L_Regular-101"/>
      <use transform="translate(210.408508 0)scale(0.996264)" xlink:href="#Nimbus_Sans_L_Regular-114"/>
      <use transform="translate(243.583738 0)scale(0.996264)" xlink:href="#Nimbus_Sans_L_Regular-111"/>
      <use transform="translate(298.975415 0)scale(0.996264)" xlink:href="#Nimbus_Sans_L_Regular-112"/>
      <use transform="translate(354.367092 0)scale(0.996264)" xlink:href="#Nimbus_Sans_L_Regular-108"/>
      <use transform="translate(376.483876 0)scale(0.996264)" xlink:href="#Nimbus_Sans_L_Regular-97"/>
      <use transform="translate(431.875553 0)scale(0.996264)" xlink:href="#Nimbus_Sans_L_Regular-115"/>
      <use transform="translate(481.688754 0)scale(0.996264)" xlink:href="#Nimbus_Sans_L_Regular-109"/>
      <use transform="translate(563.183791 0)scale(0.996264)" xlink:href="#Nimbus_Sans_L_Regular-121"/>
      <use transform="translate(640.692161 0)scale(0.996264)" xlink:href="#Nimbus_Sans_L_Regular-118"/>
      <use transform="translate(688.014732 0)scale(0.996264)" xlink:href="#Nimbus_Sans_L_Regular-97"/>
      <use transform="translate(743.406409 0)scale(0.996264)" xlink:href="#Nimbus_Sans_L_Regular-114"/>
      <use transform="translate(778.075017 0)scale(0.996264)" xlink:href="#Nimbus_Sans_L_Regular-105"/>
      <use transform="translate(800.191801 0)scale(0.996264)" xlink:href="#Nimbus_Sans_L_Regular-97"/>
      <use transform="translate(855.583478 0)scale(0.996264)" xlink:href="#Nimbus_Sans_L_Regular-110"/>
      <use transform="translate(910.975155 0)scale(0.996264)" xlink:href="#Nimbus_Sans_L_Regular-99"/>
      <use transform="translate(960.788355 0)scale(0.996264)" xlink:href="#Nimbus_Sans_L_Regular-101"/>
     </g>
    </g>
   </g>
   <g id="line2d_10">
    <defs>
     <path d="M -0 7.071068 
L 4.242641 0 
L -0 -7.071068 
L -4.242641 -0 
z
" id="mdc90a77cdb" style="stroke:#1ce300;stroke-linejoin:miter;"/>
    </defs>
    <g clip-path="url(#p679ce1ac03)">
     <use style="fill:#1ce300;opacity:0.4;stroke:#1ce300;stroke-linejoin:miter;" x="97.104215" xlink:href="#mdc90a77cdb" y="262.986364"/>
     <use style="fill:#1ce300;opacity:0.4;stroke:#1ce300;stroke-linejoin:miter;" x="114.082227" xlink:href="#mdc90a77cdb" y="262.600557"/>
     <use style="fill:#1ce300;opacity:0.4;stroke:#1ce300;stroke-linejoin:miter;" x="131.060238" xlink:href="#mdc90a77cdb" y="262.220338"/>
     <use style="fill:#1ce300;opacity:0.4;stroke:#1ce300;stroke-linejoin:miter;" x="148.038249" xlink:href="#mdc90a77cdb" y="261.839638"/>
     <use style="fill:#1ce300;opacity:0.4;stroke:#1ce300;stroke-linejoin:miter;" x="165.016261" xlink:href="#mdc90a77cdb" y="261.459415"/>
     <use style="fill:#1ce300;opacity:0.4;stroke:#1ce300;stroke-linejoin:miter;" x="181.994272" xlink:href="#mdc90a77cdb" y="261.071603"/>
     <use style="fill:#1ce300;opacity:0.4;stroke:#1ce300;stroke-linejoin:miter;" x="198.972283" xlink:href="#mdc90a77cdb" y="260.672778"/>
     <use style="fill:#1ce300;opacity:0.4;stroke:#1ce300;stroke-linejoin:miter;" x="215.950294" xlink:href="#mdc90a77cdb" y="260.265305"/>
     <use style="fill:#1ce300;opacity:0.4;stroke:#1ce300;stroke-linejoin:miter;" x="232.928306" xlink:href="#mdc90a77cdb" y="259.887455"/>
     <use style="fill:#1ce300;opacity:0.4;stroke:#1ce300;stroke-linejoin:miter;" x="249.906317" xlink:href="#mdc90a77cdb" y="259.491738"/>
     <use style="fill:#1ce300;opacity:0.4;stroke:#1ce300;stroke-linejoin:miter;" x="266.884328" xlink:href="#mdc90a77cdb" y="259.113672"/>
     <use style="fill:#1ce300;opacity:0.4;stroke:#1ce300;stroke-linejoin:miter;" x="283.862339" xlink:href="#mdc90a77cdb" y="258.715306"/>
     <use style="fill:#1ce300;opacity:0.4;stroke:#1ce300;stroke-linejoin:miter;" x="300.840351" xlink:href="#mdc90a77cdb" y="258.315226"/>
    </g>
   </g>
   <g id="line2d_11">
    <path clip-path="url(#p679ce1ac03)" d="M 97.104215 262.986364 
L 101.348718 262.889695 
L 105.593221 262.793027 
L 109.837724 262.696358 
L 114.082227 262.59969 
L 118.32673 262.503021 
L 122.571232 262.406353 
L 126.815735 262.309684 
L 131.060238 262.213016 
L 135.304741 262.116347 
L 139.549244 262.019679 
L 143.793746 261.92301 
L 148.038249 261.826342 
L 152.282752 261.729673 
L 156.527255 261.633005 
L 160.771758 261.536336 
L 165.016261 261.439668 
L 169.260763 261.342999 
L 173.505266 261.246331 
L 177.749769 261.149662 
L 181.994272 261.052994 
L 186.238775 260.956325 
L 190.483277 260.859657 
L 194.72778 260.762988 
L 198.972283 260.66632 
L 203.216786 260.569651 
L 207.461289 260.472983 
L 211.705792 260.376314 
L 215.950294 260.279646 
L 220.194797 260.182977 
L 224.4393 260.086309 
L 228.683803 259.98964 
L 232.928306 259.892972 
L 237.172808 259.796303 
L 241.417311 259.699635 
L 245.661814 259.602966 
L 249.906317 259.506298 
L 254.15082 259.409629 
L 258.395322 259.312961 
L 262.639825 259.216292 
L 266.884328 259.119624 
L 271.128831 259.022955 
L 275.373334 258.926287 
L 279.617837 258.829618 
L 283.862339 258.73295 
L 288.106842 258.636281 
L 292.351345 258.539613 
L 296.595848 258.442944 
L 300.840351 258.346276 
L 305.084853 258.249607 
L 309.329356 258.152939 
" style="fill:none;stroke:#1ce300;stroke-linecap:square;stroke-width:1.5;"/>
   </g>
   <g id="line2d_12">
    <defs>
     <path d="M 0 5 
C 1.326016 5 2.597899 4.473168 3.535534 3.535534 
C 4.473168 2.597899 5 1.326016 5 0 
C 5 -1.326016 4.473168 -2.597899 3.535534 -3.535534 
C 2.597899 -4.473168 1.326016 -5 0 -5 
C -1.326016 -5 -2.597899 -4.473168 -3.535534 -3.535534 
C -4.473168 -2.597899 -5 -1.326016 -5 0 
C -5 1.326016 -4.473168 2.597899 -3.535534 3.535534 
C -2.597899 4.473168 -1.326016 5 0 5 
z
" id="m7bd9b8ebda" style="stroke:#54ab00;"/>
    </defs>
    <g clip-path="url(#p679ce1ac03)">
     <use style="fill:#54ab00;opacity:0.4;stroke:#54ab00;" x="97.104215" xlink:href="#m7bd9b8ebda" y="262.986364"/>
     <use style="fill:#54ab00;opacity:0.4;stroke:#54ab00;" x="114.082227" xlink:href="#m7bd9b8ebda" y="262.071541"/>
     <use style="fill:#54ab00;opacity:0.4;stroke:#54ab00;" x="131.060238" xlink:href="#m7bd9b8ebda" y="261.168196"/>
     <use style="fill:#54ab00;opacity:0.4;stroke:#54ab00;" x="148.038249" xlink:href="#m7bd9b8ebda" y="260.241606"/>
     <use style="fill:#54ab00;opacity:0.4;stroke:#54ab00;" x="165.016261" xlink:href="#m7bd9b8ebda" y="259.346807"/>
     <use style="fill:#54ab00;opacity:0.4;stroke:#54ab00;" x="181.994272" xlink:href="#m7bd9b8ebda" y="258.389474"/>
     <use style="fill:#54ab00;opacity:0.4;stroke:#54ab00;" x="198.972283" xlink:href="#m7bd9b8ebda" y="257.543108"/>
     <use style="fill:#54ab00;opacity:0.4;stroke:#54ab00;" x="215.950294" xlink:href="#m7bd9b8ebda" y="256.630951"/>
     <use style="fill:#54ab00;opacity:0.4;stroke:#54ab00;" x="232.928306" xlink:href="#m7bd9b8ebda" y="255.698085"/>
     <use style="fill:#54ab00;opacity:0.4;stroke:#54ab00;" x="249.906317" xlink:href="#m7bd9b8ebda" y="254.724319"/>
     <use style="fill:#54ab00;opacity:0.4;stroke:#54ab00;" x="266.884328" xlink:href="#m7bd9b8ebda" y="253.908602"/>
     <use style="fill:#54ab00;opacity:0.4;stroke:#54ab00;" x="283.862339" xlink:href="#m7bd9b8ebda" y="253.008281"/>
     <use style="fill:#54ab00;opacity:0.4;stroke:#54ab00;" x="300.840351" xlink:href="#m7bd9b8ebda" y="252.17011"/>
    </g>
   </g>
   <g id="line2d_13">
    <path clip-path="url(#p679ce1ac03)" d="M 97.104215 262.986364 
L 101.348718 262.760859 
L 105.593221 262.535354 
L 109.837724 262.309849 
L 114.082227 262.084344 
L 118.32673 261.858839 
L 122.571232 261.633334 
L 126.815735 261.40783 
L 131.060238 261.182325 
L 135.304741 260.95682 
L 139.549244 260.731315 
L 143.793746 260.50581 
L 148.038249 260.280305 
L 152.282752 260.0548 
L 156.527255 259.829296 
L 160.771758 259.603791 
L 165.016261 259.378286 
L 169.260763 259.152781 
L 173.505266 258.927276 
L 177.749769 258.701771 
L 181.994272 258.476266 
L 186.238775 258.250762 
L 190.483277 258.025257 
L 194.72778 257.799752 
L 198.972283 257.574247 
L 203.216786 257.348742 
L 207.461289 257.123237 
L 211.705792 256.897732 
L 215.950294 256.672227 
L 220.194797 256.446723 
L 224.4393 256.221218 
L 228.683803 255.995713 
L 232.928306 255.770208 
L 237.172808 255.544703 
L 241.417311 255.319198 
L 245.661814 255.093693 
L 249.906317 254.868189 
L 254.15082 254.642684 
L 258.395322 254.417179 
L 262.639825 254.191674 
L 266.884328 253.966169 
L 271.128831 253.740664 
L 275.373334 253.515159 
L 279.617837 253.289655 
L 283.862339 253.06415 
L 288.106842 252.838645 
L 292.351345 252.61314 
L 296.595848 252.387635 
L 300.840351 252.16213 
L 305.084853 251.936625 
L 309.329356 251.71112 
" style="fill:none;stroke:#54ab00;stroke-linecap:square;stroke-width:1.5;"/>
   </g>
   <g id="line2d_14">
    <defs>
     <path d="M -5 5 
L 5 5 
L 5 -5 
L -5 -5 
z
" id="mbac531a4c3" style="stroke:#8e7100;stroke-linejoin:miter;"/>
    </defs>
    <g clip-path="url(#p679ce1ac03)">
     <use style="fill:#8e7100;opacity:0.4;stroke:#8e7100;stroke-linejoin:miter;" x="97.104215" xlink:href="#mbac531a4c3" y="262.986364"/>
     <use style="fill:#8e7100;opacity:0.4;stroke:#8e7100;stroke-linejoin:miter;" x="114.082227" xlink:href="#mbac531a4c3" y="261.126366"/>
     <use style="fill:#8e7100;opacity:0.4;stroke:#8e7100;stroke-linejoin:miter;" x="131.060238" xlink:href="#mbac531a4c3" y="259.257743"/>
     <use style="fill:#8e7100;opacity:0.4;stroke:#8e7100;stroke-linejoin:miter;" x="148.038249" xlink:href="#mbac531a4c3" y="257.448346"/>
     <use style="fill:#8e7100;opacity:0.4;stroke:#8e7100;stroke-linejoin:miter;" x="165.016261" xlink:href="#mbac531a4c3" y="255.485825"/>
     <use style="fill:#8e7100;opacity:0.4;stroke:#8e7100;stroke-linejoin:miter;" x="181.994272" xlink:href="#mbac531a4c3" y="253.566657"/>
     <use style="fill:#8e7100;opacity:0.4;stroke:#8e7100;stroke-linejoin:miter;" x="198.972283" xlink:href="#mbac531a4c3" y="251.852503"/>
     <use style="fill:#8e7100;opacity:0.4;stroke:#8e7100;stroke-linejoin:miter;" x="215.950294" xlink:href="#mbac531a4c3" y="250.115916"/>
     <use style="fill:#8e7100;opacity:0.4;stroke:#8e7100;stroke-linejoin:miter;" x="232.928306" xlink:href="#mbac531a4c3" y="248.30023"/>
     <use style="fill:#8e7100;opacity:0.4;stroke:#8e7100;stroke-linejoin:miter;" x="249.906317" xlink:href="#mbac531a4c3" y="246.495342"/>
     <use style="fill:#8e7100;opacity:0.4;stroke:#8e7100;stroke-linejoin:miter;" x="266.884328" xlink:href="#mbac531a4c3" y="244.665004"/>
     <use style="fill:#8e7100;opacity:0.4;stroke:#8e7100;stroke-linejoin:miter;" x="283.862339" xlink:href="#mbac531a4c3" y="243.061732"/>
     <use style="fill:#8e7100;opacity:0.4;stroke:#8e7100;stroke-linejoin:miter;" x="300.840351" xlink:href="#mbac531a4c3" y="241.267003"/>
    </g>
   </g>
   <g id="line2d_15">
    <path clip-path="url(#p679ce1ac03)" d="M 97.104215 262.986364 
L 101.348718 262.532606 
L 105.593221 262.078848 
L 109.837724 261.62509 
L 114.082227 261.171332 
L 118.32673 260.717574 
L 122.571232 260.263816 
L 126.815735 259.810058 
L 131.060238 259.3563 
L 135.304741 258.902542 
L 139.549244 258.448784 
L 143.793746 257.995026 
L 148.038249 257.541268 
L 152.282752 257.08751 
L 156.527255 256.633752 
L 160.771758 256.179994 
L 165.016261 255.726236 
L 169.260763 255.272478 
L 173.505266 254.81872 
L 177.749769 254.364962 
L 181.994272 253.911204 
L 186.238775 253.457446 
L 190.483277 253.003688 
L 194.72778 252.54993 
L 198.972283 252.096172 
L 203.216786 251.642414 
L 207.461289 251.188656 
L 211.705792 250.734898 
L 215.950294 250.28114 
L 220.194797 249.827382 
L 224.4393 249.373624 
L 228.683803 248.919867 
L 232.928306 248.466109 
L 237.172808 248.012351 
L 241.417311 247.558593 
L 245.661814 247.104835 
L 249.906317 246.651077 
L 254.15082 246.197319 
L 258.395322 245.743561 
L 262.639825 245.289803 
L 266.884328 244.836045 
L 271.128831 244.382287 
L 275.373334 243.928529 
L 279.617837 243.474771 
L 283.862339 243.021013 
L 288.106842 242.567255 
L 292.351345 242.113497 
L 296.595848 241.659739 
L 300.840351 241.205981 
L 305.084853 240.752223 
L 309.329356 240.298465 
" style="fill:none;stroke:#8e7100;stroke-linecap:square;stroke-width:1.5;"/>
   </g>
   <g id="line2d_16">
    <defs>
     <path d="M 0 -5 
L -5 5 
L 5 5 
z
" id="m8d4e938737" style="stroke:#c63900;stroke-linejoin:miter;"/>
    </defs>
    <g clip-path="url(#p679ce1ac03)">
     <use style="fill:#c63900;opacity:0.4;stroke:#c63900;stroke-linejoin:miter;" x="97.104215" xlink:href="#m8d4e938737" y="262.986364"/>
     <use style="fill:#c63900;opacity:0.4;stroke:#c63900;stroke-linejoin:miter;" x="114.082227" xlink:href="#m8d4e938737" y="260.834166"/>
     <use style="fill:#c63900;opacity:0.4;stroke:#c63900;stroke-linejoin:miter;" x="131.060238" xlink:href="#m8d4e938737" y="258.641994"/>
     <use style="fill:#c63900;opacity:0.4;stroke:#c63900;stroke-linejoin:miter;" x="148.038249" xlink:href="#m8d4e938737" y="256.561194"/>
     <use style="fill:#c63900;opacity:0.4;stroke:#c63900;stroke-linejoin:miter;" x="165.016261" xlink:href="#m8d4e938737" y="254.43197"/>
     <use style="fill:#c63900;opacity:0.4;stroke:#c63900;stroke-linejoin:miter;" x="181.994272" xlink:href="#m8d4e938737" y="252.342999"/>
     <use style="fill:#c63900;opacity:0.4;stroke:#c63900;stroke-linejoin:miter;" x="198.972283" xlink:href="#m8d4e938737" y="250.109565"/>
     <use style="fill:#c63900;opacity:0.4;stroke:#c63900;stroke-linejoin:miter;" x="215.950294" xlink:href="#m8d4e938737" y="247.930615"/>
     <use style="fill:#c63900;opacity:0.4;stroke:#c63900;stroke-linejoin:miter;" x="232.928306" xlink:href="#m8d4e938737" y="245.681368"/>
     <use style="fill:#c63900;opacity:0.4;stroke:#c63900;stroke-linejoin:miter;" x="249.906317" xlink:href="#m8d4e938737" y="243.565881"/>
     <use style="fill:#c63900;opacity:0.4;stroke:#c63900;stroke-linejoin:miter;" x="266.884328" xlink:href="#m8d4e938737" y="241.695594"/>
     <use style="fill:#c63900;opacity:0.4;stroke:#c63900;stroke-linejoin:miter;" x="283.862339" xlink:href="#m8d4e938737" y="239.507108"/>
     <use style="fill:#c63900;opacity:0.4;stroke:#c63900;stroke-linejoin:miter;" x="300.840351" xlink:href="#m8d4e938737" y="237.358348"/>
    </g>
   </g>
   <g id="line2d_17">
    <path clip-path="url(#p679ce1ac03)" d="M 97.104215 262.986364 
L 101.348718 262.444969 
L 105.593221 261.903574 
L 109.837724 261.362179 
L 114.082227 260.820784 
L 118.32673 260.279389 
L 122.571232 259.737994 
L 126.815735 259.196599 
L 131.060238 258.655204 
L 135.304741 258.113809 
L 139.549244 257.572414 
L 143.793746 257.031019 
L 148.038249 256.489624 
L 152.282752 255.948229 
L 156.527255 255.406834 
L 160.771758 254.865439 
L 165.016261 254.324044 
L 169.260763 253.782649 
L 173.505266 253.241254 
L 177.749769 252.699859 
L 181.994272 252.158464 
L 186.238775 251.617069 
L 190.483277 251.075674 
L 194.72778 250.534279 
L 198.972283 249.992884 
L 203.216786 249.451489 
L 207.461289 248.910094 
L 211.705792 248.368699 
L 215.950294 247.827305 
L 220.194797 247.28591 
L 224.4393 246.744515 
L 228.683803 246.20312 
L 232.928306 245.661725 
L 237.172808 245.12033 
L 241.417311 244.578935 
L 245.661814 244.03754 
L 249.906317 243.496145 
L 254.15082 242.95475 
L 258.395322 242.413355 
L 262.639825 241.87196 
L 266.884328 241.330565 
L 271.128831 240.78917 
L 275.373334 240.247775 
L 279.617837 239.70638 
L 283.862339 239.164985 
L 288.106842 238.62359 
L 292.351345 238.082195 
L 296.595848 237.5408 
L 300.840351 236.999405 
L 305.084853 236.45801 
L 309.329356 235.916615 
" style="fill:none;stroke:#c63900;stroke-linecap:square;stroke-width:1.5;"/>
   </g>
   <g id="line2d_18">
    <defs>
     <path d="M 0 -5 
L -4.330127 -2.5 
L -4.330127 2.5 
L -0 5 
L 4.330127 2.5 
L 4.330127 -2.5 
z
" id="mb1f7da1f0b" style="stroke:#fe0100;stroke-linejoin:miter;"/>
    </defs>
    <g clip-path="url(#p679ce1ac03)">
     <use style="fill:#fe0100;opacity:0.4;stroke:#fe0100;stroke-linejoin:miter;" x="97.104215" xlink:href="#mb1f7da1f0b" y="262.986364"/>
     <use style="fill:#fe0100;opacity:0.4;stroke:#fe0100;stroke-linejoin:miter;" x="114.082227" xlink:href="#mb1f7da1f0b" y="260.745835"/>
     <use style="fill:#fe0100;opacity:0.4;stroke:#fe0100;stroke-linejoin:miter;" x="131.060238" xlink:href="#mb1f7da1f0b" y="258.496573"/>
     <use style="fill:#fe0100;opacity:0.4;stroke:#fe0100;stroke-linejoin:miter;" x="148.038249" xlink:href="#mb1f7da1f0b" y="256.307287"/>
     <use style="fill:#fe0100;opacity:0.4;stroke:#fe0100;stroke-linejoin:miter;" x="165.016261" xlink:href="#mb1f7da1f0b" y="254.133598"/>
     <use style="fill:#fe0100;opacity:0.4;stroke:#fe0100;stroke-linejoin:miter;" x="181.994272" xlink:href="#mb1f7da1f0b" y="251.840302"/>
     <use style="fill:#fe0100;opacity:0.4;stroke:#fe0100;stroke-linejoin:miter;" x="198.972283" xlink:href="#mb1f7da1f0b" y="249.528998"/>
     <use style="fill:#fe0100;opacity:0.4;stroke:#fe0100;stroke-linejoin:miter;" x="215.950294" xlink:href="#mb1f7da1f0b" y="247.486953"/>
     <use style="fill:#fe0100;opacity:0.4;stroke:#fe0100;stroke-linejoin:miter;" x="232.928306" xlink:href="#mb1f7da1f0b" y="245.248867"/>
     <use style="fill:#fe0100;opacity:0.4;stroke:#fe0100;stroke-linejoin:miter;" x="249.906317" xlink:href="#mb1f7da1f0b" y="242.807685"/>
     <use style="fill:#fe0100;opacity:0.4;stroke:#fe0100;stroke-linejoin:miter;" x="266.884328" xlink:href="#mb1f7da1f0b" y="240.657821"/>
     <use style="fill:#fe0100;opacity:0.4;stroke:#fe0100;stroke-linejoin:miter;" x="283.862339" xlink:href="#mb1f7da1f0b" y="238.508077"/>
     <use style="fill:#fe0100;opacity:0.4;stroke:#fe0100;stroke-linejoin:miter;" x="300.840351" xlink:href="#mb1f7da1f0b" y="236.118876"/>
    </g>
   </g>
   <g id="line2d_19">
    <path clip-path="url(#p679ce1ac03)" d="M 97.104215 262.986364 
L 101.348718 262.423247 
L 105.593221 261.860131 
L 109.837724 261.297014 
L 114.082227 260.733898 
L 118.32673 260.170782 
L 122.571232 259.607665 
L 126.815735 259.044549 
L 131.060238 258.481433 
L 135.304741 257.918316 
L 139.549244 257.3552 
L 143.793746 256.792083 
L 148.038249 256.228967 
L 152.282752 255.665851 
L 156.527255 255.102734 
L 160.771758 254.539618 
L 165.016261 253.976502 
L 169.260763 253.413385 
L 173.505266 252.850269 
L 177.749769 252.287152 
L 181.994272 251.724036 
L 186.238775 251.16092 
L 190.483277 250.597803 
L 194.72778 250.034687 
L 198.972283 249.471571 
L 203.216786 248.908454 
L 207.461289 248.345338 
L 211.705792 247.782221 
L 215.950294 247.219105 
L 220.194797 246.655989 
L 224.4393 246.092872 
L 228.683803 245.529756 
L 232.928306 244.96664 
L 237.172808 244.403523 
L 241.417311 243.840407 
L 245.661814 243.27729 
L 249.906317 242.714174 
L 254.15082 242.151058 
L 258.395322 241.587941 
L 262.639825 241.024825 
L 266.884328 240.461708 
L 271.128831 239.898592 
L 275.373334 239.335476 
L 279.617837 238.772359 
L 283.862339 238.209243 
L 288.106842 237.646127 
L 292.351345 237.08301 
L 296.595848 236.519894 
L 300.840351 235.956777 
L 305.084853 235.393661 
L 309.329356 234.830545 
" style="fill:none;stroke:#fe0100;stroke-linecap:square;stroke-width:1.5;"/>
   </g>
   <g id="line2d_20">
    <defs>
     <path d="M -1.666667 5 
L 1.666667 5 
L 1.666667 1.666667 
L 5 1.666667 
L 5 -1.666667 
L 1.666667 -1.666667 
L 1.666667 -5 
L -1.666667 -5 
L -1.666667 -1.666667 
L -5 -1.666667 
L -5 1.666667 
L -1.666667 1.666667 
z
" id="mee2616d5ef" style="stroke:#c60039;stroke-linejoin:miter;"/>
    </defs>
    <g clip-path="url(#p679ce1ac03)">
     <use style="fill:#c60039;opacity:0.4;stroke:#c60039;stroke-linejoin:miter;" x="97.104215" xlink:href="#mee2616d5ef" y="262.986364"/>
     <use style="fill:#c60039;opacity:0.4;stroke:#c60039;stroke-linejoin:miter;" x="114.082227" xlink:href="#mee2616d5ef" y="260.258573"/>
     <use style="fill:#c60039;opacity:0.4;stroke:#c60039;stroke-linejoin:miter;" x="131.060238" xlink:href="#mee2616d5ef" y="257.554207"/>
     <use style="fill:#c60039;opacity:0.4;stroke:#c60039;stroke-linejoin:miter;" x="148.038249" xlink:href="#mee2616d5ef" y="254.991028"/>
     <use style="fill:#c60039;opacity:0.4;stroke:#c60039;stroke-linejoin:miter;" x="165.016261" xlink:href="#mee2616d5ef" y="252.317547"/>
     <use style="fill:#c60039;opacity:0.4;stroke:#c60039;stroke-linejoin:miter;" x="181.994272" xlink:href="#mee2616d5ef" y="249.485571"/>
     <use style="fill:#c60039;opacity:0.4;stroke:#c60039;stroke-linejoin:miter;" x="198.972283" xlink:href="#mee2616d5ef" y="246.708192"/>
     <use style="fill:#c60039;opacity:0.4;stroke:#c60039;stroke-linejoin:miter;" x="215.950294" xlink:href="#mee2616d5ef" y="244.347872"/>
     <use style="fill:#c60039;opacity:0.4;stroke:#c60039;stroke-linejoin:miter;" x="232.928306" xlink:href="#mee2616d5ef" y="241.626779"/>
     <use style="fill:#c60039;opacity:0.4;stroke:#c60039;stroke-linejoin:miter;" x="249.906317" xlink:href="#mee2616d5ef" y="238.841177"/>
     <use style="fill:#c60039;opacity:0.4;stroke:#c60039;stroke-linejoin:miter;" x="266.884328" xlink:href="#mee2616d5ef" y="236.458776"/>
     <use style="fill:#c60039;opacity:0.4;stroke:#c60039;stroke-linejoin:miter;" x="283.862339" xlink:href="#mee2616d5ef" y="233.708389"/>
     <use style="fill:#c60039;opacity:0.4;stroke:#c60039;stroke-linejoin:miter;" x="300.840351" xlink:href="#mee2616d5ef" y="230.787646"/>
    </g>
   </g>
   <g id="line2d_21">
    <path clip-path="url(#p679ce1ac03)" d="M 97.104215 262.986364 
L 101.348718 262.321808 
L 105.593221 261.657252 
L 109.837724 260.992695 
L 114.082227 260.328139 
L 118.32673 259.663583 
L 122.571232 258.999027 
L 126.815735 258.334471 
L 131.060238 257.669915 
L 135.304741 257.005359 
L 139.549244 256.340803 
L 143.793746 255.676247 
L 148.038249 255.011691 
L 152.282752 254.347135 
L 156.527255 253.682579 
L 160.771758 253.018023 
L 165.016261 252.353467 
L 169.260763 251.688911 
L 173.505266 251.024355 
L 177.749769 250.359799 
L 181.994272 249.695242 
L 186.238775 249.030686 
L 190.483277 248.36613 
L 194.72778 247.701574 
L 198.972283 247.037018 
L 203.216786 246.372462 
L 207.461289 245.707906 
L 211.705792 245.04335 
L 215.950294 244.378794 
L 220.194797 243.714238 
L 224.4393 243.049682 
L 228.683803 242.385126 
L 232.928306 241.72057 
L 237.172808 241.056014 
L 241.417311 240.391458 
L 245.661814 239.726902 
L 249.906317 239.062346 
L 254.15082 238.397789 
L 258.395322 237.733233 
L 262.639825 237.068677 
L 266.884328 236.404121 
L 271.128831 235.739565 
L 275.373334 235.075009 
L 279.617837 234.410453 
L 283.862339 233.745897 
L 288.106842 233.081341 
L 292.351345 232.416785 
L 296.595848 231.752229 
L 300.840351 231.087673 
L 305.084853 230.423117 
L 309.329356 229.758561 
" style="fill:none;stroke:#c60039;stroke-linecap:square;stroke-width:1.5;"/>
   </g>
   <g id="line2d_22">
    <defs>
     <path d="M -0 7.071068 
L 4.242641 0 
L -0 -7.071068 
L -4.242641 -0 
z
" id="mcbf975c930" style="stroke:#8e0071;stroke-linejoin:miter;"/>
    </defs>
    <g clip-path="url(#p679ce1ac03)">
     <use style="fill:#8e0071;opacity:0.4;stroke:#8e0071;stroke-linejoin:miter;" x="97.104215" xlink:href="#mcbf975c930" y="262.986364"/>
     <use style="fill:#8e0071;opacity:0.4;stroke:#8e0071;stroke-linejoin:miter;" x="114.082227" xlink:href="#mcbf975c930" y="254.345191"/>
     <use style="fill:#8e0071;opacity:0.4;stroke:#8e0071;stroke-linejoin:miter;" x="131.060238" xlink:href="#mcbf975c930" y="246.295955"/>
     <use style="fill:#8e0071;opacity:0.4;stroke:#8e0071;stroke-linejoin:miter;" x="148.038249" xlink:href="#mcbf975c930" y="237.170952"/>
     <use style="fill:#8e0071;opacity:0.4;stroke:#8e0071;stroke-linejoin:miter;" x="165.016261" xlink:href="#mcbf975c930" y="228.521515"/>
     <use style="fill:#8e0071;opacity:0.4;stroke:#8e0071;stroke-linejoin:miter;" x="181.994272" xlink:href="#mcbf975c930" y="219.432189"/>
     <use style="fill:#8e0071;opacity:0.4;stroke:#8e0071;stroke-linejoin:miter;" x="198.972283" xlink:href="#mcbf975c930" y="210.296649"/>
     <use style="fill:#8e0071;opacity:0.4;stroke:#8e0071;stroke-linejoin:miter;" x="215.950294" xlink:href="#mcbf975c930" y="201.933236"/>
     <use style="fill:#8e0071;opacity:0.4;stroke:#8e0071;stroke-linejoin:miter;" x="232.928306" xlink:href="#mcbf975c930" y="192.364116"/>
     <use style="fill:#8e0071;opacity:0.4;stroke:#8e0071;stroke-linejoin:miter;" x="249.906317" xlink:href="#mcbf975c930" y="184.106929"/>
     <use style="fill:#8e0071;opacity:0.4;stroke:#8e0071;stroke-linejoin:miter;" x="266.884328" xlink:href="#mcbf975c930" y="175.698963"/>
     <use style="fill:#8e0071;opacity:0.4;stroke:#8e0071;stroke-linejoin:miter;" x="283.862339" xlink:href="#mcbf975c930" y="167.372088"/>
     <use style="fill:#8e0071;opacity:0.4;stroke:#8e0071;stroke-linejoin:miter;" x="300.840351" xlink:href="#mcbf975c930" y="158.14923"/>
    </g>
   </g>
   <g id="line2d_23">
    <path clip-path="url(#p679ce1ac03)" d="M 97.104215 262.986364 
L 101.348718 260.820129 
L 105.593221 258.653894 
L 109.837724 256.48766 
L 114.082227 254.321425 
L 118.32673 252.15519 
L 122.571232 249.988955 
L 126.815735 247.822721 
L 131.060238 245.656486 
L 135.304741 243.490251 
L 139.549244 241.324017 
L 143.793746 239.157782 
L 148.038249 236.991547 
L 152.282752 234.825313 
L 156.527255 232.659078 
L 160.771758 230.492843 
L 165.016261 228.326609 
L 169.260763 226.160374 
L 173.505266 223.994139 
L 177.749769 221.827904 
L 181.994272 219.66167 
L 186.238775 217.495435 
L 190.483277 215.3292 
L 194.72778 213.162966 
L 198.972283 210.996731 
L 203.216786 208.830496 
L 207.461289 206.664262 
L 211.705792 204.498027 
L 215.950294 202.331792 
L 220.194797 200.165557 
L 224.4393 197.999323 
L 228.683803 195.833088 
L 232.928306 193.666853 
L 237.172808 191.500619 
L 241.417311 189.334384 
L 245.661814 187.168149 
L 249.906317 185.001915 
L 254.15082 182.83568 
L 258.395322 180.669445 
L 262.639825 178.503211 
L 266.884328 176.336976 
L 271.128831 174.170741 
L 275.373334 172.004506 
L 279.617837 169.838272 
L 283.862339 167.672037 
L 288.106842 165.505802 
L 292.351345 163.339568 
L 296.595848 161.173333 
L 300.840351 159.007098 
L 305.084853 156.840864 
L 309.329356 154.674629 
" style="fill:none;stroke:#8e0071;stroke-linecap:square;stroke-width:1.5;"/>
   </g>
   <g id="line2d_24">
    <defs>
     <path d="M 0 5 
C 1.326016 5 2.597899 4.473168 3.535534 3.535534 
C 4.473168 2.597899 5 1.326016 5 0 
C 5 -1.326016 4.473168 -2.597899 3.535534 -3.535534 
C 2.597899 -4.473168 1.326016 -5 0 -5 
C -1.326016 -5 -2.597899 -4.473168 -3.535534 -3.535534 
C -4.473168 -2.597899 -5 -1.326016 -5 0 
C -5 1.326016 -4.473168 2.597899 -3.535534 3.535534 
C -2.597899 4.473168 -1.326016 5 0 5 
z
" id="mf60e89e036" style="stroke:#5400ab;"/>
    </defs>
    <g clip-path="url(#p679ce1ac03)">
     <use style="fill:#5400ab;opacity:0.4;stroke:#5400ab;" x="97.104215" xlink:href="#mf60e89e036" y="262.986364"/>
     <use style="fill:#5400ab;opacity:0.4;stroke:#5400ab;" x="114.082227" xlink:href="#mf60e89e036" y="243.651033"/>
     <use style="fill:#5400ab;opacity:0.4;stroke:#5400ab;" x="131.060238" xlink:href="#mf60e89e036" y="223.635103"/>
     <use style="fill:#5400ab;opacity:0.4;stroke:#5400ab;" x="148.038249" xlink:href="#mf60e89e036" y="203.878946"/>
     <use style="fill:#5400ab;opacity:0.4;stroke:#5400ab;" x="165.016261" xlink:href="#mf60e89e036" y="183.916978"/>
     <use style="fill:#5400ab;opacity:0.4;stroke:#5400ab;" x="181.994272" xlink:href="#mf60e89e036" y="164.079468"/>
     <use style="fill:#5400ab;opacity:0.4;stroke:#5400ab;" x="198.972283" xlink:href="#mf60e89e036" y="144.997946"/>
     <use style="fill:#5400ab;opacity:0.4;stroke:#5400ab;" x="215.950294" xlink:href="#mf60e89e036" y="125.174397"/>
     <use style="fill:#5400ab;opacity:0.4;stroke:#5400ab;" x="232.928306" xlink:href="#mf60e89e036" y="105.995978"/>
     <use style="fill:#5400ab;opacity:0.4;stroke:#5400ab;" x="249.906317" xlink:href="#mf60e89e036" y="86.408825"/>
     <use style="fill:#5400ab;opacity:0.4;stroke:#5400ab;" x="266.884328" xlink:href="#mf60e89e036" y="66.070643"/>
     <use style="fill:#5400ab;opacity:0.4;stroke:#5400ab;" x="283.862339" xlink:href="#mf60e89e036" y="47.464764"/>
     <use style="fill:#5400ab;opacity:0.4;stroke:#5400ab;" x="300.840351" xlink:href="#mf60e89e036" y="28.105565"/>
    </g>
   </g>
   <g id="line2d_25">
    <path clip-path="url(#p679ce1ac03)" d="M 97.104215 262.986364 
L 101.348718 258.180909 
L 105.593221 253.375455 
L 109.837724 248.57 
L 114.082227 243.764545 
L 118.32673 238.959091 
L 122.571232 234.153636 
L 126.815735 229.348182 
L 131.060238 224.542727 
L 135.304741 219.737273 
L 139.549244 214.931818 
L 143.793746 210.126364 
L 148.038249 205.320909 
L 152.282752 200.515455 
L 156.527255 195.71 
L 160.771758 190.904545 
L 165.016261 186.099091 
L 169.260763 181.293636 
L 173.505266 176.488182 
L 177.749769 171.682727 
L 181.994272 166.877273 
L 186.238775 162.071818 
L 190.483277 157.266364 
L 194.72778 152.460909 
L 198.972283 147.655455 
L 203.216786 142.85 
L 207.461289 138.044545 
L 211.705792 133.239091 
L 215.950294 128.433636 
L 220.194797 123.628182 
L 224.4393 118.822727 
L 228.683803 114.017273 
L 232.928306 109.211818 
L 237.172808 104.406364 
L 241.417311 99.600909 
L 245.661814 94.795455 
L 249.906317 89.99 
L 254.15082 85.184545 
L 258.395322 80.379091 
L 262.639825 75.573636 
L 266.884328 70.768182 
L 271.128831 65.962727 
L 275.373334 61.157273 
L 279.617837 56.351818 
L 283.862339 51.546364 
L 288.106842 46.740909 
L 292.351345 41.935455 
L 296.595848 37.13 
L 300.840351 32.324545 
L 305.084853 27.519091 
L 309.329356 22.713636 
" style="fill:none;stroke:#5400ab;stroke-linecap:square;stroke-width:1.5;"/>
   </g>
   <g id="line2d_26">
    <defs>
     <path d="M -5 5 
L 5 5 
L 5 -5 
L -5 -5 
z
" id="mc0f82770f6" style="stroke:#1c00e3;stroke-linejoin:miter;"/>
    </defs>
    <g clip-path="url(#p679ce1ac03)">
     <use style="fill:#1c00e3;opacity:0.4;stroke:#1c00e3;stroke-linejoin:miter;" x="97.104215" xlink:href="#mc0f82770f6" y="262.986364"/>
     <use style="fill:#1c00e3;opacity:0.4;stroke:#1c00e3;stroke-linejoin:miter;" x="114.082227" xlink:href="#mc0f82770f6" y="251.374513"/>
     <use style="fill:#1c00e3;opacity:0.4;stroke:#1c00e3;stroke-linejoin:miter;" x="131.060238" xlink:href="#mc0f82770f6" y="239.825706"/>
     <use style="fill:#1c00e3;opacity:0.4;stroke:#1c00e3;stroke-linejoin:miter;" x="148.038249" xlink:href="#mc0f82770f6" y="228.267788"/>
     <use style="fill:#1c00e3;opacity:0.4;stroke:#1c00e3;stroke-linejoin:miter;" x="165.016261" xlink:href="#mc0f82770f6" y="216.369038"/>
     <use style="fill:#1c00e3;opacity:0.4;stroke:#1c00e3;stroke-linejoin:miter;" x="181.994272" xlink:href="#mc0f82770f6" y="203.308049"/>
     <use style="fill:#1c00e3;opacity:0.4;stroke:#1c00e3;stroke-linejoin:miter;" x="198.972283" xlink:href="#mc0f82770f6" y="191.718646"/>
     <use style="fill:#1c00e3;opacity:0.4;stroke:#1c00e3;stroke-linejoin:miter;" x="215.950294" xlink:href="#mc0f82770f6" y="180.030097"/>
     <use style="fill:#1c00e3;opacity:0.4;stroke:#1c00e3;stroke-linejoin:miter;" x="232.928306" xlink:href="#mc0f82770f6" y="168.296546"/>
     <use style="fill:#1c00e3;opacity:0.4;stroke:#1c00e3;stroke-linejoin:miter;" x="249.906317" xlink:href="#mc0f82770f6" y="155.200029"/>
     <use style="fill:#1c00e3;opacity:0.4;stroke:#1c00e3;stroke-linejoin:miter;" x="266.884328" xlink:href="#mc0f82770f6" y="143.949471"/>
     <use style="fill:#1c00e3;opacity:0.4;stroke:#1c00e3;stroke-linejoin:miter;" x="283.862339" xlink:href="#mc0f82770f6" y="132.003214"/>
     <use style="fill:#1c00e3;opacity:0.4;stroke:#1c00e3;stroke-linejoin:miter;" x="300.840351" xlink:href="#mc0f82770f6" y="120.810608"/>
    </g>
   </g>
   <g id="line2d_27">
    <path clip-path="url(#p679ce1ac03)" d="M 97.104215 262.986364 
L 101.348718 260.081036 
L 105.593221 257.175708 
L 109.837724 254.27038 
L 114.082227 251.365053 
L 118.32673 248.459725 
L 122.571232 245.554397 
L 126.815735 242.64907 
L 131.060238 239.743742 
L 135.304741 236.838414 
L 139.549244 233.933086 
L 143.793746 231.027759 
L 148.038249 228.122431 
L 152.282752 225.217103 
L 156.527255 222.311775 
L 160.771758 219.406448 
L 165.016261 216.50112 
L 169.260763 213.595792 
L 173.505266 210.690465 
L 177.749769 207.785137 
L 181.994272 204.879809 
L 186.238775 201.974481 
L 190.483277 199.069154 
L 194.72778 196.163826 
L 198.972283 193.258498 
L 203.216786 190.353171 
L 207.461289 187.447843 
L 211.705792 184.542515 
L 215.950294 181.637187 
L 220.194797 178.73186 
L 224.4393 175.826532 
L 228.683803 172.921204 
L 232.928306 170.015876 
L 237.172808 167.110549 
L 241.417311 164.205221 
L 245.661814 161.299893 
L 249.906317 158.394566 
L 254.15082 155.489238 
L 258.395322 152.58391 
L 262.639825 149.678582 
L 266.884328 146.773255 
L 271.128831 143.867927 
L 275.373334 140.962599 
L 279.617837 138.057271 
L 283.862339 135.151944 
L 288.106842 132.246616 
L 292.351345 129.341288 
L 296.595848 126.435961 
L 300.840351 123.530633 
L 305.084853 120.625305 
L 309.329356 117.719977 
" style="fill:none;stroke:#1c00e3;stroke-linecap:square;stroke-width:1.5;"/>
   </g>
   <g id="patch_3">
    <path d="M 86.492958 275 
L 86.492958 10.7 
" style="fill:none;stroke:#000000;stroke-linecap:square;stroke-linejoin:miter;stroke-width:0.8;"/>
   </g>
   <g id="patch_4">
    <path d="M 319.940613 275 
L 319.940613 10.7 
" style="fill:none;stroke:#000000;stroke-linecap:square;stroke-linejoin:miter;stroke-width:0.8;"/>
   </g>
   <g id="patch_5">
    <path d="M 86.492958 275 
L 319.940613 275 
" style="fill:none;stroke:#000000;stroke-linecap:square;stroke-linejoin:miter;stroke-width:0.8;"/>
   </g>
   <g id="patch_6">
    <path d="M 86.492958 10.7 
L 319.940613 10.7 
" style="fill:none;stroke:#000000;stroke-linecap:square;stroke-linejoin:miter;stroke-width:0.8;"/>
   </g>
   <g id="legend_1">
    <g id="patch_7">
     <path d="M 96.992958 214.67414 
L 197.468341 214.67414 
Q 200.468341 214.67414 200.468341 211.67414 
L 200.468341 21.2 
Q 200.468341 18.2 197.468341 18.2 
L 96.992958 18.2 
Q 93.992958 18.2 93.992958 21.2 
L 93.992958 211.67414 
Q 93.992958 214.67414 96.992958 214.67414 
z
" style="fill:#ffffff;opacity:0.8;stroke:#cccccc;stroke-linejoin:miter;"/>
    </g>
    <g id="line2d_28"/>
    <g id="line2d_29">
     <g>
      <use style="fill:#1ce300;opacity:0.4;stroke:#1ce300;stroke-linejoin:miter;" x="114.992958" xlink:href="#mdc90a77cdb" y="29.59748"/>
     </g>
    </g>
    <g id="text_12">
     <!-- $\delta=$ -5.0 -->
     <defs>
      <path d="M 26 43.671875 
C 13.203125 40.578125 4 27.3125 4 15.640625 
C 4 4.984375 11.203125 -1 19.203125 -1 
C 31 -1 39 15.15625 39 28.40625 
C 39 37.375 34.796875 42.875 32.296875 46.15625 
C 28.59375 50.84375 22.59375 58.53125 22.59375 63.3125 
C 22.59375 65.015625 23.90625 68 28.296875 68 
C 31.40625 68 33.296875 66.90625 36.296875 65.203125 
C 37.203125 64.59375 39.5 63.3125 40.796875 63.3125 
C 42.90625 63.3125 44.40625 65.390625 44.40625 66.984375 
C 44.40625 68.890625 42.90625 69.1875 39.40625 69.984375 
C 34.703125 70.984375 33.296875 70.984375 31.59375 70.984375 
C 29.90625 70.984375 20.09375 70.984375 20.09375 60.8125 
C 20.09375 55.921875 22.59375 50.25 26 43.671875 
z
M 27.09375 41.703125 
C 30.90625 33.828125 32.40625 30.84375 32.40625 24.375 
C 32.40625 16.609375 28.203125 0.984375 19.296875 0.984375 
C 15.40625 0.984375 9.796875 3.578125 9.796875 12.828125 
C 9.796875 19.296875 13.5 38.109375 27.09375 41.703125 
z
" id="CMMI12-14"/>
      <path d="M 64.296875 31.515625 
C 65.796875 31.515625 67.296875 31.515625 67.296875 33.203125 
C 67.296875 35 65.59375 35 63.90625 35 
L 8 35 
C 6.296875 35 4.59375 35 4.59375 33.203125 
C 4.59375 31.515625 6.09375 31.515625 7.59375 31.515625 
z
M 63.90625 14 
C 65.59375 14 67.296875 14 67.296875 15.796875 
C 67.296875 17.484375 65.796875 17.484375 64.296875 17.484375 
L 7.59375 17.484375 
C 6.09375 17.484375 4.59375 17.484375 4.59375 15.796875 
C 4.59375 14 6.296875 14 8 14 
z
" id="CMR17-61"/>
      <path d="M 28.40625 31.203125 
L 4.59375 31.203125 
L 4.59375 24 
L 28.40625 24 
z
" id="Nimbus_Sans_L_Regular-45"/>
     </defs>
     <g transform="translate(141.992958 34.84748)scale(0.15 -0.15)">
      <use transform="scale(0.996264)" xlink:href="#CMMI12-14"/>
      <use transform="translate(74.615395 0)scale(0.996264)" xlink:href="#CMR17-61"/>
      <use transform="translate(174.025353 0)scale(0.996264)" xlink:href="#Nimbus_Sans_L_Regular-45"/>
      <use transform="translate(207.200583 0)scale(0.996264)" xlink:href="#Nimbus_Sans_L_Regular-53"/>
      <use transform="translate(262.59226 0)scale(0.996264)" xlink:href="#Nimbus_Sans_L_Regular-46"/>
      <use transform="translate(290.287429 0)scale(0.996264)" xlink:href="#Nimbus_Sans_L_Regular-48"/>
     </g>
    </g>
    <g id="line2d_30"/>
    <g id="line2d_31">
     <g>
      <use style="fill:#54ab00;opacity:0.4;stroke:#54ab00;" x="114.992958" xlink:href="#m7bd9b8ebda" y="50.92794"/>
     </g>
    </g>
    <g id="text_13">
     <!-- $\delta=$ -1.0 -->
     <g transform="translate(141.992958 56.17794)scale(0.15 -0.15)">
      <use transform="scale(0.996264)" xlink:href="#CMMI12-14"/>
      <use transform="translate(74.615395 0)scale(0.996264)" xlink:href="#CMR17-61"/>
      <use transform="translate(174.025353 0)scale(0.996264)" xlink:href="#Nimbus_Sans_L_Regular-45"/>
      <use transform="translate(207.200583 0)scale(0.996264)" xlink:href="#Nimbus_Sans_L_Regular-49"/>
      <use transform="translate(262.59226 0)scale(0.996264)" xlink:href="#Nimbus_Sans_L_Regular-46"/>
      <use transform="translate(290.287429 0)scale(0.996264)" xlink:href="#Nimbus_Sans_L_Regular-48"/>
     </g>
    </g>
    <g id="line2d_32"/>
    <g id="line2d_33">
     <g>
      <use style="fill:#8e7100;opacity:0.4;stroke:#8e7100;stroke-linejoin:miter;" x="114.992958" xlink:href="#mbac531a4c3" y="72.2584"/>
     </g>
    </g>
    <g id="text_14">
     <!-- $\delta=$ -0.1 -->
     <g transform="translate(141.992958 77.5084)scale(0.15 -0.15)">
      <use transform="scale(0.996264)" xlink:href="#CMMI12-14"/>
      <use transform="translate(74.615395 0)scale(0.996264)" xlink:href="#CMR17-61"/>
      <use transform="translate(174.025353 0)scale(0.996264)" xlink:href="#Nimbus_Sans_L_Regular-45"/>
      <use transform="translate(207.200583 0)scale(0.996264)" xlink:href="#Nimbus_Sans_L_Regular-48"/>
      <use transform="translate(262.59226 0)scale(0.996264)" xlink:href="#Nimbus_Sans_L_Regular-46"/>
      <use transform="translate(290.287429 0)scale(0.996264)" xlink:href="#Nimbus_Sans_L_Regular-49"/>
     </g>
    </g>
    <g id="line2d_34"/>
    <g id="line2d_35">
     <g>
      <use style="fill:#c63900;opacity:0.4;stroke:#c63900;stroke-linejoin:miter;" x="114.992958" xlink:href="#m8d4e938737" y="93.58886"/>
     </g>
    </g>
    <g id="text_15">
     <!-- $\delta=$ -0.0 -->
     <g transform="translate(141.992958 98.83886)scale(0.15 -0.15)">
      <use transform="scale(0.996264)" xlink:href="#CMMI12-14"/>
      <use transform="translate(74.615395 0)scale(0.996264)" xlink:href="#CMR17-61"/>
      <use transform="translate(174.025353 0)scale(0.996264)" xlink:href="#Nimbus_Sans_L_Regular-45"/>
      <use transform="translate(207.200583 0)scale(0.996264)" xlink:href="#Nimbus_Sans_L_Regular-48"/>
      <use transform="translate(262.59226 0)scale(0.996264)" xlink:href="#Nimbus_Sans_L_Regular-46"/>
      <use transform="translate(290.287429 0)scale(0.996264)" xlink:href="#Nimbus_Sans_L_Regular-48"/>
     </g>
    </g>
    <g id="line2d_36"/>
    <g id="line2d_37">
     <g>
      <use style="fill:#fe0100;opacity:0.4;stroke:#fe0100;stroke-linejoin:miter;" x="114.992958" xlink:href="#mb1f7da1f0b" y="114.91932"/>
     </g>
    </g>
    <g id="text_16">
     <!-- $\delta=$ 0.0 -->
     <g transform="translate(141.992958 120.16932)scale(0.15 -0.15)">
      <use transform="scale(0.996264)" xlink:href="#CMMI12-14"/>
      <use transform="translate(74.615395 0)scale(0.996264)" xlink:href="#CMR17-61"/>
      <use transform="translate(174.025353 0)scale(0.996264)" xlink:href="#Nimbus_Sans_L_Regular-48"/>
      <use transform="translate(229.41703 0)scale(0.996264)" xlink:href="#Nimbus_Sans_L_Regular-46"/>
      <use transform="translate(257.112199 0)scale(0.996264)" xlink:href="#Nimbus_Sans_L_Regular-48"/>
     </g>
    </g>
    <g id="line2d_38"/>
    <g id="line2d_39">
     <g>
      <use style="fill:#c60039;opacity:0.4;stroke:#c60039;stroke-linejoin:miter;" x="114.992958" xlink:href="#mee2616d5ef" y="136.24978"/>
     </g>
    </g>
    <g id="text_17">
     <!-- $\delta=$ 0.1 -->
     <g transform="translate(141.992958 141.49978)scale(0.15 -0.15)">
      <use transform="scale(0.996264)" xlink:href="#CMMI12-14"/>
      <use transform="translate(74.615395 0)scale(0.996264)" xlink:href="#CMR17-61"/>
      <use transform="translate(174.025353 0)scale(0.996264)" xlink:href="#Nimbus_Sans_L_Regular-48"/>
      <use transform="translate(229.41703 0)scale(0.996264)" xlink:href="#Nimbus_Sans_L_Regular-46"/>
      <use transform="translate(257.112199 0)scale(0.996264)" xlink:href="#Nimbus_Sans_L_Regular-49"/>
     </g>
    </g>
    <g id="line2d_40"/>
    <g id="line2d_41">
     <g>
      <use style="fill:#8e0071;opacity:0.4;stroke:#8e0071;stroke-linejoin:miter;" x="114.992958" xlink:href="#mcbf975c930" y="157.58024"/>
     </g>
    </g>
    <g id="text_18">
     <!-- $\delta=$ 1.0 -->
     <g transform="translate(141.992958 162.83024)scale(0.15 -0.15)">
      <use transform="scale(0.996264)" xlink:href="#CMMI12-14"/>
      <use transform="translate(74.615395 0)scale(0.996264)" xlink:href="#CMR17-61"/>
      <use transform="translate(174.025353 0)scale(0.996264)" xlink:href="#Nimbus_Sans_L_Regular-49"/>
      <use transform="translate(229.41703 0)scale(0.996264)" xlink:href="#Nimbus_Sans_L_Regular-46"/>
      <use transform="translate(257.112199 0)scale(0.996264)" xlink:href="#Nimbus_Sans_L_Regular-48"/>
     </g>
    </g>
    <g id="line2d_42"/>
    <g id="line2d_43">
     <g>
      <use style="fill:#5400ab;opacity:0.4;stroke:#5400ab;" x="114.992958" xlink:href="#mf60e89e036" y="178.9107"/>
     </g>
    </g>
    <g id="text_19">
     <!-- $\delta=$ 1.5 -->
     <g transform="translate(141.992958 184.1607)scale(0.15 -0.15)">
      <use transform="scale(0.996264)" xlink:href="#CMMI12-14"/>
      <use transform="translate(74.615395 0)scale(0.996264)" xlink:href="#CMR17-61"/>
      <use transform="translate(174.025353 0)scale(0.996264)" xlink:href="#Nimbus_Sans_L_Regular-49"/>
      <use transform="translate(229.41703 0)scale(0.996264)" xlink:href="#Nimbus_Sans_L_Regular-46"/>
      <use transform="translate(257.112199 0)scale(0.996264)" xlink:href="#Nimbus_Sans_L_Regular-53"/>
     </g>
    </g>
    <g id="line2d_44"/>
    <g id="line2d_45">
     <g>
      <use style="fill:#1c00e3;opacity:0.4;stroke:#1c00e3;stroke-linejoin:miter;" x="114.992958" xlink:href="#mc0f82770f6" y="200.24116"/>
     </g>
    </g>
    <g id="text_20">
     <!-- $\delta=$ 2.0 -->
     <g transform="translate(141.992958 205.49116)scale(0.15 -0.15)">
      <use transform="scale(0.996264)" xlink:href="#CMMI12-14"/>
      <use transform="translate(74.615395 0)scale(0.996264)" xlink:href="#CMR17-61"/>
      <use transform="translate(174.025353 0)scale(0.996264)" xlink:href="#Nimbus_Sans_L_Regular-50"/>
      <use transform="translate(229.41703 0)scale(0.996264)" xlink:href="#Nimbus_Sans_L_Regular-46"/>
      <use transform="translate(257.112199 0)scale(0.996264)" xlink:href="#Nimbus_Sans_L_Regular-48"/>
     </g>
    </g>
   </g>
  </g>
 </g>
 <defs>
  <clipPath id="p679ce1ac03">
   <rect height="264.3" width="233.447655" x="86.492958" y="10.7"/>
  </clipPath>
 </defs>
</svg>
