<?xml version="1.0" encoding="utf-8" standalone="no"?>
<!DOCTYPE svg PUBLIC "-//W3C//DTD SVG 1.1//EN"
  "http://www.w3.org/Graphics/SVG/1.1/DTD/svg11.dtd">
<!-- Created with matplotlib (http://matplotlib.org/) -->
<svg height="330.449961pt" version="1.1" viewBox="0 0 330.640613 330.449961" width="330.640613pt" xmlns="http://www.w3.org/2000/svg" xmlns:xlink="http://www.w3.org/1999/xlink">
 <defs>
  <style type="text/css">
*{stroke-linecap:butt;stroke-linejoin:round;}
  </style>
 </defs>
 <g id="figure_1">
  <g id="patch_1">
   <path d="M 0 330.449961 
L 330.640613 330.449961 
L 330.640613 0 
L 0 0 
z
" style="fill:#ffffff;"/>
  </g>
  <g id="axes_1">
   <g id="patch_2">
    <path d="M 78.61243 275 
L 319.940613 275 
L 319.940613 10.7 
L 78.61243 10.7 
z
" style="fill:#ffffff;"/>
   </g>
   <g id="matplotlib.axis_1">
    <g id="xtick_1">
     <g id="line2d_1">
      <defs>
       <path d="M 0 0 
L 0 3.5 
" id="m407de53a9d" style="stroke:#000000;stroke-width:0.8;"/>
      </defs>
      <g>
       <use style="stroke:#000000;stroke-width:0.8;" x="89.581893" xlink:href="#m407de53a9d" y="275"/>
      </g>
     </g>
     <g id="text_1">
      <!-- $0$ -->
      <defs>
       <path d="M 42 31.640625 
C 42 37.75 41.90625 48.125 37.703125 56.109375 
C 34 63.109375 28.09375 65.59375 22.90625 65.59375 
C 18.09375 65.59375 12 63.40625 8.203125 56.203125 
C 4.203125 48.71875 3.796875 39.4375 3.796875 31.640625 
C 3.796875 25.953125 3.90625 17.28125 7 9.671875 
C 11.296875 -0.609375 19 -2 22.90625 -2 
C 27.5 -2 34.5 -0.109375 38.59375 9.375 
C 41.59375 16.28125 42 24.359375 42 31.640625 
z
M 22.90625 -0.40625 
C 16.5 -0.40625 12.703125 5.078125 11.296875 12.6875 
C 10.203125 18.5625 10.203125 27.15625 10.203125 32.75 
C 10.203125 40.4375 10.203125 46.828125 11.5 52.921875 
C 13.40625 61.390625 19 64 22.90625 64 
C 27 64 32.296875 61.296875 34.203125 53.125 
C 35.5 47.4375 35.59375 40.734375 35.59375 32.75 
C 35.59375 26.25 35.59375 18.265625 34.40625 12.375 
C 32.296875 1.484375 26.40625 -0.40625 22.90625 -0.40625 
z
" id="CMR17-48"/>
      </defs>
      <g transform="translate(85.012846 296.196641)scale(0.2 -0.2)">
       <use transform="scale(0.996264)" xlink:href="#CMR17-48"/>
      </g>
     </g>
    </g>
    <g id="xtick_2">
     <g id="line2d_2">
      <g>
       <use style="stroke:#000000;stroke-width:0.8;" x="177.337596" xlink:href="#m407de53a9d" y="275"/>
      </g>
     </g>
     <g id="text_2">
      <!-- $200$ -->
      <defs>
       <path d="M 41.703125 15.453125 
L 39.90625 15.453125 
C 38.90625 8.375 38.09375 7.171875 37.703125 6.5625 
C 37.203125 5.765625 30 5.765625 28.59375 5.765625 
L 9.40625 5.765625 
C 13 9.671875 20 16.75 28.5 24.953125 
C 34.59375 30.734375 41.703125 37.53125 41.703125 47.421875 
C 41.703125 59.21875 32.296875 66 21.796875 66 
C 10.796875 66 4.09375 56.3125 4.09375 47.34375 
C 4.09375 43.4375 7 42.9375 8.203125 42.9375 
C 9.203125 42.9375 12.203125 43.546875 12.203125 47.03125 
C 12.203125 50.109375 9.59375 51 8.203125 51 
C 7.59375 51 7 50.90625 6.59375 50.703125 
C 8.5 59.21875 14.296875 63.40625 20.40625 63.40625 
C 29.09375 63.40625 34.796875 56.515625 34.796875 47.421875 
C 34.796875 38.734375 29.703125 31.25 24 24.75 
L 4.09375 2.28125 
L 4.09375 0 
L 39.296875 0 
z
" id="CMR17-50"/>
      </defs>
      <g transform="translate(163.630453 296.196641)scale(0.2 -0.2)">
       <use transform="scale(0.996264)" xlink:href="#CMR17-50"/>
       <use transform="translate(45.690477 0)scale(0.996264)" xlink:href="#CMR17-48"/>
       <use transform="translate(91.380954 0)scale(0.996264)" xlink:href="#CMR17-48"/>
      </g>
     </g>
    </g>
    <g id="xtick_3">
     <g id="line2d_3">
      <g>
       <use style="stroke:#000000;stroke-width:0.8;" x="265.093299" xlink:href="#m407de53a9d" y="275"/>
      </g>
     </g>
     <g id="text_3">
      <!-- $400$ -->
      <defs>
       <path d="M 33.59375 64.40625 
C 33.59375 66.5 33.5 66.5 31.703125 66.5 
L 2 19.59375 
L 2 17 
L 27.796875 17 
L 27.796875 7.140625 
C 27.796875 3.5 27.59375 2.5 20.59375 2.5 
L 18.703125 2.5 
L 18.703125 0 
C 21.90625 0 27.296875 0 30.703125 0 
C 34.09375 0 39.5 0 42.703125 0 
L 42.703125 2.5 
L 40.796875 2.5 
C 33.796875 2.5 33.59375 3.5 33.59375 7.140625 
L 33.59375 17 
L 43.796875 17 
L 43.796875 19.59375 
L 33.59375 19.59375 
z
M 28.09375 57.859375 
L 28.09375 19.59375 
L 4 19.59375 
z
" id="CMR17-52"/>
      </defs>
      <g transform="translate(251.386156 296.196641)scale(0.2 -0.2)">
       <use transform="scale(0.996264)" xlink:href="#CMR17-52"/>
       <use transform="translate(45.690477 0)scale(0.996264)" xlink:href="#CMR17-48"/>
       <use transform="translate(91.380954 0)scale(0.996264)" xlink:href="#CMR17-48"/>
      </g>
     </g>
    </g>
    <g id="text_4">
     <!-- Time (days) -->
     <defs>
      <path d="M 35.40625 64.78125 
L 59.296875 64.78125 
L 59.296875 73 
L 2.09375 73 
L 2.09375 64.78125 
L 26.09375 64.78125 
L 26.09375 -0.21875 
L 35.40625 -0.21875 
z
" id="Nimbus_Sans_L_Regular-84"/>
      <path d="M 15 52.484375 
L 6.703125 52.484375 
L 6.703125 0 
L 15 0 
z
M 15 73 
L 6.59375 73 
L 6.59375 62.484375 
L 15 62.484375 
z
" id="Nimbus_Sans_L_Regular-105"/>
      <path d="M 7 52.484375 
L 7 0 
L 15.40625 0 
L 15.40625 32.953125 
C 15.40625 40.578125 20.90625 46.6875 27.703125 46.6875 
C 33.90625 46.6875 37.40625 42.875 37.40625 36.15625 
L 37.40625 0 
L 45.796875 0 
L 45.796875 32.953125 
C 45.796875 40.578125 51.296875 46.6875 58.09375 46.6875 
C 64.203125 46.6875 67.796875 42.78125 67.796875 36.15625 
L 67.796875 0 
L 76.203125 0 
L 76.203125 39.375 
C 76.203125 48.78125 70.796875 54 61 54 
C 54 54 49.796875 51.890625 44.90625 45.984375 
C 41.796875 51.59375 37.59375 54 30.796875 54 
C 23.796875 54 19.203125 51.390625 14.703125 45.078125 
L 14.703125 52.484375 
z
" id="Nimbus_Sans_L_Regular-109"/>
      <path d="M 51.296875 23.890625 
C 51.296875 31.78125 50.703125 36.53125 49.203125 40.375 
C 45.796875 48.859375 37.796875 54 28 54 
C 13.40625 54 4 42.84375 4 25.703125 
C 4 8.546875 13.09375 -2 27.796875 -2 
C 39.796875 -2 48.09375 4.84375 50.203125 16.3125 
L 41.796875 16.3125 
C 39.5 9.34375 34.796875 5.703125 28.09375 5.703125 
C 22.796875 5.703125 18.296875 8.125 15.5 12.578125 
C 13.5 15.59375 12.796875 18.640625 12.703125 23.890625 
z
M 12.90625 31 
C 13.59375 40.265625 19.5 46.28125 27.90625 46.28125 
C 36.09375 46.28125 42.40625 39.53125 42.40625 31 
C 42.40625 31 42.40625 31 42.296875 31 
z
" id="Nimbus_Sans_L_Regular-101"/>
      <path d="M 23.59375 73 
C 13.59375 59.84375 7.296875 41.5625 7.296875 25.796875 
C 7.296875 9.9375 13.59375 -8.34375 23.59375 -21.5 
L 29.09375 -21.5 
C 20.296875 -7.140625 15.40625 9.734375 15.40625 25.796875 
C 15.40625 41.765625 20.296875 58.734375 29.09375 73 
z
" id="Nimbus_Sans_L_Regular-40"/>
      <path d="M 49.5 73 
L 41.203125 73 
L 41.203125 45.890625 
C 37.703125 51.1875 32.09375 54 25.09375 54 
C 11.5 54 2.59375 43.140625 2.59375 26.484375 
C 2.59375 8.84375 11.296875 -2 25.40625 -2 
C 32.59375 -2 37.59375 0.703125 42.09375 7.203125 
L 42.09375 -0.03125 
L 49.5 -0.03125 
z
M 26.5 46.1875 
C 35.5 46.1875 41.203125 38.234375 41.203125 25.796875 
C 41.203125 13.765625 35.40625 5.8125 26.59375 5.8125 
C 17.40625 5.8125 11.296875 13.859375 11.296875 26 
C 11.296875 38.125 17.40625 46.1875 26.5 46.1875 
z
" id="Nimbus_Sans_L_Regular-100"/>
      <path d="M 53.5 5.203125 
C 52.59375 5 52.203125 5 51.703125 5 
C 48.796875 5 47.203125 6.484375 47.203125 9.078125 
L 47.203125 39.765625 
C 47.203125 49.015625 40.40625 54 27.5 54 
C 19.90625 54 13.59375 51.8125 10.09375 47.90625 
C 7.703125 45.203125 6.703125 42.21875 6.5 37.03125 
L 14.90625 37.03125 
C 15.59375 43.390625 19.40625 46.28125 27.203125 46.28125 
C 34.703125 46.28125 38.90625 43.484375 38.90625 38.515625 
L 38.90625 36.328125 
C 38.90625 32.828125 36.796875 31.34375 30.203125 30.546875 
C 18.40625 29.0625 16.59375 28.65625 13.40625 27.359375 
C 7.296875 24.875 4.203125 20.1875 4.203125 13.421875 
C 4.203125 3.96875 10.796875 -2 21.40625 -2 
C 28 -2 33.296875 0.296875 39.203125 5.703125 
C 39.796875 0.390625 42.40625 -2 47.796875 -2 
C 49.5 -2 50.796875 -1.8125 53.5 -1.09375 
z
M 38.90625 16.75 
C 38.90625 13.953125 38.09375 12.265625 35.59375 9.984375 
C 32.203125 6.890625 28.09375 5.3125 23.203125 5.3125 
C 16.703125 5.3125 12.90625 8.390625 12.90625 13.65625 
C 12.90625 19.140625 16.59375 21.921875 25.5 23.21875 
C 34.296875 24.40625 36.09375 24.8125 38.90625 26.09375 
z
" id="Nimbus_Sans_L_Regular-97"/>
      <path d="M 38.796875 52.5 
L 24.296875 11.53125 
L 10.90625 52.5 
L 2 52.5 
L 19.703125 -0.328125 
L 16.5 -8.65625 
C 15.203125 -12.375 13.296875 -13.78125 9.796875 -13.78125 
C 8.59375 -13.78125 7.203125 -13.578125 5.40625 -13.171875 
L 5.40625 -20.703125 
C 7.09375 -21.59375 8.796875 -22 11 -22 
C 13.703125 -22 16.59375 -21.09375 18.796875 -19.484375 
C 21.40625 -17.578125 22.90625 -15.359375 24.5 -11.140625 
L 47.796875 52.5 
z
" id="Nimbus_Sans_L_Regular-121"/>
      <path d="M 43.796875 37.921875 
C 43.703125 48.203125 36.90625 54 24.796875 54 
C 12.59375 54 4.703125 47.71875 4.703125 38.0625 
C 4.703125 29.890625 8.90625 26.015625 21.296875 23.03125 
L 29.09375 21.140625 
C 34.90625 19.734375 37.203125 17.65625 37.203125 13.875 
C 37.203125 9 32.296875 5.703125 25 5.703125 
C 20.5 5.703125 16.703125 7 14.59375 9.1875 
C 13.296875 10.6875 12.703125 12.171875 12.203125 15.84375 
L 3.40625 15.84375 
C 3.796875 3.765625 10.59375 -2 24.296875 -2 
C 37.5 -2 45.90625 4.453125 45.90625 14.515625 
C 45.90625 22.28125 41.5 26.578125 31.09375 29.0625 
L 23.09375 30.953125 
C 16.296875 32.53125 13.40625 34.734375 13.40625 38.40625 
C 13.40625 43.1875 17.703125 46.28125 24.5 46.28125 
C 31.203125 46.28125 34.796875 43.390625 35 37.921875 
z
" id="Nimbus_Sans_L_Regular-115"/>
      <path d="M 9.296875 -21.5 
C 19.296875 -8.34375 25.59375 9.9375 25.59375 25.6875 
C 25.59375 41.5625 19.296875 59.84375 9.296875 73 
L 3.796875 73 
C 12.59375 58.640625 17.5 41.765625 17.5 25.6875 
C 17.5 9.734375 12.59375 -7.25 3.796875 -21.5 
z
" id="Nimbus_Sans_L_Regular-41"/>
     </defs>
     <g transform="translate(146.992963 319.005988)scale(0.2 -0.2)">
      <use transform="scale(0.996264)" xlink:href="#Nimbus_Sans_L_Regular-84"/>
      <use transform="translate(60.871631 0)scale(0.996264)" xlink:href="#Nimbus_Sans_L_Regular-105"/>
      <use transform="translate(82.988415 0)scale(0.996264)" xlink:href="#Nimbus_Sans_L_Regular-109"/>
      <use transform="translate(165.976845 0)scale(0.996264)" xlink:href="#Nimbus_Sans_L_Regular-101"/>
      <use transform="translate(249.063692 0)scale(0.996264)" xlink:href="#Nimbus_Sans_L_Regular-40"/>
      <use transform="translate(282.238922 0)scale(0.996264)" xlink:href="#Nimbus_Sans_L_Regular-100"/>
      <use transform="translate(337.630599 0)scale(0.996264)" xlink:href="#Nimbus_Sans_L_Regular-97"/>
      <use transform="translate(390.034168 0)scale(0.996264)" xlink:href="#Nimbus_Sans_L_Regular-121"/>
      <use transform="translate(439.847368 0)scale(0.996264)" xlink:href="#Nimbus_Sans_L_Regular-115"/>
      <use transform="translate(489.660569 0)scale(0.996264)" xlink:href="#Nimbus_Sans_L_Regular-41"/>
     </g>
    </g>
   </g>
   <g id="matplotlib.axis_2">
    <g id="ytick_1">
     <g id="line2d_4">
      <defs>
       <path d="M 0 0 
L -3.5 0 
" id="m600e11c30b" style="stroke:#000000;stroke-width:0.8;"/>
      </defs>
      <g>
       <use style="stroke:#000000;stroke-width:0.8;" x="78.61243" xlink:href="#m600e11c30b" y="262.986364"/>
      </g>
     </g>
     <g id="text_5">
      <!-- $0.000$ -->
      <defs>
       <path d="M 18.40625 4.796875 
C 18.40625 7.6875 16 9.671875 13.59375 9.671875 
C 10.703125 9.671875 8.703125 7.28125 8.703125 4.890625 
C 8.703125 2 11.09375 0 13.5 0 
C 16.40625 0 18.40625 2.390625 18.40625 4.796875 
z
" id="CMMI12-58"/>
      </defs>
      <g transform="translate(29.640613 270.084684)scale(0.2 -0.2)">
       <use transform="scale(0.996264)" xlink:href="#CMR17-48"/>
       <use transform="translate(45.690477 0)scale(0.996264)" xlink:href="#CMMI12-58"/>
       <use transform="translate(72.787654 0)scale(0.996264)" xlink:href="#CMR17-48"/>
       <use transform="translate(118.478131 0)scale(0.996264)" xlink:href="#CMR17-48"/>
       <use transform="translate(164.168608 0)scale(0.996264)" xlink:href="#CMR17-48"/>
      </g>
     </g>
    </g>
    <g id="ytick_2">
     <g id="line2d_5">
      <g>
       <use style="stroke:#000000;stroke-width:0.8;" x="78.61243" xlink:href="#m600e11c30b" y="216.423039"/>
      </g>
     </g>
     <g id="text_6">
      <!-- $0.001$ -->
      <defs>
       <path d="M 26.59375 63.40625 
C 26.59375 65.5 26.5 65.5 25.09375 65.5 
C 21.203125 61.1875 15.296875 59.796875 9.703125 59.796875 
C 9.40625 59.796875 8.90625 59.796875 8.796875 59.5 
C 8.703125 59.296875 8.703125 59.09375 8.703125 57 
C 11.796875 57 17 57.59375 21 59.984375 
L 21 7.203125 
C 21 3.6875 20.796875 2.5 12.203125 2.5 
L 9.203125 2.5 
L 9.203125 0 
C 14 0 19 0 23.796875 0 
C 28.59375 0 33.59375 0 38.40625 0 
L 38.40625 2.5 
L 35.40625 2.5 
C 26.796875 2.5 26.59375 3.59375 26.59375 7.15625 
z
" id="CMR17-49"/>
      </defs>
      <g transform="translate(29.640613 223.52136)scale(0.2 -0.2)">
       <use transform="scale(0.996264)" xlink:href="#CMR17-48"/>
       <use transform="translate(45.690477 0)scale(0.996264)" xlink:href="#CMMI12-58"/>
       <use transform="translate(72.787654 0)scale(0.996264)" xlink:href="#CMR17-48"/>
       <use transform="translate(118.478131 0)scale(0.996264)" xlink:href="#CMR17-48"/>
       <use transform="translate(164.168608 0)scale(0.996264)" xlink:href="#CMR17-49"/>
      </g>
     </g>
    </g>
    <g id="ytick_3">
     <g id="line2d_6">
      <g>
       <use style="stroke:#000000;stroke-width:0.8;" x="78.61243" xlink:href="#m600e11c30b" y="169.859715"/>
      </g>
     </g>
     <g id="text_7">
      <!-- $0.002$ -->
      <g transform="translate(29.640613 176.958035)scale(0.2 -0.2)">
       <use transform="scale(0.996264)" xlink:href="#CMR17-48"/>
       <use transform="translate(45.690477 0)scale(0.996264)" xlink:href="#CMMI12-58"/>
       <use transform="translate(72.787654 0)scale(0.996264)" xlink:href="#CMR17-48"/>
       <use transform="translate(118.478131 0)scale(0.996264)" xlink:href="#CMR17-48"/>
       <use transform="translate(164.168608 0)scale(0.996264)" xlink:href="#CMR17-50"/>
      </g>
     </g>
    </g>
    <g id="ytick_4">
     <g id="line2d_7">
      <g>
       <use style="stroke:#000000;stroke-width:0.8;" x="78.61243" xlink:href="#m600e11c30b" y="123.296391"/>
      </g>
     </g>
     <g id="text_8">
      <!-- $0.003$ -->
      <defs>
       <path d="M 22.09375 33.703125 
C 31 33.703125 34.90625 25.96875 34.90625 17.03125 
C 34.90625 5 28.5 0.390625 22.703125 0.390625 
C 17.40625 0.390625 8.796875 3.03125 6.09375 10.828125 
C 6.59375 10.625 7.09375 10.625 7.59375 10.625 
C 10 10.625 11.796875 12.21875 11.796875 14.8125 
C 11.796875 17.703125 9.59375 19 7.59375 19 
C 5.90625 19 3.296875 18.203125 3.296875 14.46875 
C 3.296875 5.234375 12.296875 -2 22.90625 -2 
C 34 -2 42.5 6.71875 42.5 16.953125 
C 42.5 26.671875 34.5 33.703125 25 34.796875 
C 32.59375 36.375 39.90625 43.0625 39.90625 52.015625 
C 39.90625 59.6875 32 65.296875 23 65.296875 
C 13.90625 65.296875 5.90625 59.828125 5.90625 52.015625 
C 5.90625 48.59375 8.5 48 9.796875 48 
C 11.90625 48 13.703125 49.296875 13.703125 51.890625 
C 13.703125 54.46875 11.90625 55.765625 9.796875 55.765625 
C 9.40625 55.765625 8.90625 55.765625 8.5 55.578125 
C 11.40625 61.859375 19.296875 63 22.796875 63 
C 26.296875 63 32.90625 61.328125 32.90625 51.875 
C 32.90625 49.109375 32.5 44.1875 29.09375 39.84375 
C 26.09375 36 22.703125 36 19.40625 35.6875 
C 18.90625 35.6875 16.59375 35.453125 16.203125 35.453125 
C 15.5 35.359375 15.09375 35.265625 15.09375 34.5 
C 15.09375 33.796875 15.203125 33.703125 17.203125 33.703125 
z
" id="CMR17-51"/>
      </defs>
      <g transform="translate(29.640613 130.394711)scale(0.2 -0.2)">
       <use transform="scale(0.996264)" xlink:href="#CMR17-48"/>
       <use transform="translate(45.690477 0)scale(0.996264)" xlink:href="#CMMI12-58"/>
       <use transform="translate(72.787654 0)scale(0.996264)" xlink:href="#CMR17-48"/>
       <use transform="translate(118.478131 0)scale(0.996264)" xlink:href="#CMR17-48"/>
       <use transform="translate(164.168608 0)scale(0.996264)" xlink:href="#CMR17-51"/>
      </g>
     </g>
    </g>
    <g id="ytick_5">
     <g id="line2d_8">
      <g>
       <use style="stroke:#000000;stroke-width:0.8;" x="78.61243" xlink:href="#m600e11c30b" y="76.733067"/>
      </g>
     </g>
     <g id="text_9">
      <!-- $0.004$ -->
      <g transform="translate(29.640613 83.831387)scale(0.2 -0.2)">
       <use transform="scale(0.996264)" xlink:href="#CMR17-48"/>
       <use transform="translate(45.690477 0)scale(0.996264)" xlink:href="#CMMI12-58"/>
       <use transform="translate(72.787654 0)scale(0.996264)" xlink:href="#CMR17-48"/>
       <use transform="translate(118.478131 0)scale(0.996264)" xlink:href="#CMR17-48"/>
       <use transform="translate(164.168608 0)scale(0.996264)" xlink:href="#CMR17-52"/>
      </g>
     </g>
    </g>
    <g id="ytick_6">
     <g id="line2d_9">
      <g>
       <use style="stroke:#000000;stroke-width:0.8;" x="78.61243" xlink:href="#m600e11c30b" y="30.169743"/>
      </g>
     </g>
     <g id="text_10">
      <!-- $0.005$ -->
      <defs>
       <path d="M 11.40625 57.6875 
C 12.40625 57.28125 16.5 56 20.703125 56 
C 30 56 35.09375 61.109375 38 64.0625 
C 38 64.953125 38 65.5 37.40625 65.5 
C 37.296875 65.5 37.09375 65.5 36.296875 65.046875 
C 32.796875 63.40625 28.703125 62.078125 23.703125 62.078125 
C 20.703125 62.078125 16.203125 62.484375 11.296875 64.671875 
C 10.203125 65.171875 10 65.171875 9.90625 65.171875 
C 9.40625 65.171875 9.296875 65.0625 9.296875 63.078125 
L 9.296875 34.421875 
C 9.296875 32.640625 9.296875 32.140625 10.296875 32.140625 
C 10.796875 32.140625 11 32.34375 11.5 33.03125 
C 14.703125 37.515625 19.09375 39.40625 24.09375 39.40625 
C 27.59375 39.40625 35.09375 37.21875 35.09375 20.140625 
C 35.09375 16.953125 35.09375 11.171875 32.09375 6.578125 
C 29.59375 2.484375 25.703125 0.390625 21.40625 0.390625 
C 14.796875 0.390625 8.09375 5 6.296875 12.71875 
C 6.703125 12.609375 7.5 12.421875 7.90625 12.421875 
C 9.203125 12.421875 11.703125 13.125 11.703125 16.21875 
C 11.703125 18.90625 9.796875 20 7.90625 20 
C 5.59375 20 4.09375 18.59375 4.09375 15.796875 
C 4.09375 7.09375 11 -2 21.59375 -2 
C 31.90625 -2 41.703125 6.875 41.703125 19.75 
C 41.703125 31.71875 33.90625 41 24.203125 41 
C 19.09375 41 14.796875 39.109375 11.40625 35.53125 
z
" id="CMR17-53"/>
      </defs>
      <g transform="translate(29.640613 37.268063)scale(0.2 -0.2)">
       <use transform="scale(0.996264)" xlink:href="#CMR17-48"/>
       <use transform="translate(45.690477 0)scale(0.996264)" xlink:href="#CMMI12-58"/>
       <use transform="translate(72.787654 0)scale(0.996264)" xlink:href="#CMR17-48"/>
       <use transform="translate(118.478131 0)scale(0.996264)" xlink:href="#CMR17-48"/>
       <use transform="translate(164.168608 0)scale(0.996264)" xlink:href="#CMR17-53"/>
      </g>
     </g>
    </g>
    <g id="text_11">
     <!-- Heteroplasmy variance -->
     <defs>
      <path d="M 55.09375 33 
L 55.09375 -0.03125 
L 64.40625 -0.03125 
L 64.40625 73 
L 55.09375 73 
L 55.09375 41.21875 
L 17.59375 41.21875 
L 17.59375 73 
L 8.296875 73 
L 8.296875 -0.03125 
L 17.703125 -0.03125 
L 17.703125 33 
z
" id="Nimbus_Sans_L_Regular-72"/>
      <path d="M 25.40625 52.8125 
L 16.796875 52.8125 
L 16.796875 67 
L 8.5 67 
L 8.5 52.8125 
L 1.40625 52.8125 
L 1.40625 46 
L 8.5 46 
L 8.5 6.3125 
C 8.5 1 12.09375 -2 18.59375 -2 
C 20.59375 -2 22.59375 -1.8125 25.40625 -1.296875 
L 25.40625 5.71875 
C 24.296875 5.40625 23 5.3125 21.40625 5.3125 
C 17.796875 5.3125 16.796875 6.3125 16.796875 10.015625 
L 16.796875 46 
L 25.40625 46 
z
" id="Nimbus_Sans_L_Regular-116"/>
      <path d="M 6.90625 52.484375 
L 6.90625 0 
L 15.296875 0 
L 15.296875 27.203125 
C 15.296875 34.703125 17.203125 39.609375 21.203125 42.5 
C 23.796875 44.40625 26.296875 45 32.09375 45 
L 32.09375 53.625 
C 30.703125 53.8125 30 53.8125 28.90625 53.8125 
C 23.5 53.8125 19.40625 50.625 14.59375 42.90625 
L 14.59375 52.484375 
z
" id="Nimbus_Sans_L_Regular-114"/>
      <path d="M 27.203125 54 
C 12.5 54 3.59375 43.53125 3.59375 25.984375 
C 3.59375 8.453125 12.40625 -2 27.296875 -2 
C 42 -2 51 8.453125 51 25.59375 
C 51 43.625 42.296875 54 27.203125 54 
z
M 27.296875 46.28125 
C 36.703125 46.28125 42.296875 38.625 42.296875 25.703125 
C 42.296875 13.453125 36.5 5.703125 27.296875 5.703125 
C 18 5.703125 12.296875 13.359375 12.296875 25.984375 
C 12.296875 38.53125 18 46.28125 27.296875 46.28125 
z
" id="Nimbus_Sans_L_Regular-111"/>
      <path d="M 5.40625 -22 
L 13.796875 -22 
L 13.796875 5 
C 18.203125 -0.421875 23.09375 -2.8125 29.90625 -2.8125 
C 43.40625 -2.8125 52.296875 8.15625 52.296875 24.984375 
C 52.296875 42.71875 43.703125 53.8125 29.796875 53.8125 
C 22.703125 53.8125 17 50.59375 13.09375 44.390625 
L 13.09375 52.328125 
L 5.40625 52.328125 
z
M 28.40625 46 
C 37.59375 46 43.59375 37.8125 43.59375 25.1875 
C 43.59375 13.171875 37.5 5 28.40625 5 
C 19.59375 5 13.796875 13.078125 13.796875 25.5 
C 13.796875 37.921875 19.59375 46 28.40625 46 
z
" id="Nimbus_Sans_L_Regular-112"/>
      <path d="M 15.203125 73 
L 6.796875 73 
L 6.796875 -0.03125 
L 15.203125 -0.03125 
z
" id="Nimbus_Sans_L_Regular-108"/>
      <path d="M 28.5 0 
L 48.59375 52.5 
L 39.203125 52.5 
L 24.40625 9.921875 
L 10.40625 52.5 
L 1 52.5 
L 19.40625 0 
z
" id="Nimbus_Sans_L_Regular-118"/>
      <path d="M 7 52.484375 
L 7 0 
L 15.40625 0 
L 15.40625 28.953125 
C 15.40625 39.671875 21 46.6875 29.59375 46.6875 
C 36.203125 46.6875 40.40625 42.671875 40.40625 36.359375 
L 40.40625 0 
L 48.703125 0 
L 48.703125 39.671875 
C 48.703125 48.390625 42.203125 54 32.09375 54 
C 24.296875 54 19.296875 50.984375 14.703125 43.6875 
L 14.703125 52.484375 
z
" id="Nimbus_Sans_L_Regular-110"/>
      <path d="M 47.09375 34.9375 
C 46.703125 40.03125 45.59375 43.328125 43.59375 46.21875 
C 40 51.109375 33.703125 54 26.40625 54 
C 12.296875 54 3.09375 42.84375 3.09375 25.5 
C 3.09375 8.65625 12.09375 -2 26.296875 -2 
C 38.796875 -2 46.703125 5.46875 47.703125 18.234375 
L 39.296875 18.234375 
C 37.90625 9.875 33.59375 5.703125 26.5 5.703125 
C 17.296875 5.703125 11.796875 13.171875 11.796875 25.5 
C 11.796875 38.53125 17.203125 46.28125 26.296875 46.28125 
C 33.296875 46.28125 37.703125 42.203125 38.703125 34.9375 
z
" id="Nimbus_Sans_L_Regular-99"/>
     </defs>
     <g transform="translate(21.396641 244.467956)rotate(-90)scale(0.2 -0.2)">
      <use transform="scale(0.996264)" xlink:href="#Nimbus_Sans_L_Regular-72"/>
      <use transform="translate(71.929985 0)scale(0.996264)" xlink:href="#Nimbus_Sans_L_Regular-101"/>
      <use transform="translate(127.321662 0)scale(0.996264)" xlink:href="#Nimbus_Sans_L_Regular-116"/>
      <use transform="translate(155.016831 0)scale(0.996264)" xlink:href="#Nimbus_Sans_L_Regular-101"/>
      <use transform="translate(210.408508 0)scale(0.996264)" xlink:href="#Nimbus_Sans_L_Regular-114"/>
      <use transform="translate(243.583738 0)scale(0.996264)" xlink:href="#Nimbus_Sans_L_Regular-111"/>
      <use transform="translate(298.975415 0)scale(0.996264)" xlink:href="#Nimbus_Sans_L_Regular-112"/>
      <use transform="translate(354.367092 0)scale(0.996264)" xlink:href="#Nimbus_Sans_L_Regular-108"/>
      <use transform="translate(376.483876 0)scale(0.996264)" xlink:href="#Nimbus_Sans_L_Regular-97"/>
      <use transform="translate(431.875553 0)scale(0.996264)" xlink:href="#Nimbus_Sans_L_Regular-115"/>
      <use transform="translate(481.688754 0)scale(0.996264)" xlink:href="#Nimbus_Sans_L_Regular-109"/>
      <use transform="translate(563.183791 0)scale(0.996264)" xlink:href="#Nimbus_Sans_L_Regular-121"/>
      <use transform="translate(640.692161 0)scale(0.996264)" xlink:href="#Nimbus_Sans_L_Regular-118"/>
      <use transform="translate(688.014732 0)scale(0.996264)" xlink:href="#Nimbus_Sans_L_Regular-97"/>
      <use transform="translate(743.406409 0)scale(0.996264)" xlink:href="#Nimbus_Sans_L_Regular-114"/>
      <use transform="translate(778.075017 0)scale(0.996264)" xlink:href="#Nimbus_Sans_L_Regular-105"/>
      <use transform="translate(800.191801 0)scale(0.996264)" xlink:href="#Nimbus_Sans_L_Regular-97"/>
      <use transform="translate(855.583478 0)scale(0.996264)" xlink:href="#Nimbus_Sans_L_Regular-110"/>
      <use transform="translate(910.975155 0)scale(0.996264)" xlink:href="#Nimbus_Sans_L_Regular-99"/>
      <use transform="translate(960.788355 0)scale(0.996264)" xlink:href="#Nimbus_Sans_L_Regular-101"/>
     </g>
    </g>
   </g>
   <g id="line2d_10">
    <defs>
     <path d="M -0 7.071068 
L 4.242641 0 
L -0 -7.071068 
L -4.242641 -0 
z
" id="m70e5288d45" style="stroke:#1ce300;stroke-linejoin:miter;"/>
    </defs>
    <g clip-path="url(#p56cd2e45a8)">
     <use style="fill:#1ce300;opacity:0.4;stroke:#1ce300;stroke-linejoin:miter;" x="89.581893" xlink:href="#m70e5288d45" y="262.986364"/>
     <use style="fill:#1ce300;opacity:0.4;stroke:#1ce300;stroke-linejoin:miter;" x="107.133034" xlink:href="#m70e5288d45" y="262.600557"/>
     <use style="fill:#1ce300;opacity:0.4;stroke:#1ce300;stroke-linejoin:miter;" x="124.684174" xlink:href="#m70e5288d45" y="262.220338"/>
     <use style="fill:#1ce300;opacity:0.4;stroke:#1ce300;stroke-linejoin:miter;" x="142.235315" xlink:href="#m70e5288d45" y="261.839638"/>
     <use style="fill:#1ce300;opacity:0.4;stroke:#1ce300;stroke-linejoin:miter;" x="159.786456" xlink:href="#m70e5288d45" y="261.459415"/>
     <use style="fill:#1ce300;opacity:0.4;stroke:#1ce300;stroke-linejoin:miter;" x="177.337596" xlink:href="#m70e5288d45" y="261.071603"/>
     <use style="fill:#1ce300;opacity:0.4;stroke:#1ce300;stroke-linejoin:miter;" x="194.888737" xlink:href="#m70e5288d45" y="260.672778"/>
     <use style="fill:#1ce300;opacity:0.4;stroke:#1ce300;stroke-linejoin:miter;" x="212.439877" xlink:href="#m70e5288d45" y="260.265305"/>
     <use style="fill:#1ce300;opacity:0.4;stroke:#1ce300;stroke-linejoin:miter;" x="229.991018" xlink:href="#m70e5288d45" y="259.887455"/>
     <use style="fill:#1ce300;opacity:0.4;stroke:#1ce300;stroke-linejoin:miter;" x="247.542158" xlink:href="#m70e5288d45" y="259.491738"/>
     <use style="fill:#1ce300;opacity:0.4;stroke:#1ce300;stroke-linejoin:miter;" x="265.093299" xlink:href="#m70e5288d45" y="259.113672"/>
     <use style="fill:#1ce300;opacity:0.4;stroke:#1ce300;stroke-linejoin:miter;" x="282.64444" xlink:href="#m70e5288d45" y="258.715306"/>
     <use style="fill:#1ce300;opacity:0.4;stroke:#1ce300;stroke-linejoin:miter;" x="300.19558" xlink:href="#m70e5288d45" y="258.315226"/>
    </g>
   </g>
   <g id="line2d_11">
    <path clip-path="url(#p56cd2e45a8)" d="M 89.581893 262.986364 
L 93.969678 262.889695 
L 98.357464 262.793027 
L 102.745249 262.696358 
L 107.133034 262.59969 
L 111.520819 262.503021 
L 115.908604 262.406353 
L 120.296389 262.309684 
L 124.684174 262.213016 
L 129.07196 262.116347 
L 133.459745 262.019679 
L 137.84753 261.92301 
L 142.235315 261.826342 
L 146.6231 261.729673 
L 151.010885 261.633005 
L 155.39867 261.536336 
L 159.786456 261.439668 
L 164.174241 261.342999 
L 168.562026 261.246331 
L 172.949811 261.149662 
L 177.337596 261.052994 
L 181.725381 260.956325 
L 186.113166 260.859657 
L 190.500952 260.762988 
L 194.888737 260.66632 
L 199.276522 260.569651 
L 203.664307 260.472983 
L 208.052092 260.376314 
L 212.439877 260.279646 
L 216.827662 260.182977 
L 221.215448 260.086309 
L 225.603233 259.98964 
L 229.991018 259.892972 
L 234.378803 259.796303 
L 238.766588 259.699635 
L 243.154373 259.602966 
L 247.542158 259.506298 
L 251.929944 259.409629 
L 256.317729 259.312961 
L 260.705514 259.216292 
L 265.093299 259.119624 
L 269.481084 259.022955 
L 273.868869 258.926287 
L 278.256654 258.829618 
L 282.64444 258.73295 
L 287.032225 258.636281 
L 291.42001 258.539613 
L 295.807795 258.442944 
L 300.19558 258.346276 
L 304.583365 258.249607 
L 308.97115 258.152939 
" style="fill:none;stroke:#1ce300;stroke-linecap:square;stroke-width:1.5;"/>
   </g>
   <g id="line2d_12">
    <defs>
     <path d="M 0 5 
C 1.326016 5 2.597899 4.473168 3.535534 3.535534 
C 4.473168 2.597899 5 1.326016 5 0 
C 5 -1.326016 4.473168 -2.597899 3.535534 -3.535534 
C 2.597899 -4.473168 1.326016 -5 0 -5 
C -1.326016 -5 -2.597899 -4.473168 -3.535534 -3.535534 
C -4.473168 -2.597899 -5 -1.326016 -5 0 
C -5 1.326016 -4.473168 2.597899 -3.535534 3.535534 
C -2.597899 4.473168 -1.326016 5 0 5 
z
" id="m2ecc547c9e" style="stroke:#54ab00;"/>
    </defs>
    <g clip-path="url(#p56cd2e45a8)">
     <use style="fill:#54ab00;opacity:0.4;stroke:#54ab00;" x="89.581893" xlink:href="#m2ecc547c9e" y="262.986364"/>
     <use style="fill:#54ab00;opacity:0.4;stroke:#54ab00;" x="107.133034" xlink:href="#m2ecc547c9e" y="262.071541"/>
     <use style="fill:#54ab00;opacity:0.4;stroke:#54ab00;" x="124.684174" xlink:href="#m2ecc547c9e" y="261.168196"/>
     <use style="fill:#54ab00;opacity:0.4;stroke:#54ab00;" x="142.235315" xlink:href="#m2ecc547c9e" y="260.241606"/>
     <use style="fill:#54ab00;opacity:0.4;stroke:#54ab00;" x="159.786456" xlink:href="#m2ecc547c9e" y="259.346807"/>
     <use style="fill:#54ab00;opacity:0.4;stroke:#54ab00;" x="177.337596" xlink:href="#m2ecc547c9e" y="258.389474"/>
     <use style="fill:#54ab00;opacity:0.4;stroke:#54ab00;" x="194.888737" xlink:href="#m2ecc547c9e" y="257.543108"/>
     <use style="fill:#54ab00;opacity:0.4;stroke:#54ab00;" x="212.439877" xlink:href="#m2ecc547c9e" y="256.630951"/>
     <use style="fill:#54ab00;opacity:0.4;stroke:#54ab00;" x="229.991018" xlink:href="#m2ecc547c9e" y="255.698085"/>
     <use style="fill:#54ab00;opacity:0.4;stroke:#54ab00;" x="247.542158" xlink:href="#m2ecc547c9e" y="254.724319"/>
     <use style="fill:#54ab00;opacity:0.4;stroke:#54ab00;" x="265.093299" xlink:href="#m2ecc547c9e" y="253.908602"/>
     <use style="fill:#54ab00;opacity:0.4;stroke:#54ab00;" x="282.64444" xlink:href="#m2ecc547c9e" y="253.008281"/>
     <use style="fill:#54ab00;opacity:0.4;stroke:#54ab00;" x="300.19558" xlink:href="#m2ecc547c9e" y="252.17011"/>
    </g>
   </g>
   <g id="line2d_13">
    <path clip-path="url(#p56cd2e45a8)" d="M 89.581893 262.986364 
L 93.969678 262.760859 
L 98.357464 262.535354 
L 102.745249 262.309849 
L 107.133034 262.084344 
L 111.520819 261.858839 
L 115.908604 261.633334 
L 120.296389 261.40783 
L 124.684174 261.182325 
L 129.07196 260.95682 
L 133.459745 260.731315 
L 137.84753 260.50581 
L 142.235315 260.280305 
L 146.6231 260.0548 
L 151.010885 259.829296 
L 155.39867 259.603791 
L 159.786456 259.378286 
L 164.174241 259.152781 
L 168.562026 258.927276 
L 172.949811 258.701771 
L 177.337596 258.476266 
L 181.725381 258.250762 
L 186.113166 258.025257 
L 190.500952 257.799752 
L 194.888737 257.574247 
L 199.276522 257.348742 
L 203.664307 257.123237 
L 208.052092 256.897732 
L 212.439877 256.672227 
L 216.827662 256.446723 
L 221.215448 256.221218 
L 225.603233 255.995713 
L 229.991018 255.770208 
L 234.378803 255.544703 
L 238.766588 255.319198 
L 243.154373 255.093693 
L 247.542158 254.868189 
L 251.929944 254.642684 
L 256.317729 254.417179 
L 260.705514 254.191674 
L 265.093299 253.966169 
L 269.481084 253.740664 
L 273.868869 253.515159 
L 278.256654 253.289655 
L 282.64444 253.06415 
L 287.032225 252.838645 
L 291.42001 252.61314 
L 295.807795 252.387635 
L 300.19558 252.16213 
L 304.583365 251.936625 
L 308.97115 251.71112 
" style="fill:none;stroke:#54ab00;stroke-linecap:square;stroke-width:1.5;"/>
   </g>
   <g id="line2d_14">
    <defs>
     <path d="M -5 5 
L 5 5 
L 5 -5 
L -5 -5 
z
" id="mb256511a82" style="stroke:#8e7100;stroke-linejoin:miter;"/>
    </defs>
    <g clip-path="url(#p56cd2e45a8)">
     <use style="fill:#8e7100;opacity:0.4;stroke:#8e7100;stroke-linejoin:miter;" x="89.581893" xlink:href="#mb256511a82" y="262.986364"/>
     <use style="fill:#8e7100;opacity:0.4;stroke:#8e7100;stroke-linejoin:miter;" x="107.133034" xlink:href="#mb256511a82" y="261.126366"/>
     <use style="fill:#8e7100;opacity:0.4;stroke:#8e7100;stroke-linejoin:miter;" x="124.684174" xlink:href="#mb256511a82" y="259.257743"/>
     <use style="fill:#8e7100;opacity:0.4;stroke:#8e7100;stroke-linejoin:miter;" x="142.235315" xlink:href="#mb256511a82" y="257.448346"/>
     <use style="fill:#8e7100;opacity:0.4;stroke:#8e7100;stroke-linejoin:miter;" x="159.786456" xlink:href="#mb256511a82" y="255.485825"/>
     <use style="fill:#8e7100;opacity:0.4;stroke:#8e7100;stroke-linejoin:miter;" x="177.337596" xlink:href="#mb256511a82" y="253.566657"/>
     <use style="fill:#8e7100;opacity:0.4;stroke:#8e7100;stroke-linejoin:miter;" x="194.888737" xlink:href="#mb256511a82" y="251.852503"/>
     <use style="fill:#8e7100;opacity:0.4;stroke:#8e7100;stroke-linejoin:miter;" x="212.439877" xlink:href="#mb256511a82" y="250.115916"/>
     <use style="fill:#8e7100;opacity:0.4;stroke:#8e7100;stroke-linejoin:miter;" x="229.991018" xlink:href="#mb256511a82" y="248.30023"/>
     <use style="fill:#8e7100;opacity:0.4;stroke:#8e7100;stroke-linejoin:miter;" x="247.542158" xlink:href="#mb256511a82" y="246.495342"/>
     <use style="fill:#8e7100;opacity:0.4;stroke:#8e7100;stroke-linejoin:miter;" x="265.093299" xlink:href="#mb256511a82" y="244.665004"/>
     <use style="fill:#8e7100;opacity:0.4;stroke:#8e7100;stroke-linejoin:miter;" x="282.64444" xlink:href="#mb256511a82" y="243.061732"/>
     <use style="fill:#8e7100;opacity:0.4;stroke:#8e7100;stroke-linejoin:miter;" x="300.19558" xlink:href="#mb256511a82" y="241.267003"/>
    </g>
   </g>
   <g id="line2d_15">
    <path clip-path="url(#p56cd2e45a8)" d="M 89.581893 262.986364 
L 93.969678 262.532606 
L 98.357464 262.078848 
L 102.745249 261.62509 
L 107.133034 261.171332 
L 111.520819 260.717574 
L 115.908604 260.263816 
L 120.296389 259.810058 
L 124.684174 259.3563 
L 129.07196 258.902542 
L 133.459745 258.448784 
L 137.84753 257.995026 
L 142.235315 257.541268 
L 146.6231 257.08751 
L 151.010885 256.633752 
L 155.39867 256.179994 
L 159.786456 255.726236 
L 164.174241 255.272478 
L 168.562026 254.81872 
L 172.949811 254.364962 
L 177.337596 253.911204 
L 181.725381 253.457446 
L 186.113166 253.003688 
L 190.500952 252.54993 
L 194.888737 252.096172 
L 199.276522 251.642414 
L 203.664307 251.188656 
L 208.052092 250.734898 
L 212.439877 250.28114 
L 216.827662 249.827382 
L 221.215448 249.373624 
L 225.603233 248.919867 
L 229.991018 248.466109 
L 234.378803 248.012351 
L 238.766588 247.558593 
L 243.154373 247.104835 
L 247.542158 246.651077 
L 251.929944 246.197319 
L 256.317729 245.743561 
L 260.705514 245.289803 
L 265.093299 244.836045 
L 269.481084 244.382287 
L 273.868869 243.928529 
L 278.256654 243.474771 
L 282.64444 243.021013 
L 287.032225 242.567255 
L 291.42001 242.113497 
L 295.807795 241.659739 
L 300.19558 241.205981 
L 304.583365 240.752223 
L 308.97115 240.298465 
" style="fill:none;stroke:#8e7100;stroke-linecap:square;stroke-width:1.5;"/>
   </g>
   <g id="line2d_16">
    <defs>
     <path d="M 0 -5 
L -5 5 
L 5 5 
z
" id="m17bd9b6820" style="stroke:#c63900;stroke-linejoin:miter;"/>
    </defs>
    <g clip-path="url(#p56cd2e45a8)">
     <use style="fill:#c63900;opacity:0.4;stroke:#c63900;stroke-linejoin:miter;" x="89.581893" xlink:href="#m17bd9b6820" y="262.986364"/>
     <use style="fill:#c63900;opacity:0.4;stroke:#c63900;stroke-linejoin:miter;" x="107.133034" xlink:href="#m17bd9b6820" y="260.834166"/>
     <use style="fill:#c63900;opacity:0.4;stroke:#c63900;stroke-linejoin:miter;" x="124.684174" xlink:href="#m17bd9b6820" y="258.641994"/>
     <use style="fill:#c63900;opacity:0.4;stroke:#c63900;stroke-linejoin:miter;" x="142.235315" xlink:href="#m17bd9b6820" y="256.561194"/>
     <use style="fill:#c63900;opacity:0.4;stroke:#c63900;stroke-linejoin:miter;" x="159.786456" xlink:href="#m17bd9b6820" y="254.43197"/>
     <use style="fill:#c63900;opacity:0.4;stroke:#c63900;stroke-linejoin:miter;" x="177.337596" xlink:href="#m17bd9b6820" y="252.342999"/>
     <use style="fill:#c63900;opacity:0.4;stroke:#c63900;stroke-linejoin:miter;" x="194.888737" xlink:href="#m17bd9b6820" y="250.109565"/>
     <use style="fill:#c63900;opacity:0.4;stroke:#c63900;stroke-linejoin:miter;" x="212.439877" xlink:href="#m17bd9b6820" y="247.930615"/>
     <use style="fill:#c63900;opacity:0.4;stroke:#c63900;stroke-linejoin:miter;" x="229.991018" xlink:href="#m17bd9b6820" y="245.681368"/>
     <use style="fill:#c63900;opacity:0.4;stroke:#c63900;stroke-linejoin:miter;" x="247.542158" xlink:href="#m17bd9b6820" y="243.565881"/>
     <use style="fill:#c63900;opacity:0.4;stroke:#c63900;stroke-linejoin:miter;" x="265.093299" xlink:href="#m17bd9b6820" y="241.695594"/>
     <use style="fill:#c63900;opacity:0.4;stroke:#c63900;stroke-linejoin:miter;" x="282.64444" xlink:href="#m17bd9b6820" y="239.507108"/>
     <use style="fill:#c63900;opacity:0.4;stroke:#c63900;stroke-linejoin:miter;" x="300.19558" xlink:href="#m17bd9b6820" y="237.358348"/>
    </g>
   </g>
   <g id="line2d_17">
    <path clip-path="url(#p56cd2e45a8)" d="M 89.581893 262.986364 
L 93.969678 262.444969 
L 98.357464 261.903574 
L 102.745249 261.362179 
L 107.133034 260.820784 
L 111.520819 260.279389 
L 115.908604 259.737994 
L 120.296389 259.196599 
L 124.684174 258.655204 
L 129.07196 258.113809 
L 133.459745 257.572414 
L 137.84753 257.031019 
L 142.235315 256.489624 
L 146.6231 255.948229 
L 151.010885 255.406834 
L 155.39867 254.865439 
L 159.786456 254.324044 
L 164.174241 253.782649 
L 168.562026 253.241254 
L 172.949811 252.699859 
L 177.337596 252.158464 
L 181.725381 251.617069 
L 186.113166 251.075674 
L 190.500952 250.534279 
L 194.888737 249.992884 
L 199.276522 249.451489 
L 203.664307 248.910094 
L 208.052092 248.368699 
L 212.439877 247.827305 
L 216.827662 247.28591 
L 221.215448 246.744515 
L 225.603233 246.20312 
L 229.991018 245.661725 
L 234.378803 245.12033 
L 238.766588 244.578935 
L 243.154373 244.03754 
L 247.542158 243.496145 
L 251.929944 242.95475 
L 256.317729 242.413355 
L 260.705514 241.87196 
L 265.093299 241.330565 
L 269.481084 240.78917 
L 273.868869 240.247775 
L 278.256654 239.70638 
L 282.64444 239.164985 
L 287.032225 238.62359 
L 291.42001 238.082195 
L 295.807795 237.5408 
L 300.19558 236.999405 
L 304.583365 236.45801 
L 308.97115 235.916615 
" style="fill:none;stroke:#c63900;stroke-linecap:square;stroke-width:1.5;"/>
   </g>
   <g id="line2d_18">
    <defs>
     <path d="M 0 -5 
L -4.330127 -2.5 
L -4.330127 2.5 
L -0 5 
L 4.330127 2.5 
L 4.330127 -2.5 
z
" id="m89f9b951d9" style="stroke:#fe0100;stroke-linejoin:miter;"/>
    </defs>
    <g clip-path="url(#p56cd2e45a8)">
     <use style="fill:#fe0100;opacity:0.4;stroke:#fe0100;stroke-linejoin:miter;" x="89.581893" xlink:href="#m89f9b951d9" y="262.986364"/>
     <use style="fill:#fe0100;opacity:0.4;stroke:#fe0100;stroke-linejoin:miter;" x="107.133034" xlink:href="#m89f9b951d9" y="260.745835"/>
     <use style="fill:#fe0100;opacity:0.4;stroke:#fe0100;stroke-linejoin:miter;" x="124.684174" xlink:href="#m89f9b951d9" y="258.496573"/>
     <use style="fill:#fe0100;opacity:0.4;stroke:#fe0100;stroke-linejoin:miter;" x="142.235315" xlink:href="#m89f9b951d9" y="256.307287"/>
     <use style="fill:#fe0100;opacity:0.4;stroke:#fe0100;stroke-linejoin:miter;" x="159.786456" xlink:href="#m89f9b951d9" y="254.133598"/>
     <use style="fill:#fe0100;opacity:0.4;stroke:#fe0100;stroke-linejoin:miter;" x="177.337596" xlink:href="#m89f9b951d9" y="251.840302"/>
     <use style="fill:#fe0100;opacity:0.4;stroke:#fe0100;stroke-linejoin:miter;" x="194.888737" xlink:href="#m89f9b951d9" y="249.528998"/>
     <use style="fill:#fe0100;opacity:0.4;stroke:#fe0100;stroke-linejoin:miter;" x="212.439877" xlink:href="#m89f9b951d9" y="247.486953"/>
     <use style="fill:#fe0100;opacity:0.4;stroke:#fe0100;stroke-linejoin:miter;" x="229.991018" xlink:href="#m89f9b951d9" y="245.248867"/>
     <use style="fill:#fe0100;opacity:0.4;stroke:#fe0100;stroke-linejoin:miter;" x="247.542158" xlink:href="#m89f9b951d9" y="242.807685"/>
     <use style="fill:#fe0100;opacity:0.4;stroke:#fe0100;stroke-linejoin:miter;" x="265.093299" xlink:href="#m89f9b951d9" y="240.657821"/>
     <use style="fill:#fe0100;opacity:0.4;stroke:#fe0100;stroke-linejoin:miter;" x="282.64444" xlink:href="#m89f9b951d9" y="238.508077"/>
     <use style="fill:#fe0100;opacity:0.4;stroke:#fe0100;stroke-linejoin:miter;" x="300.19558" xlink:href="#m89f9b951d9" y="236.118876"/>
    </g>
   </g>
   <g id="line2d_19">
    <path clip-path="url(#p56cd2e45a8)" d="M 89.581893 262.986364 
L 93.969678 262.423247 
L 98.357464 261.860131 
L 102.745249 261.297014 
L 107.133034 260.733898 
L 111.520819 260.170782 
L 115.908604 259.607665 
L 120.296389 259.044549 
L 124.684174 258.481433 
L 129.07196 257.918316 
L 133.459745 257.3552 
L 137.84753 256.792083 
L 142.235315 256.228967 
L 146.6231 255.665851 
L 151.010885 255.102734 
L 155.39867 254.539618 
L 159.786456 253.976502 
L 164.174241 253.413385 
L 168.562026 252.850269 
L 172.949811 252.287152 
L 177.337596 251.724036 
L 181.725381 251.16092 
L 186.113166 250.597803 
L 190.500952 250.034687 
L 194.888737 249.471571 
L 199.276522 248.908454 
L 203.664307 248.345338 
L 208.052092 247.782221 
L 212.439877 247.219105 
L 216.827662 246.655989 
L 221.215448 246.092872 
L 225.603233 245.529756 
L 229.991018 244.96664 
L 234.378803 244.403523 
L 238.766588 243.840407 
L 243.154373 243.27729 
L 247.542158 242.714174 
L 251.929944 242.151058 
L 256.317729 241.587941 
L 260.705514 241.024825 
L 265.093299 240.461708 
L 269.481084 239.898592 
L 273.868869 239.335476 
L 278.256654 238.772359 
L 282.64444 238.209243 
L 287.032225 237.646127 
L 291.42001 237.08301 
L 295.807795 236.519894 
L 300.19558 235.956777 
L 304.583365 235.393661 
L 308.97115 234.830545 
" style="fill:none;stroke:#fe0100;stroke-linecap:square;stroke-width:1.5;"/>
   </g>
   <g id="line2d_20">
    <defs>
     <path d="M -1.666667 5 
L 1.666667 5 
L 1.666667 1.666667 
L 5 1.666667 
L 5 -1.666667 
L 1.666667 -1.666667 
L 1.666667 -5 
L -1.666667 -5 
L -1.666667 -1.666667 
L -5 -1.666667 
L -5 1.666667 
L -1.666667 1.666667 
z
" id="mb7b826046f" style="stroke:#c60039;stroke-linejoin:miter;"/>
    </defs>
    <g clip-path="url(#p56cd2e45a8)">
     <use style="fill:#c60039;opacity:0.4;stroke:#c60039;stroke-linejoin:miter;" x="89.581893" xlink:href="#mb7b826046f" y="262.986364"/>
     <use style="fill:#c60039;opacity:0.4;stroke:#c60039;stroke-linejoin:miter;" x="107.133034" xlink:href="#mb7b826046f" y="260.258573"/>
     <use style="fill:#c60039;opacity:0.4;stroke:#c60039;stroke-linejoin:miter;" x="124.684174" xlink:href="#mb7b826046f" y="257.554207"/>
     <use style="fill:#c60039;opacity:0.4;stroke:#c60039;stroke-linejoin:miter;" x="142.235315" xlink:href="#mb7b826046f" y="254.991028"/>
     <use style="fill:#c60039;opacity:0.4;stroke:#c60039;stroke-linejoin:miter;" x="159.786456" xlink:href="#mb7b826046f" y="252.317547"/>
     <use style="fill:#c60039;opacity:0.4;stroke:#c60039;stroke-linejoin:miter;" x="177.337596" xlink:href="#mb7b826046f" y="249.485571"/>
     <use style="fill:#c60039;opacity:0.4;stroke:#c60039;stroke-linejoin:miter;" x="194.888737" xlink:href="#mb7b826046f" y="246.708192"/>
     <use style="fill:#c60039;opacity:0.4;stroke:#c60039;stroke-linejoin:miter;" x="212.439877" xlink:href="#mb7b826046f" y="244.347872"/>
     <use style="fill:#c60039;opacity:0.4;stroke:#c60039;stroke-linejoin:miter;" x="229.991018" xlink:href="#mb7b826046f" y="241.626779"/>
     <use style="fill:#c60039;opacity:0.4;stroke:#c60039;stroke-linejoin:miter;" x="247.542158" xlink:href="#mb7b826046f" y="238.841177"/>
     <use style="fill:#c60039;opacity:0.4;stroke:#c60039;stroke-linejoin:miter;" x="265.093299" xlink:href="#mb7b826046f" y="236.458776"/>
     <use style="fill:#c60039;opacity:0.4;stroke:#c60039;stroke-linejoin:miter;" x="282.64444" xlink:href="#mb7b826046f" y="233.708389"/>
     <use style="fill:#c60039;opacity:0.4;stroke:#c60039;stroke-linejoin:miter;" x="300.19558" xlink:href="#mb7b826046f" y="230.787646"/>
    </g>
   </g>
   <g id="line2d_21">
    <path clip-path="url(#p56cd2e45a8)" d="M 89.581893 262.986364 
L 93.969678 262.321808 
L 98.357464 261.657252 
L 102.745249 260.992695 
L 107.133034 260.328139 
L 111.520819 259.663583 
L 115.908604 258.999027 
L 120.296389 258.334471 
L 124.684174 257.669915 
L 129.07196 257.005359 
L 133.459745 256.340803 
L 137.84753 255.676247 
L 142.235315 255.011691 
L 146.6231 254.347135 
L 151.010885 253.682579 
L 155.39867 253.018023 
L 159.786456 252.353467 
L 164.174241 251.688911 
L 168.562026 251.024355 
L 172.949811 250.359799 
L 177.337596 249.695242 
L 181.725381 249.030686 
L 186.113166 248.36613 
L 190.500952 247.701574 
L 194.888737 247.037018 
L 199.276522 246.372462 
L 203.664307 245.707906 
L 208.052092 245.04335 
L 212.439877 244.378794 
L 216.827662 243.714238 
L 221.215448 243.049682 
L 225.603233 242.385126 
L 229.991018 241.72057 
L 234.378803 241.056014 
L 238.766588 240.391458 
L 243.154373 239.726902 
L 247.542158 239.062346 
L 251.929944 238.397789 
L 256.317729 237.733233 
L 260.705514 237.068677 
L 265.093299 236.404121 
L 269.481084 235.739565 
L 273.868869 235.075009 
L 278.256654 234.410453 
L 282.64444 233.745897 
L 287.032225 233.081341 
L 291.42001 232.416785 
L 295.807795 231.752229 
L 300.19558 231.087673 
L 304.583365 230.423117 
L 308.97115 229.758561 
" style="fill:none;stroke:#c60039;stroke-linecap:square;stroke-width:1.5;"/>
   </g>
   <g id="line2d_22">
    <defs>
     <path d="M -0 7.071068 
L 4.242641 0 
L -0 -7.071068 
L -4.242641 -0 
z
" id="md1b9f5ab26" style="stroke:#8e0071;stroke-linejoin:miter;"/>
    </defs>
    <g clip-path="url(#p56cd2e45a8)">
     <use style="fill:#8e0071;opacity:0.4;stroke:#8e0071;stroke-linejoin:miter;" x="89.581893" xlink:href="#md1b9f5ab26" y="262.986364"/>
     <use style="fill:#8e0071;opacity:0.4;stroke:#8e0071;stroke-linejoin:miter;" x="107.133034" xlink:href="#md1b9f5ab26" y="254.345191"/>
     <use style="fill:#8e0071;opacity:0.4;stroke:#8e0071;stroke-linejoin:miter;" x="124.684174" xlink:href="#md1b9f5ab26" y="246.295955"/>
     <use style="fill:#8e0071;opacity:0.4;stroke:#8e0071;stroke-linejoin:miter;" x="142.235315" xlink:href="#md1b9f5ab26" y="237.170952"/>
     <use style="fill:#8e0071;opacity:0.4;stroke:#8e0071;stroke-linejoin:miter;" x="159.786456" xlink:href="#md1b9f5ab26" y="228.521515"/>
     <use style="fill:#8e0071;opacity:0.4;stroke:#8e0071;stroke-linejoin:miter;" x="177.337596" xlink:href="#md1b9f5ab26" y="219.432189"/>
     <use style="fill:#8e0071;opacity:0.4;stroke:#8e0071;stroke-linejoin:miter;" x="194.888737" xlink:href="#md1b9f5ab26" y="210.296649"/>
     <use style="fill:#8e0071;opacity:0.4;stroke:#8e0071;stroke-linejoin:miter;" x="212.439877" xlink:href="#md1b9f5ab26" y="201.933236"/>
     <use style="fill:#8e0071;opacity:0.4;stroke:#8e0071;stroke-linejoin:miter;" x="229.991018" xlink:href="#md1b9f5ab26" y="192.364116"/>
     <use style="fill:#8e0071;opacity:0.4;stroke:#8e0071;stroke-linejoin:miter;" x="247.542158" xlink:href="#md1b9f5ab26" y="184.106929"/>
     <use style="fill:#8e0071;opacity:0.4;stroke:#8e0071;stroke-linejoin:miter;" x="265.093299" xlink:href="#md1b9f5ab26" y="175.698963"/>
     <use style="fill:#8e0071;opacity:0.4;stroke:#8e0071;stroke-linejoin:miter;" x="282.64444" xlink:href="#md1b9f5ab26" y="167.372088"/>
     <use style="fill:#8e0071;opacity:0.4;stroke:#8e0071;stroke-linejoin:miter;" x="300.19558" xlink:href="#md1b9f5ab26" y="158.14923"/>
    </g>
   </g>
   <g id="line2d_23">
    <path clip-path="url(#p56cd2e45a8)" d="M 89.581893 262.986364 
L 93.969678 260.820129 
L 98.357464 258.653894 
L 102.745249 256.48766 
L 107.133034 254.321425 
L 111.520819 252.15519 
L 115.908604 249.988955 
L 120.296389 247.822721 
L 124.684174 245.656486 
L 129.07196 243.490251 
L 133.459745 241.324017 
L 137.84753 239.157782 
L 142.235315 236.991547 
L 146.6231 234.825313 
L 151.010885 232.659078 
L 155.39867 230.492843 
L 159.786456 228.326609 
L 164.174241 226.160374 
L 168.562026 223.994139 
L 172.949811 221.827904 
L 177.337596 219.66167 
L 181.725381 217.495435 
L 186.113166 215.3292 
L 190.500952 213.162966 
L 194.888737 210.996731 
L 199.276522 208.830496 
L 203.664307 206.664262 
L 208.052092 204.498027 
L 212.439877 202.331792 
L 216.827662 200.165557 
L 221.215448 197.999323 
L 225.603233 195.833088 
L 229.991018 193.666853 
L 234.378803 191.500619 
L 238.766588 189.334384 
L 243.154373 187.168149 
L 247.542158 185.001915 
L 251.929944 182.83568 
L 256.317729 180.669445 
L 260.705514 178.503211 
L 265.093299 176.336976 
L 269.481084 174.170741 
L 273.868869 172.004506 
L 278.256654 169.838272 
L 282.64444 167.672037 
L 287.032225 165.505802 
L 291.42001 163.339568 
L 295.807795 161.173333 
L 300.19558 159.007098 
L 304.583365 156.840864 
L 308.97115 154.674629 
" style="fill:none;stroke:#8e0071;stroke-linecap:square;stroke-width:1.5;"/>
   </g>
   <g id="line2d_24">
    <defs>
     <path d="M 0 5 
C 1.326016 5 2.597899 4.473168 3.535534 3.535534 
C 4.473168 2.597899 5 1.326016 5 0 
C 5 -1.326016 4.473168 -2.597899 3.535534 -3.535534 
C 2.597899 -4.473168 1.326016 -5 0 -5 
C -1.326016 -5 -2.597899 -4.473168 -3.535534 -3.535534 
C -4.473168 -2.597899 -5 -1.326016 -5 0 
C -5 1.326016 -4.473168 2.597899 -3.535534 3.535534 
C -2.597899 4.473168 -1.326016 5 0 5 
z
" id="m60a3d4fb0c" style="stroke:#5400ab;"/>
    </defs>
    <g clip-path="url(#p56cd2e45a8)">
     <use style="fill:#5400ab;opacity:0.4;stroke:#5400ab;" x="89.581893" xlink:href="#m60a3d4fb0c" y="262.986364"/>
     <use style="fill:#5400ab;opacity:0.4;stroke:#5400ab;" x="107.133034" xlink:href="#m60a3d4fb0c" y="243.651033"/>
     <use style="fill:#5400ab;opacity:0.4;stroke:#5400ab;" x="124.684174" xlink:href="#m60a3d4fb0c" y="223.635103"/>
     <use style="fill:#5400ab;opacity:0.4;stroke:#5400ab;" x="142.235315" xlink:href="#m60a3d4fb0c" y="203.878946"/>
     <use style="fill:#5400ab;opacity:0.4;stroke:#5400ab;" x="159.786456" xlink:href="#m60a3d4fb0c" y="183.916978"/>
     <use style="fill:#5400ab;opacity:0.4;stroke:#5400ab;" x="177.337596" xlink:href="#m60a3d4fb0c" y="164.079468"/>
     <use style="fill:#5400ab;opacity:0.4;stroke:#5400ab;" x="194.888737" xlink:href="#m60a3d4fb0c" y="144.997946"/>
     <use style="fill:#5400ab;opacity:0.4;stroke:#5400ab;" x="212.439877" xlink:href="#m60a3d4fb0c" y="125.174397"/>
     <use style="fill:#5400ab;opacity:0.4;stroke:#5400ab;" x="229.991018" xlink:href="#m60a3d4fb0c" y="105.995978"/>
     <use style="fill:#5400ab;opacity:0.4;stroke:#5400ab;" x="247.542158" xlink:href="#m60a3d4fb0c" y="86.408825"/>
     <use style="fill:#5400ab;opacity:0.4;stroke:#5400ab;" x="265.093299" xlink:href="#m60a3d4fb0c" y="66.070643"/>
     <use style="fill:#5400ab;opacity:0.4;stroke:#5400ab;" x="282.64444" xlink:href="#m60a3d4fb0c" y="47.464764"/>
     <use style="fill:#5400ab;opacity:0.4;stroke:#5400ab;" x="300.19558" xlink:href="#m60a3d4fb0c" y="28.105565"/>
    </g>
   </g>
   <g id="line2d_25">
    <path clip-path="url(#p56cd2e45a8)" d="M 89.581893 262.986364 
L 93.969678 258.180909 
L 98.357464 253.375455 
L 102.745249 248.57 
L 107.133034 243.764545 
L 111.520819 238.959091 
L 115.908604 234.153636 
L 120.296389 229.348182 
L 124.684174 224.542727 
L 129.07196 219.737273 
L 133.459745 214.931818 
L 137.84753 210.126364 
L 142.235315 205.320909 
L 146.6231 200.515455 
L 151.010885 195.71 
L 155.39867 190.904545 
L 159.786456 186.099091 
L 164.174241 181.293636 
L 168.562026 176.488182 
L 172.949811 171.682727 
L 177.337596 166.877273 
L 181.725381 162.071818 
L 186.113166 157.266364 
L 190.500952 152.460909 
L 194.888737 147.655455 
L 199.276522 142.85 
L 203.664307 138.044545 
L 208.052092 133.239091 
L 212.439877 128.433636 
L 216.827662 123.628182 
L 221.215448 118.822727 
L 225.603233 114.017273 
L 229.991018 109.211818 
L 234.378803 104.406364 
L 238.766588 99.600909 
L 243.154373 94.795455 
L 247.542158 89.99 
L 251.929944 85.184545 
L 256.317729 80.379091 
L 260.705514 75.573636 
L 265.093299 70.768182 
L 269.481084 65.962727 
L 273.868869 61.157273 
L 278.256654 56.351818 
L 282.64444 51.546364 
L 287.032225 46.740909 
L 291.42001 41.935455 
L 295.807795 37.13 
L 300.19558 32.324545 
L 304.583365 27.519091 
L 308.97115 22.713636 
" style="fill:none;stroke:#5400ab;stroke-linecap:square;stroke-width:1.5;"/>
   </g>
   <g id="line2d_26">
    <defs>
     <path d="M -5 5 
L 5 5 
L 5 -5 
L -5 -5 
z
" id="mbb667ae1e9" style="stroke:#1c00e3;stroke-linejoin:miter;"/>
    </defs>
    <g clip-path="url(#p56cd2e45a8)">
     <use style="fill:#1c00e3;opacity:0.4;stroke:#1c00e3;stroke-linejoin:miter;" x="89.581893" xlink:href="#mbb667ae1e9" y="262.986364"/>
     <use style="fill:#1c00e3;opacity:0.4;stroke:#1c00e3;stroke-linejoin:miter;" x="107.133034" xlink:href="#mbb667ae1e9" y="251.374513"/>
     <use style="fill:#1c00e3;opacity:0.4;stroke:#1c00e3;stroke-linejoin:miter;" x="124.684174" xlink:href="#mbb667ae1e9" y="239.825706"/>
     <use style="fill:#1c00e3;opacity:0.4;stroke:#1c00e3;stroke-linejoin:miter;" x="142.235315" xlink:href="#mbb667ae1e9" y="228.267788"/>
     <use style="fill:#1c00e3;opacity:0.4;stroke:#1c00e3;stroke-linejoin:miter;" x="159.786456" xlink:href="#mbb667ae1e9" y="216.369038"/>
     <use style="fill:#1c00e3;opacity:0.4;stroke:#1c00e3;stroke-linejoin:miter;" x="177.337596" xlink:href="#mbb667ae1e9" y="203.308049"/>
     <use style="fill:#1c00e3;opacity:0.4;stroke:#1c00e3;stroke-linejoin:miter;" x="194.888737" xlink:href="#mbb667ae1e9" y="191.718646"/>
     <use style="fill:#1c00e3;opacity:0.4;stroke:#1c00e3;stroke-linejoin:miter;" x="212.439877" xlink:href="#mbb667ae1e9" y="180.030097"/>
     <use style="fill:#1c00e3;opacity:0.4;stroke:#1c00e3;stroke-linejoin:miter;" x="229.991018" xlink:href="#mbb667ae1e9" y="168.296546"/>
     <use style="fill:#1c00e3;opacity:0.4;stroke:#1c00e3;stroke-linejoin:miter;" x="247.542158" xlink:href="#mbb667ae1e9" y="155.200029"/>
     <use style="fill:#1c00e3;opacity:0.4;stroke:#1c00e3;stroke-linejoin:miter;" x="265.093299" xlink:href="#mbb667ae1e9" y="143.949471"/>
     <use style="fill:#1c00e3;opacity:0.4;stroke:#1c00e3;stroke-linejoin:miter;" x="282.64444" xlink:href="#mbb667ae1e9" y="132.003214"/>
     <use style="fill:#1c00e3;opacity:0.4;stroke:#1c00e3;stroke-linejoin:miter;" x="300.19558" xlink:href="#mbb667ae1e9" y="120.810608"/>
    </g>
   </g>
   <g id="line2d_27">
    <path clip-path="url(#p56cd2e45a8)" d="M 89.581893 262.986364 
L 93.969678 260.081036 
L 98.357464 257.175708 
L 102.745249 254.27038 
L 107.133034 251.365053 
L 111.520819 248.459725 
L 115.908604 245.554397 
L 120.296389 242.64907 
L 124.684174 239.743742 
L 129.07196 236.838414 
L 133.459745 233.933086 
L 137.84753 231.027759 
L 142.235315 228.122431 
L 146.6231 225.217103 
L 151.010885 222.311775 
L 155.39867 219.406448 
L 159.786456 216.50112 
L 164.174241 213.595792 
L 168.562026 210.690465 
L 172.949811 207.785137 
L 177.337596 204.879809 
L 181.725381 201.974481 
L 186.113166 199.069154 
L 190.500952 196.163826 
L 194.888737 193.258498 
L 199.276522 190.353171 
L 203.664307 187.447843 
L 208.052092 184.542515 
L 212.439877 181.637187 
L 216.827662 178.73186 
L 221.215448 175.826532 
L 225.603233 172.921204 
L 229.991018 170.015876 
L 234.378803 167.110549 
L 238.766588 164.205221 
L 243.154373 161.299893 
L 247.542158 158.394566 
L 251.929944 155.489238 
L 256.317729 152.58391 
L 260.705514 149.678582 
L 265.093299 146.773255 
L 269.481084 143.867927 
L 273.868869 140.962599 
L 278.256654 138.057271 
L 282.64444 135.151944 
L 287.032225 132.246616 
L 291.42001 129.341288 
L 295.807795 126.435961 
L 300.19558 123.530633 
L 304.583365 120.625305 
L 308.97115 117.719977 
" style="fill:none;stroke:#1c00e3;stroke-linecap:square;stroke-width:1.5;"/>
   </g>
   <g id="patch_3">
    <path d="M 78.61243 275 
L 78.61243 10.7 
" style="fill:none;stroke:#000000;stroke-linecap:square;stroke-linejoin:miter;stroke-width:0.8;"/>
   </g>
   <g id="patch_4">
    <path d="M 319.940613 275 
L 319.940613 10.7 
" style="fill:none;stroke:#000000;stroke-linecap:square;stroke-linejoin:miter;stroke-width:0.8;"/>
   </g>
   <g id="patch_5">
    <path d="M 78.61243 275 
L 319.940613 275 
" style="fill:none;stroke:#000000;stroke-linecap:square;stroke-linejoin:miter;stroke-width:0.8;"/>
   </g>
   <g id="patch_6">
    <path d="M 78.61243 10.7 
L 319.940613 10.7 
" style="fill:none;stroke:#000000;stroke-linecap:square;stroke-linejoin:miter;stroke-width:0.8;"/>
   </g>
   <g id="legend_1">
    <g id="patch_7">
     <path d="M 85.61243 146.68276 
L 156.17955 146.68276 
Q 158.17955 146.68276 158.17955 144.68276 
L 158.17955 17.7 
Q 158.17955 15.7 156.17955 15.7 
L 85.61243 15.7 
Q 83.61243 15.7 83.61243 17.7 
L 83.61243 144.68276 
Q 83.61243 146.68276 85.61243 146.68276 
z
" style="fill:#ffffff;opacity:0.8;stroke:#cccccc;stroke-linejoin:miter;"/>
    </g>
    <g id="line2d_28"/>
    <g id="line2d_29">
     <g>
      <use style="fill:#1ce300;opacity:0.4;stroke:#1ce300;stroke-linejoin:miter;" x="97.61243" xlink:href="#m70e5288d45" y="23.29832"/>
     </g>
    </g>
    <g id="text_12">
     <!-- $\delta=-5.0$ -->
     <defs>
      <path d="M 26 43.671875 
C 13.203125 40.578125 4 27.3125 4 15.640625 
C 4 4.984375 11.203125 -1 19.203125 -1 
C 31 -1 39 15.15625 39 28.40625 
C 39 37.375 34.796875 42.875 32.296875 46.15625 
C 28.59375 50.84375 22.59375 58.53125 22.59375 63.3125 
C 22.59375 65.015625 23.90625 68 28.296875 68 
C 31.40625 68 33.296875 66.90625 36.296875 65.203125 
C 37.203125 64.59375 39.5 63.3125 40.796875 63.3125 
C 42.90625 63.3125 44.40625 65.390625 44.40625 66.984375 
C 44.40625 68.890625 42.90625 69.1875 39.40625 69.984375 
C 34.703125 70.984375 33.296875 70.984375 31.59375 70.984375 
C 29.90625 70.984375 20.09375 70.984375 20.09375 60.8125 
C 20.09375 55.921875 22.59375 50.25 26 43.671875 
z
M 27.09375 41.703125 
C 30.90625 33.828125 32.40625 30.84375 32.40625 24.375 
C 32.40625 16.609375 28.203125 0.984375 19.296875 0.984375 
C 15.40625 0.984375 9.796875 3.578125 9.796875 12.828125 
C 9.796875 19.296875 13.5 38.109375 27.09375 41.703125 
z
" id="CMMI12-14"/>
      <path d="M 64.296875 31.515625 
C 65.796875 31.515625 67.296875 31.515625 67.296875 33.203125 
C 67.296875 35 65.59375 35 63.90625 35 
L 8 35 
C 6.296875 35 4.59375 35 4.59375 33.203125 
C 4.59375 31.515625 6.09375 31.515625 7.59375 31.515625 
z
M 63.90625 14 
C 65.59375 14 67.296875 14 67.296875 15.796875 
C 67.296875 17.484375 65.796875 17.484375 64.296875 17.484375 
L 7.59375 17.484375 
C 6.09375 17.484375 4.59375 17.484375 4.59375 15.796875 
C 4.59375 14 6.296875 14 8 14 
z
" id="CMR17-61"/>
      <path d="M 65.90625 23 
C 67.59375 23 69.40625 23 69.40625 25 
C 69.40625 27 67.59375 27 65.90625 27 
L 11.796875 27 
C 10.09375 27 8.296875 27 8.296875 25 
C 8.296875 23 10.09375 23 11.796875 23 
z
" id="CMSY10-0"/>
     </defs>
     <g transform="translate(115.61243 26.79832)scale(0.1 -0.1)">
      <use transform="scale(0.996264)" xlink:href="#CMMI12-14"/>
      <use transform="translate(74.615395 0)scale(0.996264)" xlink:href="#CMR17-61"/>
      <use transform="translate(174.004192 0)scale(0.996264)" xlink:href="#CMSY10-0"/>
      <use transform="translate(251.49166 0)scale(0.996264)" xlink:href="#CMR17-53"/>
      <use transform="translate(297.182137 0)scale(0.996264)" xlink:href="#CMMI12-58"/>
      <use transform="translate(324.279314 0)scale(0.996264)" xlink:href="#CMR17-48"/>
     </g>
    </g>
    <g id="line2d_30"/>
    <g id="line2d_31">
     <g>
      <use style="fill:#54ab00;opacity:0.4;stroke:#54ab00;" x="97.61243" xlink:href="#m2ecc547c9e" y="37.518627"/>
     </g>
    </g>
    <g id="text_13">
     <!-- $\delta=-1.0$ -->
     <g transform="translate(115.61243 41.018627)scale(0.1 -0.1)">
      <use transform="scale(0.996264)" xlink:href="#CMMI12-14"/>
      <use transform="translate(74.615395 0)scale(0.996264)" xlink:href="#CMR17-61"/>
      <use transform="translate(174.004192 0)scale(0.996264)" xlink:href="#CMSY10-0"/>
      <use transform="translate(251.49166 0)scale(0.996264)" xlink:href="#CMR17-49"/>
      <use transform="translate(297.182137 0)scale(0.996264)" xlink:href="#CMMI12-58"/>
      <use transform="translate(324.279314 0)scale(0.996264)" xlink:href="#CMR17-48"/>
     </g>
    </g>
    <g id="line2d_32"/>
    <g id="line2d_33">
     <g>
      <use style="fill:#8e7100;opacity:0.4;stroke:#8e7100;stroke-linejoin:miter;" x="97.61243" xlink:href="#mb256511a82" y="51.738934"/>
     </g>
    </g>
    <g id="text_14">
     <!-- $\delta=-0.1$ -->
     <g transform="translate(115.61243 55.238934)scale(0.1 -0.1)">
      <use transform="scale(0.996264)" xlink:href="#CMMI12-14"/>
      <use transform="translate(74.615395 0)scale(0.996264)" xlink:href="#CMR17-61"/>
      <use transform="translate(174.004192 0)scale(0.996264)" xlink:href="#CMSY10-0"/>
      <use transform="translate(251.49166 0)scale(0.996264)" xlink:href="#CMR17-48"/>
      <use transform="translate(297.182137 0)scale(0.996264)" xlink:href="#CMMI12-58"/>
      <use transform="translate(324.279314 0)scale(0.996264)" xlink:href="#CMR17-49"/>
     </g>
    </g>
    <g id="line2d_34"/>
    <g id="line2d_35">
     <g>
      <use style="fill:#c63900;opacity:0.4;stroke:#c63900;stroke-linejoin:miter;" x="97.61243" xlink:href="#m17bd9b6820" y="65.95924"/>
     </g>
    </g>
    <g id="text_15">
     <!-- $\delta=-0.0$ -->
     <g transform="translate(115.61243 69.45924)scale(0.1 -0.1)">
      <use transform="scale(0.996264)" xlink:href="#CMMI12-14"/>
      <use transform="translate(74.615395 0)scale(0.996264)" xlink:href="#CMR17-61"/>
      <use transform="translate(174.004192 0)scale(0.996264)" xlink:href="#CMSY10-0"/>
      <use transform="translate(251.49166 0)scale(0.996264)" xlink:href="#CMR17-48"/>
      <use transform="translate(297.182137 0)scale(0.996264)" xlink:href="#CMMI12-58"/>
      <use transform="translate(324.279314 0)scale(0.996264)" xlink:href="#CMR17-48"/>
     </g>
    </g>
    <g id="line2d_36"/>
    <g id="line2d_37">
     <g>
      <use style="fill:#fe0100;opacity:0.4;stroke:#fe0100;stroke-linejoin:miter;" x="97.61243" xlink:href="#m89f9b951d9" y="80.179547"/>
     </g>
    </g>
    <g id="text_16">
     <!-- $\delta=0.0$ -->
     <g transform="translate(115.61243 83.679547)scale(0.1 -0.1)">
      <use transform="scale(0.996264)" xlink:href="#CMMI12-14"/>
      <use transform="translate(74.615395 0)scale(0.996264)" xlink:href="#CMR17-61"/>
      <use transform="translate(174.004192 0)scale(0.996264)" xlink:href="#CMR17-48"/>
      <use transform="translate(219.694669 0)scale(0.996264)" xlink:href="#CMMI12-58"/>
      <use transform="translate(246.791846 0)scale(0.996264)" xlink:href="#CMR17-48"/>
     </g>
    </g>
    <g id="line2d_38"/>
    <g id="line2d_39">
     <g>
      <use style="fill:#c60039;opacity:0.4;stroke:#c60039;stroke-linejoin:miter;" x="97.61243" xlink:href="#mb7b826046f" y="94.399854"/>
     </g>
    </g>
    <g id="text_17">
     <!-- $\delta=0.1$ -->
     <g transform="translate(115.61243 97.899854)scale(0.1 -0.1)">
      <use transform="scale(0.996264)" xlink:href="#CMMI12-14"/>
      <use transform="translate(74.615395 0)scale(0.996264)" xlink:href="#CMR17-61"/>
      <use transform="translate(174.004192 0)scale(0.996264)" xlink:href="#CMR17-48"/>
      <use transform="translate(219.694669 0)scale(0.996264)" xlink:href="#CMMI12-58"/>
      <use transform="translate(246.791846 0)scale(0.996264)" xlink:href="#CMR17-49"/>
     </g>
    </g>
    <g id="line2d_40"/>
    <g id="line2d_41">
     <g>
      <use style="fill:#8e0071;opacity:0.4;stroke:#8e0071;stroke-linejoin:miter;" x="97.61243" xlink:href="#md1b9f5ab26" y="108.62016"/>
     </g>
    </g>
    <g id="text_18">
     <!-- $\delta=1.0$ -->
     <g transform="translate(115.61243 112.12016)scale(0.1 -0.1)">
      <use transform="scale(0.996264)" xlink:href="#CMMI12-14"/>
      <use transform="translate(74.615395 0)scale(0.996264)" xlink:href="#CMR17-61"/>
      <use transform="translate(174.004192 0)scale(0.996264)" xlink:href="#CMR17-49"/>
      <use transform="translate(219.694669 0)scale(0.996264)" xlink:href="#CMMI12-58"/>
      <use transform="translate(246.791846 0)scale(0.996264)" xlink:href="#CMR17-48"/>
     </g>
    </g>
    <g id="line2d_42"/>
    <g id="line2d_43">
     <g>
      <use style="fill:#5400ab;opacity:0.4;stroke:#5400ab;" x="97.61243" xlink:href="#m60a3d4fb0c" y="122.840467"/>
     </g>
    </g>
    <g id="text_19">
     <!-- $\delta=1.5$ -->
     <g transform="translate(115.61243 126.340467)scale(0.1 -0.1)">
      <use transform="scale(0.996264)" xlink:href="#CMMI12-14"/>
      <use transform="translate(74.615395 0)scale(0.996264)" xlink:href="#CMR17-61"/>
      <use transform="translate(174.004192 0)scale(0.996264)" xlink:href="#CMR17-49"/>
      <use transform="translate(219.694669 0)scale(0.996264)" xlink:href="#CMMI12-58"/>
      <use transform="translate(246.791846 0)scale(0.996264)" xlink:href="#CMR17-53"/>
     </g>
    </g>
    <g id="line2d_44"/>
    <g id="line2d_45">
     <g>
      <use style="fill:#1c00e3;opacity:0.4;stroke:#1c00e3;stroke-linejoin:miter;" x="97.61243" xlink:href="#mbb667ae1e9" y="137.060774"/>
     </g>
    </g>
    <g id="text_20">
     <!-- $\delta=2.0$ -->
     <g transform="translate(115.61243 140.560774)scale(0.1 -0.1)">
      <use transform="scale(0.996264)" xlink:href="#CMMI12-14"/>
      <use transform="translate(74.615395 0)scale(0.996264)" xlink:href="#CMR17-61"/>
      <use transform="translate(174.004192 0)scale(0.996264)" xlink:href="#CMR17-50"/>
      <use transform="translate(219.694669 0)scale(0.996264)" xlink:href="#CMMI12-58"/>
      <use transform="translate(246.791846 0)scale(0.996264)" xlink:href="#CMR17-48"/>
     </g>
    </g>
   </g>
  </g>
 </g>
 <defs>
  <clipPath id="p56cd2e45a8">
   <rect height="264.3" width="241.328183" x="78.61243" y="10.7"/>
  </clipPath>
 </defs>
</svg>
