<?xml version="1.0" encoding="utf-8" standalone="no"?>
<!DOCTYPE svg PUBLIC "-//W3C//DTD SVG 1.1//EN"
  "http://www.w3.org/Graphics/SVG/1.1/DTD/svg11.dtd">
<!-- Created with matplotlib (http://matplotlib.org/) -->
<svg height="540pt" version="1.1" viewBox="0 0 540 540" width="540pt" xmlns="http://www.w3.org/2000/svg" xmlns:xlink="http://www.w3.org/1999/xlink">
 <defs>
  <style type="text/css">
*{stroke-linecap:butt;stroke-linejoin:round;}
  </style>
 </defs>
 <g id="figure_1">
  <g id="patch_1">
   <path d="M 0 540 
L 540 540 
L 540 0 
L 0 0 
z
" style="fill:#ffffff;"/>
  </g>
  <g id="axes_1">
   <g id="patch_2">
    <path d="M 85.359002 468.47472 
L 514.9 468.47472 
L 514.9 25.1 
L 85.359002 25.1 
z
" style="fill:#ffffff;"/>
   </g>
   <g id="matplotlib.axis_1">
    <g id="xtick_1">
     <g id="line2d_1">
      <defs>
       <path d="M 0 0 
L 0 3.5 
" id="mc96e9ffe07" style="stroke:#000000;stroke-width:0.8;"/>
      </defs>
      <g>
       <use style="stroke:#000000;stroke-width:0.8;" x="85.594529" xlink:href="#mc96e9ffe07" y="468.47472"/>
      </g>
     </g>
     <g id="text_1">
      <!-- $0.0$ -->
      <defs>
       <path d="M 42 31.640625 
C 42 37.75 41.90625 48.125 37.703125 56.109375 
C 34 63.109375 28.09375 65.59375 22.90625 65.59375 
C 18.09375 65.59375 12 63.40625 8.203125 56.203125 
C 4.203125 48.71875 3.796875 39.4375 3.796875 31.640625 
C 3.796875 25.953125 3.90625 17.28125 7 9.671875 
C 11.296875 -0.609375 19 -2 22.90625 -2 
C 27.5 -2 34.5 -0.109375 38.59375 9.375 
C 41.59375 16.28125 42 24.359375 42 31.640625 
z
M 22.90625 -0.40625 
C 16.5 -0.40625 12.703125 5.078125 11.296875 12.6875 
C 10.203125 18.5625 10.203125 27.15625 10.203125 32.75 
C 10.203125 40.4375 10.203125 46.828125 11.5 52.921875 
C 13.40625 61.390625 19 64 22.90625 64 
C 27 64 32.296875 61.296875 34.203125 53.125 
C 35.5 47.4375 35.59375 40.734375 35.59375 32.75 
C 35.59375 26.25 35.59375 18.265625 34.40625 12.375 
C 32.296875 1.484375 26.40625 -0.40625 22.90625 -0.40625 
z
" id="CMR17-48"/>
       <path d="M 18.40625 4.796875 
C 18.40625 7.6875 16 9.671875 13.59375 9.671875 
C 10.703125 9.671875 8.703125 7.28125 8.703125 4.890625 
C 8.703125 2 11.09375 0 13.5 0 
C 16.40625 0 18.40625 2.390625 18.40625 4.796875 
z
" id="CMMI12-58"/>
      </defs>
      <g transform="translate(73.746716 489.67136)scale(0.2 -0.2)">
       <use transform="scale(0.996264)" xlink:href="#CMR17-48"/>
       <use transform="translate(45.690477 0)scale(0.996264)" xlink:href="#CMMI12-58"/>
       <use transform="translate(72.787654 0)scale(0.996264)" xlink:href="#CMR17-48"/>
      </g>
     </g>
    </g>
    <g id="xtick_2">
     <g id="line2d_2">
      <g>
       <use style="stroke:#000000;stroke-width:0.8;" x="181.493616" xlink:href="#mc96e9ffe07" y="468.47472"/>
      </g>
     </g>
     <g id="text_2">
      <!-- $0.5$ -->
      <defs>
       <path d="M 11.40625 57.6875 
C 12.40625 57.28125 16.5 56 20.703125 56 
C 30 56 35.09375 61.109375 38 64.0625 
C 38 64.953125 38 65.5 37.40625 65.5 
C 37.296875 65.5 37.09375 65.5 36.296875 65.046875 
C 32.796875 63.40625 28.703125 62.078125 23.703125 62.078125 
C 20.703125 62.078125 16.203125 62.484375 11.296875 64.671875 
C 10.203125 65.171875 10 65.171875 9.90625 65.171875 
C 9.40625 65.171875 9.296875 65.0625 9.296875 63.078125 
L 9.296875 34.421875 
C 9.296875 32.640625 9.296875 32.140625 10.296875 32.140625 
C 10.796875 32.140625 11 32.34375 11.5 33.03125 
C 14.703125 37.515625 19.09375 39.40625 24.09375 39.40625 
C 27.59375 39.40625 35.09375 37.21875 35.09375 20.140625 
C 35.09375 16.953125 35.09375 11.171875 32.09375 6.578125 
C 29.59375 2.484375 25.703125 0.390625 21.40625 0.390625 
C 14.796875 0.390625 8.09375 5 6.296875 12.71875 
C 6.703125 12.609375 7.5 12.421875 7.90625 12.421875 
C 9.203125 12.421875 11.703125 13.125 11.703125 16.21875 
C 11.703125 18.90625 9.796875 20 7.90625 20 
C 5.59375 20 4.09375 18.59375 4.09375 15.796875 
C 4.09375 7.09375 11 -2 21.59375 -2 
C 31.90625 -2 41.703125 6.875 41.703125 19.75 
C 41.703125 31.71875 33.90625 41 24.203125 41 
C 19.09375 41 14.796875 39.109375 11.40625 35.53125 
z
" id="CMR17-53"/>
      </defs>
      <g transform="translate(169.645803 489.67136)scale(0.2 -0.2)">
       <use transform="scale(0.996264)" xlink:href="#CMR17-48"/>
       <use transform="translate(45.690477 0)scale(0.996264)" xlink:href="#CMMI12-58"/>
       <use transform="translate(72.787654 0)scale(0.996264)" xlink:href="#CMR17-53"/>
      </g>
     </g>
    </g>
    <g id="xtick_3">
     <g id="line2d_3">
      <g>
       <use style="stroke:#000000;stroke-width:0.8;" x="277.392704" xlink:href="#mc96e9ffe07" y="468.47472"/>
      </g>
     </g>
     <g id="text_3">
      <!-- $1.0$ -->
      <defs>
       <path d="M 26.59375 63.40625 
C 26.59375 65.5 26.5 65.5 25.09375 65.5 
C 21.203125 61.1875 15.296875 59.796875 9.703125 59.796875 
C 9.40625 59.796875 8.90625 59.796875 8.796875 59.5 
C 8.703125 59.296875 8.703125 59.09375 8.703125 57 
C 11.796875 57 17 57.59375 21 59.984375 
L 21 7.203125 
C 21 3.6875 20.796875 2.5 12.203125 2.5 
L 9.203125 2.5 
L 9.203125 0 
C 14 0 19 0 23.796875 0 
C 28.59375 0 33.59375 0 38.40625 0 
L 38.40625 2.5 
L 35.40625 2.5 
C 26.796875 2.5 26.59375 3.59375 26.59375 7.15625 
z
" id="CMR17-49"/>
      </defs>
      <g transform="translate(265.544891 489.67136)scale(0.2 -0.2)">
       <use transform="scale(0.996264)" xlink:href="#CMR17-49"/>
       <use transform="translate(45.690477 0)scale(0.996264)" xlink:href="#CMMI12-58"/>
       <use transform="translate(72.787654 0)scale(0.996264)" xlink:href="#CMR17-48"/>
      </g>
     </g>
    </g>
    <g id="xtick_4">
     <g id="line2d_4">
      <g>
       <use style="stroke:#000000;stroke-width:0.8;" x="373.291792" xlink:href="#mc96e9ffe07" y="468.47472"/>
      </g>
     </g>
     <g id="text_4">
      <!-- $1.5$ -->
      <g transform="translate(361.443979 489.67136)scale(0.2 -0.2)">
       <use transform="scale(0.996264)" xlink:href="#CMR17-49"/>
       <use transform="translate(45.690477 0)scale(0.996264)" xlink:href="#CMMI12-58"/>
       <use transform="translate(72.787654 0)scale(0.996264)" xlink:href="#CMR17-53"/>
      </g>
     </g>
    </g>
    <g id="xtick_5">
     <g id="line2d_5">
      <g>
       <use style="stroke:#000000;stroke-width:0.8;" x="469.19088" xlink:href="#mc96e9ffe07" y="468.47472"/>
      </g>
     </g>
     <g id="text_5">
      <!-- $2.0$ -->
      <defs>
       <path d="M 41.703125 15.453125 
L 39.90625 15.453125 
C 38.90625 8.375 38.09375 7.171875 37.703125 6.5625 
C 37.203125 5.765625 30 5.765625 28.59375 5.765625 
L 9.40625 5.765625 
C 13 9.671875 20 16.75 28.5 24.953125 
C 34.59375 30.734375 41.703125 37.53125 41.703125 47.421875 
C 41.703125 59.21875 32.296875 66 21.796875 66 
C 10.796875 66 4.09375 56.3125 4.09375 47.34375 
C 4.09375 43.4375 7 42.9375 8.203125 42.9375 
C 9.203125 42.9375 12.203125 43.546875 12.203125 47.03125 
C 12.203125 50.109375 9.59375 51 8.203125 51 
C 7.59375 51 7 50.90625 6.59375 50.703125 
C 8.5 59.21875 14.296875 63.40625 20.40625 63.40625 
C 29.09375 63.40625 34.796875 56.515625 34.796875 47.421875 
C 34.796875 38.734375 29.703125 31.25 24 24.75 
L 4.09375 2.28125 
L 4.09375 0 
L 39.296875 0 
z
" id="CMR17-50"/>
      </defs>
      <g transform="translate(457.343067 489.67136)scale(0.2 -0.2)">
       <use transform="scale(0.996264)" xlink:href="#CMR17-50"/>
       <use transform="translate(45.690477 0)scale(0.996264)" xlink:href="#CMMI12-58"/>
       <use transform="translate(72.787654 0)scale(0.996264)" xlink:href="#CMR17-48"/>
      </g>
     </g>
    </g>
    <g id="text_6">
     <!-- Relative fraction of singletons, $f_s(k)/f_s(k=1)$ -->
     <defs>
      <path d="M 18.59375 31.78125 
L 42.59375 31.78125 
C 50.90625 31.78125 54.59375 27.71875 54.59375 18.546875 
L 54.5 11.90625 
C 54.5 7.3125 55.296875 2.828125 56.59375 -0.21875 
L 67.90625 -0.21875 
L 67.90625 2.125 
C 64.40625 4.5625 63.703125 7.21875 63.5 17.078125 
C 63.40625 29.265625 61.5 32.9375 53.59375 36.390625 
C 61.796875 40.359375 65.09375 45.40625 65.09375 53.65625 
C 65.09375 66.140625 57.203125 73 42.90625 73 
L 9.296875 73 
L 9.296875 -0.21875 
L 18.59375 -0.21875 
z
M 18.59375 40 
L 18.59375 64.78125 
L 41.09375 64.78125 
C 46.296875 64.78125 49.296875 64 51.59375 62.015625 
C 54.09375 59.9375 55.40625 56.6875 55.40625 52.34375 
C 55.40625 43.84375 51 40 41.09375 40 
z
" id="Nimbus_Sans_L_Regular-82"/>
      <path d="M 51.296875 23.890625 
C 51.296875 31.78125 50.703125 36.53125 49.203125 40.375 
C 45.796875 48.859375 37.796875 54 28 54 
C 13.40625 54 4 42.84375 4 25.703125 
C 4 8.546875 13.09375 -2 27.796875 -2 
C 39.796875 -2 48.09375 4.84375 50.203125 16.3125 
L 41.796875 16.3125 
C 39.5 9.34375 34.796875 5.703125 28.09375 5.703125 
C 22.796875 5.703125 18.296875 8.125 15.5 12.578125 
C 13.5 15.59375 12.796875 18.640625 12.703125 23.890625 
z
M 12.90625 31 
C 13.59375 40.265625 19.5 46.28125 27.90625 46.28125 
C 36.09375 46.28125 42.40625 39.53125 42.40625 31 
C 42.40625 31 42.40625 31 42.296875 31 
z
" id="Nimbus_Sans_L_Regular-101"/>
      <path d="M 15.203125 73 
L 6.796875 73 
L 6.796875 -0.03125 
L 15.203125 -0.03125 
z
" id="Nimbus_Sans_L_Regular-108"/>
      <path d="M 53.5 5.203125 
C 52.59375 5 52.203125 5 51.703125 5 
C 48.796875 5 47.203125 6.484375 47.203125 9.078125 
L 47.203125 39.765625 
C 47.203125 49.015625 40.40625 54 27.5 54 
C 19.90625 54 13.59375 51.8125 10.09375 47.90625 
C 7.703125 45.203125 6.703125 42.21875 6.5 37.03125 
L 14.90625 37.03125 
C 15.59375 43.390625 19.40625 46.28125 27.203125 46.28125 
C 34.703125 46.28125 38.90625 43.484375 38.90625 38.515625 
L 38.90625 36.328125 
C 38.90625 32.828125 36.796875 31.34375 30.203125 30.546875 
C 18.40625 29.0625 16.59375 28.65625 13.40625 27.359375 
C 7.296875 24.875 4.203125 20.1875 4.203125 13.421875 
C 4.203125 3.96875 10.796875 -2 21.40625 -2 
C 28 -2 33.296875 0.296875 39.203125 5.703125 
C 39.796875 0.390625 42.40625 -2 47.796875 -2 
C 49.5 -2 50.796875 -1.8125 53.5 -1.09375 
z
M 38.90625 16.75 
C 38.90625 13.953125 38.09375 12.265625 35.59375 9.984375 
C 32.203125 6.890625 28.09375 5.3125 23.203125 5.3125 
C 16.703125 5.3125 12.90625 8.390625 12.90625 13.65625 
C 12.90625 19.140625 16.59375 21.921875 25.5 23.21875 
C 34.296875 24.40625 36.09375 24.8125 38.90625 26.09375 
z
" id="Nimbus_Sans_L_Regular-97"/>
      <path d="M 25.40625 52.8125 
L 16.796875 52.8125 
L 16.796875 67 
L 8.5 67 
L 8.5 52.8125 
L 1.40625 52.8125 
L 1.40625 46 
L 8.5 46 
L 8.5 6.3125 
C 8.5 1 12.09375 -2 18.59375 -2 
C 20.59375 -2 22.59375 -1.8125 25.40625 -1.296875 
L 25.40625 5.71875 
C 24.296875 5.40625 23 5.3125 21.40625 5.3125 
C 17.796875 5.3125 16.796875 6.3125 16.796875 10.015625 
L 16.796875 46 
L 25.40625 46 
z
" id="Nimbus_Sans_L_Regular-116"/>
      <path d="M 15 52.484375 
L 6.703125 52.484375 
L 6.703125 0 
L 15 0 
z
M 15 73 
L 6.59375 73 
L 6.59375 62.484375 
L 15 62.484375 
z
" id="Nimbus_Sans_L_Regular-105"/>
      <path d="M 28.5 0 
L 48.59375 52.5 
L 39.203125 52.5 
L 24.40625 9.921875 
L 10.40625 52.5 
L 1 52.5 
L 19.40625 0 
z
" id="Nimbus_Sans_L_Regular-118"/>
      <path d="M 25.796875 52 
L 17.09375 52 
L 17.09375 60.25 
C 17.09375 63.78125 19.09375 65.59375 22.90625 65.59375 
C 23.59375 65.59375 23.90625 65.59375 25.796875 65.59375 
L 25.796875 72.5 
C 23.90625 72.90625 22.796875 73 21.09375 73 
C 13.40625 73 8.796875 68.5625 8.796875 60.984375 
L 8.796875 52 
L 1.796875 52 
L 1.796875 45.1875 
L 8.796875 45.1875 
L 8.796875 -0.40625 
L 17.09375 -0.40625 
L 17.09375 45.1875 
L 25.796875 45.1875 
z
" id="Nimbus_Sans_L_Regular-102"/>
      <path d="M 6.90625 52.484375 
L 6.90625 0 
L 15.296875 0 
L 15.296875 27.203125 
C 15.296875 34.703125 17.203125 39.609375 21.203125 42.5 
C 23.796875 44.40625 26.296875 45 32.09375 45 
L 32.09375 53.625 
C 30.703125 53.8125 30 53.8125 28.90625 53.8125 
C 23.5 53.8125 19.40625 50.625 14.59375 42.90625 
L 14.59375 52.484375 
z
" id="Nimbus_Sans_L_Regular-114"/>
      <path d="M 47.09375 34.9375 
C 46.703125 40.03125 45.59375 43.328125 43.59375 46.21875 
C 40 51.109375 33.703125 54 26.40625 54 
C 12.296875 54 3.09375 42.84375 3.09375 25.5 
C 3.09375 8.65625 12.09375 -2 26.296875 -2 
C 38.796875 -2 46.703125 5.46875 47.703125 18.234375 
L 39.296875 18.234375 
C 37.90625 9.875 33.59375 5.703125 26.5 5.703125 
C 17.296875 5.703125 11.796875 13.171875 11.796875 25.5 
C 11.796875 38.53125 17.203125 46.28125 26.296875 46.28125 
C 33.296875 46.28125 37.703125 42.203125 38.703125 34.9375 
z
" id="Nimbus_Sans_L_Regular-99"/>
      <path d="M 27.203125 54 
C 12.5 54 3.59375 43.53125 3.59375 25.984375 
C 3.59375 8.453125 12.40625 -2 27.296875 -2 
C 42 -2 51 8.453125 51 25.59375 
C 51 43.625 42.296875 54 27.203125 54 
z
M 27.296875 46.28125 
C 36.703125 46.28125 42.296875 38.625 42.296875 25.703125 
C 42.296875 13.453125 36.5 5.703125 27.296875 5.703125 
C 18 5.703125 12.296875 13.359375 12.296875 25.984375 
C 12.296875 38.53125 18 46.28125 27.296875 46.28125 
z
" id="Nimbus_Sans_L_Regular-111"/>
      <path d="M 7 52.484375 
L 7 0 
L 15.40625 0 
L 15.40625 28.953125 
C 15.40625 39.671875 21 46.6875 29.59375 46.6875 
C 36.203125 46.6875 40.40625 42.671875 40.40625 36.359375 
L 40.40625 0 
L 48.703125 0 
L 48.703125 39.671875 
C 48.703125 48.390625 42.203125 54 32.09375 54 
C 24.296875 54 19.296875 50.984375 14.703125 43.6875 
L 14.703125 52.484375 
z
" id="Nimbus_Sans_L_Regular-110"/>
      <path d="M 43.796875 37.921875 
C 43.703125 48.203125 36.90625 54 24.796875 54 
C 12.59375 54 4.703125 47.71875 4.703125 38.0625 
C 4.703125 29.890625 8.90625 26.015625 21.296875 23.03125 
L 29.09375 21.140625 
C 34.90625 19.734375 37.203125 17.65625 37.203125 13.875 
C 37.203125 9 32.296875 5.703125 25 5.703125 
C 20.5 5.703125 16.703125 7 14.59375 9.1875 
C 13.296875 10.6875 12.703125 12.171875 12.203125 15.84375 
L 3.40625 15.84375 
C 3.796875 3.765625 10.59375 -2 24.296875 -2 
C 37.5 -2 45.90625 4.453125 45.90625 14.515625 
C 45.90625 22.28125 41.5 26.578125 31.09375 29.0625 
L 23.09375 30.953125 
C 16.296875 32.53125 13.40625 34.734375 13.40625 38.40625 
C 13.40625 43.1875 17.703125 46.28125 24.5 46.28125 
C 31.203125 46.28125 34.796875 43.390625 35 37.921875 
z
" id="Nimbus_Sans_L_Regular-115"/>
      <path d="M 41.203125 52.203125 
L 41.203125 44.59375 
C 37 50.8125 31.90625 53.71875 25.203125 53.71875 
C 11.90625 53.71875 2.90625 42.0625 2.90625 25 
C 2.90625 16.375 5.203125 9.34375 9.5 4.3125 
C 13.40625 -0.109375 19 -2.703125 24.5 -2.703125 
C 31.09375 -2.703125 35.703125 0.09375 40.40625 6.703125 
L 40.40625 4.03125 
C 40.40625 -3 39.5 -7.265625 37.40625 -10.140625 
C 35.203125 -13.1875 30.90625 -14.984375 25.796875 -14.984375 
C 22 -14.984375 18.59375 -14 16.296875 -12.234375 
C 14.40625 -10.75 13.59375 -9.375 13.09375 -6.34375 
L 4.59375 -6.34375 
C 5.5 -16.140625 13.203125 -22 25.5 -22 
C 33.296875 -22 40 -19.484375 43.40625 -15.296875 
C 47.40625 -10.484375 48.90625 -3.890625 48.90625 8.40625 
L 48.90625 52.203125 
z
M 26.09375 46 
C 35.09375 46 40.40625 38.359375 40.40625 25.203125 
C 40.40625 12.625 35 5 26.203125 5 
C 17.09375 5 11.59375 12.75 11.59375 25.5 
C 11.59375 38.15625 17.203125 46 26.09375 46 
z
" id="Nimbus_Sans_L_Regular-103"/>
      <path d="M 8.703125 10 
L 8.703125 -0.421875 
L 14.703125 -0.421875 
L 14.703125 -2.21875 
C 14.703125 -9.109375 13.40625 -11.09375 8.703125 -11.09375 
L 8.703125 -15 
C 15.703125 -15 19.203125 -10.53125 19.203125 -1.96875 
L 19.203125 10 
z
" id="Nimbus_Sans_L_Regular-44"/>
      <path d="M 44.59375 40.09375 
C 46.59375 40.09375 47.40625 40.09375 47.40625 42 
C 47.40625 43 46.59375 43 44.796875 43 
L 36.703125 43 
C 38.59375 53.578125 40 60.890625 40.796875 64.171875 
C 41.40625 66.640625 43.5 69 46.09375 69 
C 48.203125 69 50.296875 68.09375 51.296875 67.15625 
C 47.40625 66.75 46.203125 63.78125 46.203125 62.015625 
C 46.203125 59.953125 47.703125 58.734375 49.59375 58.734375 
C 51.59375 58.734375 54.59375 60.46875 54.59375 64.359375 
C 54.59375 68.640625 50.40625 71 46 71 
C 41.703125 71 37.5 67.71875 35.5 63.71875 
C 33.703125 60.125 32.703125 56.421875 30.40625 43 
L 23.703125 43 
C 21.796875 43 20.796875 43 20.796875 41.203125 
C 20.796875 40.09375 21.40625 40.09375 23.40625 40.09375 
L 29.796875 40.09375 
C 28 30.875 23.90625 8.46875 21.59375 -2.140625 
C 19.90625 -10.765625 18.40625 -18 13.40625 -18 
C 13.09375 -18 10.203125 -18 8.40625 -16.109375 
C 13.5 -15.703125 13.5 -11.34375 13.5 -11.25 
C 13.5 -9.265625 12 -8.078125 10.09375 -8.078125 
C 8.09375 -8.078125 5.09375 -9.765625 5.09375 -13.546875 
C 5.09375 -17.8125 9.5 -20 13.40625 -20 
C 23.59375 -20 27.796875 -1.84375 28.90625 3.109375 
C 30.703125 10.75 35.59375 37.125 36.09375 40.09375 
z
" id="CMMI12-102"/>
      <path d="M 22.796875 20 
C 24.5 19.703125 27.203125 19.109375 27.796875 19 
C 29.09375 18.625 33.59375 17.03125 33.59375 12.234375 
C 33.59375 9.15625 30.796875 1.09375 19.203125 1.09375 
C 17.09375 1.09375 9.59375 1.09375 7.59375 6.8125 
C 11.59375 6.3125 13.59375 9.421875 13.59375 11.640625 
C 13.59375 13.75 12.203125 14.84375 10.203125 14.84375 
C 8 14.84375 5.09375 13.140625 5.09375 8.625 
C 5.09375 2.703125 11.09375 -1 19.09375 -1 
C 34.296875 -1 38.796875 10.171875 38.796875 15.375 
C 38.796875 16.859375 38.796875 19.65625 35.59375 22.84375 
C 33.09375 25.25 30.703125 25.75 25.296875 26.84375 
C 22.59375 27.4375 18.296875 28.34375 18.296875 32.828125 
C 18.296875 34.828125 20.09375 42.015625 29.59375 42.015625 
C 33.796875 42.015625 37.90625 40.453125 38.90625 37 
C 34.5 37 34.296875 33.203125 34.296875 33.109375 
C 34.296875 31 36.203125 30.40625 37.09375 30.40625 
C 38.5 30.40625 41.296875 31.484375 41.296875 35.640625 
C 41.296875 39.765625 37.5 44 29.703125 44 
C 16.59375 44 13.09375 33.75 13.09375 29.671875 
C 13.09375 22.09375 20.5 20.5 22.796875 20 
z
" id="CMMI12-115"/>
      <path d="M 30.59375 -24.390625 
C 30.59375 -24.296875 30.59375 -24.09375 30.296875 -23.796875 
C 25.703125 -19.125 13.40625 -6.359375 13.40625 24.703125 
C 13.40625 55.765625 25.5 68.421875 30.40625 73.390625 
C 30.40625 73.5 30.59375 73.703125 30.59375 74 
C 30.59375 74.296875 30.296875 74.5 29.90625 74.5 
C 28.796875 74.5 20.296875 67.125 15.40625 56.15625 
C 10.40625 45.109375 9 34.359375 9 24.8125 
C 9 17.625 9.703125 5.484375 15.703125 -7.359375 
C 20.5 -17.734375 28.703125 -25 29.90625 -25 
C 30.40625 -25 30.59375 -24.796875 30.59375 -24.390625 
z
" id="CMR17-40"/>
      <path d="M 28.09375 66.515625 
C 28.203125 66.921875 28.40625 67.515625 28.40625 68 
C 28.40625 69 27.40625 69 27.203125 69 
C 27.09375 69 23.5 68.640625 21.703125 68.390625 
C 20 68.390625 18.5 68.09375 16.703125 68.09375 
C 14.296875 67.890625 13.59375 67.796875 13.59375 66 
C 13.59375 65 14.59375 65 15.59375 65 
C 20.703125 65 20.703125 64.109375 20.703125 63.125 
C 20.703125 62.734375 20.703125 62.53125 20.203125 60.75 
L 5.90625 3.875 
C 5.5 2.375 5.5 2.1875 5.5 1.578125 
C 5.5 -0.59375 7.203125 -1 8.203125 -1 
C 11 -1 11.59375 1.203125 12.40625 4.296875 
L 17.09375 22.953125 
C 24.296875 22.15625 28.59375 19.15625 28.59375 14.375 
C 28.59375 13.765625 28.59375 13.375 28.296875 11.875 
C 27.90625 10.375 27.90625 9.1875 27.90625 8.6875 
C 27.90625 2.890625 31.703125 -1 36.796875 -1 
C 41.40625 -1 43.796875 3.1875 44.59375 4.59375 
C 46.703125 8.28125 48 13.875 48 14.265625 
C 48 14.765625 47.59375 15.171875 47 15.171875 
C 46.09375 15.171875 46 14.765625 45.59375 13.171875 
C 44.203125 7.984375 42.09375 1 37 1 
C 35 1 33.703125 2 33.703125 5.78125 
C 33.703125 7.6875 34.09375 9.875 34.5 11.375 
C 34.90625 13.171875 34.90625 13.265625 34.90625 14.46875 
C 34.90625 20.359375 29.59375 23.65625 20.40625 24.84375 
C 24 27.046875 27.59375 30.9375 29 32.4375 
C 34.703125 38.8125 38.59375 42.015625 43.203125 42.015625 
C 45.5 42.015625 46.09375 41.40625 46.796875 40.8125 
C 43.09375 40.40625 41.703125 37.8125 41.703125 35.828125 
C 41.703125 33.421875 43.59375 32.625 45 32.625 
C 47.703125 32.625 50.09375 34.921875 50.09375 38.125 
C 50.09375 41.015625 47.796875 44 43.296875 44 
C 37.796875 44 33.296875 40.109375 26.203125 32.125 
C 25.203125 30.9375 21.5 27.140625 17.796875 25.75 
z
" id="CMMI12-107"/>
      <path d="M 26.296875 24.703125 
C 26.296875 31.875 25.59375 44.015625 19.59375 56.859375 
C 14.796875 67.234375 6.59375 74.5 5.40625 74.5 
C 5.09375 74.5 4.703125 74.390625 4.703125 73.890625 
C 4.703125 73.703125 4.796875 73.59375 4.90625 73.390625 
C 9.703125 68.40625 21.90625 55.75 21.90625 24.75 
C 21.90625 -6.359375 9.796875 -19.015625 4.90625 -24.015625 
C 4.796875 -24.203125 4.703125 -24.3125 4.703125 -24.5 
C 4.703125 -25 5.09375 -25 5.40625 -25 
C 6.5 -25 15 -17.625 19.90625 -6.65625 
C 24.90625 4.390625 26.296875 15.140625 26.296875 24.703125 
z
" id="CMR17-41"/>
      <path d="M 42.90625 71.28125 
C 42.90625 71.390625 43.5 72.90625 43.5 73.09375 
C 43.5 74.296875 42.5 75 41.703125 75 
C 41.203125 75 40.296875 75 39.5 72.796875 
L 6 -21.296875 
C 6 -21.40625 5.40625 -22.890625 5.40625 -23.09375 
C 5.40625 -24.296875 6.40625 -25 7.203125 -25 
C 7.796875 -25 8.703125 -24.890625 9.40625 -22.796875 
z
" id="CMMI12-61"/>
      <path d="M 64.296875 31.515625 
C 65.796875 31.515625 67.296875 31.515625 67.296875 33.203125 
C 67.296875 35 65.59375 35 63.90625 35 
L 8 35 
C 6.296875 35 4.59375 35 4.59375 33.203125 
C 4.59375 31.515625 6.09375 31.515625 7.59375 31.515625 
z
M 63.90625 14 
C 65.59375 14 67.296875 14 67.296875 15.796875 
C 67.296875 17.484375 65.796875 17.484375 64.296875 17.484375 
L 7.59375 17.484375 
C 6.09375 17.484375 4.59375 17.484375 4.59375 15.796875 
C 4.59375 14 6.296875 14 8 14 
z
" id="CMR17-61"/>
     </defs>
     <g transform="translate(101.33957 513.596641)scale(0.2 -0.2)">
      <use transform="translate(0 14.943915)scale(0.996264)" xlink:href="#Nimbus_Sans_L_Regular-82"/>
      <use transform="translate(71.929985 14.943915)scale(0.996264)" xlink:href="#Nimbus_Sans_L_Regular-101"/>
      <use transform="translate(127.321662 14.943915)scale(0.996264)" xlink:href="#Nimbus_Sans_L_Regular-108"/>
      <use transform="translate(149.438446 14.943915)scale(0.996264)" xlink:href="#Nimbus_Sans_L_Regular-97"/>
      <use transform="translate(204.830123 14.943915)scale(0.996264)" xlink:href="#Nimbus_Sans_L_Regular-116"/>
      <use transform="translate(232.525293 14.943915)scale(0.996264)" xlink:href="#Nimbus_Sans_L_Regular-105"/>
      <use transform="translate(254.642077 14.943915)scale(0.996264)" xlink:href="#Nimbus_Sans_L_Regular-118"/>
      <use transform="translate(301.964648 14.943915)scale(0.996264)" xlink:href="#Nimbus_Sans_L_Regular-101"/>
      <use transform="translate(385.051495 14.943915)scale(0.996264)" xlink:href="#Nimbus_Sans_L_Regular-102"/>
      <use transform="translate(412.746664 14.943915)scale(0.996264)" xlink:href="#Nimbus_Sans_L_Regular-114"/>
      <use transform="translate(444.925797 14.943915)scale(0.996264)" xlink:href="#Nimbus_Sans_L_Regular-97"/>
      <use transform="translate(500.317474 14.943915)scale(0.996264)" xlink:href="#Nimbus_Sans_L_Regular-99"/>
      <use transform="translate(550.130675 14.943915)scale(0.996264)" xlink:href="#Nimbus_Sans_L_Regular-116"/>
      <use transform="translate(577.825844 14.943915)scale(0.996264)" xlink:href="#Nimbus_Sans_L_Regular-105"/>
      <use transform="translate(599.942628 14.943915)scale(0.996264)" xlink:href="#Nimbus_Sans_L_Regular-111"/>
      <use transform="translate(655.334305 14.943915)scale(0.996264)" xlink:href="#Nimbus_Sans_L_Regular-110"/>
      <use transform="translate(738.421152 14.943915)scale(0.996264)" xlink:href="#Nimbus_Sans_L_Regular-111"/>
      <use transform="translate(793.812829 14.943915)scale(0.996264)" xlink:href="#Nimbus_Sans_L_Regular-102"/>
      <use transform="translate(849.203168 14.943915)scale(0.996264)" xlink:href="#Nimbus_Sans_L_Regular-115"/>
      <use transform="translate(899.016369 14.943915)scale(0.996264)" xlink:href="#Nimbus_Sans_L_Regular-105"/>
      <use transform="translate(921.133153 14.943915)scale(0.996264)" xlink:href="#Nimbus_Sans_L_Regular-110"/>
      <use transform="translate(976.52483 14.943915)scale(0.996264)" xlink:href="#Nimbus_Sans_L_Regular-103"/>
      <use transform="translate(1031.916507 14.943915)scale(0.996264)" xlink:href="#Nimbus_Sans_L_Regular-108"/>
      <use transform="translate(1054.033291 14.943915)scale(0.996264)" xlink:href="#Nimbus_Sans_L_Regular-101"/>
      <use transform="translate(1109.424968 14.943915)scale(0.996264)" xlink:href="#Nimbus_Sans_L_Regular-116"/>
      <use transform="translate(1137.120138 14.943915)scale(0.996264)" xlink:href="#Nimbus_Sans_L_Regular-111"/>
      <use transform="translate(1192.511815 14.943915)scale(0.996264)" xlink:href="#Nimbus_Sans_L_Regular-110"/>
      <use transform="translate(1247.903492 14.943915)scale(0.996264)" xlink:href="#Nimbus_Sans_L_Regular-115"/>
      <use transform="translate(1296.2233 14.943915)scale(0.996264)" xlink:href="#Nimbus_Sans_L_Regular-44"/>
      <use transform="translate(1351.613639 14.943915)scale(0.996264)" xlink:href="#CMMI12-102"/>
      <use transform="translate(1399.696876 0)scale(0.697382)" xlink:href="#CMMI12-115"/>
      <use transform="translate(1432.359897 14.943915)scale(0.996264)" xlink:href="#CMR17-40"/>
      <use transform="translate(1467.640665 14.943915)scale(0.996264)" xlink:href="#CMMI12-107"/>
      <use transform="translate(1521.719866 14.943915)scale(0.996264)" xlink:href="#CMR17-41"/>
      <use transform="translate(1557.000634 14.943915)scale(0.996264)" xlink:href="#CMMI12-61"/>
      <use transform="translate(1605.775552 14.943915)scale(0.996264)" xlink:href="#CMMI12-102"/>
      <use transform="translate(1653.85879 0)scale(0.697382)" xlink:href="#CMMI12-115"/>
      <use transform="translate(1686.521811 14.943915)scale(0.996264)" xlink:href="#CMR17-40"/>
      <use transform="translate(1721.802579 14.943915)scale(0.996264)" xlink:href="#CMMI12-107"/>
      <use transform="translate(1803.555788 14.943915)scale(0.996264)" xlink:href="#CMR17-61"/>
      <use transform="translate(1902.944585 14.943915)scale(0.996264)" xlink:href="#CMR17-49"/>
      <use transform="translate(1948.635062 14.943915)scale(0.996264)" xlink:href="#CMR17-41"/>
     </g>
    </g>
   </g>
   <g id="matplotlib.axis_2">
    <g id="ytick_1">
     <g id="line2d_6">
      <defs>
       <path d="M 0 0 
L -3.5 0 
" id="m73fd97b0b8" style="stroke:#000000;stroke-width:0.8;"/>
      </defs>
      <g>
       <use style="stroke:#000000;stroke-width:0.8;" x="85.359002" xlink:href="#m73fd97b0b8" y="452.451466"/>
      </g>
     </g>
     <g id="text_7">
      <!-- $0.00$ -->
      <g transform="translate(45.52528 459.549787)scale(0.2 -0.2)">
       <use transform="scale(0.996264)" xlink:href="#CMR17-48"/>
       <use transform="translate(45.690477 0)scale(0.996264)" xlink:href="#CMMI12-58"/>
       <use transform="translate(72.787654 0)scale(0.996264)" xlink:href="#CMR17-48"/>
       <use transform="translate(118.478131 0)scale(0.996264)" xlink:href="#CMR17-48"/>
      </g>
     </g>
    </g>
    <g id="ytick_2">
     <g id="line2d_7">
      <g>
       <use style="stroke:#000000;stroke-width:0.8;" x="85.359002" xlink:href="#m73fd97b0b8" y="395.168176"/>
      </g>
     </g>
     <g id="text_8">
      <!-- $0.25$ -->
      <g transform="translate(45.52528 402.266496)scale(0.2 -0.2)">
       <use transform="scale(0.996264)" xlink:href="#CMR17-48"/>
       <use transform="translate(45.690477 0)scale(0.996264)" xlink:href="#CMMI12-58"/>
       <use transform="translate(72.787654 0)scale(0.996264)" xlink:href="#CMR17-50"/>
       <use transform="translate(118.478131 0)scale(0.996264)" xlink:href="#CMR17-53"/>
      </g>
     </g>
    </g>
    <g id="ytick_3">
     <g id="line2d_8">
      <g>
       <use style="stroke:#000000;stroke-width:0.8;" x="85.359002" xlink:href="#m73fd97b0b8" y="337.884886"/>
      </g>
     </g>
     <g id="text_9">
      <!-- $0.50$ -->
      <g transform="translate(45.52528 344.983206)scale(0.2 -0.2)">
       <use transform="scale(0.996264)" xlink:href="#CMR17-48"/>
       <use transform="translate(45.690477 0)scale(0.996264)" xlink:href="#CMMI12-58"/>
       <use transform="translate(72.787654 0)scale(0.996264)" xlink:href="#CMR17-53"/>
       <use transform="translate(118.478131 0)scale(0.996264)" xlink:href="#CMR17-48"/>
      </g>
     </g>
    </g>
    <g id="ytick_4">
     <g id="line2d_9">
      <g>
       <use style="stroke:#000000;stroke-width:0.8;" x="85.359002" xlink:href="#m73fd97b0b8" y="280.601596"/>
      </g>
     </g>
     <g id="text_10">
      <!-- $0.75$ -->
      <defs>
       <path d="M 45.09375 61.578125 
L 45.09375 63.765625 
L 21.59375 63.765625 
C 9.90625 63.765625 9.703125 65.078125 9.296875 67 
L 7.5 67 
L 4.59375 48.34375 
L 6.40625 48.34375 
C 6.703125 50.234375 7.40625 55.3125 8.59375 57.203125 
C 9.203125 58 16.59375 58 18.296875 58 
L 40.296875 58 
L 29.203125 41.578125 
C 21.796875 30.53125 16.703125 15.609375 16.703125 2.578125 
C 16.703125 1.390625 16.703125 -2 20.296875 -2 
C 23.90625 -2 23.90625 1.390625 23.90625 2.671875 
L 23.90625 7.265625 
C 23.90625 23.5625 26.703125 34.3125 31.296875 41.1875 
z
" id="CMR17-55"/>
      </defs>
      <g transform="translate(45.52528 287.699916)scale(0.2 -0.2)">
       <use transform="scale(0.996264)" xlink:href="#CMR17-48"/>
       <use transform="translate(45.690477 0)scale(0.996264)" xlink:href="#CMMI12-58"/>
       <use transform="translate(72.787654 0)scale(0.996264)" xlink:href="#CMR17-55"/>
       <use transform="translate(118.478131 0)scale(0.996264)" xlink:href="#CMR17-53"/>
      </g>
     </g>
    </g>
    <g id="ytick_5">
     <g id="line2d_10">
      <g>
       <use style="stroke:#000000;stroke-width:0.8;" x="85.359002" xlink:href="#m73fd97b0b8" y="223.318306"/>
      </g>
     </g>
     <g id="text_11">
      <!-- $1.00$ -->
      <g transform="translate(45.52528 230.416626)scale(0.2 -0.2)">
       <use transform="scale(0.996264)" xlink:href="#CMR17-49"/>
       <use transform="translate(45.690477 0)scale(0.996264)" xlink:href="#CMMI12-58"/>
       <use transform="translate(72.787654 0)scale(0.996264)" xlink:href="#CMR17-48"/>
       <use transform="translate(118.478131 0)scale(0.996264)" xlink:href="#CMR17-48"/>
      </g>
     </g>
    </g>
    <g id="ytick_6">
     <g id="line2d_11">
      <g>
       <use style="stroke:#000000;stroke-width:0.8;" x="85.359002" xlink:href="#m73fd97b0b8" y="166.035016"/>
      </g>
     </g>
     <g id="text_12">
      <!-- $1.25$ -->
      <g transform="translate(45.52528 173.133336)scale(0.2 -0.2)">
       <use transform="scale(0.996264)" xlink:href="#CMR17-49"/>
       <use transform="translate(45.690477 0)scale(0.996264)" xlink:href="#CMMI12-58"/>
       <use transform="translate(72.787654 0)scale(0.996264)" xlink:href="#CMR17-50"/>
       <use transform="translate(118.478131 0)scale(0.996264)" xlink:href="#CMR17-53"/>
      </g>
     </g>
    </g>
    <g id="ytick_7">
     <g id="line2d_12">
      <g>
       <use style="stroke:#000000;stroke-width:0.8;" x="85.359002" xlink:href="#m73fd97b0b8" y="108.751726"/>
      </g>
     </g>
     <g id="text_13">
      <!-- $1.50$ -->
      <g transform="translate(45.52528 115.850046)scale(0.2 -0.2)">
       <use transform="scale(0.996264)" xlink:href="#CMR17-49"/>
       <use transform="translate(45.690477 0)scale(0.996264)" xlink:href="#CMMI12-58"/>
       <use transform="translate(72.787654 0)scale(0.996264)" xlink:href="#CMR17-53"/>
       <use transform="translate(118.478131 0)scale(0.996264)" xlink:href="#CMR17-48"/>
      </g>
     </g>
    </g>
    <g id="ytick_8">
     <g id="line2d_13">
      <g>
       <use style="stroke:#000000;stroke-width:0.8;" x="85.359002" xlink:href="#m73fd97b0b8" y="51.468436"/>
      </g>
     </g>
     <g id="text_14">
      <!-- $1.75$ -->
      <g transform="translate(45.52528 58.566756)scale(0.2 -0.2)">
       <use transform="scale(0.996264)" xlink:href="#CMR17-49"/>
       <use transform="translate(45.690477 0)scale(0.996264)" xlink:href="#CMMI12-58"/>
       <use transform="translate(72.787654 0)scale(0.996264)" xlink:href="#CMR17-55"/>
       <use transform="translate(118.478131 0)scale(0.996264)" xlink:href="#CMR17-53"/>
      </g>
     </g>
    </g>
    <g id="text_15">
     <!-- Relative copy number, $n(k)/n(k=1)$ -->
     <defs>
      <path d="M 5.40625 -22 
L 13.796875 -22 
L 13.796875 5 
C 18.203125 -0.421875 23.09375 -2.8125 29.90625 -2.8125 
C 43.40625 -2.8125 52.296875 8.15625 52.296875 24.984375 
C 52.296875 42.71875 43.703125 53.8125 29.796875 53.8125 
C 22.703125 53.8125 17 50.59375 13.09375 44.390625 
L 13.09375 52.328125 
L 5.40625 52.328125 
z
M 28.40625 46 
C 37.59375 46 43.59375 37.8125 43.59375 25.1875 
C 43.59375 13.171875 37.5 5 28.40625 5 
C 19.59375 5 13.796875 13.078125 13.796875 25.5 
C 13.796875 37.921875 19.59375 46 28.40625 46 
z
" id="Nimbus_Sans_L_Regular-112"/>
      <path d="M 38.796875 52.5 
L 24.296875 11.53125 
L 10.90625 52.5 
L 2 52.5 
L 19.703125 -0.328125 
L 16.5 -8.65625 
C 15.203125 -12.375 13.296875 -13.78125 9.796875 -13.78125 
C 8.59375 -13.78125 7.203125 -13.578125 5.40625 -13.171875 
L 5.40625 -20.703125 
C 7.09375 -21.59375 8.796875 -22 11 -22 
C 13.703125 -22 16.59375 -21.09375 18.796875 -19.484375 
C 21.40625 -17.578125 22.90625 -15.359375 24.5 -11.140625 
L 47.796875 52.5 
z
" id="Nimbus_Sans_L_Regular-121"/>
      <path d="M 48.203125 0.515625 
L 48.203125 53 
L 39.90625 53 
L 39.90625 23.109375 
C 39.90625 12.34375 34.296875 5.3125 25.59375 5.3125 
C 19 5.3125 14.796875 9.328125 14.796875 15.671875 
L 14.796875 53 
L 6.5 53 
L 6.5 12.375 
C 6.5 3.625 13 -2 23.203125 -2 
C 30.90625 -2 35.796875 0.703125 40.703125 7.625 
L 40.703125 0.515625 
z
" id="Nimbus_Sans_L_Regular-117"/>
      <path d="M 7 52.484375 
L 7 0 
L 15.40625 0 
L 15.40625 32.953125 
C 15.40625 40.578125 20.90625 46.6875 27.703125 46.6875 
C 33.90625 46.6875 37.40625 42.875 37.40625 36.15625 
L 37.40625 0 
L 45.796875 0 
L 45.796875 32.953125 
C 45.796875 40.578125 51.296875 46.6875 58.09375 46.6875 
C 64.203125 46.6875 67.796875 42.78125 67.796875 36.15625 
L 67.796875 0 
L 76.203125 0 
L 76.203125 39.375 
C 76.203125 48.78125 70.796875 54 61 54 
C 54 54 49.796875 51.890625 44.90625 45.984375 
C 41.796875 51.59375 37.59375 54 30.796875 54 
C 23.796875 54 19.203125 51.390625 14.703125 45.078125 
L 14.703125 52.484375 
z
" id="Nimbus_Sans_L_Regular-109"/>
      <path d="M 5.40625 73 
L 5.40625 -0.03125 
L 12.90625 -0.03125 
L 12.90625 7 
C 16.90625 0.890625 22.203125 -2 29.5 -2 
C 43.296875 -2 52.296875 9.25 52.296875 26.59375 
C 52.296875 43.53125 43.703125 54 29.90625 54 
C 22.703125 54 17.59375 51.28125 13.703125 45.390625 
L 13.703125 73 
z
M 28.296875 46.1875 
C 37.59375 46.1875 43.59375 38.125 43.59375 25.703125 
C 43.59375 13.859375 37.40625 5.8125 28.296875 5.8125 
C 19.5 5.8125 13.703125 13.765625 13.703125 26 
C 13.703125 38.234375 19.5 46.1875 28.296875 46.1875 
z
" id="Nimbus_Sans_L_Regular-98"/>
      <path d="M 20.59375 29.234375 
C 20.796875 29.84375 23.296875 34.828125 27 38.015625 
C 29.59375 40.40625 33 42.015625 36.90625 42.015625 
C 40.90625 42.015625 42.296875 39.015625 42.296875 35.03125 
C 42.296875 29.34375 38.203125 17.96875 36.203125 12.578125 
C 35.296875 10.171875 34.796875 8.875 34.796875 7.078125 
C 34.796875 2.59375 37.90625 -1 42.703125 -1 
C 52 -1 55.5 13.671875 55.5 14.265625 
C 55.5 14.765625 55.09375 15.171875 54.5 15.171875 
C 53.59375 15.171875 53.5 14.875 53 13.171875 
C 50.703125 4.984375 46.90625 1 43 1 
C 42 1 40.40625 1 40.40625 4.203125 
C 40.40625 6.703125 41.5 9.703125 42.09375 11.09375 
C 44.09375 16.609375 48.296875 27.8125 48.296875 33.515625 
C 48.296875 39.5 44.796875 44 37.203125 44 
C 28.296875 44 23.59375 37.734375 21.796875 35.234375 
C 21.5 40.90625 17.40625 44 13 44 
C 9.796875 44 7.59375 42.109375 5.90625 38.71875 
C 4.09375 35.125 2.703125 29.140625 2.703125 28.734375 
C 2.703125 28.34375 3.09375 27.84375 3.796875 27.84375 
C 4.59375 27.84375 4.703125 27.9375 5.296875 30.234375 
C 6.90625 36.328125 8.703125 42.015625 12.703125 42.015625 
C 15 42.015625 15.796875 40.40625 15.796875 37.421875 
C 15.796875 35.21875 14.796875 31.328125 14.09375 28.234375 
L 11.296875 17.46875 
C 10.90625 15.5625 9.796875 11.078125 9.296875 9.28125 
C 8.59375 6.6875 7.5 2 7.5 1.5 
C 7.5 0.09375 8.59375 -1 10.09375 -1 
C 11.296875 -1 12.703125 -0.40625 13.5 1.09375 
C 13.703125 1.59375 14.59375 5.09375 15.09375 7.078125 
L 17.296875 16.0625 
z
" id="CMMI12-110"/>
     </defs>
     <g transform="translate(36.54396 406.245369)rotate(-90)scale(0.2 -0.2)">
      <use transform="scale(0.996264)" xlink:href="#Nimbus_Sans_L_Regular-82"/>
      <use transform="translate(71.929985 0)scale(0.996264)" xlink:href="#Nimbus_Sans_L_Regular-101"/>
      <use transform="translate(127.321662 0)scale(0.996264)" xlink:href="#Nimbus_Sans_L_Regular-108"/>
      <use transform="translate(149.438446 0)scale(0.996264)" xlink:href="#Nimbus_Sans_L_Regular-97"/>
      <use transform="translate(204.830123 0)scale(0.996264)" xlink:href="#Nimbus_Sans_L_Regular-116"/>
      <use transform="translate(232.525293 0)scale(0.996264)" xlink:href="#Nimbus_Sans_L_Regular-105"/>
      <use transform="translate(254.642077 0)scale(0.996264)" xlink:href="#Nimbus_Sans_L_Regular-118"/>
      <use transform="translate(301.964648 0)scale(0.996264)" xlink:href="#Nimbus_Sans_L_Regular-101"/>
      <use transform="translate(385.051495 0)scale(0.996264)" xlink:href="#Nimbus_Sans_L_Regular-99"/>
      <use transform="translate(434.864695 0)scale(0.996264)" xlink:href="#Nimbus_Sans_L_Regular-111"/>
      <use transform="translate(490.256372 0)scale(0.996264)" xlink:href="#Nimbus_Sans_L_Regular-112"/>
      <use transform="translate(542.659941 0)scale(0.996264)" xlink:href="#Nimbus_Sans_L_Regular-121"/>
      <use transform="translate(620.168311 0)scale(0.996264)" xlink:href="#Nimbus_Sans_L_Regular-110"/>
      <use transform="translate(674.563891 0)scale(0.996264)" xlink:href="#Nimbus_Sans_L_Regular-117"/>
      <use transform="translate(729.955568 0)scale(0.996264)" xlink:href="#Nimbus_Sans_L_Regular-109"/>
      <use transform="translate(812.943998 0)scale(0.996264)" xlink:href="#Nimbus_Sans_L_Regular-98"/>
      <use transform="translate(868.335675 0)scale(0.996264)" xlink:href="#Nimbus_Sans_L_Regular-101"/>
      <use transform="translate(923.727352 0)scale(0.996264)" xlink:href="#Nimbus_Sans_L_Regular-114"/>
      <use transform="translate(951.921232 0)scale(0.996264)" xlink:href="#Nimbus_Sans_L_Regular-44"/>
      <use transform="translate(1007.311571 0)scale(0.996264)" xlink:href="#CMMI12-110"/>
      <use transform="translate(1065.541618 0)scale(0.996264)" xlink:href="#CMR17-40"/>
      <use transform="translate(1100.822386 0)scale(0.996264)" xlink:href="#CMMI12-107"/>
      <use transform="translate(1154.901587 0)scale(0.996264)" xlink:href="#CMR17-41"/>
      <use transform="translate(1190.182355 0)scale(0.996264)" xlink:href="#CMMI12-61"/>
      <use transform="translate(1238.957273 0)scale(0.996264)" xlink:href="#CMMI12-110"/>
      <use transform="translate(1297.187321 0)scale(0.996264)" xlink:href="#CMR17-40"/>
      <use transform="translate(1332.468088 0)scale(0.996264)" xlink:href="#CMMI12-107"/>
      <use transform="translate(1414.221298 0)scale(0.996264)" xlink:href="#CMR17-61"/>
      <use transform="translate(1513.610095 0)scale(0.996264)" xlink:href="#CMR17-49"/>
      <use transform="translate(1559.300572 0)scale(0.996264)" xlink:href="#CMR17-41"/>
     </g>
    </g>
   </g>
   <g id="line2d_14">
    <path clip-path="url(#p90930b01cc)" d="M 104.883593 45.253396 
L 124.158207 65.148765 
L 143.416048 85.026821 
L 162.65427 104.884626 
L 181.869357 124.718551 
L 201.056908 144.524053 
L 220.21135 164.295379 
L 239.325527 184.025143 
L 258.390105 203.703712 
L 277.392704 223.318306 
" style="fill:none;stroke:#ff0000;stroke-linecap:square;stroke-width:1.5;"/>
    <defs>
     <path d="M -5 5 
L 5 -5 
M -5 -5 
L 5 5 
" id="m1d1c79a8f7" style="stroke:#ff0000;"/>
    </defs>
    <g clip-path="url(#p90930b01cc)">
     <use style="fill:#ff0000;stroke:#ff0000;" x="104.883593" xlink:href="#m1d1c79a8f7" y="45.253396"/>
     <use style="fill:#ff0000;stroke:#ff0000;" x="124.158207" xlink:href="#m1d1c79a8f7" y="65.148765"/>
     <use style="fill:#ff0000;stroke:#ff0000;" x="143.416048" xlink:href="#m1d1c79a8f7" y="85.026821"/>
     <use style="fill:#ff0000;stroke:#ff0000;" x="162.65427" xlink:href="#m1d1c79a8f7" y="104.884626"/>
     <use style="fill:#ff0000;stroke:#ff0000;" x="181.869357" xlink:href="#m1d1c79a8f7" y="124.718551"/>
     <use style="fill:#ff0000;stroke:#ff0000;" x="201.056908" xlink:href="#m1d1c79a8f7" y="144.524053"/>
     <use style="fill:#ff0000;stroke:#ff0000;" x="220.21135" xlink:href="#m1d1c79a8f7" y="164.295379"/>
     <use style="fill:#ff0000;stroke:#ff0000;" x="239.325527" xlink:href="#m1d1c79a8f7" y="184.025143"/>
     <use style="fill:#ff0000;stroke:#ff0000;" x="258.390105" xlink:href="#m1d1c79a8f7" y="203.703712"/>
     <use style="fill:#ff0000;stroke:#ff0000;" x="277.392704" xlink:href="#m1d1c79a8f7" y="223.318306"/>
    </g>
   </g>
   <g id="line2d_15">
    <path clip-path="url(#p90930b01cc)" d="M 495.375409 448.321323 
L 493.934214 446.833713 
L 490.957551 443.761184 
L 482.279331 434.803475 
L 449.959757 401.443022 
L 399.66434 349.5278 
L 357.399678 305.901971 
L 324.430651 271.871148 
L 298.389759 244.991588 
L 277.392704 223.318306 
" style="fill:none;stroke:#0000ff;stroke-linecap:square;stroke-width:1.5;"/>
    <defs>
     <path d="M -5 5 
L 5 -5 
M -5 -5 
L 5 5 
" id="m062670df8c" style="stroke:#0000ff;"/>
    </defs>
    <g clip-path="url(#p90930b01cc)">
     <use style="fill:#0000ff;stroke:#0000ff;" x="495.375409" xlink:href="#m062670df8c" y="448.321323"/>
     <use style="fill:#0000ff;stroke:#0000ff;" x="493.934214" xlink:href="#m062670df8c" y="446.833713"/>
     <use style="fill:#0000ff;stroke:#0000ff;" x="490.957551" xlink:href="#m062670df8c" y="443.761184"/>
     <use style="fill:#0000ff;stroke:#0000ff;" x="482.279331" xlink:href="#m062670df8c" y="434.803475"/>
     <use style="fill:#0000ff;stroke:#0000ff;" x="449.959757" xlink:href="#m062670df8c" y="401.443022"/>
     <use style="fill:#0000ff;stroke:#0000ff;" x="399.66434" xlink:href="#m062670df8c" y="349.5278"/>
     <use style="fill:#0000ff;stroke:#0000ff;" x="357.399678" xlink:href="#m062670df8c" y="305.901971"/>
     <use style="fill:#0000ff;stroke:#0000ff;" x="324.430651" xlink:href="#m062670df8c" y="271.871148"/>
     <use style="fill:#0000ff;stroke:#0000ff;" x="298.389759" xlink:href="#m062670df8c" y="244.991588"/>
     <use style="fill:#0000ff;stroke:#0000ff;" x="277.392704" xlink:href="#m062670df8c" y="223.318306"/>
    </g>
   </g>
   <g id="patch_3">
    <path d="M 85.359002 468.47472 
L 85.359002 25.1 
" style="fill:none;stroke:#000000;stroke-linecap:square;stroke-linejoin:miter;stroke-width:0.8;"/>
   </g>
   <g id="patch_4">
    <path d="M 514.9 468.47472 
L 514.9 25.1 
" style="fill:none;stroke:#000000;stroke-linecap:square;stroke-linejoin:miter;stroke-width:0.8;"/>
   </g>
   <g id="patch_5">
    <path d="M 85.359002 468.47472 
L 514.9 468.47472 
" style="fill:none;stroke:#000000;stroke-linecap:square;stroke-linejoin:miter;stroke-width:0.8;"/>
   </g>
   <g id="patch_6">
    <path d="M 85.359002 25.1 
L 514.9 25.1 
" style="fill:none;stroke:#000000;stroke-linecap:square;stroke-linejoin:miter;stroke-width:0.8;"/>
   </g>
   <g id="legend_1">
    <g id="patch_7">
     <path d="M 298.838249 98.718696 
L 500.9 98.718696 
Q 504.9 98.718696 504.9 94.718696 
L 504.9 39.1 
Q 504.9 35.1 500.9 35.1 
L 298.838249 35.1 
Q 294.838249 35.1 294.838249 39.1 
L 294.838249 94.718696 
Q 294.838249 98.718696 298.838249 98.718696 
z
" style="fill:#ffffff;opacity:0.8;stroke:#cccccc;stroke-linejoin:miter;"/>
    </g>
    <g id="line2d_16">
     <path d="M 302.838249 50.665375 
L 342.838249 50.665375 
" style="fill:none;stroke:#ff0000;stroke-linecap:square;stroke-width:1.5;"/>
    </g>
    <g id="line2d_17">
     <g>
      <use style="fill:#ff0000;stroke:#ff0000;" x="322.838249" xlink:href="#m1d1c79a8f7" y="50.665375"/>
     </g>
    </g>
    <g id="text_16">
     <!-- KD Fission ($k \beta$) -->
     <defs>
      <path d="M 17.203125 25.515625 
L 29.09375 37.4375 
L 54.796875 -0.03125 
L 65.796875 -0.03125 
L 35.796875 43.25 
L 65.5 73 
L 53.5 73 
L 17.203125 36.03125 
L 17.203125 73 
L 7.90625 73 
L 7.90625 -0.03125 
L 17.203125 -0.03125 
z
" id="Nimbus_Sans_L_Regular-75"/>
      <path d="M 8.90625 0 
L 37 0 
C 55.40625 0 66.703125 13.828125 66.703125 36.546875 
C 66.703125 59.171875 55.5 73 37 73 
L 8.90625 73 
z
M 18.203125 8.21875 
L 18.203125 64.78125 
L 35.40625 64.78125 
C 49.796875 64.78125 57.40625 55.0625 57.40625 36.453125 
C 57.40625 18.03125 49.796875 8.21875 35.40625 8.21875 
z
" id="Nimbus_Sans_L_Regular-68"/>
      <path d="M 18.296875 33 
L 53.09375 33 
L 53.09375 41.21875 
L 18.296875 41.21875 
L 18.296875 64.78125 
L 57.90625 64.78125 
L 57.90625 73 
L 9 73 
L 9 -0.21875 
L 18.296875 -0.21875 
z
" id="Nimbus_Sans_L_Regular-70"/>
      <path d="M 23.59375 73 
C 13.59375 59.84375 7.296875 41.5625 7.296875 25.796875 
C 7.296875 9.9375 13.59375 -8.34375 23.59375 -21.5 
L 29.09375 -21.5 
C 20.296875 -7.140625 15.40625 9.734375 15.40625 25.796875 
C 15.40625 41.765625 20.296875 58.734375 29.09375 73 
z
" id="Nimbus_Sans_L_Regular-40"/>
      <path d="M 56.59375 57.828125 
C 56.59375 63.765625 51.5 70 42.40625 70 
C 29.5 70 21.296875 54.328125 18.703125 44 
L 2.90625 -18.3125 
C 2.703125 -19.109375 3.296875 -19.3125 3.796875 -19.3125 
C 4.5 -19.3125 5 -19.21875 5.09375 -18.71875 
L 12.09375 9.15625 
C 13.09375 3.578125 18.59375 -1 24.5 -1 
C 38.796875 -1 52.296875 10.15625 52.296875 24.984375 
C 52.296875 28.765625 51.40625 32.546875 49.296875 35.734375 
C 48.09375 37.625 46.59375 39.015625 45 40.21875 
C 52.203125 43.984375 56.59375 50 56.59375 57.828125 
z
M 39.203125 40.3125 
C 37.59375 39.71875 36 39.515625 34.09375 39.515625 
C 32.703125 39.515625 31.40625 39.421875 29.59375 40.015625 
C 30.59375 40.71875 32.09375 40.90625 34.203125 40.90625 
C 36 40.90625 37.796875 40.71875 39.203125 40.3125 
z
M 51.40625 58.71875 
C 51.40625 53.28125 48.703125 45.359375 42.203125 41.703125 
C 40.296875 42.46875 37.703125 43 35.5 43 
C 33.40625 43 27.40625 43 27.40625 39.921875 
C 27.40625 37.328125 32.90625 37.328125 34.59375 37.328125 
C 37.203125 37.328125 39.5 38 41.90625 38.8125 
C 45.09375 36.21875 46.5 32.828125 46.5 27.859375 
C 46.5 22.078125 44.90625 17.421875 43 13.140625 
C 39.703125 5.765625 31.90625 1 25 1 
C 17.703125 1 13.90625 6.75 13.90625 13.5 
C 13.90625 14.40625 13.90625 15.703125 14.296875 17.171875 
L 20.796875 43.296875 
C 24.09375 56.296875 32.5 68.015625 42.203125 68.015625 
C 49.40625 68.015625 51.40625 63.0625 51.40625 58.71875 
z
" id="CMMI12-12"/>
      <path d="M 9.296875 -21.5 
C 19.296875 -8.34375 25.59375 9.9375 25.59375 25.6875 
C 25.59375 41.5625 19.296875 59.84375 9.296875 73 
L 3.796875 73 
C 12.59375 58.640625 17.5 41.765625 17.5 25.6875 
C 17.5 9.734375 12.59375 -7.25 3.796875 -21.5 
z
" id="Nimbus_Sans_L_Regular-41"/>
     </defs>
     <g transform="translate(358.838249 57.665375)scale(0.2 -0.2)">
      <use transform="scale(0.996264)" xlink:href="#Nimbus_Sans_L_Regular-75"/>
      <use transform="translate(66.450031 0)scale(0.996264)" xlink:href="#Nimbus_Sans_L_Regular-68"/>
      <use transform="translate(166.075186 0)scale(0.996264)" xlink:href="#Nimbus_Sans_L_Regular-70"/>
      <use transform="translate(226.946816 0)scale(0.996264)" xlink:href="#Nimbus_Sans_L_Regular-105"/>
      <use transform="translate(249.063601 0)scale(0.996264)" xlink:href="#Nimbus_Sans_L_Regular-115"/>
      <use transform="translate(298.876801 0)scale(0.996264)" xlink:href="#Nimbus_Sans_L_Regular-115"/>
      <use transform="translate(348.690002 0)scale(0.996264)" xlink:href="#Nimbus_Sans_L_Regular-105"/>
      <use transform="translate(370.806786 0)scale(0.996264)" xlink:href="#Nimbus_Sans_L_Regular-111"/>
      <use transform="translate(426.198463 0)scale(0.996264)" xlink:href="#Nimbus_Sans_L_Regular-110"/>
      <use transform="translate(509.285309 0)scale(0.996264)" xlink:href="#Nimbus_Sans_L_Regular-40"/>
      <use transform="translate(542.460539 0)scale(0.996264)" xlink:href="#CMMI12-107"/>
      <use transform="translate(596.53974 0)scale(0.996264)" xlink:href="#CMMI12-12"/>
      <use transform="translate(657.133756 0)scale(0.996264)" xlink:href="#Nimbus_Sans_L_Regular-41"/>
     </g>
    </g>
    <g id="line2d_18">
     <path d="M 302.838249 79.474723 
L 342.838249 79.474723 
" style="fill:none;stroke:#0000ff;stroke-linecap:square;stroke-width:1.5;"/>
    </g>
    <g id="line2d_19">
     <g>
      <use style="fill:#0000ff;stroke:#0000ff;" x="322.838249" xlink:href="#m062670df8c" y="79.474723"/>
     </g>
    </g>
    <g id="text_17">
     <!-- KD Fusion ($k \gamma$) -->
     <defs>
      <path d="M 37.796875 11.875 
C 37.59375 16.734375 37.40625 24.390625 33.59375 33.328125 
C 31.59375 38.3125 28.203125 43.5625 20.90625 43.5625 
C 8.59375 43.5625 1.90625 27.96875 1.90625 25.390625 
C 1.90625 24.484375 2.59375 24.484375 2.90625 24.484375 
C 3.796875 24.484375 3.796875 24.6875 4.296875 25.984375 
C 6.40625 32.140625 12.796875 37 19.703125 37 
C 33.59375 37 35.59375 21.609375 35.59375 11.78125 
C 35.59375 5.5 34.90625 3.4375 34.296875 1.4375 
C 32.40625 -4.71875 29.09375 -17.03125 29.09375 -19.8125 
C 29.09375 -20.609375 29.40625 -21.5 30.203125 -21.5 
C 31.703125 -21.5 32.59375 -18.21875 33.703125 -14.25 
C 36.09375 -5.515625 36.703125 -1.140625 37.203125 2.828125 
C 37.5 5.21875 43.203125 21.625 51.09375 37.21875 
C 51.796875 38.796875 53.203125 41.484375 53.203125 41.78125 
C 53.203125 41.875 53.09375 42.578125 52.203125 42.578125 
C 52 42.578125 51.5 42.578125 51.296875 42.171875 
C 51.09375 41.984375 47.59375 35.21875 44.59375 28.46875 
C 43.09375 25.09375 41.09375 20.625 37.796875 11.875 
z
" id="CMMI12-13"/>
     </defs>
     <g transform="translate(358.838249 86.474723)scale(0.2 -0.2)">
      <use transform="scale(0.996264)" xlink:href="#Nimbus_Sans_L_Regular-75"/>
      <use transform="translate(66.450031 0)scale(0.996264)" xlink:href="#Nimbus_Sans_L_Regular-68"/>
      <use transform="translate(166.075186 0)scale(0.996264)" xlink:href="#Nimbus_Sans_L_Regular-70"/>
      <use transform="translate(226.946816 0)scale(0.996264)" xlink:href="#Nimbus_Sans_L_Regular-117"/>
      <use transform="translate(282.338493 0)scale(0.996264)" xlink:href="#Nimbus_Sans_L_Regular-115"/>
      <use transform="translate(332.151694 0)scale(0.996264)" xlink:href="#Nimbus_Sans_L_Regular-105"/>
      <use transform="translate(354.268478 0)scale(0.996264)" xlink:href="#Nimbus_Sans_L_Regular-111"/>
      <use transform="translate(409.660155 0)scale(0.996264)" xlink:href="#Nimbus_Sans_L_Regular-110"/>
      <use transform="translate(492.747002 0)scale(0.996264)" xlink:href="#Nimbus_Sans_L_Regular-40"/>
      <use transform="translate(525.922231 0)scale(0.996264)" xlink:href="#CMMI12-107"/>
      <use transform="translate(580.001432 0)scale(0.996264)" xlink:href="#CMMI12-13"/>
      <use transform="translate(636.02 0)scale(0.996264)" xlink:href="#Nimbus_Sans_L_Regular-41"/>
     </g>
    </g>
   </g>
  </g>
 </g>
 <defs>
  <clipPath id="p90930b01cc">
   <rect height="443.37472" width="429.540998" x="85.359002" y="25.1"/>
  </clipPath>
 </defs>
</svg>
