<?xml version="1.0" encoding="utf-8" standalone="no"?>
<!DOCTYPE svg PUBLIC "-//W3C//DTD SVG 1.1//EN"
  "http://www.w3.org/Graphics/SVG/1.1/DTD/svg11.dtd">
<!-- Created with matplotlib (https://matplotlib.org/) -->
<svg height="360pt" version="1.1" viewBox="0 0 360 360" width="360pt" xmlns="http://www.w3.org/2000/svg" xmlns:xlink="http://www.w3.org/1999/xlink">
 <defs>
  <style type="text/css">
*{stroke-linecap:butt;stroke-linejoin:round;}
  </style>
 </defs>
 <g id="figure_1">
  <g id="patch_1">
   <path d="M 0 360 
L 360 360 
L 360 0 
L 0 0 
z
" style="fill:#ffffff;"/>
  </g>
  <g id="axes_1">
   <g id="patch_2">
    <path d="M 91.264682 289.4 
L 334.464324 289.4 
L 334.464324 25.1 
L 91.264682 25.1 
z
" style="fill:#ffffff;"/>
   </g>
   <g id="matplotlib.axis_1">
    <g id="xtick_1">
     <g id="line2d_1">
      <defs>
       <path d="M 0 0 
L 0 3.5 
" id="me4293712c1" style="stroke:#000000;stroke-width:0.8;"/>
      </defs>
      <g>
       <use style="stroke:#000000;stroke-width:0.8;" x="102.319211" xlink:href="#me4293712c1" y="289.4"/>
      </g>
     </g>
     <g id="text_1">
      <!-- 0 -->
      <defs>
       <path d="M 27.5 71 
C 20.90625 71 14.90625 68.09375 11.203125 63.1875 
C 6.59375 57.015625 4.296875 47.546875 4.296875 34.484375 
C 4.296875 10.671875 12.296875 -2 27.5 -2 
C 42.5 -2 50.703125 10.671875 50.703125 33.890625 
C 50.703125 47.640625 48.5 56.8125 43.796875 63.1875 
C 40.09375 68.1875 34.203125 71 27.5 71 
z
M 27.5 63.1875 
C 37 63.1875 41.703125 53.625 41.703125 34.6875 
C 41.703125 14.65625 37.09375 5.296875 27.296875 5.296875 
C 18 5.296875 13.296875 15.0625 13.296875 34.390625 
C 13.296875 53.71875 18 63.1875 27.5 63.1875 
z
" id="Nimbus_Sans_L_Regular-48"/>
      </defs>
      <g transform="translate(96.780046 310.596641)scale(0.2 -0.2)">
       <use transform="scale(0.996264)" xlink:href="#Nimbus_Sans_L_Regular-48"/>
      </g>
     </g>
    </g>
    <g id="xtick_2">
     <g id="line2d_2">
      <g>
       <use style="stroke:#000000;stroke-width:0.8;" x="176.016072" xlink:href="#me4293712c1" y="289.4"/>
      </g>
     </g>
     <g id="text_2">
      <!-- 250 -->
      <defs>
       <path d="M 50.59375 8.6875 
L 13.296875 8.6875 
C 14.203125 14.5 17.40625 18.203125 26.09375 23.328125 
L 36.09375 28.734375 
C 46 34.140625 51.09375 41.453125 51.09375 50.171875 
C 51.09375 56.078125 48.703125 61.59375 44.5 65.390625 
C 40.296875 69.1875 35.09375 71 28.40625 71 
C 19.40625 71 12.703125 67.796875 8.796875 61.796875 
C 6.296875 57.984375 5.203125 53.578125 5 46.359375 
L 13.796875 46.359375 
C 14.09375 51.171875 14.703125 54.078125 15.90625 56.375 
C 18.203125 60.6875 22.796875 63.296875 28.09375 63.296875 
C 36.09375 63.296875 42.09375 57.578125 42.09375 49.96875 
C 42.09375 44.359375 38.796875 39.546875 32.5 35.9375 
L 23.296875 30.734375 
C 8.5 22.3125 4.203125 15.609375 3.40625 0 
L 50.59375 0 
z
" id="Nimbus_Sans_L_Regular-50"/>
       <path d="M 47.59375 71 
L 11 71 
L 5.703125 32.4375 
L 13.796875 32.4375 
C 17.90625 37.296875 21.296875 39 26.796875 39 
C 36.296875 39 42.296875 32.53125 42.296875 22.09375 
C 42.296875 11.953125 36.40625 5.796875 26.796875 5.796875 
C 19.09375 5.796875 14.40625 9.671875 12.296875 17.625 
L 3.5 17.625 
C 4.703125 11.859375 5.703125 9.078125 7.796875 6.484375 
C 11.796875 1.09375 19 -2 27 -2 
C 41.296875 -2 51.296875 8.375 51.296875 23.28125 
C 51.296875 37.203125 42 46.796875 28.40625 46.796875 
C 23.40625 46.796875 19.40625 45.5 15.296875 42.5 
L 18.09375 62.296875 
L 47.59375 62.296875 
z
" id="Nimbus_Sans_L_Regular-53"/>
      </defs>
      <g transform="translate(159.398578 310.596641)scale(0.2 -0.2)">
       <use transform="scale(0.996264)" xlink:href="#Nimbus_Sans_L_Regular-50"/>
       <use transform="translate(55.391677 0)scale(0.996264)" xlink:href="#Nimbus_Sans_L_Regular-53"/>
       <use transform="translate(110.783354 0)scale(0.996264)" xlink:href="#Nimbus_Sans_L_Regular-48"/>
      </g>
     </g>
    </g>
    <g id="xtick_3">
     <g id="line2d_3">
      <g>
       <use style="stroke:#000000;stroke-width:0.8;" x="249.712934" xlink:href="#me4293712c1" y="289.4"/>
      </g>
     </g>
     <g id="text_3">
      <!-- 500 -->
      <g transform="translate(233.09544 310.596641)scale(0.2 -0.2)">
       <use transform="scale(0.996264)" xlink:href="#Nimbus_Sans_L_Regular-53"/>
       <use transform="translate(55.391677 0)scale(0.996264)" xlink:href="#Nimbus_Sans_L_Regular-48"/>
       <use transform="translate(110.783354 0)scale(0.996264)" xlink:href="#Nimbus_Sans_L_Regular-48"/>
      </g>
     </g>
    </g>
    <g id="xtick_4">
     <g id="line2d_4">
      <g>
       <use style="stroke:#000000;stroke-width:0.8;" x="323.409795" xlink:href="#me4293712c1" y="289.4"/>
      </g>
     </g>
     <g id="text_4">
      <!-- 750 -->
      <defs>
       <path d="M 52 71 
L 4.59375 71 
L 4.59375 62.296875 
L 42.90625 62.296875 
C 26 38.15625 19.09375 23.328125 13.796875 0 
L 23.203125 0 
C 27.09375 22.71875 36 42.25 52 63.59375 
z
" id="Nimbus_Sans_L_Regular-55"/>
      </defs>
      <g transform="translate(306.792301 310.596641)scale(0.2 -0.2)">
       <use transform="scale(0.996264)" xlink:href="#Nimbus_Sans_L_Regular-55"/>
       <use transform="translate(55.391677 0)scale(0.996264)" xlink:href="#Nimbus_Sans_L_Regular-53"/>
       <use transform="translate(110.783354 0)scale(0.996264)" xlink:href="#Nimbus_Sans_L_Regular-48"/>
      </g>
     </g>
    </g>
    <g id="text_5">
     <!-- Time (days) -->
     <defs>
      <path d="M 35.40625 64.796875 
L 59.296875 64.796875 
L 59.296875 73 
L 2.09375 73 
L 2.09375 64.796875 
L 26.09375 64.796875 
L 26.09375 0 
L 35.40625 0 
z
" id="Nimbus_Sans_L_Regular-84"/>
      <path d="M 15 52.46875 
L 6.703125 52.46875 
L 6.703125 0 
L 15 0 
z
M 15 73 
L 6.59375 73 
L 6.59375 62.484375 
L 15 62.484375 
z
" id="Nimbus_Sans_L_Regular-105"/>
      <path d="M 7 52 
L 7 0 
L 15.40625 0 
L 15.40625 32.640625 
C 15.40625 40.578125 20.90625 46.6875 27.703125 46.6875 
C 33.90625 46.6875 37.40625 42.875 37.40625 36.171875 
L 37.40625 0 
L 45.796875 0 
L 45.796875 32.953125 
C 45.796875 40.578125 51.296875 46.6875 58.09375 46.6875 
C 64.203125 46.6875 67.796875 42.78125 67.796875 36.171875 
L 67.796875 0 
L 76.203125 0 
L 76.203125 39.375 
C 76.203125 48.796875 70.796875 54 61 54 
C 54 54 49.796875 51.890625 44.90625 45.984375 
C 41.796875 51.59375 37.59375 54 30.796875 54 
C 23.796875 54 19.203125 51.390625 14.703125 45.09375 
L 14.703125 52 
z
" id="Nimbus_Sans_L_Regular-109"/>
      <path d="M 51.296875 23.1875 
C 51.296875 31.21875 50.703125 36.109375 49.203125 40.078125 
C 45.796875 48.796875 37.796875 54 28 54 
C 13.40625 54 4 42.71875 4 25.296875 
C 4 8.515625 13.09375 -2 27.796875 -2 
C 39.796875 -2 48.09375 4.796875 50.203125 15.90625 
L 41.796875 15.90625 
C 39.5 9.1875 34.796875 5.6875 28.09375 5.6875 
C 22.796875 5.6875 18.296875 8.03125 15.5 12.296875 
C 13.5 15.21875 12.796875 18.140625 12.703125 23.1875 
z
M 12.90625 30 
C 13.59375 39.875 19.5 46.296875 27.90625 46.296875 
C 36.09375 46.296875 42.40625 39.359375 42.40625 30.609375 
C 42.40625 30.40625 42.40625 30.203125 42.296875 30 
z
" id="Nimbus_Sans_L_Regular-101"/>
      <path d="M 23.59375 73 
C 13.59375 59.890625 7.296875 41.6875 7.296875 25.984375 
C 7.296875 10.1875 13.59375 -8.015625 23.59375 -21.109375 
L 29.09375 -21.109375 
C 20.296875 -6.8125 15.40625 9.984375 15.40625 25.984375 
C 15.40625 41.890625 20.296875 58.796875 29.09375 73 
z
" id="Nimbus_Sans_L_Regular-40"/>
      <path d="M 49.5 73 
L 41.203125 73 
L 41.203125 45.890625 
C 37.703125 51.1875 32.09375 54 25.09375 54 
C 11.5 54 2.59375 43.109375 2.59375 26.484375 
C 2.59375 8.875 11.296875 -2 25.40625 -2 
C 32.59375 -2 37.59375 0.6875 42.09375 7.1875 
L 42.09375 0.296875 
L 49.5 0.296875 
z
M 26.5 46.1875 
C 35.5 46.1875 41.203125 38.234375 41.203125 25.796875 
C 41.203125 13.75 35.40625 5.796875 26.59375 5.796875 
C 17.40625 5.796875 11.296875 13.859375 11.296875 25.984375 
C 11.296875 38.125 17.40625 46.1875 26.5 46.1875 
z
" id="Nimbus_Sans_L_Regular-100"/>
      <path d="M 53.5 5.1875 
C 52.59375 5 52.203125 5 51.703125 5 
C 48.796875 5 47.203125 6.484375 47.203125 9.078125 
L 47.203125 39.71875 
C 47.203125 48.984375 40.40625 54 27.5 54 
C 19.90625 54 13.59375 51.796875 10.09375 47.890625 
C 7.703125 45.203125 6.703125 42.21875 6.5 37.03125 
L 14.90625 37.03125 
C 15.59375 43.40625 19.40625 46.296875 27.203125 46.296875 
C 34.703125 46.296875 38.90625 43.5 38.90625 38.53125 
L 38.90625 36.34375 
C 38.90625 32.859375 36.796875 31.359375 30.203125 30.5625 
C 18.40625 29.078125 16.59375 28.671875 13.40625 27.390625 
C 7.296875 24.890625 4.203125 20.21875 4.203125 13.453125 
C 4.203125 4 10.796875 -2 21.40625 -2 
C 28 -2 33.296875 0.296875 39.203125 5.6875 
C 39.796875 0.390625 42.40625 -2 47.796875 -2 
C 49.5 -2 50.796875 -1.8125 53.5 -1.109375 
z
M 38.90625 16.734375 
C 38.90625 13.953125 38.09375 12.265625 35.59375 9.96875 
C 32.203125 6.890625 28.09375 5.296875 23.203125 5.296875 
C 16.703125 5.296875 12.90625 8.375 12.90625 13.65625 
C 12.90625 19.125 16.59375 21.90625 25.5 23.203125 
C 34.296875 24.40625 36.09375 24.796875 38.90625 26.09375 
z
" id="Nimbus_Sans_L_Regular-97"/>
      <path d="M 38.796875 52 
L 24.296875 11.3125 
L 10.90625 52 
L 2 52 
L 19.703125 -0.453125 
L 16.5 -8.71875 
C 15.203125 -12.40625 13.296875 -13.8125 9.796875 -13.8125 
C 8.59375 -13.8125 7.203125 -13.609375 5.40625 -13.203125 
L 5.40625 -20.703125 
C 7.09375 -21.609375 8.796875 -22 11 -22 
C 13.703125 -22 16.59375 -21.109375 18.796875 -19.5 
C 21.40625 -17.609375 22.90625 -15.40625 24.5 -11.21875 
L 47.796875 52 
z
" id="Nimbus_Sans_L_Regular-121"/>
      <path d="M 43.796875 37.9375 
C 43.703125 48.1875 36.90625 54 24.796875 54 
C 12.59375 54 4.703125 47.6875 4.703125 38.03125 
C 4.703125 29.875 8.90625 25.984375 21.296875 23 
L 29.09375 21.109375 
C 34.90625 19.71875 37.203125 17.640625 37.203125 13.859375 
C 37.203125 8.96875 32.296875 5.6875 25 5.6875 
C 20.5 5.6875 16.703125 6.984375 14.59375 9.171875 
C 13.296875 10.671875 12.703125 12.15625 12.203125 15.84375 
L 3.40625 15.84375 
C 3.796875 3.796875 10.59375 -2 24.296875 -2 
C 37.5 -2 45.90625 4.5 45.90625 14.546875 
C 45.90625 22.3125 41.5 26.59375 31.09375 29.078125 
L 23.09375 30.96875 
C 16.296875 32.5625 13.40625 34.75 13.40625 38.421875 
C 13.40625 43.203125 17.703125 46.296875 24.5 46.296875 
C 31.203125 46.296875 34.796875 43.40625 35 37.9375 
z
" id="Nimbus_Sans_L_Regular-115"/>
      <path d="M 9.296875 -21.109375 
C 19.296875 -8.015625 25.59375 10.1875 25.59375 25.890625 
C 25.59375 41.6875 19.296875 59.890625 9.296875 73 
L 3.796875 73 
C 12.59375 58.6875 17.5 41.890625 17.5 25.890625 
C 17.5 9.984375 12.59375 -6.90625 3.796875 -21.109375 
z
" id="Nimbus_Sans_L_Regular-41"/>
     </defs>
     <g transform="translate(160.580944 333.405988)scale(0.2 -0.2)">
      <use transform="scale(0.996264)" xlink:href="#Nimbus_Sans_L_Regular-84"/>
      <use transform="translate(60.871631 0)scale(0.996264)" xlink:href="#Nimbus_Sans_L_Regular-105"/>
      <use transform="translate(82.988415 0)scale(0.996264)" xlink:href="#Nimbus_Sans_L_Regular-109"/>
      <use transform="translate(165.976845 0)scale(0.996264)" xlink:href="#Nimbus_Sans_L_Regular-101"/>
      <use transform="translate(249.063692 0)scale(0.996264)" xlink:href="#Nimbus_Sans_L_Regular-40"/>
      <use transform="translate(282.238922 0)scale(0.996264)" xlink:href="#Nimbus_Sans_L_Regular-100"/>
      <use transform="translate(337.630599 0)scale(0.996264)" xlink:href="#Nimbus_Sans_L_Regular-97"/>
      <use transform="translate(390.034168 0)scale(0.996264)" xlink:href="#Nimbus_Sans_L_Regular-121"/>
      <use transform="translate(439.847368 0)scale(0.996264)" xlink:href="#Nimbus_Sans_L_Regular-115"/>
      <use transform="translate(489.660569 0)scale(0.996264)" xlink:href="#Nimbus_Sans_L_Regular-41"/>
     </g>
    </g>
   </g>
   <g id="matplotlib.axis_2">
    <g id="ytick_1">
     <g id="line2d_5">
      <defs>
       <path d="M 0 0 
L -3.5 0 
" id="m2fc50326be" style="stroke:#000000;stroke-width:0.8;"/>
      </defs>
      <g>
       <use style="stroke:#000000;stroke-width:0.8;" x="91.264682" xlink:href="#m2fc50326be" y="277.386364"/>
      </g>
     </g>
     <g id="text_6">
      <!-- 0.00 -->
      <defs>
       <path d="M 19.09375 10.390625 
L 8.703125 10.390625 
L 8.703125 0 
L 19.09375 0 
z
" id="Nimbus_Sans_L_Regular-46"/>
      </defs>
      <g transform="translate(45.490666 284.484684)scale(0.2 -0.2)">
       <use transform="scale(0.996264)" xlink:href="#Nimbus_Sans_L_Regular-48"/>
       <use transform="translate(55.391677 0)scale(0.996264)" xlink:href="#Nimbus_Sans_L_Regular-46"/>
       <use transform="translate(83.086847 0)scale(0.996264)" xlink:href="#Nimbus_Sans_L_Regular-48"/>
       <use transform="translate(138.478524 0)scale(0.996264)" xlink:href="#Nimbus_Sans_L_Regular-48"/>
      </g>
     </g>
    </g>
    <g id="ytick_2">
     <g id="line2d_6">
      <g>
       <use style="stroke:#000000;stroke-width:0.8;" x="91.264682" xlink:href="#m2fc50326be" y="191.880055"/>
      </g>
     </g>
     <g id="text_7">
      <!-- 0.02 -->
      <g transform="translate(45.490666 198.978375)scale(0.2 -0.2)">
       <use transform="scale(0.996264)" xlink:href="#Nimbus_Sans_L_Regular-48"/>
       <use transform="translate(55.391677 0)scale(0.996264)" xlink:href="#Nimbus_Sans_L_Regular-46"/>
       <use transform="translate(83.086847 0)scale(0.996264)" xlink:href="#Nimbus_Sans_L_Regular-48"/>
       <use transform="translate(138.478524 0)scale(0.996264)" xlink:href="#Nimbus_Sans_L_Regular-50"/>
      </g>
     </g>
    </g>
    <g id="ytick_3">
     <g id="line2d_7">
      <g>
       <use style="stroke:#000000;stroke-width:0.8;" x="91.264682" xlink:href="#m2fc50326be" y="106.373746"/>
      </g>
     </g>
     <g id="text_8">
      <!-- 0.04 -->
      <defs>
       <path d="M 32.703125 17 
L 32.703125 0 
L 41.5 0 
L 41.5 17 
L 52 17 
L 52 24.890625 
L 41.5 24.890625 
L 41.5 70.890625 
L 35 70.890625 
L 2.796875 26.296875 
L 2.796875 17 
z
M 32.703125 24.890625 
L 10.5 24.890625 
L 32.703125 55.890625 
z
" id="Nimbus_Sans_L_Regular-52"/>
      </defs>
      <g transform="translate(45.490666 113.472067)scale(0.2 -0.2)">
       <use transform="scale(0.996264)" xlink:href="#Nimbus_Sans_L_Regular-48"/>
       <use transform="translate(55.391677 0)scale(0.996264)" xlink:href="#Nimbus_Sans_L_Regular-46"/>
       <use transform="translate(83.086847 0)scale(0.996264)" xlink:href="#Nimbus_Sans_L_Regular-48"/>
       <use transform="translate(138.478524 0)scale(0.996264)" xlink:href="#Nimbus_Sans_L_Regular-52"/>
      </g>
     </g>
    </g>
    <g id="text_9">
     <!-- $P(h=0)$ -->
     <defs>
      <path d="M 29.59375 31.59375 
L 46.40625 31.59375 
C 60.203125 31.59375 74 41.765625 74 53.125 
C 74 60.90625 67.40625 68 54.796875 68 
L 23.90625 68 
C 22 68 21.09375 68 21.09375 66.09375 
C 21.09375 65.09375 22 65.09375 23.5 65.09375 
C 29.59375 65.09375 29.59375 64.296875 29.59375 63.203125 
C 29.59375 63 29.59375 62.40625 29.203125 60.90625 
L 15.703125 7.359375 
C 14.796875 3.890625 14.59375 2.890625 7.59375 2.890625 
C 5.703125 2.890625 4.703125 2.890625 4.703125 1.09375 
C 4.703125 0 5.59375 0 6.203125 0 
C 8.09375 0 10.09375 0.1875 12 0.1875 
L 23.703125 0.1875 
C 25.59375 0.1875 27.703125 0 29.59375 0 
C 30.40625 0 31.5 0 31.5 1.890625 
C 31.5 2.890625 30.59375 2.890625 29.09375 2.890625 
C 23.09375 2.890625 23 3.59375 23 4.578125 
C 23 5.078125 23.09375 5.765625 23.203125 6.265625 
z
M 36.796875 61.203125 
C 37.703125 64.890625 38.09375 65.09375 42 65.09375 
L 51.90625 65.09375 
C 59.40625 65.09375 65.59375 62.703125 65.59375 55.21875 
C 65.59375 52.640625 64.296875 44.15625 59.703125 39.578125 
C 58 37.78125 53.203125 34 44.09375 34 
L 30 34 
z
" id="CMMI12-80"/>
      <path d="M 30.59375 -24.40625 
C 30.59375 -24.3125 30.59375 -24.109375 30.296875 -23.8125 
C 25.703125 -19.109375 13.40625 -6.296875 13.40625 24.9375 
C 13.40625 56.171875 25.5 68.875 30.40625 73.890625 
C 30.40625 73.984375 30.59375 74.1875 30.59375 74.484375 
C 30.59375 74.796875 30.296875 75 29.90625 75 
C 28.796875 75 20.296875 67.578125 15.40625 56.5625 
C 10.40625 45.453125 9 34.65625 9 25.046875 
C 9 17.828125 9.703125 5.625 15.703125 -7.296875 
C 20.5 -17.703125 28.703125 -25 29.90625 -25 
C 30.40625 -25 30.59375 -24.8125 30.59375 -24.40625 
z
" id="CMR17-40"/>
      <path d="M 28.09375 66.484375 
C 28.203125 66.890625 28.40625 67.484375 28.40625 67.984375 
C 28.40625 69 27.40625 69 27.203125 69 
C 27.09375 69 22.203125 68.59375 21.703125 68.484375 
C 20 68.390625 18.5 68.1875 16.703125 68.09375 
C 14.203125 67.890625 13.5 67.796875 13.5 65.984375 
C 13.5 64.984375 14.296875 64.984375 15.703125 64.984375 
C 20.59375 64.984375 20.703125 64.109375 20.703125 63.125 
C 20.703125 62.53125 20.5 61.734375 20.40625 61.4375 
L 5.90625 3.890625 
C 5.5 2.390625 5.5 2.1875 5.5 1.59375 
C 5.5 -0.609375 7.203125 -1 8.203125 -1 
C 9.90625 -1 11.203125 0.296875 11.703125 1.390625 
L 16.203125 19.453125 
C 16.703125 21.640625 17.296875 23.734375 17.796875 25.9375 
C 18.90625 30.125 18.90625 30.21875 20.796875 33.109375 
C 22.703125 36.015625 27.203125 41.984375 34.90625 41.984375 
C 38.90625 41.984375 40.296875 39 40.296875 35.015625 
C 40.296875 29.421875 36.40625 18.546875 34.203125 12.5625 
C 33.296875 10.171875 32.796875 8.875 32.796875 7.078125 
C 32.796875 2.59375 35.90625 -1 40.703125 -1 
C 50 -1 53.5 13.65625 53.5 14.265625 
C 53.5 14.765625 53.09375 15.15625 52.5 15.15625 
C 51.59375 15.15625 51.5 14.859375 51 13.15625 
C 48.703125 5.1875 45 1 41 1 
C 40 1 38.40625 1.09375 38.40625 4.28125 
C 38.40625 6.875 39.59375 10.078125 40 11.171875 
C 41.796875 15.953125 46.296875 27.734375 46.296875 33.515625 
C 46.296875 39.5 42.796875 44 35.203125 44 
C 29.5 44 24.5 41.296875 20.40625 36.109375 
z
" id="CMMI12-104"/>
      <path d="M 64.296875 32 
C 65.796875 32 67.296875 32 67.296875 33.6875 
C 67.296875 35.5 65.59375 35.5 63.90625 35.5 
L 8 35.5 
C 6.296875 35.5 4.59375 35.5 4.59375 33.6875 
C 4.59375 32 6.09375 32 7.59375 32 
z
M 63.90625 14.484375 
C 65.59375 14.484375 67.296875 14.484375 67.296875 16.296875 
C 67.296875 18 65.796875 18 64.296875 18 
L 7.59375 18 
C 6.09375 18 4.59375 18 4.59375 16.296875 
C 4.59375 14.484375 6.296875 14.484375 8 14.484375 
z
" id="CMR17-61"/>
      <path d="M 42 31.84375 
C 42 37.96875 41.90625 48.421875 37.703125 56.453125 
C 34 63.484375 28.09375 66 22.90625 66 
C 18.09375 66 12 63.78125 8.203125 56.5625 
C 4.203125 49.015625 3.796875 39.671875 3.796875 31.84375 
C 3.796875 26.109375 3.90625 17.375 7 9.734375 
C 11.296875 -0.609375 19 -2 22.90625 -2 
C 27.5 -2 34.5 -0.109375 38.59375 9.4375 
C 41.59375 16.375 42 24.5 42 31.84375 
z
M 22.90625 -0.40625 
C 16.5 -0.40625 12.703125 5.125 11.296875 12.75 
C 10.203125 18.6875 10.203125 27.328125 10.203125 32.953125 
C 10.203125 40.6875 10.203125 47.109375 11.5 53.234375 
C 13.40625 61.78125 19 64.390625 22.90625 64.390625 
C 27 64.390625 32.296875 61.671875 34.203125 53.4375 
C 35.5 47.71875 35.59375 40.984375 35.59375 32.953125 
C 35.59375 26.421875 35.59375 18.375 34.40625 12.453125 
C 32.296875 1.5 26.40625 -0.40625 22.90625 -0.40625 
z
" id="CMR17-48"/>
      <path d="M 26.296875 24.9375 
C 26.296875 32.140625 25.59375 44.359375 19.59375 57.265625 
C 14.796875 67.6875 6.59375 75 5.40625 75 
C 5.09375 75 4.703125 74.890625 4.703125 74.390625 
C 4.703125 74.1875 4.796875 74.09375 4.90625 73.890625 
C 9.703125 68.875 21.90625 56.171875 21.90625 25.046875 
C 21.90625 -6.1875 9.796875 -18.90625 4.90625 -23.90625 
C 4.796875 -24.109375 4.703125 -24.203125 4.703125 -24.40625 
C 4.703125 -24.90625 5.09375 -25 5.40625 -25 
C 6.5 -25 15 -17.609375 19.90625 -6.59375 
C 24.90625 4.515625 26.296875 15.328125 26.296875 24.9375 
z
" id="CMR17-41"/>
     </defs>
     <g transform="translate(36.526022 194.839462)rotate(-90)scale(0.2 -0.2)">
      <use transform="scale(0.996264)" xlink:href="#CMMI12-80"/>
      <use transform="translate(76.425821 0)scale(0.996264)" xlink:href="#CMR17-40"/>
      <use transform="translate(111.706589 0)scale(0.996264)" xlink:href="#CMMI12-104"/>
      <use transform="translate(195.535221 0)scale(0.996264)" xlink:href="#CMR17-61"/>
      <use transform="translate(294.924018 0)scale(0.996264)" xlink:href="#CMR17-48"/>
      <use transform="translate(340.614496 0)scale(0.996264)" xlink:href="#CMR17-41"/>
     </g>
    </g>
   </g>
   <g id="line2d_8">
    <path clip-path="url(#pc8ab8684b6)" d="M 102.319211 277.386364 
L 105.267085 277.386364 
L 108.21496 277.386364 
L 111.162834 277.386364 
L 114.110709 277.386364 
L 117.058583 277.386364 
L 120.006457 277.386364 
L 122.954332 277.386364 
L 125.902206 277.386364 
L 128.850081 277.386364 
L 131.797955 277.386364 
L 134.74583 277.386364 
L 137.693704 277.386364 
L 140.641579 277.386364 
L 143.589453 277.386364 
L 146.537328 277.386364 
L 149.485202 277.386364 
L 152.433076 277.386364 
L 155.380951 277.386364 
L 158.328825 277.386364 
L 161.2767 276.958832 
L 164.224574 276.958832 
L 167.172449 276.958832 
L 170.120323 276.958832 
L 173.068198 276.531301 
L 176.016072 276.103769 
L 178.963947 275.248706 
L 181.911821 274.393643 
L 184.859696 273.53858 
L 187.80757 273.111048 
L 190.755444 273.111048 
L 193.703319 272.683517 
L 196.651193 270.97339 
L 199.599068 270.97339 
L 202.546942 268.835733 
L 205.494817 267.98067 
L 208.442691 266.270544 
L 211.390566 262.850291 
L 214.33844 261.567697 
L 217.286315 259.85757 
L 220.234189 256.86485 
L 223.182063 252.589534 
L 226.129938 250.024345 
L 229.077812 247.459156 
L 232.025687 243.611372 
L 234.973561 240.191119 
L 237.921436 237.62593 
L 240.86931 234.205678 
L 243.817185 229.502831 
L 246.765059 224.372452 
L 249.712934 217.959479 
L 252.660808 212.829101 
L 255.608682 205.988596 
L 258.556557 202.568344 
L 261.504431 198.293028 
L 264.452306 191.880055 
L 267.40018 185.894613 
L 270.348055 180.336703 
L 273.295929 174.351262 
L 276.243804 165.800631 
L 279.191678 159.815189 
L 282.139553 147.844306 
L 285.087427 140.57627 
L 288.035302 133.308234 
L 290.983176 124.330071 
L 293.93105 116.206972 
L 296.878925 109.366467 
L 299.826799 103.808557 
L 302.774674 96.112989 
L 305.722548 89.272485 
L 308.670423 79.866791 
L 311.618297 72.171223 
L 314.566172 64.475655 
L 317.514046 54.214898 
L 320.461921 44.809204 
L 323.409795 37.113636 
" style="fill:none;stroke:#000000;stroke-linecap:square;stroke-width:1.5;"/>
    <defs>
     <path d="M 0 2.5 
C 0.663008 2.5 1.29895 2.236584 1.767767 1.767767 
C 2.236584 1.29895 2.5 0.663008 2.5 0 
C 2.5 -0.663008 2.236584 -1.29895 1.767767 -1.767767 
C 1.29895 -2.236584 0.663008 -2.5 0 -2.5 
C -0.663008 -2.5 -1.29895 -2.236584 -1.767767 -1.767767 
C -2.236584 -1.29895 -2.5 -0.663008 -2.5 0 
C -2.5 0.663008 -2.236584 1.29895 -1.767767 1.767767 
C -1.29895 2.236584 -0.663008 2.5 0 2.5 
z
" id="mcdcea2f598" style="stroke:#000000;"/>
    </defs>
    <g clip-path="url(#pc8ab8684b6)">
     <use style="stroke:#000000;" x="102.319211" xlink:href="#mcdcea2f598" y="277.386364"/>
     <use style="stroke:#000000;" x="105.267085" xlink:href="#mcdcea2f598" y="277.386364"/>
     <use style="stroke:#000000;" x="108.21496" xlink:href="#mcdcea2f598" y="277.386364"/>
     <use style="stroke:#000000;" x="111.162834" xlink:href="#mcdcea2f598" y="277.386364"/>
     <use style="stroke:#000000;" x="114.110709" xlink:href="#mcdcea2f598" y="277.386364"/>
     <use style="stroke:#000000;" x="117.058583" xlink:href="#mcdcea2f598" y="277.386364"/>
     <use style="stroke:#000000;" x="120.006457" xlink:href="#mcdcea2f598" y="277.386364"/>
     <use style="stroke:#000000;" x="122.954332" xlink:href="#mcdcea2f598" y="277.386364"/>
     <use style="stroke:#000000;" x="125.902206" xlink:href="#mcdcea2f598" y="277.386364"/>
     <use style="stroke:#000000;" x="128.850081" xlink:href="#mcdcea2f598" y="277.386364"/>
     <use style="stroke:#000000;" x="131.797955" xlink:href="#mcdcea2f598" y="277.386364"/>
     <use style="stroke:#000000;" x="134.74583" xlink:href="#mcdcea2f598" y="277.386364"/>
     <use style="stroke:#000000;" x="137.693704" xlink:href="#mcdcea2f598" y="277.386364"/>
     <use style="stroke:#000000;" x="140.641579" xlink:href="#mcdcea2f598" y="277.386364"/>
     <use style="stroke:#000000;" x="143.589453" xlink:href="#mcdcea2f598" y="277.386364"/>
     <use style="stroke:#000000;" x="146.537328" xlink:href="#mcdcea2f598" y="277.386364"/>
     <use style="stroke:#000000;" x="149.485202" xlink:href="#mcdcea2f598" y="277.386364"/>
     <use style="stroke:#000000;" x="152.433076" xlink:href="#mcdcea2f598" y="277.386364"/>
     <use style="stroke:#000000;" x="155.380951" xlink:href="#mcdcea2f598" y="277.386364"/>
     <use style="stroke:#000000;" x="158.328825" xlink:href="#mcdcea2f598" y="277.386364"/>
     <use style="stroke:#000000;" x="161.2767" xlink:href="#mcdcea2f598" y="276.958832"/>
     <use style="stroke:#000000;" x="164.224574" xlink:href="#mcdcea2f598" y="276.958832"/>
     <use style="stroke:#000000;" x="167.172449" xlink:href="#mcdcea2f598" y="276.958832"/>
     <use style="stroke:#000000;" x="170.120323" xlink:href="#mcdcea2f598" y="276.958832"/>
     <use style="stroke:#000000;" x="173.068198" xlink:href="#mcdcea2f598" y="276.531301"/>
     <use style="stroke:#000000;" x="176.016072" xlink:href="#mcdcea2f598" y="276.103769"/>
     <use style="stroke:#000000;" x="178.963947" xlink:href="#mcdcea2f598" y="275.248706"/>
     <use style="stroke:#000000;" x="181.911821" xlink:href="#mcdcea2f598" y="274.393643"/>
     <use style="stroke:#000000;" x="184.859696" xlink:href="#mcdcea2f598" y="273.53858"/>
     <use style="stroke:#000000;" x="187.80757" xlink:href="#mcdcea2f598" y="273.111048"/>
     <use style="stroke:#000000;" x="190.755444" xlink:href="#mcdcea2f598" y="273.111048"/>
     <use style="stroke:#000000;" x="193.703319" xlink:href="#mcdcea2f598" y="272.683517"/>
     <use style="stroke:#000000;" x="196.651193" xlink:href="#mcdcea2f598" y="270.97339"/>
     <use style="stroke:#000000;" x="199.599068" xlink:href="#mcdcea2f598" y="270.97339"/>
     <use style="stroke:#000000;" x="202.546942" xlink:href="#mcdcea2f598" y="268.835733"/>
     <use style="stroke:#000000;" x="205.494817" xlink:href="#mcdcea2f598" y="267.98067"/>
     <use style="stroke:#000000;" x="208.442691" xlink:href="#mcdcea2f598" y="266.270544"/>
     <use style="stroke:#000000;" x="211.390566" xlink:href="#mcdcea2f598" y="262.850291"/>
     <use style="stroke:#000000;" x="214.33844" xlink:href="#mcdcea2f598" y="261.567697"/>
     <use style="stroke:#000000;" x="217.286315" xlink:href="#mcdcea2f598" y="259.85757"/>
     <use style="stroke:#000000;" x="220.234189" xlink:href="#mcdcea2f598" y="256.86485"/>
     <use style="stroke:#000000;" x="223.182063" xlink:href="#mcdcea2f598" y="252.589534"/>
     <use style="stroke:#000000;" x="226.129938" xlink:href="#mcdcea2f598" y="250.024345"/>
     <use style="stroke:#000000;" x="229.077812" xlink:href="#mcdcea2f598" y="247.459156"/>
     <use style="stroke:#000000;" x="232.025687" xlink:href="#mcdcea2f598" y="243.611372"/>
     <use style="stroke:#000000;" x="234.973561" xlink:href="#mcdcea2f598" y="240.191119"/>
     <use style="stroke:#000000;" x="237.921436" xlink:href="#mcdcea2f598" y="237.62593"/>
     <use style="stroke:#000000;" x="240.86931" xlink:href="#mcdcea2f598" y="234.205678"/>
     <use style="stroke:#000000;" x="243.817185" xlink:href="#mcdcea2f598" y="229.502831"/>
     <use style="stroke:#000000;" x="246.765059" xlink:href="#mcdcea2f598" y="224.372452"/>
     <use style="stroke:#000000;" x="249.712934" xlink:href="#mcdcea2f598" y="217.959479"/>
     <use style="stroke:#000000;" x="252.660808" xlink:href="#mcdcea2f598" y="212.829101"/>
     <use style="stroke:#000000;" x="255.608682" xlink:href="#mcdcea2f598" y="205.988596"/>
     <use style="stroke:#000000;" x="258.556557" xlink:href="#mcdcea2f598" y="202.568344"/>
     <use style="stroke:#000000;" x="261.504431" xlink:href="#mcdcea2f598" y="198.293028"/>
     <use style="stroke:#000000;" x="264.452306" xlink:href="#mcdcea2f598" y="191.880055"/>
     <use style="stroke:#000000;" x="267.40018" xlink:href="#mcdcea2f598" y="185.894613"/>
     <use style="stroke:#000000;" x="270.348055" xlink:href="#mcdcea2f598" y="180.336703"/>
     <use style="stroke:#000000;" x="273.295929" xlink:href="#mcdcea2f598" y="174.351262"/>
     <use style="stroke:#000000;" x="276.243804" xlink:href="#mcdcea2f598" y="165.800631"/>
     <use style="stroke:#000000;" x="279.191678" xlink:href="#mcdcea2f598" y="159.815189"/>
     <use style="stroke:#000000;" x="282.139553" xlink:href="#mcdcea2f598" y="147.844306"/>
     <use style="stroke:#000000;" x="285.087427" xlink:href="#mcdcea2f598" y="140.57627"/>
     <use style="stroke:#000000;" x="288.035302" xlink:href="#mcdcea2f598" y="133.308234"/>
     <use style="stroke:#000000;" x="290.983176" xlink:href="#mcdcea2f598" y="124.330071"/>
     <use style="stroke:#000000;" x="293.93105" xlink:href="#mcdcea2f598" y="116.206972"/>
     <use style="stroke:#000000;" x="296.878925" xlink:href="#mcdcea2f598" y="109.366467"/>
     <use style="stroke:#000000;" x="299.826799" xlink:href="#mcdcea2f598" y="103.808557"/>
     <use style="stroke:#000000;" x="302.774674" xlink:href="#mcdcea2f598" y="96.112989"/>
     <use style="stroke:#000000;" x="305.722548" xlink:href="#mcdcea2f598" y="89.272485"/>
     <use style="stroke:#000000;" x="308.670423" xlink:href="#mcdcea2f598" y="79.866791"/>
     <use style="stroke:#000000;" x="311.618297" xlink:href="#mcdcea2f598" y="72.171223"/>
     <use style="stroke:#000000;" x="314.566172" xlink:href="#mcdcea2f598" y="64.475655"/>
     <use style="stroke:#000000;" x="317.514046" xlink:href="#mcdcea2f598" y="54.214898"/>
     <use style="stroke:#000000;" x="320.461921" xlink:href="#mcdcea2f598" y="44.809204"/>
     <use style="stroke:#000000;" x="323.409795" xlink:href="#mcdcea2f598" y="37.113636"/>
    </g>
   </g>
   <g id="patch_3">
    <path d="M 91.264682 289.4 
L 91.264682 25.1 
" style="fill:none;stroke:#000000;stroke-linecap:square;stroke-linejoin:miter;stroke-width:0.8;"/>
   </g>
   <g id="patch_4">
    <path d="M 334.464324 289.4 
L 334.464324 25.1 
" style="fill:none;stroke:#000000;stroke-linecap:square;stroke-linejoin:miter;stroke-width:0.8;"/>
   </g>
   <g id="patch_5">
    <path d="M 91.264682 289.4 
L 334.464324 289.4 
" style="fill:none;stroke:#000000;stroke-linecap:square;stroke-linejoin:miter;stroke-width:0.8;"/>
   </g>
   <g id="patch_6">
    <path d="M 91.264682 25.1 
L 334.464324 25.1 
" style="fill:none;stroke:#000000;stroke-linecap:square;stroke-linejoin:miter;stroke-width:0.8;"/>
   </g>
  </g>
 </g>
 <defs>
  <clipPath id="pc8ab8684b6">
   <rect height="264.3" width="243.199643" x="91.264682" y="25.1"/>
  </clipPath>
 </defs>
</svg>
