<?xml version="1.0" encoding="utf-8" standalone="no"?>
<!DOCTYPE svg PUBLIC "-//W3C//DTD SVG 1.1//EN"
  "http://www.w3.org/Graphics/SVG/1.1/DTD/svg11.dtd">
<!-- Created with matplotlib (http://matplotlib.org/) -->
<svg height="330.449961pt" version="1.1" viewBox="0 0 330.640613 330.449961" width="330.640613pt" xmlns="http://www.w3.org/2000/svg" xmlns:xlink="http://www.w3.org/1999/xlink">
 <defs>
  <style type="text/css">
*{stroke-linecap:butt;stroke-linejoin:round;}
  </style>
 </defs>
 <g id="figure_1">
  <g id="patch_1">
   <path d="M 0 330.449961 
L 330.640613 330.449961 
L 330.640613 0 
L 0 0 
z
" style="fill:#ffffff;"/>
  </g>
  <g id="axes_1">
   <g id="patch_2">
    <path d="M 78.61243 275 
L 319.940613 275 
L 319.940613 10.7 
L 78.61243 10.7 
z
" style="fill:#ffffff;"/>
   </g>
   <g id="matplotlib.axis_1">
    <g id="xtick_1">
     <g id="line2d_1">
      <defs>
       <path d="M 0 0 
L 0 3.5 
" id="m16c4e83062" style="stroke:#000000;stroke-width:0.8;"/>
      </defs>
      <g>
       <use style="stroke:#000000;stroke-width:0.8;" x="89.581893" xlink:href="#m16c4e83062" y="275"/>
      </g>
     </g>
     <g id="text_1">
      <!-- $0$ -->
      <defs>
       <path d="M 42 31.640625 
C 42 37.75 41.90625 48.125 37.703125 56.109375 
C 34 63.109375 28.09375 65.59375 22.90625 65.59375 
C 18.09375 65.59375 12 63.40625 8.203125 56.203125 
C 4.203125 48.71875 3.796875 39.4375 3.796875 31.640625 
C 3.796875 25.953125 3.90625 17.28125 7 9.671875 
C 11.296875 -0.609375 19 -2 22.90625 -2 
C 27.5 -2 34.5 -0.109375 38.59375 9.375 
C 41.59375 16.28125 42 24.359375 42 31.640625 
z
M 22.90625 -0.40625 
C 16.5 -0.40625 12.703125 5.078125 11.296875 12.6875 
C 10.203125 18.5625 10.203125 27.15625 10.203125 32.75 
C 10.203125 40.4375 10.203125 46.828125 11.5 52.921875 
C 13.40625 61.390625 19 64 22.90625 64 
C 27 64 32.296875 61.296875 34.203125 53.125 
C 35.5 47.4375 35.59375 40.734375 35.59375 32.75 
C 35.59375 26.25 35.59375 18.265625 34.40625 12.375 
C 32.296875 1.484375 26.40625 -0.40625 22.90625 -0.40625 
z
" id="CMR17-48"/>
      </defs>
      <g transform="translate(85.012846 296.196641)scale(0.2 -0.2)">
       <use transform="scale(0.996264)" xlink:href="#CMR17-48"/>
      </g>
     </g>
    </g>
    <g id="xtick_2">
     <g id="line2d_2">
      <g>
       <use style="stroke:#000000;stroke-width:0.8;" x="177.337596" xlink:href="#m16c4e83062" y="275"/>
      </g>
     </g>
     <g id="text_2">
      <!-- $200$ -->
      <defs>
       <path d="M 41.703125 15.453125 
L 39.90625 15.453125 
C 38.90625 8.375 38.09375 7.171875 37.703125 6.5625 
C 37.203125 5.765625 30 5.765625 28.59375 5.765625 
L 9.40625 5.765625 
C 13 9.671875 20 16.75 28.5 24.953125 
C 34.59375 30.734375 41.703125 37.53125 41.703125 47.421875 
C 41.703125 59.21875 32.296875 66 21.796875 66 
C 10.796875 66 4.09375 56.3125 4.09375 47.34375 
C 4.09375 43.4375 7 42.9375 8.203125 42.9375 
C 9.203125 42.9375 12.203125 43.546875 12.203125 47.03125 
C 12.203125 50.109375 9.59375 51 8.203125 51 
C 7.59375 51 7 50.90625 6.59375 50.703125 
C 8.5 59.21875 14.296875 63.40625 20.40625 63.40625 
C 29.09375 63.40625 34.796875 56.515625 34.796875 47.421875 
C 34.796875 38.734375 29.703125 31.25 24 24.75 
L 4.09375 2.28125 
L 4.09375 0 
L 39.296875 0 
z
" id="CMR17-50"/>
      </defs>
      <g transform="translate(163.630453 296.196641)scale(0.2 -0.2)">
       <use transform="scale(0.996264)" xlink:href="#CMR17-50"/>
       <use transform="translate(45.690477 0)scale(0.996264)" xlink:href="#CMR17-48"/>
       <use transform="translate(91.380954 0)scale(0.996264)" xlink:href="#CMR17-48"/>
      </g>
     </g>
    </g>
    <g id="xtick_3">
     <g id="line2d_3">
      <g>
       <use style="stroke:#000000;stroke-width:0.8;" x="265.093299" xlink:href="#m16c4e83062" y="275"/>
      </g>
     </g>
     <g id="text_3">
      <!-- $400$ -->
      <defs>
       <path d="M 33.59375 64.40625 
C 33.59375 66.5 33.5 66.5 31.703125 66.5 
L 2 19.59375 
L 2 17 
L 27.796875 17 
L 27.796875 7.140625 
C 27.796875 3.5 27.59375 2.5 20.59375 2.5 
L 18.703125 2.5 
L 18.703125 0 
C 21.90625 0 27.296875 0 30.703125 0 
C 34.09375 0 39.5 0 42.703125 0 
L 42.703125 2.5 
L 40.796875 2.5 
C 33.796875 2.5 33.59375 3.5 33.59375 7.140625 
L 33.59375 17 
L 43.796875 17 
L 43.796875 19.59375 
L 33.59375 19.59375 
z
M 28.09375 57.859375 
L 28.09375 19.59375 
L 4 19.59375 
z
" id="CMR17-52"/>
      </defs>
      <g transform="translate(251.386156 296.196641)scale(0.2 -0.2)">
       <use transform="scale(0.996264)" xlink:href="#CMR17-52"/>
       <use transform="translate(45.690477 0)scale(0.996264)" xlink:href="#CMR17-48"/>
       <use transform="translate(91.380954 0)scale(0.996264)" xlink:href="#CMR17-48"/>
      </g>
     </g>
    </g>
    <g id="text_4">
     <!-- Time (days) -->
     <defs>
      <path d="M 35.40625 64.78125 
L 59.296875 64.78125 
L 59.296875 73 
L 2.09375 73 
L 2.09375 64.78125 
L 26.09375 64.78125 
L 26.09375 -0.21875 
L 35.40625 -0.21875 
z
" id="Nimbus_Sans_L_Regular-84"/>
      <path d="M 15 52.484375 
L 6.703125 52.484375 
L 6.703125 0 
L 15 0 
z
M 15 73 
L 6.59375 73 
L 6.59375 62.484375 
L 15 62.484375 
z
" id="Nimbus_Sans_L_Regular-105"/>
      <path d="M 7 52.484375 
L 7 0 
L 15.40625 0 
L 15.40625 32.953125 
C 15.40625 40.578125 20.90625 46.6875 27.703125 46.6875 
C 33.90625 46.6875 37.40625 42.875 37.40625 36.15625 
L 37.40625 0 
L 45.796875 0 
L 45.796875 32.953125 
C 45.796875 40.578125 51.296875 46.6875 58.09375 46.6875 
C 64.203125 46.6875 67.796875 42.78125 67.796875 36.15625 
L 67.796875 0 
L 76.203125 0 
L 76.203125 39.375 
C 76.203125 48.78125 70.796875 54 61 54 
C 54 54 49.796875 51.890625 44.90625 45.984375 
C 41.796875 51.59375 37.59375 54 30.796875 54 
C 23.796875 54 19.203125 51.390625 14.703125 45.078125 
L 14.703125 52.484375 
z
" id="Nimbus_Sans_L_Regular-109"/>
      <path d="M 51.296875 23.890625 
C 51.296875 31.78125 50.703125 36.53125 49.203125 40.375 
C 45.796875 48.859375 37.796875 54 28 54 
C 13.40625 54 4 42.84375 4 25.703125 
C 4 8.546875 13.09375 -2 27.796875 -2 
C 39.796875 -2 48.09375 4.84375 50.203125 16.3125 
L 41.796875 16.3125 
C 39.5 9.34375 34.796875 5.703125 28.09375 5.703125 
C 22.796875 5.703125 18.296875 8.125 15.5 12.578125 
C 13.5 15.59375 12.796875 18.640625 12.703125 23.890625 
z
M 12.90625 31 
C 13.59375 40.265625 19.5 46.28125 27.90625 46.28125 
C 36.09375 46.28125 42.40625 39.53125 42.40625 31 
C 42.40625 31 42.40625 31 42.296875 31 
z
" id="Nimbus_Sans_L_Regular-101"/>
      <path d="M 23.59375 73 
C 13.59375 59.84375 7.296875 41.5625 7.296875 25.796875 
C 7.296875 9.9375 13.59375 -8.34375 23.59375 -21.5 
L 29.09375 -21.5 
C 20.296875 -7.140625 15.40625 9.734375 15.40625 25.796875 
C 15.40625 41.765625 20.296875 58.734375 29.09375 73 
z
" id="Nimbus_Sans_L_Regular-40"/>
      <path d="M 49.5 73 
L 41.203125 73 
L 41.203125 45.890625 
C 37.703125 51.1875 32.09375 54 25.09375 54 
C 11.5 54 2.59375 43.140625 2.59375 26.484375 
C 2.59375 8.84375 11.296875 -2 25.40625 -2 
C 32.59375 -2 37.59375 0.703125 42.09375 7.203125 
L 42.09375 -0.03125 
L 49.5 -0.03125 
z
M 26.5 46.1875 
C 35.5 46.1875 41.203125 38.234375 41.203125 25.796875 
C 41.203125 13.765625 35.40625 5.8125 26.59375 5.8125 
C 17.40625 5.8125 11.296875 13.859375 11.296875 26 
C 11.296875 38.125 17.40625 46.1875 26.5 46.1875 
z
" id="Nimbus_Sans_L_Regular-100"/>
      <path d="M 53.5 5.203125 
C 52.59375 5 52.203125 5 51.703125 5 
C 48.796875 5 47.203125 6.484375 47.203125 9.078125 
L 47.203125 39.765625 
C 47.203125 49.015625 40.40625 54 27.5 54 
C 19.90625 54 13.59375 51.8125 10.09375 47.90625 
C 7.703125 45.203125 6.703125 42.21875 6.5 37.03125 
L 14.90625 37.03125 
C 15.59375 43.390625 19.40625 46.28125 27.203125 46.28125 
C 34.703125 46.28125 38.90625 43.484375 38.90625 38.515625 
L 38.90625 36.328125 
C 38.90625 32.828125 36.796875 31.34375 30.203125 30.546875 
C 18.40625 29.0625 16.59375 28.65625 13.40625 27.359375 
C 7.296875 24.875 4.203125 20.1875 4.203125 13.421875 
C 4.203125 3.96875 10.796875 -2 21.40625 -2 
C 28 -2 33.296875 0.296875 39.203125 5.703125 
C 39.796875 0.390625 42.40625 -2 47.796875 -2 
C 49.5 -2 50.796875 -1.8125 53.5 -1.09375 
z
M 38.90625 16.75 
C 38.90625 13.953125 38.09375 12.265625 35.59375 9.984375 
C 32.203125 6.890625 28.09375 5.3125 23.203125 5.3125 
C 16.703125 5.3125 12.90625 8.390625 12.90625 13.65625 
C 12.90625 19.140625 16.59375 21.921875 25.5 23.21875 
C 34.296875 24.40625 36.09375 24.8125 38.90625 26.09375 
z
" id="Nimbus_Sans_L_Regular-97"/>
      <path d="M 38.796875 52.5 
L 24.296875 11.53125 
L 10.90625 52.5 
L 2 52.5 
L 19.703125 -0.328125 
L 16.5 -8.65625 
C 15.203125 -12.375 13.296875 -13.78125 9.796875 -13.78125 
C 8.59375 -13.78125 7.203125 -13.578125 5.40625 -13.171875 
L 5.40625 -20.703125 
C 7.09375 -21.59375 8.796875 -22 11 -22 
C 13.703125 -22 16.59375 -21.09375 18.796875 -19.484375 
C 21.40625 -17.578125 22.90625 -15.359375 24.5 -11.140625 
L 47.796875 52.5 
z
" id="Nimbus_Sans_L_Regular-121"/>
      <path d="M 43.796875 37.921875 
C 43.703125 48.203125 36.90625 54 24.796875 54 
C 12.59375 54 4.703125 47.71875 4.703125 38.0625 
C 4.703125 29.890625 8.90625 26.015625 21.296875 23.03125 
L 29.09375 21.140625 
C 34.90625 19.734375 37.203125 17.65625 37.203125 13.875 
C 37.203125 9 32.296875 5.703125 25 5.703125 
C 20.5 5.703125 16.703125 7 14.59375 9.1875 
C 13.296875 10.6875 12.703125 12.171875 12.203125 15.84375 
L 3.40625 15.84375 
C 3.796875 3.765625 10.59375 -2 24.296875 -2 
C 37.5 -2 45.90625 4.453125 45.90625 14.515625 
C 45.90625 22.28125 41.5 26.578125 31.09375 29.0625 
L 23.09375 30.953125 
C 16.296875 32.53125 13.40625 34.734375 13.40625 38.40625 
C 13.40625 43.1875 17.703125 46.28125 24.5 46.28125 
C 31.203125 46.28125 34.796875 43.390625 35 37.921875 
z
" id="Nimbus_Sans_L_Regular-115"/>
      <path d="M 9.296875 -21.5 
C 19.296875 -8.34375 25.59375 9.9375 25.59375 25.6875 
C 25.59375 41.5625 19.296875 59.84375 9.296875 73 
L 3.796875 73 
C 12.59375 58.640625 17.5 41.765625 17.5 25.6875 
C 17.5 9.734375 12.59375 -7.25 3.796875 -21.5 
z
" id="Nimbus_Sans_L_Regular-41"/>
     </defs>
     <g transform="translate(146.992963 319.005988)scale(0.2 -0.2)">
      <use transform="scale(0.996264)" xlink:href="#Nimbus_Sans_L_Regular-84"/>
      <use transform="translate(60.871631 0)scale(0.996264)" xlink:href="#Nimbus_Sans_L_Regular-105"/>
      <use transform="translate(82.988415 0)scale(0.996264)" xlink:href="#Nimbus_Sans_L_Regular-109"/>
      <use transform="translate(165.976845 0)scale(0.996264)" xlink:href="#Nimbus_Sans_L_Regular-101"/>
      <use transform="translate(249.063692 0)scale(0.996264)" xlink:href="#Nimbus_Sans_L_Regular-40"/>
      <use transform="translate(282.238922 0)scale(0.996264)" xlink:href="#Nimbus_Sans_L_Regular-100"/>
      <use transform="translate(337.630599 0)scale(0.996264)" xlink:href="#Nimbus_Sans_L_Regular-97"/>
      <use transform="translate(390.034168 0)scale(0.996264)" xlink:href="#Nimbus_Sans_L_Regular-121"/>
      <use transform="translate(439.847368 0)scale(0.996264)" xlink:href="#Nimbus_Sans_L_Regular-115"/>
      <use transform="translate(489.660569 0)scale(0.996264)" xlink:href="#Nimbus_Sans_L_Regular-41"/>
     </g>
    </g>
   </g>
   <g id="matplotlib.axis_2">
    <g id="ytick_1">
     <g id="line2d_4">
      <defs>
       <path d="M 0 0 
L -3.5 0 
" id="m2b2f1bbe53" style="stroke:#000000;stroke-width:0.8;"/>
      </defs>
      <g>
       <use style="stroke:#000000;stroke-width:0.8;" x="78.61243" xlink:href="#m2b2f1bbe53" y="262.986364"/>
      </g>
     </g>
     <g id="text_5">
      <!-- $0.000$ -->
      <defs>
       <path d="M 18.40625 4.796875 
C 18.40625 7.6875 16 9.671875 13.59375 9.671875 
C 10.703125 9.671875 8.703125 7.28125 8.703125 4.890625 
C 8.703125 2 11.09375 0 13.5 0 
C 16.40625 0 18.40625 2.390625 18.40625 4.796875 
z
" id="CMMI12-58"/>
      </defs>
      <g transform="translate(29.640613 270.084684)scale(0.2 -0.2)">
       <use transform="scale(0.996264)" xlink:href="#CMR17-48"/>
       <use transform="translate(45.690477 0)scale(0.996264)" xlink:href="#CMMI12-58"/>
       <use transform="translate(72.787654 0)scale(0.996264)" xlink:href="#CMR17-48"/>
       <use transform="translate(118.478131 0)scale(0.996264)" xlink:href="#CMR17-48"/>
       <use transform="translate(164.168608 0)scale(0.996264)" xlink:href="#CMR17-48"/>
      </g>
     </g>
    </g>
    <g id="ytick_2">
     <g id="line2d_5">
      <g>
       <use style="stroke:#000000;stroke-width:0.8;" x="78.61243" xlink:href="#m2b2f1bbe53" y="213.618255"/>
      </g>
     </g>
     <g id="text_6">
      <!-- $0.001$ -->
      <defs>
       <path d="M 26.59375 63.40625 
C 26.59375 65.5 26.5 65.5 25.09375 65.5 
C 21.203125 61.1875 15.296875 59.796875 9.703125 59.796875 
C 9.40625 59.796875 8.90625 59.796875 8.796875 59.5 
C 8.703125 59.296875 8.703125 59.09375 8.703125 57 
C 11.796875 57 17 57.59375 21 59.984375 
L 21 7.203125 
C 21 3.6875 20.796875 2.5 12.203125 2.5 
L 9.203125 2.5 
L 9.203125 0 
C 14 0 19 0 23.796875 0 
C 28.59375 0 33.59375 0 38.40625 0 
L 38.40625 2.5 
L 35.40625 2.5 
C 26.796875 2.5 26.59375 3.59375 26.59375 7.15625 
z
" id="CMR17-49"/>
      </defs>
      <g transform="translate(29.640613 220.716575)scale(0.2 -0.2)">
       <use transform="scale(0.996264)" xlink:href="#CMR17-48"/>
       <use transform="translate(45.690477 0)scale(0.996264)" xlink:href="#CMMI12-58"/>
       <use transform="translate(72.787654 0)scale(0.996264)" xlink:href="#CMR17-48"/>
       <use transform="translate(118.478131 0)scale(0.996264)" xlink:href="#CMR17-48"/>
       <use transform="translate(164.168608 0)scale(0.996264)" xlink:href="#CMR17-49"/>
      </g>
     </g>
    </g>
    <g id="ytick_3">
     <g id="line2d_6">
      <g>
       <use style="stroke:#000000;stroke-width:0.8;" x="78.61243" xlink:href="#m2b2f1bbe53" y="164.250146"/>
      </g>
     </g>
     <g id="text_7">
      <!-- $0.002$ -->
      <g transform="translate(29.640613 171.348466)scale(0.2 -0.2)">
       <use transform="scale(0.996264)" xlink:href="#CMR17-48"/>
       <use transform="translate(45.690477 0)scale(0.996264)" xlink:href="#CMMI12-58"/>
       <use transform="translate(72.787654 0)scale(0.996264)" xlink:href="#CMR17-48"/>
       <use transform="translate(118.478131 0)scale(0.996264)" xlink:href="#CMR17-48"/>
       <use transform="translate(164.168608 0)scale(0.996264)" xlink:href="#CMR17-50"/>
      </g>
     </g>
    </g>
    <g id="ytick_4">
     <g id="line2d_7">
      <g>
       <use style="stroke:#000000;stroke-width:0.8;" x="78.61243" xlink:href="#m2b2f1bbe53" y="114.882037"/>
      </g>
     </g>
     <g id="text_8">
      <!-- $0.003$ -->
      <defs>
       <path d="M 22.09375 33.703125 
C 31 33.703125 34.90625 25.96875 34.90625 17.03125 
C 34.90625 5 28.5 0.390625 22.703125 0.390625 
C 17.40625 0.390625 8.796875 3.03125 6.09375 10.828125 
C 6.59375 10.625 7.09375 10.625 7.59375 10.625 
C 10 10.625 11.796875 12.21875 11.796875 14.8125 
C 11.796875 17.703125 9.59375 19 7.59375 19 
C 5.90625 19 3.296875 18.203125 3.296875 14.46875 
C 3.296875 5.234375 12.296875 -2 22.90625 -2 
C 34 -2 42.5 6.71875 42.5 16.953125 
C 42.5 26.671875 34.5 33.703125 25 34.796875 
C 32.59375 36.375 39.90625 43.0625 39.90625 52.015625 
C 39.90625 59.6875 32 65.296875 23 65.296875 
C 13.90625 65.296875 5.90625 59.828125 5.90625 52.015625 
C 5.90625 48.59375 8.5 48 9.796875 48 
C 11.90625 48 13.703125 49.296875 13.703125 51.890625 
C 13.703125 54.46875 11.90625 55.765625 9.796875 55.765625 
C 9.40625 55.765625 8.90625 55.765625 8.5 55.578125 
C 11.40625 61.859375 19.296875 63 22.796875 63 
C 26.296875 63 32.90625 61.328125 32.90625 51.875 
C 32.90625 49.109375 32.5 44.1875 29.09375 39.84375 
C 26.09375 36 22.703125 36 19.40625 35.6875 
C 18.90625 35.6875 16.59375 35.453125 16.203125 35.453125 
C 15.5 35.359375 15.09375 35.265625 15.09375 34.5 
C 15.09375 33.796875 15.203125 33.703125 17.203125 33.703125 
z
" id="CMR17-51"/>
      </defs>
      <g transform="translate(29.640613 121.980357)scale(0.2 -0.2)">
       <use transform="scale(0.996264)" xlink:href="#CMR17-48"/>
       <use transform="translate(45.690477 0)scale(0.996264)" xlink:href="#CMMI12-58"/>
       <use transform="translate(72.787654 0)scale(0.996264)" xlink:href="#CMR17-48"/>
       <use transform="translate(118.478131 0)scale(0.996264)" xlink:href="#CMR17-48"/>
       <use transform="translate(164.168608 0)scale(0.996264)" xlink:href="#CMR17-51"/>
      </g>
     </g>
    </g>
    <g id="ytick_5">
     <g id="line2d_8">
      <g>
       <use style="stroke:#000000;stroke-width:0.8;" x="78.61243" xlink:href="#m2b2f1bbe53" y="65.513928"/>
      </g>
     </g>
     <g id="text_9">
      <!-- $0.004$ -->
      <g transform="translate(29.640613 72.612248)scale(0.2 -0.2)">
       <use transform="scale(0.996264)" xlink:href="#CMR17-48"/>
       <use transform="translate(45.690477 0)scale(0.996264)" xlink:href="#CMMI12-58"/>
       <use transform="translate(72.787654 0)scale(0.996264)" xlink:href="#CMR17-48"/>
       <use transform="translate(118.478131 0)scale(0.996264)" xlink:href="#CMR17-48"/>
       <use transform="translate(164.168608 0)scale(0.996264)" xlink:href="#CMR17-52"/>
      </g>
     </g>
    </g>
    <g id="ytick_6">
     <g id="line2d_9">
      <g>
       <use style="stroke:#000000;stroke-width:0.8;" x="78.61243" xlink:href="#m2b2f1bbe53" y="16.145819"/>
      </g>
     </g>
     <g id="text_10">
      <!-- $0.005$ -->
      <defs>
       <path d="M 11.40625 57.6875 
C 12.40625 57.28125 16.5 56 20.703125 56 
C 30 56 35.09375 61.109375 38 64.0625 
C 38 64.953125 38 65.5 37.40625 65.5 
C 37.296875 65.5 37.09375 65.5 36.296875 65.046875 
C 32.796875 63.40625 28.703125 62.078125 23.703125 62.078125 
C 20.703125 62.078125 16.203125 62.484375 11.296875 64.671875 
C 10.203125 65.171875 10 65.171875 9.90625 65.171875 
C 9.40625 65.171875 9.296875 65.0625 9.296875 63.078125 
L 9.296875 34.421875 
C 9.296875 32.640625 9.296875 32.140625 10.296875 32.140625 
C 10.796875 32.140625 11 32.34375 11.5 33.03125 
C 14.703125 37.515625 19.09375 39.40625 24.09375 39.40625 
C 27.59375 39.40625 35.09375 37.21875 35.09375 20.140625 
C 35.09375 16.953125 35.09375 11.171875 32.09375 6.578125 
C 29.59375 2.484375 25.703125 0.390625 21.40625 0.390625 
C 14.796875 0.390625 8.09375 5 6.296875 12.71875 
C 6.703125 12.609375 7.5 12.421875 7.90625 12.421875 
C 9.203125 12.421875 11.703125 13.125 11.703125 16.21875 
C 11.703125 18.90625 9.796875 20 7.90625 20 
C 5.59375 20 4.09375 18.59375 4.09375 15.796875 
C 4.09375 7.09375 11 -2 21.59375 -2 
C 31.90625 -2 41.703125 6.875 41.703125 19.75 
C 41.703125 31.71875 33.90625 41 24.203125 41 
C 19.09375 41 14.796875 39.109375 11.40625 35.53125 
z
" id="CMR17-53"/>
      </defs>
      <g transform="translate(29.640613 23.24414)scale(0.2 -0.2)">
       <use transform="scale(0.996264)" xlink:href="#CMR17-48"/>
       <use transform="translate(45.690477 0)scale(0.996264)" xlink:href="#CMMI12-58"/>
       <use transform="translate(72.787654 0)scale(0.996264)" xlink:href="#CMR17-48"/>
       <use transform="translate(118.478131 0)scale(0.996264)" xlink:href="#CMR17-48"/>
       <use transform="translate(164.168608 0)scale(0.996264)" xlink:href="#CMR17-53"/>
      </g>
     </g>
    </g>
    <g id="text_11">
     <!-- Heteroplasmy variance -->
     <defs>
      <path d="M 55.09375 33 
L 55.09375 -0.03125 
L 64.40625 -0.03125 
L 64.40625 73 
L 55.09375 73 
L 55.09375 41.21875 
L 17.59375 41.21875 
L 17.59375 73 
L 8.296875 73 
L 8.296875 -0.03125 
L 17.703125 -0.03125 
L 17.703125 33 
z
" id="Nimbus_Sans_L_Regular-72"/>
      <path d="M 25.40625 52.8125 
L 16.796875 52.8125 
L 16.796875 67 
L 8.5 67 
L 8.5 52.8125 
L 1.40625 52.8125 
L 1.40625 46 
L 8.5 46 
L 8.5 6.3125 
C 8.5 1 12.09375 -2 18.59375 -2 
C 20.59375 -2 22.59375 -1.8125 25.40625 -1.296875 
L 25.40625 5.71875 
C 24.296875 5.40625 23 5.3125 21.40625 5.3125 
C 17.796875 5.3125 16.796875 6.3125 16.796875 10.015625 
L 16.796875 46 
L 25.40625 46 
z
" id="Nimbus_Sans_L_Regular-116"/>
      <path d="M 6.90625 52.484375 
L 6.90625 0 
L 15.296875 0 
L 15.296875 27.203125 
C 15.296875 34.703125 17.203125 39.609375 21.203125 42.5 
C 23.796875 44.40625 26.296875 45 32.09375 45 
L 32.09375 53.625 
C 30.703125 53.8125 30 53.8125 28.90625 53.8125 
C 23.5 53.8125 19.40625 50.625 14.59375 42.90625 
L 14.59375 52.484375 
z
" id="Nimbus_Sans_L_Regular-114"/>
      <path d="M 27.203125 54 
C 12.5 54 3.59375 43.53125 3.59375 25.984375 
C 3.59375 8.453125 12.40625 -2 27.296875 -2 
C 42 -2 51 8.453125 51 25.59375 
C 51 43.625 42.296875 54 27.203125 54 
z
M 27.296875 46.28125 
C 36.703125 46.28125 42.296875 38.625 42.296875 25.703125 
C 42.296875 13.453125 36.5 5.703125 27.296875 5.703125 
C 18 5.703125 12.296875 13.359375 12.296875 25.984375 
C 12.296875 38.53125 18 46.28125 27.296875 46.28125 
z
" id="Nimbus_Sans_L_Regular-111"/>
      <path d="M 5.40625 -22 
L 13.796875 -22 
L 13.796875 5 
C 18.203125 -0.421875 23.09375 -2.8125 29.90625 -2.8125 
C 43.40625 -2.8125 52.296875 8.15625 52.296875 24.984375 
C 52.296875 42.71875 43.703125 53.8125 29.796875 53.8125 
C 22.703125 53.8125 17 50.59375 13.09375 44.390625 
L 13.09375 52.328125 
L 5.40625 52.328125 
z
M 28.40625 46 
C 37.59375 46 43.59375 37.8125 43.59375 25.1875 
C 43.59375 13.171875 37.5 5 28.40625 5 
C 19.59375 5 13.796875 13.078125 13.796875 25.5 
C 13.796875 37.921875 19.59375 46 28.40625 46 
z
" id="Nimbus_Sans_L_Regular-112"/>
      <path d="M 15.203125 73 
L 6.796875 73 
L 6.796875 -0.03125 
L 15.203125 -0.03125 
z
" id="Nimbus_Sans_L_Regular-108"/>
      <path d="M 28.5 0 
L 48.59375 52.5 
L 39.203125 52.5 
L 24.40625 9.921875 
L 10.40625 52.5 
L 1 52.5 
L 19.40625 0 
z
" id="Nimbus_Sans_L_Regular-118"/>
      <path d="M 7 52.484375 
L 7 0 
L 15.40625 0 
L 15.40625 28.953125 
C 15.40625 39.671875 21 46.6875 29.59375 46.6875 
C 36.203125 46.6875 40.40625 42.671875 40.40625 36.359375 
L 40.40625 0 
L 48.703125 0 
L 48.703125 39.671875 
C 48.703125 48.390625 42.203125 54 32.09375 54 
C 24.296875 54 19.296875 50.984375 14.703125 43.6875 
L 14.703125 52.484375 
z
" id="Nimbus_Sans_L_Regular-110"/>
      <path d="M 47.09375 34.9375 
C 46.703125 40.03125 45.59375 43.328125 43.59375 46.21875 
C 40 51.109375 33.703125 54 26.40625 54 
C 12.296875 54 3.09375 42.84375 3.09375 25.5 
C 3.09375 8.65625 12.09375 -2 26.296875 -2 
C 38.796875 -2 46.703125 5.46875 47.703125 18.234375 
L 39.296875 18.234375 
C 37.90625 9.875 33.59375 5.703125 26.5 5.703125 
C 17.296875 5.703125 11.796875 13.171875 11.796875 25.5 
C 11.796875 38.53125 17.203125 46.28125 26.296875 46.28125 
C 33.296875 46.28125 37.703125 42.203125 38.703125 34.9375 
z
" id="Nimbus_Sans_L_Regular-99"/>
     </defs>
     <g transform="translate(21.396641 244.467956)rotate(-90)scale(0.2 -0.2)">
      <use transform="scale(0.996264)" xlink:href="#Nimbus_Sans_L_Regular-72"/>
      <use transform="translate(71.929985 0)scale(0.996264)" xlink:href="#Nimbus_Sans_L_Regular-101"/>
      <use transform="translate(127.321662 0)scale(0.996264)" xlink:href="#Nimbus_Sans_L_Regular-116"/>
      <use transform="translate(155.016831 0)scale(0.996264)" xlink:href="#Nimbus_Sans_L_Regular-101"/>
      <use transform="translate(210.408508 0)scale(0.996264)" xlink:href="#Nimbus_Sans_L_Regular-114"/>
      <use transform="translate(243.583738 0)scale(0.996264)" xlink:href="#Nimbus_Sans_L_Regular-111"/>
      <use transform="translate(298.975415 0)scale(0.996264)" xlink:href="#Nimbus_Sans_L_Regular-112"/>
      <use transform="translate(354.367092 0)scale(0.996264)" xlink:href="#Nimbus_Sans_L_Regular-108"/>
      <use transform="translate(376.483876 0)scale(0.996264)" xlink:href="#Nimbus_Sans_L_Regular-97"/>
      <use transform="translate(431.875553 0)scale(0.996264)" xlink:href="#Nimbus_Sans_L_Regular-115"/>
      <use transform="translate(481.688754 0)scale(0.996264)" xlink:href="#Nimbus_Sans_L_Regular-109"/>
      <use transform="translate(563.183791 0)scale(0.996264)" xlink:href="#Nimbus_Sans_L_Regular-121"/>
      <use transform="translate(640.692161 0)scale(0.996264)" xlink:href="#Nimbus_Sans_L_Regular-118"/>
      <use transform="translate(688.014732 0)scale(0.996264)" xlink:href="#Nimbus_Sans_L_Regular-97"/>
      <use transform="translate(743.406409 0)scale(0.996264)" xlink:href="#Nimbus_Sans_L_Regular-114"/>
      <use transform="translate(778.075017 0)scale(0.996264)" xlink:href="#Nimbus_Sans_L_Regular-105"/>
      <use transform="translate(800.191801 0)scale(0.996264)" xlink:href="#Nimbus_Sans_L_Regular-97"/>
      <use transform="translate(855.583478 0)scale(0.996264)" xlink:href="#Nimbus_Sans_L_Regular-110"/>
      <use transform="translate(910.975155 0)scale(0.996264)" xlink:href="#Nimbus_Sans_L_Regular-99"/>
      <use transform="translate(960.788355 0)scale(0.996264)" xlink:href="#Nimbus_Sans_L_Regular-101"/>
     </g>
    </g>
   </g>
   <g id="line2d_10">
    <defs>
     <path d="M -0 7.071068 
L 4.242641 0 
L -0 -7.071068 
L -4.242641 -0 
z
" id="m5a7d16f003" style="stroke:#2a00d5;stroke-linejoin:miter;"/>
    </defs>
    <g clip-path="url(#p5c99e2455e)">
     <use style="fill:#2a00d5;opacity:0.4;stroke:#2a00d5;stroke-linejoin:miter;" x="89.581893" xlink:href="#m5a7d16f003" y="262.986364"/>
     <use style="fill:#2a00d5;opacity:0.4;stroke:#2a00d5;stroke-linejoin:miter;" x="93.969678" xlink:href="#m5a7d16f003" y="258.264081"/>
     <use style="fill:#2a00d5;opacity:0.4;stroke:#2a00d5;stroke-linejoin:miter;" x="98.357464" xlink:href="#m5a7d16f003" y="253.470329"/>
     <use style="fill:#2a00d5;opacity:0.4;stroke:#2a00d5;stroke-linejoin:miter;" x="102.745249" xlink:href="#m5a7d16f003" y="248.659728"/>
     <use style="fill:#2a00d5;opacity:0.4;stroke:#2a00d5;stroke-linejoin:miter;" x="107.133034" xlink:href="#m5a7d16f003" y="243.923551"/>
     <use style="fill:#2a00d5;opacity:0.4;stroke:#2a00d5;stroke-linejoin:miter;" x="111.520819" xlink:href="#m5a7d16f003" y="239.306455"/>
     <use style="fill:#2a00d5;opacity:0.4;stroke:#2a00d5;stroke-linejoin:miter;" x="115.908604" xlink:href="#m5a7d16f003" y="234.5809"/>
     <use style="fill:#2a00d5;opacity:0.4;stroke:#2a00d5;stroke-linejoin:miter;" x="120.296389" xlink:href="#m5a7d16f003" y="229.911694"/>
     <use style="fill:#2a00d5;opacity:0.4;stroke:#2a00d5;stroke-linejoin:miter;" x="124.684174" xlink:href="#m5a7d16f003" y="224.976889"/>
     <use style="fill:#2a00d5;opacity:0.4;stroke:#2a00d5;stroke-linejoin:miter;" x="129.07196" xlink:href="#m5a7d16f003" y="220.228252"/>
     <use style="fill:#2a00d5;opacity:0.4;stroke:#2a00d5;stroke-linejoin:miter;" x="133.459745" xlink:href="#m5a7d16f003" y="215.472097"/>
     <use style="fill:#2a00d5;opacity:0.4;stroke:#2a00d5;stroke-linejoin:miter;" x="137.84753" xlink:href="#m5a7d16f003" y="211.037157"/>
     <use style="fill:#2a00d5;opacity:0.4;stroke:#2a00d5;stroke-linejoin:miter;" x="142.235315" xlink:href="#m5a7d16f003" y="205.544202"/>
     <use style="fill:#2a00d5;opacity:0.4;stroke:#2a00d5;stroke-linejoin:miter;" x="146.6231" xlink:href="#m5a7d16f003" y="200.847048"/>
     <use style="fill:#2a00d5;opacity:0.4;stroke:#2a00d5;stroke-linejoin:miter;" x="151.010885" xlink:href="#m5a7d16f003" y="195.733357"/>
     <use style="fill:#2a00d5;opacity:0.4;stroke:#2a00d5;stroke-linejoin:miter;" x="155.39867" xlink:href="#m5a7d16f003" y="191.175759"/>
     <use style="fill:#2a00d5;opacity:0.4;stroke:#2a00d5;stroke-linejoin:miter;" x="159.786456" xlink:href="#m5a7d16f003" y="186.916393"/>
     <use style="fill:#2a00d5;opacity:0.4;stroke:#2a00d5;stroke-linejoin:miter;" x="164.174241" xlink:href="#m5a7d16f003" y="181.906513"/>
     <use style="fill:#2a00d5;opacity:0.4;stroke:#2a00d5;stroke-linejoin:miter;" x="168.562026" xlink:href="#m5a7d16f003" y="177.180681"/>
     <use style="fill:#2a00d5;opacity:0.4;stroke:#2a00d5;stroke-linejoin:miter;" x="172.949811" xlink:href="#m5a7d16f003" y="172.394593"/>
     <use style="fill:#2a00d5;opacity:0.4;stroke:#2a00d5;stroke-linejoin:miter;" x="177.337596" xlink:href="#m5a7d16f003" y="168.153531"/>
     <use style="fill:#2a00d5;opacity:0.4;stroke:#2a00d5;stroke-linejoin:miter;" x="181.725381" xlink:href="#m5a7d16f003" y="163.01312"/>
     <use style="fill:#2a00d5;opacity:0.4;stroke:#2a00d5;stroke-linejoin:miter;" x="186.113166" xlink:href="#m5a7d16f003" y="157.704782"/>
     <use style="fill:#2a00d5;opacity:0.4;stroke:#2a00d5;stroke-linejoin:miter;" x="190.500952" xlink:href="#m5a7d16f003" y="152.559035"/>
     <use style="fill:#2a00d5;opacity:0.4;stroke:#2a00d5;stroke-linejoin:miter;" x="194.888737" xlink:href="#m5a7d16f003" y="147.615603"/>
     <use style="fill:#2a00d5;opacity:0.4;stroke:#2a00d5;stroke-linejoin:miter;" x="199.276522" xlink:href="#m5a7d16f003" y="143.041259"/>
     <use style="fill:#2a00d5;opacity:0.4;stroke:#2a00d5;stroke-linejoin:miter;" x="203.664307" xlink:href="#m5a7d16f003" y="138.0188"/>
     <use style="fill:#2a00d5;opacity:0.4;stroke:#2a00d5;stroke-linejoin:miter;" x="208.052092" xlink:href="#m5a7d16f003" y="132.872295"/>
     <use style="fill:#2a00d5;opacity:0.4;stroke:#2a00d5;stroke-linejoin:miter;" x="212.439877" xlink:href="#m5a7d16f003" y="127.840425"/>
     <use style="fill:#2a00d5;opacity:0.4;stroke:#2a00d5;stroke-linejoin:miter;" x="216.827662" xlink:href="#m5a7d16f003" y="122.492262"/>
     <use style="fill:#2a00d5;opacity:0.4;stroke:#2a00d5;stroke-linejoin:miter;" x="221.215448" xlink:href="#m5a7d16f003" y="117.699666"/>
     <use style="fill:#2a00d5;opacity:0.4;stroke:#2a00d5;stroke-linejoin:miter;" x="225.603233" xlink:href="#m5a7d16f003" y="113.403343"/>
     <use style="fill:#2a00d5;opacity:0.4;stroke:#2a00d5;stroke-linejoin:miter;" x="229.991018" xlink:href="#m5a7d16f003" y="107.971362"/>
     <use style="fill:#2a00d5;opacity:0.4;stroke:#2a00d5;stroke-linejoin:miter;" x="234.378803" xlink:href="#m5a7d16f003" y="103.969767"/>
     <use style="fill:#2a00d5;opacity:0.4;stroke:#2a00d5;stroke-linejoin:miter;" x="238.766588" xlink:href="#m5a7d16f003" y="99.335462"/>
     <use style="fill:#2a00d5;opacity:0.4;stroke:#2a00d5;stroke-linejoin:miter;" x="243.154373" xlink:href="#m5a7d16f003" y="94.756774"/>
     <use style="fill:#2a00d5;opacity:0.4;stroke:#2a00d5;stroke-linejoin:miter;" x="247.542158" xlink:href="#m5a7d16f003" y="90.896234"/>
     <use style="fill:#2a00d5;opacity:0.4;stroke:#2a00d5;stroke-linejoin:miter;" x="251.929944" xlink:href="#m5a7d16f003" y="86.08619"/>
     <use style="fill:#2a00d5;opacity:0.4;stroke:#2a00d5;stroke-linejoin:miter;" x="256.317729" xlink:href="#m5a7d16f003" y="80.763661"/>
     <use style="fill:#2a00d5;opacity:0.4;stroke:#2a00d5;stroke-linejoin:miter;" x="260.705514" xlink:href="#m5a7d16f003" y="76.656897"/>
     <use style="fill:#2a00d5;opacity:0.4;stroke:#2a00d5;stroke-linejoin:miter;" x="265.093299" xlink:href="#m5a7d16f003" y="72.287247"/>
     <use style="fill:#2a00d5;opacity:0.4;stroke:#2a00d5;stroke-linejoin:miter;" x="269.481084" xlink:href="#m5a7d16f003" y="67.905516"/>
     <use style="fill:#2a00d5;opacity:0.4;stroke:#2a00d5;stroke-linejoin:miter;" x="273.868869" xlink:href="#m5a7d16f003" y="63.428551"/>
     <use style="fill:#2a00d5;opacity:0.4;stroke:#2a00d5;stroke-linejoin:miter;" x="278.256654" xlink:href="#m5a7d16f003" y="58.406875"/>
     <use style="fill:#2a00d5;opacity:0.4;stroke:#2a00d5;stroke-linejoin:miter;" x="282.64444" xlink:href="#m5a7d16f003" y="53.270341"/>
     <use style="fill:#2a00d5;opacity:0.4;stroke:#2a00d5;stroke-linejoin:miter;" x="287.032225" xlink:href="#m5a7d16f003" y="48.642697"/>
     <use style="fill:#2a00d5;opacity:0.4;stroke:#2a00d5;stroke-linejoin:miter;" x="291.42001" xlink:href="#m5a7d16f003" y="42.987052"/>
     <use style="fill:#2a00d5;opacity:0.4;stroke:#2a00d5;stroke-linejoin:miter;" x="295.807795" xlink:href="#m5a7d16f003" y="37.922676"/>
     <use style="fill:#2a00d5;opacity:0.4;stroke:#2a00d5;stroke-linejoin:miter;" x="300.19558" xlink:href="#m5a7d16f003" y="33.131117"/>
     <use style="fill:#2a00d5;opacity:0.4;stroke:#2a00d5;stroke-linejoin:miter;" x="304.583365" xlink:href="#m5a7d16f003" y="27.911837"/>
     <use style="fill:#2a00d5;opacity:0.4;stroke:#2a00d5;stroke-linejoin:miter;" x="308.97115" xlink:href="#m5a7d16f003" y="22.713636"/>
    </g>
   </g>
   <g id="line2d_11">
    <path clip-path="url(#p5c99e2455e)" d="M 89.581893 262.986364 
L 93.969678 258.286728 
L 98.357464 253.587091 
L 102.745249 248.887455 
L 107.133034 244.187819 
L 111.520819 239.488183 
L 115.908604 234.788547 
L 120.296389 230.088911 
L 124.684174 225.389275 
L 129.07196 220.689639 
L 133.459745 215.990003 
L 137.84753 211.290367 
L 142.235315 206.590731 
L 146.6231 201.891094 
L 151.010885 197.191458 
L 155.39867 192.491822 
L 159.786456 187.792186 
L 164.174241 183.09255 
L 168.562026 178.392914 
L 172.949811 173.693278 
L 177.337596 168.993642 
L 181.725381 164.294006 
L 186.113166 159.59437 
L 190.500952 154.894734 
L 194.888737 150.195098 
L 199.276522 145.495461 
L 203.664307 140.795825 
L 208.052092 136.096189 
L 212.439877 131.396553 
L 216.827662 126.696917 
L 221.215448 121.997281 
L 225.603233 117.297645 
L 229.991018 112.598009 
L 234.378803 107.898373 
L 238.766588 103.198737 
L 243.154373 98.499101 
L 247.542158 93.799464 
L 251.929944 89.099828 
L 256.317729 84.400192 
L 260.705514 79.700556 
L 265.093299 75.00092 
L 269.481084 70.301284 
L 273.868869 65.601648 
L 278.256654 60.902012 
L 282.64444 56.202376 
L 287.032225 51.50274 
L 291.42001 46.803104 
L 295.807795 42.103467 
L 300.19558 37.403831 
L 304.583365 32.704195 
L 308.97115 28.004559 
" style="fill:none;stroke:#2a00d5;stroke-linecap:square;stroke-width:1.5;"/>
   </g>
   <g id="line2d_12">
    <defs>
     <path d="M 0 5 
C 1.326016 5 2.597899 4.473168 3.535534 3.535534 
C 4.473168 2.597899 5 1.326016 5 0 
C 5 -1.326016 4.473168 -2.597899 3.535534 -3.535534 
C 2.597899 -4.473168 1.326016 -5 0 -5 
C -1.326016 -5 -2.597899 -4.473168 -3.535534 -3.535534 
C -4.473168 -2.597899 -5 -1.326016 -5 0 
C -5 1.326016 -4.473168 2.597899 -3.535534 3.535534 
C -2.597899 4.473168 -1.326016 5 0 5 
z
" id="m1c7502de7c" style="stroke:#80007f;"/>
    </defs>
    <g clip-path="url(#p5c99e2455e)">
     <use style="fill:#80007f;opacity:0.4;stroke:#80007f;" x="89.581893" xlink:href="#m1c7502de7c" y="262.986364"/>
     <use style="fill:#80007f;opacity:0.4;stroke:#80007f;" x="93.969678" xlink:href="#m1c7502de7c" y="258.621544"/>
     <use style="fill:#80007f;opacity:0.4;stroke:#80007f;" x="98.357464" xlink:href="#m1c7502de7c" y="254.05616"/>
     <use style="fill:#80007f;opacity:0.4;stroke:#80007f;" x="102.745249" xlink:href="#m1c7502de7c" y="249.38857"/>
     <use style="fill:#80007f;opacity:0.4;stroke:#80007f;" x="107.133034" xlink:href="#m1c7502de7c" y="245.109196"/>
     <use style="fill:#80007f;opacity:0.4;stroke:#80007f;" x="111.520819" xlink:href="#m1c7502de7c" y="240.92625"/>
     <use style="fill:#80007f;opacity:0.4;stroke:#80007f;" x="115.908604" xlink:href="#m1c7502de7c" y="236.784708"/>
     <use style="fill:#80007f;opacity:0.4;stroke:#80007f;" x="120.296389" xlink:href="#m1c7502de7c" y="232.284735"/>
     <use style="fill:#80007f;opacity:0.4;stroke:#80007f;" x="124.684174" xlink:href="#m1c7502de7c" y="227.694408"/>
     <use style="fill:#80007f;opacity:0.4;stroke:#80007f;" x="129.07196" xlink:href="#m1c7502de7c" y="223.710601"/>
     <use style="fill:#80007f;opacity:0.4;stroke:#80007f;" x="133.459745" xlink:href="#m1c7502de7c" y="219.63247"/>
     <use style="fill:#80007f;opacity:0.4;stroke:#80007f;" x="137.84753" xlink:href="#m1c7502de7c" y="214.925806"/>
     <use style="fill:#80007f;opacity:0.4;stroke:#80007f;" x="142.235315" xlink:href="#m1c7502de7c" y="210.105829"/>
     <use style="fill:#80007f;opacity:0.4;stroke:#80007f;" x="146.6231" xlink:href="#m1c7502de7c" y="205.044977"/>
     <use style="fill:#80007f;opacity:0.4;stroke:#80007f;" x="151.010885" xlink:href="#m1c7502de7c" y="200.556591"/>
     <use style="fill:#80007f;opacity:0.4;stroke:#80007f;" x="155.39867" xlink:href="#m1c7502de7c" y="195.874524"/>
     <use style="fill:#80007f;opacity:0.4;stroke:#80007f;" x="159.786456" xlink:href="#m1c7502de7c" y="191.325301"/>
     <use style="fill:#80007f;opacity:0.4;stroke:#80007f;" x="164.174241" xlink:href="#m1c7502de7c" y="186.869035"/>
     <use style="fill:#80007f;opacity:0.4;stroke:#80007f;" x="168.562026" xlink:href="#m1c7502de7c" y="182.365786"/>
     <use style="fill:#80007f;opacity:0.4;stroke:#80007f;" x="172.949811" xlink:href="#m1c7502de7c" y="178.36782"/>
     <use style="fill:#80007f;opacity:0.4;stroke:#80007f;" x="177.337596" xlink:href="#m1c7502de7c" y="174.143684"/>
     <use style="fill:#80007f;opacity:0.4;stroke:#80007f;" x="181.725381" xlink:href="#m1c7502de7c" y="169.928619"/>
     <use style="fill:#80007f;opacity:0.4;stroke:#80007f;" x="186.113166" xlink:href="#m1c7502de7c" y="165.556825"/>
     <use style="fill:#80007f;opacity:0.4;stroke:#80007f;" x="190.500952" xlink:href="#m1c7502de7c" y="160.30672"/>
     <use style="fill:#80007f;opacity:0.4;stroke:#80007f;" x="194.888737" xlink:href="#m1c7502de7c" y="155.787039"/>
     <use style="fill:#80007f;opacity:0.4;stroke:#80007f;" x="199.276522" xlink:href="#m1c7502de7c" y="151.566699"/>
     <use style="fill:#80007f;opacity:0.4;stroke:#80007f;" x="203.664307" xlink:href="#m1c7502de7c" y="146.791236"/>
     <use style="fill:#80007f;opacity:0.4;stroke:#80007f;" x="208.052092" xlink:href="#m1c7502de7c" y="142.827806"/>
     <use style="fill:#80007f;opacity:0.4;stroke:#80007f;" x="212.439877" xlink:href="#m1c7502de7c" y="138.707229"/>
     <use style="fill:#80007f;opacity:0.4;stroke:#80007f;" x="216.827662" xlink:href="#m1c7502de7c" y="134.1798"/>
     <use style="fill:#80007f;opacity:0.4;stroke:#80007f;" x="221.215448" xlink:href="#m1c7502de7c" y="129.061259"/>
     <use style="fill:#80007f;opacity:0.4;stroke:#80007f;" x="225.603233" xlink:href="#m1c7502de7c" y="124.91395"/>
     <use style="fill:#80007f;opacity:0.4;stroke:#80007f;" x="229.991018" xlink:href="#m1c7502de7c" y="120.780379"/>
     <use style="fill:#80007f;opacity:0.4;stroke:#80007f;" x="234.378803" xlink:href="#m1c7502de7c" y="116.758516"/>
     <use style="fill:#80007f;opacity:0.4;stroke:#80007f;" x="238.766588" xlink:href="#m1c7502de7c" y="111.401612"/>
     <use style="fill:#80007f;opacity:0.4;stroke:#80007f;" x="243.154373" xlink:href="#m1c7502de7c" y="107.147294"/>
     <use style="fill:#80007f;opacity:0.4;stroke:#80007f;" x="247.542158" xlink:href="#m1c7502de7c" y="101.92023"/>
     <use style="fill:#80007f;opacity:0.4;stroke:#80007f;" x="251.929944" xlink:href="#m1c7502de7c" y="95.918523"/>
     <use style="fill:#80007f;opacity:0.4;stroke:#80007f;" x="256.317729" xlink:href="#m1c7502de7c" y="90.737448"/>
     <use style="fill:#80007f;opacity:0.4;stroke:#80007f;" x="260.705514" xlink:href="#m1c7502de7c" y="86.578083"/>
     <use style="fill:#80007f;opacity:0.4;stroke:#80007f;" x="265.093299" xlink:href="#m1c7502de7c" y="81.468687"/>
     <use style="fill:#80007f;opacity:0.4;stroke:#80007f;" x="269.481084" xlink:href="#m1c7502de7c" y="77.652518"/>
     <use style="fill:#80007f;opacity:0.4;stroke:#80007f;" x="273.868869" xlink:href="#m1c7502de7c" y="72.636431"/>
     <use style="fill:#80007f;opacity:0.4;stroke:#80007f;" x="278.256654" xlink:href="#m1c7502de7c" y="67.816614"/>
     <use style="fill:#80007f;opacity:0.4;stroke:#80007f;" x="282.64444" xlink:href="#m1c7502de7c" y="63.521867"/>
     <use style="fill:#80007f;opacity:0.4;stroke:#80007f;" x="287.032225" xlink:href="#m1c7502de7c" y="58.824927"/>
     <use style="fill:#80007f;opacity:0.4;stroke:#80007f;" x="291.42001" xlink:href="#m1c7502de7c" y="54.44016"/>
     <use style="fill:#80007f;opacity:0.4;stroke:#80007f;" x="295.807795" xlink:href="#m1c7502de7c" y="50.918558"/>
     <use style="fill:#80007f;opacity:0.4;stroke:#80007f;" x="300.19558" xlink:href="#m1c7502de7c" y="46.13277"/>
     <use style="fill:#80007f;opacity:0.4;stroke:#80007f;" x="304.583365" xlink:href="#m1c7502de7c" y="41.682133"/>
     <use style="fill:#80007f;opacity:0.4;stroke:#80007f;" x="308.97115" xlink:href="#m1c7502de7c" y="37.909688"/>
    </g>
   </g>
   <g id="line2d_13">
    <path clip-path="url(#p5c99e2455e)" d="M 89.581893 262.986364 
L 93.969678 258.543517 
L 98.357464 254.100671 
L 102.745249 249.657825 
L 107.133034 245.214979 
L 111.520819 240.772133 
L 115.908604 236.329286 
L 120.296389 231.88644 
L 124.684174 227.443594 
L 129.07196 223.000748 
L 133.459745 218.557902 
L 137.84753 214.115055 
L 142.235315 209.672209 
L 146.6231 205.229363 
L 151.010885 200.786517 
L 155.39867 196.343671 
L 159.786456 191.900824 
L 164.174241 187.457978 
L 168.562026 183.015132 
L 172.949811 178.572286 
L 177.337596 174.12944 
L 181.725381 169.686593 
L 186.113166 165.243747 
L 190.500952 160.800901 
L 194.888737 156.358055 
L 199.276522 151.915209 
L 203.664307 147.472362 
L 208.052092 143.029516 
L 212.439877 138.58667 
L 216.827662 134.143824 
L 221.215448 129.700978 
L 225.603233 125.258131 
L 229.991018 120.815285 
L 234.378803 116.372439 
L 238.766588 111.929593 
L 243.154373 107.486747 
L 247.542158 103.043901 
L 251.929944 98.601054 
L 256.317729 94.158208 
L 260.705514 89.715362 
L 265.093299 85.272516 
L 269.481084 80.82967 
L 273.868869 76.386823 
L 278.256654 71.943977 
L 282.64444 67.501131 
L 287.032225 63.058285 
L 291.42001 58.615439 
L 295.807795 54.172592 
L 300.19558 49.729746 
L 304.583365 45.2869 
L 308.97115 40.844054 
" style="fill:none;stroke:#80007f;stroke-linecap:square;stroke-width:1.5;"/>
   </g>
   <g id="line2d_14">
    <defs>
     <path d="M -5 5 
L 5 5 
L 5 -5 
L -5 -5 
z
" id="m37b51ff36d" style="stroke:#d4002b;stroke-linejoin:miter;"/>
    </defs>
    <g clip-path="url(#p5c99e2455e)">
     <use style="fill:#d4002b;opacity:0.4;stroke:#d4002b;stroke-linejoin:miter;" x="89.581893" xlink:href="#m37b51ff36d" y="262.986364"/>
     <use style="fill:#d4002b;opacity:0.4;stroke:#d4002b;stroke-linejoin:miter;" x="93.969678" xlink:href="#m37b51ff36d" y="259.660331"/>
     <use style="fill:#d4002b;opacity:0.4;stroke:#d4002b;stroke-linejoin:miter;" x="98.357464" xlink:href="#m37b51ff36d" y="256.411444"/>
     <use style="fill:#d4002b;opacity:0.4;stroke:#d4002b;stroke-linejoin:miter;" x="102.745249" xlink:href="#m37b51ff36d" y="253.037369"/>
     <use style="fill:#d4002b;opacity:0.4;stroke:#d4002b;stroke-linejoin:miter;" x="107.133034" xlink:href="#m37b51ff36d" y="249.637394"/>
     <use style="fill:#d4002b;opacity:0.4;stroke:#d4002b;stroke-linejoin:miter;" x="111.520819" xlink:href="#m37b51ff36d" y="246.250822"/>
     <use style="fill:#d4002b;opacity:0.4;stroke:#d4002b;stroke-linejoin:miter;" x="115.908604" xlink:href="#m37b51ff36d" y="243.129245"/>
     <use style="fill:#d4002b;opacity:0.4;stroke:#d4002b;stroke-linejoin:miter;" x="120.296389" xlink:href="#m37b51ff36d" y="239.64346"/>
     <use style="fill:#d4002b;opacity:0.4;stroke:#d4002b;stroke-linejoin:miter;" x="124.684174" xlink:href="#m37b51ff36d" y="236.567877"/>
     <use style="fill:#d4002b;opacity:0.4;stroke:#d4002b;stroke-linejoin:miter;" x="129.07196" xlink:href="#m37b51ff36d" y="232.844883"/>
     <use style="fill:#d4002b;opacity:0.4;stroke:#d4002b;stroke-linejoin:miter;" x="133.459745" xlink:href="#m37b51ff36d" y="229.751345"/>
     <use style="fill:#d4002b;opacity:0.4;stroke:#d4002b;stroke-linejoin:miter;" x="137.84753" xlink:href="#m37b51ff36d" y="226.680148"/>
     <use style="fill:#d4002b;opacity:0.4;stroke:#d4002b;stroke-linejoin:miter;" x="142.235315" xlink:href="#m37b51ff36d" y="223.770112"/>
     <use style="fill:#d4002b;opacity:0.4;stroke:#d4002b;stroke-linejoin:miter;" x="146.6231" xlink:href="#m37b51ff36d" y="220.142517"/>
     <use style="fill:#d4002b;opacity:0.4;stroke:#d4002b;stroke-linejoin:miter;" x="151.010885" xlink:href="#m37b51ff36d" y="217.011326"/>
     <use style="fill:#d4002b;opacity:0.4;stroke:#d4002b;stroke-linejoin:miter;" x="155.39867" xlink:href="#m37b51ff36d" y="213.642168"/>
     <use style="fill:#d4002b;opacity:0.4;stroke:#d4002b;stroke-linejoin:miter;" x="159.786456" xlink:href="#m37b51ff36d" y="210.70219"/>
     <use style="fill:#d4002b;opacity:0.4;stroke:#d4002b;stroke-linejoin:miter;" x="164.174241" xlink:href="#m37b51ff36d" y="207.854538"/>
     <use style="fill:#d4002b;opacity:0.4;stroke:#d4002b;stroke-linejoin:miter;" x="168.562026" xlink:href="#m37b51ff36d" y="204.835227"/>
     <use style="fill:#d4002b;opacity:0.4;stroke:#d4002b;stroke-linejoin:miter;" x="172.949811" xlink:href="#m37b51ff36d" y="201.415154"/>
     <use style="fill:#d4002b;opacity:0.4;stroke:#d4002b;stroke-linejoin:miter;" x="177.337596" xlink:href="#m37b51ff36d" y="198.333404"/>
     <use style="fill:#d4002b;opacity:0.4;stroke:#d4002b;stroke-linejoin:miter;" x="181.725381" xlink:href="#m37b51ff36d" y="194.998183"/>
     <use style="fill:#d4002b;opacity:0.4;stroke:#d4002b;stroke-linejoin:miter;" x="186.113166" xlink:href="#m37b51ff36d" y="191.919096"/>
     <use style="fill:#d4002b;opacity:0.4;stroke:#d4002b;stroke-linejoin:miter;" x="190.500952" xlink:href="#m37b51ff36d" y="188.950843"/>
     <use style="fill:#d4002b;opacity:0.4;stroke:#d4002b;stroke-linejoin:miter;" x="194.888737" xlink:href="#m37b51ff36d" y="185.931964"/>
     <use style="fill:#d4002b;opacity:0.4;stroke:#d4002b;stroke-linejoin:miter;" x="199.276522" xlink:href="#m37b51ff36d" y="182.585876"/>
     <use style="fill:#d4002b;opacity:0.4;stroke:#d4002b;stroke-linejoin:miter;" x="203.664307" xlink:href="#m37b51ff36d" y="179.490318"/>
     <use style="fill:#d4002b;opacity:0.4;stroke:#d4002b;stroke-linejoin:miter;" x="208.052092" xlink:href="#m37b51ff36d" y="176.046026"/>
     <use style="fill:#d4002b;opacity:0.4;stroke:#d4002b;stroke-linejoin:miter;" x="212.439877" xlink:href="#m37b51ff36d" y="172.873247"/>
     <use style="fill:#d4002b;opacity:0.4;stroke:#d4002b;stroke-linejoin:miter;" x="216.827662" xlink:href="#m37b51ff36d" y="170.068778"/>
     <use style="fill:#d4002b;opacity:0.4;stroke:#d4002b;stroke-linejoin:miter;" x="221.215448" xlink:href="#m37b51ff36d" y="167.301862"/>
     <use style="fill:#d4002b;opacity:0.4;stroke:#d4002b;stroke-linejoin:miter;" x="225.603233" xlink:href="#m37b51ff36d" y="163.847402"/>
     <use style="fill:#d4002b;opacity:0.4;stroke:#d4002b;stroke-linejoin:miter;" x="229.991018" xlink:href="#m37b51ff36d" y="160.762504"/>
     <use style="fill:#d4002b;opacity:0.4;stroke:#d4002b;stroke-linejoin:miter;" x="234.378803" xlink:href="#m37b51ff36d" y="157.357151"/>
     <use style="fill:#d4002b;opacity:0.4;stroke:#d4002b;stroke-linejoin:miter;" x="238.766588" xlink:href="#m37b51ff36d" y="154.251413"/>
     <use style="fill:#d4002b;opacity:0.4;stroke:#d4002b;stroke-linejoin:miter;" x="243.154373" xlink:href="#m37b51ff36d" y="151.013166"/>
     <use style="fill:#d4002b;opacity:0.4;stroke:#d4002b;stroke-linejoin:miter;" x="247.542158" xlink:href="#m37b51ff36d" y="147.838384"/>
     <use style="fill:#d4002b;opacity:0.4;stroke:#d4002b;stroke-linejoin:miter;" x="251.929944" xlink:href="#m37b51ff36d" y="144.786258"/>
     <use style="fill:#d4002b;opacity:0.4;stroke:#d4002b;stroke-linejoin:miter;" x="256.317729" xlink:href="#m37b51ff36d" y="141.550662"/>
     <use style="fill:#d4002b;opacity:0.4;stroke:#d4002b;stroke-linejoin:miter;" x="260.705514" xlink:href="#m37b51ff36d" y="138.156141"/>
     <use style="fill:#d4002b;opacity:0.4;stroke:#d4002b;stroke-linejoin:miter;" x="265.093299" xlink:href="#m37b51ff36d" y="135.076893"/>
     <use style="fill:#d4002b;opacity:0.4;stroke:#d4002b;stroke-linejoin:miter;" x="269.481084" xlink:href="#m37b51ff36d" y="132.034547"/>
     <use style="fill:#d4002b;opacity:0.4;stroke:#d4002b;stroke-linejoin:miter;" x="273.868869" xlink:href="#m37b51ff36d" y="129.52555"/>
     <use style="fill:#d4002b;opacity:0.4;stroke:#d4002b;stroke-linejoin:miter;" x="278.256654" xlink:href="#m37b51ff36d" y="125.742143"/>
     <use style="fill:#d4002b;opacity:0.4;stroke:#d4002b;stroke-linejoin:miter;" x="282.64444" xlink:href="#m37b51ff36d" y="121.87285"/>
     <use style="fill:#d4002b;opacity:0.4;stroke:#d4002b;stroke-linejoin:miter;" x="287.032225" xlink:href="#m37b51ff36d" y="117.628653"/>
     <use style="fill:#d4002b;opacity:0.4;stroke:#d4002b;stroke-linejoin:miter;" x="291.42001" xlink:href="#m37b51ff36d" y="114.533926"/>
     <use style="fill:#d4002b;opacity:0.4;stroke:#d4002b;stroke-linejoin:miter;" x="295.807795" xlink:href="#m37b51ff36d" y="111.349696"/>
     <use style="fill:#d4002b;opacity:0.4;stroke:#d4002b;stroke-linejoin:miter;" x="300.19558" xlink:href="#m37b51ff36d" y="109.187739"/>
     <use style="fill:#d4002b;opacity:0.4;stroke:#d4002b;stroke-linejoin:miter;" x="304.583365" xlink:href="#m37b51ff36d" y="106.069751"/>
     <use style="fill:#d4002b;opacity:0.4;stroke:#d4002b;stroke-linejoin:miter;" x="308.97115" xlink:href="#m37b51ff36d" y="102.977359"/>
    </g>
   </g>
   <g id="line2d_15">
    <path clip-path="url(#p5c99e2455e)" d="M 89.581893 262.986364 
L 93.969678 259.710089 
L 98.357464 256.433814 
L 102.745249 253.157538 
L 107.133034 249.881263 
L 111.520819 246.604988 
L 115.908604 243.328713 
L 120.296389 240.052438 
L 124.684174 236.776163 
L 129.07196 233.499888 
L 133.459745 230.223613 
L 137.84753 226.947338 
L 142.235315 223.671063 
L 146.6231 220.394788 
L 151.010885 217.118513 
L 155.39867 213.842238 
L 159.786456 210.565963 
L 164.174241 207.289688 
L 168.562026 204.013413 
L 172.949811 200.737138 
L 177.337596 197.460863 
L 181.725381 194.184588 
L 186.113166 190.908313 
L 190.500952 187.632037 
L 194.888737 184.355762 
L 199.276522 181.079487 
L 203.664307 177.803212 
L 208.052092 174.526937 
L 212.439877 171.250662 
L 216.827662 167.974387 
L 221.215448 164.698112 
L 225.603233 161.421837 
L 229.991018 158.145562 
L 234.378803 154.869287 
L 238.766588 151.593012 
L 243.154373 148.316737 
L 247.542158 145.040462 
L 251.929944 141.764187 
L 256.317729 138.487912 
L 260.705514 135.211637 
L 265.093299 131.935362 
L 269.481084 128.659087 
L 273.868869 125.382812 
L 278.256654 122.106536 
L 282.64444 118.830261 
L 287.032225 115.553986 
L 291.42001 112.277711 
L 295.807795 109.001436 
L 300.19558 105.725161 
L 304.583365 102.448886 
L 308.97115 99.172611 
" style="fill:none;stroke:#d4002b;stroke-linecap:square;stroke-width:1.5;"/>
   </g>
   <g id="line2d_16">
    <defs>
     <path d="M 0 -5 
L -5 5 
L 5 5 
z
" id="mce80df6247" style="stroke:#d42b00;stroke-linejoin:miter;"/>
    </defs>
    <g clip-path="url(#p5c99e2455e)">
     <use style="fill:#d42b00;opacity:0.4;stroke:#d42b00;stroke-linejoin:miter;" x="89.581893" xlink:href="#mce80df6247" y="262.986364"/>
     <use style="fill:#d42b00;opacity:0.4;stroke:#d42b00;stroke-linejoin:miter;" x="93.969678" xlink:href="#mce80df6247" y="261.7786"/>
     <use style="fill:#d42b00;opacity:0.4;stroke:#d42b00;stroke-linejoin:miter;" x="98.357464" xlink:href="#mce80df6247" y="260.568416"/>
     <use style="fill:#d42b00;opacity:0.4;stroke:#d42b00;stroke-linejoin:miter;" x="102.745249" xlink:href="#mce80df6247" y="259.354699"/>
     <use style="fill:#d42b00;opacity:0.4;stroke:#d42b00;stroke-linejoin:miter;" x="107.133034" xlink:href="#mce80df6247" y="258.136169"/>
     <use style="fill:#d42b00;opacity:0.4;stroke:#d42b00;stroke-linejoin:miter;" x="111.520819" xlink:href="#mce80df6247" y="256.977857"/>
     <use style="fill:#d42b00;opacity:0.4;stroke:#d42b00;stroke-linejoin:miter;" x="115.908604" xlink:href="#mce80df6247" y="255.718029"/>
     <use style="fill:#d42b00;opacity:0.4;stroke:#d42b00;stroke-linejoin:miter;" x="120.296389" xlink:href="#mce80df6247" y="254.445655"/>
     <use style="fill:#d42b00;opacity:0.4;stroke:#d42b00;stroke-linejoin:miter;" x="124.684174" xlink:href="#mce80df6247" y="253.154692"/>
     <use style="fill:#d42b00;opacity:0.4;stroke:#d42b00;stroke-linejoin:miter;" x="129.07196" xlink:href="#mce80df6247" y="252.012024"/>
     <use style="fill:#d42b00;opacity:0.4;stroke:#d42b00;stroke-linejoin:miter;" x="133.459745" xlink:href="#mce80df6247" y="250.754379"/>
     <use style="fill:#d42b00;opacity:0.4;stroke:#d42b00;stroke-linejoin:miter;" x="137.84753" xlink:href="#mce80df6247" y="249.712832"/>
     <use style="fill:#d42b00;opacity:0.4;stroke:#d42b00;stroke-linejoin:miter;" x="142.235315" xlink:href="#mce80df6247" y="248.456574"/>
     <use style="fill:#d42b00;opacity:0.4;stroke:#d42b00;stroke-linejoin:miter;" x="146.6231" xlink:href="#mce80df6247" y="247.200335"/>
     <use style="fill:#d42b00;opacity:0.4;stroke:#d42b00;stroke-linejoin:miter;" x="151.010885" xlink:href="#mce80df6247" y="246.043764"/>
     <use style="fill:#d42b00;opacity:0.4;stroke:#d42b00;stroke-linejoin:miter;" x="155.39867" xlink:href="#mce80df6247" y="244.765938"/>
     <use style="fill:#d42b00;opacity:0.4;stroke:#d42b00;stroke-linejoin:miter;" x="159.786456" xlink:href="#mce80df6247" y="243.403557"/>
     <use style="fill:#d42b00;opacity:0.4;stroke:#d42b00;stroke-linejoin:miter;" x="164.174241" xlink:href="#mce80df6247" y="242.073429"/>
     <use style="fill:#d42b00;opacity:0.4;stroke:#d42b00;stroke-linejoin:miter;" x="168.562026" xlink:href="#mce80df6247" y="240.758065"/>
     <use style="fill:#d42b00;opacity:0.4;stroke:#d42b00;stroke-linejoin:miter;" x="172.949811" xlink:href="#mce80df6247" y="239.5399"/>
     <use style="fill:#d42b00;opacity:0.4;stroke:#d42b00;stroke-linejoin:miter;" x="177.337596" xlink:href="#mce80df6247" y="238.306575"/>
     <use style="fill:#d42b00;opacity:0.4;stroke:#d42b00;stroke-linejoin:miter;" x="181.725381" xlink:href="#mce80df6247" y="236.970709"/>
     <use style="fill:#d42b00;opacity:0.4;stroke:#d42b00;stroke-linejoin:miter;" x="186.113166" xlink:href="#mce80df6247" y="235.694937"/>
     <use style="fill:#d42b00;opacity:0.4;stroke:#d42b00;stroke-linejoin:miter;" x="190.500952" xlink:href="#mce80df6247" y="234.413166"/>
     <use style="fill:#d42b00;opacity:0.4;stroke:#d42b00;stroke-linejoin:miter;" x="194.888737" xlink:href="#mce80df6247" y="232.932711"/>
     <use style="fill:#d42b00;opacity:0.4;stroke:#d42b00;stroke-linejoin:miter;" x="199.276522" xlink:href="#mce80df6247" y="231.565781"/>
     <use style="fill:#d42b00;opacity:0.4;stroke:#d42b00;stroke-linejoin:miter;" x="203.664307" xlink:href="#mce80df6247" y="230.48926"/>
     <use style="fill:#d42b00;opacity:0.4;stroke:#d42b00;stroke-linejoin:miter;" x="208.052092" xlink:href="#mce80df6247" y="229.063347"/>
     <use style="fill:#d42b00;opacity:0.4;stroke:#d42b00;stroke-linejoin:miter;" x="212.439877" xlink:href="#mce80df6247" y="227.959301"/>
     <use style="fill:#d42b00;opacity:0.4;stroke:#d42b00;stroke-linejoin:miter;" x="216.827662" xlink:href="#mce80df6247" y="226.651372"/>
     <use style="fill:#d42b00;opacity:0.4;stroke:#d42b00;stroke-linejoin:miter;" x="221.215448" xlink:href="#mce80df6247" y="225.443649"/>
     <use style="fill:#d42b00;opacity:0.4;stroke:#d42b00;stroke-linejoin:miter;" x="225.603233" xlink:href="#mce80df6247" y="224.057277"/>
     <use style="fill:#d42b00;opacity:0.4;stroke:#d42b00;stroke-linejoin:miter;" x="229.991018" xlink:href="#mce80df6247" y="222.869701"/>
     <use style="fill:#d42b00;opacity:0.4;stroke:#d42b00;stroke-linejoin:miter;" x="234.378803" xlink:href="#mce80df6247" y="221.568456"/>
     <use style="fill:#d42b00;opacity:0.4;stroke:#d42b00;stroke-linejoin:miter;" x="238.766588" xlink:href="#mce80df6247" y="220.418294"/>
     <use style="fill:#d42b00;opacity:0.4;stroke:#d42b00;stroke-linejoin:miter;" x="243.154373" xlink:href="#mce80df6247" y="219.177563"/>
     <use style="fill:#d42b00;opacity:0.4;stroke:#d42b00;stroke-linejoin:miter;" x="247.542158" xlink:href="#mce80df6247" y="217.989115"/>
     <use style="fill:#d42b00;opacity:0.4;stroke:#d42b00;stroke-linejoin:miter;" x="251.929944" xlink:href="#mce80df6247" y="216.55664"/>
     <use style="fill:#d42b00;opacity:0.4;stroke:#d42b00;stroke-linejoin:miter;" x="256.317729" xlink:href="#mce80df6247" y="215.261139"/>
     <use style="fill:#d42b00;opacity:0.4;stroke:#d42b00;stroke-linejoin:miter;" x="260.705514" xlink:href="#mce80df6247" y="214.129323"/>
     <use style="fill:#d42b00;opacity:0.4;stroke:#d42b00;stroke-linejoin:miter;" x="265.093299" xlink:href="#mce80df6247" y="213.12265"/>
     <use style="fill:#d42b00;opacity:0.4;stroke:#d42b00;stroke-linejoin:miter;" x="269.481084" xlink:href="#mce80df6247" y="211.826518"/>
     <use style="fill:#d42b00;opacity:0.4;stroke:#d42b00;stroke-linejoin:miter;" x="273.868869" xlink:href="#mce80df6247" y="210.628962"/>
     <use style="fill:#d42b00;opacity:0.4;stroke:#d42b00;stroke-linejoin:miter;" x="278.256654" xlink:href="#mce80df6247" y="209.508652"/>
     <use style="fill:#d42b00;opacity:0.4;stroke:#d42b00;stroke-linejoin:miter;" x="282.64444" xlink:href="#mce80df6247" y="207.99491"/>
     <use style="fill:#d42b00;opacity:0.4;stroke:#d42b00;stroke-linejoin:miter;" x="287.032225" xlink:href="#mce80df6247" y="206.756912"/>
     <use style="fill:#d42b00;opacity:0.4;stroke:#d42b00;stroke-linejoin:miter;" x="291.42001" xlink:href="#mce80df6247" y="205.62206"/>
     <use style="fill:#d42b00;opacity:0.4;stroke:#d42b00;stroke-linejoin:miter;" x="295.807795" xlink:href="#mce80df6247" y="204.729373"/>
     <use style="fill:#d42b00;opacity:0.4;stroke:#d42b00;stroke-linejoin:miter;" x="300.19558" xlink:href="#mce80df6247" y="203.543031"/>
     <use style="fill:#d42b00;opacity:0.4;stroke:#d42b00;stroke-linejoin:miter;" x="304.583365" xlink:href="#mce80df6247" y="202.199096"/>
     <use style="fill:#d42b00;opacity:0.4;stroke:#d42b00;stroke-linejoin:miter;" x="308.97115" xlink:href="#mce80df6247" y="201.071892"/>
    </g>
   </g>
   <g id="line2d_17">
    <path clip-path="url(#p5c99e2455e)" d="M 89.581893 262.986364 
L 93.969678 261.760683 
L 98.357464 260.535002 
L 102.745249 259.309321 
L 107.133034 258.08364 
L 111.520819 256.857959 
L 115.908604 255.632278 
L 120.296389 254.406598 
L 124.684174 253.180917 
L 129.07196 251.955236 
L 133.459745 250.729555 
L 137.84753 249.503874 
L 142.235315 248.278193 
L 146.6231 247.052512 
L 151.010885 245.826832 
L 155.39867 244.601151 
L 159.786456 243.37547 
L 164.174241 242.149789 
L 168.562026 240.924108 
L 172.949811 239.698427 
L 177.337596 238.472746 
L 181.725381 237.247066 
L 186.113166 236.021385 
L 190.500952 234.795704 
L 194.888737 233.570023 
L 199.276522 232.344342 
L 203.664307 231.118661 
L 208.052092 229.89298 
L 212.439877 228.6673 
L 216.827662 227.441619 
L 221.215448 226.215938 
L 225.603233 224.990257 
L 229.991018 223.764576 
L 234.378803 222.538895 
L 238.766588 221.313214 
L 243.154373 220.087533 
L 247.542158 218.861853 
L 251.929944 217.636172 
L 256.317729 216.410491 
L 260.705514 215.18481 
L 265.093299 213.959129 
L 269.481084 212.733448 
L 273.868869 211.507767 
L 278.256654 210.282087 
L 282.64444 209.056406 
L 287.032225 207.830725 
L 291.42001 206.605044 
L 295.807795 205.379363 
L 300.19558 204.153682 
L 304.583365 202.928001 
L 308.97115 201.702321 
" style="fill:none;stroke:#d42b00;stroke-linecap:square;stroke-width:1.5;"/>
   </g>
   <g id="line2d_18">
    <defs>
     <path d="M 0 -5 
L -4.330127 -2.5 
L -4.330127 2.5 
L -0 5 
L 4.330127 2.5 
L 4.330127 -2.5 
z
" id="mdcd61f9d2b" style="stroke:#7e8100;stroke-linejoin:miter;"/>
    </defs>
    <g clip-path="url(#p5c99e2455e)">
     <use style="fill:#7e8100;opacity:0.4;stroke:#7e8100;stroke-linejoin:miter;" x="89.581893" xlink:href="#mdcd61f9d2b" y="262.986364"/>
     <use style="fill:#7e8100;opacity:0.4;stroke:#7e8100;stroke-linejoin:miter;" x="93.969678" xlink:href="#mdcd61f9d2b" y="262.73463"/>
     <use style="fill:#7e8100;opacity:0.4;stroke:#7e8100;stroke-linejoin:miter;" x="98.357464" xlink:href="#mdcd61f9d2b" y="262.480806"/>
     <use style="fill:#7e8100;opacity:0.4;stroke:#7e8100;stroke-linejoin:miter;" x="102.745249" xlink:href="#mdcd61f9d2b" y="262.232551"/>
     <use style="fill:#7e8100;opacity:0.4;stroke:#7e8100;stroke-linejoin:miter;" x="107.133034" xlink:href="#mdcd61f9d2b" y="261.988417"/>
     <use style="fill:#7e8100;opacity:0.4;stroke:#7e8100;stroke-linejoin:miter;" x="111.520819" xlink:href="#mdcd61f9d2b" y="261.734689"/>
     <use style="fill:#7e8100;opacity:0.4;stroke:#7e8100;stroke-linejoin:miter;" x="115.908604" xlink:href="#mdcd61f9d2b" y="261.465661"/>
     <use style="fill:#7e8100;opacity:0.4;stroke:#7e8100;stroke-linejoin:miter;" x="120.296389" xlink:href="#mdcd61f9d2b" y="261.224789"/>
     <use style="fill:#7e8100;opacity:0.4;stroke:#7e8100;stroke-linejoin:miter;" x="124.684174" xlink:href="#mdcd61f9d2b" y="260.969451"/>
     <use style="fill:#7e8100;opacity:0.4;stroke:#7e8100;stroke-linejoin:miter;" x="129.07196" xlink:href="#mdcd61f9d2b" y="260.693098"/>
     <use style="fill:#7e8100;opacity:0.4;stroke:#7e8100;stroke-linejoin:miter;" x="133.459745" xlink:href="#mdcd61f9d2b" y="260.456618"/>
     <use style="fill:#7e8100;opacity:0.4;stroke:#7e8100;stroke-linejoin:miter;" x="137.84753" xlink:href="#mdcd61f9d2b" y="260.197171"/>
     <use style="fill:#7e8100;opacity:0.4;stroke:#7e8100;stroke-linejoin:miter;" x="142.235315" xlink:href="#mdcd61f9d2b" y="259.93736"/>
     <use style="fill:#7e8100;opacity:0.4;stroke:#7e8100;stroke-linejoin:miter;" x="146.6231" xlink:href="#mdcd61f9d2b" y="259.663463"/>
     <use style="fill:#7e8100;opacity:0.4;stroke:#7e8100;stroke-linejoin:miter;" x="151.010885" xlink:href="#mdcd61f9d2b" y="259.375112"/>
     <use style="fill:#7e8100;opacity:0.4;stroke:#7e8100;stroke-linejoin:miter;" x="155.39867" xlink:href="#mdcd61f9d2b" y="259.122478"/>
     <use style="fill:#7e8100;opacity:0.4;stroke:#7e8100;stroke-linejoin:miter;" x="159.786456" xlink:href="#mdcd61f9d2b" y="258.863393"/>
     <use style="fill:#7e8100;opacity:0.4;stroke:#7e8100;stroke-linejoin:miter;" x="164.174241" xlink:href="#mdcd61f9d2b" y="258.602699"/>
     <use style="fill:#7e8100;opacity:0.4;stroke:#7e8100;stroke-linejoin:miter;" x="168.562026" xlink:href="#mdcd61f9d2b" y="258.351534"/>
     <use style="fill:#7e8100;opacity:0.4;stroke:#7e8100;stroke-linejoin:miter;" x="172.949811" xlink:href="#mdcd61f9d2b" y="258.083496"/>
     <use style="fill:#7e8100;opacity:0.4;stroke:#7e8100;stroke-linejoin:miter;" x="177.337596" xlink:href="#mdcd61f9d2b" y="257.844996"/>
     <use style="fill:#7e8100;opacity:0.4;stroke:#7e8100;stroke-linejoin:miter;" x="181.725381" xlink:href="#mdcd61f9d2b" y="257.58016"/>
     <use style="fill:#7e8100;opacity:0.4;stroke:#7e8100;stroke-linejoin:miter;" x="186.113166" xlink:href="#mdcd61f9d2b" y="257.295579"/>
     <use style="fill:#7e8100;opacity:0.4;stroke:#7e8100;stroke-linejoin:miter;" x="190.500952" xlink:href="#mdcd61f9d2b" y="257.033889"/>
     <use style="fill:#7e8100;opacity:0.4;stroke:#7e8100;stroke-linejoin:miter;" x="194.888737" xlink:href="#mdcd61f9d2b" y="256.791528"/>
     <use style="fill:#7e8100;opacity:0.4;stroke:#7e8100;stroke-linejoin:miter;" x="199.276522" xlink:href="#mdcd61f9d2b" y="256.542099"/>
     <use style="fill:#7e8100;opacity:0.4;stroke:#7e8100;stroke-linejoin:miter;" x="203.664307" xlink:href="#mdcd61f9d2b" y="256.339611"/>
     <use style="fill:#7e8100;opacity:0.4;stroke:#7e8100;stroke-linejoin:miter;" x="208.052092" xlink:href="#mdcd61f9d2b" y="256.066005"/>
     <use style="fill:#7e8100;opacity:0.4;stroke:#7e8100;stroke-linejoin:miter;" x="212.439877" xlink:href="#mdcd61f9d2b" y="255.799868"/>
     <use style="fill:#7e8100;opacity:0.4;stroke:#7e8100;stroke-linejoin:miter;" x="216.827662" xlink:href="#mdcd61f9d2b" y="255.529876"/>
     <use style="fill:#7e8100;opacity:0.4;stroke:#7e8100;stroke-linejoin:miter;" x="221.215448" xlink:href="#mdcd61f9d2b" y="255.294208"/>
     <use style="fill:#7e8100;opacity:0.4;stroke:#7e8100;stroke-linejoin:miter;" x="225.603233" xlink:href="#mdcd61f9d2b" y="255.041299"/>
     <use style="fill:#7e8100;opacity:0.4;stroke:#7e8100;stroke-linejoin:miter;" x="229.991018" xlink:href="#mdcd61f9d2b" y="254.789898"/>
     <use style="fill:#7e8100;opacity:0.4;stroke:#7e8100;stroke-linejoin:miter;" x="234.378803" xlink:href="#mdcd61f9d2b" y="254.536339"/>
     <use style="fill:#7e8100;opacity:0.4;stroke:#7e8100;stroke-linejoin:miter;" x="238.766588" xlink:href="#mdcd61f9d2b" y="254.291037"/>
     <use style="fill:#7e8100;opacity:0.4;stroke:#7e8100;stroke-linejoin:miter;" x="243.154373" xlink:href="#mdcd61f9d2b" y="254.044033"/>
     <use style="fill:#7e8100;opacity:0.4;stroke:#7e8100;stroke-linejoin:miter;" x="247.542158" xlink:href="#mdcd61f9d2b" y="253.792528"/>
     <use style="fill:#7e8100;opacity:0.4;stroke:#7e8100;stroke-linejoin:miter;" x="251.929944" xlink:href="#mdcd61f9d2b" y="253.570842"/>
     <use style="fill:#7e8100;opacity:0.4;stroke:#7e8100;stroke-linejoin:miter;" x="256.317729" xlink:href="#mdcd61f9d2b" y="253.291176"/>
     <use style="fill:#7e8100;opacity:0.4;stroke:#7e8100;stroke-linejoin:miter;" x="260.705514" xlink:href="#mdcd61f9d2b" y="253.001965"/>
     <use style="fill:#7e8100;opacity:0.4;stroke:#7e8100;stroke-linejoin:miter;" x="265.093299" xlink:href="#mdcd61f9d2b" y="252.756967"/>
     <use style="fill:#7e8100;opacity:0.4;stroke:#7e8100;stroke-linejoin:miter;" x="269.481084" xlink:href="#mdcd61f9d2b" y="252.516779"/>
     <use style="fill:#7e8100;opacity:0.4;stroke:#7e8100;stroke-linejoin:miter;" x="273.868869" xlink:href="#mdcd61f9d2b" y="252.254768"/>
     <use style="fill:#7e8100;opacity:0.4;stroke:#7e8100;stroke-linejoin:miter;" x="278.256654" xlink:href="#mdcd61f9d2b" y="252.00571"/>
     <use style="fill:#7e8100;opacity:0.4;stroke:#7e8100;stroke-linejoin:miter;" x="282.64444" xlink:href="#mdcd61f9d2b" y="251.771454"/>
     <use style="fill:#7e8100;opacity:0.4;stroke:#7e8100;stroke-linejoin:miter;" x="287.032225" xlink:href="#mdcd61f9d2b" y="251.497715"/>
     <use style="fill:#7e8100;opacity:0.4;stroke:#7e8100;stroke-linejoin:miter;" x="291.42001" xlink:href="#mdcd61f9d2b" y="251.240914"/>
     <use style="fill:#7e8100;opacity:0.4;stroke:#7e8100;stroke-linejoin:miter;" x="295.807795" xlink:href="#mdcd61f9d2b" y="251.056739"/>
     <use style="fill:#7e8100;opacity:0.4;stroke:#7e8100;stroke-linejoin:miter;" x="300.19558" xlink:href="#mdcd61f9d2b" y="250.814704"/>
     <use style="fill:#7e8100;opacity:0.4;stroke:#7e8100;stroke-linejoin:miter;" x="304.583365" xlink:href="#mdcd61f9d2b" y="250.587897"/>
     <use style="fill:#7e8100;opacity:0.4;stroke:#7e8100;stroke-linejoin:miter;" x="308.97115" xlink:href="#mdcd61f9d2b" y="250.324569"/>
    </g>
   </g>
   <g id="line2d_19">
    <path clip-path="url(#p5c99e2455e)" d="M 89.581893 262.986364 
L 93.969678 262.735586 
L 98.357464 262.484809 
L 102.745249 262.234031 
L 107.133034 261.983254 
L 111.520819 261.732476 
L 115.908604 261.481699 
L 120.296389 261.230921 
L 124.684174 260.980144 
L 129.07196 260.729366 
L 133.459745 260.478589 
L 137.84753 260.227811 
L 142.235315 259.977034 
L 146.6231 259.726256 
L 151.010885 259.475479 
L 155.39867 259.224701 
L 159.786456 258.973924 
L 164.174241 258.723146 
L 168.562026 258.472369 
L 172.949811 258.221591 
L 177.337596 257.970814 
L 181.725381 257.720036 
L 186.113166 257.469259 
L 190.500952 257.218481 
L 194.888737 256.967704 
L 199.276522 256.716926 
L 203.664307 256.466149 
L 208.052092 256.215371 
L 212.439877 255.964594 
L 216.827662 255.713816 
L 221.215448 255.463039 
L 225.603233 255.212261 
L 229.991018 254.961484 
L 234.378803 254.710706 
L 238.766588 254.459929 
L 243.154373 254.209151 
L 247.542158 253.958374 
L 251.929944 253.707596 
L 256.317729 253.456819 
L 260.705514 253.206041 
L 265.093299 252.955264 
L 269.481084 252.704486 
L 273.868869 252.453709 
L 278.256654 252.202931 
L 282.64444 251.952154 
L 287.032225 251.701376 
L 291.42001 251.450599 
L 295.807795 251.199821 
L 300.19558 250.949044 
L 304.583365 250.698266 
L 308.97115 250.447489 
" style="fill:none;stroke:#7e8100;stroke-linecap:square;stroke-width:1.5;"/>
   </g>
   <g id="line2d_20">
    <defs>
     <path d="M -1.666667 5 
L 1.666667 5 
L 1.666667 1.666667 
L 5 1.666667 
L 5 -1.666667 
L 1.666667 -1.666667 
L 1.666667 -5 
L -1.666667 -5 
L -1.666667 -1.666667 
L -5 -1.666667 
L -5 1.666667 
L -1.666667 1.666667 
z
" id="m11e416acbd" style="stroke:#2ad500;stroke-linejoin:miter;"/>
    </defs>
    <g clip-path="url(#p5c99e2455e)">
     <use style="fill:#2ad500;opacity:0.4;stroke:#2ad500;stroke-linejoin:miter;" x="89.581893" xlink:href="#m11e416acbd" y="262.986364"/>
     <use style="fill:#2ad500;opacity:0.4;stroke:#2ad500;stroke-linejoin:miter;" x="93.969678" xlink:href="#m11e416acbd" y="262.942595"/>
     <use style="fill:#2ad500;opacity:0.4;stroke:#2ad500;stroke-linejoin:miter;" x="98.357464" xlink:href="#m11e416acbd" y="262.899759"/>
     <use style="fill:#2ad500;opacity:0.4;stroke:#2ad500;stroke-linejoin:miter;" x="102.745249" xlink:href="#m11e416acbd" y="262.858022"/>
     <use style="fill:#2ad500;opacity:0.4;stroke:#2ad500;stroke-linejoin:miter;" x="107.133034" xlink:href="#m11e416acbd" y="262.812185"/>
     <use style="fill:#2ad500;opacity:0.4;stroke:#2ad500;stroke-linejoin:miter;" x="111.520819" xlink:href="#m11e416acbd" y="262.767034"/>
     <use style="fill:#2ad500;opacity:0.4;stroke:#2ad500;stroke-linejoin:miter;" x="115.908604" xlink:href="#m11e416acbd" y="262.72403"/>
     <use style="fill:#2ad500;opacity:0.4;stroke:#2ad500;stroke-linejoin:miter;" x="120.296389" xlink:href="#m11e416acbd" y="262.684292"/>
     <use style="fill:#2ad500;opacity:0.4;stroke:#2ad500;stroke-linejoin:miter;" x="124.684174" xlink:href="#m11e416acbd" y="262.641247"/>
     <use style="fill:#2ad500;opacity:0.4;stroke:#2ad500;stroke-linejoin:miter;" x="129.07196" xlink:href="#m11e416acbd" y="262.593919"/>
     <use style="fill:#2ad500;opacity:0.4;stroke:#2ad500;stroke-linejoin:miter;" x="133.459745" xlink:href="#m11e416acbd" y="262.545746"/>
     <use style="fill:#2ad500;opacity:0.4;stroke:#2ad500;stroke-linejoin:miter;" x="137.84753" xlink:href="#m11e416acbd" y="262.502122"/>
     <use style="fill:#2ad500;opacity:0.4;stroke:#2ad500;stroke-linejoin:miter;" x="142.235315" xlink:href="#m11e416acbd" y="262.459254"/>
     <use style="fill:#2ad500;opacity:0.4;stroke:#2ad500;stroke-linejoin:miter;" x="146.6231" xlink:href="#m11e416acbd" y="262.415567"/>
     <use style="fill:#2ad500;opacity:0.4;stroke:#2ad500;stroke-linejoin:miter;" x="151.010885" xlink:href="#m11e416acbd" y="262.376589"/>
     <use style="fill:#2ad500;opacity:0.4;stroke:#2ad500;stroke-linejoin:miter;" x="155.39867" xlink:href="#m11e416acbd" y="262.332133"/>
     <use style="fill:#2ad500;opacity:0.4;stroke:#2ad500;stroke-linejoin:miter;" x="159.786456" xlink:href="#m11e416acbd" y="262.290474"/>
     <use style="fill:#2ad500;opacity:0.4;stroke:#2ad500;stroke-linejoin:miter;" x="164.174241" xlink:href="#m11e416acbd" y="262.241852"/>
     <use style="fill:#2ad500;opacity:0.4;stroke:#2ad500;stroke-linejoin:miter;" x="168.562026" xlink:href="#m11e416acbd" y="262.195335"/>
     <use style="fill:#2ad500;opacity:0.4;stroke:#2ad500;stroke-linejoin:miter;" x="172.949811" xlink:href="#m11e416acbd" y="262.148689"/>
     <use style="fill:#2ad500;opacity:0.4;stroke:#2ad500;stroke-linejoin:miter;" x="177.337596" xlink:href="#m11e416acbd" y="262.10701"/>
     <use style="fill:#2ad500;opacity:0.4;stroke:#2ad500;stroke-linejoin:miter;" x="181.725381" xlink:href="#m11e416acbd" y="262.056679"/>
     <use style="fill:#2ad500;opacity:0.4;stroke:#2ad500;stroke-linejoin:miter;" x="186.113166" xlink:href="#m11e416acbd" y="262.007734"/>
     <use style="fill:#2ad500;opacity:0.4;stroke:#2ad500;stroke-linejoin:miter;" x="190.500952" xlink:href="#m11e416acbd" y="261.960606"/>
     <use style="fill:#2ad500;opacity:0.4;stroke:#2ad500;stroke-linejoin:miter;" x="194.888737" xlink:href="#m11e416acbd" y="261.910352"/>
     <use style="fill:#2ad500;opacity:0.4;stroke:#2ad500;stroke-linejoin:miter;" x="199.276522" xlink:href="#m11e416acbd" y="261.867051"/>
     <use style="fill:#2ad500;opacity:0.4;stroke:#2ad500;stroke-linejoin:miter;" x="203.664307" xlink:href="#m11e416acbd" y="261.822651"/>
     <use style="fill:#2ad500;opacity:0.4;stroke:#2ad500;stroke-linejoin:miter;" x="208.052092" xlink:href="#m11e416acbd" y="261.773302"/>
     <use style="fill:#2ad500;opacity:0.4;stroke:#2ad500;stroke-linejoin:miter;" x="212.439877" xlink:href="#m11e416acbd" y="261.722244"/>
     <use style="fill:#2ad500;opacity:0.4;stroke:#2ad500;stroke-linejoin:miter;" x="216.827662" xlink:href="#m11e416acbd" y="261.684293"/>
     <use style="fill:#2ad500;opacity:0.4;stroke:#2ad500;stroke-linejoin:miter;" x="221.215448" xlink:href="#m11e416acbd" y="261.649986"/>
     <use style="fill:#2ad500;opacity:0.4;stroke:#2ad500;stroke-linejoin:miter;" x="225.603233" xlink:href="#m11e416acbd" y="261.603778"/>
     <use style="fill:#2ad500;opacity:0.4;stroke:#2ad500;stroke-linejoin:miter;" x="229.991018" xlink:href="#m11e416acbd" y="261.558641"/>
     <use style="fill:#2ad500;opacity:0.4;stroke:#2ad500;stroke-linejoin:miter;" x="234.378803" xlink:href="#m11e416acbd" y="261.519135"/>
     <use style="fill:#2ad500;opacity:0.4;stroke:#2ad500;stroke-linejoin:miter;" x="238.766588" xlink:href="#m11e416acbd" y="261.473638"/>
     <use style="fill:#2ad500;opacity:0.4;stroke:#2ad500;stroke-linejoin:miter;" x="243.154373" xlink:href="#m11e416acbd" y="261.42894"/>
     <use style="fill:#2ad500;opacity:0.4;stroke:#2ad500;stroke-linejoin:miter;" x="247.542158" xlink:href="#m11e416acbd" y="261.38857"/>
     <use style="fill:#2ad500;opacity:0.4;stroke:#2ad500;stroke-linejoin:miter;" x="251.929944" xlink:href="#m11e416acbd" y="261.333437"/>
     <use style="fill:#2ad500;opacity:0.4;stroke:#2ad500;stroke-linejoin:miter;" x="256.317729" xlink:href="#m11e416acbd" y="261.284502"/>
     <use style="fill:#2ad500;opacity:0.4;stroke:#2ad500;stroke-linejoin:miter;" x="260.705514" xlink:href="#m11e416acbd" y="261.246892"/>
     <use style="fill:#2ad500;opacity:0.4;stroke:#2ad500;stroke-linejoin:miter;" x="265.093299" xlink:href="#m11e416acbd" y="261.199187"/>
     <use style="fill:#2ad500;opacity:0.4;stroke:#2ad500;stroke-linejoin:miter;" x="269.481084" xlink:href="#m11e416acbd" y="261.150551"/>
     <use style="fill:#2ad500;opacity:0.4;stroke:#2ad500;stroke-linejoin:miter;" x="273.868869" xlink:href="#m11e416acbd" y="261.106381"/>
     <use style="fill:#2ad500;opacity:0.4;stroke:#2ad500;stroke-linejoin:miter;" x="278.256654" xlink:href="#m11e416acbd" y="261.058886"/>
     <use style="fill:#2ad500;opacity:0.4;stroke:#2ad500;stroke-linejoin:miter;" x="282.64444" xlink:href="#m11e416acbd" y="261.008773"/>
     <use style="fill:#2ad500;opacity:0.4;stroke:#2ad500;stroke-linejoin:miter;" x="287.032225" xlink:href="#m11e416acbd" y="260.954618"/>
     <use style="fill:#2ad500;opacity:0.4;stroke:#2ad500;stroke-linejoin:miter;" x="291.42001" xlink:href="#m11e416acbd" y="260.914689"/>
     <use style="fill:#2ad500;opacity:0.4;stroke:#2ad500;stroke-linejoin:miter;" x="295.807795" xlink:href="#m11e416acbd" y="260.878285"/>
     <use style="fill:#2ad500;opacity:0.4;stroke:#2ad500;stroke-linejoin:miter;" x="300.19558" xlink:href="#m11e416acbd" y="260.821066"/>
     <use style="fill:#2ad500;opacity:0.4;stroke:#2ad500;stroke-linejoin:miter;" x="304.583365" xlink:href="#m11e416acbd" y="260.783925"/>
     <use style="fill:#2ad500;opacity:0.4;stroke:#2ad500;stroke-linejoin:miter;" x="308.97115" xlink:href="#m11e416acbd" y="260.748706"/>
    </g>
   </g>
   <g id="line2d_21">
    <path clip-path="url(#p5c99e2455e)" d="M 89.581893 262.986364 
L 93.969678 262.940229 
L 98.357464 262.894094 
L 102.745249 262.847959 
L 107.133034 262.801825 
L 111.520819 262.75569 
L 115.908604 262.709555 
L 120.296389 262.663421 
L 124.684174 262.617286 
L 129.07196 262.571151 
L 133.459745 262.525016 
L 137.84753 262.478882 
L 142.235315 262.432747 
L 146.6231 262.386612 
L 151.010885 262.340478 
L 155.39867 262.294343 
L 159.786456 262.248208 
L 164.174241 262.202073 
L 168.562026 262.155939 
L 172.949811 262.109804 
L 177.337596 262.063669 
L 181.725381 262.017534 
L 186.113166 261.9714 
L 190.500952 261.925265 
L 194.888737 261.87913 
L 199.276522 261.832996 
L 203.664307 261.786861 
L 208.052092 261.740726 
L 212.439877 261.694591 
L 216.827662 261.648457 
L 221.215448 261.602322 
L 225.603233 261.556187 
L 229.991018 261.510052 
L 234.378803 261.463918 
L 238.766588 261.417783 
L 243.154373 261.371648 
L 247.542158 261.325514 
L 251.929944 261.279379 
L 256.317729 261.233244 
L 260.705514 261.187109 
L 265.093299 261.140975 
L 269.481084 261.09484 
L 273.868869 261.048705 
L 278.256654 261.002571 
L 282.64444 260.956436 
L 287.032225 260.910301 
L 291.42001 260.864166 
L 295.807795 260.818032 
L 300.19558 260.771897 
L 304.583365 260.725762 
L 308.97115 260.679627 
" style="fill:none;stroke:#2ad500;stroke-linecap:square;stroke-width:1.5;"/>
   </g>
   <g id="patch_3">
    <path d="M 78.61243 275 
L 78.61243 10.7 
" style="fill:none;stroke:#000000;stroke-linecap:square;stroke-linejoin:miter;stroke-width:0.8;"/>
   </g>
   <g id="patch_4">
    <path d="M 319.940613 275 
L 319.940613 10.7 
" style="fill:none;stroke:#000000;stroke-linecap:square;stroke-linejoin:miter;stroke-width:0.8;"/>
   </g>
   <g id="patch_5">
    <path d="M 78.61243 275 
L 319.940613 275 
" style="fill:none;stroke:#000000;stroke-linecap:square;stroke-linejoin:miter;stroke-width:0.8;"/>
   </g>
   <g id="patch_6">
    <path d="M 78.61243 10.7 
L 319.940613 10.7 
" style="fill:none;stroke:#000000;stroke-linecap:square;stroke-linejoin:miter;stroke-width:0.8;"/>
   </g>
   <g id="legend_1">
    <g id="patch_7">
     <path d="M 85.61243 104.822761 
L 181.985594 104.822761 
Q 183.985594 104.822761 183.985594 102.822761 
L 183.985594 17.7 
Q 183.985594 15.7 181.985594 15.7 
L 85.61243 15.7 
Q 83.61243 15.7 83.61243 17.7 
L 83.61243 102.822761 
Q 83.61243 104.822761 85.61243 104.822761 
z
" style="fill:#ffffff;opacity:0.8;stroke:#cccccc;stroke-linejoin:miter;"/>
    </g>
    <g id="line2d_22"/>
    <g id="line2d_23">
     <g>
      <use style="fill:#2a00d5;opacity:0.4;stroke:#2a00d5;stroke-linejoin:miter;" x="97.61243" xlink:href="#m5a7d16f003" y="23.431807"/>
     </g>
    </g>
    <g id="text_12">
     <!-- $\log_{10}{R}=-2.0$ -->
     <defs>
      <path d="M 15.296875 68.6875 
L 3.40625 67.59375 
L 3.40625 65 
C 9.296875 65 10.203125 64.40625 10.203125 59.640625 
L 10.203125 6.65625 
C 10.203125 2.875 9.796875 2.390625 3.40625 2.390625 
L 3.40625 -0.203125 
C 5.796875 0 10.203125 0 12.703125 0 
C 15.296875 0 19.703125 0 22.09375 -0.203125 
L 22.09375 2.390625 
C 15.703125 2.390625 15.296875 2.78125 15.296875 6.65625 
z
" id="CMR17-108"/>
      <path d="M 43.09375 21.1875 
C 43.09375 34 33.796875 44 22.90625 44 
C 12 44 2.703125 34 2.703125 21.1875 
C 2.703125 8.609375 12 -1 22.90625 -1 
C 33.796875 -1 43.09375 8.609375 43.09375 21.1875 
z
M 22.90625 0.796875 
C 18.203125 0.796875 14.203125 3.59375 11.90625 7.5 
C 9.40625 11.984375 9.09375 17.59375 9.09375 22 
C 9.09375 26.203125 9.296875 31.40625 11.90625 35.90625 
C 13.90625 39.203125 17.796875 42.40625 22.90625 42.40625 
C 27.40625 42.40625 31.203125 39.90625 33.59375 36.40625 
C 36.703125 31.703125 36.703125 25.109375 36.703125 22 
C 36.703125 18.09375 36.5 12.109375 33.796875 7.296875 
C 31 2.703125 26.703125 0.796875 22.90625 0.796875 
z
" id="CMR17-111"/>
      <path d="M 11.09375 18.1875 
C 13 16.6875 16.296875 15 20.296875 15 
C 28.203125 15 35 21.203125 35 29.5 
C 35 32.09375 34.203125 36.09375 31.203125 39.203125 
C 34 42.0625 38.09375 43 40.40625 43 
C 40.796875 43 41.40625 43 41.90625 42.71875 
C 41.5 42.625 40.59375 42.234375 40.59375 40.703125 
C 40.59375 39.484375 41.5 38.609375 42.796875 38.609375 
C 44.296875 38.609375 45.09375 39.578125 45.09375 40.84375 
C 45.09375 42.671875 43.59375 44.59375 40.40625 44.59375 
C 36.40625 44.59375 32.90625 42.78125 30.09375 40.3125 
C 27.09375 43.015625 23.5 44 20.296875 44 
C 12.40625 44 5.59375 37.796875 5.59375 29.5 
C 5.59375 23.78125 8.90625 20.1875 9.90625 19.1875 
C 6.90625 15.6875 6.90625 11.609375 6.90625 11.109375 
C 6.90625 8.515625 7.90625 4.71875 11.296875 2.625 
C 6.09375 1.328125 2 -2.640625 2 -7.59375 
C 2 -14.734375 11.5 -20 22.90625 -20 
C 33.90625 -20 43.796875 -14.9375 43.796875 -7.484375 
C 43.796875 6 29 6 21.296875 6 
C 19 6 14.90625 6 14.40625 6.109375 
C 11.296875 6.609375 9.203125 9.40625 9.203125 12.90625 
C 9.203125 13.796875 9.203125 16 11.09375 18.1875 
z
M 20.296875 16.6875 
C 11.5 16.6875 11.5 27.5 11.5 29.515625 
C 11.5 31.5 11.5 42.3125 20.296875 42.3125 
C 29.09375 42.3125 29.09375 31.5 29.09375 29.515625 
C 29.09375 27.5 29.09375 16.6875 20.296875 16.6875 
z
M 22.90625 -18.296875 
C 12.90625 -18.296875 6 -13.046875 6 -7.59375 
C 6 -4.515625 7.703125 -1.640625 9.90625 -0.0625 
C 12.40625 1.625 13.40625 1.625 20.203125 1.625 
C 28.40625 1.625 39.796875 1.625 39.796875 -7.59375 
C 39.796875 -13.046875 32.90625 -18.296875 22.90625 -18.296875 
z
" id="CMR17-103"/>
      <path d="M 36.796875 61.3125 
C 37.703125 65 38.09375 65 42 65 
L 49.203125 65 
C 57.796875 65 64.203125 62.421875 64.203125 54.671875 
C 64.203125 49.609375 61.59375 35 41.5 35 
L 30.203125 35 
z
M 50.703125 33.890625 
C 63.09375 36.578125 72.796875 44.546875 72.796875 53.09375 
C 72.796875 60.84375 64.90625 68 51 68 
L 23.90625 68 
C 21.90625 68 21 68 21 66.03125 
C 21 65 21.703125 65 23.59375 65 
C 29.59375 65 29.59375 64.25 29.59375 63.203125 
C 29.59375 63.015625 29.59375 62.40625 29.203125 60.921875 
L 15.703125 7.484375 
C 14.796875 4 14.59375 3 7.703125 3 
C 5.40625 3 4.703125 3 4.703125 1.109375 
C 4.703125 0.109375 5.796875 0.109375 6.09375 0.109375 
C 7.90625 0.109375 10 0.109375 11.90625 0.109375 
L 23.703125 0.109375 
C 25.5 0.109375 27.59375 0.109375 29.40625 0.109375 
C 30.203125 0.109375 31.296875 0.109375 31.296875 2 
C 31.296875 3 30.40625 3 28.90625 3 
C 22.796875 3 22.796875 3.796875 22.796875 4.78125 
C 22.796875 4.890625 22.796875 5.578125 23 6.359375 
L 29.703125 33 
L 41.703125 33 
C 51.203125 33 53 27.046875 53 23.78125 
C 53 22.296875 52 18.421875 51.296875 15.84375 
C 50.203125 11.296875 49.90625 10.1875 49.90625 8.3125 
C 49.90625 1.28125 55.703125 -2 62.40625 -2 
C 70.5 -2 74 7.828125 74 9.234375 
C 74 9.921875 73.5 10.21875 72.90625 10.21875 
C 72.09375 10.21875 71.90625 9.625 71.703125 8.828125 
C 69.296875 1.78125 65.203125 0 62.703125 0 
C 60.203125 0 58.59375 1.09375 58.59375 5.5625 
C 58.59375 7.953125 59.796875 17 59.90625 17.5 
C 60.40625 21.171875 60.40625 21.5625 60.40625 22.375 
C 60.40625 29.625 54.5 32.703125 50.703125 33.890625 
z
" id="CMMI12-82"/>
      <path d="M 64.296875 31.515625 
C 65.796875 31.515625 67.296875 31.515625 67.296875 33.203125 
C 67.296875 35 65.59375 35 63.90625 35 
L 8 35 
C 6.296875 35 4.59375 35 4.59375 33.203125 
C 4.59375 31.515625 6.09375 31.515625 7.59375 31.515625 
z
M 63.90625 14 
C 65.59375 14 67.296875 14 67.296875 15.796875 
C 67.296875 17.484375 65.796875 17.484375 64.296875 17.484375 
L 7.59375 17.484375 
C 6.09375 17.484375 4.59375 17.484375 4.59375 15.796875 
C 4.59375 14 6.296875 14 8 14 
z
" id="CMR17-61"/>
      <path d="M 65.90625 23 
C 67.59375 23 69.40625 23 69.40625 25 
C 69.40625 27 67.59375 27 65.90625 27 
L 11.796875 27 
C 10.09375 27 8.296875 27 8.296875 25 
C 8.296875 23 10.09375 23 11.796875 23 
z
" id="CMSY10-0"/>
     </defs>
     <g transform="translate(115.61243 26.931807)scale(0.1 -0.1)">
      <use transform="translate(0 22.865092)scale(0.996264)" xlink:href="#CMR17-108"/>
      <use transform="translate(24.871058 22.865092)scale(0.996264)" xlink:href="#CMR17-111"/>
      <use transform="translate(70.561536 22.865092)scale(0.996264)" xlink:href="#CMR17-103"/>
      <use transform="translate(117.553179 0)scale(0.697382)" xlink:href="#CMR17-49"/>
      <use transform="translate(149.536361 0)scale(0.697382)" xlink:href="#CMR17-48"/>
      <use transform="translate(198.62208 22.865092)scale(0.996264)" xlink:href="#CMMI12-82"/>
      <use transform="translate(301.367051 22.865092)scale(0.996264)" xlink:href="#CMR17-61"/>
      <use transform="translate(400.755848 22.865092)scale(0.996264)" xlink:href="#CMSY10-0"/>
      <use transform="translate(478.243315 22.865092)scale(0.996264)" xlink:href="#CMR17-50"/>
      <use transform="translate(523.933793 22.865092)scale(0.996264)" xlink:href="#CMMI12-58"/>
      <use transform="translate(551.03097 22.865092)scale(0.996264)" xlink:href="#CMR17-48"/>
     </g>
    </g>
    <g id="line2d_24"/>
    <g id="line2d_25">
     <g>
      <use style="fill:#80007f;opacity:0.4;stroke:#80007f;" x="97.61243" xlink:href="#m1c7502de7c" y="37.785601"/>
     </g>
    </g>
    <g id="text_13">
     <!-- $\log_{10}{R}=-1.2$ -->
     <g transform="translate(115.61243 41.285601)scale(0.1 -0.1)">
      <use transform="translate(0 22.865092)scale(0.996264)" xlink:href="#CMR17-108"/>
      <use transform="translate(24.871058 22.865092)scale(0.996264)" xlink:href="#CMR17-111"/>
      <use transform="translate(70.561536 22.865092)scale(0.996264)" xlink:href="#CMR17-103"/>
      <use transform="translate(117.553179 0)scale(0.697382)" xlink:href="#CMR17-49"/>
      <use transform="translate(149.536361 0)scale(0.697382)" xlink:href="#CMR17-48"/>
      <use transform="translate(198.62208 22.865092)scale(0.996264)" xlink:href="#CMMI12-82"/>
      <use transform="translate(301.367051 22.865092)scale(0.996264)" xlink:href="#CMR17-61"/>
      <use transform="translate(400.755848 22.865092)scale(0.996264)" xlink:href="#CMSY10-0"/>
      <use transform="translate(478.243315 22.865092)scale(0.996264)" xlink:href="#CMR17-49"/>
      <use transform="translate(523.933793 22.865092)scale(0.996264)" xlink:href="#CMMI12-58"/>
      <use transform="translate(551.03097 22.865092)scale(0.996264)" xlink:href="#CMR17-50"/>
     </g>
    </g>
    <g id="line2d_26"/>
    <g id="line2d_27">
     <g>
      <use style="fill:#d4002b;opacity:0.4;stroke:#d4002b;stroke-linejoin:miter;" x="97.61243" xlink:href="#m37b51ff36d" y="52.139394"/>
     </g>
    </g>
    <g id="text_14">
     <!-- $\log_{10}{R}=-0.4$ -->
     <g transform="translate(115.61243 55.639394)scale(0.1 -0.1)">
      <use transform="translate(0 22.865092)scale(0.996264)" xlink:href="#CMR17-108"/>
      <use transform="translate(24.871058 22.865092)scale(0.996264)" xlink:href="#CMR17-111"/>
      <use transform="translate(70.561536 22.865092)scale(0.996264)" xlink:href="#CMR17-103"/>
      <use transform="translate(117.553179 0)scale(0.697382)" xlink:href="#CMR17-49"/>
      <use transform="translate(149.536361 0)scale(0.697382)" xlink:href="#CMR17-48"/>
      <use transform="translate(198.62208 22.865092)scale(0.996264)" xlink:href="#CMMI12-82"/>
      <use transform="translate(301.367051 22.865092)scale(0.996264)" xlink:href="#CMR17-61"/>
      <use transform="translate(400.755848 22.865092)scale(0.996264)" xlink:href="#CMSY10-0"/>
      <use transform="translate(478.243315 22.865092)scale(0.996264)" xlink:href="#CMR17-48"/>
      <use transform="translate(523.933793 22.865092)scale(0.996264)" xlink:href="#CMMI12-58"/>
      <use transform="translate(551.03097 22.865092)scale(0.996264)" xlink:href="#CMR17-52"/>
     </g>
    </g>
    <g id="line2d_28"/>
    <g id="line2d_29">
     <g>
      <use style="fill:#d42b00;opacity:0.4;stroke:#d42b00;stroke-linejoin:miter;" x="97.61243" xlink:href="#mce80df6247" y="66.493188"/>
     </g>
    </g>
    <g id="text_15">
     <!-- $\log_{10}{R}=0.4$ -->
     <g transform="translate(115.61243 69.993188)scale(0.1 -0.1)">
      <use transform="translate(0 22.865092)scale(0.996264)" xlink:href="#CMR17-108"/>
      <use transform="translate(24.871058 22.865092)scale(0.996264)" xlink:href="#CMR17-111"/>
      <use transform="translate(70.561536 22.865092)scale(0.996264)" xlink:href="#CMR17-103"/>
      <use transform="translate(117.553179 0)scale(0.697382)" xlink:href="#CMR17-49"/>
      <use transform="translate(149.536361 0)scale(0.697382)" xlink:href="#CMR17-48"/>
      <use transform="translate(198.62208 22.865092)scale(0.996264)" xlink:href="#CMMI12-82"/>
      <use transform="translate(301.367051 22.865092)scale(0.996264)" xlink:href="#CMR17-61"/>
      <use transform="translate(400.755848 22.865092)scale(0.996264)" xlink:href="#CMR17-48"/>
      <use transform="translate(446.446325 22.865092)scale(0.996264)" xlink:href="#CMMI12-58"/>
      <use transform="translate(473.543502 22.865092)scale(0.996264)" xlink:href="#CMR17-52"/>
     </g>
    </g>
    <g id="line2d_30"/>
    <g id="line2d_31">
     <g>
      <use style="fill:#7e8100;opacity:0.4;stroke:#7e8100;stroke-linejoin:miter;" x="97.61243" xlink:href="#mdcd61f9d2b" y="80.846981"/>
     </g>
    </g>
    <g id="text_16">
     <!-- $\log_{10}{R}=1.2$ -->
     <g transform="translate(115.61243 84.346981)scale(0.1 -0.1)">
      <use transform="translate(0 22.865092)scale(0.996264)" xlink:href="#CMR17-108"/>
      <use transform="translate(24.871058 22.865092)scale(0.996264)" xlink:href="#CMR17-111"/>
      <use transform="translate(70.561536 22.865092)scale(0.996264)" xlink:href="#CMR17-103"/>
      <use transform="translate(117.553179 0)scale(0.697382)" xlink:href="#CMR17-49"/>
      <use transform="translate(149.536361 0)scale(0.697382)" xlink:href="#CMR17-48"/>
      <use transform="translate(198.62208 22.865092)scale(0.996264)" xlink:href="#CMMI12-82"/>
      <use transform="translate(301.367051 22.865092)scale(0.996264)" xlink:href="#CMR17-61"/>
      <use transform="translate(400.755848 22.865092)scale(0.996264)" xlink:href="#CMR17-49"/>
      <use transform="translate(446.446325 22.865092)scale(0.996264)" xlink:href="#CMMI12-58"/>
      <use transform="translate(473.543502 22.865092)scale(0.996264)" xlink:href="#CMR17-50"/>
     </g>
    </g>
    <g id="line2d_32"/>
    <g id="line2d_33">
     <g>
      <use style="fill:#2ad500;opacity:0.4;stroke:#2ad500;stroke-linejoin:miter;" x="97.61243" xlink:href="#m11e416acbd" y="95.200775"/>
     </g>
    </g>
    <g id="text_17">
     <!-- $\log_{10}{R}=2.0$ -->
     <g transform="translate(115.61243 98.700775)scale(0.1 -0.1)">
      <use transform="translate(0 22.865092)scale(0.996264)" xlink:href="#CMR17-108"/>
      <use transform="translate(24.871058 22.865092)scale(0.996264)" xlink:href="#CMR17-111"/>
      <use transform="translate(70.561536 22.865092)scale(0.996264)" xlink:href="#CMR17-103"/>
      <use transform="translate(117.553179 0)scale(0.697382)" xlink:href="#CMR17-49"/>
      <use transform="translate(149.536361 0)scale(0.697382)" xlink:href="#CMR17-48"/>
      <use transform="translate(198.62208 22.865092)scale(0.996264)" xlink:href="#CMMI12-82"/>
      <use transform="translate(301.367051 22.865092)scale(0.996264)" xlink:href="#CMR17-61"/>
      <use transform="translate(400.755848 22.865092)scale(0.996264)" xlink:href="#CMR17-50"/>
      <use transform="translate(446.446325 22.865092)scale(0.996264)" xlink:href="#CMMI12-58"/>
      <use transform="translate(473.543502 22.865092)scale(0.996264)" xlink:href="#CMR17-48"/>
     </g>
    </g>
   </g>
  </g>
 </g>
 <defs>
  <clipPath id="p5c99e2455e">
   <rect height="264.3" width="241.328183" x="78.61243" y="10.7"/>
  </clipPath>
 </defs>
</svg>
