<?xml version="1.0" encoding="utf-8" standalone="no"?>
<!DOCTYPE svg PUBLIC "-//W3C//DTD SVG 1.1//EN"
  "http://www.w3.org/Graphics/SVG/1.1/DTD/svg11.dtd">
<!-- Created with matplotlib (http://matplotlib.org/) -->
<svg height="330.043354pt" version="1.1" viewBox="0 0 330.640613 330.043354" width="330.640613pt" xmlns="http://www.w3.org/2000/svg" xmlns:xlink="http://www.w3.org/1999/xlink">
 <defs>
  <style type="text/css">
*{stroke-linecap:butt;stroke-linejoin:round;}
  </style>
 </defs>
 <g id="figure_1">
  <g id="patch_1">
   <path d="M 0 330.043354 
L 330.640613 330.043354 
L 330.640613 0 
L 0 0 
z
" style="fill:#ffffff;"/>
  </g>
  <g id="axes_1">
   <g id="patch_2">
    <path d="M 78.61243 274.593393 
L 319.940613 274.593393 
L 319.940613 14.408693 
L 78.61243 14.408693 
z
" style="fill:#ffffff;"/>
   </g>
   <g id="matplotlib.axis_1">
    <g id="xtick_1">
     <g id="line2d_1">
      <defs>
       <path d="M 0 0 
L 0 3.5 
" id="m2a12a4f02f" style="stroke:#000000;stroke-width:0.8;"/>
      </defs>
      <g>
       <use style="stroke:#000000;stroke-width:0.8;" x="89.581893" xlink:href="#m2a12a4f02f" y="274.593393"/>
      </g>
     </g>
     <g id="text_1">
      <!-- $0$ -->
      <defs>
       <path d="M 42 31.640625 
C 42 37.75 41.90625 48.125 37.703125 56.109375 
C 34 63.109375 28.09375 65.59375 22.90625 65.59375 
C 18.09375 65.59375 12 63.40625 8.203125 56.203125 
C 4.203125 48.71875 3.796875 39.4375 3.796875 31.640625 
C 3.796875 25.953125 3.90625 17.28125 7 9.671875 
C 11.296875 -0.609375 19 -2 22.90625 -2 
C 27.5 -2 34.5 -0.109375 38.59375 9.375 
C 41.59375 16.28125 42 24.359375 42 31.640625 
z
M 22.90625 -0.40625 
C 16.5 -0.40625 12.703125 5.078125 11.296875 12.6875 
C 10.203125 18.5625 10.203125 27.15625 10.203125 32.75 
C 10.203125 40.4375 10.203125 46.828125 11.5 52.921875 
C 13.40625 61.390625 19 64 22.90625 64 
C 27 64 32.296875 61.296875 34.203125 53.125 
C 35.5 47.4375 35.59375 40.734375 35.59375 32.75 
C 35.59375 26.25 35.59375 18.265625 34.40625 12.375 
C 32.296875 1.484375 26.40625 -0.40625 22.90625 -0.40625 
z
" id="CMR17-48"/>
      </defs>
      <g transform="translate(85.012846 295.790033)scale(0.2 -0.2)">
       <use transform="scale(0.996264)" xlink:href="#CMR17-48"/>
      </g>
     </g>
    </g>
    <g id="xtick_2">
     <g id="line2d_2">
      <g>
       <use style="stroke:#000000;stroke-width:0.8;" x="177.337596" xlink:href="#m2a12a4f02f" y="274.593393"/>
      </g>
     </g>
     <g id="text_2">
      <!-- $200$ -->
      <defs>
       <path d="M 41.703125 15.453125 
L 39.90625 15.453125 
C 38.90625 8.375 38.09375 7.171875 37.703125 6.5625 
C 37.203125 5.765625 30 5.765625 28.59375 5.765625 
L 9.40625 5.765625 
C 13 9.671875 20 16.75 28.5 24.953125 
C 34.59375 30.734375 41.703125 37.53125 41.703125 47.421875 
C 41.703125 59.21875 32.296875 66 21.796875 66 
C 10.796875 66 4.09375 56.3125 4.09375 47.34375 
C 4.09375 43.4375 7 42.9375 8.203125 42.9375 
C 9.203125 42.9375 12.203125 43.546875 12.203125 47.03125 
C 12.203125 50.109375 9.59375 51 8.203125 51 
C 7.59375 51 7 50.90625 6.59375 50.703125 
C 8.5 59.21875 14.296875 63.40625 20.40625 63.40625 
C 29.09375 63.40625 34.796875 56.515625 34.796875 47.421875 
C 34.796875 38.734375 29.703125 31.25 24 24.75 
L 4.09375 2.28125 
L 4.09375 0 
L 39.296875 0 
z
" id="CMR17-50"/>
      </defs>
      <g transform="translate(163.630453 295.790033)scale(0.2 -0.2)">
       <use transform="scale(0.996264)" xlink:href="#CMR17-50"/>
       <use transform="translate(45.690477 0)scale(0.996264)" xlink:href="#CMR17-48"/>
       <use transform="translate(91.380954 0)scale(0.996264)" xlink:href="#CMR17-48"/>
      </g>
     </g>
    </g>
    <g id="xtick_3">
     <g id="line2d_3">
      <g>
       <use style="stroke:#000000;stroke-width:0.8;" x="265.093299" xlink:href="#m2a12a4f02f" y="274.593393"/>
      </g>
     </g>
     <g id="text_3">
      <!-- $400$ -->
      <defs>
       <path d="M 33.59375 64.40625 
C 33.59375 66.5 33.5 66.5 31.703125 66.5 
L 2 19.59375 
L 2 17 
L 27.796875 17 
L 27.796875 7.140625 
C 27.796875 3.5 27.59375 2.5 20.59375 2.5 
L 18.703125 2.5 
L 18.703125 0 
C 21.90625 0 27.296875 0 30.703125 0 
C 34.09375 0 39.5 0 42.703125 0 
L 42.703125 2.5 
L 40.796875 2.5 
C 33.796875 2.5 33.59375 3.5 33.59375 7.140625 
L 33.59375 17 
L 43.796875 17 
L 43.796875 19.59375 
L 33.59375 19.59375 
z
M 28.09375 57.859375 
L 28.09375 19.59375 
L 4 19.59375 
z
" id="CMR17-52"/>
      </defs>
      <g transform="translate(251.386156 295.790033)scale(0.2 -0.2)">
       <use transform="scale(0.996264)" xlink:href="#CMR17-52"/>
       <use transform="translate(45.690477 0)scale(0.996264)" xlink:href="#CMR17-48"/>
       <use transform="translate(91.380954 0)scale(0.996264)" xlink:href="#CMR17-48"/>
      </g>
     </g>
    </g>
    <g id="text_4">
     <!-- Time (days) -->
     <defs>
      <path d="M 35.40625 64.78125 
L 59.296875 64.78125 
L 59.296875 73 
L 2.09375 73 
L 2.09375 64.78125 
L 26.09375 64.78125 
L 26.09375 -0.21875 
L 35.40625 -0.21875 
z
" id="Nimbus_Sans_L_Regular-84"/>
      <path d="M 15 52.484375 
L 6.703125 52.484375 
L 6.703125 0 
L 15 0 
z
M 15 73 
L 6.59375 73 
L 6.59375 62.484375 
L 15 62.484375 
z
" id="Nimbus_Sans_L_Regular-105"/>
      <path d="M 7 52.484375 
L 7 0 
L 15.40625 0 
L 15.40625 32.953125 
C 15.40625 40.578125 20.90625 46.6875 27.703125 46.6875 
C 33.90625 46.6875 37.40625 42.875 37.40625 36.15625 
L 37.40625 0 
L 45.796875 0 
L 45.796875 32.953125 
C 45.796875 40.578125 51.296875 46.6875 58.09375 46.6875 
C 64.203125 46.6875 67.796875 42.78125 67.796875 36.15625 
L 67.796875 0 
L 76.203125 0 
L 76.203125 39.375 
C 76.203125 48.78125 70.796875 54 61 54 
C 54 54 49.796875 51.890625 44.90625 45.984375 
C 41.796875 51.59375 37.59375 54 30.796875 54 
C 23.796875 54 19.203125 51.390625 14.703125 45.078125 
L 14.703125 52.484375 
z
" id="Nimbus_Sans_L_Regular-109"/>
      <path d="M 51.296875 23.890625 
C 51.296875 31.78125 50.703125 36.53125 49.203125 40.375 
C 45.796875 48.859375 37.796875 54 28 54 
C 13.40625 54 4 42.84375 4 25.703125 
C 4 8.546875 13.09375 -2 27.796875 -2 
C 39.796875 -2 48.09375 4.84375 50.203125 16.3125 
L 41.796875 16.3125 
C 39.5 9.34375 34.796875 5.703125 28.09375 5.703125 
C 22.796875 5.703125 18.296875 8.125 15.5 12.578125 
C 13.5 15.59375 12.796875 18.640625 12.703125 23.890625 
z
M 12.90625 31 
C 13.59375 40.265625 19.5 46.28125 27.90625 46.28125 
C 36.09375 46.28125 42.40625 39.53125 42.40625 31 
C 42.40625 31 42.40625 31 42.296875 31 
z
" id="Nimbus_Sans_L_Regular-101"/>
      <path d="M 23.59375 73 
C 13.59375 59.84375 7.296875 41.5625 7.296875 25.796875 
C 7.296875 9.9375 13.59375 -8.34375 23.59375 -21.5 
L 29.09375 -21.5 
C 20.296875 -7.140625 15.40625 9.734375 15.40625 25.796875 
C 15.40625 41.765625 20.296875 58.734375 29.09375 73 
z
" id="Nimbus_Sans_L_Regular-40"/>
      <path d="M 49.5 73 
L 41.203125 73 
L 41.203125 45.890625 
C 37.703125 51.1875 32.09375 54 25.09375 54 
C 11.5 54 2.59375 43.140625 2.59375 26.484375 
C 2.59375 8.84375 11.296875 -2 25.40625 -2 
C 32.59375 -2 37.59375 0.703125 42.09375 7.203125 
L 42.09375 -0.03125 
L 49.5 -0.03125 
z
M 26.5 46.1875 
C 35.5 46.1875 41.203125 38.234375 41.203125 25.796875 
C 41.203125 13.765625 35.40625 5.8125 26.59375 5.8125 
C 17.40625 5.8125 11.296875 13.859375 11.296875 26 
C 11.296875 38.125 17.40625 46.1875 26.5 46.1875 
z
" id="Nimbus_Sans_L_Regular-100"/>
      <path d="M 53.5 5.203125 
C 52.59375 5 52.203125 5 51.703125 5 
C 48.796875 5 47.203125 6.484375 47.203125 9.078125 
L 47.203125 39.765625 
C 47.203125 49.015625 40.40625 54 27.5 54 
C 19.90625 54 13.59375 51.8125 10.09375 47.90625 
C 7.703125 45.203125 6.703125 42.21875 6.5 37.03125 
L 14.90625 37.03125 
C 15.59375 43.390625 19.40625 46.28125 27.203125 46.28125 
C 34.703125 46.28125 38.90625 43.484375 38.90625 38.515625 
L 38.90625 36.328125 
C 38.90625 32.828125 36.796875 31.34375 30.203125 30.546875 
C 18.40625 29.0625 16.59375 28.65625 13.40625 27.359375 
C 7.296875 24.875 4.203125 20.1875 4.203125 13.421875 
C 4.203125 3.96875 10.796875 -2 21.40625 -2 
C 28 -2 33.296875 0.296875 39.203125 5.703125 
C 39.796875 0.390625 42.40625 -2 47.796875 -2 
C 49.5 -2 50.796875 -1.8125 53.5 -1.09375 
z
M 38.90625 16.75 
C 38.90625 13.953125 38.09375 12.265625 35.59375 9.984375 
C 32.203125 6.890625 28.09375 5.3125 23.203125 5.3125 
C 16.703125 5.3125 12.90625 8.390625 12.90625 13.65625 
C 12.90625 19.140625 16.59375 21.921875 25.5 23.21875 
C 34.296875 24.40625 36.09375 24.8125 38.90625 26.09375 
z
" id="Nimbus_Sans_L_Regular-97"/>
      <path d="M 38.796875 52.5 
L 24.296875 11.53125 
L 10.90625 52.5 
L 2 52.5 
L 19.703125 -0.328125 
L 16.5 -8.65625 
C 15.203125 -12.375 13.296875 -13.78125 9.796875 -13.78125 
C 8.59375 -13.78125 7.203125 -13.578125 5.40625 -13.171875 
L 5.40625 -20.703125 
C 7.09375 -21.59375 8.796875 -22 11 -22 
C 13.703125 -22 16.59375 -21.09375 18.796875 -19.484375 
C 21.40625 -17.578125 22.90625 -15.359375 24.5 -11.140625 
L 47.796875 52.5 
z
" id="Nimbus_Sans_L_Regular-121"/>
      <path d="M 43.796875 37.921875 
C 43.703125 48.203125 36.90625 54 24.796875 54 
C 12.59375 54 4.703125 47.71875 4.703125 38.0625 
C 4.703125 29.890625 8.90625 26.015625 21.296875 23.03125 
L 29.09375 21.140625 
C 34.90625 19.734375 37.203125 17.65625 37.203125 13.875 
C 37.203125 9 32.296875 5.703125 25 5.703125 
C 20.5 5.703125 16.703125 7 14.59375 9.1875 
C 13.296875 10.6875 12.703125 12.171875 12.203125 15.84375 
L 3.40625 15.84375 
C 3.796875 3.765625 10.59375 -2 24.296875 -2 
C 37.5 -2 45.90625 4.453125 45.90625 14.515625 
C 45.90625 22.28125 41.5 26.578125 31.09375 29.0625 
L 23.09375 30.953125 
C 16.296875 32.53125 13.40625 34.734375 13.40625 38.40625 
C 13.40625 43.1875 17.703125 46.28125 24.5 46.28125 
C 31.203125 46.28125 34.796875 43.390625 35 37.921875 
z
" id="Nimbus_Sans_L_Regular-115"/>
      <path d="M 9.296875 -21.5 
C 19.296875 -8.34375 25.59375 9.9375 25.59375 25.6875 
C 25.59375 41.5625 19.296875 59.84375 9.296875 73 
L 3.796875 73 
C 12.59375 58.640625 17.5 41.765625 17.5 25.6875 
C 17.5 9.734375 12.59375 -7.25 3.796875 -21.5 
z
" id="Nimbus_Sans_L_Regular-41"/>
     </defs>
     <g transform="translate(146.992963 318.599381)scale(0.2 -0.2)">
      <use transform="scale(0.996264)" xlink:href="#Nimbus_Sans_L_Regular-84"/>
      <use transform="translate(60.871631 0)scale(0.996264)" xlink:href="#Nimbus_Sans_L_Regular-105"/>
      <use transform="translate(82.988415 0)scale(0.996264)" xlink:href="#Nimbus_Sans_L_Regular-109"/>
      <use transform="translate(165.976845 0)scale(0.996264)" xlink:href="#Nimbus_Sans_L_Regular-101"/>
      <use transform="translate(249.063692 0)scale(0.996264)" xlink:href="#Nimbus_Sans_L_Regular-40"/>
      <use transform="translate(282.238922 0)scale(0.996264)" xlink:href="#Nimbus_Sans_L_Regular-100"/>
      <use transform="translate(337.630599 0)scale(0.996264)" xlink:href="#Nimbus_Sans_L_Regular-97"/>
      <use transform="translate(390.034168 0)scale(0.996264)" xlink:href="#Nimbus_Sans_L_Regular-121"/>
      <use transform="translate(439.847368 0)scale(0.996264)" xlink:href="#Nimbus_Sans_L_Regular-115"/>
      <use transform="translate(489.660569 0)scale(0.996264)" xlink:href="#Nimbus_Sans_L_Regular-41"/>
     </g>
    </g>
   </g>
   <g id="matplotlib.axis_2">
    <g id="ytick_1">
     <g id="line2d_4">
      <defs>
       <path d="M 0 0 
L -3.5 0 
" id="m1abe657b6d" style="stroke:#000000;stroke-width:0.8;"/>
      </defs>
      <g>
       <use style="stroke:#000000;stroke-width:0.8;" x="78.61243" xlink:href="#m1abe657b6d" y="262.766816"/>
      </g>
     </g>
     <g id="text_5">
      <!-- $0.000$ -->
      <defs>
       <path d="M 18.40625 4.796875 
C 18.40625 7.6875 16 9.671875 13.59375 9.671875 
C 10.703125 9.671875 8.703125 7.28125 8.703125 4.890625 
C 8.703125 2 11.09375 0 13.5 0 
C 16.40625 0 18.40625 2.390625 18.40625 4.796875 
z
" id="CMMI12-58"/>
      </defs>
      <g transform="translate(29.640613 269.865136)scale(0.2 -0.2)">
       <use transform="scale(0.996264)" xlink:href="#CMR17-48"/>
       <use transform="translate(45.690477 0)scale(0.996264)" xlink:href="#CMMI12-58"/>
       <use transform="translate(72.787654 0)scale(0.996264)" xlink:href="#CMR17-48"/>
       <use transform="translate(118.478131 0)scale(0.996264)" xlink:href="#CMR17-48"/>
       <use transform="translate(164.168608 0)scale(0.996264)" xlink:href="#CMR17-48"/>
      </g>
     </g>
    </g>
    <g id="ytick_2">
     <g id="line2d_5">
      <g>
       <use style="stroke:#000000;stroke-width:0.8;" x="78.61243" xlink:href="#m1abe657b6d" y="213.073117"/>
      </g>
     </g>
     <g id="text_6">
      <!-- $0.001$ -->
      <defs>
       <path d="M 26.59375 63.40625 
C 26.59375 65.5 26.5 65.5 25.09375 65.5 
C 21.203125 61.1875 15.296875 59.796875 9.703125 59.796875 
C 9.40625 59.796875 8.90625 59.796875 8.796875 59.5 
C 8.703125 59.296875 8.703125 59.09375 8.703125 57 
C 11.796875 57 17 57.59375 21 59.984375 
L 21 7.203125 
C 21 3.6875 20.796875 2.5 12.203125 2.5 
L 9.203125 2.5 
L 9.203125 0 
C 14 0 19 0 23.796875 0 
C 28.59375 0 33.59375 0 38.40625 0 
L 38.40625 2.5 
L 35.40625 2.5 
C 26.796875 2.5 26.59375 3.59375 26.59375 7.15625 
z
" id="CMR17-49"/>
      </defs>
      <g transform="translate(29.640613 220.171437)scale(0.2 -0.2)">
       <use transform="scale(0.996264)" xlink:href="#CMR17-48"/>
       <use transform="translate(45.690477 0)scale(0.996264)" xlink:href="#CMMI12-58"/>
       <use transform="translate(72.787654 0)scale(0.996264)" xlink:href="#CMR17-48"/>
       <use transform="translate(118.478131 0)scale(0.996264)" xlink:href="#CMR17-48"/>
       <use transform="translate(164.168608 0)scale(0.996264)" xlink:href="#CMR17-49"/>
      </g>
     </g>
    </g>
    <g id="ytick_3">
     <g id="line2d_6">
      <g>
       <use style="stroke:#000000;stroke-width:0.8;" x="78.61243" xlink:href="#m1abe657b6d" y="163.379418"/>
      </g>
     </g>
     <g id="text_7">
      <!-- $0.002$ -->
      <g transform="translate(29.640613 170.477738)scale(0.2 -0.2)">
       <use transform="scale(0.996264)" xlink:href="#CMR17-48"/>
       <use transform="translate(45.690477 0)scale(0.996264)" xlink:href="#CMMI12-58"/>
       <use transform="translate(72.787654 0)scale(0.996264)" xlink:href="#CMR17-48"/>
       <use transform="translate(118.478131 0)scale(0.996264)" xlink:href="#CMR17-48"/>
       <use transform="translate(164.168608 0)scale(0.996264)" xlink:href="#CMR17-50"/>
      </g>
     </g>
    </g>
    <g id="ytick_4">
     <g id="line2d_7">
      <g>
       <use style="stroke:#000000;stroke-width:0.8;" x="78.61243" xlink:href="#m1abe657b6d" y="113.685718"/>
      </g>
     </g>
     <g id="text_8">
      <!-- $0.003$ -->
      <defs>
       <path d="M 22.09375 33.703125 
C 31 33.703125 34.90625 25.96875 34.90625 17.03125 
C 34.90625 5 28.5 0.390625 22.703125 0.390625 
C 17.40625 0.390625 8.796875 3.03125 6.09375 10.828125 
C 6.59375 10.625 7.09375 10.625 7.59375 10.625 
C 10 10.625 11.796875 12.21875 11.796875 14.8125 
C 11.796875 17.703125 9.59375 19 7.59375 19 
C 5.90625 19 3.296875 18.203125 3.296875 14.46875 
C 3.296875 5.234375 12.296875 -2 22.90625 -2 
C 34 -2 42.5 6.71875 42.5 16.953125 
C 42.5 26.671875 34.5 33.703125 25 34.796875 
C 32.59375 36.375 39.90625 43.0625 39.90625 52.015625 
C 39.90625 59.6875 32 65.296875 23 65.296875 
C 13.90625 65.296875 5.90625 59.828125 5.90625 52.015625 
C 5.90625 48.59375 8.5 48 9.796875 48 
C 11.90625 48 13.703125 49.296875 13.703125 51.890625 
C 13.703125 54.46875 11.90625 55.765625 9.796875 55.765625 
C 9.40625 55.765625 8.90625 55.765625 8.5 55.578125 
C 11.40625 61.859375 19.296875 63 22.796875 63 
C 26.296875 63 32.90625 61.328125 32.90625 51.875 
C 32.90625 49.109375 32.5 44.1875 29.09375 39.84375 
C 26.09375 36 22.703125 36 19.40625 35.6875 
C 18.90625 35.6875 16.59375 35.453125 16.203125 35.453125 
C 15.5 35.359375 15.09375 35.265625 15.09375 34.5 
C 15.09375 33.796875 15.203125 33.703125 17.203125 33.703125 
z
" id="CMR17-51"/>
      </defs>
      <g transform="translate(29.640613 120.784039)scale(0.2 -0.2)">
       <use transform="scale(0.996264)" xlink:href="#CMR17-48"/>
       <use transform="translate(45.690477 0)scale(0.996264)" xlink:href="#CMMI12-58"/>
       <use transform="translate(72.787654 0)scale(0.996264)" xlink:href="#CMR17-48"/>
       <use transform="translate(118.478131 0)scale(0.996264)" xlink:href="#CMR17-48"/>
       <use transform="translate(164.168608 0)scale(0.996264)" xlink:href="#CMR17-51"/>
      </g>
     </g>
    </g>
    <g id="ytick_5">
     <g id="line2d_8">
      <g>
       <use style="stroke:#000000;stroke-width:0.8;" x="78.61243" xlink:href="#m1abe657b6d" y="63.992019"/>
      </g>
     </g>
     <g id="text_9">
      <!-- $0.004$ -->
      <g transform="translate(29.640613 71.09034)scale(0.2 -0.2)">
       <use transform="scale(0.996264)" xlink:href="#CMR17-48"/>
       <use transform="translate(45.690477 0)scale(0.996264)" xlink:href="#CMMI12-58"/>
       <use transform="translate(72.787654 0)scale(0.996264)" xlink:href="#CMR17-48"/>
       <use transform="translate(118.478131 0)scale(0.996264)" xlink:href="#CMR17-48"/>
       <use transform="translate(164.168608 0)scale(0.996264)" xlink:href="#CMR17-52"/>
      </g>
     </g>
    </g>
    <g id="ytick_6">
     <g id="line2d_9">
      <g>
       <use style="stroke:#000000;stroke-width:0.8;" x="78.61243" xlink:href="#m1abe657b6d" y="14.29832"/>
      </g>
     </g>
     <g id="text_10">
      <!-- $0.005$ -->
      <defs>
       <path d="M 11.40625 57.6875 
C 12.40625 57.28125 16.5 56 20.703125 56 
C 30 56 35.09375 61.109375 38 64.0625 
C 38 64.953125 38 65.5 37.40625 65.5 
C 37.296875 65.5 37.09375 65.5 36.296875 65.046875 
C 32.796875 63.40625 28.703125 62.078125 23.703125 62.078125 
C 20.703125 62.078125 16.203125 62.484375 11.296875 64.671875 
C 10.203125 65.171875 10 65.171875 9.90625 65.171875 
C 9.40625 65.171875 9.296875 65.0625 9.296875 63.078125 
L 9.296875 34.421875 
C 9.296875 32.640625 9.296875 32.140625 10.296875 32.140625 
C 10.796875 32.140625 11 32.34375 11.5 33.03125 
C 14.703125 37.515625 19.09375 39.40625 24.09375 39.40625 
C 27.59375 39.40625 35.09375 37.21875 35.09375 20.140625 
C 35.09375 16.953125 35.09375 11.171875 32.09375 6.578125 
C 29.59375 2.484375 25.703125 0.390625 21.40625 0.390625 
C 14.796875 0.390625 8.09375 5 6.296875 12.71875 
C 6.703125 12.609375 7.5 12.421875 7.90625 12.421875 
C 9.203125 12.421875 11.703125 13.125 11.703125 16.21875 
C 11.703125 18.90625 9.796875 20 7.90625 20 
C 5.59375 20 4.09375 18.59375 4.09375 15.796875 
C 4.09375 7.09375 11 -2 21.59375 -2 
C 31.90625 -2 41.703125 6.875 41.703125 19.75 
C 41.703125 31.71875 33.90625 41 24.203125 41 
C 19.09375 41 14.796875 39.109375 11.40625 35.53125 
z
" id="CMR17-53"/>
      </defs>
      <g transform="translate(29.640613 21.396641)scale(0.2 -0.2)">
       <use transform="scale(0.996264)" xlink:href="#CMR17-48"/>
       <use transform="translate(45.690477 0)scale(0.996264)" xlink:href="#CMMI12-58"/>
       <use transform="translate(72.787654 0)scale(0.996264)" xlink:href="#CMR17-48"/>
       <use transform="translate(118.478131 0)scale(0.996264)" xlink:href="#CMR17-48"/>
       <use transform="translate(164.168608 0)scale(0.996264)" xlink:href="#CMR17-53"/>
      </g>
     </g>
    </g>
    <g id="text_11">
     <!-- Heteroplasmy variance -->
     <defs>
      <path d="M 55.09375 33 
L 55.09375 -0.03125 
L 64.40625 -0.03125 
L 64.40625 73 
L 55.09375 73 
L 55.09375 41.21875 
L 17.59375 41.21875 
L 17.59375 73 
L 8.296875 73 
L 8.296875 -0.03125 
L 17.703125 -0.03125 
L 17.703125 33 
z
" id="Nimbus_Sans_L_Regular-72"/>
      <path d="M 25.40625 52.8125 
L 16.796875 52.8125 
L 16.796875 67 
L 8.5 67 
L 8.5 52.8125 
L 1.40625 52.8125 
L 1.40625 46 
L 8.5 46 
L 8.5 6.3125 
C 8.5 1 12.09375 -2 18.59375 -2 
C 20.59375 -2 22.59375 -1.8125 25.40625 -1.296875 
L 25.40625 5.71875 
C 24.296875 5.40625 23 5.3125 21.40625 5.3125 
C 17.796875 5.3125 16.796875 6.3125 16.796875 10.015625 
L 16.796875 46 
L 25.40625 46 
z
" id="Nimbus_Sans_L_Regular-116"/>
      <path d="M 6.90625 52.484375 
L 6.90625 0 
L 15.296875 0 
L 15.296875 27.203125 
C 15.296875 34.703125 17.203125 39.609375 21.203125 42.5 
C 23.796875 44.40625 26.296875 45 32.09375 45 
L 32.09375 53.625 
C 30.703125 53.8125 30 53.8125 28.90625 53.8125 
C 23.5 53.8125 19.40625 50.625 14.59375 42.90625 
L 14.59375 52.484375 
z
" id="Nimbus_Sans_L_Regular-114"/>
      <path d="M 27.203125 54 
C 12.5 54 3.59375 43.53125 3.59375 25.984375 
C 3.59375 8.453125 12.40625 -2 27.296875 -2 
C 42 -2 51 8.453125 51 25.59375 
C 51 43.625 42.296875 54 27.203125 54 
z
M 27.296875 46.28125 
C 36.703125 46.28125 42.296875 38.625 42.296875 25.703125 
C 42.296875 13.453125 36.5 5.703125 27.296875 5.703125 
C 18 5.703125 12.296875 13.359375 12.296875 25.984375 
C 12.296875 38.53125 18 46.28125 27.296875 46.28125 
z
" id="Nimbus_Sans_L_Regular-111"/>
      <path d="M 5.40625 -22 
L 13.796875 -22 
L 13.796875 5 
C 18.203125 -0.421875 23.09375 -2.8125 29.90625 -2.8125 
C 43.40625 -2.8125 52.296875 8.15625 52.296875 24.984375 
C 52.296875 42.71875 43.703125 53.8125 29.796875 53.8125 
C 22.703125 53.8125 17 50.59375 13.09375 44.390625 
L 13.09375 52.328125 
L 5.40625 52.328125 
z
M 28.40625 46 
C 37.59375 46 43.59375 37.8125 43.59375 25.1875 
C 43.59375 13.171875 37.5 5 28.40625 5 
C 19.59375 5 13.796875 13.078125 13.796875 25.5 
C 13.796875 37.921875 19.59375 46 28.40625 46 
z
" id="Nimbus_Sans_L_Regular-112"/>
      <path d="M 15.203125 73 
L 6.796875 73 
L 6.796875 -0.03125 
L 15.203125 -0.03125 
z
" id="Nimbus_Sans_L_Regular-108"/>
      <path d="M 28.5 0 
L 48.59375 52.5 
L 39.203125 52.5 
L 24.40625 9.921875 
L 10.40625 52.5 
L 1 52.5 
L 19.40625 0 
z
" id="Nimbus_Sans_L_Regular-118"/>
      <path d="M 7 52.484375 
L 7 0 
L 15.40625 0 
L 15.40625 28.953125 
C 15.40625 39.671875 21 46.6875 29.59375 46.6875 
C 36.203125 46.6875 40.40625 42.671875 40.40625 36.359375 
L 40.40625 0 
L 48.703125 0 
L 48.703125 39.671875 
C 48.703125 48.390625 42.203125 54 32.09375 54 
C 24.296875 54 19.296875 50.984375 14.703125 43.6875 
L 14.703125 52.484375 
z
" id="Nimbus_Sans_L_Regular-110"/>
      <path d="M 47.09375 34.9375 
C 46.703125 40.03125 45.59375 43.328125 43.59375 46.21875 
C 40 51.109375 33.703125 54 26.40625 54 
C 12.296875 54 3.09375 42.84375 3.09375 25.5 
C 3.09375 8.65625 12.09375 -2 26.296875 -2 
C 38.796875 -2 46.703125 5.46875 47.703125 18.234375 
L 39.296875 18.234375 
C 37.90625 9.875 33.59375 5.703125 26.5 5.703125 
C 17.296875 5.703125 11.796875 13.171875 11.796875 25.5 
C 11.796875 38.53125 17.203125 46.28125 26.296875 46.28125 
C 33.296875 46.28125 37.703125 42.203125 38.703125 34.9375 
z
" id="Nimbus_Sans_L_Regular-99"/>
     </defs>
     <g transform="translate(21.396641 246.118999)rotate(-90)scale(0.2 -0.2)">
      <use transform="scale(0.996264)" xlink:href="#Nimbus_Sans_L_Regular-72"/>
      <use transform="translate(71.929985 0)scale(0.996264)" xlink:href="#Nimbus_Sans_L_Regular-101"/>
      <use transform="translate(127.321662 0)scale(0.996264)" xlink:href="#Nimbus_Sans_L_Regular-116"/>
      <use transform="translate(155.016831 0)scale(0.996264)" xlink:href="#Nimbus_Sans_L_Regular-101"/>
      <use transform="translate(210.408508 0)scale(0.996264)" xlink:href="#Nimbus_Sans_L_Regular-114"/>
      <use transform="translate(243.583738 0)scale(0.996264)" xlink:href="#Nimbus_Sans_L_Regular-111"/>
      <use transform="translate(298.975415 0)scale(0.996264)" xlink:href="#Nimbus_Sans_L_Regular-112"/>
      <use transform="translate(354.367092 0)scale(0.996264)" xlink:href="#Nimbus_Sans_L_Regular-108"/>
      <use transform="translate(376.483876 0)scale(0.996264)" xlink:href="#Nimbus_Sans_L_Regular-97"/>
      <use transform="translate(431.875553 0)scale(0.996264)" xlink:href="#Nimbus_Sans_L_Regular-115"/>
      <use transform="translate(481.688754 0)scale(0.996264)" xlink:href="#Nimbus_Sans_L_Regular-109"/>
      <use transform="translate(563.183791 0)scale(0.996264)" xlink:href="#Nimbus_Sans_L_Regular-121"/>
      <use transform="translate(640.692161 0)scale(0.996264)" xlink:href="#Nimbus_Sans_L_Regular-118"/>
      <use transform="translate(688.014732 0)scale(0.996264)" xlink:href="#Nimbus_Sans_L_Regular-97"/>
      <use transform="translate(743.406409 0)scale(0.996264)" xlink:href="#Nimbus_Sans_L_Regular-114"/>
      <use transform="translate(778.075017 0)scale(0.996264)" xlink:href="#Nimbus_Sans_L_Regular-105"/>
      <use transform="translate(800.191801 0)scale(0.996264)" xlink:href="#Nimbus_Sans_L_Regular-97"/>
      <use transform="translate(855.583478 0)scale(0.996264)" xlink:href="#Nimbus_Sans_L_Regular-110"/>
      <use transform="translate(910.975155 0)scale(0.996264)" xlink:href="#Nimbus_Sans_L_Regular-99"/>
      <use transform="translate(960.788355 0)scale(0.996264)" xlink:href="#Nimbus_Sans_L_Regular-101"/>
     </g>
    </g>
   </g>
   <g id="line2d_10">
    <defs>
     <path d="M -0 7.071068 
L 4.242641 0 
L -0 -7.071068 
L -4.242641 -0 
z
" id="m7aab986cf1" style="stroke:#2ad500;stroke-linejoin:miter;"/>
    </defs>
    <g clip-path="url(#p304f53add3)">
     <use style="fill:#2ad500;opacity:0.4;stroke:#2ad500;stroke-linejoin:miter;" x="89.581893" xlink:href="#m7aab986cf1" y="262.766816"/>
     <use style="fill:#2ad500;opacity:0.4;stroke:#2ad500;stroke-linejoin:miter;" x="107.133034" xlink:href="#m7aab986cf1" y="243.578281"/>
     <use style="fill:#2ad500;opacity:0.4;stroke:#2ad500;stroke-linejoin:miter;" x="124.684174" xlink:href="#m7aab986cf1" y="224.506663"/>
     <use style="fill:#2ad500;opacity:0.4;stroke:#2ad500;stroke-linejoin:miter;" x="142.235315" xlink:href="#m7aab986cf1" y="204.945814"/>
     <use style="fill:#2ad500;opacity:0.4;stroke:#2ad500;stroke-linejoin:miter;" x="159.786456" xlink:href="#m7aab986cf1" y="186.195152"/>
     <use style="fill:#2ad500;opacity:0.4;stroke:#2ad500;stroke-linejoin:miter;" x="177.337596" xlink:href="#m7aab986cf1" y="167.308546"/>
     <use style="fill:#2ad500;opacity:0.4;stroke:#2ad500;stroke-linejoin:miter;" x="194.888737" xlink:href="#m7aab986cf1" y="146.635167"/>
     <use style="fill:#2ad500;opacity:0.4;stroke:#2ad500;stroke-linejoin:miter;" x="212.439877" xlink:href="#m7aab986cf1" y="126.729569"/>
     <use style="fill:#2ad500;opacity:0.4;stroke:#2ad500;stroke-linejoin:miter;" x="229.991018" xlink:href="#m7aab986cf1" y="106.729467"/>
     <use style="fill:#2ad500;opacity:0.4;stroke:#2ad500;stroke-linejoin:miter;" x="247.542158" xlink:href="#m7aab986cf1" y="89.541725"/>
     <use style="fill:#2ad500;opacity:0.4;stroke:#2ad500;stroke-linejoin:miter;" x="265.093299" xlink:href="#m7aab986cf1" y="70.810009"/>
     <use style="fill:#2ad500;opacity:0.4;stroke:#2ad500;stroke-linejoin:miter;" x="282.64444" xlink:href="#m7aab986cf1" y="51.667684"/>
     <use style="fill:#2ad500;opacity:0.4;stroke:#2ad500;stroke-linejoin:miter;" x="300.19558" xlink:href="#m7aab986cf1" y="31.395638"/>
    </g>
   </g>
   <g id="line2d_11">
    <path clip-path="url(#p304f53add3)" d="M 89.581893 262.766816 
L 93.969678 258.036185 
L 98.357464 253.305554 
L 102.745249 248.574923 
L 107.133034 243.844292 
L 111.520819 239.113661 
L 115.908604 234.38303 
L 120.296389 229.652399 
L 124.684174 224.921768 
L 129.07196 220.191138 
L 133.459745 215.460507 
L 137.84753 210.729876 
L 142.235315 205.999245 
L 146.6231 201.268614 
L 151.010885 196.537983 
L 155.39867 191.807352 
L 159.786456 187.076721 
L 164.174241 182.34609 
L 168.562026 177.615459 
L 172.949811 172.884828 
L 177.337596 168.154198 
L 181.725381 163.423567 
L 186.113166 158.692936 
L 190.500952 153.962305 
L 194.888737 149.231674 
L 199.276522 144.501043 
L 203.664307 139.770412 
L 208.052092 135.039781 
L 212.439877 130.30915 
L 216.827662 125.578519 
L 221.215448 120.847888 
L 225.603233 116.117258 
L 229.991018 111.386627 
L 234.378803 106.655996 
L 238.766588 101.925365 
L 243.154373 97.194734 
L 247.542158 92.464103 
L 251.929944 87.733472 
L 256.317729 83.002841 
L 260.705514 78.27221 
L 265.093299 73.541579 
L 269.481084 68.810948 
L 273.868869 64.080318 
L 278.256654 59.349687 
L 282.64444 54.619056 
L 287.032225 49.888425 
L 291.42001 45.157794 
L 295.807795 40.427163 
L 300.19558 35.696532 
L 304.583365 30.965901 
L 308.97115 26.23527 
" style="fill:none;stroke:#2ad500;stroke-linecap:square;stroke-width:1.5;"/>
   </g>
   <g id="line2d_12">
    <defs>
     <path d="M 0 5 
C 1.326016 5 2.597899 4.473168 3.535534 3.535534 
C 4.473168 2.597899 5 1.326016 5 0 
C 5 -1.326016 4.473168 -2.597899 3.535534 -3.535534 
C 2.597899 -4.473168 1.326016 -5 0 -5 
C -1.326016 -5 -2.597899 -4.473168 -3.535534 -3.535534 
C -4.473168 -2.597899 -5 -1.326016 -5 0 
C -5 1.326016 -4.473168 2.597899 -3.535534 3.535534 
C -2.597899 4.473168 -1.326016 5 0 5 
z
" id="m9b11c54f19" style="stroke:#7e8100;"/>
    </defs>
    <g clip-path="url(#p304f53add3)">
     <use style="fill:#7e8100;opacity:0.4;stroke:#7e8100;" x="89.581893" xlink:href="#m9b11c54f19" y="262.766816"/>
     <use style="fill:#7e8100;opacity:0.4;stroke:#7e8100;" x="107.133034" xlink:href="#m9b11c54f19" y="244.771745"/>
     <use style="fill:#7e8100;opacity:0.4;stroke:#7e8100;" x="124.684174" xlink:href="#m9b11c54f19" y="227.242104"/>
     <use style="fill:#7e8100;opacity:0.4;stroke:#7e8100;" x="142.235315" xlink:href="#m9b11c54f19" y="209.537526"/>
     <use style="fill:#7e8100;opacity:0.4;stroke:#7e8100;" x="159.786456" xlink:href="#m9b11c54f19" y="190.633138"/>
     <use style="fill:#7e8100;opacity:0.4;stroke:#7e8100;" x="177.337596" xlink:href="#m9b11c54f19" y="173.338205"/>
     <use style="fill:#7e8100;opacity:0.4;stroke:#7e8100;" x="194.888737" xlink:href="#m9b11c54f19" y="154.860495"/>
     <use style="fill:#7e8100;opacity:0.4;stroke:#7e8100;" x="212.439877" xlink:href="#m9b11c54f19" y="137.668042"/>
     <use style="fill:#7e8100;opacity:0.4;stroke:#7e8100;" x="229.991018" xlink:href="#m9b11c54f19" y="119.622961"/>
     <use style="fill:#7e8100;opacity:0.4;stroke:#7e8100;" x="247.542158" xlink:href="#m9b11c54f19" y="100.638427"/>
     <use style="fill:#7e8100;opacity:0.4;stroke:#7e8100;" x="265.093299" xlink:href="#m9b11c54f19" y="80.052002"/>
     <use style="fill:#7e8100;opacity:0.4;stroke:#7e8100;" x="282.64444" xlink:href="#m9b11c54f19" y="61.98682"/>
     <use style="fill:#7e8100;opacity:0.4;stroke:#7e8100;" x="300.19558" xlink:href="#m9b11c54f19" y="44.483039"/>
    </g>
   </g>
   <g id="line2d_13">
    <path clip-path="url(#p304f53add3)" d="M 89.581893 262.766816 
L 93.969678 258.294668 
L 98.357464 253.822521 
L 102.745249 249.350373 
L 107.133034 244.878226 
L 111.520819 240.406078 
L 115.908604 235.933931 
L 120.296389 231.461784 
L 124.684174 226.989636 
L 129.07196 222.517489 
L 133.459745 218.045341 
L 137.84753 213.573194 
L 142.235315 209.101046 
L 146.6231 204.628899 
L 151.010885 200.156751 
L 155.39867 195.684604 
L 159.786456 191.212457 
L 164.174241 186.740309 
L 168.562026 182.268162 
L 172.949811 177.796014 
L 177.337596 173.323867 
L 181.725381 168.851719 
L 186.113166 164.379572 
L 190.500952 159.907424 
L 194.888737 155.435277 
L 199.276522 150.963129 
L 203.664307 146.490982 
L 208.052092 142.018835 
L 212.439877 137.546687 
L 216.827662 133.07454 
L 221.215448 128.602392 
L 225.603233 124.130245 
L 229.991018 119.658097 
L 234.378803 115.18595 
L 238.766588 110.713802 
L 243.154373 106.241655 
L 247.542158 101.769508 
L 251.929944 97.29736 
L 256.317729 92.825213 
L 260.705514 88.353065 
L 265.093299 83.880918 
L 269.481084 79.40877 
L 273.868869 74.936623 
L 278.256654 70.464475 
L 282.64444 65.992328 
L 287.032225 61.520181 
L 291.42001 57.048033 
L 295.807795 52.575886 
L 300.19558 48.103738 
L 304.583365 43.631591 
L 308.97115 39.159443 
" style="fill:none;stroke:#7e8100;stroke-linecap:square;stroke-width:1.5;"/>
   </g>
   <g id="line2d_14">
    <defs>
     <path d="M -5 5 
L 5 5 
L 5 -5 
L -5 -5 
z
" id="mbdd77739f8" style="stroke:#d42b00;stroke-linejoin:miter;"/>
    </defs>
    <g clip-path="url(#p304f53add3)">
     <use style="fill:#d42b00;opacity:0.4;stroke:#d42b00;stroke-linejoin:miter;" x="89.581893" xlink:href="#mbdd77739f8" y="262.766816"/>
     <use style="fill:#d42b00;opacity:0.4;stroke:#d42b00;stroke-linejoin:miter;" x="107.133034" xlink:href="#mbdd77739f8" y="249.329807"/>
     <use style="fill:#d42b00;opacity:0.4;stroke:#d42b00;stroke-linejoin:miter;" x="124.684174" xlink:href="#mbdd77739f8" y="236.174095"/>
     <use style="fill:#d42b00;opacity:0.4;stroke:#d42b00;stroke-linejoin:miter;" x="142.235315" xlink:href="#mbdd77739f8" y="223.291927"/>
     <use style="fill:#d42b00;opacity:0.4;stroke:#d42b00;stroke-linejoin:miter;" x="159.786456" xlink:href="#mbdd77739f8" y="210.13782"/>
     <use style="fill:#d42b00;opacity:0.4;stroke:#d42b00;stroke-linejoin:miter;" x="177.337596" xlink:href="#mbdd77739f8" y="197.68746"/>
     <use style="fill:#d42b00;opacity:0.4;stroke:#d42b00;stroke-linejoin:miter;" x="194.888737" xlink:href="#mbdd77739f8" y="185.204231"/>
     <use style="fill:#d42b00;opacity:0.4;stroke:#d42b00;stroke-linejoin:miter;" x="212.439877" xlink:href="#mbdd77739f8" y="172.05939"/>
     <use style="fill:#d42b00;opacity:0.4;stroke:#d42b00;stroke-linejoin:miter;" x="229.991018" xlink:href="#mbdd77739f8" y="159.868774"/>
     <use style="fill:#d42b00;opacity:0.4;stroke:#d42b00;stroke-linejoin:miter;" x="247.542158" xlink:href="#mbdd77739f8" y="146.859418"/>
     <use style="fill:#d42b00;opacity:0.4;stroke:#d42b00;stroke-linejoin:miter;" x="265.093299" xlink:href="#mbdd77739f8" y="134.013763"/>
     <use style="fill:#d42b00;opacity:0.4;stroke:#d42b00;stroke-linejoin:miter;" x="282.64444" xlink:href="#mbdd77739f8" y="120.722637"/>
     <use style="fill:#d42b00;opacity:0.4;stroke:#d42b00;stroke-linejoin:miter;" x="300.19558" xlink:href="#mbdd77739f8" y="107.953865"/>
    </g>
   </g>
   <g id="line2d_15">
    <path clip-path="url(#p304f53add3)" d="M 89.581893 262.766816 
L 93.969678 259.468933 
L 98.357464 256.171051 
L 102.745249 252.873168 
L 107.133034 249.575285 
L 111.520819 246.277403 
L 115.908604 242.97952 
L 120.296389 239.681638 
L 124.684174 236.383755 
L 129.07196 233.085872 
L 133.459745 229.78799 
L 137.84753 226.490107 
L 142.235315 223.192225 
L 146.6231 219.894342 
L 151.010885 216.596459 
L 155.39867 213.298577 
L 159.786456 210.000694 
L 164.174241 206.702812 
L 168.562026 203.404929 
L 172.949811 200.107047 
L 177.337596 196.809164 
L 181.725381 193.511281 
L 186.113166 190.213399 
L 190.500952 186.915516 
L 194.888737 183.617634 
L 199.276522 180.319751 
L 203.664307 177.021868 
L 208.052092 173.723986 
L 212.439877 170.426103 
L 216.827662 167.128221 
L 221.215448 163.830338 
L 225.603233 160.532456 
L 229.991018 157.234573 
L 234.378803 153.93669 
L 238.766588 150.638808 
L 243.154373 147.340925 
L 247.542158 144.043043 
L 251.929944 140.74516 
L 256.317729 137.447277 
L 260.705514 134.149395 
L 265.093299 130.851512 
L 269.481084 127.55363 
L 273.868869 124.255747 
L 278.256654 120.957865 
L 282.64444 117.659982 
L 287.032225 114.362099 
L 291.42001 111.064217 
L 295.807795 107.766334 
L 300.19558 104.468452 
L 304.583365 101.170569 
L 308.97115 97.872686 
" style="fill:none;stroke:#d42b00;stroke-linecap:square;stroke-width:1.5;"/>
   </g>
   <g id="line2d_16">
    <defs>
     <path d="M 0 -5 
L -5 5 
L 5 5 
z
" id="mae70b6397d" style="stroke:#d4002b;stroke-linejoin:miter;"/>
    </defs>
    <g clip-path="url(#p304f53add3)">
     <use style="fill:#d4002b;opacity:0.4;stroke:#d4002b;stroke-linejoin:miter;" x="89.581893" xlink:href="#mae70b6397d" y="262.766816"/>
     <use style="fill:#d4002b;opacity:0.4;stroke:#d4002b;stroke-linejoin:miter;" x="107.133034" xlink:href="#mae70b6397d" y="257.884634"/>
     <use style="fill:#d4002b;opacity:0.4;stroke:#d4002b;stroke-linejoin:miter;" x="124.684174" xlink:href="#mae70b6397d" y="252.870302"/>
     <use style="fill:#d4002b;opacity:0.4;stroke:#d4002b;stroke-linejoin:miter;" x="142.235315" xlink:href="#mae70b6397d" y="248.141199"/>
     <use style="fill:#d4002b;opacity:0.4;stroke:#d4002b;stroke-linejoin:miter;" x="159.786456" xlink:href="#mae70b6397d" y="243.054857"/>
     <use style="fill:#d4002b;opacity:0.4;stroke:#d4002b;stroke-linejoin:miter;" x="177.337596" xlink:href="#mae70b6397d" y="237.92426"/>
     <use style="fill:#d4002b;opacity:0.4;stroke:#d4002b;stroke-linejoin:miter;" x="194.888737" xlink:href="#mae70b6397d" y="232.514955"/>
     <use style="fill:#d4002b;opacity:0.4;stroke:#d4002b;stroke-linejoin:miter;" x="212.439877" xlink:href="#mae70b6397d" y="227.508745"/>
     <use style="fill:#d4002b;opacity:0.4;stroke:#d4002b;stroke-linejoin:miter;" x="229.991018" xlink:href="#mae70b6397d" y="222.385578"/>
     <use style="fill:#d4002b;opacity:0.4;stroke:#d4002b;stroke-linejoin:miter;" x="247.542158" xlink:href="#mae70b6397d" y="217.472804"/>
     <use style="fill:#d4002b;opacity:0.4;stroke:#d4002b;stroke-linejoin:miter;" x="265.093299" xlink:href="#mae70b6397d" y="212.574243"/>
     <use style="fill:#d4002b;opacity:0.4;stroke:#d4002b;stroke-linejoin:miter;" x="282.64444" xlink:href="#mae70b6397d" y="207.412685"/>
     <use style="fill:#d4002b;opacity:0.4;stroke:#d4002b;stroke-linejoin:miter;" x="300.19558" xlink:href="#mae70b6397d" y="202.931445"/>
    </g>
   </g>
   <g id="line2d_17">
    <path clip-path="url(#p304f53add3)" d="M 89.581893 262.766816 
L 93.969678 261.533051 
L 98.357464 260.299287 
L 102.745249 259.065522 
L 107.133034 257.831758 
L 111.520819 256.597994 
L 115.908604 255.364229 
L 120.296389 254.130465 
L 124.684174 252.8967 
L 129.07196 251.662936 
L 133.459745 250.429172 
L 137.84753 249.195407 
L 142.235315 247.961643 
L 146.6231 246.727878 
L 151.010885 245.494114 
L 155.39867 244.260349 
L 159.786456 243.026585 
L 164.174241 241.792821 
L 168.562026 240.559056 
L 172.949811 239.325292 
L 177.337596 238.091527 
L 181.725381 236.857763 
L 186.113166 235.623999 
L 190.500952 234.390234 
L 194.888737 233.15647 
L 199.276522 231.922705 
L 203.664307 230.688941 
L 208.052092 229.455176 
L 212.439877 228.221412 
L 216.827662 226.987648 
L 221.215448 225.753883 
L 225.603233 224.520119 
L 229.991018 223.286354 
L 234.378803 222.05259 
L 238.766588 220.818826 
L 243.154373 219.585061 
L 247.542158 218.351297 
L 251.929944 217.117532 
L 256.317729 215.883768 
L 260.705514 214.650004 
L 265.093299 213.416239 
L 269.481084 212.182475 
L 273.868869 210.94871 
L 278.256654 209.714946 
L 282.64444 208.481181 
L 287.032225 207.247417 
L 291.42001 206.013653 
L 295.807795 204.779888 
L 300.19558 203.546124 
L 304.583365 202.312359 
L 308.97115 201.078595 
" style="fill:none;stroke:#d4002b;stroke-linecap:square;stroke-width:1.5;"/>
   </g>
   <g id="line2d_18">
    <defs>
     <path d="M 0 -5 
L -4.330127 -2.5 
L -4.330127 2.5 
L -0 5 
L 4.330127 2.5 
L 4.330127 -2.5 
z
" id="mc5c6e18edc" style="stroke:#80007f;stroke-linejoin:miter;"/>
    </defs>
    <g clip-path="url(#p304f53add3)">
     <use style="fill:#80007f;opacity:0.4;stroke:#80007f;stroke-linejoin:miter;" x="89.581893" xlink:href="#mc5c6e18edc" y="262.766816"/>
     <use style="fill:#80007f;opacity:0.4;stroke:#80007f;stroke-linejoin:miter;" x="107.133034" xlink:href="#mc5c6e18edc" y="261.762287"/>
     <use style="fill:#80007f;opacity:0.4;stroke:#80007f;stroke-linejoin:miter;" x="124.684174" xlink:href="#mc5c6e18edc" y="260.736601"/>
     <use style="fill:#80007f;opacity:0.4;stroke:#80007f;stroke-linejoin:miter;" x="142.235315" xlink:href="#mc5c6e18edc" y="259.697703"/>
     <use style="fill:#80007f;opacity:0.4;stroke:#80007f;stroke-linejoin:miter;" x="159.786456" xlink:href="#mc5c6e18edc" y="258.616653"/>
     <use style="fill:#80007f;opacity:0.4;stroke:#80007f;stroke-linejoin:miter;" x="177.337596" xlink:href="#mc5c6e18edc" y="257.59154"/>
     <use style="fill:#80007f;opacity:0.4;stroke:#80007f;stroke-linejoin:miter;" x="194.888737" xlink:href="#mc5c6e18edc" y="256.531124"/>
     <use style="fill:#80007f;opacity:0.4;stroke:#80007f;stroke-linejoin:miter;" x="212.439877" xlink:href="#mc5c6e18edc" y="255.532924"/>
     <use style="fill:#80007f;opacity:0.4;stroke:#80007f;stroke-linejoin:miter;" x="229.991018" xlink:href="#mc5c6e18edc" y="254.516293"/>
     <use style="fill:#80007f;opacity:0.4;stroke:#80007f;stroke-linejoin:miter;" x="247.542158" xlink:href="#mc5c6e18edc" y="253.512346"/>
     <use style="fill:#80007f;opacity:0.4;stroke:#80007f;stroke-linejoin:miter;" x="265.093299" xlink:href="#mc5c6e18edc" y="252.469955"/>
     <use style="fill:#80007f;opacity:0.4;stroke:#80007f;stroke-linejoin:miter;" x="282.64444" xlink:href="#mc5c6e18edc" y="251.477942"/>
     <use style="fill:#80007f;opacity:0.4;stroke:#80007f;stroke-linejoin:miter;" x="300.19558" xlink:href="#mc5c6e18edc" y="250.514882"/>
    </g>
   </g>
   <g id="line2d_19">
    <path clip-path="url(#p304f53add3)" d="M 89.581893 262.766816 
L 93.969678 262.514384 
L 98.357464 262.261953 
L 102.745249 262.009521 
L 107.133034 261.75709 
L 111.520819 261.504659 
L 115.908604 261.252227 
L 120.296389 260.999796 
L 124.684174 260.747364 
L 129.07196 260.494933 
L 133.459745 260.242502 
L 137.84753 259.99007 
L 142.235315 259.737639 
L 146.6231 259.485207 
L 151.010885 259.232776 
L 155.39867 258.980344 
L 159.786456 258.727913 
L 164.174241 258.475482 
L 168.562026 258.22305 
L 172.949811 257.970619 
L 177.337596 257.718187 
L 181.725381 257.465756 
L 186.113166 257.213325 
L 190.500952 256.960893 
L 194.888737 256.708462 
L 199.276522 256.45603 
L 203.664307 256.203599 
L 208.052092 255.951168 
L 212.439877 255.698736 
L 216.827662 255.446305 
L 221.215448 255.193873 
L 225.603233 254.941442 
L 229.991018 254.68901 
L 234.378803 254.436579 
L 238.766588 254.184148 
L 243.154373 253.931716 
L 247.542158 253.679285 
L 251.929944 253.426853 
L 256.317729 253.174422 
L 260.705514 252.921991 
L 265.093299 252.669559 
L 269.481084 252.417128 
L 273.868869 252.164696 
L 278.256654 251.912265 
L 282.64444 251.659834 
L 287.032225 251.407402 
L 291.42001 251.154971 
L 295.807795 250.902539 
L 300.19558 250.650108 
L 304.583365 250.397676 
L 308.97115 250.145245 
" style="fill:none;stroke:#80007f;stroke-linecap:square;stroke-width:1.5;"/>
   </g>
   <g id="line2d_20">
    <defs>
     <path d="M -1.666667 5 
L 1.666667 5 
L 1.666667 1.666667 
L 5 1.666667 
L 5 -1.666667 
L 1.666667 -1.666667 
L 1.666667 -5 
L -1.666667 -5 
L -1.666667 -1.666667 
L -5 -1.666667 
L -5 1.666667 
L -1.666667 1.666667 
z
" id="m465d454394" style="stroke:#2a00d5;stroke-linejoin:miter;"/>
    </defs>
    <g clip-path="url(#p304f53add3)">
     <use style="fill:#2a00d5;opacity:0.4;stroke:#2a00d5;stroke-linejoin:miter;" x="89.581893" xlink:href="#m465d454394" y="262.766816"/>
     <use style="fill:#2a00d5;opacity:0.4;stroke:#2a00d5;stroke-linejoin:miter;" x="107.133034" xlink:href="#m465d454394" y="262.591488"/>
     <use style="fill:#2a00d5;opacity:0.4;stroke:#2a00d5;stroke-linejoin:miter;" x="124.684174" xlink:href="#m465d454394" y="262.419423"/>
     <use style="fill:#2a00d5;opacity:0.4;stroke:#2a00d5;stroke-linejoin:miter;" x="142.235315" xlink:href="#m465d454394" y="262.23623"/>
     <use style="fill:#2a00d5;opacity:0.4;stroke:#2a00d5;stroke-linejoin:miter;" x="159.786456" xlink:href="#m465d454394" y="262.066337"/>
     <use style="fill:#2a00d5;opacity:0.4;stroke:#2a00d5;stroke-linejoin:miter;" x="177.337596" xlink:href="#m465d454394" y="261.881663"/>
     <use style="fill:#2a00d5;opacity:0.4;stroke:#2a00d5;stroke-linejoin:miter;" x="194.888737" xlink:href="#m465d454394" y="261.683708"/>
     <use style="fill:#2a00d5;opacity:0.4;stroke:#2a00d5;stroke-linejoin:miter;" x="212.439877" xlink:href="#m465d454394" y="261.494359"/>
     <use style="fill:#2a00d5;opacity:0.4;stroke:#2a00d5;stroke-linejoin:miter;" x="229.991018" xlink:href="#m465d454394" y="261.329677"/>
     <use style="fill:#2a00d5;opacity:0.4;stroke:#2a00d5;stroke-linejoin:miter;" x="247.542158" xlink:href="#m465d454394" y="261.158485"/>
     <use style="fill:#2a00d5;opacity:0.4;stroke:#2a00d5;stroke-linejoin:miter;" x="265.093299" xlink:href="#m465d454394" y="260.967852"/>
     <use style="fill:#2a00d5;opacity:0.4;stroke:#2a00d5;stroke-linejoin:miter;" x="282.64444" xlink:href="#m465d454394" y="260.776182"/>
     <use style="fill:#2a00d5;opacity:0.4;stroke:#2a00d5;stroke-linejoin:miter;" x="300.19558" xlink:href="#m465d454394" y="260.587237"/>
    </g>
   </g>
   <g id="line2d_21">
    <path clip-path="url(#p304f53add3)" d="M 89.581893 262.766816 
L 93.969678 262.720377 
L 98.357464 262.673938 
L 102.745249 262.627499 
L 107.133034 262.58106 
L 111.520819 262.534621 
L 115.908604 262.488182 
L 120.296389 262.441743 
L 124.684174 262.395304 
L 129.07196 262.348865 
L 133.459745 262.302426 
L 137.84753 262.255987 
L 142.235315 262.209548 
L 146.6231 262.163109 
L 151.010885 262.11667 
L 155.39867 262.070231 
L 159.786456 262.023792 
L 164.174241 261.977353 
L 168.562026 261.930914 
L 172.949811 261.884475 
L 177.337596 261.838036 
L 181.725381 261.791597 
L 186.113166 261.745158 
L 190.500952 261.698719 
L 194.888737 261.65228 
L 199.276522 261.605841 
L 203.664307 261.559402 
L 208.052092 261.512963 
L 212.439877 261.466524 
L 216.827662 261.420085 
L 221.215448 261.373646 
L 225.603233 261.327207 
L 229.991018 261.280768 
L 234.378803 261.234329 
L 238.766588 261.18789 
L 243.154373 261.141451 
L 247.542158 261.095012 
L 251.929944 261.048573 
L 256.317729 261.002134 
L 260.705514 260.955695 
L 265.093299 260.909256 
L 269.481084 260.862817 
L 273.868869 260.816378 
L 278.256654 260.769939 
L 282.64444 260.7235 
L 287.032225 260.677061 
L 291.42001 260.630622 
L 295.807795 260.584183 
L 300.19558 260.537744 
L 304.583365 260.491305 
L 308.97115 260.444866 
" style="fill:none;stroke:#2a00d5;stroke-linecap:square;stroke-width:1.5;"/>
   </g>
   <g id="patch_3">
    <path d="M 78.61243 274.593393 
L 78.61243 14.408693 
" style="fill:none;stroke:#000000;stroke-linecap:square;stroke-linejoin:miter;stroke-width:0.8;"/>
   </g>
   <g id="patch_4">
    <path d="M 319.940613 274.593393 
L 319.940613 14.408693 
" style="fill:none;stroke:#000000;stroke-linecap:square;stroke-linejoin:miter;stroke-width:0.8;"/>
   </g>
   <g id="patch_5">
    <path d="M 78.61243 274.593393 
L 319.940613 274.593393 
" style="fill:none;stroke:#000000;stroke-linecap:square;stroke-linejoin:miter;stroke-width:0.8;"/>
   </g>
   <g id="patch_6">
    <path d="M 78.61243 14.408693 
L 319.940613 14.408693 
" style="fill:none;stroke:#000000;stroke-linecap:square;stroke-linejoin:miter;stroke-width:0.8;"/>
   </g>
   <g id="legend_1">
    <g id="patch_7">
     <path d="M 85.61243 108.531454 
L 181.985594 108.531454 
Q 183.985594 108.531454 183.985594 106.531454 
L 183.985594 21.408693 
Q 183.985594 19.408693 181.985594 19.408693 
L 85.61243 19.408693 
Q 83.61243 19.408693 83.61243 21.408693 
L 83.61243 106.531454 
Q 83.61243 108.531454 85.61243 108.531454 
z
" style="fill:#ffffff;opacity:0.8;stroke:#cccccc;stroke-linejoin:miter;"/>
    </g>
    <g id="line2d_22"/>
    <g id="line2d_23">
     <g>
      <use style="fill:#2ad500;opacity:0.4;stroke:#2ad500;stroke-linejoin:miter;" x="97.61243" xlink:href="#m7aab986cf1" y="27.1405"/>
     </g>
    </g>
    <g id="text_12">
     <!-- $\log_{10}{R}=-2.0$ -->
     <defs>
      <path d="M 15.296875 68.6875 
L 3.40625 67.59375 
L 3.40625 65 
C 9.296875 65 10.203125 64.40625 10.203125 59.640625 
L 10.203125 6.65625 
C 10.203125 2.875 9.796875 2.390625 3.40625 2.390625 
L 3.40625 -0.203125 
C 5.796875 0 10.203125 0 12.703125 0 
C 15.296875 0 19.703125 0 22.09375 -0.203125 
L 22.09375 2.390625 
C 15.703125 2.390625 15.296875 2.78125 15.296875 6.65625 
z
" id="CMR17-108"/>
      <path d="M 43.09375 21.1875 
C 43.09375 34 33.796875 44 22.90625 44 
C 12 44 2.703125 34 2.703125 21.1875 
C 2.703125 8.609375 12 -1 22.90625 -1 
C 33.796875 -1 43.09375 8.609375 43.09375 21.1875 
z
M 22.90625 0.796875 
C 18.203125 0.796875 14.203125 3.59375 11.90625 7.5 
C 9.40625 11.984375 9.09375 17.59375 9.09375 22 
C 9.09375 26.203125 9.296875 31.40625 11.90625 35.90625 
C 13.90625 39.203125 17.796875 42.40625 22.90625 42.40625 
C 27.40625 42.40625 31.203125 39.90625 33.59375 36.40625 
C 36.703125 31.703125 36.703125 25.109375 36.703125 22 
C 36.703125 18.09375 36.5 12.109375 33.796875 7.296875 
C 31 2.703125 26.703125 0.796875 22.90625 0.796875 
z
" id="CMR17-111"/>
      <path d="M 11.09375 18.1875 
C 13 16.6875 16.296875 15 20.296875 15 
C 28.203125 15 35 21.203125 35 29.5 
C 35 32.09375 34.203125 36.09375 31.203125 39.203125 
C 34 42.0625 38.09375 43 40.40625 43 
C 40.796875 43 41.40625 43 41.90625 42.71875 
C 41.5 42.625 40.59375 42.234375 40.59375 40.703125 
C 40.59375 39.484375 41.5 38.609375 42.796875 38.609375 
C 44.296875 38.609375 45.09375 39.578125 45.09375 40.84375 
C 45.09375 42.671875 43.59375 44.59375 40.40625 44.59375 
C 36.40625 44.59375 32.90625 42.78125 30.09375 40.3125 
C 27.09375 43.015625 23.5 44 20.296875 44 
C 12.40625 44 5.59375 37.796875 5.59375 29.5 
C 5.59375 23.78125 8.90625 20.1875 9.90625 19.1875 
C 6.90625 15.6875 6.90625 11.609375 6.90625 11.109375 
C 6.90625 8.515625 7.90625 4.71875 11.296875 2.625 
C 6.09375 1.328125 2 -2.640625 2 -7.59375 
C 2 -14.734375 11.5 -20 22.90625 -20 
C 33.90625 -20 43.796875 -14.9375 43.796875 -7.484375 
C 43.796875 6 29 6 21.296875 6 
C 19 6 14.90625 6 14.40625 6.109375 
C 11.296875 6.609375 9.203125 9.40625 9.203125 12.90625 
C 9.203125 13.796875 9.203125 16 11.09375 18.1875 
z
M 20.296875 16.6875 
C 11.5 16.6875 11.5 27.5 11.5 29.515625 
C 11.5 31.5 11.5 42.3125 20.296875 42.3125 
C 29.09375 42.3125 29.09375 31.5 29.09375 29.515625 
C 29.09375 27.5 29.09375 16.6875 20.296875 16.6875 
z
M 22.90625 -18.296875 
C 12.90625 -18.296875 6 -13.046875 6 -7.59375 
C 6 -4.515625 7.703125 -1.640625 9.90625 -0.0625 
C 12.40625 1.625 13.40625 1.625 20.203125 1.625 
C 28.40625 1.625 39.796875 1.625 39.796875 -7.59375 
C 39.796875 -13.046875 32.90625 -18.296875 22.90625 -18.296875 
z
" id="CMR17-103"/>
      <path d="M 36.796875 61.3125 
C 37.703125 65 38.09375 65 42 65 
L 49.203125 65 
C 57.796875 65 64.203125 62.421875 64.203125 54.671875 
C 64.203125 49.609375 61.59375 35 41.5 35 
L 30.203125 35 
z
M 50.703125 33.890625 
C 63.09375 36.578125 72.796875 44.546875 72.796875 53.09375 
C 72.796875 60.84375 64.90625 68 51 68 
L 23.90625 68 
C 21.90625 68 21 68 21 66.03125 
C 21 65 21.703125 65 23.59375 65 
C 29.59375 65 29.59375 64.25 29.59375 63.203125 
C 29.59375 63.015625 29.59375 62.40625 29.203125 60.921875 
L 15.703125 7.484375 
C 14.796875 4 14.59375 3 7.703125 3 
C 5.40625 3 4.703125 3 4.703125 1.109375 
C 4.703125 0.109375 5.796875 0.109375 6.09375 0.109375 
C 7.90625 0.109375 10 0.109375 11.90625 0.109375 
L 23.703125 0.109375 
C 25.5 0.109375 27.59375 0.109375 29.40625 0.109375 
C 30.203125 0.109375 31.296875 0.109375 31.296875 2 
C 31.296875 3 30.40625 3 28.90625 3 
C 22.796875 3 22.796875 3.796875 22.796875 4.78125 
C 22.796875 4.890625 22.796875 5.578125 23 6.359375 
L 29.703125 33 
L 41.703125 33 
C 51.203125 33 53 27.046875 53 23.78125 
C 53 22.296875 52 18.421875 51.296875 15.84375 
C 50.203125 11.296875 49.90625 10.1875 49.90625 8.3125 
C 49.90625 1.28125 55.703125 -2 62.40625 -2 
C 70.5 -2 74 7.828125 74 9.234375 
C 74 9.921875 73.5 10.21875 72.90625 10.21875 
C 72.09375 10.21875 71.90625 9.625 71.703125 8.828125 
C 69.296875 1.78125 65.203125 0 62.703125 0 
C 60.203125 0 58.59375 1.09375 58.59375 5.5625 
C 58.59375 7.953125 59.796875 17 59.90625 17.5 
C 60.40625 21.171875 60.40625 21.5625 60.40625 22.375 
C 60.40625 29.625 54.5 32.703125 50.703125 33.890625 
z
" id="CMMI12-82"/>
      <path d="M 64.296875 31.515625 
C 65.796875 31.515625 67.296875 31.515625 67.296875 33.203125 
C 67.296875 35 65.59375 35 63.90625 35 
L 8 35 
C 6.296875 35 4.59375 35 4.59375 33.203125 
C 4.59375 31.515625 6.09375 31.515625 7.59375 31.515625 
z
M 63.90625 14 
C 65.59375 14 67.296875 14 67.296875 15.796875 
C 67.296875 17.484375 65.796875 17.484375 64.296875 17.484375 
L 7.59375 17.484375 
C 6.09375 17.484375 4.59375 17.484375 4.59375 15.796875 
C 4.59375 14 6.296875 14 8 14 
z
" id="CMR17-61"/>
      <path d="M 65.90625 23 
C 67.59375 23 69.40625 23 69.40625 25 
C 69.40625 27 67.59375 27 65.90625 27 
L 11.796875 27 
C 10.09375 27 8.296875 27 8.296875 25 
C 8.296875 23 10.09375 23 11.796875 23 
z
" id="CMSY10-0"/>
     </defs>
     <g transform="translate(115.61243 30.6405)scale(0.1 -0.1)">
      <use transform="translate(0 22.865092)scale(0.996264)" xlink:href="#CMR17-108"/>
      <use transform="translate(24.871058 22.865092)scale(0.996264)" xlink:href="#CMR17-111"/>
      <use transform="translate(70.561536 22.865092)scale(0.996264)" xlink:href="#CMR17-103"/>
      <use transform="translate(117.553179 0)scale(0.697382)" xlink:href="#CMR17-49"/>
      <use transform="translate(149.536361 0)scale(0.697382)" xlink:href="#CMR17-48"/>
      <use transform="translate(198.62208 22.865092)scale(0.996264)" xlink:href="#CMMI12-82"/>
      <use transform="translate(301.367051 22.865092)scale(0.996264)" xlink:href="#CMR17-61"/>
      <use transform="translate(400.755848 22.865092)scale(0.996264)" xlink:href="#CMSY10-0"/>
      <use transform="translate(478.243315 22.865092)scale(0.996264)" xlink:href="#CMR17-50"/>
      <use transform="translate(523.933793 22.865092)scale(0.996264)" xlink:href="#CMMI12-58"/>
      <use transform="translate(551.03097 22.865092)scale(0.996264)" xlink:href="#CMR17-48"/>
     </g>
    </g>
    <g id="line2d_24"/>
    <g id="line2d_25">
     <g>
      <use style="fill:#7e8100;opacity:0.4;stroke:#7e8100;" x="97.61243" xlink:href="#m9b11c54f19" y="41.494294"/>
     </g>
    </g>
    <g id="text_13">
     <!-- $\log_{10}{R}=-1.2$ -->
     <g transform="translate(115.61243 44.994294)scale(0.1 -0.1)">
      <use transform="translate(0 22.865092)scale(0.996264)" xlink:href="#CMR17-108"/>
      <use transform="translate(24.871058 22.865092)scale(0.996264)" xlink:href="#CMR17-111"/>
      <use transform="translate(70.561536 22.865092)scale(0.996264)" xlink:href="#CMR17-103"/>
      <use transform="translate(117.553179 0)scale(0.697382)" xlink:href="#CMR17-49"/>
      <use transform="translate(149.536361 0)scale(0.697382)" xlink:href="#CMR17-48"/>
      <use transform="translate(198.62208 22.865092)scale(0.996264)" xlink:href="#CMMI12-82"/>
      <use transform="translate(301.367051 22.865092)scale(0.996264)" xlink:href="#CMR17-61"/>
      <use transform="translate(400.755848 22.865092)scale(0.996264)" xlink:href="#CMSY10-0"/>
      <use transform="translate(478.243315 22.865092)scale(0.996264)" xlink:href="#CMR17-49"/>
      <use transform="translate(523.933793 22.865092)scale(0.996264)" xlink:href="#CMMI12-58"/>
      <use transform="translate(551.03097 22.865092)scale(0.996264)" xlink:href="#CMR17-50"/>
     </g>
    </g>
    <g id="line2d_26"/>
    <g id="line2d_27">
     <g>
      <use style="fill:#d42b00;opacity:0.4;stroke:#d42b00;stroke-linejoin:miter;" x="97.61243" xlink:href="#mbdd77739f8" y="55.848087"/>
     </g>
    </g>
    <g id="text_14">
     <!-- $\log_{10}{R}=-0.4$ -->
     <g transform="translate(115.61243 59.348087)scale(0.1 -0.1)">
      <use transform="translate(0 22.865092)scale(0.996264)" xlink:href="#CMR17-108"/>
      <use transform="translate(24.871058 22.865092)scale(0.996264)" xlink:href="#CMR17-111"/>
      <use transform="translate(70.561536 22.865092)scale(0.996264)" xlink:href="#CMR17-103"/>
      <use transform="translate(117.553179 0)scale(0.697382)" xlink:href="#CMR17-49"/>
      <use transform="translate(149.536361 0)scale(0.697382)" xlink:href="#CMR17-48"/>
      <use transform="translate(198.62208 22.865092)scale(0.996264)" xlink:href="#CMMI12-82"/>
      <use transform="translate(301.367051 22.865092)scale(0.996264)" xlink:href="#CMR17-61"/>
      <use transform="translate(400.755848 22.865092)scale(0.996264)" xlink:href="#CMSY10-0"/>
      <use transform="translate(478.243315 22.865092)scale(0.996264)" xlink:href="#CMR17-48"/>
      <use transform="translate(523.933793 22.865092)scale(0.996264)" xlink:href="#CMMI12-58"/>
      <use transform="translate(551.03097 22.865092)scale(0.996264)" xlink:href="#CMR17-52"/>
     </g>
    </g>
    <g id="line2d_28"/>
    <g id="line2d_29">
     <g>
      <use style="fill:#d4002b;opacity:0.4;stroke:#d4002b;stroke-linejoin:miter;" x="97.61243" xlink:href="#mae70b6397d" y="70.201881"/>
     </g>
    </g>
    <g id="text_15">
     <!-- $\log_{10}{R}=0.4$ -->
     <g transform="translate(115.61243 73.701881)scale(0.1 -0.1)">
      <use transform="translate(0 22.865092)scale(0.996264)" xlink:href="#CMR17-108"/>
      <use transform="translate(24.871058 22.865092)scale(0.996264)" xlink:href="#CMR17-111"/>
      <use transform="translate(70.561536 22.865092)scale(0.996264)" xlink:href="#CMR17-103"/>
      <use transform="translate(117.553179 0)scale(0.697382)" xlink:href="#CMR17-49"/>
      <use transform="translate(149.536361 0)scale(0.697382)" xlink:href="#CMR17-48"/>
      <use transform="translate(198.62208 22.865092)scale(0.996264)" xlink:href="#CMMI12-82"/>
      <use transform="translate(301.367051 22.865092)scale(0.996264)" xlink:href="#CMR17-61"/>
      <use transform="translate(400.755848 22.865092)scale(0.996264)" xlink:href="#CMR17-48"/>
      <use transform="translate(446.446325 22.865092)scale(0.996264)" xlink:href="#CMMI12-58"/>
      <use transform="translate(473.543502 22.865092)scale(0.996264)" xlink:href="#CMR17-52"/>
     </g>
    </g>
    <g id="line2d_30"/>
    <g id="line2d_31">
     <g>
      <use style="fill:#80007f;opacity:0.4;stroke:#80007f;stroke-linejoin:miter;" x="97.61243" xlink:href="#mc5c6e18edc" y="84.555674"/>
     </g>
    </g>
    <g id="text_16">
     <!-- $\log_{10}{R}=1.2$ -->
     <g transform="translate(115.61243 88.055674)scale(0.1 -0.1)">
      <use transform="translate(0 22.865092)scale(0.996264)" xlink:href="#CMR17-108"/>
      <use transform="translate(24.871058 22.865092)scale(0.996264)" xlink:href="#CMR17-111"/>
      <use transform="translate(70.561536 22.865092)scale(0.996264)" xlink:href="#CMR17-103"/>
      <use transform="translate(117.553179 0)scale(0.697382)" xlink:href="#CMR17-49"/>
      <use transform="translate(149.536361 0)scale(0.697382)" xlink:href="#CMR17-48"/>
      <use transform="translate(198.62208 22.865092)scale(0.996264)" xlink:href="#CMMI12-82"/>
      <use transform="translate(301.367051 22.865092)scale(0.996264)" xlink:href="#CMR17-61"/>
      <use transform="translate(400.755848 22.865092)scale(0.996264)" xlink:href="#CMR17-49"/>
      <use transform="translate(446.446325 22.865092)scale(0.996264)" xlink:href="#CMMI12-58"/>
      <use transform="translate(473.543502 22.865092)scale(0.996264)" xlink:href="#CMR17-50"/>
     </g>
    </g>
    <g id="line2d_32"/>
    <g id="line2d_33">
     <g>
      <use style="fill:#2a00d5;opacity:0.4;stroke:#2a00d5;stroke-linejoin:miter;" x="97.61243" xlink:href="#m465d454394" y="98.909468"/>
     </g>
    </g>
    <g id="text_17">
     <!-- $\log_{10}{R}=2.0$ -->
     <g transform="translate(115.61243 102.409468)scale(0.1 -0.1)">
      <use transform="translate(0 22.865092)scale(0.996264)" xlink:href="#CMR17-108"/>
      <use transform="translate(24.871058 22.865092)scale(0.996264)" xlink:href="#CMR17-111"/>
      <use transform="translate(70.561536 22.865092)scale(0.996264)" xlink:href="#CMR17-103"/>
      <use transform="translate(117.553179 0)scale(0.697382)" xlink:href="#CMR17-49"/>
      <use transform="translate(149.536361 0)scale(0.697382)" xlink:href="#CMR17-48"/>
      <use transform="translate(198.62208 22.865092)scale(0.996264)" xlink:href="#CMMI12-82"/>
      <use transform="translate(301.367051 22.865092)scale(0.996264)" xlink:href="#CMR17-61"/>
      <use transform="translate(400.755848 22.865092)scale(0.996264)" xlink:href="#CMR17-50"/>
      <use transform="translate(446.446325 22.865092)scale(0.996264)" xlink:href="#CMMI12-58"/>
      <use transform="translate(473.543502 22.865092)scale(0.996264)" xlink:href="#CMR17-48"/>
     </g>
    </g>
   </g>
  </g>
 </g>
 <defs>
  <clipPath id="p304f53add3">
   <rect height="260.1847" width="241.328183" x="78.61243" y="14.408693"/>
  </clipPath>
 </defs>
</svg>
