<?xml version="1.0" encoding="utf-8" standalone="no"?>
<!DOCTYPE svg PUBLIC "-//W3C//DTD SVG 1.1//EN"
  "http://www.w3.org/Graphics/SVG/1.1/DTD/svg11.dtd">
<!-- Created with matplotlib (http://matplotlib.org/) -->
<svg height="330.640613pt" version="1.1" viewBox="0 0 331.2 330.640613" width="331.2pt" xmlns="http://www.w3.org/2000/svg" xmlns:xlink="http://www.w3.org/1999/xlink">
 <defs>
  <style type="text/css">
*{stroke-linecap:butt;stroke-linejoin:round;}
  </style>
 </defs>
 <g id="figure_1">
  <g id="patch_1">
   <path d="M 0 330.640613 
L 331.2 330.640613 
L 331.2 0 
L 0 0 
z
" style="fill:#ffffff;"/>
  </g>
  <g id="axes_1">
   <g id="patch_2">
    <path d="M 65.309913 298 
L 320.5 298 
L 320.5 10.7 
L 65.309913 10.7 
z
" style="fill:#ffffff;"/>
   </g>
   <g id="matplotlib.axis_1">
    <g id="xtick_1">
     <g id="line2d_1">
      <defs>
       <path d="M 0 0 
L 0 3.5 
" id="m2036dc1b91" style="stroke:#000000;stroke-width:0.8;"/>
      </defs>
      <g>
       <use style="stroke:#000000;stroke-width:0.8;" x="76.909462" xlink:href="#m2036dc1b91" y="298"/>
      </g>
     </g>
     <g id="text_1">
      <!-- $0$ -->
      <defs>
       <path d="M 42 31.640625 
C 42 37.75 41.90625 48.125 37.703125 56.109375 
C 34 63.109375 28.09375 65.59375 22.90625 65.59375 
C 18.09375 65.59375 12 63.40625 8.203125 56.203125 
C 4.203125 48.71875 3.796875 39.4375 3.796875 31.640625 
C 3.796875 25.953125 3.90625 17.28125 7 9.671875 
C 11.296875 -0.609375 19 -2 22.90625 -2 
C 27.5 -2 34.5 -0.109375 38.59375 9.375 
C 41.59375 16.28125 42 24.359375 42 31.640625 
z
M 22.90625 -0.40625 
C 16.5 -0.40625 12.703125 5.078125 11.296875 12.6875 
C 10.203125 18.5625 10.203125 27.15625 10.203125 32.75 
C 10.203125 40.4375 10.203125 46.828125 11.5 52.921875 
C 13.40625 61.390625 19 64 22.90625 64 
C 27 64 32.296875 61.296875 34.203125 53.125 
C 35.5 47.4375 35.59375 40.734375 35.59375 32.75 
C 35.59375 26.25 35.59375 18.265625 34.40625 12.375 
C 32.296875 1.484375 26.40625 -0.40625 22.90625 -0.40625 
z
" id="CMR17-48"/>
      </defs>
      <g transform="translate(72.340414 319.196641)scale(0.2 -0.2)">
       <use transform="scale(0.996264)" xlink:href="#CMR17-48"/>
      </g>
     </g>
    </g>
    <g id="xtick_2">
     <g id="line2d_2">
      <g>
       <use style="stroke:#000000;stroke-width:0.8;" x="169.705857" xlink:href="#m2036dc1b91" y="298"/>
      </g>
     </g>
     <g id="text_2">
      <!-- $200$ -->
      <defs>
       <path d="M 41.703125 15.453125 
L 39.90625 15.453125 
C 38.90625 8.375 38.09375 7.171875 37.703125 6.5625 
C 37.203125 5.765625 30 5.765625 28.59375 5.765625 
L 9.40625 5.765625 
C 13 9.671875 20 16.75 28.5 24.953125 
C 34.59375 30.734375 41.703125 37.53125 41.703125 47.421875 
C 41.703125 59.21875 32.296875 66 21.796875 66 
C 10.796875 66 4.09375 56.3125 4.09375 47.34375 
C 4.09375 43.4375 7 42.9375 8.203125 42.9375 
C 9.203125 42.9375 12.203125 43.546875 12.203125 47.03125 
C 12.203125 50.109375 9.59375 51 8.203125 51 
C 7.59375 51 7 50.90625 6.59375 50.703125 
C 8.5 59.21875 14.296875 63.40625 20.40625 63.40625 
C 29.09375 63.40625 34.796875 56.515625 34.796875 47.421875 
C 34.796875 38.734375 29.703125 31.25 24 24.75 
L 4.09375 2.28125 
L 4.09375 0 
L 39.296875 0 
z
" id="CMR17-50"/>
      </defs>
      <g transform="translate(155.998714 319.196641)scale(0.2 -0.2)">
       <use transform="scale(0.996264)" xlink:href="#CMR17-50"/>
       <use transform="translate(45.690477 0)scale(0.996264)" xlink:href="#CMR17-48"/>
       <use transform="translate(91.380954 0)scale(0.996264)" xlink:href="#CMR17-48"/>
      </g>
     </g>
    </g>
    <g id="xtick_3">
     <g id="line2d_3">
      <g>
       <use style="stroke:#000000;stroke-width:0.8;" x="262.502253" xlink:href="#m2036dc1b91" y="298"/>
      </g>
     </g>
     <g id="text_3">
      <!-- $400$ -->
      <defs>
       <path d="M 33.59375 64.40625 
C 33.59375 66.5 33.5 66.5 31.703125 66.5 
L 2 19.59375 
L 2 17 
L 27.796875 17 
L 27.796875 7.140625 
C 27.796875 3.5 27.59375 2.5 20.59375 2.5 
L 18.703125 2.5 
L 18.703125 0 
C 21.90625 0 27.296875 0 30.703125 0 
C 34.09375 0 39.5 0 42.703125 0 
L 42.703125 2.5 
L 40.796875 2.5 
C 33.796875 2.5 33.59375 3.5 33.59375 7.140625 
L 33.59375 17 
L 43.796875 17 
L 43.796875 19.59375 
L 33.59375 19.59375 
z
M 28.09375 57.859375 
L 28.09375 19.59375 
L 4 19.59375 
z
" id="CMR17-52"/>
      </defs>
      <g transform="translate(248.79511 319.196641)scale(0.2 -0.2)">
       <use transform="scale(0.996264)" xlink:href="#CMR17-52"/>
       <use transform="translate(45.690477 0)scale(0.996264)" xlink:href="#CMR17-48"/>
       <use transform="translate(91.380954 0)scale(0.996264)" xlink:href="#CMR17-48"/>
      </g>
     </g>
    </g>
   </g>
   <g id="matplotlib.axis_2">
    <g id="ytick_1">
     <g id="line2d_4">
      <defs>
       <path d="M 0 0 
L -3.5 0 
" id="m46753dcf12" style="stroke:#000000;stroke-width:0.8;"/>
      </defs>
      <g>
       <use style="stroke:#000000;stroke-width:0.8;" x="65.309913" xlink:href="#m46753dcf12" y="284.940909"/>
      </g>
     </g>
     <g id="text_4">
      <!-- $0.0000$ -->
      <defs>
       <path d="M 18.40625 4.796875 
C 18.40625 7.6875 16 9.671875 13.59375 9.671875 
C 10.703125 9.671875 8.703125 7.28125 8.703125 4.890625 
C 8.703125 2 11.09375 0 13.5 0 
C 16.40625 0 18.40625 2.390625 18.40625 4.796875 
z
" id="CMMI12-58"/>
      </defs>
      <g transform="translate(7.2 292.039229)scale(0.2 -0.2)">
       <use transform="scale(0.996264)" xlink:href="#CMR17-48"/>
       <use transform="translate(45.690477 0)scale(0.996264)" xlink:href="#CMMI12-58"/>
       <use transform="translate(72.787654 0)scale(0.996264)" xlink:href="#CMR17-48"/>
       <use transform="translate(118.478131 0)scale(0.996264)" xlink:href="#CMR17-48"/>
       <use transform="translate(164.168608 0)scale(0.996264)" xlink:href="#CMR17-48"/>
       <use transform="translate(209.859086 0)scale(0.996264)" xlink:href="#CMR17-48"/>
      </g>
     </g>
    </g>
    <g id="ytick_2">
     <g id="line2d_5">
      <g>
       <use style="stroke:#000000;stroke-width:0.8;" x="65.309913" xlink:href="#m46753dcf12" y="227.069679"/>
      </g>
     </g>
     <g id="text_5">
      <!-- $0.0005$ -->
      <defs>
       <path d="M 11.40625 57.6875 
C 12.40625 57.28125 16.5 56 20.703125 56 
C 30 56 35.09375 61.109375 38 64.0625 
C 38 64.953125 38 65.5 37.40625 65.5 
C 37.296875 65.5 37.09375 65.5 36.296875 65.046875 
C 32.796875 63.40625 28.703125 62.078125 23.703125 62.078125 
C 20.703125 62.078125 16.203125 62.484375 11.296875 64.671875 
C 10.203125 65.171875 10 65.171875 9.90625 65.171875 
C 9.40625 65.171875 9.296875 65.0625 9.296875 63.078125 
L 9.296875 34.421875 
C 9.296875 32.640625 9.296875 32.140625 10.296875 32.140625 
C 10.796875 32.140625 11 32.34375 11.5 33.03125 
C 14.703125 37.515625 19.09375 39.40625 24.09375 39.40625 
C 27.59375 39.40625 35.09375 37.21875 35.09375 20.140625 
C 35.09375 16.953125 35.09375 11.171875 32.09375 6.578125 
C 29.59375 2.484375 25.703125 0.390625 21.40625 0.390625 
C 14.796875 0.390625 8.09375 5 6.296875 12.71875 
C 6.703125 12.609375 7.5 12.421875 7.90625 12.421875 
C 9.203125 12.421875 11.703125 13.125 11.703125 16.21875 
C 11.703125 18.90625 9.796875 20 7.90625 20 
C 5.59375 20 4.09375 18.59375 4.09375 15.796875 
C 4.09375 7.09375 11 -2 21.59375 -2 
C 31.90625 -2 41.703125 6.875 41.703125 19.75 
C 41.703125 31.71875 33.90625 41 24.203125 41 
C 19.09375 41 14.796875 39.109375 11.40625 35.53125 
z
" id="CMR17-53"/>
      </defs>
      <g transform="translate(7.2 234.167999)scale(0.2 -0.2)">
       <use transform="scale(0.996264)" xlink:href="#CMR17-48"/>
       <use transform="translate(45.690477 0)scale(0.996264)" xlink:href="#CMMI12-58"/>
       <use transform="translate(72.787654 0)scale(0.996264)" xlink:href="#CMR17-48"/>
       <use transform="translate(118.478131 0)scale(0.996264)" xlink:href="#CMR17-48"/>
       <use transform="translate(164.168608 0)scale(0.996264)" xlink:href="#CMR17-48"/>
       <use transform="translate(209.859086 0)scale(0.996264)" xlink:href="#CMR17-53"/>
      </g>
     </g>
    </g>
    <g id="ytick_3">
     <g id="line2d_6">
      <g>
       <use style="stroke:#000000;stroke-width:0.8;" x="65.309913" xlink:href="#m46753dcf12" y="169.198449"/>
      </g>
     </g>
     <g id="text_6">
      <!-- $0.0010$ -->
      <defs>
       <path d="M 26.59375 63.40625 
C 26.59375 65.5 26.5 65.5 25.09375 65.5 
C 21.203125 61.1875 15.296875 59.796875 9.703125 59.796875 
C 9.40625 59.796875 8.90625 59.796875 8.796875 59.5 
C 8.703125 59.296875 8.703125 59.09375 8.703125 57 
C 11.796875 57 17 57.59375 21 59.984375 
L 21 7.203125 
C 21 3.6875 20.796875 2.5 12.203125 2.5 
L 9.203125 2.5 
L 9.203125 0 
C 14 0 19 0 23.796875 0 
C 28.59375 0 33.59375 0 38.40625 0 
L 38.40625 2.5 
L 35.40625 2.5 
C 26.796875 2.5 26.59375 3.59375 26.59375 7.15625 
z
" id="CMR17-49"/>
      </defs>
      <g transform="translate(7.2 176.296769)scale(0.2 -0.2)">
       <use transform="scale(0.996264)" xlink:href="#CMR17-48"/>
       <use transform="translate(45.690477 0)scale(0.996264)" xlink:href="#CMMI12-58"/>
       <use transform="translate(72.787654 0)scale(0.996264)" xlink:href="#CMR17-48"/>
       <use transform="translate(118.478131 0)scale(0.996264)" xlink:href="#CMR17-48"/>
       <use transform="translate(164.168608 0)scale(0.996264)" xlink:href="#CMR17-49"/>
       <use transform="translate(209.859086 0)scale(0.996264)" xlink:href="#CMR17-48"/>
      </g>
     </g>
    </g>
    <g id="ytick_4">
     <g id="line2d_7">
      <g>
       <use style="stroke:#000000;stroke-width:0.8;" x="65.309913" xlink:href="#m46753dcf12" y="111.327218"/>
      </g>
     </g>
     <g id="text_7">
      <!-- $0.0015$ -->
      <g transform="translate(7.2 118.425539)scale(0.2 -0.2)">
       <use transform="scale(0.996264)" xlink:href="#CMR17-48"/>
       <use transform="translate(45.690477 0)scale(0.996264)" xlink:href="#CMMI12-58"/>
       <use transform="translate(72.787654 0)scale(0.996264)" xlink:href="#CMR17-48"/>
       <use transform="translate(118.478131 0)scale(0.996264)" xlink:href="#CMR17-48"/>
       <use transform="translate(164.168608 0)scale(0.996264)" xlink:href="#CMR17-49"/>
       <use transform="translate(209.859086 0)scale(0.996264)" xlink:href="#CMR17-53"/>
      </g>
     </g>
    </g>
    <g id="ytick_5">
     <g id="line2d_8">
      <g>
       <use style="stroke:#000000;stroke-width:0.8;" x="65.309913" xlink:href="#m46753dcf12" y="53.455988"/>
      </g>
     </g>
     <g id="text_8">
      <!-- $0.0020$ -->
      <g transform="translate(7.2 60.554308)scale(0.2 -0.2)">
       <use transform="scale(0.996264)" xlink:href="#CMR17-48"/>
       <use transform="translate(45.690477 0)scale(0.996264)" xlink:href="#CMMI12-58"/>
       <use transform="translate(72.787654 0)scale(0.996264)" xlink:href="#CMR17-48"/>
       <use transform="translate(118.478131 0)scale(0.996264)" xlink:href="#CMR17-48"/>
       <use transform="translate(164.168608 0)scale(0.996264)" xlink:href="#CMR17-50"/>
       <use transform="translate(209.859086 0)scale(0.996264)" xlink:href="#CMR17-48"/>
      </g>
     </g>
    </g>
   </g>
   <g id="line2d_9">
    <defs>
     <path d="M -0 7.071068 
L 4.242641 0 
L -0 -7.071068 
L -4.242641 -0 
z
" id="mf8410656a7" style="stroke:#2ad500;stroke-linejoin:miter;"/>
    </defs>
    <g clip-path="url(#pbd6e6bfdc1)">
     <use style="fill:#2ad500;opacity:0.4;stroke:#2ad500;stroke-linejoin:miter;" x="76.909462" xlink:href="#mf8410656a7" y="284.940909"/>
     <use style="fill:#2ad500;opacity:0.4;stroke:#2ad500;stroke-linejoin:miter;" x="95.468741" xlink:href="#mf8410656a7" y="264.426983"/>
     <use style="fill:#2ad500;opacity:0.4;stroke:#2ad500;stroke-linejoin:miter;" x="114.02802" xlink:href="#mf8410656a7" y="244.158582"/>
     <use style="fill:#2ad500;opacity:0.4;stroke:#2ad500;stroke-linejoin:miter;" x="132.587299" xlink:href="#mf8410656a7" y="223.344897"/>
     <use style="fill:#2ad500;opacity:0.4;stroke:#2ad500;stroke-linejoin:miter;" x="151.146578" xlink:href="#mf8410656a7" y="201.60029"/>
     <use style="fill:#2ad500;opacity:0.4;stroke:#2ad500;stroke-linejoin:miter;" x="169.705857" xlink:href="#mf8410656a7" y="181.99495"/>
     <use style="fill:#2ad500;opacity:0.4;stroke:#2ad500;stroke-linejoin:miter;" x="188.265136" xlink:href="#mf8410656a7" y="159.127322"/>
     <use style="fill:#2ad500;opacity:0.4;stroke:#2ad500;stroke-linejoin:miter;" x="206.824416" xlink:href="#mf8410656a7" y="139.280617"/>
     <use style="fill:#2ad500;opacity:0.4;stroke:#2ad500;stroke-linejoin:miter;" x="225.383695" xlink:href="#mf8410656a7" y="117.348643"/>
     <use style="fill:#2ad500;opacity:0.4;stroke:#2ad500;stroke-linejoin:miter;" x="243.942974" xlink:href="#mf8410656a7" y="95.792702"/>
     <use style="fill:#2ad500;opacity:0.4;stroke:#2ad500;stroke-linejoin:miter;" x="262.502253" xlink:href="#mf8410656a7" y="71.985126"/>
     <use style="fill:#2ad500;opacity:0.4;stroke:#2ad500;stroke-linejoin:miter;" x="281.061532" xlink:href="#mf8410656a7" y="50.363042"/>
     <use style="fill:#2ad500;opacity:0.4;stroke:#2ad500;stroke-linejoin:miter;" x="299.620811" xlink:href="#mf8410656a7" y="27.998606"/>
    </g>
   </g>
   <g id="line2d_10">
    <path clip-path="url(#pbd6e6bfdc1)" d="M 76.909462 284.940909 
L 81.549282 279.941463 
L 86.189102 274.942017 
L 90.828921 269.942571 
L 95.468741 264.943125 
L 100.108561 259.943679 
L 104.748381 254.944233 
L 109.3882 249.944787 
L 114.02802 244.945341 
L 118.66784 239.945895 
L 123.30766 234.946449 
L 127.947479 229.947004 
L 132.587299 224.947558 
L 137.227119 219.948112 
L 141.866939 214.948666 
L 146.506759 209.94922 
L 151.146578 204.949774 
L 155.786398 199.950328 
L 160.426218 194.950882 
L 165.066038 189.951436 
L 169.705857 184.95199 
L 174.345677 179.952544 
L 178.985497 174.953098 
L 183.625317 169.953652 
L 188.265136 164.954206 
L 192.904956 159.95476 
L 197.544776 154.955314 
L 202.184596 149.955868 
L 206.824416 144.956422 
L 211.464235 139.956976 
L 216.104055 134.95753 
L 220.743875 129.958084 
L 225.383695 124.958638 
L 230.023514 119.959192 
L 234.663334 114.959746 
L 239.303154 109.9603 
L 243.942974 104.960854 
L 248.582794 99.961409 
L 253.222613 94.961963 
L 257.862433 89.962517 
L 262.502253 84.963071 
L 267.142073 79.963625 
L 271.781892 74.964179 
L 276.421712 69.964733 
L 281.061532 64.965287 
L 285.701352 59.965841 
L 290.341171 54.966395 
L 294.980991 49.966949 
L 299.620811 44.967503 
L 304.260631 39.968057 
L 308.900451 34.968611 
" style="fill:none;stroke:#2ad500;stroke-linecap:square;stroke-width:1.5;"/>
   </g>
   <g id="line2d_11">
    <defs>
     <path d="M 0 5 
C 1.326016 5 2.597899 4.473168 3.535534 3.535534 
C 4.473168 2.597899 5 1.326016 5 0 
C 5 -1.326016 4.473168 -2.597899 3.535534 -3.535534 
C 2.597899 -4.473168 1.326016 -5 0 -5 
C -1.326016 -5 -2.597899 -4.473168 -3.535534 -3.535534 
C -4.473168 -2.597899 -5 -1.326016 -5 0 
C -5 1.326016 -4.473168 2.597899 -3.535534 3.535534 
C -2.597899 4.473168 -1.326016 5 0 5 
z
" id="md2db74c5a2" style="stroke:#7e8100;"/>
    </defs>
    <g clip-path="url(#pbd6e6bfdc1)">
     <use style="fill:#7e8100;opacity:0.4;stroke:#7e8100;" x="76.909462" xlink:href="#md2db74c5a2" y="284.940909"/>
     <use style="fill:#7e8100;opacity:0.4;stroke:#7e8100;" x="95.468741" xlink:href="#md2db74c5a2" y="264.886691"/>
     <use style="fill:#7e8100;opacity:0.4;stroke:#7e8100;" x="114.02802" xlink:href="#md2db74c5a2" y="243.357364"/>
     <use style="fill:#7e8100;opacity:0.4;stroke:#7e8100;" x="132.587299" xlink:href="#md2db74c5a2" y="221.590265"/>
     <use style="fill:#7e8100;opacity:0.4;stroke:#7e8100;" x="151.146578" xlink:href="#md2db74c5a2" y="200.138634"/>
     <use style="fill:#7e8100;opacity:0.4;stroke:#7e8100;" x="169.705857" xlink:href="#md2db74c5a2" y="178.021205"/>
     <use style="fill:#7e8100;opacity:0.4;stroke:#7e8100;" x="188.265136" xlink:href="#md2db74c5a2" y="156.95068"/>
     <use style="fill:#7e8100;opacity:0.4;stroke:#7e8100;" x="206.824416" xlink:href="#md2db74c5a2" y="136.039685"/>
     <use style="fill:#7e8100;opacity:0.4;stroke:#7e8100;" x="225.383695" xlink:href="#md2db74c5a2" y="114.557659"/>
     <use style="fill:#7e8100;opacity:0.4;stroke:#7e8100;" x="243.942974" xlink:href="#md2db74c5a2" y="94.774236"/>
     <use style="fill:#7e8100;opacity:0.4;stroke:#7e8100;" x="262.502253" xlink:href="#md2db74c5a2" y="73.245408"/>
     <use style="fill:#7e8100;opacity:0.4;stroke:#7e8100;" x="281.061532" xlink:href="#md2db74c5a2" y="51.353182"/>
     <use style="fill:#7e8100;opacity:0.4;stroke:#7e8100;" x="299.620811" xlink:href="#md2db74c5a2" y="30.253806"/>
    </g>
   </g>
   <g id="line2d_12">
    <path clip-path="url(#pbd6e6bfdc1)" d="M 76.909462 284.940909 
L 81.549282 279.764235 
L 86.189102 274.587561 
L 90.828921 269.410887 
L 95.468741 264.234213 
L 100.108561 259.057538 
L 104.748381 253.880864 
L 109.3882 248.70419 
L 114.02802 243.527516 
L 118.66784 238.350842 
L 123.30766 233.174168 
L 127.947479 227.997494 
L 132.587299 222.820819 
L 137.227119 217.644145 
L 141.866939 212.467471 
L 146.506759 207.290797 
L 151.146578 202.114123 
L 155.786398 196.937449 
L 160.426218 191.760775 
L 165.066038 186.5841 
L 169.705857 181.407426 
L 174.345677 176.230752 
L 178.985497 171.054078 
L 183.625317 165.877404 
L 188.265136 160.70073 
L 192.904956 155.524056 
L 197.544776 150.347381 
L 202.184596 145.170707 
L 206.824416 139.994033 
L 211.464235 134.817359 
L 216.104055 129.640685 
L 220.743875 124.464011 
L 225.383695 119.287337 
L 230.023514 114.110662 
L 234.663334 108.933988 
L 239.303154 103.757314 
L 243.942974 98.58064 
L 248.582794 93.403966 
L 253.222613 88.227292 
L 257.862433 83.050618 
L 262.502253 77.873943 
L 267.142073 72.697269 
L 271.781892 67.520595 
L 276.421712 62.343921 
L 281.061532 57.167247 
L 285.701352 51.990573 
L 290.341171 46.813899 
L 294.980991 41.637225 
L 299.620811 36.46055 
L 304.260631 31.283876 
L 308.900451 26.107202 
" style="fill:none;stroke:#7e8100;stroke-linecap:square;stroke-width:1.5;"/>
   </g>
   <g id="line2d_13">
    <defs>
     <path d="M -5 5 
L 5 5 
L 5 -5 
L -5 -5 
z
" id="mb1d7d84cb9" style="stroke:#d42b00;stroke-linejoin:miter;"/>
    </defs>
    <g clip-path="url(#pbd6e6bfdc1)">
     <use style="fill:#d42b00;opacity:0.4;stroke:#d42b00;stroke-linejoin:miter;" x="76.909462" xlink:href="#mb1d7d84cb9" y="284.940909"/>
     <use style="fill:#d42b00;opacity:0.4;stroke:#d42b00;stroke-linejoin:miter;" x="95.468741" xlink:href="#mb1d7d84cb9" y="264.234259"/>
     <use style="fill:#d42b00;opacity:0.4;stroke:#d42b00;stroke-linejoin:miter;" x="114.02802" xlink:href="#mb1d7d84cb9" y="242.679447"/>
     <use style="fill:#d42b00;opacity:0.4;stroke:#d42b00;stroke-linejoin:miter;" x="132.587299" xlink:href="#mb1d7d84cb9" y="221.700209"/>
     <use style="fill:#d42b00;opacity:0.4;stroke:#d42b00;stroke-linejoin:miter;" x="151.146578" xlink:href="#mb1d7d84cb9" y="199.856154"/>
     <use style="fill:#d42b00;opacity:0.4;stroke:#d42b00;stroke-linejoin:miter;" x="169.705857" xlink:href="#mb1d7d84cb9" y="178.301501"/>
     <use style="fill:#d42b00;opacity:0.4;stroke:#d42b00;stroke-linejoin:miter;" x="188.265136" xlink:href="#mb1d7d84cb9" y="157.658826"/>
     <use style="fill:#d42b00;opacity:0.4;stroke:#d42b00;stroke-linejoin:miter;" x="206.824416" xlink:href="#mb1d7d84cb9" y="136.088122"/>
     <use style="fill:#d42b00;opacity:0.4;stroke:#d42b00;stroke-linejoin:miter;" x="225.383695" xlink:href="#mb1d7d84cb9" y="116.357037"/>
     <use style="fill:#d42b00;opacity:0.4;stroke:#d42b00;stroke-linejoin:miter;" x="243.942974" xlink:href="#mb1d7d84cb9" y="95.13483"/>
     <use style="fill:#d42b00;opacity:0.4;stroke:#d42b00;stroke-linejoin:miter;" x="262.502253" xlink:href="#mb1d7d84cb9" y="74.475716"/>
     <use style="fill:#d42b00;opacity:0.4;stroke:#d42b00;stroke-linejoin:miter;" x="281.061532" xlink:href="#mb1d7d84cb9" y="53.344053"/>
     <use style="fill:#d42b00;opacity:0.4;stroke:#d42b00;stroke-linejoin:miter;" x="299.620811" xlink:href="#mb1d7d84cb9" y="32.418498"/>
    </g>
   </g>
   <g id="line2d_14">
    <path clip-path="url(#pbd6e6bfdc1)" d="M 76.909462 284.940909 
L 81.549282 279.717273 
L 86.189102 274.493636 
L 90.828921 269.27 
L 95.468741 264.046364 
L 100.108561 258.822727 
L 104.748381 253.599091 
L 109.3882 248.375455 
L 114.02802 243.151818 
L 118.66784 237.928182 
L 123.30766 232.704545 
L 127.947479 227.480909 
L 132.587299 222.257273 
L 137.227119 217.033636 
L 141.866939 211.81 
L 146.506759 206.586364 
L 151.146578 201.362727 
L 155.786398 196.139091 
L 160.426218 190.915455 
L 165.066038 185.691818 
L 169.705857 180.468182 
L 174.345677 175.244545 
L 178.985497 170.020909 
L 183.625317 164.797273 
L 188.265136 159.573636 
L 192.904956 154.35 
L 197.544776 149.126364 
L 202.184596 143.902727 
L 206.824416 138.679091 
L 211.464235 133.455455 
L 216.104055 128.231818 
L 220.743875 123.008182 
L 225.383695 117.784545 
L 230.023514 112.560909 
L 234.663334 107.337273 
L 239.303154 102.113636 
L 243.942974 96.89 
L 248.582794 91.666364 
L 253.222613 86.442727 
L 257.862433 81.219091 
L 262.502253 75.995455 
L 267.142073 70.771818 
L 271.781892 65.548182 
L 276.421712 60.324545 
L 281.061532 55.100909 
L 285.701352 49.877273 
L 290.341171 44.653636 
L 294.980991 39.43 
L 299.620811 34.206364 
L 304.260631 28.982727 
L 308.900451 23.759091 
" style="fill:none;stroke:#d42b00;stroke-linecap:square;stroke-width:1.5;"/>
   </g>
   <g id="line2d_15">
    <defs>
     <path d="M 0 -5 
L -5 5 
L 5 5 
z
" id="mf61800d3d9" style="stroke:#d4002b;stroke-linejoin:miter;"/>
    </defs>
    <g clip-path="url(#pbd6e6bfdc1)">
     <use style="fill:#d4002b;opacity:0.4;stroke:#d4002b;stroke-linejoin:miter;" x="76.909462" xlink:href="#mf61800d3d9" y="284.940909"/>
     <use style="fill:#d4002b;opacity:0.4;stroke:#d4002b;stroke-linejoin:miter;" x="95.468741" xlink:href="#mf61800d3d9" y="263.371927"/>
     <use style="fill:#d4002b;opacity:0.4;stroke:#d4002b;stroke-linejoin:miter;" x="114.02802" xlink:href="#mf61800d3d9" y="242.075499"/>
     <use style="fill:#d4002b;opacity:0.4;stroke:#d4002b;stroke-linejoin:miter;" x="132.587299" xlink:href="#mf61800d3d9" y="222.337263"/>
     <use style="fill:#d4002b;opacity:0.4;stroke:#d4002b;stroke-linejoin:miter;" x="151.146578" xlink:href="#mf61800d3d9" y="201.660365"/>
     <use style="fill:#d4002b;opacity:0.4;stroke:#d4002b;stroke-linejoin:miter;" x="169.705857" xlink:href="#mf61800d3d9" y="180.952618"/>
     <use style="fill:#d4002b;opacity:0.4;stroke:#d4002b;stroke-linejoin:miter;" x="188.265136" xlink:href="#mf61800d3d9" y="160.164636"/>
     <use style="fill:#d4002b;opacity:0.4;stroke:#d4002b;stroke-linejoin:miter;" x="206.824416" xlink:href="#mf61800d3d9" y="139.796007"/>
     <use style="fill:#d4002b;opacity:0.4;stroke:#d4002b;stroke-linejoin:miter;" x="225.383695" xlink:href="#mf61800d3d9" y="116.036717"/>
     <use style="fill:#d4002b;opacity:0.4;stroke:#d4002b;stroke-linejoin:miter;" x="243.942974" xlink:href="#mf61800d3d9" y="94.365249"/>
     <use style="fill:#d4002b;opacity:0.4;stroke:#d4002b;stroke-linejoin:miter;" x="262.502253" xlink:href="#mf61800d3d9" y="74.486122"/>
     <use style="fill:#d4002b;opacity:0.4;stroke:#d4002b;stroke-linejoin:miter;" x="281.061532" xlink:href="#mf61800d3d9" y="53.316813"/>
     <use style="fill:#d4002b;opacity:0.4;stroke:#d4002b;stroke-linejoin:miter;" x="299.620811" xlink:href="#mf61800d3d9" y="31.453293"/>
    </g>
   </g>
   <g id="line2d_16">
    <path clip-path="url(#pbd6e6bfdc1)" d="M 76.909462 284.940909 
L 81.549282 279.719512 
L 86.189102 274.498115 
L 90.828921 269.276718 
L 95.468741 264.055321 
L 100.108561 258.833924 
L 104.748381 253.612527 
L 109.3882 248.39113 
L 114.02802 243.169733 
L 118.66784 237.948336 
L 123.30766 232.726939 
L 127.947479 227.505542 
L 132.587299 222.284145 
L 137.227119 217.062748 
L 141.866939 211.841351 
L 146.506759 206.619954 
L 151.146578 201.398557 
L 155.786398 196.17716 
L 160.426218 190.955763 
L 165.066038 185.734366 
L 169.705857 180.512969 
L 174.345677 175.291572 
L 178.985497 170.070174 
L 183.625317 164.848777 
L 188.265136 159.62738 
L 192.904956 154.405983 
L 197.544776 149.184586 
L 202.184596 143.963189 
L 206.824416 138.741792 
L 211.464235 133.520395 
L 216.104055 128.298998 
L 220.743875 123.077601 
L 225.383695 117.856204 
L 230.023514 112.634807 
L 234.663334 107.41341 
L 239.303154 102.192013 
L 243.942974 96.970616 
L 248.582794 91.749219 
L 253.222613 86.527822 
L 257.862433 81.306425 
L 262.502253 76.085028 
L 267.142073 70.863631 
L 271.781892 65.642234 
L 276.421712 60.420837 
L 281.061532 55.19944 
L 285.701352 49.978043 
L 290.341171 44.756646 
L 294.980991 39.535249 
L 299.620811 34.313852 
L 304.260631 29.092455 
L 308.900451 23.871058 
" style="fill:none;stroke:#d4002b;stroke-linecap:square;stroke-width:1.5;"/>
   </g>
   <g id="line2d_17">
    <defs>
     <path d="M 0 -5 
L -4.330127 -2.5 
L -4.330127 2.5 
L -0 5 
L 4.330127 2.5 
L 4.330127 -2.5 
z
" id="m7244cb7fdc" style="stroke:#80007f;stroke-linejoin:miter;"/>
    </defs>
    <g clip-path="url(#pbd6e6bfdc1)">
     <use style="fill:#80007f;opacity:0.4;stroke:#80007f;stroke-linejoin:miter;" x="76.909462" xlink:href="#m7244cb7fdc" y="284.940909"/>
     <use style="fill:#80007f;opacity:0.4;stroke:#80007f;stroke-linejoin:miter;" x="95.468741" xlink:href="#m7244cb7fdc" y="263.832094"/>
     <use style="fill:#80007f;opacity:0.4;stroke:#80007f;stroke-linejoin:miter;" x="114.02802" xlink:href="#m7244cb7fdc" y="242.122074"/>
     <use style="fill:#80007f;opacity:0.4;stroke:#80007f;stroke-linejoin:miter;" x="132.587299" xlink:href="#m7244cb7fdc" y="220.581388"/>
     <use style="fill:#80007f;opacity:0.4;stroke:#80007f;stroke-linejoin:miter;" x="151.146578" xlink:href="#m7244cb7fdc" y="200.484069"/>
     <use style="fill:#80007f;opacity:0.4;stroke:#80007f;stroke-linejoin:miter;" x="169.705857" xlink:href="#m7244cb7fdc" y="180.540271"/>
     <use style="fill:#80007f;opacity:0.4;stroke:#80007f;stroke-linejoin:miter;" x="188.265136" xlink:href="#m7244cb7fdc" y="160.003585"/>
     <use style="fill:#80007f;opacity:0.4;stroke:#80007f;stroke-linejoin:miter;" x="206.824416" xlink:href="#m7244cb7fdc" y="139.038212"/>
     <use style="fill:#80007f;opacity:0.4;stroke:#80007f;stroke-linejoin:miter;" x="225.383695" xlink:href="#m7244cb7fdc" y="117.958409"/>
     <use style="fill:#80007f;opacity:0.4;stroke:#80007f;stroke-linejoin:miter;" x="243.942974" xlink:href="#m7244cb7fdc" y="99.044024"/>
     <use style="fill:#80007f;opacity:0.4;stroke:#80007f;stroke-linejoin:miter;" x="262.502253" xlink:href="#m7244cb7fdc" y="76.88998"/>
     <use style="fill:#80007f;opacity:0.4;stroke:#80007f;stroke-linejoin:miter;" x="281.061532" xlink:href="#m7244cb7fdc" y="55.740952"/>
     <use style="fill:#80007f;opacity:0.4;stroke:#80007f;stroke-linejoin:miter;" x="299.620811" xlink:href="#m7244cb7fdc" y="32.90109"/>
    </g>
   </g>
   <g id="line2d_18">
    <path clip-path="url(#pbd6e6bfdc1)" d="M 76.909462 284.940909 
L 81.549282 279.719512 
L 86.189102 274.498115 
L 90.828921 269.276718 
L 95.468741 264.055321 
L 100.108561 258.833924 
L 104.748381 253.612527 
L 109.3882 248.39113 
L 114.02802 243.169733 
L 118.66784 237.948336 
L 123.30766 232.726939 
L 127.947479 227.505542 
L 132.587299 222.284145 
L 137.227119 217.062748 
L 141.866939 211.841351 
L 146.506759 206.619954 
L 151.146578 201.398557 
L 155.786398 196.17716 
L 160.426218 190.955763 
L 165.066038 185.734366 
L 169.705857 180.512969 
L 174.345677 175.291572 
L 178.985497 170.070174 
L 183.625317 164.848777 
L 188.265136 159.62738 
L 192.904956 154.405983 
L 197.544776 149.184586 
L 202.184596 143.963189 
L 206.824416 138.741792 
L 211.464235 133.520395 
L 216.104055 128.298998 
L 220.743875 123.077601 
L 225.383695 117.856204 
L 230.023514 112.634807 
L 234.663334 107.41341 
L 239.303154 102.192013 
L 243.942974 96.970616 
L 248.582794 91.749219 
L 253.222613 86.527822 
L 257.862433 81.306425 
L 262.502253 76.085028 
L 267.142073 70.863631 
L 271.781892 65.642234 
L 276.421712 60.420837 
L 281.061532 55.19944 
L 285.701352 49.978043 
L 290.341171 44.756646 
L 294.980991 39.535249 
L 299.620811 34.313852 
L 304.260631 29.092455 
L 308.900451 23.871058 
" style="fill:none;stroke:#80007f;stroke-linecap:square;stroke-width:1.5;"/>
   </g>
   <g id="line2d_19">
    <defs>
     <path d="M -1.666667 5 
L 1.666667 5 
L 1.666667 1.666667 
L 5 1.666667 
L 5 -1.666667 
L 1.666667 -1.666667 
L 1.666667 -5 
L -1.666667 -5 
L -1.666667 -1.666667 
L -5 -1.666667 
L -5 1.666667 
L -1.666667 1.666667 
z
" id="m86c082445f" style="stroke:#2a00d5;stroke-linejoin:miter;"/>
    </defs>
    <g clip-path="url(#pbd6e6bfdc1)">
     <use style="fill:#2a00d5;opacity:0.4;stroke:#2a00d5;stroke-linejoin:miter;" x="76.909462" xlink:href="#m86c082445f" y="284.940909"/>
     <use style="fill:#2a00d5;opacity:0.4;stroke:#2a00d5;stroke-linejoin:miter;" x="95.468741" xlink:href="#m86c082445f" y="263.200958"/>
     <use style="fill:#2a00d5;opacity:0.4;stroke:#2a00d5;stroke-linejoin:miter;" x="114.02802" xlink:href="#m86c082445f" y="242.421513"/>
     <use style="fill:#2a00d5;opacity:0.4;stroke:#2a00d5;stroke-linejoin:miter;" x="132.587299" xlink:href="#m86c082445f" y="221.708877"/>
     <use style="fill:#2a00d5;opacity:0.4;stroke:#2a00d5;stroke-linejoin:miter;" x="151.146578" xlink:href="#m86c082445f" y="201.900553"/>
     <use style="fill:#2a00d5;opacity:0.4;stroke:#2a00d5;stroke-linejoin:miter;" x="169.705857" xlink:href="#m86c082445f" y="179.137129"/>
     <use style="fill:#2a00d5;opacity:0.4;stroke:#2a00d5;stroke-linejoin:miter;" x="188.265136" xlink:href="#m86c082445f" y="156.25187"/>
     <use style="fill:#2a00d5;opacity:0.4;stroke:#2a00d5;stroke-linejoin:miter;" x="206.824416" xlink:href="#m86c082445f" y="133.927613"/>
     <use style="fill:#2a00d5;opacity:0.4;stroke:#2a00d5;stroke-linejoin:miter;" x="225.383695" xlink:href="#m86c082445f" y="111.915514"/>
     <use style="fill:#2a00d5;opacity:0.4;stroke:#2a00d5;stroke-linejoin:miter;" x="243.942974" xlink:href="#m86c082445f" y="89.000868"/>
     <use style="fill:#2a00d5;opacity:0.4;stroke:#2a00d5;stroke-linejoin:miter;" x="262.502253" xlink:href="#m86c082445f" y="68.114146"/>
     <use style="fill:#2a00d5;opacity:0.4;stroke:#2a00d5;stroke-linejoin:miter;" x="281.061532" xlink:href="#m86c082445f" y="48.899892"/>
     <use style="fill:#2a00d5;opacity:0.4;stroke:#2a00d5;stroke-linejoin:miter;" x="299.620811" xlink:href="#m86c082445f" y="26.189662"/>
    </g>
   </g>
   <g id="line2d_20">
    <path clip-path="url(#pbd6e6bfdc1)" d="M 76.909462 284.940909 
L 81.549282 279.719512 
L 86.189102 274.498115 
L 90.828921 269.276718 
L 95.468741 264.055321 
L 100.108561 258.833924 
L 104.748381 253.612527 
L 109.3882 248.39113 
L 114.02802 243.169733 
L 118.66784 237.948336 
L 123.30766 232.726939 
L 127.947479 227.505542 
L 132.587299 222.284145 
L 137.227119 217.062748 
L 141.866939 211.841351 
L 146.506759 206.619954 
L 151.146578 201.398557 
L 155.786398 196.17716 
L 160.426218 190.955763 
L 165.066038 185.734366 
L 169.705857 180.512969 
L 174.345677 175.291572 
L 178.985497 170.070174 
L 183.625317 164.848777 
L 188.265136 159.62738 
L 192.904956 154.405983 
L 197.544776 149.184586 
L 202.184596 143.963189 
L 206.824416 138.741792 
L 211.464235 133.520395 
L 216.104055 128.298998 
L 220.743875 123.077601 
L 225.383695 117.856204 
L 230.023514 112.634807 
L 234.663334 107.41341 
L 239.303154 102.192013 
L 243.942974 96.970616 
L 248.582794 91.749219 
L 253.222613 86.527822 
L 257.862433 81.306425 
L 262.502253 76.085028 
L 267.142073 70.863631 
L 271.781892 65.642234 
L 276.421712 60.420837 
L 281.061532 55.19944 
L 285.701352 49.978043 
L 290.341171 44.756646 
L 294.980991 39.535249 
L 299.620811 34.313852 
L 304.260631 29.092455 
L 308.900451 23.871058 
" style="fill:none;stroke:#2a00d5;stroke-linecap:square;stroke-width:1.5;"/>
   </g>
   <g id="patch_3">
    <path d="M 65.309913 298 
L 65.309913 10.7 
" style="fill:none;stroke:#000000;stroke-linecap:square;stroke-linejoin:miter;stroke-width:0.8;"/>
   </g>
   <g id="patch_4">
    <path d="M 320.5 298 
L 320.5 10.7 
" style="fill:none;stroke:#000000;stroke-linecap:square;stroke-linejoin:miter;stroke-width:0.8;"/>
   </g>
   <g id="patch_5">
    <path d="M 65.309913 298 
L 320.5 298 
" style="fill:none;stroke:#000000;stroke-linecap:square;stroke-linejoin:miter;stroke-width:0.8;"/>
   </g>
   <g id="patch_6">
    <path d="M 65.309913 10.7 
L 320.5 10.7 
" style="fill:none;stroke:#000000;stroke-linecap:square;stroke-linejoin:miter;stroke-width:0.8;"/>
   </g>
  </g>
 </g>
 <defs>
  <clipPath id="pbd6e6bfdc1">
   <rect height="287.3" width="255.190087" x="65.309913" y="10.7"/>
  </clipPath>
 </defs>
</svg>
