<?xml version="1.0" encoding="utf-8" standalone="no"?>
<!DOCTYPE svg PUBLIC "-//W3C//DTD SVG 1.1//EN"
  "http://www.w3.org/Graphics/SVG/1.1/DTD/svg11.dtd">
<!-- Created with matplotlib (http://matplotlib.org/) -->
<svg height="330.449961pt" version="1.1" viewBox="0 0 330.640613 330.449961" width="330.640613pt" xmlns="http://www.w3.org/2000/svg" xmlns:xlink="http://www.w3.org/1999/xlink">
 <defs>
  <style type="text/css">
*{stroke-linecap:butt;stroke-linejoin:round;}
  </style>
 </defs>
 <g id="figure_1">
  <g id="patch_1">
   <path d="M 0 330.449961 
L 330.640613 330.449961 
L 330.640613 0 
L 0 0 
z
" style="fill:#ffffff;"/>
  </g>
  <g id="axes_1">
   <g id="patch_2">
    <path d="M 97.571288 275 
L 319.940613 275 
L 319.940613 10.7 
L 97.571288 10.7 
z
" style="fill:#ffffff;"/>
   </g>
   <g id="matplotlib.axis_1">
    <g id="xtick_1">
     <g id="line2d_1">
      <defs>
       <path d="M 0 0 
L 0 3.5 
" id="m446f09f494" style="stroke:#000000;stroke-width:0.8;"/>
      </defs>
      <g>
       <use style="stroke:#000000;stroke-width:0.8;" x="107.678984" xlink:href="#m446f09f494" y="275"/>
      </g>
     </g>
     <g id="text_1">
      <!-- 0 -->
      <defs>
       <path d="M 27.5 71 
C 20.90625 71 14.90625 68.125 11.203125 63.21875 
C 6.59375 57.046875 4.296875 47.5625 4.296875 34.5 
C 4.296875 10.671875 12.296875 -2 27.5 -2 
C 42.5 -2 50.703125 10.671875 50.703125 33.90625 
C 50.703125 47.65625 48.5 56.84375 43.796875 63.21875 
C 40.09375 68.21875 34.203125 71 27.5 71 
z
M 27.5 63.1875 
C 37 63.1875 41.703125 53.625 41.703125 34.703125 
C 41.703125 14.671875 37.09375 5.3125 27.296875 5.3125 
C 18 5.3125 13.296875 15.078125 13.296875 34.40625 
C 13.296875 53.71875 18 63.1875 27.5 63.1875 
z
" id="Nimbus_Sans_L_Regular-48"/>
      </defs>
      <g transform="translate(102.13982 296.196641)scale(0.2 -0.2)">
       <use transform="scale(0.996264)" xlink:href="#Nimbus_Sans_L_Regular-48"/>
      </g>
     </g>
    </g>
    <g id="xtick_2">
     <g id="line2d_2">
      <g>
       <use style="stroke:#000000;stroke-width:0.8;" x="188.540557" xlink:href="#m446f09f494" y="275"/>
      </g>
     </g>
     <g id="text_2">
      <!-- 200 -->
      <defs>
       <path d="M 50.59375 8.71875 
L 13.296875 8.71875 
C 14.203125 14.53125 17.40625 18.234375 26.09375 23.34375 
L 36.09375 28.75 
C 46 34.15625 51.09375 41.453125 51.09375 50.171875 
C 51.09375 56.078125 48.703125 61.59375 44.5 65.390625 
C 40.296875 69.203125 35.09375 71 28.40625 71 
C 19.40625 71 12.703125 67.796875 8.796875 61.796875 
C 6.296875 57.984375 5.203125 53.578125 5 46.359375 
L 13.796875 46.359375 
C 14.09375 51.171875 14.703125 54.078125 15.90625 56.375 
C 18.203125 60.6875 22.796875 63.296875 28.09375 63.296875 
C 36.09375 63.296875 42.09375 57.578125 42.09375 49.96875 
C 42.09375 44.359375 38.796875 39.546875 32.5 35.953125 
L 23.296875 30.75 
C 8.5 22.34375 4.203125 15.625 3.40625 0 
L 50.59375 0 
z
" id="Nimbus_Sans_L_Regular-50"/>
      </defs>
      <g transform="translate(171.923063 296.196641)scale(0.2 -0.2)">
       <use transform="scale(0.996264)" xlink:href="#Nimbus_Sans_L_Regular-50"/>
       <use transform="translate(55.391677 0)scale(0.996264)" xlink:href="#Nimbus_Sans_L_Regular-48"/>
       <use transform="translate(110.783354 0)scale(0.996264)" xlink:href="#Nimbus_Sans_L_Regular-48"/>
      </g>
     </g>
    </g>
    <g id="xtick_3">
     <g id="line2d_3">
      <g>
       <use style="stroke:#000000;stroke-width:0.8;" x="269.40213" xlink:href="#m446f09f494" y="275"/>
      </g>
     </g>
     <g id="text_3">
      <!-- 400 -->
      <defs>
       <path d="M 32.703125 17 
L 32.703125 0 
L 41.5 0 
L 41.5 17 
L 52 17 
L 52 24.90625 
L 41.5 24.90625 
L 41.5 71.015625 
L 35 71.015625 
L 2.796875 26.3125 
L 2.796875 17 
z
M 32.703125 24.90625 
L 10.5 24.90625 
L 32.703125 55.984375 
z
" id="Nimbus_Sans_L_Regular-52"/>
      </defs>
      <g transform="translate(252.784636 296.196641)scale(0.2 -0.2)">
       <use transform="scale(0.996264)" xlink:href="#Nimbus_Sans_L_Regular-52"/>
       <use transform="translate(55.391677 0)scale(0.996264)" xlink:href="#Nimbus_Sans_L_Regular-48"/>
       <use transform="translate(110.783354 0)scale(0.996264)" xlink:href="#Nimbus_Sans_L_Regular-48"/>
      </g>
     </g>
    </g>
    <g id="text_4">
     <!-- Time (days) -->
     <defs>
      <path d="M 35.40625 64.78125 
L 59.296875 64.78125 
L 59.296875 73 
L 2.09375 73 
L 2.09375 64.78125 
L 26.09375 64.78125 
L 26.09375 -0.21875 
L 35.40625 -0.21875 
z
" id="Nimbus_Sans_L_Regular-84"/>
      <path d="M 15 52.484375 
L 6.703125 52.484375 
L 6.703125 0 
L 15 0 
z
M 15 73 
L 6.59375 73 
L 6.59375 62.484375 
L 15 62.484375 
z
" id="Nimbus_Sans_L_Regular-105"/>
      <path d="M 7 52.484375 
L 7 0 
L 15.40625 0 
L 15.40625 32.953125 
C 15.40625 40.578125 20.90625 46.6875 27.703125 46.6875 
C 33.90625 46.6875 37.40625 42.875 37.40625 36.15625 
L 37.40625 0 
L 45.796875 0 
L 45.796875 32.953125 
C 45.796875 40.578125 51.296875 46.6875 58.09375 46.6875 
C 64.203125 46.6875 67.796875 42.78125 67.796875 36.15625 
L 67.796875 0 
L 76.203125 0 
L 76.203125 39.375 
C 76.203125 48.78125 70.796875 54 61 54 
C 54 54 49.796875 51.890625 44.90625 45.984375 
C 41.796875 51.59375 37.59375 54 30.796875 54 
C 23.796875 54 19.203125 51.390625 14.703125 45.078125 
L 14.703125 52.484375 
z
" id="Nimbus_Sans_L_Regular-109"/>
      <path d="M 51.296875 23.890625 
C 51.296875 31.78125 50.703125 36.53125 49.203125 40.375 
C 45.796875 48.859375 37.796875 54 28 54 
C 13.40625 54 4 42.84375 4 25.703125 
C 4 8.546875 13.09375 -2 27.796875 -2 
C 39.796875 -2 48.09375 4.84375 50.203125 16.3125 
L 41.796875 16.3125 
C 39.5 9.34375 34.796875 5.703125 28.09375 5.703125 
C 22.796875 5.703125 18.296875 8.125 15.5 12.578125 
C 13.5 15.59375 12.796875 18.640625 12.703125 23.890625 
z
M 12.90625 31 
C 13.59375 40.265625 19.5 46.28125 27.90625 46.28125 
C 36.09375 46.28125 42.40625 39.53125 42.40625 31 
C 42.40625 31 42.40625 31 42.296875 31 
z
" id="Nimbus_Sans_L_Regular-101"/>
      <path d="M 23.59375 73 
C 13.59375 59.84375 7.296875 41.5625 7.296875 25.796875 
C 7.296875 9.9375 13.59375 -8.34375 23.59375 -21.5 
L 29.09375 -21.5 
C 20.296875 -7.140625 15.40625 9.734375 15.40625 25.796875 
C 15.40625 41.765625 20.296875 58.734375 29.09375 73 
z
" id="Nimbus_Sans_L_Regular-40"/>
      <path d="M 49.5 73 
L 41.203125 73 
L 41.203125 45.890625 
C 37.703125 51.1875 32.09375 54 25.09375 54 
C 11.5 54 2.59375 43.140625 2.59375 26.484375 
C 2.59375 8.84375 11.296875 -2 25.40625 -2 
C 32.59375 -2 37.59375 0.703125 42.09375 7.203125 
L 42.09375 -0.03125 
L 49.5 -0.03125 
z
M 26.5 46.1875 
C 35.5 46.1875 41.203125 38.234375 41.203125 25.796875 
C 41.203125 13.765625 35.40625 5.8125 26.59375 5.8125 
C 17.40625 5.8125 11.296875 13.859375 11.296875 26 
C 11.296875 38.125 17.40625 46.1875 26.5 46.1875 
z
" id="Nimbus_Sans_L_Regular-100"/>
      <path d="M 53.5 5.203125 
C 52.59375 5 52.203125 5 51.703125 5 
C 48.796875 5 47.203125 6.484375 47.203125 9.078125 
L 47.203125 39.765625 
C 47.203125 49.015625 40.40625 54 27.5 54 
C 19.90625 54 13.59375 51.8125 10.09375 47.90625 
C 7.703125 45.203125 6.703125 42.21875 6.5 37.03125 
L 14.90625 37.03125 
C 15.59375 43.390625 19.40625 46.28125 27.203125 46.28125 
C 34.703125 46.28125 38.90625 43.484375 38.90625 38.515625 
L 38.90625 36.328125 
C 38.90625 32.828125 36.796875 31.34375 30.203125 30.546875 
C 18.40625 29.0625 16.59375 28.65625 13.40625 27.359375 
C 7.296875 24.875 4.203125 20.1875 4.203125 13.421875 
C 4.203125 3.96875 10.796875 -2 21.40625 -2 
C 28 -2 33.296875 0.296875 39.203125 5.703125 
C 39.796875 0.390625 42.40625 -2 47.796875 -2 
C 49.5 -2 50.796875 -1.8125 53.5 -1.09375 
z
M 38.90625 16.75 
C 38.90625 13.953125 38.09375 12.265625 35.59375 9.984375 
C 32.203125 6.890625 28.09375 5.3125 23.203125 5.3125 
C 16.703125 5.3125 12.90625 8.390625 12.90625 13.65625 
C 12.90625 19.140625 16.59375 21.921875 25.5 23.21875 
C 34.296875 24.40625 36.09375 24.8125 38.90625 26.09375 
z
" id="Nimbus_Sans_L_Regular-97"/>
      <path d="M 38.796875 52.5 
L 24.296875 11.53125 
L 10.90625 52.5 
L 2 52.5 
L 19.703125 -0.328125 
L 16.5 -8.65625 
C 15.203125 -12.375 13.296875 -13.78125 9.796875 -13.78125 
C 8.59375 -13.78125 7.203125 -13.578125 5.40625 -13.171875 
L 5.40625 -20.703125 
C 7.09375 -21.59375 8.796875 -22 11 -22 
C 13.703125 -22 16.59375 -21.09375 18.796875 -19.484375 
C 21.40625 -17.578125 22.90625 -15.359375 24.5 -11.140625 
L 47.796875 52.5 
z
" id="Nimbus_Sans_L_Regular-121"/>
      <path d="M 43.796875 37.921875 
C 43.703125 48.203125 36.90625 54 24.796875 54 
C 12.59375 54 4.703125 47.71875 4.703125 38.0625 
C 4.703125 29.890625 8.90625 26.015625 21.296875 23.03125 
L 29.09375 21.140625 
C 34.90625 19.734375 37.203125 17.65625 37.203125 13.875 
C 37.203125 9 32.296875 5.703125 25 5.703125 
C 20.5 5.703125 16.703125 7 14.59375 9.1875 
C 13.296875 10.6875 12.703125 12.171875 12.203125 15.84375 
L 3.40625 15.84375 
C 3.796875 3.765625 10.59375 -2 24.296875 -2 
C 37.5 -2 45.90625 4.453125 45.90625 14.515625 
C 45.90625 22.28125 41.5 26.578125 31.09375 29.0625 
L 23.09375 30.953125 
C 16.296875 32.53125 13.40625 34.734375 13.40625 38.40625 
C 13.40625 43.1875 17.703125 46.28125 24.5 46.28125 
C 31.203125 46.28125 34.796875 43.390625 35 37.921875 
z
" id="Nimbus_Sans_L_Regular-115"/>
      <path d="M 9.296875 -21.5 
C 19.296875 -8.34375 25.59375 9.9375 25.59375 25.6875 
C 25.59375 41.5625 19.296875 59.84375 9.296875 73 
L 3.796875 73 
C 12.59375 58.640625 17.5 41.765625 17.5 25.6875 
C 17.5 9.734375 12.59375 -7.25 3.796875 -21.5 
z
" id="Nimbus_Sans_L_Regular-41"/>
     </defs>
     <g transform="translate(156.472392 319.005988)scale(0.2 -0.2)">
      <use transform="scale(0.996264)" xlink:href="#Nimbus_Sans_L_Regular-84"/>
      <use transform="translate(60.871631 0)scale(0.996264)" xlink:href="#Nimbus_Sans_L_Regular-105"/>
      <use transform="translate(82.988415 0)scale(0.996264)" xlink:href="#Nimbus_Sans_L_Regular-109"/>
      <use transform="translate(165.976845 0)scale(0.996264)" xlink:href="#Nimbus_Sans_L_Regular-101"/>
      <use transform="translate(249.063692 0)scale(0.996264)" xlink:href="#Nimbus_Sans_L_Regular-40"/>
      <use transform="translate(282.238922 0)scale(0.996264)" xlink:href="#Nimbus_Sans_L_Regular-100"/>
      <use transform="translate(337.630599 0)scale(0.996264)" xlink:href="#Nimbus_Sans_L_Regular-97"/>
      <use transform="translate(390.034168 0)scale(0.996264)" xlink:href="#Nimbus_Sans_L_Regular-121"/>
      <use transform="translate(439.847368 0)scale(0.996264)" xlink:href="#Nimbus_Sans_L_Regular-115"/>
      <use transform="translate(489.660569 0)scale(0.996264)" xlink:href="#Nimbus_Sans_L_Regular-41"/>
     </g>
    </g>
   </g>
   <g id="matplotlib.axis_2">
    <g id="ytick_1">
     <g id="line2d_4">
      <defs>
       <path d="M 0 0 
L -3.5 0 
" id="mcce752e7bf" style="stroke:#000000;stroke-width:0.8;"/>
      </defs>
      <g>
       <use style="stroke:#000000;stroke-width:0.8;" x="97.571288" xlink:href="#mcce752e7bf" y="262.986364"/>
      </g>
     </g>
     <g id="text_5">
      <!-- 0.0000 -->
      <defs>
       <path d="M 19.09375 10.421875 
L 8.703125 10.421875 
L 8.703125 0 
L 19.09375 0 
z
" id="Nimbus_Sans_L_Regular-46"/>
      </defs>
      <g transform="translate(29.640613 270.084684)scale(0.2 -0.2)">
       <use transform="scale(0.996264)" xlink:href="#Nimbus_Sans_L_Regular-48"/>
       <use transform="translate(55.391677 0)scale(0.996264)" xlink:href="#Nimbus_Sans_L_Regular-46"/>
       <use transform="translate(83.086847 0)scale(0.996264)" xlink:href="#Nimbus_Sans_L_Regular-48"/>
       <use transform="translate(138.478524 0)scale(0.996264)" xlink:href="#Nimbus_Sans_L_Regular-48"/>
       <use transform="translate(193.8702 0)scale(0.996264)" xlink:href="#Nimbus_Sans_L_Regular-48"/>
       <use transform="translate(249.261877 0)scale(0.996264)" xlink:href="#Nimbus_Sans_L_Regular-48"/>
      </g>
     </g>
    </g>
    <g id="ytick_2">
     <g id="line2d_5">
      <g>
       <use style="stroke:#000000;stroke-width:0.8;" x="97.571288" xlink:href="#mcce752e7bf" y="209.748055"/>
      </g>
     </g>
     <g id="text_6">
      <!-- 0.0005 -->
      <defs>
       <path d="M 47.59375 71 
L 11 71 
L 5.703125 32.59375 
L 13.796875 32.59375 
C 17.90625 37.484375 21.296875 39.1875 26.796875 39.1875 
C 36.296875 39.1875 42.296875 32.6875 42.296875 22.203125 
C 42.296875 12 36.40625 5.8125 26.796875 5.8125 
C 19.09375 5.8125 14.40625 9.703125 12.296875 17.703125 
L 3.5 17.703125 
C 4.703125 11.90625 5.703125 9.09375 7.796875 6.484375 
C 11.796875 1.09375 19 -2 27 -2 
C 41.296875 -2 51.296875 8.390625 51.296875 23.390625 
C 51.296875 37.40625 42 47 28.40625 47 
C 23.40625 47 19.40625 45.703125 15.296875 42.6875 
L 18.09375 62.296875 
L 47.59375 62.296875 
z
" id="Nimbus_Sans_L_Regular-53"/>
      </defs>
      <g transform="translate(29.640613 216.846375)scale(0.2 -0.2)">
       <use transform="scale(0.996264)" xlink:href="#Nimbus_Sans_L_Regular-48"/>
       <use transform="translate(55.391677 0)scale(0.996264)" xlink:href="#Nimbus_Sans_L_Regular-46"/>
       <use transform="translate(83.086847 0)scale(0.996264)" xlink:href="#Nimbus_Sans_L_Regular-48"/>
       <use transform="translate(138.478524 0)scale(0.996264)" xlink:href="#Nimbus_Sans_L_Regular-48"/>
       <use transform="translate(193.8702 0)scale(0.996264)" xlink:href="#Nimbus_Sans_L_Regular-48"/>
       <use transform="translate(249.261877 0)scale(0.996264)" xlink:href="#Nimbus_Sans_L_Regular-53"/>
      </g>
     </g>
    </g>
    <g id="ytick_3">
     <g id="line2d_6">
      <g>
       <use style="stroke:#000000;stroke-width:0.8;" x="97.571288" xlink:href="#mcce752e7bf" y="156.509746"/>
      </g>
     </g>
     <g id="text_7">
      <!-- 0.0010 -->
      <defs>
       <path d="M 25.90625 50.59375 
L 25.90625 0 
L 34.703125 0 
L 34.703125 71.015625 
L 28.90625 71.015625 
C 25.796875 60.109375 23.796875 58.609375 10.203125 56.90625 
L 10.203125 50.59375 
z
" id="Nimbus_Sans_L_Regular-49"/>
      </defs>
      <g transform="translate(29.640613 163.608066)scale(0.2 -0.2)">
       <use transform="scale(0.996264)" xlink:href="#Nimbus_Sans_L_Regular-48"/>
       <use transform="translate(55.391677 0)scale(0.996264)" xlink:href="#Nimbus_Sans_L_Regular-46"/>
       <use transform="translate(83.086847 0)scale(0.996264)" xlink:href="#Nimbus_Sans_L_Regular-48"/>
       <use transform="translate(138.478524 0)scale(0.996264)" xlink:href="#Nimbus_Sans_L_Regular-48"/>
       <use transform="translate(193.8702 0)scale(0.996264)" xlink:href="#Nimbus_Sans_L_Regular-49"/>
       <use transform="translate(249.261877 0)scale(0.996264)" xlink:href="#Nimbus_Sans_L_Regular-48"/>
      </g>
     </g>
    </g>
    <g id="ytick_4">
     <g id="line2d_7">
      <g>
       <use style="stroke:#000000;stroke-width:0.8;" x="97.571288" xlink:href="#mcce752e7bf" y="103.271437"/>
      </g>
     </g>
     <g id="text_8">
      <!-- 0.0015 -->
      <g transform="translate(29.640613 110.369757)scale(0.2 -0.2)">
       <use transform="scale(0.996264)" xlink:href="#Nimbus_Sans_L_Regular-48"/>
       <use transform="translate(55.391677 0)scale(0.996264)" xlink:href="#Nimbus_Sans_L_Regular-46"/>
       <use transform="translate(83.086847 0)scale(0.996264)" xlink:href="#Nimbus_Sans_L_Regular-48"/>
       <use transform="translate(138.478524 0)scale(0.996264)" xlink:href="#Nimbus_Sans_L_Regular-48"/>
       <use transform="translate(193.8702 0)scale(0.996264)" xlink:href="#Nimbus_Sans_L_Regular-49"/>
       <use transform="translate(249.261877 0)scale(0.996264)" xlink:href="#Nimbus_Sans_L_Regular-53"/>
      </g>
     </g>
    </g>
    <g id="ytick_5">
     <g id="line2d_8">
      <g>
       <use style="stroke:#000000;stroke-width:0.8;" x="97.571288" xlink:href="#mcce752e7bf" y="50.033128"/>
      </g>
     </g>
     <g id="text_9">
      <!-- 0.0020 -->
      <g transform="translate(29.640613 57.131448)scale(0.2 -0.2)">
       <use transform="scale(0.996264)" xlink:href="#Nimbus_Sans_L_Regular-48"/>
       <use transform="translate(55.391677 0)scale(0.996264)" xlink:href="#Nimbus_Sans_L_Regular-46"/>
       <use transform="translate(83.086847 0)scale(0.996264)" xlink:href="#Nimbus_Sans_L_Regular-48"/>
       <use transform="translate(138.478524 0)scale(0.996264)" xlink:href="#Nimbus_Sans_L_Regular-48"/>
       <use transform="translate(193.8702 0)scale(0.996264)" xlink:href="#Nimbus_Sans_L_Regular-50"/>
       <use transform="translate(249.261877 0)scale(0.996264)" xlink:href="#Nimbus_Sans_L_Regular-48"/>
      </g>
     </g>
    </g>
    <g id="text_10">
     <!-- Heteroplasmy variance -->
     <defs>
      <path d="M 55.09375 33 
L 55.09375 -0.03125 
L 64.40625 -0.03125 
L 64.40625 73 
L 55.09375 73 
L 55.09375 41.21875 
L 17.59375 41.21875 
L 17.59375 73 
L 8.296875 73 
L 8.296875 -0.03125 
L 17.703125 -0.03125 
L 17.703125 33 
z
" id="Nimbus_Sans_L_Regular-72"/>
      <path d="M 25.40625 52.8125 
L 16.796875 52.8125 
L 16.796875 67 
L 8.5 67 
L 8.5 52.8125 
L 1.40625 52.8125 
L 1.40625 46 
L 8.5 46 
L 8.5 6.3125 
C 8.5 1 12.09375 -2 18.59375 -2 
C 20.59375 -2 22.59375 -1.8125 25.40625 -1.296875 
L 25.40625 5.71875 
C 24.296875 5.40625 23 5.3125 21.40625 5.3125 
C 17.796875 5.3125 16.796875 6.3125 16.796875 10.015625 
L 16.796875 46 
L 25.40625 46 
z
" id="Nimbus_Sans_L_Regular-116"/>
      <path d="M 6.90625 52.484375 
L 6.90625 0 
L 15.296875 0 
L 15.296875 27.203125 
C 15.296875 34.703125 17.203125 39.609375 21.203125 42.5 
C 23.796875 44.40625 26.296875 45 32.09375 45 
L 32.09375 53.625 
C 30.703125 53.8125 30 53.8125 28.90625 53.8125 
C 23.5 53.8125 19.40625 50.625 14.59375 42.90625 
L 14.59375 52.484375 
z
" id="Nimbus_Sans_L_Regular-114"/>
      <path d="M 27.203125 54 
C 12.5 54 3.59375 43.53125 3.59375 25.984375 
C 3.59375 8.453125 12.40625 -2 27.296875 -2 
C 42 -2 51 8.453125 51 25.59375 
C 51 43.625 42.296875 54 27.203125 54 
z
M 27.296875 46.28125 
C 36.703125 46.28125 42.296875 38.625 42.296875 25.703125 
C 42.296875 13.453125 36.5 5.703125 27.296875 5.703125 
C 18 5.703125 12.296875 13.359375 12.296875 25.984375 
C 12.296875 38.53125 18 46.28125 27.296875 46.28125 
z
" id="Nimbus_Sans_L_Regular-111"/>
      <path d="M 5.40625 -22 
L 13.796875 -22 
L 13.796875 5 
C 18.203125 -0.421875 23.09375 -2.8125 29.90625 -2.8125 
C 43.40625 -2.8125 52.296875 8.15625 52.296875 24.984375 
C 52.296875 42.71875 43.703125 53.8125 29.796875 53.8125 
C 22.703125 53.8125 17 50.59375 13.09375 44.390625 
L 13.09375 52.328125 
L 5.40625 52.328125 
z
M 28.40625 46 
C 37.59375 46 43.59375 37.8125 43.59375 25.1875 
C 43.59375 13.171875 37.5 5 28.40625 5 
C 19.59375 5 13.796875 13.078125 13.796875 25.5 
C 13.796875 37.921875 19.59375 46 28.40625 46 
z
" id="Nimbus_Sans_L_Regular-112"/>
      <path d="M 15.203125 73 
L 6.796875 73 
L 6.796875 -0.03125 
L 15.203125 -0.03125 
z
" id="Nimbus_Sans_L_Regular-108"/>
      <path d="M 28.5 0 
L 48.59375 52.5 
L 39.203125 52.5 
L 24.40625 9.921875 
L 10.40625 52.5 
L 1 52.5 
L 19.40625 0 
z
" id="Nimbus_Sans_L_Regular-118"/>
      <path d="M 7 52.484375 
L 7 0 
L 15.40625 0 
L 15.40625 28.953125 
C 15.40625 39.671875 21 46.6875 29.59375 46.6875 
C 36.203125 46.6875 40.40625 42.671875 40.40625 36.359375 
L 40.40625 0 
L 48.703125 0 
L 48.703125 39.671875 
C 48.703125 48.390625 42.203125 54 32.09375 54 
C 24.296875 54 19.296875 50.984375 14.703125 43.6875 
L 14.703125 52.484375 
z
" id="Nimbus_Sans_L_Regular-110"/>
      <path d="M 47.09375 34.9375 
C 46.703125 40.03125 45.59375 43.328125 43.59375 46.21875 
C 40 51.109375 33.703125 54 26.40625 54 
C 12.296875 54 3.09375 42.84375 3.09375 25.5 
C 3.09375 8.65625 12.09375 -2 26.296875 -2 
C 38.796875 -2 46.703125 5.46875 47.703125 18.234375 
L 39.296875 18.234375 
C 37.90625 9.875 33.59375 5.703125 26.5 5.703125 
C 17.296875 5.703125 11.796875 13.171875 11.796875 25.5 
C 11.796875 38.53125 17.203125 46.28125 26.296875 46.28125 
C 33.296875 46.28125 37.703125 42.203125 38.703125 34.9375 
z
" id="Nimbus_Sans_L_Regular-99"/>
     </defs>
     <g transform="translate(21.396641 244.467956)rotate(-90)scale(0.2 -0.2)">
      <use transform="scale(0.996264)" xlink:href="#Nimbus_Sans_L_Regular-72"/>
      <use transform="translate(71.929985 0)scale(0.996264)" xlink:href="#Nimbus_Sans_L_Regular-101"/>
      <use transform="translate(127.321662 0)scale(0.996264)" xlink:href="#Nimbus_Sans_L_Regular-116"/>
      <use transform="translate(155.016831 0)scale(0.996264)" xlink:href="#Nimbus_Sans_L_Regular-101"/>
      <use transform="translate(210.408508 0)scale(0.996264)" xlink:href="#Nimbus_Sans_L_Regular-114"/>
      <use transform="translate(243.583738 0)scale(0.996264)" xlink:href="#Nimbus_Sans_L_Regular-111"/>
      <use transform="translate(298.975415 0)scale(0.996264)" xlink:href="#Nimbus_Sans_L_Regular-112"/>
      <use transform="translate(354.367092 0)scale(0.996264)" xlink:href="#Nimbus_Sans_L_Regular-108"/>
      <use transform="translate(376.483876 0)scale(0.996264)" xlink:href="#Nimbus_Sans_L_Regular-97"/>
      <use transform="translate(431.875553 0)scale(0.996264)" xlink:href="#Nimbus_Sans_L_Regular-115"/>
      <use transform="translate(481.688754 0)scale(0.996264)" xlink:href="#Nimbus_Sans_L_Regular-109"/>
      <use transform="translate(563.183791 0)scale(0.996264)" xlink:href="#Nimbus_Sans_L_Regular-121"/>
      <use transform="translate(640.692161 0)scale(0.996264)" xlink:href="#Nimbus_Sans_L_Regular-118"/>
      <use transform="translate(688.014732 0)scale(0.996264)" xlink:href="#Nimbus_Sans_L_Regular-97"/>
      <use transform="translate(743.406409 0)scale(0.996264)" xlink:href="#Nimbus_Sans_L_Regular-114"/>
      <use transform="translate(778.075017 0)scale(0.996264)" xlink:href="#Nimbus_Sans_L_Regular-105"/>
      <use transform="translate(800.191801 0)scale(0.996264)" xlink:href="#Nimbus_Sans_L_Regular-97"/>
      <use transform="translate(855.583478 0)scale(0.996264)" xlink:href="#Nimbus_Sans_L_Regular-110"/>
      <use transform="translate(910.975155 0)scale(0.996264)" xlink:href="#Nimbus_Sans_L_Regular-99"/>
      <use transform="translate(960.788355 0)scale(0.996264)" xlink:href="#Nimbus_Sans_L_Regular-101"/>
     </g>
    </g>
   </g>
   <g id="line2d_9">
    <defs>
     <path d="M -0 7.071068 
L 4.242641 0 
L -0 -7.071068 
L -4.242641 -0 
z
" id="m0aa690e13d" style="stroke:#2ad500;stroke-linejoin:miter;"/>
    </defs>
    <g clip-path="url(#pb488f5a803)">
     <use style="fill:#2ad500;opacity:0.4;stroke:#2ad500;stroke-linejoin:miter;" x="107.678984" xlink:href="#m0aa690e13d" y="262.986364"/>
     <use style="fill:#2ad500;opacity:0.4;stroke:#2ad500;stroke-linejoin:miter;" x="123.851299" xlink:href="#m0aa690e13d" y="244.114695"/>
     <use style="fill:#2ad500;opacity:0.4;stroke:#2ad500;stroke-linejoin:miter;" x="140.023614" xlink:href="#m0aa690e13d" y="225.468894"/>
     <use style="fill:#2ad500;opacity:0.4;stroke:#2ad500;stroke-linejoin:miter;" x="156.195928" xlink:href="#m0aa690e13d" y="206.321463"/>
     <use style="fill:#2ad500;opacity:0.4;stroke:#2ad500;stroke-linejoin:miter;" x="172.368243" xlink:href="#m0aa690e13d" y="186.317635"/>
     <use style="fill:#2ad500;opacity:0.4;stroke:#2ad500;stroke-linejoin:miter;" x="188.540557" xlink:href="#m0aa690e13d" y="168.281815"/>
     <use style="fill:#2ad500;opacity:0.4;stroke:#2ad500;stroke-linejoin:miter;" x="204.712872" xlink:href="#m0aa690e13d" y="147.24487"/>
     <use style="fill:#2ad500;opacity:0.4;stroke:#2ad500;stroke-linejoin:miter;" x="220.885186" xlink:href="#m0aa690e13d" y="128.987006"/>
     <use style="fill:#2ad500;opacity:0.4;stroke:#2ad500;stroke-linejoin:miter;" x="237.057501" xlink:href="#m0aa690e13d" y="108.810812"/>
     <use style="fill:#2ad500;opacity:0.4;stroke:#2ad500;stroke-linejoin:miter;" x="253.229816" xlink:href="#m0aa690e13d" y="88.980547"/>
     <use style="fill:#2ad500;opacity:0.4;stroke:#2ad500;stroke-linejoin:miter;" x="269.40213" xlink:href="#m0aa690e13d" y="67.078903"/>
     <use style="fill:#2ad500;opacity:0.4;stroke:#2ad500;stroke-linejoin:miter;" x="285.574445" xlink:href="#m0aa690e13d" y="47.18779"/>
     <use style="fill:#2ad500;opacity:0.4;stroke:#2ad500;stroke-linejoin:miter;" x="301.746759" xlink:href="#m0aa690e13d" y="26.613754"/>
    </g>
   </g>
   <g id="line2d_10">
    <path clip-path="url(#pb488f5a803)" d="M 107.678984 262.986364 
L 111.722063 258.387152 
L 115.765142 253.78794 
L 119.80822 249.188728 
L 123.851299 244.589516 
L 127.894378 239.990304 
L 131.937456 235.391092 
L 135.980535 230.791881 
L 140.023614 226.192669 
L 144.066692 221.593457 
L 148.109771 216.994245 
L 152.152849 212.395033 
L 156.195928 207.795821 
L 160.239007 203.196609 
L 164.282085 198.597398 
L 168.325164 193.998186 
L 172.368243 189.398974 
L 176.411321 184.799762 
L 180.4544 180.20055 
L 184.497479 175.601338 
L 188.540557 171.002126 
L 192.583636 166.402915 
L 196.626715 161.803703 
L 200.669793 157.204491 
L 204.712872 152.605279 
L 208.755951 148.006067 
L 212.799029 143.406855 
L 216.842108 138.807643 
L 220.885186 134.208432 
L 224.928265 129.60922 
L 228.971344 125.010008 
L 233.014422 120.410796 
L 237.057501 115.811584 
L 241.10058 111.212372 
L 245.143658 106.61316 
L 249.186737 102.013948 
L 253.229816 97.414737 
L 257.272894 92.815525 
L 261.315973 88.216313 
L 265.359052 83.617101 
L 269.40213 79.017889 
L 273.445209 74.418677 
L 277.488288 69.819465 
L 281.531366 65.220254 
L 285.574445 60.621042 
L 289.617523 56.02183 
L 293.660602 51.422618 
L 297.703681 46.823406 
L 301.746759 42.224194 
L 305.789838 37.624982 
L 309.832917 33.025771 
" style="fill:none;stroke:#2ad500;stroke-linecap:square;stroke-width:1.5;"/>
   </g>
   <g id="line2d_11">
    <defs>
     <path d="M 0 5 
C 1.326016 5 2.597899 4.473168 3.535534 3.535534 
C 4.473168 2.597899 5 1.326016 5 0 
C 5 -1.326016 4.473168 -2.597899 3.535534 -3.535534 
C 2.597899 -4.473168 1.326016 -5 0 -5 
C -1.326016 -5 -2.597899 -4.473168 -3.535534 -3.535534 
C -4.473168 -2.597899 -5 -1.326016 -5 0 
C -5 1.326016 -4.473168 2.597899 -3.535534 3.535534 
C -2.597899 4.473168 -1.326016 5 0 5 
z
" id="m2aceba6d6a" style="stroke:#7e8100;"/>
    </defs>
    <g clip-path="url(#pb488f5a803)">
     <use style="fill:#7e8100;opacity:0.4;stroke:#7e8100;" x="107.678984" xlink:href="#m2aceba6d6a" y="262.986364"/>
     <use style="fill:#7e8100;opacity:0.4;stroke:#7e8100;" x="123.851299" xlink:href="#m2aceba6d6a" y="244.5376"/>
     <use style="fill:#7e8100;opacity:0.4;stroke:#7e8100;" x="140.023614" xlink:href="#m2aceba6d6a" y="224.731818"/>
     <use style="fill:#7e8100;opacity:0.4;stroke:#7e8100;" x="156.195928" xlink:href="#m2aceba6d6a" y="204.7073"/>
     <use style="fill:#7e8100;opacity:0.4;stroke:#7e8100;" x="172.368243" xlink:href="#m2aceba6d6a" y="184.972993"/>
     <use style="fill:#7e8100;opacity:0.4;stroke:#7e8100;" x="188.540557" xlink:href="#m2aceba6d6a" y="164.62619"/>
     <use style="fill:#7e8100;opacity:0.4;stroke:#7e8100;" x="204.712872" xlink:href="#m2aceba6d6a" y="145.242481"/>
     <use style="fill:#7e8100;opacity:0.4;stroke:#7e8100;" x="220.885186" xlink:href="#m2aceba6d6a" y="126.00553"/>
     <use style="fill:#7e8100;opacity:0.4;stroke:#7e8100;" x="237.057501" xlink:href="#m2aceba6d6a" y="106.243263"/>
     <use style="fill:#7e8100;opacity:0.4;stroke:#7e8100;" x="253.229816" xlink:href="#m2aceba6d6a" y="88.043615"/>
     <use style="fill:#7e8100;opacity:0.4;stroke:#7e8100;" x="269.40213" xlink:href="#m2aceba6d6a" y="68.238292"/>
     <use style="fill:#7e8100;opacity:0.4;stroke:#7e8100;" x="285.574445" xlink:href="#m2aceba6d6a" y="48.098663"/>
     <use style="fill:#7e8100;opacity:0.4;stroke:#7e8100;" x="301.746759" xlink:href="#m2aceba6d6a" y="28.688412"/>
    </g>
   </g>
   <g id="line2d_12">
    <path clip-path="url(#pb488f5a803)" d="M 107.678984 262.986364 
L 111.722063 258.224112 
L 115.765142 253.46186 
L 119.80822 248.699608 
L 123.851299 243.937356 
L 127.894378 239.175104 
L 131.937456 234.412852 
L 135.980535 229.6506 
L 140.023614 224.888348 
L 144.066692 220.126096 
L 148.109771 215.363844 
L 152.152849 210.601593 
L 156.195928 205.839341 
L 160.239007 201.077089 
L 164.282085 196.314837 
L 168.325164 191.552585 
L 172.368243 186.790333 
L 176.411321 182.028081 
L 180.4544 177.265829 
L 184.497479 172.503577 
L 188.540557 167.741325 
L 192.583636 162.979073 
L 196.626715 158.216822 
L 200.669793 153.45457 
L 204.712872 148.692318 
L 208.755951 143.930066 
L 212.799029 139.167814 
L 216.842108 134.405562 
L 220.885186 129.64331 
L 224.928265 124.881058 
L 228.971344 120.118806 
L 233.014422 115.356554 
L 237.057501 110.594302 
L 241.10058 105.83205 
L 245.143658 101.069799 
L 249.186737 96.307547 
L 253.229816 91.545295 
L 257.272894 86.783043 
L 261.315973 82.020791 
L 265.359052 77.258539 
L 269.40213 72.496287 
L 273.445209 67.734035 
L 277.488288 62.971783 
L 281.531366 58.209531 
L 285.574445 53.447279 
L 289.617523 48.685027 
L 293.660602 43.922776 
L 297.703681 39.160524 
L 301.746759 34.398272 
L 305.789838 29.63602 
L 309.832917 24.873768 
" style="fill:none;stroke:#7e8100;stroke-linecap:square;stroke-width:1.5;"/>
   </g>
   <g id="line2d_13">
    <defs>
     <path d="M -5 5 
L 5 5 
L 5 -5 
L -5 -5 
z
" id="m64af57d1be" style="stroke:#d42b00;stroke-linejoin:miter;"/>
    </defs>
    <g clip-path="url(#pb488f5a803)">
     <use style="fill:#d42b00;opacity:0.4;stroke:#d42b00;stroke-linejoin:miter;" x="107.678984" xlink:href="#m64af57d1be" y="262.986364"/>
     <use style="fill:#d42b00;opacity:0.4;stroke:#d42b00;stroke-linejoin:miter;" x="123.851299" xlink:href="#m64af57d1be" y="243.937399"/>
     <use style="fill:#d42b00;opacity:0.4;stroke:#d42b00;stroke-linejoin:miter;" x="140.023614" xlink:href="#m64af57d1be" y="224.108172"/>
     <use style="fill:#d42b00;opacity:0.4;stroke:#d42b00;stroke-linejoin:miter;" x="156.195928" xlink:href="#m64af57d1be" y="204.808442"/>
     <use style="fill:#d42b00;opacity:0.4;stroke:#d42b00;stroke-linejoin:miter;" x="172.368243" xlink:href="#m64af57d1be" y="184.713127"/>
     <use style="fill:#d42b00;opacity:0.4;stroke:#d42b00;stroke-linejoin:miter;" x="188.540557" xlink:href="#m64af57d1be" y="164.884047"/>
     <use style="fill:#d42b00;opacity:0.4;stroke:#d42b00;stroke-linejoin:miter;" x="204.712872" xlink:href="#m64af57d1be" y="145.893935"/>
     <use style="fill:#d42b00;opacity:0.4;stroke:#d42b00;stroke-linejoin:miter;" x="220.885186" xlink:href="#m64af57d1be" y="126.05009"/>
     <use style="fill:#d42b00;opacity:0.4;stroke:#d42b00;stroke-linejoin:miter;" x="237.057501" xlink:href="#m64af57d1be" y="107.89859"/>
     <use style="fill:#d42b00;opacity:0.4;stroke:#d42b00;stroke-linejoin:miter;" x="253.229816" xlink:href="#m64af57d1be" y="88.375342"/>
     <use style="fill:#d42b00;opacity:0.4;stroke:#d42b00;stroke-linejoin:miter;" x="269.40213" xlink:href="#m64af57d1be" y="69.370107"/>
     <use style="fill:#d42b00;opacity:0.4;stroke:#d42b00;stroke-linejoin:miter;" x="285.574445" xlink:href="#m64af57d1be" y="49.930154"/>
     <use style="fill:#d42b00;opacity:0.4;stroke:#d42b00;stroke-linejoin:miter;" x="301.746759" xlink:href="#m64af57d1be" y="30.679809"/>
    </g>
   </g>
   <g id="line2d_14">
    <path clip-path="url(#pb488f5a803)" d="M 107.678984 262.986364 
L 111.722063 258.180909 
L 115.765142 253.375455 
L 119.80822 248.57 
L 123.851299 243.764545 
L 127.894378 238.959091 
L 131.937456 234.153636 
L 135.980535 229.348182 
L 140.023614 224.542727 
L 144.066692 219.737273 
L 148.109771 214.931818 
L 152.152849 210.126364 
L 156.195928 205.320909 
L 160.239007 200.515455 
L 164.282085 195.71 
L 168.325164 190.904545 
L 172.368243 186.099091 
L 176.411321 181.293636 
L 180.4544 176.488182 
L 184.497479 171.682727 
L 188.540557 166.877273 
L 192.583636 162.071818 
L 196.626715 157.266364 
L 200.669793 152.460909 
L 204.712872 147.655455 
L 208.755951 142.85 
L 212.799029 138.044545 
L 216.842108 133.239091 
L 220.885186 128.433636 
L 224.928265 123.628182 
L 228.971344 118.822727 
L 233.014422 114.017273 
L 237.057501 109.211818 
L 241.10058 104.406364 
L 245.143658 99.600909 
L 249.186737 94.795455 
L 253.229816 89.99 
L 257.272894 85.184545 
L 261.315973 80.379091 
L 265.359052 75.573636 
L 269.40213 70.768182 
L 273.445209 65.962727 
L 277.488288 61.157273 
L 281.531366 56.351818 
L 285.574445 51.546364 
L 289.617523 46.740909 
L 293.660602 41.935455 
L 297.703681 37.13 
L 301.746759 32.324545 
L 305.789838 27.519091 
L 309.832917 22.713636 
" style="fill:none;stroke:#d42b00;stroke-linecap:square;stroke-width:1.5;"/>
   </g>
   <g id="line2d_15">
    <defs>
     <path d="M 0 -5 
L -5 5 
L 5 5 
z
" id="m269da87111" style="stroke:#d4002b;stroke-linejoin:miter;"/>
    </defs>
    <g clip-path="url(#pb488f5a803)">
     <use style="fill:#d4002b;opacity:0.4;stroke:#d4002b;stroke-linejoin:miter;" x="107.678984" xlink:href="#m269da87111" y="262.986364"/>
     <use style="fill:#d4002b;opacity:0.4;stroke:#d4002b;stroke-linejoin:miter;" x="123.851299" xlink:href="#m269da87111" y="243.144101"/>
     <use style="fill:#d4002b;opacity:0.4;stroke:#d4002b;stroke-linejoin:miter;" x="140.023614" xlink:href="#m269da87111" y="223.552574"/>
     <use style="fill:#d4002b;opacity:0.4;stroke:#d4002b;stroke-linejoin:miter;" x="156.195928" xlink:href="#m269da87111" y="205.394496"/>
     <use style="fill:#d4002b;opacity:0.4;stroke:#d4002b;stroke-linejoin:miter;" x="172.368243" xlink:href="#m269da87111" y="186.372901"/>
     <use style="fill:#d4002b;opacity:0.4;stroke:#d4002b;stroke-linejoin:miter;" x="188.540557" xlink:href="#m269da87111" y="167.322927"/>
     <use style="fill:#d4002b;opacity:0.4;stroke:#d4002b;stroke-linejoin:miter;" x="204.712872" xlink:href="#m269da87111" y="148.199141"/>
     <use style="fill:#d4002b;opacity:0.4;stroke:#d4002b;stroke-linejoin:miter;" x="220.885186" xlink:href="#m269da87111" y="129.461137"/>
     <use style="fill:#d4002b;opacity:0.4;stroke:#d4002b;stroke-linejoin:miter;" x="237.057501" xlink:href="#m269da87111" y="107.603913"/>
     <use style="fill:#d4002b;opacity:0.4;stroke:#d4002b;stroke-linejoin:miter;" x="253.229816" xlink:href="#m269da87111" y="87.667369"/>
     <use style="fill:#d4002b;opacity:0.4;stroke:#d4002b;stroke-linejoin:miter;" x="269.40213" xlink:href="#m269da87111" y="69.37968"/>
     <use style="fill:#d4002b;opacity:0.4;stroke:#d4002b;stroke-linejoin:miter;" x="285.574445" xlink:href="#m269da87111" y="49.905094"/>
     <use style="fill:#d4002b;opacity:0.4;stroke:#d4002b;stroke-linejoin:miter;" x="301.746759" xlink:href="#m269da87111" y="29.791874"/>
    </g>
   </g>
   <g id="line2d_16">
    <path clip-path="url(#pb488f5a803)" d="M 107.678984 262.986364 
L 111.722063 258.182969 
L 115.765142 253.379575 
L 119.80822 248.57618 
L 123.851299 243.772786 
L 127.894378 238.969391 
L 131.937456 234.165997 
L 135.980535 229.362602 
L 140.023614 224.559208 
L 144.066692 219.755813 
L 148.109771 214.952419 
L 152.152849 210.149024 
L 156.195928 205.34563 
L 160.239007 200.542235 
L 164.282085 195.738841 
L 168.325164 190.935446 
L 172.368243 186.132052 
L 176.411321 181.328657 
L 180.4544 176.525263 
L 184.497479 171.721869 
L 188.540557 166.918474 
L 192.583636 162.11508 
L 196.626715 157.311685 
L 200.669793 152.508291 
L 204.712872 147.704896 
L 208.755951 142.901502 
L 212.799029 138.098107 
L 216.842108 133.294713 
L 220.885186 128.491318 
L 224.928265 123.687924 
L 228.971344 118.884529 
L 233.014422 114.081135 
L 237.057501 109.27774 
L 241.10058 104.474346 
L 245.143658 99.670951 
L 249.186737 94.867557 
L 253.229816 90.064162 
L 257.272894 85.260768 
L 261.315973 80.457373 
L 265.359052 75.653979 
L 269.40213 70.850584 
L 273.445209 66.04719 
L 277.488288 61.243795 
L 281.531366 56.440401 
L 285.574445 51.637006 
L 289.617523 46.833612 
L 293.660602 42.030218 
L 297.703681 37.226823 
L 301.746759 32.423429 
L 305.789838 27.620034 
L 309.832917 22.81664 
" style="fill:none;stroke:#d4002b;stroke-linecap:square;stroke-width:1.5;"/>
   </g>
   <g id="line2d_17">
    <defs>
     <path d="M 0 -5 
L -4.330127 -2.5 
L -4.330127 2.5 
L -0 5 
L 4.330127 2.5 
L 4.330127 -2.5 
z
" id="mf240344f4d" style="stroke:#80007f;stroke-linejoin:miter;"/>
    </defs>
    <g clip-path="url(#pb488f5a803)">
     <use style="fill:#80007f;opacity:0.4;stroke:#80007f;stroke-linejoin:miter;" x="107.678984" xlink:href="#mf240344f4d" y="262.986364"/>
     <use style="fill:#80007f;opacity:0.4;stroke:#80007f;stroke-linejoin:miter;" x="123.851299" xlink:href="#mf240344f4d" y="243.567429"/>
     <use style="fill:#80007f;opacity:0.4;stroke:#80007f;stroke-linejoin:miter;" x="140.023614" xlink:href="#mf240344f4d" y="223.59542"/>
     <use style="fill:#80007f;opacity:0.4;stroke:#80007f;stroke-linejoin:miter;" x="156.195928" xlink:href="#mf240344f4d" y="203.779189"/>
     <use style="fill:#80007f;opacity:0.4;stroke:#80007f;stroke-linejoin:miter;" x="172.368243" xlink:href="#mf240344f4d" y="185.290774"/>
     <use style="fill:#80007f;opacity:0.4;stroke:#80007f;stroke-linejoin:miter;" x="188.540557" xlink:href="#mf240344f4d" y="166.943591"/>
     <use style="fill:#80007f;opacity:0.4;stroke:#80007f;stroke-linejoin:miter;" x="204.712872" xlink:href="#mf240344f4d" y="148.050983"/>
     <use style="fill:#80007f;opacity:0.4;stroke:#80007f;stroke-linejoin:miter;" x="220.885186" xlink:href="#mf240344f4d" y="128.764008"/>
     <use style="fill:#80007f;opacity:0.4;stroke:#80007f;stroke-linejoin:miter;" x="237.057501" xlink:href="#mf240344f4d" y="109.371763"/>
     <use style="fill:#80007f;opacity:0.4;stroke:#80007f;stroke-linejoin:miter;" x="253.229816" xlink:href="#mf240344f4d" y="91.971582"/>
     <use style="fill:#80007f;opacity:0.4;stroke:#80007f;stroke-linejoin:miter;" x="269.40213" xlink:href="#mf240344f4d" y="71.591096"/>
     <use style="fill:#80007f;opacity:0.4;stroke:#80007f;stroke-linejoin:miter;" x="285.574445" xlink:href="#mf240344f4d" y="52.135168"/>
     <use style="fill:#80007f;opacity:0.4;stroke:#80007f;stroke-linejoin:miter;" x="301.746759" xlink:href="#mf240344f4d" y="31.123767"/>
    </g>
   </g>
   <g id="line2d_18">
    <path clip-path="url(#pb488f5a803)" d="M 107.678984 262.986364 
L 111.722063 258.182969 
L 115.765142 253.379575 
L 119.80822 248.57618 
L 123.851299 243.772786 
L 127.894378 238.969391 
L 131.937456 234.165997 
L 135.980535 229.362602 
L 140.023614 224.559208 
L 144.066692 219.755813 
L 148.109771 214.952419 
L 152.152849 210.149024 
L 156.195928 205.34563 
L 160.239007 200.542235 
L 164.282085 195.738841 
L 168.325164 190.935446 
L 172.368243 186.132052 
L 176.411321 181.328657 
L 180.4544 176.525263 
L 184.497479 171.721869 
L 188.540557 166.918474 
L 192.583636 162.11508 
L 196.626715 157.311685 
L 200.669793 152.508291 
L 204.712872 147.704896 
L 208.755951 142.901502 
L 212.799029 138.098107 
L 216.842108 133.294713 
L 220.885186 128.491318 
L 224.928265 123.687924 
L 228.971344 118.884529 
L 233.014422 114.081135 
L 237.057501 109.27774 
L 241.10058 104.474346 
L 245.143658 99.670951 
L 249.186737 94.867557 
L 253.229816 90.064162 
L 257.272894 85.260768 
L 261.315973 80.457373 
L 265.359052 75.653979 
L 269.40213 70.850584 
L 273.445209 66.04719 
L 277.488288 61.243795 
L 281.531366 56.440401 
L 285.574445 51.637006 
L 289.617523 46.833612 
L 293.660602 42.030218 
L 297.703681 37.226823 
L 301.746759 32.423429 
L 305.789838 27.620034 
L 309.832917 22.81664 
" style="fill:none;stroke:#80007f;stroke-linecap:square;stroke-width:1.5;"/>
   </g>
   <g id="line2d_19">
    <defs>
     <path d="M -1.666667 5 
L 1.666667 5 
L 1.666667 1.666667 
L 5 1.666667 
L 5 -1.666667 
L 1.666667 -1.666667 
L 1.666667 -5 
L -1.666667 -5 
L -1.666667 -1.666667 
L -5 -1.666667 
L -5 1.666667 
L -1.666667 1.666667 
z
" id="m0fd1c5350c" style="stroke:#2a00d5;stroke-linejoin:miter;"/>
    </defs>
    <g clip-path="url(#pb488f5a803)">
     <use style="fill:#2a00d5;opacity:0.4;stroke:#2a00d5;stroke-linejoin:miter;" x="107.678984" xlink:href="#m0fd1c5350c" y="262.986364"/>
     <use style="fill:#2a00d5;opacity:0.4;stroke:#2a00d5;stroke-linejoin:miter;" x="123.851299" xlink:href="#m0fd1c5350c" y="242.98682"/>
     <use style="fill:#2a00d5;opacity:0.4;stroke:#2a00d5;stroke-linejoin:miter;" x="140.023614" xlink:href="#m0fd1c5350c" y="223.870887"/>
     <use style="fill:#2a00d5;opacity:0.4;stroke:#2a00d5;stroke-linejoin:miter;" x="156.195928" xlink:href="#m0fd1c5350c" y="204.816416"/>
     <use style="fill:#2a00d5;opacity:0.4;stroke:#2a00d5;stroke-linejoin:miter;" x="172.368243" xlink:href="#m0fd1c5350c" y="186.593861"/>
     <use style="fill:#2a00d5;opacity:0.4;stroke:#2a00d5;stroke-linejoin:miter;" x="188.540557" xlink:href="#m0fd1c5350c" y="165.652778"/>
     <use style="fill:#2a00d5;opacity:0.4;stroke:#2a00d5;stroke-linejoin:miter;" x="204.712872" xlink:href="#m0fd1c5350c" y="144.599615"/>
     <use style="fill:#2a00d5;opacity:0.4;stroke:#2a00d5;stroke-linejoin:miter;" x="220.885186" xlink:href="#m0fd1c5350c" y="124.062541"/>
     <use style="fill:#2a00d5;opacity:0.4;stroke:#2a00d5;stroke-linejoin:miter;" x="237.057501" xlink:href="#m0fd1c5350c" y="103.812637"/>
     <use style="fill:#2a00d5;opacity:0.4;stroke:#2a00d5;stroke-linejoin:miter;" x="253.229816" xlink:href="#m0fd1c5350c" y="82.732438"/>
     <use style="fill:#2a00d5;opacity:0.4;stroke:#2a00d5;stroke-linejoin:miter;" x="269.40213" xlink:href="#m0fd1c5350c" y="63.517817"/>
     <use style="fill:#2a00d5;opacity:0.4;stroke:#2a00d5;stroke-linejoin:miter;" x="285.574445" xlink:href="#m0fd1c5350c" y="45.841773"/>
     <use style="fill:#2a00d5;opacity:0.4;stroke:#2a00d5;stroke-linejoin:miter;" x="301.746759" xlink:href="#m0fd1c5350c" y="24.949627"/>
    </g>
   </g>
   <g id="line2d_20">
    <path clip-path="url(#pb488f5a803)" d="M 107.678984 262.986364 
L 111.722063 258.182969 
L 115.765142 253.379575 
L 119.80822 248.57618 
L 123.851299 243.772786 
L 127.894378 238.969391 
L 131.937456 234.165997 
L 135.980535 229.362602 
L 140.023614 224.559208 
L 144.066692 219.755813 
L 148.109771 214.952419 
L 152.152849 210.149024 
L 156.195928 205.34563 
L 160.239007 200.542235 
L 164.282085 195.738841 
L 168.325164 190.935446 
L 172.368243 186.132052 
L 176.411321 181.328657 
L 180.4544 176.525263 
L 184.497479 171.721869 
L 188.540557 166.918474 
L 192.583636 162.11508 
L 196.626715 157.311685 
L 200.669793 152.508291 
L 204.712872 147.704896 
L 208.755951 142.901502 
L 212.799029 138.098107 
L 216.842108 133.294713 
L 220.885186 128.491318 
L 224.928265 123.687924 
L 228.971344 118.884529 
L 233.014422 114.081135 
L 237.057501 109.27774 
L 241.10058 104.474346 
L 245.143658 99.670951 
L 249.186737 94.867557 
L 253.229816 90.064162 
L 257.272894 85.260768 
L 261.315973 80.457373 
L 265.359052 75.653979 
L 269.40213 70.850584 
L 273.445209 66.04719 
L 277.488288 61.243795 
L 281.531366 56.440401 
L 285.574445 51.637006 
L 289.617523 46.833612 
L 293.660602 42.030218 
L 297.703681 37.226823 
L 301.746759 32.423429 
L 305.789838 27.620034 
L 309.832917 22.81664 
" style="fill:none;stroke:#2a00d5;stroke-linecap:square;stroke-width:1.5;"/>
   </g>
   <g id="patch_3">
    <path d="M 97.571288 275 
L 97.571288 10.7 
" style="fill:none;stroke:#000000;stroke-linecap:square;stroke-linejoin:miter;stroke-width:0.8;"/>
   </g>
   <g id="patch_4">
    <path d="M 319.940613 275 
L 319.940613 10.7 
" style="fill:none;stroke:#000000;stroke-linecap:square;stroke-linejoin:miter;stroke-width:0.8;"/>
   </g>
   <g id="patch_5">
    <path d="M 97.571288 275 
L 319.940613 275 
" style="fill:none;stroke:#000000;stroke-linecap:square;stroke-linejoin:miter;stroke-width:0.8;"/>
   </g>
   <g id="patch_6">
    <path d="M 97.571288 10.7 
L 319.940613 10.7 
" style="fill:none;stroke:#000000;stroke-linecap:square;stroke-linejoin:miter;stroke-width:0.8;"/>
   </g>
   <g id="legend_1">
    <g id="patch_7">
     <path d="M 108.071288 152.157546 
L 249.572267 152.157546 
Q 252.572267 152.157546 252.572267 149.157546 
L 252.572267 21.2 
Q 252.572267 18.2 249.572267 18.2 
L 108.071288 18.2 
Q 105.071288 18.2 105.071288 21.2 
L 105.071288 149.157546 
Q 105.071288 152.157546 108.071288 152.157546 
z
" style="fill:#ffffff;opacity:0.8;stroke:#cccccc;stroke-linejoin:miter;"/>
    </g>
    <g id="line2d_21"/>
    <g id="line2d_22">
     <g>
      <use style="fill:#2ad500;opacity:0.4;stroke:#2ad500;stroke-linejoin:miter;" x="126.071288" xlink:href="#m0aa690e13d" y="29.843278"/>
     </g>
    </g>
    <g id="text_11">
     <!-- $\log_{10}{M}=$ -2.0 -->
     <defs>
      <path d="M 15.296875 68.6875 
L 3.40625 67.59375 
L 3.40625 65 
C 9.296875 65 10.203125 64.40625 10.203125 59.640625 
L 10.203125 6.65625 
C 10.203125 2.875 9.796875 2.390625 3.40625 2.390625 
L 3.40625 -0.203125 
C 5.796875 0 10.203125 0 12.703125 0 
C 15.296875 0 19.703125 0 22.09375 -0.203125 
L 22.09375 2.390625 
C 15.703125 2.390625 15.296875 2.78125 15.296875 6.65625 
z
" id="CMR17-108"/>
      <path d="M 43.09375 21.1875 
C 43.09375 34 33.796875 44 22.90625 44 
C 12 44 2.703125 34 2.703125 21.1875 
C 2.703125 8.609375 12 -1 22.90625 -1 
C 33.796875 -1 43.09375 8.609375 43.09375 21.1875 
z
M 22.90625 0.796875 
C 18.203125 0.796875 14.203125 3.59375 11.90625 7.5 
C 9.40625 11.984375 9.09375 17.59375 9.09375 22 
C 9.09375 26.203125 9.296875 31.40625 11.90625 35.90625 
C 13.90625 39.203125 17.796875 42.40625 22.90625 42.40625 
C 27.40625 42.40625 31.203125 39.90625 33.59375 36.40625 
C 36.703125 31.703125 36.703125 25.109375 36.703125 22 
C 36.703125 18.09375 36.5 12.109375 33.796875 7.296875 
C 31 2.703125 26.703125 0.796875 22.90625 0.796875 
z
" id="CMR17-111"/>
      <path d="M 11.09375 18.1875 
C 13 16.6875 16.296875 15 20.296875 15 
C 28.203125 15 35 21.203125 35 29.5 
C 35 32.09375 34.203125 36.09375 31.203125 39.203125 
C 34 42.0625 38.09375 43 40.40625 43 
C 40.796875 43 41.40625 43 41.90625 42.71875 
C 41.5 42.625 40.59375 42.234375 40.59375 40.703125 
C 40.59375 39.484375 41.5 38.609375 42.796875 38.609375 
C 44.296875 38.609375 45.09375 39.578125 45.09375 40.84375 
C 45.09375 42.671875 43.59375 44.59375 40.40625 44.59375 
C 36.40625 44.59375 32.90625 42.78125 30.09375 40.3125 
C 27.09375 43.015625 23.5 44 20.296875 44 
C 12.40625 44 5.59375 37.796875 5.59375 29.5 
C 5.59375 23.78125 8.90625 20.1875 9.90625 19.1875 
C 6.90625 15.6875 6.90625 11.609375 6.90625 11.109375 
C 6.90625 8.515625 7.90625 4.71875 11.296875 2.625 
C 6.09375 1.328125 2 -2.640625 2 -7.59375 
C 2 -14.734375 11.5 -20 22.90625 -20 
C 33.90625 -20 43.796875 -14.9375 43.796875 -7.484375 
C 43.796875 6 29 6 21.296875 6 
C 19 6 14.90625 6 14.40625 6.109375 
C 11.296875 6.609375 9.203125 9.40625 9.203125 12.90625 
C 9.203125 13.796875 9.203125 16 11.09375 18.1875 
z
M 20.296875 16.6875 
C 11.5 16.6875 11.5 27.5 11.5 29.515625 
C 11.5 31.5 11.5 42.3125 20.296875 42.3125 
C 29.09375 42.3125 29.09375 31.5 29.09375 29.515625 
C 29.09375 27.5 29.09375 16.6875 20.296875 16.6875 
z
M 22.90625 -18.296875 
C 12.90625 -18.296875 6 -13.046875 6 -7.59375 
C 6 -4.515625 7.703125 -1.640625 9.90625 -0.0625 
C 12.40625 1.625 13.40625 1.625 20.203125 1.625 
C 28.40625 1.625 39.796875 1.625 39.796875 -7.59375 
C 39.796875 -13.046875 32.90625 -18.296875 22.90625 -18.296875 
z
" id="CMR17-103"/>
      <path d="M 26.59375 63.40625 
C 26.59375 65.5 26.5 65.5 25.09375 65.5 
C 21.203125 61.1875 15.296875 59.796875 9.703125 59.796875 
C 9.40625 59.796875 8.90625 59.796875 8.796875 59.5 
C 8.703125 59.296875 8.703125 59.09375 8.703125 57 
C 11.796875 57 17 57.59375 21 59.984375 
L 21 7.203125 
C 21 3.6875 20.796875 2.5 12.203125 2.5 
L 9.203125 2.5 
L 9.203125 0 
C 14 0 19 0 23.796875 0 
C 28.59375 0 33.59375 0 38.40625 0 
L 38.40625 2.5 
L 35.40625 2.5 
C 26.796875 2.5 26.59375 3.59375 26.59375 7.15625 
z
" id="CMR17-49"/>
      <path d="M 42 31.640625 
C 42 37.75 41.90625 48.125 37.703125 56.109375 
C 34 63.109375 28.09375 65.59375 22.90625 65.59375 
C 18.09375 65.59375 12 63.40625 8.203125 56.203125 
C 4.203125 48.71875 3.796875 39.4375 3.796875 31.640625 
C 3.796875 25.953125 3.90625 17.28125 7 9.671875 
C 11.296875 -0.609375 19 -2 22.90625 -2 
C 27.5 -2 34.5 -0.109375 38.59375 9.375 
C 41.59375 16.28125 42 24.359375 42 31.640625 
z
M 22.90625 -0.40625 
C 16.5 -0.40625 12.703125 5.078125 11.296875 12.6875 
C 10.203125 18.5625 10.203125 27.15625 10.203125 32.75 
C 10.203125 40.4375 10.203125 46.828125 11.5 52.921875 
C 13.40625 61.390625 19 64 22.90625 64 
C 27 64 32.296875 61.296875 34.203125 53.125 
C 35.5 47.4375 35.59375 40.734375 35.59375 32.75 
C 35.59375 26.25 35.59375 18.265625 34.40625 12.375 
C 32.296875 1.484375 26.40625 -0.40625 22.90625 -0.40625 
z
" id="CMR17-48"/>
      <path d="M 90.796875 60.71875 
C 91.703125 64.109375 91.90625 65.109375 99 65.109375 
C 100.90625 65.109375 101.796875 65.109375 101.796875 67 
C 101.796875 68 101.09375 68 99.203125 68 
L 87.203125 68 
C 84.703125 68 84.59375 67.90625 83.5 66.296875 
L 47 8.78125 
L 39.5 65.796875 
C 39.203125 68 39.09375 68 36.5 68 
L 24.09375 68 
C 22.203125 68 21.296875 68 21.296875 66.109375 
C 21.296875 65.109375 22.203125 65.109375 23.703125 65.109375 
C 29.796875 65.109375 29.796875 64.3125 29.796875 63.21875 
C 29.796875 63.03125 29.796875 62.421875 29.40625 60.921875 
L 16.59375 9.90625 
C 15.40625 5.109375 13.09375 2.90625 6.40625 2.90625 
C 6.09375 2.90625 4.90625 2.90625 4.90625 1.140625 
C 4.90625 0 5.796875 0 6.203125 0 
C 8.203125 0 13.296875 0 15.296875 0 
L 20.09375 0 
C 21.5 0 23.203125 0 24.59375 0 
C 25.296875 0 26.40625 0 26.40625 1.90625 
C 26.40625 2.8125 25.40625 2.90625 25 2.90625 
C 21.703125 2.90625 18.5 3.5 18.5 7.09375 
C 18.5 8.09375 18.5 8.1875 18.90625 9.578125 
L 32.703125 64.515625 
L 32.796875 64.515625 
L 41.09375 2.6875 
C 41.40625 0.296875 41.5 0 42.40625 0 
C 43.5 0 44 0.796875 44.5 1.703125 
L 84.703125 65.015625 
L 84.796875 65.015625 
L 70.296875 7.390625 
C 69.40625 3.90625 69.203125 2.90625 62.203125 2.90625 
C 60.296875 2.90625 59.296875 2.90625 59.296875 1.09375 
C 59.296875 0 60.203125 0 60.796875 0 
C 62.5 0 64.5 0 66.203125 0 
L 78 0 
C 79.703125 0 81.796875 0 83.5 0 
C 84.296875 0 85.40625 0 85.40625 1.90625 
C 85.40625 2.90625 84.5 2.90625 83 2.90625 
C 76.90625 2.90625 76.90625 3.65625 76.90625 4.59375 
C 76.90625 4.703125 76.90625 5.390625 77.09375 6.1875 
z
" id="CMMI12-77"/>
      <path d="M 64.296875 31.515625 
C 65.796875 31.515625 67.296875 31.515625 67.296875 33.203125 
C 67.296875 35 65.59375 35 63.90625 35 
L 8 35 
C 6.296875 35 4.59375 35 4.59375 33.203125 
C 4.59375 31.515625 6.09375 31.515625 7.59375 31.515625 
z
M 63.90625 14 
C 65.59375 14 67.296875 14 67.296875 15.796875 
C 67.296875 17.484375 65.796875 17.484375 64.296875 17.484375 
L 7.59375 17.484375 
C 6.09375 17.484375 4.59375 17.484375 4.59375 15.796875 
C 4.59375 14 6.296875 14 8 14 
z
" id="CMR17-61"/>
      <path d="M 28.40625 31.203125 
L 4.59375 31.203125 
L 4.59375 24 
L 28.40625 24 
z
" id="Nimbus_Sans_L_Regular-45"/>
     </defs>
     <g transform="translate(153.071288 35.093278)scale(0.15 -0.15)">
      <use transform="translate(0 22.865092)scale(0.996264)" xlink:href="#CMR17-108"/>
      <use transform="translate(24.871058 22.865092)scale(0.996264)" xlink:href="#CMR17-111"/>
      <use transform="translate(70.561536 22.865092)scale(0.996264)" xlink:href="#CMR17-103"/>
      <use transform="translate(117.553179 0)scale(0.697382)" xlink:href="#CMR17-49"/>
      <use transform="translate(149.536361 0)scale(0.697382)" xlink:href="#CMR17-48"/>
      <use transform="translate(198.62208 22.865092)scale(0.996264)" xlink:href="#CMMI12-77"/>
      <use transform="translate(331.076168 22.865092)scale(0.996264)" xlink:href="#CMR17-61"/>
      <use transform="translate(430.486126 22.865092)scale(0.996264)" xlink:href="#Nimbus_Sans_L_Regular-45"/>
      <use transform="translate(463.661355 22.865092)scale(0.996264)" xlink:href="#Nimbus_Sans_L_Regular-50"/>
      <use transform="translate(519.053032 22.865092)scale(0.996264)" xlink:href="#Nimbus_Sans_L_Regular-46"/>
      <use transform="translate(546.748202 22.865092)scale(0.996264)" xlink:href="#Nimbus_Sans_L_Regular-48"/>
     </g>
    </g>
    <g id="line2d_23"/>
    <g id="line2d_24">
     <g>
      <use style="fill:#7e8100;opacity:0.4;stroke:#7e8100;" x="126.071288" xlink:href="#m2aceba6d6a" y="51.419536"/>
     </g>
    </g>
    <g id="text_12">
     <!-- $\log_{10}{M}=$ -1.2 -->
     <g transform="translate(153.071288 56.669536)scale(0.15 -0.15)">
      <use transform="translate(0 22.865092)scale(0.996264)" xlink:href="#CMR17-108"/>
      <use transform="translate(24.871058 22.865092)scale(0.996264)" xlink:href="#CMR17-111"/>
      <use transform="translate(70.561536 22.865092)scale(0.996264)" xlink:href="#CMR17-103"/>
      <use transform="translate(117.553179 0)scale(0.697382)" xlink:href="#CMR17-49"/>
      <use transform="translate(149.536361 0)scale(0.697382)" xlink:href="#CMR17-48"/>
      <use transform="translate(198.62208 22.865092)scale(0.996264)" xlink:href="#CMMI12-77"/>
      <use transform="translate(331.076168 22.865092)scale(0.996264)" xlink:href="#CMR17-61"/>
      <use transform="translate(430.486126 22.865092)scale(0.996264)" xlink:href="#Nimbus_Sans_L_Regular-45"/>
      <use transform="translate(463.661355 22.865092)scale(0.996264)" xlink:href="#Nimbus_Sans_L_Regular-49"/>
      <use transform="translate(519.053032 22.865092)scale(0.996264)" xlink:href="#Nimbus_Sans_L_Regular-46"/>
      <use transform="translate(546.748202 22.865092)scale(0.996264)" xlink:href="#Nimbus_Sans_L_Regular-50"/>
     </g>
    </g>
    <g id="line2d_25"/>
    <g id="line2d_26">
     <g>
      <use style="fill:#d42b00;opacity:0.4;stroke:#d42b00;stroke-linejoin:miter;" x="126.071288" xlink:href="#m64af57d1be" y="72.995793"/>
     </g>
    </g>
    <g id="text_13">
     <!-- $\log_{10}{M}=$ -0.4 -->
     <g transform="translate(153.071288 78.245793)scale(0.15 -0.15)">
      <use transform="translate(0 22.865092)scale(0.996264)" xlink:href="#CMR17-108"/>
      <use transform="translate(24.871058 22.865092)scale(0.996264)" xlink:href="#CMR17-111"/>
      <use transform="translate(70.561536 22.865092)scale(0.996264)" xlink:href="#CMR17-103"/>
      <use transform="translate(117.553179 0)scale(0.697382)" xlink:href="#CMR17-49"/>
      <use transform="translate(149.536361 0)scale(0.697382)" xlink:href="#CMR17-48"/>
      <use transform="translate(198.62208 22.865092)scale(0.996264)" xlink:href="#CMMI12-77"/>
      <use transform="translate(331.076168 22.865092)scale(0.996264)" xlink:href="#CMR17-61"/>
      <use transform="translate(430.486126 22.865092)scale(0.996264)" xlink:href="#Nimbus_Sans_L_Regular-45"/>
      <use transform="translate(463.661355 22.865092)scale(0.996264)" xlink:href="#Nimbus_Sans_L_Regular-48"/>
      <use transform="translate(519.053032 22.865092)scale(0.996264)" xlink:href="#Nimbus_Sans_L_Regular-46"/>
      <use transform="translate(546.748202 22.865092)scale(0.996264)" xlink:href="#Nimbus_Sans_L_Regular-52"/>
     </g>
    </g>
    <g id="line2d_27"/>
    <g id="line2d_28">
     <g>
      <use style="fill:#d4002b;opacity:0.4;stroke:#d4002b;stroke-linejoin:miter;" x="126.071288" xlink:href="#m269da87111" y="94.572051"/>
     </g>
    </g>
    <g id="text_14">
     <!-- $\log_{10}{M}=$ 0.4 -->
     <g transform="translate(153.071288 99.822051)scale(0.15 -0.15)">
      <use transform="translate(0 22.865092)scale(0.996264)" xlink:href="#CMR17-108"/>
      <use transform="translate(24.871058 22.865092)scale(0.996264)" xlink:href="#CMR17-111"/>
      <use transform="translate(70.561536 22.865092)scale(0.996264)" xlink:href="#CMR17-103"/>
      <use transform="translate(117.553179 0)scale(0.697382)" xlink:href="#CMR17-49"/>
      <use transform="translate(149.536361 0)scale(0.697382)" xlink:href="#CMR17-48"/>
      <use transform="translate(198.62208 22.865092)scale(0.996264)" xlink:href="#CMMI12-77"/>
      <use transform="translate(331.076168 22.865092)scale(0.996264)" xlink:href="#CMR17-61"/>
      <use transform="translate(430.486126 22.865092)scale(0.996264)" xlink:href="#Nimbus_Sans_L_Regular-48"/>
      <use transform="translate(485.877803 22.865092)scale(0.996264)" xlink:href="#Nimbus_Sans_L_Regular-46"/>
      <use transform="translate(513.572972 22.865092)scale(0.996264)" xlink:href="#Nimbus_Sans_L_Regular-52"/>
     </g>
    </g>
    <g id="line2d_29"/>
    <g id="line2d_30">
     <g>
      <use style="fill:#80007f;opacity:0.4;stroke:#80007f;stroke-linejoin:miter;" x="126.071288" xlink:href="#mf240344f4d" y="116.148308"/>
     </g>
    </g>
    <g id="text_15">
     <!-- $\log_{10}{M}=$ 1.2 -->
     <g transform="translate(153.071288 121.398308)scale(0.15 -0.15)">
      <use transform="translate(0 22.865092)scale(0.996264)" xlink:href="#CMR17-108"/>
      <use transform="translate(24.871058 22.865092)scale(0.996264)" xlink:href="#CMR17-111"/>
      <use transform="translate(70.561536 22.865092)scale(0.996264)" xlink:href="#CMR17-103"/>
      <use transform="translate(117.553179 0)scale(0.697382)" xlink:href="#CMR17-49"/>
      <use transform="translate(149.536361 0)scale(0.697382)" xlink:href="#CMR17-48"/>
      <use transform="translate(198.62208 22.865092)scale(0.996264)" xlink:href="#CMMI12-77"/>
      <use transform="translate(331.076168 22.865092)scale(0.996264)" xlink:href="#CMR17-61"/>
      <use transform="translate(430.486126 22.865092)scale(0.996264)" xlink:href="#Nimbus_Sans_L_Regular-49"/>
      <use transform="translate(485.877803 22.865092)scale(0.996264)" xlink:href="#Nimbus_Sans_L_Regular-46"/>
      <use transform="translate(513.572972 22.865092)scale(0.996264)" xlink:href="#Nimbus_Sans_L_Regular-50"/>
     </g>
    </g>
    <g id="line2d_31"/>
    <g id="line2d_32">
     <g>
      <use style="fill:#2a00d5;opacity:0.4;stroke:#2a00d5;stroke-linejoin:miter;" x="126.071288" xlink:href="#m0fd1c5350c" y="137.724566"/>
     </g>
    </g>
    <g id="text_16">
     <!-- $\log_{10}{M}=$ 2.0 -->
     <g transform="translate(153.071288 142.974566)scale(0.15 -0.15)">
      <use transform="translate(0 22.865092)scale(0.996264)" xlink:href="#CMR17-108"/>
      <use transform="translate(24.871058 22.865092)scale(0.996264)" xlink:href="#CMR17-111"/>
      <use transform="translate(70.561536 22.865092)scale(0.996264)" xlink:href="#CMR17-103"/>
      <use transform="translate(117.553179 0)scale(0.697382)" xlink:href="#CMR17-49"/>
      <use transform="translate(149.536361 0)scale(0.697382)" xlink:href="#CMR17-48"/>
      <use transform="translate(198.62208 22.865092)scale(0.996264)" xlink:href="#CMMI12-77"/>
      <use transform="translate(331.076168 22.865092)scale(0.996264)" xlink:href="#CMR17-61"/>
      <use transform="translate(430.486126 22.865092)scale(0.996264)" xlink:href="#Nimbus_Sans_L_Regular-50"/>
      <use transform="translate(485.877803 22.865092)scale(0.996264)" xlink:href="#Nimbus_Sans_L_Regular-46"/>
      <use transform="translate(513.572972 22.865092)scale(0.996264)" xlink:href="#Nimbus_Sans_L_Regular-48"/>
     </g>
    </g>
   </g>
  </g>
 </g>
 <defs>
  <clipPath id="pb488f5a803">
   <rect height="264.3" width="222.369326" x="97.571288" y="10.7"/>
  </clipPath>
 </defs>
</svg>
