<?xml version="1.0" encoding="utf-8" standalone="no"?>
<!DOCTYPE svg PUBLIC "-//W3C//DTD SVG 1.1//EN"
  "http://www.w3.org/Graphics/SVG/1.1/DTD/svg11.dtd">
<!-- Created with matplotlib (http://matplotlib.org/) -->
<svg height="360pt" version="1.1" viewBox="0 0 720 360" width="720pt" xmlns="http://www.w3.org/2000/svg" xmlns:xlink="http://www.w3.org/1999/xlink">
 <defs>
  <style type="text/css">
*{stroke-linecap:butt;stroke-linejoin:round;}
  </style>
 </defs>
 <g id="figure_1">
  <g id="patch_1">
   <path d="M 0 360 
L 720 360 
L 720 0 
L 0 0 
z
" style="fill:#ffffff;"/>
  </g>
  <g id="axes_1">
   <g id="patch_2">
    <path d="M 106.834988 289.4 
L 377.689761 289.4 
L 377.689761 25.1 
L 106.834988 25.1 
z
" style="fill:#ffffff;"/>
   </g>
   <g id="matplotlib.axis_1">
    <g id="xtick_1">
     <g id="line2d_1">
      <defs>
       <path d="M 0 0 
L 0 3.5 
" id="m6890b37b80" style="stroke:#000000;stroke-width:0.8;"/>
      </defs>
      <g>
       <use style="stroke:#000000;stroke-width:0.8;" x="119.146569" xlink:href="#m6890b37b80" y="289.4"/>
      </g>
     </g>
     <g id="text_1">
      <!-- 0 -->
      <defs>
       <path d="M 27.5 71 
C 20.90625 71 14.90625 68.125 11.203125 63.21875 
C 6.59375 57.046875 4.296875 47.5625 4.296875 34.5 
C 4.296875 10.671875 12.296875 -2 27.5 -2 
C 42.5 -2 50.703125 10.671875 50.703125 33.90625 
C 50.703125 47.65625 48.5 56.84375 43.796875 63.21875 
C 40.09375 68.21875 34.203125 71 27.5 71 
z
M 27.5 63.1875 
C 37 63.1875 41.703125 53.625 41.703125 34.703125 
C 41.703125 14.671875 37.09375 5.3125 27.296875 5.3125 
C 18 5.3125 13.296875 15.078125 13.296875 34.40625 
C 13.296875 53.71875 18 63.1875 27.5 63.1875 
z
" id="Nimbus_Sans_L_Regular-48"/>
      </defs>
      <g transform="translate(113.607404 310.596641)scale(0.2 -0.2)">
       <use transform="scale(0.996264)" xlink:href="#Nimbus_Sans_L_Regular-48"/>
      </g>
     </g>
    </g>
    <g id="xtick_2">
     <g id="line2d_2">
      <g>
       <use style="stroke:#000000;stroke-width:0.8;" x="242.262374" xlink:href="#m6890b37b80" y="289.4"/>
      </g>
     </g>
     <g id="text_2">
      <!-- 50 -->
      <defs>
       <path d="M 47.59375 71 
L 11 71 
L 5.703125 32.59375 
L 13.796875 32.59375 
C 17.90625 37.484375 21.296875 39.1875 26.796875 39.1875 
C 36.296875 39.1875 42.296875 32.6875 42.296875 22.203125 
C 42.296875 12 36.40625 5.8125 26.796875 5.8125 
C 19.09375 5.8125 14.40625 9.703125 12.296875 17.703125 
L 3.5 17.703125 
C 4.703125 11.90625 5.703125 9.09375 7.796875 6.484375 
C 11.796875 1.09375 19 -2 27 -2 
C 41.296875 -2 51.296875 8.390625 51.296875 23.390625 
C 51.296875 37.40625 42 47 28.40625 47 
C 23.40625 47 19.40625 45.703125 15.296875 42.6875 
L 18.09375 62.296875 
L 47.59375 62.296875 
z
" id="Nimbus_Sans_L_Regular-53"/>
      </defs>
      <g transform="translate(231.184045 310.596641)scale(0.2 -0.2)">
       <use transform="scale(0.996264)" xlink:href="#Nimbus_Sans_L_Regular-53"/>
       <use transform="translate(55.391677 0)scale(0.996264)" xlink:href="#Nimbus_Sans_L_Regular-48"/>
      </g>
     </g>
    </g>
    <g id="xtick_3">
     <g id="line2d_3">
      <g>
       <use style="stroke:#000000;stroke-width:0.8;" x="365.37818" xlink:href="#m6890b37b80" y="289.4"/>
      </g>
     </g>
     <g id="text_3">
      <!-- 100 -->
      <defs>
       <path d="M 25.90625 50.59375 
L 25.90625 0 
L 34.703125 0 
L 34.703125 71.015625 
L 28.90625 71.015625 
C 25.796875 60.109375 23.796875 58.609375 10.203125 56.90625 
L 10.203125 50.59375 
z
" id="Nimbus_Sans_L_Regular-49"/>
      </defs>
      <g transform="translate(348.760686 310.596641)scale(0.2 -0.2)">
       <use transform="scale(0.996264)" xlink:href="#Nimbus_Sans_L_Regular-49"/>
       <use transform="translate(55.391677 0)scale(0.996264)" xlink:href="#Nimbus_Sans_L_Regular-48"/>
       <use transform="translate(110.783354 0)scale(0.996264)" xlink:href="#Nimbus_Sans_L_Regular-48"/>
      </g>
     </g>
    </g>
    <g id="text_4">
     <!-- Time (years) -->
     <defs>
      <path d="M 35.40625 64.78125 
L 59.296875 64.78125 
L 59.296875 73 
L 2.09375 73 
L 2.09375 64.78125 
L 26.09375 64.78125 
L 26.09375 -0.21875 
L 35.40625 -0.21875 
z
" id="Nimbus_Sans_L_Regular-84"/>
      <path d="M 15 52.484375 
L 6.703125 52.484375 
L 6.703125 0 
L 15 0 
z
M 15 73 
L 6.59375 73 
L 6.59375 62.484375 
L 15 62.484375 
z
" id="Nimbus_Sans_L_Regular-105"/>
      <path d="M 7 52.484375 
L 7 0 
L 15.40625 0 
L 15.40625 32.953125 
C 15.40625 40.578125 20.90625 46.6875 27.703125 46.6875 
C 33.90625 46.6875 37.40625 42.875 37.40625 36.15625 
L 37.40625 0 
L 45.796875 0 
L 45.796875 32.953125 
C 45.796875 40.578125 51.296875 46.6875 58.09375 46.6875 
C 64.203125 46.6875 67.796875 42.78125 67.796875 36.15625 
L 67.796875 0 
L 76.203125 0 
L 76.203125 39.375 
C 76.203125 48.78125 70.796875 54 61 54 
C 54 54 49.796875 51.890625 44.90625 45.984375 
C 41.796875 51.59375 37.59375 54 30.796875 54 
C 23.796875 54 19.203125 51.390625 14.703125 45.078125 
L 14.703125 52.484375 
z
" id="Nimbus_Sans_L_Regular-109"/>
      <path d="M 51.296875 23.890625 
C 51.296875 31.78125 50.703125 36.53125 49.203125 40.375 
C 45.796875 48.859375 37.796875 54 28 54 
C 13.40625 54 4 42.84375 4 25.703125 
C 4 8.546875 13.09375 -2 27.796875 -2 
C 39.796875 -2 48.09375 4.84375 50.203125 16.3125 
L 41.796875 16.3125 
C 39.5 9.34375 34.796875 5.703125 28.09375 5.703125 
C 22.796875 5.703125 18.296875 8.125 15.5 12.578125 
C 13.5 15.59375 12.796875 18.640625 12.703125 23.890625 
z
M 12.90625 31 
C 13.59375 40.265625 19.5 46.28125 27.90625 46.28125 
C 36.09375 46.28125 42.40625 39.53125 42.40625 31 
C 42.40625 31 42.40625 31 42.296875 31 
z
" id="Nimbus_Sans_L_Regular-101"/>
      <path d="M 23.59375 73 
C 13.59375 59.84375 7.296875 41.5625 7.296875 25.796875 
C 7.296875 9.9375 13.59375 -8.34375 23.59375 -21.5 
L 29.09375 -21.5 
C 20.296875 -7.140625 15.40625 9.734375 15.40625 25.796875 
C 15.40625 41.765625 20.296875 58.734375 29.09375 73 
z
" id="Nimbus_Sans_L_Regular-40"/>
      <path d="M 38.796875 52.5 
L 24.296875 11.53125 
L 10.90625 52.5 
L 2 52.5 
L 19.703125 -0.328125 
L 16.5 -8.65625 
C 15.203125 -12.375 13.296875 -13.78125 9.796875 -13.78125 
C 8.59375 -13.78125 7.203125 -13.578125 5.40625 -13.171875 
L 5.40625 -20.703125 
C 7.09375 -21.59375 8.796875 -22 11 -22 
C 13.703125 -22 16.59375 -21.09375 18.796875 -19.484375 
C 21.40625 -17.578125 22.90625 -15.359375 24.5 -11.140625 
L 47.796875 52.5 
z
" id="Nimbus_Sans_L_Regular-121"/>
      <path d="M 53.5 5.203125 
C 52.59375 5 52.203125 5 51.703125 5 
C 48.796875 5 47.203125 6.484375 47.203125 9.078125 
L 47.203125 39.765625 
C 47.203125 49.015625 40.40625 54 27.5 54 
C 19.90625 54 13.59375 51.8125 10.09375 47.90625 
C 7.703125 45.203125 6.703125 42.21875 6.5 37.03125 
L 14.90625 37.03125 
C 15.59375 43.390625 19.40625 46.28125 27.203125 46.28125 
C 34.703125 46.28125 38.90625 43.484375 38.90625 38.515625 
L 38.90625 36.328125 
C 38.90625 32.828125 36.796875 31.34375 30.203125 30.546875 
C 18.40625 29.0625 16.59375 28.65625 13.40625 27.359375 
C 7.296875 24.875 4.203125 20.1875 4.203125 13.421875 
C 4.203125 3.96875 10.796875 -2 21.40625 -2 
C 28 -2 33.296875 0.296875 39.203125 5.703125 
C 39.796875 0.390625 42.40625 -2 47.796875 -2 
C 49.5 -2 50.796875 -1.8125 53.5 -1.09375 
z
M 38.90625 16.75 
C 38.90625 13.953125 38.09375 12.265625 35.59375 9.984375 
C 32.203125 6.890625 28.09375 5.3125 23.203125 5.3125 
C 16.703125 5.3125 12.90625 8.390625 12.90625 13.65625 
C 12.90625 19.140625 16.59375 21.921875 25.5 23.21875 
C 34.296875 24.40625 36.09375 24.8125 38.90625 26.09375 
z
" id="Nimbus_Sans_L_Regular-97"/>
      <path d="M 6.90625 52.484375 
L 6.90625 0 
L 15.296875 0 
L 15.296875 27.203125 
C 15.296875 34.703125 17.203125 39.609375 21.203125 42.5 
C 23.796875 44.40625 26.296875 45 32.09375 45 
L 32.09375 53.625 
C 30.703125 53.8125 30 53.8125 28.90625 53.8125 
C 23.5 53.8125 19.40625 50.625 14.59375 42.90625 
L 14.59375 52.484375 
z
" id="Nimbus_Sans_L_Regular-114"/>
      <path d="M 43.796875 37.921875 
C 43.703125 48.203125 36.90625 54 24.796875 54 
C 12.59375 54 4.703125 47.71875 4.703125 38.0625 
C 4.703125 29.890625 8.90625 26.015625 21.296875 23.03125 
L 29.09375 21.140625 
C 34.90625 19.734375 37.203125 17.65625 37.203125 13.875 
C 37.203125 9 32.296875 5.703125 25 5.703125 
C 20.5 5.703125 16.703125 7 14.59375 9.1875 
C 13.296875 10.6875 12.703125 12.171875 12.203125 15.84375 
L 3.40625 15.84375 
C 3.796875 3.765625 10.59375 -2 24.296875 -2 
C 37.5 -2 45.90625 4.453125 45.90625 14.515625 
C 45.90625 22.28125 41.5 26.578125 31.09375 29.0625 
L 23.09375 30.953125 
C 16.296875 32.53125 13.40625 34.734375 13.40625 38.40625 
C 13.40625 43.1875 17.703125 46.28125 24.5 46.28125 
C 31.203125 46.28125 34.796875 43.390625 35 37.921875 
z
" id="Nimbus_Sans_L_Regular-115"/>
      <path d="M 9.296875 -21.5 
C 19.296875 -8.34375 25.59375 9.9375 25.59375 25.6875 
C 25.59375 41.5625 19.296875 59.84375 9.296875 73 
L 3.796875 73 
C 12.59375 58.640625 17.5 41.765625 17.5 25.6875 
C 17.5 9.734375 12.59375 -7.25 3.796875 -21.5 
z
" id="Nimbus_Sans_L_Regular-41"/>
     </defs>
     <g transform="translate(186.561683 333.405988)scale(0.2 -0.2)">
      <use transform="scale(0.996264)" xlink:href="#Nimbus_Sans_L_Regular-84"/>
      <use transform="translate(60.871631 0)scale(0.996264)" xlink:href="#Nimbus_Sans_L_Regular-105"/>
      <use transform="translate(82.988415 0)scale(0.996264)" xlink:href="#Nimbus_Sans_L_Regular-109"/>
      <use transform="translate(165.976845 0)scale(0.996264)" xlink:href="#Nimbus_Sans_L_Regular-101"/>
      <use transform="translate(249.063692 0)scale(0.996264)" xlink:href="#Nimbus_Sans_L_Regular-40"/>
      <use transform="translate(282.238922 0)scale(0.996264)" xlink:href="#Nimbus_Sans_L_Regular-121"/>
      <use transform="translate(330.060111 0)scale(0.996264)" xlink:href="#Nimbus_Sans_L_Regular-101"/>
      <use transform="translate(385.451788 0)scale(0.996264)" xlink:href="#Nimbus_Sans_L_Regular-97"/>
      <use transform="translate(440.843465 0)scale(0.996264)" xlink:href="#Nimbus_Sans_L_Regular-114"/>
      <use transform="translate(474.018695 0)scale(0.996264)" xlink:href="#Nimbus_Sans_L_Regular-115"/>
      <use transform="translate(523.831895 0)scale(0.996264)" xlink:href="#Nimbus_Sans_L_Regular-41"/>
     </g>
    </g>
   </g>
   <g id="matplotlib.axis_2">
    <g id="ytick_1">
     <g id="line2d_4">
      <defs>
       <path d="M 0 0 
L -3.5 0 
" id="m9846a8e16d" style="stroke:#000000;stroke-width:0.8;"/>
      </defs>
      <g>
       <use style="stroke:#000000;stroke-width:0.8;" x="106.834988" xlink:href="#m9846a8e16d" y="277.386364"/>
      </g>
     </g>
     <g id="text_5">
      <!-- 0 -->
      <g transform="translate(88.756659 284.484684)scale(0.2 -0.2)">
       <use transform="scale(0.996264)" xlink:href="#Nimbus_Sans_L_Regular-48"/>
      </g>
     </g>
    </g>
    <g id="ytick_2">
     <g id="line2d_5">
      <g>
       <use style="stroke:#000000;stroke-width:0.8;" x="106.834988" xlink:href="#m9846a8e16d" y="230.324264"/>
      </g>
     </g>
     <g id="text_6">
      <!-- 25 -->
      <defs>
       <path d="M 50.59375 8.71875 
L 13.296875 8.71875 
C 14.203125 14.53125 17.40625 18.234375 26.09375 23.34375 
L 36.09375 28.75 
C 46 34.15625 51.09375 41.453125 51.09375 50.171875 
C 51.09375 56.078125 48.703125 61.59375 44.5 65.390625 
C 40.296875 69.203125 35.09375 71 28.40625 71 
C 19.40625 71 12.703125 67.796875 8.796875 61.796875 
C 6.296875 57.984375 5.203125 53.578125 5 46.359375 
L 13.796875 46.359375 
C 14.09375 51.171875 14.703125 54.078125 15.90625 56.375 
C 18.203125 60.6875 22.796875 63.296875 28.09375 63.296875 
C 36.09375 63.296875 42.09375 57.578125 42.09375 49.96875 
C 42.09375 44.359375 38.796875 39.546875 32.5 35.953125 
L 23.296875 30.75 
C 8.5 22.34375 4.203125 15.625 3.40625 0 
L 50.59375 0 
z
" id="Nimbus_Sans_L_Regular-50"/>
      </defs>
      <g transform="translate(77.678329 237.422584)scale(0.2 -0.2)">
       <use transform="scale(0.996264)" xlink:href="#Nimbus_Sans_L_Regular-50"/>
       <use transform="translate(55.391677 0)scale(0.996264)" xlink:href="#Nimbus_Sans_L_Regular-53"/>
      </g>
     </g>
    </g>
    <g id="ytick_3">
     <g id="line2d_6">
      <g>
       <use style="stroke:#000000;stroke-width:0.8;" x="106.834988" xlink:href="#m9846a8e16d" y="183.262164"/>
      </g>
     </g>
     <g id="text_7">
      <!-- 50 -->
      <g transform="translate(77.678329 190.360484)scale(0.2 -0.2)">
       <use transform="scale(0.996264)" xlink:href="#Nimbus_Sans_L_Regular-53"/>
       <use transform="translate(55.391677 0)scale(0.996264)" xlink:href="#Nimbus_Sans_L_Regular-48"/>
      </g>
     </g>
    </g>
    <g id="ytick_4">
     <g id="line2d_7">
      <g>
       <use style="stroke:#000000;stroke-width:0.8;" x="106.834988" xlink:href="#m9846a8e16d" y="136.200064"/>
      </g>
     </g>
     <g id="text_8">
      <!-- 75 -->
      <defs>
       <path d="M 52 70.703125 
L 4.59375 70.703125 
L 4.59375 62 
L 42.90625 62 
C 26 37.78125 19.09375 22.90625 13.796875 -0.5 
L 23.203125 -0.5 
C 27.09375 22.296875 36 41.890625 52 63.296875 
z
" id="Nimbus_Sans_L_Regular-55"/>
      </defs>
      <g transform="translate(77.678329 143.298384)scale(0.2 -0.2)">
       <use transform="scale(0.996264)" xlink:href="#Nimbus_Sans_L_Regular-55"/>
       <use transform="translate(55.391677 0)scale(0.996264)" xlink:href="#Nimbus_Sans_L_Regular-53"/>
      </g>
     </g>
    </g>
    <g id="ytick_5">
     <g id="line2d_8">
      <g>
       <use style="stroke:#000000;stroke-width:0.8;" x="106.834988" xlink:href="#m9846a8e16d" y="89.137964"/>
      </g>
     </g>
     <g id="text_9">
      <!-- 100 -->
      <g transform="translate(66.6 96.236284)scale(0.2 -0.2)">
       <use transform="scale(0.996264)" xlink:href="#Nimbus_Sans_L_Regular-49"/>
       <use transform="translate(55.391677 0)scale(0.996264)" xlink:href="#Nimbus_Sans_L_Regular-48"/>
       <use transform="translate(110.783354 0)scale(0.996264)" xlink:href="#Nimbus_Sans_L_Regular-48"/>
      </g>
     </g>
    </g>
    <g id="ytick_6">
     <g id="line2d_9">
      <g>
       <use style="stroke:#000000;stroke-width:0.8;" x="106.834988" xlink:href="#m9846a8e16d" y="42.075864"/>
      </g>
     </g>
     <g id="text_10">
      <!-- 125 -->
      <g transform="translate(66.6 49.174184)scale(0.2 -0.2)">
       <use transform="scale(0.996264)" xlink:href="#Nimbus_Sans_L_Regular-49"/>
       <use transform="translate(55.391677 0)scale(0.996264)" xlink:href="#Nimbus_Sans_L_Regular-50"/>
       <use transform="translate(110.783354 0)scale(0.996264)" xlink:href="#Nimbus_Sans_L_Regular-53"/>
      </g>
     </g>
    </g>
    <g id="text_11">
     <!-- Mean number of distinct  -->
     <defs>
      <path d="M 46.796875 -0.03125 
L 67.296875 61.171875 
L 67.296875 -0.03125 
L 76.09375 -0.03125 
L 76.09375 73 
L 63.203125 73 
L 42 9.390625 
L 20.40625 73 
L 7.5 73 
L 7.5 -0.03125 
L 16.296875 -0.03125 
L 16.296875 61.171875 
L 37 -0.03125 
z
" id="Nimbus_Sans_L_Regular-77"/>
      <path d="M 7 52.484375 
L 7 0 
L 15.40625 0 
L 15.40625 28.953125 
C 15.40625 39.671875 21 46.6875 29.59375 46.6875 
C 36.203125 46.6875 40.40625 42.671875 40.40625 36.359375 
L 40.40625 0 
L 48.703125 0 
L 48.703125 39.671875 
C 48.703125 48.390625 42.203125 54 32.09375 54 
C 24.296875 54 19.296875 50.984375 14.703125 43.6875 
L 14.703125 52.484375 
z
" id="Nimbus_Sans_L_Regular-110"/>
      <path d="M 48.203125 0.515625 
L 48.203125 53 
L 39.90625 53 
L 39.90625 23.109375 
C 39.90625 12.34375 34.296875 5.3125 25.59375 5.3125 
C 19 5.3125 14.796875 9.328125 14.796875 15.671875 
L 14.796875 53 
L 6.5 53 
L 6.5 12.375 
C 6.5 3.625 13 -2 23.203125 -2 
C 30.90625 -2 35.796875 0.703125 40.703125 7.625 
L 40.703125 0.515625 
z
" id="Nimbus_Sans_L_Regular-117"/>
      <path d="M 5.40625 73 
L 5.40625 -0.03125 
L 12.90625 -0.03125 
L 12.90625 7 
C 16.90625 0.890625 22.203125 -2 29.5 -2 
C 43.296875 -2 52.296875 9.25 52.296875 26.59375 
C 52.296875 43.53125 43.703125 54 29.90625 54 
C 22.703125 54 17.59375 51.28125 13.703125 45.390625 
L 13.703125 73 
z
M 28.296875 46.1875 
C 37.59375 46.1875 43.59375 38.125 43.59375 25.703125 
C 43.59375 13.859375 37.40625 5.8125 28.296875 5.8125 
C 19.5 5.8125 13.703125 13.765625 13.703125 26 
C 13.703125 38.234375 19.5 46.1875 28.296875 46.1875 
z
" id="Nimbus_Sans_L_Regular-98"/>
      <path d="M 27.203125 54 
C 12.5 54 3.59375 43.53125 3.59375 25.984375 
C 3.59375 8.453125 12.40625 -2 27.296875 -2 
C 42 -2 51 8.453125 51 25.59375 
C 51 43.625 42.296875 54 27.203125 54 
z
M 27.296875 46.28125 
C 36.703125 46.28125 42.296875 38.625 42.296875 25.703125 
C 42.296875 13.453125 36.5 5.703125 27.296875 5.703125 
C 18 5.703125 12.296875 13.359375 12.296875 25.984375 
C 12.296875 38.53125 18 46.28125 27.296875 46.28125 
z
" id="Nimbus_Sans_L_Regular-111"/>
      <path d="M 25.796875 52 
L 17.09375 52 
L 17.09375 60.25 
C 17.09375 63.78125 19.09375 65.59375 22.90625 65.59375 
C 23.59375 65.59375 23.90625 65.59375 25.796875 65.59375 
L 25.796875 72.5 
C 23.90625 72.90625 22.796875 73 21.09375 73 
C 13.40625 73 8.796875 68.5625 8.796875 60.984375 
L 8.796875 52 
L 1.796875 52 
L 1.796875 45.1875 
L 8.796875 45.1875 
L 8.796875 -0.40625 
L 17.09375 -0.40625 
L 17.09375 45.1875 
L 25.796875 45.1875 
z
" id="Nimbus_Sans_L_Regular-102"/>
      <path d="M 49.5 73 
L 41.203125 73 
L 41.203125 45.890625 
C 37.703125 51.1875 32.09375 54 25.09375 54 
C 11.5 54 2.59375 43.140625 2.59375 26.484375 
C 2.59375 8.84375 11.296875 -2 25.40625 -2 
C 32.59375 -2 37.59375 0.703125 42.09375 7.203125 
L 42.09375 -0.03125 
L 49.5 -0.03125 
z
M 26.5 46.1875 
C 35.5 46.1875 41.203125 38.234375 41.203125 25.796875 
C 41.203125 13.765625 35.40625 5.8125 26.59375 5.8125 
C 17.40625 5.8125 11.296875 13.859375 11.296875 26 
C 11.296875 38.125 17.40625 46.1875 26.5 46.1875 
z
" id="Nimbus_Sans_L_Regular-100"/>
      <path d="M 25.40625 52.8125 
L 16.796875 52.8125 
L 16.796875 67 
L 8.5 67 
L 8.5 52.8125 
L 1.40625 52.8125 
L 1.40625 46 
L 8.5 46 
L 8.5 6.3125 
C 8.5 1 12.09375 -2 18.59375 -2 
C 20.59375 -2 22.59375 -1.8125 25.40625 -1.296875 
L 25.40625 5.71875 
C 24.296875 5.40625 23 5.3125 21.40625 5.3125 
C 17.796875 5.3125 16.796875 6.3125 16.796875 10.015625 
L 16.796875 46 
L 25.40625 46 
z
" id="Nimbus_Sans_L_Regular-116"/>
      <path d="M 47.09375 34.9375 
C 46.703125 40.03125 45.59375 43.328125 43.59375 46.21875 
C 40 51.109375 33.703125 54 26.40625 54 
C 12.296875 54 3.09375 42.84375 3.09375 25.5 
C 3.09375 8.65625 12.09375 -2 26.296875 -2 
C 38.796875 -2 46.703125 5.46875 47.703125 18.234375 
L 39.296875 18.234375 
C 37.90625 9.875 33.59375 5.703125 26.5 5.703125 
C 17.296875 5.703125 11.796875 13.171875 11.796875 25.5 
C 11.796875 38.53125 17.203125 46.28125 26.296875 46.28125 
C 33.296875 46.28125 37.703125 42.203125 38.703125 34.9375 
z
" id="Nimbus_Sans_L_Regular-99"/>
     </defs>
     <g transform="translate(37.076086 263.460323)rotate(-90)scale(0.2 -0.2)">
      <use transform="scale(0.996264)" xlink:href="#Nimbus_Sans_L_Regular-77"/>
      <use transform="translate(82.98843 0)scale(0.996264)" xlink:href="#Nimbus_Sans_L_Regular-101"/>
      <use transform="translate(138.380107 0)scale(0.996264)" xlink:href="#Nimbus_Sans_L_Regular-97"/>
      <use transform="translate(193.771784 0)scale(0.996264)" xlink:href="#Nimbus_Sans_L_Regular-110"/>
      <use transform="translate(276.858631 0)scale(0.996264)" xlink:href="#Nimbus_Sans_L_Regular-110"/>
      <use transform="translate(331.254211 0)scale(0.996264)" xlink:href="#Nimbus_Sans_L_Regular-117"/>
      <use transform="translate(386.645888 0)scale(0.996264)" xlink:href="#Nimbus_Sans_L_Regular-109"/>
      <use transform="translate(469.634318 0)scale(0.996264)" xlink:href="#Nimbus_Sans_L_Regular-98"/>
      <use transform="translate(525.025995 0)scale(0.996264)" xlink:href="#Nimbus_Sans_L_Regular-101"/>
      <use transform="translate(580.417672 0)scale(0.996264)" xlink:href="#Nimbus_Sans_L_Regular-114"/>
      <use transform="translate(641.288071 0)scale(0.996264)" xlink:href="#Nimbus_Sans_L_Regular-111"/>
      <use transform="translate(696.679748 0)scale(0.996264)" xlink:href="#Nimbus_Sans_L_Regular-102"/>
      <use transform="translate(752.070088 0)scale(0.996264)" xlink:href="#Nimbus_Sans_L_Regular-100"/>
      <use transform="translate(807.461764 0)scale(0.996264)" xlink:href="#Nimbus_Sans_L_Regular-105"/>
      <use transform="translate(829.578549 0)scale(0.996264)" xlink:href="#Nimbus_Sans_L_Regular-115"/>
      <use transform="translate(879.391749 0)scale(0.996264)" xlink:href="#Nimbus_Sans_L_Regular-116"/>
      <use transform="translate(907.086919 0)scale(0.996264)" xlink:href="#Nimbus_Sans_L_Regular-105"/>
      <use transform="translate(929.203703 0)scale(0.996264)" xlink:href="#Nimbus_Sans_L_Regular-110"/>
      <use transform="translate(984.59538 0)scale(0.996264)" xlink:href="#Nimbus_Sans_L_Regular-99"/>
      <use transform="translate(1034.408581 0)scale(0.996264)" xlink:href="#Nimbus_Sans_L_Regular-116"/>
     </g>
     <!-- mutations per cell -->
     <defs>
      <path d="M 5.40625 -22 
L 13.796875 -22 
L 13.796875 5 
C 18.203125 -0.421875 23.09375 -2.8125 29.90625 -2.8125 
C 43.40625 -2.8125 52.296875 8.15625 52.296875 24.984375 
C 52.296875 42.71875 43.703125 53.8125 29.796875 53.8125 
C 22.703125 53.8125 17 50.59375 13.09375 44.390625 
L 13.09375 52.328125 
L 5.40625 52.328125 
z
M 28.40625 46 
C 37.59375 46 43.59375 37.8125 43.59375 25.1875 
C 43.59375 13.171875 37.5 5 28.40625 5 
C 19.59375 5 13.796875 13.078125 13.796875 25.5 
C 13.796875 37.921875 19.59375 46 28.40625 46 
z
" id="Nimbus_Sans_L_Regular-112"/>
      <path d="M 15.203125 73 
L 6.796875 73 
L 6.796875 -0.03125 
L 15.203125 -0.03125 
z
" id="Nimbus_Sans_L_Regular-108"/>
     </defs>
     <g transform="translate(58.356027 235.216635)rotate(-90)scale(0.2 -0.2)">
      <use transform="scale(0.996264)" xlink:href="#Nimbus_Sans_L_Regular-109"/>
      <use transform="translate(81.992333 0)scale(0.996264)" xlink:href="#Nimbus_Sans_L_Regular-117"/>
      <use transform="translate(137.38401 0)scale(0.996264)" xlink:href="#Nimbus_Sans_L_Regular-116"/>
      <use transform="translate(165.07918 0)scale(0.996264)" xlink:href="#Nimbus_Sans_L_Regular-97"/>
      <use transform="translate(220.470857 0)scale(0.996264)" xlink:href="#Nimbus_Sans_L_Regular-116"/>
      <use transform="translate(248.166027 0)scale(0.996264)" xlink:href="#Nimbus_Sans_L_Regular-105"/>
      <use transform="translate(270.282811 0)scale(0.996264)" xlink:href="#Nimbus_Sans_L_Regular-111"/>
      <use transform="translate(325.674488 0)scale(0.996264)" xlink:href="#Nimbus_Sans_L_Regular-110"/>
      <use transform="translate(381.066165 0)scale(0.996264)" xlink:href="#Nimbus_Sans_L_Regular-115"/>
      <use transform="translate(458.574535 0)scale(0.996264)" xlink:href="#Nimbus_Sans_L_Regular-112"/>
      <use transform="translate(513.966212 0)scale(0.996264)" xlink:href="#Nimbus_Sans_L_Regular-101"/>
      <use transform="translate(569.357889 0)scale(0.996264)" xlink:href="#Nimbus_Sans_L_Regular-114"/>
      <use transform="translate(630.228288 0)scale(0.996264)" xlink:href="#Nimbus_Sans_L_Regular-99"/>
      <use transform="translate(680.041489 0)scale(0.996264)" xlink:href="#Nimbus_Sans_L_Regular-101"/>
      <use transform="translate(735.433166 0)scale(0.996264)" xlink:href="#Nimbus_Sans_L_Regular-108"/>
      <use transform="translate(757.54995 0)scale(0.996264)" xlink:href="#Nimbus_Sans_L_Regular-108"/>
     </g>
    </g>
   </g>
   <g id="line2d_10">
    <path clip-path="url(#pb2bb35d327)" d="M 119.146569 277.386364 
L 131.458149 270.626364 
L 143.76973 269.0319 
L 156.08131 268.073715 
L 168.392891 267.399786 
L 180.704471 266.439719 
L 193.016052 265.760142 
L 205.327633 264.92432 
L 217.639213 264.214623 
L 229.950794 263.486102 
L 242.262374 262.471443 
L 254.573955 262.128831 
L 266.885536 261.304303 
L 279.197116 260.291526 
L 291.508697 259.732429 
L 303.820277 258.9832 
L 316.131858 258.183144 
L 328.443439 257.480978 
L 340.755019 256.788224 
L 353.0666 256.063467 
L 365.37818 255.242704 
" style="fill:none;opacity:0.4;stroke:#32cd00;stroke-linecap:square;stroke-width:1.5;"/>
    <defs>
     <path d="M -0 7.071068 
L 4.242641 0 
L -0 -7.071068 
L -4.242641 -0 
z
" id="m817777072c" style="stroke:#32cd00;stroke-linejoin:miter;"/>
    </defs>
    <g clip-path="url(#pb2bb35d327)">
     <use style="fill:#32cd00;opacity:0.4;stroke:#32cd00;stroke-linejoin:miter;" x="119.146569" xlink:href="#m817777072c" y="277.386364"/>
     <use style="fill:#32cd00;opacity:0.4;stroke:#32cd00;stroke-linejoin:miter;" x="131.458149" xlink:href="#m817777072c" y="270.626364"/>
     <use style="fill:#32cd00;opacity:0.4;stroke:#32cd00;stroke-linejoin:miter;" x="143.76973" xlink:href="#m817777072c" y="269.0319"/>
     <use style="fill:#32cd00;opacity:0.4;stroke:#32cd00;stroke-linejoin:miter;" x="156.08131" xlink:href="#m817777072c" y="268.073715"/>
     <use style="fill:#32cd00;opacity:0.4;stroke:#32cd00;stroke-linejoin:miter;" x="168.392891" xlink:href="#m817777072c" y="267.399786"/>
     <use style="fill:#32cd00;opacity:0.4;stroke:#32cd00;stroke-linejoin:miter;" x="180.704471" xlink:href="#m817777072c" y="266.439719"/>
     <use style="fill:#32cd00;opacity:0.4;stroke:#32cd00;stroke-linejoin:miter;" x="193.016052" xlink:href="#m817777072c" y="265.760142"/>
     <use style="fill:#32cd00;opacity:0.4;stroke:#32cd00;stroke-linejoin:miter;" x="205.327633" xlink:href="#m817777072c" y="264.92432"/>
     <use style="fill:#32cd00;opacity:0.4;stroke:#32cd00;stroke-linejoin:miter;" x="217.639213" xlink:href="#m817777072c" y="264.214623"/>
     <use style="fill:#32cd00;opacity:0.4;stroke:#32cd00;stroke-linejoin:miter;" x="229.950794" xlink:href="#m817777072c" y="263.486102"/>
     <use style="fill:#32cd00;opacity:0.4;stroke:#32cd00;stroke-linejoin:miter;" x="242.262374" xlink:href="#m817777072c" y="262.471443"/>
     <use style="fill:#32cd00;opacity:0.4;stroke:#32cd00;stroke-linejoin:miter;" x="254.573955" xlink:href="#m817777072c" y="262.128831"/>
     <use style="fill:#32cd00;opacity:0.4;stroke:#32cd00;stroke-linejoin:miter;" x="266.885536" xlink:href="#m817777072c" y="261.304303"/>
     <use style="fill:#32cd00;opacity:0.4;stroke:#32cd00;stroke-linejoin:miter;" x="279.197116" xlink:href="#m817777072c" y="260.291526"/>
     <use style="fill:#32cd00;opacity:0.4;stroke:#32cd00;stroke-linejoin:miter;" x="291.508697" xlink:href="#m817777072c" y="259.732429"/>
     <use style="fill:#32cd00;opacity:0.4;stroke:#32cd00;stroke-linejoin:miter;" x="303.820277" xlink:href="#m817777072c" y="258.9832"/>
     <use style="fill:#32cd00;opacity:0.4;stroke:#32cd00;stroke-linejoin:miter;" x="316.131858" xlink:href="#m817777072c" y="258.183144"/>
     <use style="fill:#32cd00;opacity:0.4;stroke:#32cd00;stroke-linejoin:miter;" x="328.443439" xlink:href="#m817777072c" y="257.480978"/>
     <use style="fill:#32cd00;opacity:0.4;stroke:#32cd00;stroke-linejoin:miter;" x="340.755019" xlink:href="#m817777072c" y="256.788224"/>
     <use style="fill:#32cd00;opacity:0.4;stroke:#32cd00;stroke-linejoin:miter;" x="353.0666" xlink:href="#m817777072c" y="256.063467"/>
     <use style="fill:#32cd00;opacity:0.4;stroke:#32cd00;stroke-linejoin:miter;" x="365.37818" xlink:href="#m817777072c" y="255.242704"/>
    </g>
   </g>
   <g id="line2d_11">
    <path clip-path="url(#pb2bb35d327)" d="M 119.146569 277.386364 
L 131.458149 244.442894 
L 143.76973 238.74085 
L 156.08131 234.657742 
L 168.392891 231.916845 
L 180.704471 229.970357 
L 193.016052 227.329232 
L 205.327633 225.791242 
L 217.639213 224.313492 
L 229.950794 222.540192 
L 242.262374 221.177274 
L 254.573955 220.083551 
L 266.885536 219.659992 
L 279.197116 218.39308 
L 291.508697 217.670206 
L 303.820277 216.663077 
L 316.131858 215.288864 
L 328.443439 214.328797 
L 340.755019 213.854411 
L 353.0666 212.924464 
L 365.37818 212.058522 
" style="fill:none;opacity:0.4;stroke:#986700;stroke-linecap:square;stroke-width:1.5;"/>
    <defs>
     <path d="M 0 5 
C 1.326016 5 2.597899 4.473168 3.535534 3.535534 
C 4.473168 2.597899 5 1.326016 5 0 
C 5 -1.326016 4.473168 -2.597899 3.535534 -3.535534 
C 2.597899 -4.473168 1.326016 -5 0 -5 
C -1.326016 -5 -2.597899 -4.473168 -3.535534 -3.535534 
C -4.473168 -2.597899 -5 -1.326016 -5 0 
C -5 1.326016 -4.473168 2.597899 -3.535534 3.535534 
C -2.597899 4.473168 -1.326016 5 0 5 
z
" id="md73b42c551" style="stroke:#986700;"/>
    </defs>
    <g clip-path="url(#pb2bb35d327)">
     <use style="fill:#986700;opacity:0.4;stroke:#986700;" x="119.146569" xlink:href="#md73b42c551" y="277.386364"/>
     <use style="fill:#986700;opacity:0.4;stroke:#986700;" x="131.458149" xlink:href="#md73b42c551" y="244.442894"/>
     <use style="fill:#986700;opacity:0.4;stroke:#986700;" x="143.76973" xlink:href="#md73b42c551" y="238.74085"/>
     <use style="fill:#986700;opacity:0.4;stroke:#986700;" x="156.08131" xlink:href="#md73b42c551" y="234.657742"/>
     <use style="fill:#986700;opacity:0.4;stroke:#986700;" x="168.392891" xlink:href="#md73b42c551" y="231.916845"/>
     <use style="fill:#986700;opacity:0.4;stroke:#986700;" x="180.704471" xlink:href="#md73b42c551" y="229.970357"/>
     <use style="fill:#986700;opacity:0.4;stroke:#986700;" x="193.016052" xlink:href="#md73b42c551" y="227.329232"/>
     <use style="fill:#986700;opacity:0.4;stroke:#986700;" x="205.327633" xlink:href="#md73b42c551" y="225.791242"/>
     <use style="fill:#986700;opacity:0.4;stroke:#986700;" x="217.639213" xlink:href="#md73b42c551" y="224.313492"/>
     <use style="fill:#986700;opacity:0.4;stroke:#986700;" x="229.950794" xlink:href="#md73b42c551" y="222.540192"/>
     <use style="fill:#986700;opacity:0.4;stroke:#986700;" x="242.262374" xlink:href="#md73b42c551" y="221.177274"/>
     <use style="fill:#986700;opacity:0.4;stroke:#986700;" x="254.573955" xlink:href="#md73b42c551" y="220.083551"/>
     <use style="fill:#986700;opacity:0.4;stroke:#986700;" x="266.885536" xlink:href="#md73b42c551" y="219.659992"/>
     <use style="fill:#986700;opacity:0.4;stroke:#986700;" x="279.197116" xlink:href="#md73b42c551" y="218.39308"/>
     <use style="fill:#986700;opacity:0.4;stroke:#986700;" x="291.508697" xlink:href="#md73b42c551" y="217.670206"/>
     <use style="fill:#986700;opacity:0.4;stroke:#986700;" x="303.820277" xlink:href="#md73b42c551" y="216.663077"/>
     <use style="fill:#986700;opacity:0.4;stroke:#986700;" x="316.131858" xlink:href="#md73b42c551" y="215.288864"/>
     <use style="fill:#986700;opacity:0.4;stroke:#986700;" x="328.443439" xlink:href="#md73b42c551" y="214.328797"/>
     <use style="fill:#986700;opacity:0.4;stroke:#986700;" x="340.755019" xlink:href="#md73b42c551" y="213.854411"/>
     <use style="fill:#986700;opacity:0.4;stroke:#986700;" x="353.0666" xlink:href="#md73b42c551" y="212.924464"/>
     <use style="fill:#986700;opacity:0.4;stroke:#986700;" x="365.37818" xlink:href="#md73b42c551" y="212.058522"/>
    </g>
   </g>
   <g id="line2d_12">
    <path clip-path="url(#pb2bb35d327)" d="M 119.146569 277.386364 
L 131.458149 211.269761 
L 143.76973 199.026085 
L 156.08131 191.65616 
L 168.392891 186.34379 
L 180.704471 183.307343 
L 193.016052 179.374834 
L 205.327633 176.409922 
L 217.639213 174.25636 
L 229.950794 171.775247 
L 242.262374 169.92853 
L 254.573955 167.861562 
L 266.885536 165.461395 
L 279.197116 163.089465 
L 291.508697 162.046569 
L 303.820277 160.282682 
L 316.131858 159.785706 
L 328.443439 158.085823 
L 340.755019 156.596778 
L 353.0666 155.879552 
L 365.37818 155.352456 
" style="fill:none;opacity:0.4;stroke:#fe0100;stroke-linecap:square;stroke-width:1.5;"/>
    <defs>
     <path d="M -5 5 
L 5 5 
L 5 -5 
L -5 -5 
z
" id="me5d09f4b8f" style="stroke:#fe0100;stroke-linejoin:miter;"/>
    </defs>
    <g clip-path="url(#pb2bb35d327)">
     <use style="fill:#fe0100;opacity:0.4;stroke:#fe0100;stroke-linejoin:miter;" x="119.146569" xlink:href="#me5d09f4b8f" y="277.386364"/>
     <use style="fill:#fe0100;opacity:0.4;stroke:#fe0100;stroke-linejoin:miter;" x="131.458149" xlink:href="#me5d09f4b8f" y="211.269761"/>
     <use style="fill:#fe0100;opacity:0.4;stroke:#fe0100;stroke-linejoin:miter;" x="143.76973" xlink:href="#me5d09f4b8f" y="199.026085"/>
     <use style="fill:#fe0100;opacity:0.4;stroke:#fe0100;stroke-linejoin:miter;" x="156.08131" xlink:href="#me5d09f4b8f" y="191.65616"/>
     <use style="fill:#fe0100;opacity:0.4;stroke:#fe0100;stroke-linejoin:miter;" x="168.392891" xlink:href="#me5d09f4b8f" y="186.34379"/>
     <use style="fill:#fe0100;opacity:0.4;stroke:#fe0100;stroke-linejoin:miter;" x="180.704471" xlink:href="#me5d09f4b8f" y="183.307343"/>
     <use style="fill:#fe0100;opacity:0.4;stroke:#fe0100;stroke-linejoin:miter;" x="193.016052" xlink:href="#me5d09f4b8f" y="179.374834"/>
     <use style="fill:#fe0100;opacity:0.4;stroke:#fe0100;stroke-linejoin:miter;" x="205.327633" xlink:href="#me5d09f4b8f" y="176.409922"/>
     <use style="fill:#fe0100;opacity:0.4;stroke:#fe0100;stroke-linejoin:miter;" x="217.639213" xlink:href="#me5d09f4b8f" y="174.25636"/>
     <use style="fill:#fe0100;opacity:0.4;stroke:#fe0100;stroke-linejoin:miter;" x="229.950794" xlink:href="#me5d09f4b8f" y="171.775247"/>
     <use style="fill:#fe0100;opacity:0.4;stroke:#fe0100;stroke-linejoin:miter;" x="242.262374" xlink:href="#me5d09f4b8f" y="169.92853"/>
     <use style="fill:#fe0100;opacity:0.4;stroke:#fe0100;stroke-linejoin:miter;" x="254.573955" xlink:href="#me5d09f4b8f" y="167.861562"/>
     <use style="fill:#fe0100;opacity:0.4;stroke:#fe0100;stroke-linejoin:miter;" x="266.885536" xlink:href="#me5d09f4b8f" y="165.461395"/>
     <use style="fill:#fe0100;opacity:0.4;stroke:#fe0100;stroke-linejoin:miter;" x="279.197116" xlink:href="#me5d09f4b8f" y="163.089465"/>
     <use style="fill:#fe0100;opacity:0.4;stroke:#fe0100;stroke-linejoin:miter;" x="291.508697" xlink:href="#me5d09f4b8f" y="162.046569"/>
     <use style="fill:#fe0100;opacity:0.4;stroke:#fe0100;stroke-linejoin:miter;" x="303.820277" xlink:href="#me5d09f4b8f" y="160.282682"/>
     <use style="fill:#fe0100;opacity:0.4;stroke:#fe0100;stroke-linejoin:miter;" x="316.131858" xlink:href="#me5d09f4b8f" y="159.785706"/>
     <use style="fill:#fe0100;opacity:0.4;stroke:#fe0100;stroke-linejoin:miter;" x="328.443439" xlink:href="#me5d09f4b8f" y="158.085823"/>
     <use style="fill:#fe0100;opacity:0.4;stroke:#fe0100;stroke-linejoin:miter;" x="340.755019" xlink:href="#me5d09f4b8f" y="156.596778"/>
     <use style="fill:#fe0100;opacity:0.4;stroke:#fe0100;stroke-linejoin:miter;" x="353.0666" xlink:href="#me5d09f4b8f" y="155.879552"/>
     <use style="fill:#fe0100;opacity:0.4;stroke:#fe0100;stroke-linejoin:miter;" x="365.37818" xlink:href="#me5d09f4b8f" y="155.352456"/>
    </g>
   </g>
   <g id="line2d_13">
    <path clip-path="url(#pb2bb35d327)" d="M 119.146569 277.386364 
L 131.458149 179.096227 
L 143.76973 159.949482 
L 156.08131 149.739251 
L 168.392891 142.682291 
L 180.704471 135.734625 
L 193.016052 130.484775 
L 205.327633 126.107387 
L 217.639213 121.988158 
L 229.950794 118.9091 
L 242.262374 115.545502 
L 254.573955 114.264132 
L 266.885536 110.056337 
L 279.197116 108.418821 
L 291.508697 106.091626 
L 303.820277 103.655138 
L 316.131858 101.399549 
L 328.443439 100.47244 
L 340.755019 98.953639 
L 353.0666 97.408457 
L 365.37818 96.620791 
" style="fill:none;opacity:0.4;stroke:#980067;stroke-linecap:square;stroke-width:1.5;"/>
    <defs>
     <path d="M 0 -5 
L -5 5 
L 5 5 
z
" id="mc5c066a442" style="stroke:#980067;stroke-linejoin:miter;"/>
    </defs>
    <g clip-path="url(#pb2bb35d327)">
     <use style="fill:#980067;opacity:0.4;stroke:#980067;stroke-linejoin:miter;" x="119.146569" xlink:href="#mc5c066a442" y="277.386364"/>
     <use style="fill:#980067;opacity:0.4;stroke:#980067;stroke-linejoin:miter;" x="131.458149" xlink:href="#mc5c066a442" y="179.096227"/>
     <use style="fill:#980067;opacity:0.4;stroke:#980067;stroke-linejoin:miter;" x="143.76973" xlink:href="#mc5c066a442" y="159.949482"/>
     <use style="fill:#980067;opacity:0.4;stroke:#980067;stroke-linejoin:miter;" x="156.08131" xlink:href="#mc5c066a442" y="149.739251"/>
     <use style="fill:#980067;opacity:0.4;stroke:#980067;stroke-linejoin:miter;" x="168.392891" xlink:href="#mc5c066a442" y="142.682291"/>
     <use style="fill:#980067;opacity:0.4;stroke:#980067;stroke-linejoin:miter;" x="180.704471" xlink:href="#mc5c066a442" y="135.734625"/>
     <use style="fill:#980067;opacity:0.4;stroke:#980067;stroke-linejoin:miter;" x="193.016052" xlink:href="#mc5c066a442" y="130.484775"/>
     <use style="fill:#980067;opacity:0.4;stroke:#980067;stroke-linejoin:miter;" x="205.327633" xlink:href="#mc5c066a442" y="126.107387"/>
     <use style="fill:#980067;opacity:0.4;stroke:#980067;stroke-linejoin:miter;" x="217.639213" xlink:href="#mc5c066a442" y="121.988158"/>
     <use style="fill:#980067;opacity:0.4;stroke:#980067;stroke-linejoin:miter;" x="229.950794" xlink:href="#mc5c066a442" y="118.9091"/>
     <use style="fill:#980067;opacity:0.4;stroke:#980067;stroke-linejoin:miter;" x="242.262374" xlink:href="#mc5c066a442" y="115.545502"/>
     <use style="fill:#980067;opacity:0.4;stroke:#980067;stroke-linejoin:miter;" x="254.573955" xlink:href="#mc5c066a442" y="114.264132"/>
     <use style="fill:#980067;opacity:0.4;stroke:#980067;stroke-linejoin:miter;" x="266.885536" xlink:href="#mc5c066a442" y="110.056337"/>
     <use style="fill:#980067;opacity:0.4;stroke:#980067;stroke-linejoin:miter;" x="279.197116" xlink:href="#mc5c066a442" y="108.418821"/>
     <use style="fill:#980067;opacity:0.4;stroke:#980067;stroke-linejoin:miter;" x="291.508697" xlink:href="#mc5c066a442" y="106.091626"/>
     <use style="fill:#980067;opacity:0.4;stroke:#980067;stroke-linejoin:miter;" x="303.820277" xlink:href="#mc5c066a442" y="103.655138"/>
     <use style="fill:#980067;opacity:0.4;stroke:#980067;stroke-linejoin:miter;" x="316.131858" xlink:href="#mc5c066a442" y="101.399549"/>
     <use style="fill:#980067;opacity:0.4;stroke:#980067;stroke-linejoin:miter;" x="328.443439" xlink:href="#mc5c066a442" y="100.47244"/>
     <use style="fill:#980067;opacity:0.4;stroke:#980067;stroke-linejoin:miter;" x="340.755019" xlink:href="#mc5c066a442" y="98.953639"/>
     <use style="fill:#980067;opacity:0.4;stroke:#980067;stroke-linejoin:miter;" x="353.0666" xlink:href="#mc5c066a442" y="97.408457"/>
     <use style="fill:#980067;opacity:0.4;stroke:#980067;stroke-linejoin:miter;" x="365.37818" xlink:href="#mc5c066a442" y="96.620791"/>
    </g>
   </g>
   <g id="line2d_14">
    <path clip-path="url(#pb2bb35d327)" d="M 119.146569 277.386364 
L 131.458149 145.589894 
L 143.76973 121.767059 
L 156.08131 107.571247 
L 168.392891 98.414845 
L 180.704471 89.666942 
L 193.016052 83.051893 
L 205.327633 77.084419 
L 217.639213 71.72687 
L 229.950794 66.740169 
L 242.262374 62.56482 
L 254.573955 59.596143 
L 266.885536 57.340927 
L 279.197116 53.78115 
L 291.508697 51.230384 
L 303.820277 48.348301 
L 316.131858 45.703411 
L 328.443439 43.532907 
L 340.755019 40.773185 
L 353.0666 39.543923 
L 365.37818 37.113636 
" style="fill:none;opacity:0.4;stroke:#3200cd;stroke-linecap:square;stroke-width:1.5;"/>
    <defs>
     <path d="M 0 -5 
L -4.330127 -2.5 
L -4.330127 2.5 
L -0 5 
L 4.330127 2.5 
L 4.330127 -2.5 
z
" id="m4ed275c07a" style="stroke:#3200cd;stroke-linejoin:miter;"/>
    </defs>
    <g clip-path="url(#pb2bb35d327)">
     <use style="fill:#3200cd;opacity:0.4;stroke:#3200cd;stroke-linejoin:miter;" x="119.146569" xlink:href="#m4ed275c07a" y="277.386364"/>
     <use style="fill:#3200cd;opacity:0.4;stroke:#3200cd;stroke-linejoin:miter;" x="131.458149" xlink:href="#m4ed275c07a" y="145.589894"/>
     <use style="fill:#3200cd;opacity:0.4;stroke:#3200cd;stroke-linejoin:miter;" x="143.76973" xlink:href="#m4ed275c07a" y="121.767059"/>
     <use style="fill:#3200cd;opacity:0.4;stroke:#3200cd;stroke-linejoin:miter;" x="156.08131" xlink:href="#m4ed275c07a" y="107.571247"/>
     <use style="fill:#3200cd;opacity:0.4;stroke:#3200cd;stroke-linejoin:miter;" x="168.392891" xlink:href="#m4ed275c07a" y="98.414845"/>
     <use style="fill:#3200cd;opacity:0.4;stroke:#3200cd;stroke-linejoin:miter;" x="180.704471" xlink:href="#m4ed275c07a" y="89.666942"/>
     <use style="fill:#3200cd;opacity:0.4;stroke:#3200cd;stroke-linejoin:miter;" x="193.016052" xlink:href="#m4ed275c07a" y="83.051893"/>
     <use style="fill:#3200cd;opacity:0.4;stroke:#3200cd;stroke-linejoin:miter;" x="205.327633" xlink:href="#m4ed275c07a" y="77.084419"/>
     <use style="fill:#3200cd;opacity:0.4;stroke:#3200cd;stroke-linejoin:miter;" x="217.639213" xlink:href="#m4ed275c07a" y="71.72687"/>
     <use style="fill:#3200cd;opacity:0.4;stroke:#3200cd;stroke-linejoin:miter;" x="229.950794" xlink:href="#m4ed275c07a" y="66.740169"/>
     <use style="fill:#3200cd;opacity:0.4;stroke:#3200cd;stroke-linejoin:miter;" x="242.262374" xlink:href="#m4ed275c07a" y="62.56482"/>
     <use style="fill:#3200cd;opacity:0.4;stroke:#3200cd;stroke-linejoin:miter;" x="254.573955" xlink:href="#m4ed275c07a" y="59.596143"/>
     <use style="fill:#3200cd;opacity:0.4;stroke:#3200cd;stroke-linejoin:miter;" x="266.885536" xlink:href="#m4ed275c07a" y="57.340927"/>
     <use style="fill:#3200cd;opacity:0.4;stroke:#3200cd;stroke-linejoin:miter;" x="279.197116" xlink:href="#m4ed275c07a" y="53.78115"/>
     <use style="fill:#3200cd;opacity:0.4;stroke:#3200cd;stroke-linejoin:miter;" x="291.508697" xlink:href="#m4ed275c07a" y="51.230384"/>
     <use style="fill:#3200cd;opacity:0.4;stroke:#3200cd;stroke-linejoin:miter;" x="303.820277" xlink:href="#m4ed275c07a" y="48.348301"/>
     <use style="fill:#3200cd;opacity:0.4;stroke:#3200cd;stroke-linejoin:miter;" x="316.131858" xlink:href="#m4ed275c07a" y="45.703411"/>
     <use style="fill:#3200cd;opacity:0.4;stroke:#3200cd;stroke-linejoin:miter;" x="328.443439" xlink:href="#m4ed275c07a" y="43.532907"/>
     <use style="fill:#3200cd;opacity:0.4;stroke:#3200cd;stroke-linejoin:miter;" x="340.755019" xlink:href="#m4ed275c07a" y="40.773185"/>
     <use style="fill:#3200cd;opacity:0.4;stroke:#3200cd;stroke-linejoin:miter;" x="353.0666" xlink:href="#m4ed275c07a" y="39.543923"/>
     <use style="fill:#3200cd;opacity:0.4;stroke:#3200cd;stroke-linejoin:miter;" x="365.37818" xlink:href="#m4ed275c07a" y="37.113636"/>
    </g>
   </g>
   <g id="patch_3">
    <path d="M 106.834988 289.4 
L 106.834988 25.1 
" style="fill:none;stroke:#000000;stroke-linecap:square;stroke-linejoin:miter;stroke-width:0.8;"/>
   </g>
   <g id="patch_4">
    <path d="M 377.689761 289.4 
L 377.689761 25.1 
" style="fill:none;stroke:#000000;stroke-linecap:square;stroke-linejoin:miter;stroke-width:0.8;"/>
   </g>
   <g id="patch_5">
    <path d="M 106.834988 289.4 
L 377.689761 289.4 
" style="fill:none;stroke:#000000;stroke-linecap:square;stroke-linejoin:miter;stroke-width:0.8;"/>
   </g>
   <g id="patch_6">
    <path d="M 106.834988 25.1 
L 377.689761 25.1 
" style="fill:none;stroke:#000000;stroke-linecap:square;stroke-linejoin:miter;stroke-width:0.8;"/>
   </g>
   <g id="legend_1">
    <g id="patch_7">
     <path d="M 113.834988 104.201533 
L 187.257154 104.201533 
Q 189.257154 104.201533 189.257154 102.201533 
L 189.257154 32.1 
Q 189.257154 30.1 187.257154 30.1 
L 113.834988 30.1 
Q 111.834988 30.1 111.834988 32.1 
L 111.834988 102.201533 
Q 111.834988 104.201533 113.834988 104.201533 
z
" style="fill:#ffffff;opacity:0.8;stroke:#cccccc;stroke-linejoin:miter;"/>
    </g>
    <g id="line2d_15">
     <path d="M 115.834988 37.69832 
L 135.834988 37.69832 
" style="fill:none;opacity:0.4;stroke:#32cd00;stroke-linecap:square;stroke-width:1.5;"/>
    </g>
    <g id="line2d_16">
     <g>
      <use style="fill:#32cd00;opacity:0.4;stroke:#32cd00;stroke-linejoin:miter;" x="125.834988" xlink:href="#m817777072c" y="37.69832"/>
     </g>
    </g>
    <g id="text_12">
     <!-- $n=$ 100 -->
     <defs>
      <path d="M 20.59375 29.234375 
C 20.796875 29.84375 23.296875 34.828125 27 38.015625 
C 29.59375 40.40625 33 42.015625 36.90625 42.015625 
C 40.90625 42.015625 42.296875 39.015625 42.296875 35.03125 
C 42.296875 29.34375 38.203125 17.96875 36.203125 12.578125 
C 35.296875 10.171875 34.796875 8.875 34.796875 7.078125 
C 34.796875 2.59375 37.90625 -1 42.703125 -1 
C 52 -1 55.5 13.671875 55.5 14.265625 
C 55.5 14.765625 55.09375 15.171875 54.5 15.171875 
C 53.59375 15.171875 53.5 14.875 53 13.171875 
C 50.703125 4.984375 46.90625 1 43 1 
C 42 1 40.40625 1 40.40625 4.203125 
C 40.40625 6.703125 41.5 9.703125 42.09375 11.09375 
C 44.09375 16.609375 48.296875 27.8125 48.296875 33.515625 
C 48.296875 39.5 44.796875 44 37.203125 44 
C 28.296875 44 23.59375 37.734375 21.796875 35.234375 
C 21.5 40.90625 17.40625 44 13 44 
C 9.796875 44 7.59375 42.109375 5.90625 38.71875 
C 4.09375 35.125 2.703125 29.140625 2.703125 28.734375 
C 2.703125 28.34375 3.09375 27.84375 3.796875 27.84375 
C 4.59375 27.84375 4.703125 27.9375 5.296875 30.234375 
C 6.90625 36.328125 8.703125 42.015625 12.703125 42.015625 
C 15 42.015625 15.796875 40.40625 15.796875 37.421875 
C 15.796875 35.21875 14.796875 31.328125 14.09375 28.234375 
L 11.296875 17.46875 
C 10.90625 15.5625 9.796875 11.078125 9.296875 9.28125 
C 8.59375 6.6875 7.5 2 7.5 1.5 
C 7.5 0.09375 8.59375 -1 10.09375 -1 
C 11.296875 -1 12.703125 -0.40625 13.5 1.09375 
C 13.703125 1.59375 14.59375 5.09375 15.09375 7.078125 
L 17.296875 16.0625 
z
" id="CMMI12-110"/>
      <path d="M 64.296875 31.515625 
C 65.796875 31.515625 67.296875 31.515625 67.296875 33.203125 
C 67.296875 35 65.59375 35 63.90625 35 
L 8 35 
C 6.296875 35 4.59375 35 4.59375 33.203125 
C 4.59375 31.515625 6.09375 31.515625 7.59375 31.515625 
z
M 63.90625 14 
C 65.59375 14 67.296875 14 67.296875 15.796875 
C 67.296875 17.484375 65.796875 17.484375 64.296875 17.484375 
L 7.59375 17.484375 
C 6.09375 17.484375 4.59375 17.484375 4.59375 15.796875 
C 4.59375 14 6.296875 14 8 14 
z
" id="CMR17-61"/>
     </defs>
     <g transform="translate(143.834988 41.19832)scale(0.1 -0.1)">
      <use transform="scale(0.996264)" xlink:href="#CMMI12-110"/>
      <use transform="translate(85.904056 0)scale(0.996264)" xlink:href="#CMR17-61"/>
      <use transform="translate(185.314014 0)scale(0.996264)" xlink:href="#Nimbus_Sans_L_Regular-49"/>
      <use transform="translate(240.705691 0)scale(0.996264)" xlink:href="#Nimbus_Sans_L_Regular-48"/>
      <use transform="translate(296.097368 0)scale(0.996264)" xlink:href="#Nimbus_Sans_L_Regular-48"/>
     </g>
    </g>
    <g id="line2d_17">
     <path d="M 115.834988 51.918627 
L 135.834988 51.918627 
" style="fill:none;opacity:0.4;stroke:#986700;stroke-linecap:square;stroke-width:1.5;"/>
    </g>
    <g id="line2d_18">
     <g>
      <use style="fill:#986700;opacity:0.4;stroke:#986700;" x="125.834988" xlink:href="#md73b42c551" y="51.918627"/>
     </g>
    </g>
    <g id="text_13">
     <!-- $n=$ 500 -->
     <g transform="translate(143.834988 55.418627)scale(0.1 -0.1)">
      <use transform="scale(0.996264)" xlink:href="#CMMI12-110"/>
      <use transform="translate(85.904056 0)scale(0.996264)" xlink:href="#CMR17-61"/>
      <use transform="translate(185.314014 0)scale(0.996264)" xlink:href="#Nimbus_Sans_L_Regular-53"/>
      <use transform="translate(240.705691 0)scale(0.996264)" xlink:href="#Nimbus_Sans_L_Regular-48"/>
      <use transform="translate(296.097368 0)scale(0.996264)" xlink:href="#Nimbus_Sans_L_Regular-48"/>
     </g>
    </g>
    <g id="line2d_19">
     <path d="M 115.834988 66.138934 
L 135.834988 66.138934 
" style="fill:none;opacity:0.4;stroke:#fe0100;stroke-linecap:square;stroke-width:1.5;"/>
    </g>
    <g id="line2d_20">
     <g>
      <use style="fill:#fe0100;opacity:0.4;stroke:#fe0100;stroke-linejoin:miter;" x="125.834988" xlink:href="#me5d09f4b8f" y="66.138934"/>
     </g>
    </g>
    <g id="text_14">
     <!-- $n=$ 1000 -->
     <g transform="translate(143.834988 69.638934)scale(0.1 -0.1)">
      <use transform="scale(0.996264)" xlink:href="#CMMI12-110"/>
      <use transform="translate(85.904056 0)scale(0.996264)" xlink:href="#CMR17-61"/>
      <use transform="translate(185.314014 0)scale(0.996264)" xlink:href="#Nimbus_Sans_L_Regular-49"/>
      <use transform="translate(240.705691 0)scale(0.996264)" xlink:href="#Nimbus_Sans_L_Regular-48"/>
      <use transform="translate(296.097368 0)scale(0.996264)" xlink:href="#Nimbus_Sans_L_Regular-48"/>
      <use transform="translate(351.489045 0)scale(0.996264)" xlink:href="#Nimbus_Sans_L_Regular-48"/>
     </g>
    </g>
    <g id="line2d_21">
     <path d="M 115.834988 80.35924 
L 135.834988 80.35924 
" style="fill:none;opacity:0.4;stroke:#980067;stroke-linecap:square;stroke-width:1.5;"/>
    </g>
    <g id="line2d_22">
     <g>
      <use style="fill:#980067;opacity:0.4;stroke:#980067;stroke-linejoin:miter;" x="125.834988" xlink:href="#mc5c066a442" y="80.35924"/>
     </g>
    </g>
    <g id="text_15">
     <!-- $n=$ 1500 -->
     <g transform="translate(143.834988 83.85924)scale(0.1 -0.1)">
      <use transform="scale(0.996264)" xlink:href="#CMMI12-110"/>
      <use transform="translate(85.904056 0)scale(0.996264)" xlink:href="#CMR17-61"/>
      <use transform="translate(185.314014 0)scale(0.996264)" xlink:href="#Nimbus_Sans_L_Regular-49"/>
      <use transform="translate(240.705691 0)scale(0.996264)" xlink:href="#Nimbus_Sans_L_Regular-53"/>
      <use transform="translate(296.097368 0)scale(0.996264)" xlink:href="#Nimbus_Sans_L_Regular-48"/>
      <use transform="translate(351.489045 0)scale(0.996264)" xlink:href="#Nimbus_Sans_L_Regular-48"/>
     </g>
    </g>
    <g id="line2d_23">
     <path d="M 115.834988 94.579547 
L 135.834988 94.579547 
" style="fill:none;opacity:0.4;stroke:#3200cd;stroke-linecap:square;stroke-width:1.5;"/>
    </g>
    <g id="line2d_24">
     <g>
      <use style="fill:#3200cd;opacity:0.4;stroke:#3200cd;stroke-linejoin:miter;" x="125.834988" xlink:href="#m4ed275c07a" y="94.579547"/>
     </g>
    </g>
    <g id="text_16">
     <!-- $n=$ 2000 -->
     <g transform="translate(143.834988 98.079547)scale(0.1 -0.1)">
      <use transform="scale(0.996264)" xlink:href="#CMMI12-110"/>
      <use transform="translate(85.904056 0)scale(0.996264)" xlink:href="#CMR17-61"/>
      <use transform="translate(185.314014 0)scale(0.996264)" xlink:href="#Nimbus_Sans_L_Regular-50"/>
      <use transform="translate(240.705691 0)scale(0.996264)" xlink:href="#Nimbus_Sans_L_Regular-48"/>
      <use transform="translate(296.097368 0)scale(0.996264)" xlink:href="#Nimbus_Sans_L_Regular-48"/>
      <use transform="translate(351.489045 0)scale(0.996264)" xlink:href="#Nimbus_Sans_L_Regular-48"/>
     </g>
    </g>
   </g>
  </g>
  <g id="axes_2">
   <g id="patch_8">
    <path d="M 422.456659 289.4 
L 693.311432 289.4 
L 693.311432 25.1 
L 422.456659 25.1 
z
" style="fill:#ffffff;"/>
   </g>
   <g id="matplotlib.axis_3">
    <g id="xtick_4">
     <g id="line2d_25">
      <g>
       <use style="stroke:#000000;stroke-width:0.8;" x="434.768239" xlink:href="#m6890b37b80" y="289.4"/>
      </g>
     </g>
     <g id="text_17">
      <!-- 0 -->
      <g transform="translate(429.229075 310.596641)scale(0.2 -0.2)">
       <use transform="scale(0.996264)" xlink:href="#Nimbus_Sans_L_Regular-48"/>
      </g>
     </g>
    </g>
    <g id="xtick_5">
     <g id="line2d_26">
      <g>
       <use style="stroke:#000000;stroke-width:0.8;" x="557.884045" xlink:href="#m6890b37b80" y="289.4"/>
      </g>
     </g>
     <g id="text_18">
      <!-- 50 -->
      <g transform="translate(546.805716 310.596641)scale(0.2 -0.2)">
       <use transform="scale(0.996264)" xlink:href="#Nimbus_Sans_L_Regular-53"/>
       <use transform="translate(55.391677 0)scale(0.996264)" xlink:href="#Nimbus_Sans_L_Regular-48"/>
      </g>
     </g>
    </g>
    <g id="xtick_6">
     <g id="line2d_27">
      <g>
       <use style="stroke:#000000;stroke-width:0.8;" x="680.999851" xlink:href="#m6890b37b80" y="289.4"/>
      </g>
     </g>
     <g id="text_19">
      <!-- 100 -->
      <g transform="translate(664.382357 310.596641)scale(0.2 -0.2)">
       <use transform="scale(0.996264)" xlink:href="#Nimbus_Sans_L_Regular-49"/>
       <use transform="translate(55.391677 0)scale(0.996264)" xlink:href="#Nimbus_Sans_L_Regular-48"/>
       <use transform="translate(110.783354 0)scale(0.996264)" xlink:href="#Nimbus_Sans_L_Regular-48"/>
      </g>
     </g>
    </g>
   </g>
   <g id="matplotlib.axis_4">
    <g id="ytick_7">
     <g id="line2d_28">
      <g>
       <use style="stroke:#000000;stroke-width:0.8;" x="422.456659" xlink:href="#m9846a8e16d" y="277.386364"/>
      </g>
     </g>
     <g id="text_20">
      <!-- 0 -->
      <g transform="translate(404.378329 284.484684)scale(0.2 -0.2)">
       <use transform="scale(0.996264)" xlink:href="#Nimbus_Sans_L_Regular-48"/>
      </g>
     </g>
    </g>
    <g id="ytick_8">
     <g id="line2d_29">
      <g>
       <use style="stroke:#000000;stroke-width:0.8;" x="422.456659" xlink:href="#m9846a8e16d" y="216.119519"/>
      </g>
     </g>
     <g id="text_21">
      <!-- 2 -->
      <g transform="translate(404.378329 223.217839)scale(0.2 -0.2)">
       <use transform="scale(0.996264)" xlink:href="#Nimbus_Sans_L_Regular-50"/>
      </g>
     </g>
    </g>
    <g id="ytick_9">
     <g id="line2d_30">
      <g>
       <use style="stroke:#000000;stroke-width:0.8;" x="422.456659" xlink:href="#m9846a8e16d" y="154.852674"/>
      </g>
     </g>
     <g id="text_22">
      <!-- 4 -->
      <defs>
       <path d="M 32.703125 17 
L 32.703125 0 
L 41.5 0 
L 41.5 17 
L 52 17 
L 52 24.90625 
L 41.5 24.90625 
L 41.5 71.015625 
L 35 71.015625 
L 2.796875 26.3125 
L 2.796875 17 
z
M 32.703125 24.90625 
L 10.5 24.90625 
L 32.703125 55.984375 
z
" id="Nimbus_Sans_L_Regular-52"/>
      </defs>
      <g transform="translate(404.378329 161.950995)scale(0.2 -0.2)">
       <use transform="scale(0.996264)" xlink:href="#Nimbus_Sans_L_Regular-52"/>
      </g>
     </g>
    </g>
    <g id="ytick_10">
     <g id="line2d_31">
      <g>
       <use style="stroke:#000000;stroke-width:0.8;" x="422.456659" xlink:href="#m9846a8e16d" y="93.58583"/>
      </g>
     </g>
     <g id="text_23">
      <!-- 6 -->
      <defs>
       <path d="M 49.796875 52.84375 
C 48.09375 64.234375 40.5 71 29.703125 71 
C 21.90625 71 14.90625 67.21875 10.703125 60.9375 
C 6.296875 54.0625 4.296875 45.375 4.296875 32.515625 
C 4.296875 20.640625 6.09375 13.0625 10.296875 6.78125 
C 14.09375 1.078125 20.296875 -2 28.09375 -2 
C 41.59375 -2 51.296875 8.09375 51.296875 22.109375 
C 51.296875 35.4375 42.296875 44.8125 29.59375 44.8125 
C 22.59375 44.8125 17.09375 42.109375 13.296875 36.90625 
C 13.40625 53.8125 19 63.1875 29.09375 63.1875 
C 35.296875 63.1875 39.59375 59.421875 41 52.84375 
z
M 28.5 37 
C 37 37 42.296875 31.03125 42.296875 21.40625 
C 42.296875 12.390625 36.296875 5.8125 28.203125 5.8125 
C 20 5.8125 13.796875 12.703125 13.796875 21.90625 
C 13.796875 30.828125 19.796875 37 28.5 37 
z
" id="Nimbus_Sans_L_Regular-54"/>
      </defs>
      <g transform="translate(404.378329 100.68415)scale(0.2 -0.2)">
       <use transform="scale(0.996264)" xlink:href="#Nimbus_Sans_L_Regular-54"/>
      </g>
     </g>
    </g>
    <g id="ytick_11">
     <g id="line2d_32">
      <g>
       <use style="stroke:#000000;stroke-width:0.8;" x="422.456659" xlink:href="#m9846a8e16d" y="32.318985"/>
      </g>
     </g>
     <g id="text_24">
      <!-- 8 -->
      <defs>
       <path d="M 39.09375 37.484375 
C 46.40625 41.875 48.796875 45.46875 48.796875 52.15625 
C 48.796875 63.21875 40.09375 71 27.5 71 
C 15 71 6.203125 63.21875 6.203125 52.15625 
C 6.203125 45.578125 8.59375 41.984375 15.796875 37.484375 
C 7.703125 33.59375 3.703125 27.71875 3.703125 19.9375 
C 3.703125 6.96875 13.5 -2 27.5 -2 
C 41.5 -2 51.296875 6.984375 51.296875 19.84375 
C 51.296875 27.71875 47.296875 33.59375 39.09375 37.484375 
z
M 27.5 63.1875 
C 35 63.1875 39.796875 58.8125 39.796875 51.953125 
C 39.796875 45.375 34.90625 41 27.5 41 
C 20.09375 41 15.203125 45.375 15.203125 52.046875 
C 15.203125 58.8125 20.09375 63.1875 27.5 63.1875 
z
M 27.5 33.578125 
C 36.296875 33.578125 42.296875 28 42.296875 19.734375 
C 42.296875 11.390625 36.296875 5.8125 27.296875 5.8125 
C 18.703125 5.8125 12.703125 11.484375 12.703125 19.734375 
C 12.703125 28 18.703125 33.578125 27.5 33.578125 
z
" id="Nimbus_Sans_L_Regular-56"/>
      </defs>
      <g transform="translate(404.378329 39.417305)scale(0.2 -0.2)">
       <use transform="scale(0.996264)" xlink:href="#Nimbus_Sans_L_Regular-56"/>
      </g>
     </g>
    </g>
   </g>
   <g id="line2d_33">
    <path clip-path="url(#pecb3303862)" d="M 434.768239 277.386364 
L 447.07982 265.357844 
L 459.3914 254.16286 
L 471.702981 241.970451 
L 484.014562 230.178728 
L 496.326142 218.397727 
L 508.637723 206.612436 
L 520.949303 193.568725 
L 533.260884 181.048539 
L 545.572465 168.823659 
L 557.884045 158.236136 
L 570.195626 146.24407 
L 582.507206 132.988988 
L 594.818787 121.564253 
L 607.130368 109.075926 
L 619.441948 97.069156 
L 631.753529 85.306535 
L 644.065109 72.698737 
L 656.37669 62.328711 
L 668.68827 50.547403 
L 680.999851 37.810945 
" style="fill:none;opacity:0.4;stroke:#32cd00;stroke-linecap:square;stroke-width:1.5;"/>
    <g clip-path="url(#pecb3303862)">
     <use style="fill:#32cd00;opacity:0.4;stroke:#32cd00;stroke-linejoin:miter;" x="434.768239" xlink:href="#m817777072c" y="277.386364"/>
     <use style="fill:#32cd00;opacity:0.4;stroke:#32cd00;stroke-linejoin:miter;" x="447.07982" xlink:href="#m817777072c" y="265.357844"/>
     <use style="fill:#32cd00;opacity:0.4;stroke:#32cd00;stroke-linejoin:miter;" x="459.3914" xlink:href="#m817777072c" y="254.16286"/>
     <use style="fill:#32cd00;opacity:0.4;stroke:#32cd00;stroke-linejoin:miter;" x="471.702981" xlink:href="#m817777072c" y="241.970451"/>
     <use style="fill:#32cd00;opacity:0.4;stroke:#32cd00;stroke-linejoin:miter;" x="484.014562" xlink:href="#m817777072c" y="230.178728"/>
     <use style="fill:#32cd00;opacity:0.4;stroke:#32cd00;stroke-linejoin:miter;" x="496.326142" xlink:href="#m817777072c" y="218.397727"/>
     <use style="fill:#32cd00;opacity:0.4;stroke:#32cd00;stroke-linejoin:miter;" x="508.637723" xlink:href="#m817777072c" y="206.612436"/>
     <use style="fill:#32cd00;opacity:0.4;stroke:#32cd00;stroke-linejoin:miter;" x="520.949303" xlink:href="#m817777072c" y="193.568725"/>
     <use style="fill:#32cd00;opacity:0.4;stroke:#32cd00;stroke-linejoin:miter;" x="533.260884" xlink:href="#m817777072c" y="181.048539"/>
     <use style="fill:#32cd00;opacity:0.4;stroke:#32cd00;stroke-linejoin:miter;" x="545.572465" xlink:href="#m817777072c" y="168.823659"/>
     <use style="fill:#32cd00;opacity:0.4;stroke:#32cd00;stroke-linejoin:miter;" x="557.884045" xlink:href="#m817777072c" y="158.236136"/>
     <use style="fill:#32cd00;opacity:0.4;stroke:#32cd00;stroke-linejoin:miter;" x="570.195626" xlink:href="#m817777072c" y="146.24407"/>
     <use style="fill:#32cd00;opacity:0.4;stroke:#32cd00;stroke-linejoin:miter;" x="582.507206" xlink:href="#m817777072c" y="132.988988"/>
     <use style="fill:#32cd00;opacity:0.4;stroke:#32cd00;stroke-linejoin:miter;" x="594.818787" xlink:href="#m817777072c" y="121.564253"/>
     <use style="fill:#32cd00;opacity:0.4;stroke:#32cd00;stroke-linejoin:miter;" x="607.130368" xlink:href="#m817777072c" y="109.075926"/>
     <use style="fill:#32cd00;opacity:0.4;stroke:#32cd00;stroke-linejoin:miter;" x="619.441948" xlink:href="#m817777072c" y="97.069156"/>
     <use style="fill:#32cd00;opacity:0.4;stroke:#32cd00;stroke-linejoin:miter;" x="631.753529" xlink:href="#m817777072c" y="85.306535"/>
     <use style="fill:#32cd00;opacity:0.4;stroke:#32cd00;stroke-linejoin:miter;" x="644.065109" xlink:href="#m817777072c" y="72.698737"/>
     <use style="fill:#32cd00;opacity:0.4;stroke:#32cd00;stroke-linejoin:miter;" x="656.37669" xlink:href="#m817777072c" y="62.328711"/>
     <use style="fill:#32cd00;opacity:0.4;stroke:#32cd00;stroke-linejoin:miter;" x="668.68827" xlink:href="#m817777072c" y="50.547403"/>
     <use style="fill:#32cd00;opacity:0.4;stroke:#32cd00;stroke-linejoin:miter;" x="680.999851" xlink:href="#m817777072c" y="37.810945"/>
    </g>
   </g>
   <g id="line2d_34">
    <path clip-path="url(#pecb3303862)" d="M 434.768239 277.386364 
L 447.07982 265.626315 
L 459.3914 254.170457 
L 471.702981 242.08208 
L 484.014562 230.654465 
L 496.326142 218.62907 
L 508.637723 207.253533 
L 520.949303 195.873645 
L 533.260884 183.954487 
L 545.572465 171.00966 
L 557.884045 158.218246 
L 570.195626 146.633053 
L 582.507206 135.308306 
L 594.818787 123.144264 
L 607.130368 111.18179 
L 619.441948 98.647635 
L 631.753529 86.333367 
L 644.065109 74.250013 
L 656.37669 63.08989 
L 668.68827 51.38633 
L 680.999851 38.515269 
" style="fill:none;opacity:0.4;stroke:#986700;stroke-linecap:square;stroke-width:1.5;"/>
    <g clip-path="url(#pecb3303862)">
     <use style="fill:#986700;opacity:0.4;stroke:#986700;" x="434.768239" xlink:href="#md73b42c551" y="277.386364"/>
     <use style="fill:#986700;opacity:0.4;stroke:#986700;" x="447.07982" xlink:href="#md73b42c551" y="265.626315"/>
     <use style="fill:#986700;opacity:0.4;stroke:#986700;" x="459.3914" xlink:href="#md73b42c551" y="254.170457"/>
     <use style="fill:#986700;opacity:0.4;stroke:#986700;" x="471.702981" xlink:href="#md73b42c551" y="242.08208"/>
     <use style="fill:#986700;opacity:0.4;stroke:#986700;" x="484.014562" xlink:href="#md73b42c551" y="230.654465"/>
     <use style="fill:#986700;opacity:0.4;stroke:#986700;" x="496.326142" xlink:href="#md73b42c551" y="218.62907"/>
     <use style="fill:#986700;opacity:0.4;stroke:#986700;" x="508.637723" xlink:href="#md73b42c551" y="207.253533"/>
     <use style="fill:#986700;opacity:0.4;stroke:#986700;" x="520.949303" xlink:href="#md73b42c551" y="195.873645"/>
     <use style="fill:#986700;opacity:0.4;stroke:#986700;" x="533.260884" xlink:href="#md73b42c551" y="183.954487"/>
     <use style="fill:#986700;opacity:0.4;stroke:#986700;" x="545.572465" xlink:href="#md73b42c551" y="171.00966"/>
     <use style="fill:#986700;opacity:0.4;stroke:#986700;" x="557.884045" xlink:href="#md73b42c551" y="158.218246"/>
     <use style="fill:#986700;opacity:0.4;stroke:#986700;" x="570.195626" xlink:href="#md73b42c551" y="146.633053"/>
     <use style="fill:#986700;opacity:0.4;stroke:#986700;" x="582.507206" xlink:href="#md73b42c551" y="135.308306"/>
     <use style="fill:#986700;opacity:0.4;stroke:#986700;" x="594.818787" xlink:href="#md73b42c551" y="123.144264"/>
     <use style="fill:#986700;opacity:0.4;stroke:#986700;" x="607.130368" xlink:href="#md73b42c551" y="111.18179"/>
     <use style="fill:#986700;opacity:0.4;stroke:#986700;" x="619.441948" xlink:href="#md73b42c551" y="98.647635"/>
     <use style="fill:#986700;opacity:0.4;stroke:#986700;" x="631.753529" xlink:href="#md73b42c551" y="86.333367"/>
     <use style="fill:#986700;opacity:0.4;stroke:#986700;" x="644.065109" xlink:href="#md73b42c551" y="74.250013"/>
     <use style="fill:#986700;opacity:0.4;stroke:#986700;" x="656.37669" xlink:href="#md73b42c551" y="63.08989"/>
     <use style="fill:#986700;opacity:0.4;stroke:#986700;" x="668.68827" xlink:href="#md73b42c551" y="51.38633"/>
     <use style="fill:#986700;opacity:0.4;stroke:#986700;" x="680.999851" xlink:href="#md73b42c551" y="38.515269"/>
    </g>
   </g>
   <g id="line2d_35">
    <path clip-path="url(#pecb3303862)" d="M 434.768239 277.386364 
L 447.07982 265.366391 
L 459.3914 253.318725 
L 471.702981 241.150487 
L 484.014562 229.182591 
L 496.326142 217.64102 
L 508.637723 205.84657 
L 520.949303 193.275104 
L 533.260884 181.50703 
L 545.572465 170.184672 
L 557.884045 158.428115 
L 570.195626 146.070961 
L 582.507206 134.414453 
L 594.818787 121.863818 
L 607.130368 110.783219 
L 619.441948 98.402629 
L 631.753529 86.6227 
L 644.065109 73.728388 
L 656.37669 62.085053 
L 668.68827 50.077364 
L 680.999851 37.113636 
" style="fill:none;opacity:0.4;stroke:#fe0100;stroke-linecap:square;stroke-width:1.5;"/>
    <g clip-path="url(#pecb3303862)">
     <use style="fill:#fe0100;opacity:0.4;stroke:#fe0100;stroke-linejoin:miter;" x="434.768239" xlink:href="#me5d09f4b8f" y="277.386364"/>
     <use style="fill:#fe0100;opacity:0.4;stroke:#fe0100;stroke-linejoin:miter;" x="447.07982" xlink:href="#me5d09f4b8f" y="265.366391"/>
     <use style="fill:#fe0100;opacity:0.4;stroke:#fe0100;stroke-linejoin:miter;" x="459.3914" xlink:href="#me5d09f4b8f" y="253.318725"/>
     <use style="fill:#fe0100;opacity:0.4;stroke:#fe0100;stroke-linejoin:miter;" x="471.702981" xlink:href="#me5d09f4b8f" y="241.150487"/>
     <use style="fill:#fe0100;opacity:0.4;stroke:#fe0100;stroke-linejoin:miter;" x="484.014562" xlink:href="#me5d09f4b8f" y="229.182591"/>
     <use style="fill:#fe0100;opacity:0.4;stroke:#fe0100;stroke-linejoin:miter;" x="496.326142" xlink:href="#me5d09f4b8f" y="217.64102"/>
     <use style="fill:#fe0100;opacity:0.4;stroke:#fe0100;stroke-linejoin:miter;" x="508.637723" xlink:href="#me5d09f4b8f" y="205.84657"/>
     <use style="fill:#fe0100;opacity:0.4;stroke:#fe0100;stroke-linejoin:miter;" x="520.949303" xlink:href="#me5d09f4b8f" y="193.275104"/>
     <use style="fill:#fe0100;opacity:0.4;stroke:#fe0100;stroke-linejoin:miter;" x="533.260884" xlink:href="#me5d09f4b8f" y="181.50703"/>
     <use style="fill:#fe0100;opacity:0.4;stroke:#fe0100;stroke-linejoin:miter;" x="545.572465" xlink:href="#me5d09f4b8f" y="170.184672"/>
     <use style="fill:#fe0100;opacity:0.4;stroke:#fe0100;stroke-linejoin:miter;" x="557.884045" xlink:href="#me5d09f4b8f" y="158.428115"/>
     <use style="fill:#fe0100;opacity:0.4;stroke:#fe0100;stroke-linejoin:miter;" x="570.195626" xlink:href="#me5d09f4b8f" y="146.070961"/>
     <use style="fill:#fe0100;opacity:0.4;stroke:#fe0100;stroke-linejoin:miter;" x="582.507206" xlink:href="#me5d09f4b8f" y="134.414453"/>
     <use style="fill:#fe0100;opacity:0.4;stroke:#fe0100;stroke-linejoin:miter;" x="594.818787" xlink:href="#me5d09f4b8f" y="121.863818"/>
     <use style="fill:#fe0100;opacity:0.4;stroke:#fe0100;stroke-linejoin:miter;" x="607.130368" xlink:href="#me5d09f4b8f" y="110.783219"/>
     <use style="fill:#fe0100;opacity:0.4;stroke:#fe0100;stroke-linejoin:miter;" x="619.441948" xlink:href="#me5d09f4b8f" y="98.402629"/>
     <use style="fill:#fe0100;opacity:0.4;stroke:#fe0100;stroke-linejoin:miter;" x="631.753529" xlink:href="#me5d09f4b8f" y="86.6227"/>
     <use style="fill:#fe0100;opacity:0.4;stroke:#fe0100;stroke-linejoin:miter;" x="644.065109" xlink:href="#me5d09f4b8f" y="73.728388"/>
     <use style="fill:#fe0100;opacity:0.4;stroke:#fe0100;stroke-linejoin:miter;" x="656.37669" xlink:href="#me5d09f4b8f" y="62.085053"/>
     <use style="fill:#fe0100;opacity:0.4;stroke:#fe0100;stroke-linejoin:miter;" x="668.68827" xlink:href="#me5d09f4b8f" y="50.077364"/>
     <use style="fill:#fe0100;opacity:0.4;stroke:#fe0100;stroke-linejoin:miter;" x="680.999851" xlink:href="#me5d09f4b8f" y="37.113636"/>
    </g>
   </g>
   <g id="line2d_36">
    <path clip-path="url(#pecb3303862)" d="M 434.768239 277.386364 
L 447.07982 265.609814 
L 459.3914 253.585399 
L 471.702981 241.782374 
L 484.014562 229.705753 
L 496.326142 217.702215 
L 508.637723 205.305134 
L 520.949303 193.435618 
L 533.260884 181.494859 
L 545.572465 169.951527 
L 557.884045 157.38514 
L 570.195626 145.437246 
L 582.507206 133.481114 
L 594.818787 121.820543 
L 607.130368 109.493438 
L 619.441948 97.572447 
L 631.753529 85.236715 
L 644.065109 73.634487 
L 656.37669 61.61163 
L 668.68827 49.14073 
L 680.999851 37.289368 
" style="fill:none;opacity:0.4;stroke:#980067;stroke-linecap:square;stroke-width:1.5;"/>
    <g clip-path="url(#pecb3303862)">
     <use style="fill:#980067;opacity:0.4;stroke:#980067;stroke-linejoin:miter;" x="434.768239" xlink:href="#mc5c066a442" y="277.386364"/>
     <use style="fill:#980067;opacity:0.4;stroke:#980067;stroke-linejoin:miter;" x="447.07982" xlink:href="#mc5c066a442" y="265.609814"/>
     <use style="fill:#980067;opacity:0.4;stroke:#980067;stroke-linejoin:miter;" x="459.3914" xlink:href="#mc5c066a442" y="253.585399"/>
     <use style="fill:#980067;opacity:0.4;stroke:#980067;stroke-linejoin:miter;" x="471.702981" xlink:href="#mc5c066a442" y="241.782374"/>
     <use style="fill:#980067;opacity:0.4;stroke:#980067;stroke-linejoin:miter;" x="484.014562" xlink:href="#mc5c066a442" y="229.705753"/>
     <use style="fill:#980067;opacity:0.4;stroke:#980067;stroke-linejoin:miter;" x="496.326142" xlink:href="#mc5c066a442" y="217.702215"/>
     <use style="fill:#980067;opacity:0.4;stroke:#980067;stroke-linejoin:miter;" x="508.637723" xlink:href="#mc5c066a442" y="205.305134"/>
     <use style="fill:#980067;opacity:0.4;stroke:#980067;stroke-linejoin:miter;" x="520.949303" xlink:href="#mc5c066a442" y="193.435618"/>
     <use style="fill:#980067;opacity:0.4;stroke:#980067;stroke-linejoin:miter;" x="533.260884" xlink:href="#mc5c066a442" y="181.494859"/>
     <use style="fill:#980067;opacity:0.4;stroke:#980067;stroke-linejoin:miter;" x="545.572465" xlink:href="#mc5c066a442" y="169.951527"/>
     <use style="fill:#980067;opacity:0.4;stroke:#980067;stroke-linejoin:miter;" x="557.884045" xlink:href="#mc5c066a442" y="157.38514"/>
     <use style="fill:#980067;opacity:0.4;stroke:#980067;stroke-linejoin:miter;" x="570.195626" xlink:href="#mc5c066a442" y="145.437246"/>
     <use style="fill:#980067;opacity:0.4;stroke:#980067;stroke-linejoin:miter;" x="582.507206" xlink:href="#mc5c066a442" y="133.481114"/>
     <use style="fill:#980067;opacity:0.4;stroke:#980067;stroke-linejoin:miter;" x="594.818787" xlink:href="#mc5c066a442" y="121.820543"/>
     <use style="fill:#980067;opacity:0.4;stroke:#980067;stroke-linejoin:miter;" x="607.130368" xlink:href="#mc5c066a442" y="109.493438"/>
     <use style="fill:#980067;opacity:0.4;stroke:#980067;stroke-linejoin:miter;" x="619.441948" xlink:href="#mc5c066a442" y="97.572447"/>
     <use style="fill:#980067;opacity:0.4;stroke:#980067;stroke-linejoin:miter;" x="631.753529" xlink:href="#mc5c066a442" y="85.236715"/>
     <use style="fill:#980067;opacity:0.4;stroke:#980067;stroke-linejoin:miter;" x="644.065109" xlink:href="#mc5c066a442" y="73.634487"/>
     <use style="fill:#980067;opacity:0.4;stroke:#980067;stroke-linejoin:miter;" x="656.37669" xlink:href="#mc5c066a442" y="61.61163"/>
     <use style="fill:#980067;opacity:0.4;stroke:#980067;stroke-linejoin:miter;" x="668.68827" xlink:href="#mc5c066a442" y="49.14073"/>
     <use style="fill:#980067;opacity:0.4;stroke:#980067;stroke-linejoin:miter;" x="680.999851" xlink:href="#mc5c066a442" y="37.289368"/>
    </g>
   </g>
   <g id="line2d_37">
    <path clip-path="url(#pecb3303862)" d="M 434.768239 277.386364 
L 447.07982 265.387558 
L 459.3914 253.330626 
L 471.702981 241.441167 
L 484.014562 229.329049 
L 496.326142 217.399828 
L 508.637723 205.780509 
L 520.949303 194.03132 
L 533.260884 181.983441 
L 545.572465 169.818005 
L 557.884045 158.199514 
L 570.195626 146.781732 
L 582.507206 134.715044 
L 594.818787 123.0043 
L 607.130368 111.093305 
L 619.441948 98.955991 
L 631.753529 86.825677 
L 644.065109 75.63011 
L 656.37669 63.517854 
L 668.68827 51.138291 
L 680.999851 38.837731 
" style="fill:none;opacity:0.4;stroke:#3200cd;stroke-linecap:square;stroke-width:1.5;"/>
    <g clip-path="url(#pecb3303862)">
     <use style="fill:#3200cd;opacity:0.4;stroke:#3200cd;stroke-linejoin:miter;" x="434.768239" xlink:href="#m4ed275c07a" y="277.386364"/>
     <use style="fill:#3200cd;opacity:0.4;stroke:#3200cd;stroke-linejoin:miter;" x="447.07982" xlink:href="#m4ed275c07a" y="265.387558"/>
     <use style="fill:#3200cd;opacity:0.4;stroke:#3200cd;stroke-linejoin:miter;" x="459.3914" xlink:href="#m4ed275c07a" y="253.330626"/>
     <use style="fill:#3200cd;opacity:0.4;stroke:#3200cd;stroke-linejoin:miter;" x="471.702981" xlink:href="#m4ed275c07a" y="241.441167"/>
     <use style="fill:#3200cd;opacity:0.4;stroke:#3200cd;stroke-linejoin:miter;" x="484.014562" xlink:href="#m4ed275c07a" y="229.329049"/>
     <use style="fill:#3200cd;opacity:0.4;stroke:#3200cd;stroke-linejoin:miter;" x="496.326142" xlink:href="#m4ed275c07a" y="217.399828"/>
     <use style="fill:#3200cd;opacity:0.4;stroke:#3200cd;stroke-linejoin:miter;" x="508.637723" xlink:href="#m4ed275c07a" y="205.780509"/>
     <use style="fill:#3200cd;opacity:0.4;stroke:#3200cd;stroke-linejoin:miter;" x="520.949303" xlink:href="#m4ed275c07a" y="194.03132"/>
     <use style="fill:#3200cd;opacity:0.4;stroke:#3200cd;stroke-linejoin:miter;" x="533.260884" xlink:href="#m4ed275c07a" y="181.983441"/>
     <use style="fill:#3200cd;opacity:0.4;stroke:#3200cd;stroke-linejoin:miter;" x="545.572465" xlink:href="#m4ed275c07a" y="169.818005"/>
     <use style="fill:#3200cd;opacity:0.4;stroke:#3200cd;stroke-linejoin:miter;" x="557.884045" xlink:href="#m4ed275c07a" y="158.199514"/>
     <use style="fill:#3200cd;opacity:0.4;stroke:#3200cd;stroke-linejoin:miter;" x="570.195626" xlink:href="#m4ed275c07a" y="146.781732"/>
     <use style="fill:#3200cd;opacity:0.4;stroke:#3200cd;stroke-linejoin:miter;" x="582.507206" xlink:href="#m4ed275c07a" y="134.715044"/>
     <use style="fill:#3200cd;opacity:0.4;stroke:#3200cd;stroke-linejoin:miter;" x="594.818787" xlink:href="#m4ed275c07a" y="123.0043"/>
     <use style="fill:#3200cd;opacity:0.4;stroke:#3200cd;stroke-linejoin:miter;" x="607.130368" xlink:href="#m4ed275c07a" y="111.093305"/>
     <use style="fill:#3200cd;opacity:0.4;stroke:#3200cd;stroke-linejoin:miter;" x="619.441948" xlink:href="#m4ed275c07a" y="98.955991"/>
     <use style="fill:#3200cd;opacity:0.4;stroke:#3200cd;stroke-linejoin:miter;" x="631.753529" xlink:href="#m4ed275c07a" y="86.825677"/>
     <use style="fill:#3200cd;opacity:0.4;stroke:#3200cd;stroke-linejoin:miter;" x="644.065109" xlink:href="#m4ed275c07a" y="75.63011"/>
     <use style="fill:#3200cd;opacity:0.4;stroke:#3200cd;stroke-linejoin:miter;" x="656.37669" xlink:href="#m4ed275c07a" y="63.517854"/>
     <use style="fill:#3200cd;opacity:0.4;stroke:#3200cd;stroke-linejoin:miter;" x="668.68827" xlink:href="#m4ed275c07a" y="51.138291"/>
     <use style="fill:#3200cd;opacity:0.4;stroke:#3200cd;stroke-linejoin:miter;" x="680.999851" xlink:href="#m4ed275c07a" y="38.837731"/>
    </g>
   </g>
   <g id="patch_9">
    <path d="M 422.456659 289.4 
L 422.456659 25.1 
" style="fill:none;stroke:#000000;stroke-linecap:square;stroke-linejoin:miter;stroke-width:0.8;"/>
   </g>
   <g id="patch_10">
    <path d="M 693.311432 289.4 
L 693.311432 25.1 
" style="fill:none;stroke:#000000;stroke-linecap:square;stroke-linejoin:miter;stroke-width:0.8;"/>
   </g>
   <g id="patch_11">
    <path d="M 422.456659 289.4 
L 693.311432 289.4 
" style="fill:none;stroke:#000000;stroke-linecap:square;stroke-linejoin:miter;stroke-width:0.8;"/>
   </g>
   <g id="patch_12">
    <path d="M 422.456659 25.1 
L 693.311432 25.1 
" style="fill:none;stroke:#000000;stroke-linecap:square;stroke-linejoin:miter;stroke-width:0.8;"/>
   </g>
  </g>
 </g>
 <defs>
  <clipPath id="pb2bb35d327">
   <rect height="264.3" width="270.854773" x="106.834988" y="25.1"/>
  </clipPath>
  <clipPath id="pecb3303862">
   <rect height="264.3" width="270.854773" x="422.456659" y="25.1"/>
  </clipPath>
 </defs>
</svg>
