<?xml version="1.0" encoding="utf-8" standalone="no"?>
<!DOCTYPE svg PUBLIC "-//W3C//DTD SVG 1.1//EN"
  "http://www.w3.org/Graphics/SVG/1.1/DTD/svg11.dtd">
<!-- Created with matplotlib (http://matplotlib.org/) -->
<svg height="360pt" version="1.1" viewBox="0 0 720 360" width="720pt" xmlns="http://www.w3.org/2000/svg" xmlns:xlink="http://www.w3.org/1999/xlink">
 <defs>
  <style type="text/css">
*{stroke-linecap:butt;stroke-linejoin:round;}
  </style>
 </defs>
 <g id="figure_1">
  <g id="patch_1">
   <path d="M 0 360 
L 720 360 
L 720 0 
L 0 0 
z
" style="fill:#ffffff;"/>
  </g>
  <g id="axes_1">
   <g id="patch_2">
    <path d="M 69.876191 289.4 
L 339.269048 289.4 
L 339.269048 25.1 
L 69.876191 25.1 
z
" style="fill:#ffffff;"/>
   </g>
   <g id="matplotlib.axis_1">
    <g id="xtick_1">
     <g id="line2d_1">
      <defs>
       <path d="M 0 0 
L 0 3.5 
" id="md8163abd5f" style="stroke:#000000;stroke-width:0.8;"/>
      </defs>
      <g>
       <use style="stroke:#000000;stroke-width:0.8;" x="82.121321" xlink:href="#md8163abd5f" y="289.4"/>
      </g>
     </g>
     <g id="text_1">
      <!-- $0$ -->
      <defs>
       <path d="M 42 31.640625 
C 42 37.75 41.90625 48.125 37.703125 56.109375 
C 34 63.109375 28.09375 65.59375 22.90625 65.59375 
C 18.09375 65.59375 12 63.40625 8.203125 56.203125 
C 4.203125 48.71875 3.796875 39.4375 3.796875 31.640625 
C 3.796875 25.953125 3.90625 17.28125 7 9.671875 
C 11.296875 -0.609375 19 -2 22.90625 -2 
C 27.5 -2 34.5 -0.109375 38.59375 9.375 
C 41.59375 16.28125 42 24.359375 42 31.640625 
z
M 22.90625 -0.40625 
C 16.5 -0.40625 12.703125 5.078125 11.296875 12.6875 
C 10.203125 18.5625 10.203125 27.15625 10.203125 32.75 
C 10.203125 40.4375 10.203125 46.828125 11.5 52.921875 
C 13.40625 61.390625 19 64 22.90625 64 
C 27 64 32.296875 61.296875 34.203125 53.125 
C 35.5 47.4375 35.59375 40.734375 35.59375 32.75 
C 35.59375 26.25 35.59375 18.265625 34.40625 12.375 
C 32.296875 1.484375 26.40625 -0.40625 22.90625 -0.40625 
z
" id="CMR17-48"/>
      </defs>
      <g transform="translate(77.552273 310.596641)scale(0.2 -0.2)">
       <use transform="scale(0.996264)" xlink:href="#CMR17-48"/>
      </g>
     </g>
    </g>
    <g id="xtick_2">
     <g id="line2d_2">
      <g>
       <use style="stroke:#000000;stroke-width:0.8;" x="204.572619" xlink:href="#md8163abd5f" y="289.4"/>
      </g>
     </g>
     <g id="text_2">
      <!-- $50$ -->
      <defs>
       <path d="M 11.40625 57.6875 
C 12.40625 57.28125 16.5 56 20.703125 56 
C 30 56 35.09375 61.109375 38 64.0625 
C 38 64.953125 38 65.5 37.40625 65.5 
C 37.296875 65.5 37.09375 65.5 36.296875 65.046875 
C 32.796875 63.40625 28.703125 62.078125 23.703125 62.078125 
C 20.703125 62.078125 16.203125 62.484375 11.296875 64.671875 
C 10.203125 65.171875 10 65.171875 9.90625 65.171875 
C 9.40625 65.171875 9.296875 65.0625 9.296875 63.078125 
L 9.296875 34.421875 
C 9.296875 32.640625 9.296875 32.140625 10.296875 32.140625 
C 10.796875 32.140625 11 32.34375 11.5 33.03125 
C 14.703125 37.515625 19.09375 39.40625 24.09375 39.40625 
C 27.59375 39.40625 35.09375 37.21875 35.09375 20.140625 
C 35.09375 16.953125 35.09375 11.171875 32.09375 6.578125 
C 29.59375 2.484375 25.703125 0.390625 21.40625 0.390625 
C 14.796875 0.390625 8.09375 5 6.296875 12.71875 
C 6.703125 12.609375 7.5 12.421875 7.90625 12.421875 
C 9.203125 12.421875 11.703125 13.125 11.703125 16.21875 
C 11.703125 18.90625 9.796875 20 7.90625 20 
C 5.59375 20 4.09375 18.59375 4.09375 15.796875 
C 4.09375 7.09375 11 -2 21.59375 -2 
C 31.90625 -2 41.703125 6.875 41.703125 19.75 
C 41.703125 31.71875 33.90625 41 24.203125 41 
C 19.09375 41 14.796875 39.109375 11.40625 35.53125 
z
" id="CMR17-53"/>
      </defs>
      <g transform="translate(195.434524 310.596641)scale(0.2 -0.2)">
       <use transform="scale(0.996264)" xlink:href="#CMR17-53"/>
       <use transform="translate(45.690477 0)scale(0.996264)" xlink:href="#CMR17-48"/>
      </g>
     </g>
    </g>
    <g id="xtick_3">
     <g id="line2d_3">
      <g>
       <use style="stroke:#000000;stroke-width:0.8;" x="327.023918" xlink:href="#md8163abd5f" y="289.4"/>
      </g>
     </g>
     <g id="text_3">
      <!-- $100$ -->
      <defs>
       <path d="M 26.59375 63.40625 
C 26.59375 65.5 26.5 65.5 25.09375 65.5 
C 21.203125 61.1875 15.296875 59.796875 9.703125 59.796875 
C 9.40625 59.796875 8.90625 59.796875 8.796875 59.5 
C 8.703125 59.296875 8.703125 59.09375 8.703125 57 
C 11.796875 57 17 57.59375 21 59.984375 
L 21 7.203125 
C 21 3.6875 20.796875 2.5 12.203125 2.5 
L 9.203125 2.5 
L 9.203125 0 
C 14 0 19 0 23.796875 0 
C 28.59375 0 33.59375 0 38.40625 0 
L 38.40625 2.5 
L 35.40625 2.5 
C 26.796875 2.5 26.59375 3.59375 26.59375 7.15625 
z
" id="CMR17-49"/>
      </defs>
      <g transform="translate(313.316775 310.596641)scale(0.2 -0.2)">
       <use transform="scale(0.996264)" xlink:href="#CMR17-49"/>
       <use transform="translate(45.690477 0)scale(0.996264)" xlink:href="#CMR17-48"/>
       <use transform="translate(91.380954 0)scale(0.996264)" xlink:href="#CMR17-48"/>
      </g>
     </g>
    </g>
    <g id="text_4">
     <!-- Time (years) -->
     <defs>
      <path d="M 35.40625 64.78125 
L 59.296875 64.78125 
L 59.296875 73 
L 2.09375 73 
L 2.09375 64.78125 
L 26.09375 64.78125 
L 26.09375 -0.21875 
L 35.40625 -0.21875 
z
" id="Nimbus_Sans_L_Regular-84"/>
      <path d="M 15 52.484375 
L 6.703125 52.484375 
L 6.703125 0 
L 15 0 
z
M 15 73 
L 6.59375 73 
L 6.59375 62.484375 
L 15 62.484375 
z
" id="Nimbus_Sans_L_Regular-105"/>
      <path d="M 7 52.484375 
L 7 0 
L 15.40625 0 
L 15.40625 32.953125 
C 15.40625 40.578125 20.90625 46.6875 27.703125 46.6875 
C 33.90625 46.6875 37.40625 42.875 37.40625 36.15625 
L 37.40625 0 
L 45.796875 0 
L 45.796875 32.953125 
C 45.796875 40.578125 51.296875 46.6875 58.09375 46.6875 
C 64.203125 46.6875 67.796875 42.78125 67.796875 36.15625 
L 67.796875 0 
L 76.203125 0 
L 76.203125 39.375 
C 76.203125 48.78125 70.796875 54 61 54 
C 54 54 49.796875 51.890625 44.90625 45.984375 
C 41.796875 51.59375 37.59375 54 30.796875 54 
C 23.796875 54 19.203125 51.390625 14.703125 45.078125 
L 14.703125 52.484375 
z
" id="Nimbus_Sans_L_Regular-109"/>
      <path d="M 51.296875 23.890625 
C 51.296875 31.78125 50.703125 36.53125 49.203125 40.375 
C 45.796875 48.859375 37.796875 54 28 54 
C 13.40625 54 4 42.84375 4 25.703125 
C 4 8.546875 13.09375 -2 27.796875 -2 
C 39.796875 -2 48.09375 4.84375 50.203125 16.3125 
L 41.796875 16.3125 
C 39.5 9.34375 34.796875 5.703125 28.09375 5.703125 
C 22.796875 5.703125 18.296875 8.125 15.5 12.578125 
C 13.5 15.59375 12.796875 18.640625 12.703125 23.890625 
z
M 12.90625 31 
C 13.59375 40.265625 19.5 46.28125 27.90625 46.28125 
C 36.09375 46.28125 42.40625 39.53125 42.40625 31 
C 42.40625 31 42.40625 31 42.296875 31 
z
" id="Nimbus_Sans_L_Regular-101"/>
      <path d="M 23.59375 73 
C 13.59375 59.84375 7.296875 41.5625 7.296875 25.796875 
C 7.296875 9.9375 13.59375 -8.34375 23.59375 -21.5 
L 29.09375 -21.5 
C 20.296875 -7.140625 15.40625 9.734375 15.40625 25.796875 
C 15.40625 41.765625 20.296875 58.734375 29.09375 73 
z
" id="Nimbus_Sans_L_Regular-40"/>
      <path d="M 38.796875 52.5 
L 24.296875 11.53125 
L 10.90625 52.5 
L 2 52.5 
L 19.703125 -0.328125 
L 16.5 -8.65625 
C 15.203125 -12.375 13.296875 -13.78125 9.796875 -13.78125 
C 8.59375 -13.78125 7.203125 -13.578125 5.40625 -13.171875 
L 5.40625 -20.703125 
C 7.09375 -21.59375 8.796875 -22 11 -22 
C 13.703125 -22 16.59375 -21.09375 18.796875 -19.484375 
C 21.40625 -17.578125 22.90625 -15.359375 24.5 -11.140625 
L 47.796875 52.5 
z
" id="Nimbus_Sans_L_Regular-121"/>
      <path d="M 53.5 5.203125 
C 52.59375 5 52.203125 5 51.703125 5 
C 48.796875 5 47.203125 6.484375 47.203125 9.078125 
L 47.203125 39.765625 
C 47.203125 49.015625 40.40625 54 27.5 54 
C 19.90625 54 13.59375 51.8125 10.09375 47.90625 
C 7.703125 45.203125 6.703125 42.21875 6.5 37.03125 
L 14.90625 37.03125 
C 15.59375 43.390625 19.40625 46.28125 27.203125 46.28125 
C 34.703125 46.28125 38.90625 43.484375 38.90625 38.515625 
L 38.90625 36.328125 
C 38.90625 32.828125 36.796875 31.34375 30.203125 30.546875 
C 18.40625 29.0625 16.59375 28.65625 13.40625 27.359375 
C 7.296875 24.875 4.203125 20.1875 4.203125 13.421875 
C 4.203125 3.96875 10.796875 -2 21.40625 -2 
C 28 -2 33.296875 0.296875 39.203125 5.703125 
C 39.796875 0.390625 42.40625 -2 47.796875 -2 
C 49.5 -2 50.796875 -1.8125 53.5 -1.09375 
z
M 38.90625 16.75 
C 38.90625 13.953125 38.09375 12.265625 35.59375 9.984375 
C 32.203125 6.890625 28.09375 5.3125 23.203125 5.3125 
C 16.703125 5.3125 12.90625 8.390625 12.90625 13.65625 
C 12.90625 19.140625 16.59375 21.921875 25.5 23.21875 
C 34.296875 24.40625 36.09375 24.8125 38.90625 26.09375 
z
" id="Nimbus_Sans_L_Regular-97"/>
      <path d="M 6.90625 52.484375 
L 6.90625 0 
L 15.296875 0 
L 15.296875 27.203125 
C 15.296875 34.703125 17.203125 39.609375 21.203125 42.5 
C 23.796875 44.40625 26.296875 45 32.09375 45 
L 32.09375 53.625 
C 30.703125 53.8125 30 53.8125 28.90625 53.8125 
C 23.5 53.8125 19.40625 50.625 14.59375 42.90625 
L 14.59375 52.484375 
z
" id="Nimbus_Sans_L_Regular-114"/>
      <path d="M 43.796875 37.921875 
C 43.703125 48.203125 36.90625 54 24.796875 54 
C 12.59375 54 4.703125 47.71875 4.703125 38.0625 
C 4.703125 29.890625 8.90625 26.015625 21.296875 23.03125 
L 29.09375 21.140625 
C 34.90625 19.734375 37.203125 17.65625 37.203125 13.875 
C 37.203125 9 32.296875 5.703125 25 5.703125 
C 20.5 5.703125 16.703125 7 14.59375 9.1875 
C 13.296875 10.6875 12.703125 12.171875 12.203125 15.84375 
L 3.40625 15.84375 
C 3.796875 3.765625 10.59375 -2 24.296875 -2 
C 37.5 -2 45.90625 4.453125 45.90625 14.515625 
C 45.90625 22.28125 41.5 26.578125 31.09375 29.0625 
L 23.09375 30.953125 
C 16.296875 32.53125 13.40625 34.734375 13.40625 38.40625 
C 13.40625 43.1875 17.703125 46.28125 24.5 46.28125 
C 31.203125 46.28125 34.796875 43.390625 35 37.921875 
z
" id="Nimbus_Sans_L_Regular-115"/>
      <path d="M 9.296875 -21.5 
C 19.296875 -8.34375 25.59375 9.9375 25.59375 25.6875 
C 25.59375 41.5625 19.296875 59.84375 9.296875 73 
L 3.796875 73 
C 12.59375 58.640625 17.5 41.765625 17.5 25.6875 
C 17.5 9.734375 12.59375 -7.25 3.796875 -21.5 
z
" id="Nimbus_Sans_L_Regular-41"/>
     </defs>
     <g transform="translate(148.871928 333.405988)scale(0.2 -0.2)">
      <use transform="scale(0.996264)" xlink:href="#Nimbus_Sans_L_Regular-84"/>
      <use transform="translate(60.871631 0)scale(0.996264)" xlink:href="#Nimbus_Sans_L_Regular-105"/>
      <use transform="translate(82.988415 0)scale(0.996264)" xlink:href="#Nimbus_Sans_L_Regular-109"/>
      <use transform="translate(165.976845 0)scale(0.996264)" xlink:href="#Nimbus_Sans_L_Regular-101"/>
      <use transform="translate(249.063692 0)scale(0.996264)" xlink:href="#Nimbus_Sans_L_Regular-40"/>
      <use transform="translate(282.238922 0)scale(0.996264)" xlink:href="#Nimbus_Sans_L_Regular-121"/>
      <use transform="translate(330.060111 0)scale(0.996264)" xlink:href="#Nimbus_Sans_L_Regular-101"/>
      <use transform="translate(385.451788 0)scale(0.996264)" xlink:href="#Nimbus_Sans_L_Regular-97"/>
      <use transform="translate(440.843465 0)scale(0.996264)" xlink:href="#Nimbus_Sans_L_Regular-114"/>
      <use transform="translate(474.018695 0)scale(0.996264)" xlink:href="#Nimbus_Sans_L_Regular-115"/>
      <use transform="translate(523.831895 0)scale(0.996264)" xlink:href="#Nimbus_Sans_L_Regular-41"/>
     </g>
    </g>
   </g>
   <g id="matplotlib.axis_2">
    <g id="ytick_1">
     <g id="line2d_4">
      <defs>
       <path d="M 0 0 
L -3.5 0 
" id="m66abf4bed0" style="stroke:#000000;stroke-width:0.8;"/>
      </defs>
      <g>
       <use style="stroke:#000000;stroke-width:0.8;" x="69.876191" xlink:href="#m66abf4bed0" y="277.386364"/>
      </g>
     </g>
     <g id="text_5">
      <!-- $0$ -->
      <g transform="translate(53.738095 284.484684)scale(0.2 -0.2)">
       <use transform="scale(0.996264)" xlink:href="#CMR17-48"/>
      </g>
     </g>
    </g>
    <g id="ytick_2">
     <g id="line2d_5">
      <g>
       <use style="stroke:#000000;stroke-width:0.8;" x="69.876191" xlink:href="#m66abf4bed0" y="210.893651"/>
      </g>
     </g>
     <g id="text_6">
      <!-- $20$ -->
      <defs>
       <path d="M 41.703125 15.453125 
L 39.90625 15.453125 
C 38.90625 8.375 38.09375 7.171875 37.703125 6.5625 
C 37.203125 5.765625 30 5.765625 28.59375 5.765625 
L 9.40625 5.765625 
C 13 9.671875 20 16.75 28.5 24.953125 
C 34.59375 30.734375 41.703125 37.53125 41.703125 47.421875 
C 41.703125 59.21875 32.296875 66 21.796875 66 
C 10.796875 66 4.09375 56.3125 4.09375 47.34375 
C 4.09375 43.4375 7 42.9375 8.203125 42.9375 
C 9.203125 42.9375 12.203125 43.546875 12.203125 47.03125 
C 12.203125 50.109375 9.59375 51 8.203125 51 
C 7.59375 51 7 50.90625 6.59375 50.703125 
C 8.5 59.21875 14.296875 63.40625 20.40625 63.40625 
C 29.09375 63.40625 34.796875 56.515625 34.796875 47.421875 
C 34.796875 38.734375 29.703125 31.25 24 24.75 
L 4.09375 2.28125 
L 4.09375 0 
L 39.296875 0 
z
" id="CMR17-50"/>
      </defs>
      <g transform="translate(44.6 217.991971)scale(0.2 -0.2)">
       <use transform="scale(0.996264)" xlink:href="#CMR17-50"/>
       <use transform="translate(45.690477 0)scale(0.996264)" xlink:href="#CMR17-48"/>
      </g>
     </g>
    </g>
    <g id="ytick_3">
     <g id="line2d_6">
      <g>
       <use style="stroke:#000000;stroke-width:0.8;" x="69.876191" xlink:href="#m66abf4bed0" y="144.400939"/>
      </g>
     </g>
     <g id="text_7">
      <!-- $40$ -->
      <defs>
       <path d="M 33.59375 64.40625 
C 33.59375 66.5 33.5 66.5 31.703125 66.5 
L 2 19.59375 
L 2 17 
L 27.796875 17 
L 27.796875 7.140625 
C 27.796875 3.5 27.59375 2.5 20.59375 2.5 
L 18.703125 2.5 
L 18.703125 0 
C 21.90625 0 27.296875 0 30.703125 0 
C 34.09375 0 39.5 0 42.703125 0 
L 42.703125 2.5 
L 40.796875 2.5 
C 33.796875 2.5 33.59375 3.5 33.59375 7.140625 
L 33.59375 17 
L 43.796875 17 
L 43.796875 19.59375 
L 33.59375 19.59375 
z
M 28.09375 57.859375 
L 28.09375 19.59375 
L 4 19.59375 
z
" id="CMR17-52"/>
      </defs>
      <g transform="translate(44.6 151.499259)scale(0.2 -0.2)">
       <use transform="scale(0.996264)" xlink:href="#CMR17-52"/>
       <use transform="translate(45.690477 0)scale(0.996264)" xlink:href="#CMR17-48"/>
      </g>
     </g>
    </g>
    <g id="ytick_4">
     <g id="line2d_7">
      <g>
       <use style="stroke:#000000;stroke-width:0.8;" x="69.876191" xlink:href="#m66abf4bed0" y="77.908226"/>
      </g>
     </g>
     <g id="text_8">
      <!-- $60$ -->
      <defs>
       <path d="M 10.59375 34 
C 10.59375 57.65625 21.796875 63 28.296875 63 
C 30.40625 63 35.5 62.640625 37.5 59 
C 35.90625 59 32.90625 59 32.90625 55.515625 
C 32.90625 52.828125 35.09375 51.921875 36.5 51.921875 
C 37.40625 51.921875 40.09375 52.3125 40.09375 55.625 
C 40.09375 61.78125 35.09375 65.296875 28.203125 65.296875 
C 16.296875 65.296875 3.796875 52.96875 3.796875 31 
C 3.796875 3.953125 15.09375 -2 23.09375 -2 
C 32.796875 -2 42 6.671875 42 20.046875 
C 42 32.515625 33.90625 41.59375 23.703125 41.59375 
C 17.59375 41.59375 13.09375 37.609375 10.59375 30.625 
z
M 23.09375 0.390625 
C 10.796875 0.390625 10.796875 18.75 10.796875 22.4375 
C 10.796875 29.625 14.203125 40 23.5 40 
C 25.203125 40 30.09375 40 33.40625 33.125 
C 35.203125 29.21875 35.203125 25.140625 35.203125 20.140625 
C 35.203125 14.75 35.203125 10.78125 33.09375 6.78125 
C 30.90625 2.671875 27.703125 0.390625 23.09375 0.390625 
z
" id="CMR17-54"/>
      </defs>
      <g transform="translate(44.6 85.006546)scale(0.2 -0.2)">
       <use transform="scale(0.996264)" xlink:href="#CMR17-54"/>
       <use transform="translate(45.690477 0)scale(0.996264)" xlink:href="#CMR17-48"/>
      </g>
     </g>
    </g>
    <g id="text_9">
     <!-- Number of distinct mutations -->
     <defs>
      <path d="M 64.59375 73 
L 55.796875 73 
L 55.796875 13.296875 
L 17.703125 73 
L 7.59375 73 
L 7.59375 -0.03125 
L 16.40625 -0.03125 
L 16.40625 59.171875 
L 54.09375 -0.03125 
L 64.59375 -0.03125 
z
" id="Nimbus_Sans_L_Regular-78"/>
      <path d="M 48.203125 0.515625 
L 48.203125 53 
L 39.90625 53 
L 39.90625 23.109375 
C 39.90625 12.34375 34.296875 5.3125 25.59375 5.3125 
C 19 5.3125 14.796875 9.328125 14.796875 15.671875 
L 14.796875 53 
L 6.5 53 
L 6.5 12.375 
C 6.5 3.625 13 -2 23.203125 -2 
C 30.90625 -2 35.796875 0.703125 40.703125 7.625 
L 40.703125 0.515625 
z
" id="Nimbus_Sans_L_Regular-117"/>
      <path d="M 5.40625 73 
L 5.40625 -0.03125 
L 12.90625 -0.03125 
L 12.90625 7 
C 16.90625 0.890625 22.203125 -2 29.5 -2 
C 43.296875 -2 52.296875 9.25 52.296875 26.59375 
C 52.296875 43.53125 43.703125 54 29.90625 54 
C 22.703125 54 17.59375 51.28125 13.703125 45.390625 
L 13.703125 73 
z
M 28.296875 46.1875 
C 37.59375 46.1875 43.59375 38.125 43.59375 25.703125 
C 43.59375 13.859375 37.40625 5.8125 28.296875 5.8125 
C 19.5 5.8125 13.703125 13.765625 13.703125 26 
C 13.703125 38.234375 19.5 46.1875 28.296875 46.1875 
z
" id="Nimbus_Sans_L_Regular-98"/>
      <path d="M 27.203125 54 
C 12.5 54 3.59375 43.53125 3.59375 25.984375 
C 3.59375 8.453125 12.40625 -2 27.296875 -2 
C 42 -2 51 8.453125 51 25.59375 
C 51 43.625 42.296875 54 27.203125 54 
z
M 27.296875 46.28125 
C 36.703125 46.28125 42.296875 38.625 42.296875 25.703125 
C 42.296875 13.453125 36.5 5.703125 27.296875 5.703125 
C 18 5.703125 12.296875 13.359375 12.296875 25.984375 
C 12.296875 38.53125 18 46.28125 27.296875 46.28125 
z
" id="Nimbus_Sans_L_Regular-111"/>
      <path d="M 25.796875 52 
L 17.09375 52 
L 17.09375 60.25 
C 17.09375 63.78125 19.09375 65.59375 22.90625 65.59375 
C 23.59375 65.59375 23.90625 65.59375 25.796875 65.59375 
L 25.796875 72.5 
C 23.90625 72.90625 22.796875 73 21.09375 73 
C 13.40625 73 8.796875 68.5625 8.796875 60.984375 
L 8.796875 52 
L 1.796875 52 
L 1.796875 45.1875 
L 8.796875 45.1875 
L 8.796875 -0.40625 
L 17.09375 -0.40625 
L 17.09375 45.1875 
L 25.796875 45.1875 
z
" id="Nimbus_Sans_L_Regular-102"/>
      <path d="M 49.5 73 
L 41.203125 73 
L 41.203125 45.890625 
C 37.703125 51.1875 32.09375 54 25.09375 54 
C 11.5 54 2.59375 43.140625 2.59375 26.484375 
C 2.59375 8.84375 11.296875 -2 25.40625 -2 
C 32.59375 -2 37.59375 0.703125 42.09375 7.203125 
L 42.09375 -0.03125 
L 49.5 -0.03125 
z
M 26.5 46.1875 
C 35.5 46.1875 41.203125 38.234375 41.203125 25.796875 
C 41.203125 13.765625 35.40625 5.8125 26.59375 5.8125 
C 17.40625 5.8125 11.296875 13.859375 11.296875 26 
C 11.296875 38.125 17.40625 46.1875 26.5 46.1875 
z
" id="Nimbus_Sans_L_Regular-100"/>
      <path d="M 25.40625 52.8125 
L 16.796875 52.8125 
L 16.796875 67 
L 8.5 67 
L 8.5 52.8125 
L 1.40625 52.8125 
L 1.40625 46 
L 8.5 46 
L 8.5 6.3125 
C 8.5 1 12.09375 -2 18.59375 -2 
C 20.59375 -2 22.59375 -1.8125 25.40625 -1.296875 
L 25.40625 5.71875 
C 24.296875 5.40625 23 5.3125 21.40625 5.3125 
C 17.796875 5.3125 16.796875 6.3125 16.796875 10.015625 
L 16.796875 46 
L 25.40625 46 
z
" id="Nimbus_Sans_L_Regular-116"/>
      <path d="M 7 52.484375 
L 7 0 
L 15.40625 0 
L 15.40625 28.953125 
C 15.40625 39.671875 21 46.6875 29.59375 46.6875 
C 36.203125 46.6875 40.40625 42.671875 40.40625 36.359375 
L 40.40625 0 
L 48.703125 0 
L 48.703125 39.671875 
C 48.703125 48.390625 42.203125 54 32.09375 54 
C 24.296875 54 19.296875 50.984375 14.703125 43.6875 
L 14.703125 52.484375 
z
" id="Nimbus_Sans_L_Regular-110"/>
      <path d="M 47.09375 34.9375 
C 46.703125 40.03125 45.59375 43.328125 43.59375 46.21875 
C 40 51.109375 33.703125 54 26.40625 54 
C 12.296875 54 3.09375 42.84375 3.09375 25.5 
C 3.09375 8.65625 12.09375 -2 26.296875 -2 
C 38.796875 -2 46.703125 5.46875 47.703125 18.234375 
L 39.296875 18.234375 
C 37.90625 9.875 33.59375 5.703125 26.5 5.703125 
C 17.296875 5.703125 11.796875 13.171875 11.796875 25.5 
C 11.796875 38.53125 17.203125 46.28125 26.296875 46.28125 
C 33.296875 46.28125 37.703125 42.203125 38.703125 34.9375 
z
" id="Nimbus_Sans_L_Regular-99"/>
     </defs>
     <g transform="translate(36.356027 283.385345)rotate(-90)scale(0.2 -0.2)">
      <use transform="scale(0.996264)" xlink:href="#Nimbus_Sans_L_Regular-78"/>
      <use transform="translate(71.929985 0)scale(0.996264)" xlink:href="#Nimbus_Sans_L_Regular-117"/>
      <use transform="translate(127.321662 0)scale(0.996264)" xlink:href="#Nimbus_Sans_L_Regular-109"/>
      <use transform="translate(210.310092 0)scale(0.996264)" xlink:href="#Nimbus_Sans_L_Regular-98"/>
      <use transform="translate(265.701769 0)scale(0.996264)" xlink:href="#Nimbus_Sans_L_Regular-101"/>
      <use transform="translate(321.093446 0)scale(0.996264)" xlink:href="#Nimbus_Sans_L_Regular-114"/>
      <use transform="translate(381.963845 0)scale(0.996264)" xlink:href="#Nimbus_Sans_L_Regular-111"/>
      <use transform="translate(437.355522 0)scale(0.996264)" xlink:href="#Nimbus_Sans_L_Regular-102"/>
      <use transform="translate(492.745861 0)scale(0.996264)" xlink:href="#Nimbus_Sans_L_Regular-100"/>
      <use transform="translate(548.137538 0)scale(0.996264)" xlink:href="#Nimbus_Sans_L_Regular-105"/>
      <use transform="translate(570.254323 0)scale(0.996264)" xlink:href="#Nimbus_Sans_L_Regular-115"/>
      <use transform="translate(620.067523 0)scale(0.996264)" xlink:href="#Nimbus_Sans_L_Regular-116"/>
      <use transform="translate(647.762693 0)scale(0.996264)" xlink:href="#Nimbus_Sans_L_Regular-105"/>
      <use transform="translate(669.879477 0)scale(0.996264)" xlink:href="#Nimbus_Sans_L_Regular-110"/>
      <use transform="translate(725.271154 0)scale(0.996264)" xlink:href="#Nimbus_Sans_L_Regular-99"/>
      <use transform="translate(775.084355 0)scale(0.996264)" xlink:href="#Nimbus_Sans_L_Regular-116"/>
      <use transform="translate(830.474694 0)scale(0.996264)" xlink:href="#Nimbus_Sans_L_Regular-109"/>
      <use transform="translate(912.467027 0)scale(0.996264)" xlink:href="#Nimbus_Sans_L_Regular-117"/>
      <use transform="translate(967.858704 0)scale(0.996264)" xlink:href="#Nimbus_Sans_L_Regular-116"/>
      <use transform="translate(995.553874 0)scale(0.996264)" xlink:href="#Nimbus_Sans_L_Regular-97"/>
      <use transform="translate(1050.945551 0)scale(0.996264)" xlink:href="#Nimbus_Sans_L_Regular-116"/>
      <use transform="translate(1078.64072 0)scale(0.996264)" xlink:href="#Nimbus_Sans_L_Regular-105"/>
      <use transform="translate(1100.757505 0)scale(0.996264)" xlink:href="#Nimbus_Sans_L_Regular-111"/>
      <use transform="translate(1156.149182 0)scale(0.996264)" xlink:href="#Nimbus_Sans_L_Regular-110"/>
      <use transform="translate(1211.540859 0)scale(0.996264)" xlink:href="#Nimbus_Sans_L_Regular-115"/>
     </g>
    </g>
   </g>
   <g id="LineCollection_1">
    <path clip-path="url(#pda1e8ca0b2)" d="M 82.121321 277.386364 
L 82.121321 277.386364 
" style="fill:none;stroke:#ff0000;stroke-width:1.5;"/>
    <path clip-path="url(#pda1e8ca0b2)" d="M 94.366451 187.895335 
L 94.366451 148.515324 
" style="fill:none;stroke:#ff0000;stroke-width:1.5;"/>
    <path clip-path="url(#pda1e8ca0b2)" d="M 106.61158 166.98902 
L 106.61158 123.648057 
" style="fill:none;stroke:#ff0000;stroke-width:1.5;"/>
    <path clip-path="url(#pda1e8ca0b2)" d="M 118.85671 157.383111 
L 118.85671 111.830013 
" style="fill:none;stroke:#ff0000;stroke-width:1.5;"/>
    <path clip-path="url(#pda1e8ca0b2)" d="M 131.10184 149.448536 
L 131.10184 101.578831 
" style="fill:none;stroke:#ff0000;stroke-width:1.5;"/>
    <path clip-path="url(#pda1e8ca0b2)" d="M 143.34697 142.930359 
L 143.34697 94.459353 
" style="fill:none;stroke:#ff0000;stroke-width:1.5;"/>
    <path clip-path="url(#pda1e8ca0b2)" d="M 155.5921 136.374262 
L 155.5921 85.383013 
" style="fill:none;stroke:#ff0000;stroke-width:1.5;"/>
    <path clip-path="url(#pda1e8ca0b2)" d="M 167.83723 132.007277 
L 167.83723 81.757574 
" style="fill:none;stroke:#ff0000;stroke-width:1.5;"/>
    <path clip-path="url(#pda1e8ca0b2)" d="M 180.08236 126.667287 
L 180.08236 77.662248 
" style="fill:none;stroke:#ff0000;stroke-width:1.5;"/>
    <path clip-path="url(#pda1e8ca0b2)" d="M 192.327489 124.119478 
L 192.327489 72.250879 
" style="fill:none;stroke:#ff0000;stroke-width:1.5;"/>
    <path clip-path="url(#pda1e8ca0b2)" d="M 204.572619 119.699383 
L 204.572619 67.395241 
" style="fill:none;stroke:#ff0000;stroke-width:1.5;"/>
    <path clip-path="url(#pda1e8ca0b2)" d="M 216.817749 118.807208 
L 216.817749 63.23397 
" style="fill:none;stroke:#ff0000;stroke-width:1.5;"/>
    <path clip-path="url(#pda1e8ca0b2)" d="M 229.062879 115.10314 
L 229.062879 60.235573 
" style="fill:none;stroke:#ff0000;stroke-width:1.5;"/>
    <path clip-path="url(#pda1e8ca0b2)" d="M 241.308009 111.767488 
L 241.308009 57.340858 
" style="fill:none;stroke:#ff0000;stroke-width:1.5;"/>
    <path clip-path="url(#pda1e8ca0b2)" d="M 253.553139 110.444377 
L 253.553139 54.182359 
" style="fill:none;stroke:#ff0000;stroke-width:1.5;"/>
    <path clip-path="url(#pda1e8ca0b2)" d="M 265.798269 107.145727 
L 265.798269 51.616352 
" style="fill:none;stroke:#ff0000;stroke-width:1.5;"/>
    <path clip-path="url(#pda1e8ca0b2)" d="M 278.043398 104.558305 
L 278.043398 49.575881 
" style="fill:none;stroke:#ff0000;stroke-width:1.5;"/>
    <path clip-path="url(#pda1e8ca0b2)" d="M 290.288528 104.203876 
L 290.288528 45.229276 
" style="fill:none;stroke:#ff0000;stroke-width:1.5;"/>
    <path clip-path="url(#pda1e8ca0b2)" d="M 302.533658 101.974681 
L 302.533658 43.907761 
" style="fill:none;stroke:#ff0000;stroke-width:1.5;"/>
    <path clip-path="url(#pda1e8ca0b2)" d="M 314.778788 99.238668 
L 314.778788 40.326965 
" style="fill:none;stroke:#ff0000;stroke-width:1.5;"/>
    <path clip-path="url(#pda1e8ca0b2)" d="M 327.023918 98.302852 
L 327.023918 37.113636 
" style="fill:none;stroke:#ff0000;stroke-width:1.5;"/>
   </g>
   <g id="line2d_8">
    <defs>
     <path d="M 5 0 
L -5 -0 
" id="m04ded30542" style="stroke:#ff0000;"/>
    </defs>
    <g clip-path="url(#pda1e8ca0b2)">
     <use style="fill:#ff0000;stroke:#ff0000;" x="82.121321" xlink:href="#m04ded30542" y="277.386364"/>
     <use style="fill:#ff0000;stroke:#ff0000;" x="94.366451" xlink:href="#m04ded30542" y="187.895335"/>
     <use style="fill:#ff0000;stroke:#ff0000;" x="106.61158" xlink:href="#m04ded30542" y="166.98902"/>
     <use style="fill:#ff0000;stroke:#ff0000;" x="118.85671" xlink:href="#m04ded30542" y="157.383111"/>
     <use style="fill:#ff0000;stroke:#ff0000;" x="131.10184" xlink:href="#m04ded30542" y="149.448536"/>
     <use style="fill:#ff0000;stroke:#ff0000;" x="143.34697" xlink:href="#m04ded30542" y="142.930359"/>
     <use style="fill:#ff0000;stroke:#ff0000;" x="155.5921" xlink:href="#m04ded30542" y="136.374262"/>
     <use style="fill:#ff0000;stroke:#ff0000;" x="167.83723" xlink:href="#m04ded30542" y="132.007277"/>
     <use style="fill:#ff0000;stroke:#ff0000;" x="180.08236" xlink:href="#m04ded30542" y="126.667287"/>
     <use style="fill:#ff0000;stroke:#ff0000;" x="192.327489" xlink:href="#m04ded30542" y="124.119478"/>
     <use style="fill:#ff0000;stroke:#ff0000;" x="204.572619" xlink:href="#m04ded30542" y="119.699383"/>
     <use style="fill:#ff0000;stroke:#ff0000;" x="216.817749" xlink:href="#m04ded30542" y="118.807208"/>
     <use style="fill:#ff0000;stroke:#ff0000;" x="229.062879" xlink:href="#m04ded30542" y="115.10314"/>
     <use style="fill:#ff0000;stroke:#ff0000;" x="241.308009" xlink:href="#m04ded30542" y="111.767488"/>
     <use style="fill:#ff0000;stroke:#ff0000;" x="253.553139" xlink:href="#m04ded30542" y="110.444377"/>
     <use style="fill:#ff0000;stroke:#ff0000;" x="265.798269" xlink:href="#m04ded30542" y="107.145727"/>
     <use style="fill:#ff0000;stroke:#ff0000;" x="278.043398" xlink:href="#m04ded30542" y="104.558305"/>
     <use style="fill:#ff0000;stroke:#ff0000;" x="290.288528" xlink:href="#m04ded30542" y="104.203876"/>
     <use style="fill:#ff0000;stroke:#ff0000;" x="302.533658" xlink:href="#m04ded30542" y="101.974681"/>
     <use style="fill:#ff0000;stroke:#ff0000;" x="314.778788" xlink:href="#m04ded30542" y="99.238668"/>
     <use style="fill:#ff0000;stroke:#ff0000;" x="327.023918" xlink:href="#m04ded30542" y="98.302852"/>
    </g>
   </g>
   <g id="line2d_9">
    <g clip-path="url(#pda1e8ca0b2)">
     <use style="fill:#ff0000;stroke:#ff0000;" x="82.121321" xlink:href="#m04ded30542" y="277.386364"/>
     <use style="fill:#ff0000;stroke:#ff0000;" x="94.366451" xlink:href="#m04ded30542" y="148.515324"/>
     <use style="fill:#ff0000;stroke:#ff0000;" x="106.61158" xlink:href="#m04ded30542" y="123.648057"/>
     <use style="fill:#ff0000;stroke:#ff0000;" x="118.85671" xlink:href="#m04ded30542" y="111.830013"/>
     <use style="fill:#ff0000;stroke:#ff0000;" x="131.10184" xlink:href="#m04ded30542" y="101.578831"/>
     <use style="fill:#ff0000;stroke:#ff0000;" x="143.34697" xlink:href="#m04ded30542" y="94.459353"/>
     <use style="fill:#ff0000;stroke:#ff0000;" x="155.5921" xlink:href="#m04ded30542" y="85.383013"/>
     <use style="fill:#ff0000;stroke:#ff0000;" x="167.83723" xlink:href="#m04ded30542" y="81.757574"/>
     <use style="fill:#ff0000;stroke:#ff0000;" x="180.08236" xlink:href="#m04ded30542" y="77.662248"/>
     <use style="fill:#ff0000;stroke:#ff0000;" x="192.327489" xlink:href="#m04ded30542" y="72.250879"/>
     <use style="fill:#ff0000;stroke:#ff0000;" x="204.572619" xlink:href="#m04ded30542" y="67.395241"/>
     <use style="fill:#ff0000;stroke:#ff0000;" x="216.817749" xlink:href="#m04ded30542" y="63.23397"/>
     <use style="fill:#ff0000;stroke:#ff0000;" x="229.062879" xlink:href="#m04ded30542" y="60.235573"/>
     <use style="fill:#ff0000;stroke:#ff0000;" x="241.308009" xlink:href="#m04ded30542" y="57.340858"/>
     <use style="fill:#ff0000;stroke:#ff0000;" x="253.553139" xlink:href="#m04ded30542" y="54.182359"/>
     <use style="fill:#ff0000;stroke:#ff0000;" x="265.798269" xlink:href="#m04ded30542" y="51.616352"/>
     <use style="fill:#ff0000;stroke:#ff0000;" x="278.043398" xlink:href="#m04ded30542" y="49.575881"/>
     <use style="fill:#ff0000;stroke:#ff0000;" x="290.288528" xlink:href="#m04ded30542" y="45.229276"/>
     <use style="fill:#ff0000;stroke:#ff0000;" x="302.533658" xlink:href="#m04ded30542" y="43.907761"/>
     <use style="fill:#ff0000;stroke:#ff0000;" x="314.778788" xlink:href="#m04ded30542" y="40.326965"/>
     <use style="fill:#ff0000;stroke:#ff0000;" x="327.023918" xlink:href="#m04ded30542" y="37.113636"/>
    </g>
   </g>
   <g id="line2d_10">
    <path clip-path="url(#pda1e8ca0b2)" d="M 82.121321 277.386364 
L 94.366451 178.634712 
L 106.61158 155.877581 
L 118.85671 141.777801 
L 131.10184 133.712235 
L 143.34697 126.996471 
L 155.5921 119.735467 
L 167.83723 115.207313 
L 180.08236 111.300866 
L 192.327489 107.254785 
L 204.572619 105.004007 
L 216.817749 100.302972 
L 229.062879 97.211061 
L 241.308009 95.681728 
L 253.553139 92.406962 
L 265.798269 90.206053 
L 278.043398 87.932003 
L 290.288528 86.199867 
L 302.533658 83.393875 
L 314.778788 82.100592 
L 327.023918 79.946228 
" style="fill:none;opacity:0.5;stroke:#404040;stroke-linecap:square;stroke-width:1.5;"/>
    <defs>
     <path d="M -5 5 
L 5 5 
L 5 -5 
L -5 -5 
z
" id="m1c676d77ab" style="stroke:#404040;stroke-linejoin:miter;"/>
    </defs>
    <g clip-path="url(#pda1e8ca0b2)">
     <use style="fill:#404040;opacity:0.5;stroke:#404040;stroke-linejoin:miter;" x="82.121321" xlink:href="#m1c676d77ab" y="277.386364"/>
     <use style="fill:#404040;opacity:0.5;stroke:#404040;stroke-linejoin:miter;" x="94.366451" xlink:href="#m1c676d77ab" y="178.634712"/>
     <use style="fill:#404040;opacity:0.5;stroke:#404040;stroke-linejoin:miter;" x="106.61158" xlink:href="#m1c676d77ab" y="155.877581"/>
     <use style="fill:#404040;opacity:0.5;stroke:#404040;stroke-linejoin:miter;" x="118.85671" xlink:href="#m1c676d77ab" y="141.777801"/>
     <use style="fill:#404040;opacity:0.5;stroke:#404040;stroke-linejoin:miter;" x="131.10184" xlink:href="#m1c676d77ab" y="133.712235"/>
     <use style="fill:#404040;opacity:0.5;stroke:#404040;stroke-linejoin:miter;" x="143.34697" xlink:href="#m1c676d77ab" y="126.996471"/>
     <use style="fill:#404040;opacity:0.5;stroke:#404040;stroke-linejoin:miter;" x="155.5921" xlink:href="#m1c676d77ab" y="119.735467"/>
     <use style="fill:#404040;opacity:0.5;stroke:#404040;stroke-linejoin:miter;" x="167.83723" xlink:href="#m1c676d77ab" y="115.207313"/>
     <use style="fill:#404040;opacity:0.5;stroke:#404040;stroke-linejoin:miter;" x="180.08236" xlink:href="#m1c676d77ab" y="111.300866"/>
     <use style="fill:#404040;opacity:0.5;stroke:#404040;stroke-linejoin:miter;" x="192.327489" xlink:href="#m1c676d77ab" y="107.254785"/>
     <use style="fill:#404040;opacity:0.5;stroke:#404040;stroke-linejoin:miter;" x="204.572619" xlink:href="#m1c676d77ab" y="105.004007"/>
     <use style="fill:#404040;opacity:0.5;stroke:#404040;stroke-linejoin:miter;" x="216.817749" xlink:href="#m1c676d77ab" y="100.302972"/>
     <use style="fill:#404040;opacity:0.5;stroke:#404040;stroke-linejoin:miter;" x="229.062879" xlink:href="#m1c676d77ab" y="97.211061"/>
     <use style="fill:#404040;opacity:0.5;stroke:#404040;stroke-linejoin:miter;" x="241.308009" xlink:href="#m1c676d77ab" y="95.681728"/>
     <use style="fill:#404040;opacity:0.5;stroke:#404040;stroke-linejoin:miter;" x="253.553139" xlink:href="#m1c676d77ab" y="92.406962"/>
     <use style="fill:#404040;opacity:0.5;stroke:#404040;stroke-linejoin:miter;" x="265.798269" xlink:href="#m1c676d77ab" y="90.206053"/>
     <use style="fill:#404040;opacity:0.5;stroke:#404040;stroke-linejoin:miter;" x="278.043398" xlink:href="#m1c676d77ab" y="87.932003"/>
     <use style="fill:#404040;opacity:0.5;stroke:#404040;stroke-linejoin:miter;" x="290.288528" xlink:href="#m1c676d77ab" y="86.199867"/>
     <use style="fill:#404040;opacity:0.5;stroke:#404040;stroke-linejoin:miter;" x="302.533658" xlink:href="#m1c676d77ab" y="83.393875"/>
     <use style="fill:#404040;opacity:0.5;stroke:#404040;stroke-linejoin:miter;" x="314.778788" xlink:href="#m1c676d77ab" y="82.100592"/>
     <use style="fill:#404040;opacity:0.5;stroke:#404040;stroke-linejoin:miter;" x="327.023918" xlink:href="#m1c676d77ab" y="79.946228"/>
    </g>
   </g>
   <g id="line2d_11">
    <path clip-path="url(#pda1e8ca0b2)" d="M 82.121321 277.386364 
L 94.366451 188.847992 
L 106.61158 167.783101 
L 118.85671 155.172758 
L 131.10184 146.884442 
L 143.34697 140.83028 
L 155.5921 134.200957 
L 167.83723 129.177432 
L 180.08236 125.347452 
L 192.327489 120.822623 
L 204.572619 117.215393 
L 216.817749 113.345517 
L 229.062879 109.871273 
L 241.308009 108.53477 
L 253.553139 106.270693 
L 265.798269 104.631647 
L 278.043398 102.211313 
L 290.288528 99.315555 
L 302.533658 97.713081 
L 314.778788 96.861974 
L 327.023918 93.597182 
" style="fill:none;opacity:0.5;stroke:#808080;stroke-linecap:square;stroke-width:1.5;"/>
    <defs>
     <path d="M 0 5 
C 1.326016 5 2.597899 4.473168 3.535534 3.535534 
C 4.473168 2.597899 5 1.326016 5 0 
C 5 -1.326016 4.473168 -2.597899 3.535534 -3.535534 
C 2.597899 -4.473168 1.326016 -5 0 -5 
C -1.326016 -5 -2.597899 -4.473168 -3.535534 -3.535534 
C -4.473168 -2.597899 -5 -1.326016 -5 0 
C -5 1.326016 -4.473168 2.597899 -3.535534 3.535534 
C -2.597899 4.473168 -1.326016 5 0 5 
z
" id="mf50c8bb8b1" style="stroke:#808080;"/>
    </defs>
    <g clip-path="url(#pda1e8ca0b2)">
     <use style="fill:#808080;opacity:0.5;stroke:#808080;" x="82.121321" xlink:href="#mf50c8bb8b1" y="277.386364"/>
     <use style="fill:#808080;opacity:0.5;stroke:#808080;" x="94.366451" xlink:href="#mf50c8bb8b1" y="188.847992"/>
     <use style="fill:#808080;opacity:0.5;stroke:#808080;" x="106.61158" xlink:href="#mf50c8bb8b1" y="167.783101"/>
     <use style="fill:#808080;opacity:0.5;stroke:#808080;" x="118.85671" xlink:href="#mf50c8bb8b1" y="155.172758"/>
     <use style="fill:#808080;opacity:0.5;stroke:#808080;" x="131.10184" xlink:href="#mf50c8bb8b1" y="146.884442"/>
     <use style="fill:#808080;opacity:0.5;stroke:#808080;" x="143.34697" xlink:href="#mf50c8bb8b1" y="140.83028"/>
     <use style="fill:#808080;opacity:0.5;stroke:#808080;" x="155.5921" xlink:href="#mf50c8bb8b1" y="134.200957"/>
     <use style="fill:#808080;opacity:0.5;stroke:#808080;" x="167.83723" xlink:href="#mf50c8bb8b1" y="129.177432"/>
     <use style="fill:#808080;opacity:0.5;stroke:#808080;" x="180.08236" xlink:href="#mf50c8bb8b1" y="125.347452"/>
     <use style="fill:#808080;opacity:0.5;stroke:#808080;" x="192.327489" xlink:href="#mf50c8bb8b1" y="120.822623"/>
     <use style="fill:#808080;opacity:0.5;stroke:#808080;" x="204.572619" xlink:href="#mf50c8bb8b1" y="117.215393"/>
     <use style="fill:#808080;opacity:0.5;stroke:#808080;" x="216.817749" xlink:href="#mf50c8bb8b1" y="113.345517"/>
     <use style="fill:#808080;opacity:0.5;stroke:#808080;" x="229.062879" xlink:href="#mf50c8bb8b1" y="109.871273"/>
     <use style="fill:#808080;opacity:0.5;stroke:#808080;" x="241.308009" xlink:href="#mf50c8bb8b1" y="108.53477"/>
     <use style="fill:#808080;opacity:0.5;stroke:#808080;" x="253.553139" xlink:href="#mf50c8bb8b1" y="106.270693"/>
     <use style="fill:#808080;opacity:0.5;stroke:#808080;" x="265.798269" xlink:href="#mf50c8bb8b1" y="104.631647"/>
     <use style="fill:#808080;opacity:0.5;stroke:#808080;" x="278.043398" xlink:href="#mf50c8bb8b1" y="102.211313"/>
     <use style="fill:#808080;opacity:0.5;stroke:#808080;" x="290.288528" xlink:href="#mf50c8bb8b1" y="99.315555"/>
     <use style="fill:#808080;opacity:0.5;stroke:#808080;" x="302.533658" xlink:href="#mf50c8bb8b1" y="97.713081"/>
     <use style="fill:#808080;opacity:0.5;stroke:#808080;" x="314.778788" xlink:href="#mf50c8bb8b1" y="96.861974"/>
     <use style="fill:#808080;opacity:0.5;stroke:#808080;" x="327.023918" xlink:href="#mf50c8bb8b1" y="93.597182"/>
    </g>
   </g>
   <g id="line2d_12">
    <path clip-path="url(#pda1e8ca0b2)" d="M 82.121321 277.386364 
L 94.366451 208.75591 
L 106.61158 187.90712 
L 118.85671 175.832044 
L 131.10184 166.945293 
L 143.34697 159.734158 
L 155.5921 155.129538 
L 167.83723 149.946431 
L 180.08236 146.475511 
L 192.327489 143.071084 
L 204.572619 138.572852 
L 216.817749 136.657862 
L 229.062879 132.651676 
L 241.308009 131.198811 
L 253.553139 129.370261 
L 265.798269 126.833564 
L 278.043398 124.9086 
L 290.288528 122.521512 
L 302.533658 121.573991 
L 314.778788 120.287357 
L 327.023918 117.674193 
" style="fill:none;opacity:0.5;stroke:#c0c0c0;stroke-linecap:square;stroke-width:1.5;"/>
    <defs>
     <path d="M -0 7.071068 
L 4.242641 0 
L -0 -7.071068 
L -4.242641 -0 
z
" id="m304121832d" style="stroke:#c0c0c0;stroke-linejoin:miter;"/>
    </defs>
    <g clip-path="url(#pda1e8ca0b2)">
     <use style="fill:#c0c0c0;opacity:0.5;stroke:#c0c0c0;stroke-linejoin:miter;" x="82.121321" xlink:href="#m304121832d" y="277.386364"/>
     <use style="fill:#c0c0c0;opacity:0.5;stroke:#c0c0c0;stroke-linejoin:miter;" x="94.366451" xlink:href="#m304121832d" y="208.75591"/>
     <use style="fill:#c0c0c0;opacity:0.5;stroke:#c0c0c0;stroke-linejoin:miter;" x="106.61158" xlink:href="#m304121832d" y="187.90712"/>
     <use style="fill:#c0c0c0;opacity:0.5;stroke:#c0c0c0;stroke-linejoin:miter;" x="118.85671" xlink:href="#m304121832d" y="175.832044"/>
     <use style="fill:#c0c0c0;opacity:0.5;stroke:#c0c0c0;stroke-linejoin:miter;" x="131.10184" xlink:href="#m304121832d" y="166.945293"/>
     <use style="fill:#c0c0c0;opacity:0.5;stroke:#c0c0c0;stroke-linejoin:miter;" x="143.34697" xlink:href="#m304121832d" y="159.734158"/>
     <use style="fill:#c0c0c0;opacity:0.5;stroke:#c0c0c0;stroke-linejoin:miter;" x="155.5921" xlink:href="#m304121832d" y="155.129538"/>
     <use style="fill:#c0c0c0;opacity:0.5;stroke:#c0c0c0;stroke-linejoin:miter;" x="167.83723" xlink:href="#m304121832d" y="149.946431"/>
     <use style="fill:#c0c0c0;opacity:0.5;stroke:#c0c0c0;stroke-linejoin:miter;" x="180.08236" xlink:href="#m304121832d" y="146.475511"/>
     <use style="fill:#c0c0c0;opacity:0.5;stroke:#c0c0c0;stroke-linejoin:miter;" x="192.327489" xlink:href="#m304121832d" y="143.071084"/>
     <use style="fill:#c0c0c0;opacity:0.5;stroke:#c0c0c0;stroke-linejoin:miter;" x="204.572619" xlink:href="#m304121832d" y="138.572852"/>
     <use style="fill:#c0c0c0;opacity:0.5;stroke:#c0c0c0;stroke-linejoin:miter;" x="216.817749" xlink:href="#m304121832d" y="136.657862"/>
     <use style="fill:#c0c0c0;opacity:0.5;stroke:#c0c0c0;stroke-linejoin:miter;" x="229.062879" xlink:href="#m304121832d" y="132.651676"/>
     <use style="fill:#c0c0c0;opacity:0.5;stroke:#c0c0c0;stroke-linejoin:miter;" x="241.308009" xlink:href="#m304121832d" y="131.198811"/>
     <use style="fill:#c0c0c0;opacity:0.5;stroke:#c0c0c0;stroke-linejoin:miter;" x="253.553139" xlink:href="#m304121832d" y="129.370261"/>
     <use style="fill:#c0c0c0;opacity:0.5;stroke:#c0c0c0;stroke-linejoin:miter;" x="265.798269" xlink:href="#m304121832d" y="126.833564"/>
     <use style="fill:#c0c0c0;opacity:0.5;stroke:#c0c0c0;stroke-linejoin:miter;" x="278.043398" xlink:href="#m304121832d" y="124.9086"/>
     <use style="fill:#c0c0c0;opacity:0.5;stroke:#c0c0c0;stroke-linejoin:miter;" x="290.288528" xlink:href="#m304121832d" y="122.521512"/>
     <use style="fill:#c0c0c0;opacity:0.5;stroke:#c0c0c0;stroke-linejoin:miter;" x="302.533658" xlink:href="#m304121832d" y="121.573991"/>
     <use style="fill:#c0c0c0;opacity:0.5;stroke:#c0c0c0;stroke-linejoin:miter;" x="314.778788" xlink:href="#m304121832d" y="120.287357"/>
     <use style="fill:#c0c0c0;opacity:0.5;stroke:#c0c0c0;stroke-linejoin:miter;" x="327.023918" xlink:href="#m304121832d" y="117.674193"/>
    </g>
   </g>
   <g id="line2d_13">
    <path clip-path="url(#pda1e8ca0b2)" d="M 82.121321 277.386364 
L 94.366451 168.20533 
L 106.61158 145.318538 
L 118.85671 134.606562 
L 131.10184 125.513684 
L 143.34697 118.694856 
L 155.5921 110.878638 
L 167.83723 106.882426 
L 180.08236 102.164768 
L 192.327489 98.185179 
L 204.572619 93.547312 
L 216.817749 91.020589 
L 229.062879 87.669356 
L 241.308009 84.554173 
L 253.553139 82.313368 
L 265.798269 79.38104 
L 278.043398 77.067093 
L 290.288528 74.716576 
L 302.533658 72.941221 
L 314.778788 69.782817 
L 327.023918 67.708244 
" style="fill:none;stroke:#ff0000;stroke-linecap:square;stroke-width:1.5;"/>
    <defs>
     <path d="M 0 -5 
L -1.12257 -1.545085 
L -4.755283 -1.545085 
L -1.816356 0.59017 
L -2.938926 4.045085 
L -0 1.90983 
L 2.938926 4.045085 
L 1.816356 0.59017 
L 4.755283 -1.545085 
L 1.12257 -1.545085 
z
" id="m6380d9714b" style="stroke:#ff0000;stroke-linejoin:bevel;"/>
    </defs>
    <g clip-path="url(#pda1e8ca0b2)">
     <use style="fill:#ff0000;stroke:#ff0000;stroke-linejoin:bevel;" x="82.121321" xlink:href="#m6380d9714b" y="277.386364"/>
     <use style="fill:#ff0000;stroke:#ff0000;stroke-linejoin:bevel;" x="94.366451" xlink:href="#m6380d9714b" y="168.20533"/>
     <use style="fill:#ff0000;stroke:#ff0000;stroke-linejoin:bevel;" x="106.61158" xlink:href="#m6380d9714b" y="145.318538"/>
     <use style="fill:#ff0000;stroke:#ff0000;stroke-linejoin:bevel;" x="118.85671" xlink:href="#m6380d9714b" y="134.606562"/>
     <use style="fill:#ff0000;stroke:#ff0000;stroke-linejoin:bevel;" x="131.10184" xlink:href="#m6380d9714b" y="125.513684"/>
     <use style="fill:#ff0000;stroke:#ff0000;stroke-linejoin:bevel;" x="143.34697" xlink:href="#m6380d9714b" y="118.694856"/>
     <use style="fill:#ff0000;stroke:#ff0000;stroke-linejoin:bevel;" x="155.5921" xlink:href="#m6380d9714b" y="110.878638"/>
     <use style="fill:#ff0000;stroke:#ff0000;stroke-linejoin:bevel;" x="167.83723" xlink:href="#m6380d9714b" y="106.882426"/>
     <use style="fill:#ff0000;stroke:#ff0000;stroke-linejoin:bevel;" x="180.08236" xlink:href="#m6380d9714b" y="102.164768"/>
     <use style="fill:#ff0000;stroke:#ff0000;stroke-linejoin:bevel;" x="192.327489" xlink:href="#m6380d9714b" y="98.185179"/>
     <use style="fill:#ff0000;stroke:#ff0000;stroke-linejoin:bevel;" x="204.572619" xlink:href="#m6380d9714b" y="93.547312"/>
     <use style="fill:#ff0000;stroke:#ff0000;stroke-linejoin:bevel;" x="216.817749" xlink:href="#m6380d9714b" y="91.020589"/>
     <use style="fill:#ff0000;stroke:#ff0000;stroke-linejoin:bevel;" x="229.062879" xlink:href="#m6380d9714b" y="87.669356"/>
     <use style="fill:#ff0000;stroke:#ff0000;stroke-linejoin:bevel;" x="241.308009" xlink:href="#m6380d9714b" y="84.554173"/>
     <use style="fill:#ff0000;stroke:#ff0000;stroke-linejoin:bevel;" x="253.553139" xlink:href="#m6380d9714b" y="82.313368"/>
     <use style="fill:#ff0000;stroke:#ff0000;stroke-linejoin:bevel;" x="265.798269" xlink:href="#m6380d9714b" y="79.38104"/>
     <use style="fill:#ff0000;stroke:#ff0000;stroke-linejoin:bevel;" x="278.043398" xlink:href="#m6380d9714b" y="77.067093"/>
     <use style="fill:#ff0000;stroke:#ff0000;stroke-linejoin:bevel;" x="290.288528" xlink:href="#m6380d9714b" y="74.716576"/>
     <use style="fill:#ff0000;stroke:#ff0000;stroke-linejoin:bevel;" x="302.533658" xlink:href="#m6380d9714b" y="72.941221"/>
     <use style="fill:#ff0000;stroke:#ff0000;stroke-linejoin:bevel;" x="314.778788" xlink:href="#m6380d9714b" y="69.782817"/>
     <use style="fill:#ff0000;stroke:#ff0000;stroke-linejoin:bevel;" x="327.023918" xlink:href="#m6380d9714b" y="67.708244"/>
    </g>
   </g>
   <g id="patch_3">
    <path d="M 69.876191 289.4 
L 69.876191 25.1 
" style="fill:none;stroke:#000000;stroke-linecap:square;stroke-linejoin:miter;stroke-width:0.8;"/>
   </g>
   <g id="patch_4">
    <path d="M 339.269048 289.4 
L 339.269048 25.1 
" style="fill:none;stroke:#000000;stroke-linecap:square;stroke-linejoin:miter;stroke-width:0.8;"/>
   </g>
   <g id="patch_5">
    <path d="M 69.876191 289.4 
L 339.269048 289.4 
" style="fill:none;stroke:#000000;stroke-linecap:square;stroke-linejoin:miter;stroke-width:0.8;"/>
   </g>
   <g id="patch_6">
    <path d="M 69.876191 25.1 
L 339.269048 25.1 
" style="fill:none;stroke:#000000;stroke-linecap:square;stroke-linejoin:miter;stroke-width:0.8;"/>
   </g>
   <g id="legend_1">
    <g id="patch_7">
     <path d="M 76.876191 89.981227 
L 144.0256 89.981227 
Q 146.0256 89.981227 146.0256 87.981227 
L 146.0256 32.1 
Q 146.0256 30.1 144.0256 30.1 
L 76.876191 30.1 
Q 74.876191 30.1 74.876191 32.1 
L 74.876191 87.981227 
Q 74.876191 89.981227 76.876191 89.981227 
z
" style="fill:#ffffff;opacity:0.8;stroke:#cccccc;stroke-linejoin:miter;"/>
    </g>
    <g id="LineCollection_2">
     <path d="M 88.876191 42.69832 
L 88.876191 32.69832 
" style="fill:none;stroke:#ff0000;stroke-width:1.5;"/>
    </g>
    <g id="line2d_14">
     <g>
      <use style="fill:#ff0000;stroke:#ff0000;" x="88.876191" xlink:href="#m04ded30542" y="42.69832"/>
     </g>
    </g>
    <g id="line2d_15">
     <g>
      <use style="fill:#ff0000;stroke:#ff0000;" x="88.876191" xlink:href="#m04ded30542" y="32.69832"/>
     </g>
    </g>
    <g id="line2d_16">
     <path d="M 78.876191 37.69832 
L 98.876191 37.69832 
" style="fill:none;stroke:#ff0000;stroke-linecap:square;stroke-width:1.5;"/>
    </g>
    <g id="line2d_17">
     <g>
      <use style="fill:#ff0000;stroke:#ff0000;stroke-linejoin:bevel;" x="88.876191" xlink:href="#m6380d9714b" y="37.69832"/>
     </g>
    </g>
    <g id="text_10">
     <!-- $f_s = 0.8$ -->
     <defs>
      <path d="M 44.59375 40.09375 
C 46.59375 40.09375 47.40625 40.09375 47.40625 42 
C 47.40625 43 46.59375 43 44.796875 43 
L 36.703125 43 
C 38.59375 53.578125 40 60.890625 40.796875 64.171875 
C 41.40625 66.640625 43.5 69 46.09375 69 
C 48.203125 69 50.296875 68.09375 51.296875 67.15625 
C 47.40625 66.75 46.203125 63.78125 46.203125 62.015625 
C 46.203125 59.953125 47.703125 58.734375 49.59375 58.734375 
C 51.59375 58.734375 54.59375 60.46875 54.59375 64.359375 
C 54.59375 68.640625 50.40625 71 46 71 
C 41.703125 71 37.5 67.71875 35.5 63.71875 
C 33.703125 60.125 32.703125 56.421875 30.40625 43 
L 23.703125 43 
C 21.796875 43 20.796875 43 20.796875 41.203125 
C 20.796875 40.09375 21.40625 40.09375 23.40625 40.09375 
L 29.796875 40.09375 
C 28 30.875 23.90625 8.46875 21.59375 -2.140625 
C 19.90625 -10.765625 18.40625 -18 13.40625 -18 
C 13.09375 -18 10.203125 -18 8.40625 -16.109375 
C 13.5 -15.703125 13.5 -11.34375 13.5 -11.25 
C 13.5 -9.265625 12 -8.078125 10.09375 -8.078125 
C 8.09375 -8.078125 5.09375 -9.765625 5.09375 -13.546875 
C 5.09375 -17.8125 9.5 -20 13.40625 -20 
C 23.59375 -20 27.796875 -1.84375 28.90625 3.109375 
C 30.703125 10.75 35.59375 37.125 36.09375 40.09375 
z
" id="CMMI12-102"/>
      <path d="M 22.796875 20 
C 24.5 19.703125 27.203125 19.109375 27.796875 19 
C 29.09375 18.625 33.59375 17.03125 33.59375 12.234375 
C 33.59375 9.15625 30.796875 1.09375 19.203125 1.09375 
C 17.09375 1.09375 9.59375 1.09375 7.59375 6.8125 
C 11.59375 6.3125 13.59375 9.421875 13.59375 11.640625 
C 13.59375 13.75 12.203125 14.84375 10.203125 14.84375 
C 8 14.84375 5.09375 13.140625 5.09375 8.625 
C 5.09375 2.703125 11.09375 -1 19.09375 -1 
C 34.296875 -1 38.796875 10.171875 38.796875 15.375 
C 38.796875 16.859375 38.796875 19.65625 35.59375 22.84375 
C 33.09375 25.25 30.703125 25.75 25.296875 26.84375 
C 22.59375 27.4375 18.296875 28.34375 18.296875 32.828125 
C 18.296875 34.828125 20.09375 42.015625 29.59375 42.015625 
C 33.796875 42.015625 37.90625 40.453125 38.90625 37 
C 34.5 37 34.296875 33.203125 34.296875 33.109375 
C 34.296875 31 36.203125 30.40625 37.09375 30.40625 
C 38.5 30.40625 41.296875 31.484375 41.296875 35.640625 
C 41.296875 39.765625 37.5 44 29.703125 44 
C 16.59375 44 13.09375 33.75 13.09375 29.671875 
C 13.09375 22.09375 20.5 20.5 22.796875 20 
z
" id="CMMI12-115"/>
      <path d="M 64.296875 31.515625 
C 65.796875 31.515625 67.296875 31.515625 67.296875 33.203125 
C 67.296875 35 65.59375 35 63.90625 35 
L 8 35 
C 6.296875 35 4.59375 35 4.59375 33.203125 
C 4.59375 31.515625 6.09375 31.515625 7.59375 31.515625 
z
M 63.90625 14 
C 65.59375 14 67.296875 14 67.296875 15.796875 
C 67.296875 17.484375 65.796875 17.484375 64.296875 17.484375 
L 7.59375 17.484375 
C 6.09375 17.484375 4.59375 17.484375 4.59375 15.796875 
C 4.59375 14 6.296875 14 8 14 
z
" id="CMR17-61"/>
      <path d="M 18.40625 4.796875 
C 18.40625 7.6875 16 9.671875 13.59375 9.671875 
C 10.703125 9.671875 8.703125 7.28125 8.703125 4.890625 
C 8.703125 2 11.09375 0 13.5 0 
C 16.40625 0 18.40625 2.390625 18.40625 4.796875 
z
" id="CMMI12-58"/>
      <path d="M 27.203125 35.375 
C 33.5 38.546875 39.90625 43.328125 39.90625 50.984375 
C 39.90625 60.015625 31.09375 65.296875 23 65.296875 
C 13.90625 65.296875 5.90625 58.734375 5.90625 49.6875 
C 5.90625 47.203125 6.5 42.921875 10.40625 39.140625 
C 11.40625 38.15625 15.59375 35.171875 18.296875 33.28125 
C 13.796875 30.984375 3.296875 25.53125 3.296875 14.59375 
C 3.296875 4.359375 13.09375 -2 22.796875 -2 
C 33.5 -2 42.5 5.65625 42.5 15.78125 
C 42.5 24.84375 36.40625 29.015625 32.40625 31.703125 
z
M 14.09375 44.09375 
C 13.296875 44.59375 9.296875 47.671875 9.296875 52.359375 
C 9.296875 58.421875 15.59375 63 22.796875 63 
C 30.703125 63 36.5 57.4375 36.5 50.96875 
C 36.5 41.703125 26.09375 36.421875 25.59375 36.421875 
C 25.5 36.421875 25.40625 36.421875 24.59375 37.03125 
z
M 32.5 23.734375 
C 34 22.640625 38.796875 19.375 38.796875 13.296875 
C 38.796875 5.953125 31.40625 0.390625 23 0.390625 
C 13.90625 0.390625 7 6.84375 7 14.6875 
C 7 22.546875 13.09375 29.09375 20 32.1875 
z
" id="CMR17-56"/>
     </defs>
     <g transform="translate(106.876191 41.19832)scale(0.1 -0.1)">
      <use transform="translate(0 14.943915)scale(0.996264)" xlink:href="#CMMI12-102"/>
      <use transform="translate(48.083238 0)scale(0.697382)" xlink:href="#CMMI12-115"/>
      <use transform="translate(108.420267 14.943915)scale(0.996264)" xlink:href="#CMR17-61"/>
      <use transform="translate(207.809064 14.943915)scale(0.996264)" xlink:href="#CMR17-48"/>
      <use transform="translate(253.499542 14.943915)scale(0.996264)" xlink:href="#CMMI12-58"/>
      <use transform="translate(280.596719 14.943915)scale(0.996264)" xlink:href="#CMR17-56"/>
     </g>
    </g>
    <g id="line2d_18">
     <path d="M 78.876191 51.918627 
L 98.876191 51.918627 
" style="fill:none;opacity:0.5;stroke:#404040;stroke-linecap:square;stroke-width:1.5;"/>
    </g>
    <g id="line2d_19">
     <g>
      <use style="fill:#404040;opacity:0.5;stroke:#404040;stroke-linejoin:miter;" x="88.876191" xlink:href="#m1c676d77ab" y="51.918627"/>
     </g>
    </g>
    <g id="text_11">
     <!-- $f_s = 0.6$ -->
     <g transform="translate(106.876191 55.418627)scale(0.1 -0.1)">
      <use transform="translate(0 14.943915)scale(0.996264)" xlink:href="#CMMI12-102"/>
      <use transform="translate(48.083238 0)scale(0.697382)" xlink:href="#CMMI12-115"/>
      <use transform="translate(108.420267 14.943915)scale(0.996264)" xlink:href="#CMR17-61"/>
      <use transform="translate(207.809064 14.943915)scale(0.996264)" xlink:href="#CMR17-48"/>
      <use transform="translate(253.499542 14.943915)scale(0.996264)" xlink:href="#CMMI12-58"/>
      <use transform="translate(280.596719 14.943915)scale(0.996264)" xlink:href="#CMR17-54"/>
     </g>
    </g>
    <g id="line2d_20">
     <path d="M 78.876191 66.138934 
L 98.876191 66.138934 
" style="fill:none;opacity:0.5;stroke:#808080;stroke-linecap:square;stroke-width:1.5;"/>
    </g>
    <g id="line2d_21">
     <g>
      <use style="fill:#808080;opacity:0.5;stroke:#808080;" x="88.876191" xlink:href="#mf50c8bb8b1" y="66.138934"/>
     </g>
    </g>
    <g id="text_12">
     <!-- $f_s = 0.4$ -->
     <g transform="translate(106.876191 69.638934)scale(0.1 -0.1)">
      <use transform="translate(0 14.943915)scale(0.996264)" xlink:href="#CMMI12-102"/>
      <use transform="translate(48.083238 0)scale(0.697382)" xlink:href="#CMMI12-115"/>
      <use transform="translate(108.420267 14.943915)scale(0.996264)" xlink:href="#CMR17-61"/>
      <use transform="translate(207.809064 14.943915)scale(0.996264)" xlink:href="#CMR17-48"/>
      <use transform="translate(253.499542 14.943915)scale(0.996264)" xlink:href="#CMMI12-58"/>
      <use transform="translate(280.596719 14.943915)scale(0.996264)" xlink:href="#CMR17-52"/>
     </g>
    </g>
    <g id="line2d_22">
     <path d="M 78.876191 80.35924 
L 98.876191 80.35924 
" style="fill:none;opacity:0.5;stroke:#c0c0c0;stroke-linecap:square;stroke-width:1.5;"/>
    </g>
    <g id="line2d_23">
     <g>
      <use style="fill:#c0c0c0;opacity:0.5;stroke:#c0c0c0;stroke-linejoin:miter;" x="88.876191" xlink:href="#m304121832d" y="80.35924"/>
     </g>
    </g>
    <g id="text_13">
     <!-- $f_s = 0.2$ -->
     <g transform="translate(106.876191 83.85924)scale(0.1 -0.1)">
      <use transform="translate(0 14.943915)scale(0.996264)" xlink:href="#CMMI12-102"/>
      <use transform="translate(48.083238 0)scale(0.697382)" xlink:href="#CMMI12-115"/>
      <use transform="translate(108.420267 14.943915)scale(0.996264)" xlink:href="#CMR17-61"/>
      <use transform="translate(207.809064 14.943915)scale(0.996264)" xlink:href="#CMR17-48"/>
      <use transform="translate(253.499542 14.943915)scale(0.996264)" xlink:href="#CMMI12-58"/>
      <use transform="translate(280.596719 14.943915)scale(0.996264)" xlink:href="#CMR17-50"/>
     </g>
    </g>
   </g>
  </g>
  <g id="axes_2">
   <g id="patch_8">
    <path d="M 425.507143 289.4 
L 694.9 289.4 
L 694.9 25.1 
L 425.507143 25.1 
z
" style="fill:#ffffff;"/>
   </g>
   <g id="matplotlib.axis_3">
    <g id="xtick_4">
     <g id="line2d_24">
      <g>
       <use style="stroke:#000000;stroke-width:0.8;" x="437.752273" xlink:href="#md8163abd5f" y="289.4"/>
      </g>
     </g>
     <g id="text_14">
      <!-- $0$ -->
      <g transform="translate(433.183225 310.596641)scale(0.2 -0.2)">
       <use transform="scale(0.996264)" xlink:href="#CMR17-48"/>
      </g>
     </g>
    </g>
    <g id="xtick_5">
     <g id="line2d_25">
      <g>
       <use style="stroke:#000000;stroke-width:0.8;" x="560.203572" xlink:href="#md8163abd5f" y="289.4"/>
      </g>
     </g>
     <g id="text_15">
      <!-- $50$ -->
      <g transform="translate(551.065476 310.596641)scale(0.2 -0.2)">
       <use transform="scale(0.996264)" xlink:href="#CMR17-53"/>
       <use transform="translate(45.690477 0)scale(0.996264)" xlink:href="#CMR17-48"/>
      </g>
     </g>
    </g>
    <g id="xtick_6">
     <g id="line2d_26">
      <g>
       <use style="stroke:#000000;stroke-width:0.8;" x="682.65487" xlink:href="#md8163abd5f" y="289.4"/>
      </g>
     </g>
     <g id="text_16">
      <!-- $100$ -->
      <g transform="translate(668.947727 310.596641)scale(0.2 -0.2)">
       <use transform="scale(0.996264)" xlink:href="#CMR17-49"/>
       <use transform="translate(45.690477 0)scale(0.996264)" xlink:href="#CMR17-48"/>
       <use transform="translate(91.380954 0)scale(0.996264)" xlink:href="#CMR17-48"/>
      </g>
     </g>
    </g>
    <g id="text_17">
     <!-- Time (years) -->
     <g transform="translate(504.50288 333.405988)scale(0.2 -0.2)">
      <use transform="scale(0.996264)" xlink:href="#Nimbus_Sans_L_Regular-84"/>
      <use transform="translate(60.871631 0)scale(0.996264)" xlink:href="#Nimbus_Sans_L_Regular-105"/>
      <use transform="translate(82.988415 0)scale(0.996264)" xlink:href="#Nimbus_Sans_L_Regular-109"/>
      <use transform="translate(165.976845 0)scale(0.996264)" xlink:href="#Nimbus_Sans_L_Regular-101"/>
      <use transform="translate(249.063692 0)scale(0.996264)" xlink:href="#Nimbus_Sans_L_Regular-40"/>
      <use transform="translate(282.238922 0)scale(0.996264)" xlink:href="#Nimbus_Sans_L_Regular-121"/>
      <use transform="translate(330.060111 0)scale(0.996264)" xlink:href="#Nimbus_Sans_L_Regular-101"/>
      <use transform="translate(385.451788 0)scale(0.996264)" xlink:href="#Nimbus_Sans_L_Regular-97"/>
      <use transform="translate(440.843465 0)scale(0.996264)" xlink:href="#Nimbus_Sans_L_Regular-114"/>
      <use transform="translate(474.018695 0)scale(0.996264)" xlink:href="#Nimbus_Sans_L_Regular-115"/>
      <use transform="translate(523.831895 0)scale(0.996264)" xlink:href="#Nimbus_Sans_L_Regular-41"/>
     </g>
    </g>
   </g>
   <g id="matplotlib.axis_4">
    <g id="ytick_5">
     <g id="line2d_27">
      <g>
       <use style="stroke:#000000;stroke-width:0.8;" x="425.507143" xlink:href="#m66abf4bed0" y="270.596047"/>
      </g>
     </g>
     <g id="text_18">
      <!-- $0$ -->
      <g transform="translate(409.369048 277.694367)scale(0.2 -0.2)">
       <use transform="scale(0.996264)" xlink:href="#CMR17-48"/>
      </g>
     </g>
    </g>
    <g id="ytick_6">
     <g id="line2d_28">
      <g>
       <use style="stroke:#000000;stroke-width:0.8;" x="425.507143" xlink:href="#m66abf4bed0" y="212.18728"/>
      </g>
     </g>
     <g id="text_19">
      <!-- $2$ -->
      <g transform="translate(409.369048 219.2856)scale(0.2 -0.2)">
       <use transform="scale(0.996264)" xlink:href="#CMR17-50"/>
      </g>
     </g>
    </g>
    <g id="ytick_7">
     <g id="line2d_29">
      <g>
       <use style="stroke:#000000;stroke-width:0.8;" x="425.507143" xlink:href="#m66abf4bed0" y="153.778513"/>
      </g>
     </g>
     <g id="text_20">
      <!-- $4$ -->
      <g transform="translate(409.369048 160.876833)scale(0.2 -0.2)">
       <use transform="scale(0.996264)" xlink:href="#CMR17-52"/>
      </g>
     </g>
    </g>
    <g id="ytick_8">
     <g id="line2d_30">
      <g>
       <use style="stroke:#000000;stroke-width:0.8;" x="425.507143" xlink:href="#m66abf4bed0" y="95.369745"/>
      </g>
     </g>
     <g id="text_21">
      <!-- $6$ -->
      <g transform="translate(409.369048 102.468066)scale(0.2 -0.2)">
       <use transform="scale(0.996264)" xlink:href="#CMR17-54"/>
      </g>
     </g>
    </g>
    <g id="ytick_9">
     <g id="line2d_31">
      <g>
       <use style="stroke:#000000;stroke-width:0.8;" x="425.507143" xlink:href="#m66abf4bed0" y="36.960978"/>
      </g>
     </g>
     <g id="text_22">
      <!-- $8$ -->
      <g transform="translate(409.369048 44.059299)scale(0.2 -0.2)">
       <use transform="scale(0.996264)" xlink:href="#CMR17-56"/>
      </g>
     </g>
    </g>
    <g id="text_23">
     <!-- Mean number of mutations -->
     <defs>
      <path d="M 46.796875 -0.03125 
L 67.296875 61.171875 
L 67.296875 -0.03125 
L 76.09375 -0.03125 
L 76.09375 73 
L 63.203125 73 
L 42 9.390625 
L 20.40625 73 
L 7.5 73 
L 7.5 -0.03125 
L 16.296875 -0.03125 
L 16.296875 61.171875 
L 37 -0.03125 
z
" id="Nimbus_Sans_L_Regular-77"/>
     </defs>
     <g transform="translate(379.845133 275.544889)rotate(-90)scale(0.2 -0.2)">
      <use transform="scale(0.996264)" xlink:href="#Nimbus_Sans_L_Regular-77"/>
      <use transform="translate(82.98843 0)scale(0.996264)" xlink:href="#Nimbus_Sans_L_Regular-101"/>
      <use transform="translate(138.380107 0)scale(0.996264)" xlink:href="#Nimbus_Sans_L_Regular-97"/>
      <use transform="translate(193.771784 0)scale(0.996264)" xlink:href="#Nimbus_Sans_L_Regular-110"/>
      <use transform="translate(276.858631 0)scale(0.996264)" xlink:href="#Nimbus_Sans_L_Regular-110"/>
      <use transform="translate(331.254211 0)scale(0.996264)" xlink:href="#Nimbus_Sans_L_Regular-117"/>
      <use transform="translate(386.645888 0)scale(0.996264)" xlink:href="#Nimbus_Sans_L_Regular-109"/>
      <use transform="translate(469.634318 0)scale(0.996264)" xlink:href="#Nimbus_Sans_L_Regular-98"/>
      <use transform="translate(525.025995 0)scale(0.996264)" xlink:href="#Nimbus_Sans_L_Regular-101"/>
      <use transform="translate(580.417672 0)scale(0.996264)" xlink:href="#Nimbus_Sans_L_Regular-114"/>
      <use transform="translate(641.288071 0)scale(0.996264)" xlink:href="#Nimbus_Sans_L_Regular-111"/>
      <use transform="translate(696.679748 0)scale(0.996264)" xlink:href="#Nimbus_Sans_L_Regular-102"/>
      <use transform="translate(752.070088 0)scale(0.996264)" xlink:href="#Nimbus_Sans_L_Regular-109"/>
      <use transform="translate(834.062421 0)scale(0.996264)" xlink:href="#Nimbus_Sans_L_Regular-117"/>
      <use transform="translate(889.454098 0)scale(0.996264)" xlink:href="#Nimbus_Sans_L_Regular-116"/>
      <use transform="translate(917.149268 0)scale(0.996264)" xlink:href="#Nimbus_Sans_L_Regular-97"/>
      <use transform="translate(972.540944 0)scale(0.996264)" xlink:href="#Nimbus_Sans_L_Regular-116"/>
      <use transform="translate(1000.236114 0)scale(0.996264)" xlink:href="#Nimbus_Sans_L_Regular-105"/>
      <use transform="translate(1022.352898 0)scale(0.996264)" xlink:href="#Nimbus_Sans_L_Regular-111"/>
      <use transform="translate(1077.744575 0)scale(0.996264)" xlink:href="#Nimbus_Sans_L_Regular-110"/>
      <use transform="translate(1133.136252 0)scale(0.996264)" xlink:href="#Nimbus_Sans_L_Regular-115"/>
     </g>
     <!--  per mtDNA -->
     <defs>
      <path d="M 5.40625 -22 
L 13.796875 -22 
L 13.796875 5 
C 18.203125 -0.421875 23.09375 -2.8125 29.90625 -2.8125 
C 43.40625 -2.8125 52.296875 8.15625 52.296875 24.984375 
C 52.296875 42.71875 43.703125 53.8125 29.796875 53.8125 
C 22.703125 53.8125 17 50.59375 13.09375 44.390625 
L 13.09375 52.328125 
L 5.40625 52.328125 
z
M 28.40625 46 
C 37.59375 46 43.59375 37.8125 43.59375 25.1875 
C 43.59375 13.171875 37.5 5 28.40625 5 
C 19.59375 5 13.796875 13.078125 13.796875 25.5 
C 13.796875 37.921875 19.59375 46 28.40625 46 
z
" id="Nimbus_Sans_L_Regular-112"/>
      <path d="M 8.90625 0 
L 37 0 
C 55.40625 0 66.703125 13.828125 66.703125 36.546875 
C 66.703125 59.171875 55.5 73 37 73 
L 8.90625 73 
z
M 18.203125 8.21875 
L 18.203125 64.78125 
L 35.40625 64.78125 
C 49.796875 64.78125 57.40625 55.0625 57.40625 36.453125 
C 57.40625 18.03125 49.796875 8.21875 35.40625 8.21875 
z
" id="Nimbus_Sans_L_Regular-68"/>
      <path d="M 47.40625 22 
L 54.90625 0 
L 65.296875 0 
L 39.703125 73 
L 27.703125 73 
L 1.703125 0 
L 11.59375 0 
L 19.296875 22 
z
M 44.796875 29.8125 
L 21.59375 29.8125 
L 33.59375 63 
z
" id="Nimbus_Sans_L_Regular-65"/>
     </defs>
     <g transform="translate(401.125075 206.51472)rotate(-90)scale(0.2 -0.2)">
      <use transform="scale(0.996264)" xlink:href="#Nimbus_Sans_L_Regular-112"/>
      <use transform="translate(55.391677 0)scale(0.996264)" xlink:href="#Nimbus_Sans_L_Regular-101"/>
      <use transform="translate(110.783354 0)scale(0.996264)" xlink:href="#Nimbus_Sans_L_Regular-114"/>
      <use transform="translate(171.653753 0)scale(0.996264)" xlink:href="#Nimbus_Sans_L_Regular-109"/>
      <use transform="translate(254.642183 0)scale(0.996264)" xlink:href="#Nimbus_Sans_L_Regular-116"/>
      <use transform="translate(282.337353 0)scale(0.996264)" xlink:href="#Nimbus_Sans_L_Regular-68"/>
      <use transform="translate(354.267338 0)scale(0.996264)" xlink:href="#Nimbus_Sans_L_Regular-78"/>
      <use transform="translate(426.197323 0)scale(0.996264)" xlink:href="#Nimbus_Sans_L_Regular-65"/>
     </g>
    </g>
   </g>
   <g id="LineCollection_3">
    <path clip-path="url(#pb35eb648a7)" d="M 437.752273 270.596047 
L 437.752273 270.596047 
" style="fill:none;stroke:#ff0000;stroke-width:1.5;"/>
    <path clip-path="url(#pb35eb648a7)" d="M 449.997403 277.386364 
L 449.997403 246.014887 
" style="fill:none;stroke:#ff0000;stroke-width:1.5;"/>
    <path clip-path="url(#pb35eb648a7)" d="M 462.242533 274.441462 
L 462.242533 230.759325 
" style="fill:none;stroke:#ff0000;stroke-width:1.5;"/>
    <path clip-path="url(#pb35eb648a7)" d="M 474.487663 269.91826 
L 474.487663 217.791963 
" style="fill:none;stroke:#ff0000;stroke-width:1.5;"/>
    <path clip-path="url(#pb35eb648a7)" d="M 486.732792 264.421973 
L 486.732792 204.740254 
" style="fill:none;stroke:#ff0000;stroke-width:1.5;"/>
    <path clip-path="url(#pb35eb648a7)" d="M 498.977922 257.916327 
L 498.977922 193.041523 
" style="fill:none;stroke:#ff0000;stroke-width:1.5;"/>
    <path clip-path="url(#pb35eb648a7)" d="M 511.223052 251.701859 
L 511.223052 181.456503 
" style="fill:none;stroke:#ff0000;stroke-width:1.5;"/>
    <path clip-path="url(#pb35eb648a7)" d="M 523.468182 245.289961 
L 523.468182 170.402544 
" style="fill:none;stroke:#ff0000;stroke-width:1.5;"/>
    <path clip-path="url(#pb35eb648a7)" d="M 535.713312 238.393034 
L 535.713312 158.830852 
" style="fill:none;stroke:#ff0000;stroke-width:1.5;"/>
    <path clip-path="url(#pb35eb648a7)" d="M 547.958442 230.531117 
L 547.958442 147.845837 
" style="fill:none;stroke:#ff0000;stroke-width:1.5;"/>
    <path clip-path="url(#pb35eb648a7)" d="M 560.203572 222.83074 
L 560.203572 137.012704 
" style="fill:none;stroke:#ff0000;stroke-width:1.5;"/>
    <path clip-path="url(#pb35eb648a7)" d="M 572.448701 214.4594 
L 572.448701 125.545739 
" style="fill:none;stroke:#ff0000;stroke-width:1.5;"/>
    <path clip-path="url(#pb35eb648a7)" d="M 584.693831 206.9421 
L 584.693831 115.48165 
" style="fill:none;stroke:#ff0000;stroke-width:1.5;"/>
    <path clip-path="url(#pb35eb648a7)" d="M 596.938961 198.681261 
L 596.938961 105.196303 
" style="fill:none;stroke:#ff0000;stroke-width:1.5;"/>
    <path clip-path="url(#pb35eb648a7)" d="M 609.184091 189.824397 
L 609.184091 94.602756 
" style="fill:none;stroke:#ff0000;stroke-width:1.5;"/>
    <path clip-path="url(#pb35eb648a7)" d="M 621.429221 180.918318 
L 621.429221 84.393164 
" style="fill:none;stroke:#ff0000;stroke-width:1.5;"/>
    <path clip-path="url(#pb35eb648a7)" d="M 633.674351 172.398228 
L 633.674351 74.77628 
" style="fill:none;stroke:#ff0000;stroke-width:1.5;"/>
    <path clip-path="url(#pb35eb648a7)" d="M 645.919481 163.800803 
L 645.919481 64.920274 
" style="fill:none;stroke:#ff0000;stroke-width:1.5;"/>
    <path clip-path="url(#pb35eb648a7)" d="M 658.16461 155.682263 
L 658.16461 55.537737 
" style="fill:none;stroke:#ff0000;stroke-width:1.5;"/>
    <path clip-path="url(#pb35eb648a7)" d="M 670.40974 147.034267 
L 670.40974 46.616084 
" style="fill:none;stroke:#ff0000;stroke-width:1.5;"/>
    <path clip-path="url(#pb35eb648a7)" d="M 682.65487 138.911576 
L 682.65487 37.113636 
" style="fill:none;stroke:#ff0000;stroke-width:1.5;"/>
   </g>
   <g id="line2d_32">
    <g clip-path="url(#pb35eb648a7)">
     <use style="fill:#ff0000;stroke:#ff0000;" x="437.752273" xlink:href="#m04ded30542" y="270.596047"/>
     <use style="fill:#ff0000;stroke:#ff0000;" x="449.997403" xlink:href="#m04ded30542" y="277.386364"/>
     <use style="fill:#ff0000;stroke:#ff0000;" x="462.242533" xlink:href="#m04ded30542" y="274.441462"/>
     <use style="fill:#ff0000;stroke:#ff0000;" x="474.487663" xlink:href="#m04ded30542" y="269.91826"/>
     <use style="fill:#ff0000;stroke:#ff0000;" x="486.732792" xlink:href="#m04ded30542" y="264.421973"/>
     <use style="fill:#ff0000;stroke:#ff0000;" x="498.977922" xlink:href="#m04ded30542" y="257.916327"/>
     <use style="fill:#ff0000;stroke:#ff0000;" x="511.223052" xlink:href="#m04ded30542" y="251.701859"/>
     <use style="fill:#ff0000;stroke:#ff0000;" x="523.468182" xlink:href="#m04ded30542" y="245.289961"/>
     <use style="fill:#ff0000;stroke:#ff0000;" x="535.713312" xlink:href="#m04ded30542" y="238.393034"/>
     <use style="fill:#ff0000;stroke:#ff0000;" x="547.958442" xlink:href="#m04ded30542" y="230.531117"/>
     <use style="fill:#ff0000;stroke:#ff0000;" x="560.203572" xlink:href="#m04ded30542" y="222.83074"/>
     <use style="fill:#ff0000;stroke:#ff0000;" x="572.448701" xlink:href="#m04ded30542" y="214.4594"/>
     <use style="fill:#ff0000;stroke:#ff0000;" x="584.693831" xlink:href="#m04ded30542" y="206.9421"/>
     <use style="fill:#ff0000;stroke:#ff0000;" x="596.938961" xlink:href="#m04ded30542" y="198.681261"/>
     <use style="fill:#ff0000;stroke:#ff0000;" x="609.184091" xlink:href="#m04ded30542" y="189.824397"/>
     <use style="fill:#ff0000;stroke:#ff0000;" x="621.429221" xlink:href="#m04ded30542" y="180.918318"/>
     <use style="fill:#ff0000;stroke:#ff0000;" x="633.674351" xlink:href="#m04ded30542" y="172.398228"/>
     <use style="fill:#ff0000;stroke:#ff0000;" x="645.919481" xlink:href="#m04ded30542" y="163.800803"/>
     <use style="fill:#ff0000;stroke:#ff0000;" x="658.16461" xlink:href="#m04ded30542" y="155.682263"/>
     <use style="fill:#ff0000;stroke:#ff0000;" x="670.40974" xlink:href="#m04ded30542" y="147.034267"/>
     <use style="fill:#ff0000;stroke:#ff0000;" x="682.65487" xlink:href="#m04ded30542" y="138.911576"/>
    </g>
   </g>
   <g id="line2d_33">
    <g clip-path="url(#pb35eb648a7)">
     <use style="fill:#ff0000;stroke:#ff0000;" x="437.752273" xlink:href="#m04ded30542" y="270.596047"/>
     <use style="fill:#ff0000;stroke:#ff0000;" x="449.997403" xlink:href="#m04ded30542" y="246.014887"/>
     <use style="fill:#ff0000;stroke:#ff0000;" x="462.242533" xlink:href="#m04ded30542" y="230.759325"/>
     <use style="fill:#ff0000;stroke:#ff0000;" x="474.487663" xlink:href="#m04ded30542" y="217.791963"/>
     <use style="fill:#ff0000;stroke:#ff0000;" x="486.732792" xlink:href="#m04ded30542" y="204.740254"/>
     <use style="fill:#ff0000;stroke:#ff0000;" x="498.977922" xlink:href="#m04ded30542" y="193.041523"/>
     <use style="fill:#ff0000;stroke:#ff0000;" x="511.223052" xlink:href="#m04ded30542" y="181.456503"/>
     <use style="fill:#ff0000;stroke:#ff0000;" x="523.468182" xlink:href="#m04ded30542" y="170.402544"/>
     <use style="fill:#ff0000;stroke:#ff0000;" x="535.713312" xlink:href="#m04ded30542" y="158.830852"/>
     <use style="fill:#ff0000;stroke:#ff0000;" x="547.958442" xlink:href="#m04ded30542" y="147.845837"/>
     <use style="fill:#ff0000;stroke:#ff0000;" x="560.203572" xlink:href="#m04ded30542" y="137.012704"/>
     <use style="fill:#ff0000;stroke:#ff0000;" x="572.448701" xlink:href="#m04ded30542" y="125.545739"/>
     <use style="fill:#ff0000;stroke:#ff0000;" x="584.693831" xlink:href="#m04ded30542" y="115.48165"/>
     <use style="fill:#ff0000;stroke:#ff0000;" x="596.938961" xlink:href="#m04ded30542" y="105.196303"/>
     <use style="fill:#ff0000;stroke:#ff0000;" x="609.184091" xlink:href="#m04ded30542" y="94.602756"/>
     <use style="fill:#ff0000;stroke:#ff0000;" x="621.429221" xlink:href="#m04ded30542" y="84.393164"/>
     <use style="fill:#ff0000;stroke:#ff0000;" x="633.674351" xlink:href="#m04ded30542" y="74.77628"/>
     <use style="fill:#ff0000;stroke:#ff0000;" x="645.919481" xlink:href="#m04ded30542" y="64.920274"/>
     <use style="fill:#ff0000;stroke:#ff0000;" x="658.16461" xlink:href="#m04ded30542" y="55.537737"/>
     <use style="fill:#ff0000;stroke:#ff0000;" x="670.40974" xlink:href="#m04ded30542" y="46.616084"/>
     <use style="fill:#ff0000;stroke:#ff0000;" x="682.65487" xlink:href="#m04ded30542" y="37.113636"/>
    </g>
   </g>
   <g id="line2d_34">
    <path clip-path="url(#pb35eb648a7)" d="M 437.752273 270.596047 
L 449.997403 263.885172 
L 462.242533 256.828049 
L 474.487663 249.976701 
L 486.732792 243.245733 
L 498.977922 236.265213 
L 511.223052 229.67282 
L 523.468182 223.202005 
L 535.713312 216.274521 
L 547.958442 209.098566 
L 560.203572 202.231651 
L 572.448701 195.426796 
L 584.693831 188.423059 
L 596.938961 181.247017 
L 609.184091 174.465584 
L 621.429221 168.047103 
L 633.674351 161.667931 
L 645.919481 155.49684 
L 658.16461 148.479494 
L 670.40974 141.347404 
L 682.65487 134.960639 
" style="fill:none;opacity:0.5;stroke:#404040;stroke-linecap:square;stroke-width:1.5;"/>
    <g clip-path="url(#pb35eb648a7)">
     <use style="fill:#404040;opacity:0.5;stroke:#404040;stroke-linejoin:miter;" x="437.752273" xlink:href="#m1c676d77ab" y="270.596047"/>
     <use style="fill:#404040;opacity:0.5;stroke:#404040;stroke-linejoin:miter;" x="449.997403" xlink:href="#m1c676d77ab" y="263.885172"/>
     <use style="fill:#404040;opacity:0.5;stroke:#404040;stroke-linejoin:miter;" x="462.242533" xlink:href="#m1c676d77ab" y="256.828049"/>
     <use style="fill:#404040;opacity:0.5;stroke:#404040;stroke-linejoin:miter;" x="474.487663" xlink:href="#m1c676d77ab" y="249.976701"/>
     <use style="fill:#404040;opacity:0.5;stroke:#404040;stroke-linejoin:miter;" x="486.732792" xlink:href="#m1c676d77ab" y="243.245733"/>
     <use style="fill:#404040;opacity:0.5;stroke:#404040;stroke-linejoin:miter;" x="498.977922" xlink:href="#m1c676d77ab" y="236.265213"/>
     <use style="fill:#404040;opacity:0.5;stroke:#404040;stroke-linejoin:miter;" x="511.223052" xlink:href="#m1c676d77ab" y="229.67282"/>
     <use style="fill:#404040;opacity:0.5;stroke:#404040;stroke-linejoin:miter;" x="523.468182" xlink:href="#m1c676d77ab" y="223.202005"/>
     <use style="fill:#404040;opacity:0.5;stroke:#404040;stroke-linejoin:miter;" x="535.713312" xlink:href="#m1c676d77ab" y="216.274521"/>
     <use style="fill:#404040;opacity:0.5;stroke:#404040;stroke-linejoin:miter;" x="547.958442" xlink:href="#m1c676d77ab" y="209.098566"/>
     <use style="fill:#404040;opacity:0.5;stroke:#404040;stroke-linejoin:miter;" x="560.203572" xlink:href="#m1c676d77ab" y="202.231651"/>
     <use style="fill:#404040;opacity:0.5;stroke:#404040;stroke-linejoin:miter;" x="572.448701" xlink:href="#m1c676d77ab" y="195.426796"/>
     <use style="fill:#404040;opacity:0.5;stroke:#404040;stroke-linejoin:miter;" x="584.693831" xlink:href="#m1c676d77ab" y="188.423059"/>
     <use style="fill:#404040;opacity:0.5;stroke:#404040;stroke-linejoin:miter;" x="596.938961" xlink:href="#m1c676d77ab" y="181.247017"/>
     <use style="fill:#404040;opacity:0.5;stroke:#404040;stroke-linejoin:miter;" x="609.184091" xlink:href="#m1c676d77ab" y="174.465584"/>
     <use style="fill:#404040;opacity:0.5;stroke:#404040;stroke-linejoin:miter;" x="621.429221" xlink:href="#m1c676d77ab" y="168.047103"/>
     <use style="fill:#404040;opacity:0.5;stroke:#404040;stroke-linejoin:miter;" x="633.674351" xlink:href="#m1c676d77ab" y="161.667931"/>
     <use style="fill:#404040;opacity:0.5;stroke:#404040;stroke-linejoin:miter;" x="645.919481" xlink:href="#m1c676d77ab" y="155.49684"/>
     <use style="fill:#404040;opacity:0.5;stroke:#404040;stroke-linejoin:miter;" x="658.16461" xlink:href="#m1c676d77ab" y="148.479494"/>
     <use style="fill:#404040;opacity:0.5;stroke:#404040;stroke-linejoin:miter;" x="670.40974" xlink:href="#m1c676d77ab" y="141.347404"/>
     <use style="fill:#404040;opacity:0.5;stroke:#404040;stroke-linejoin:miter;" x="682.65487" xlink:href="#m1c676d77ab" y="134.960639"/>
    </g>
   </g>
   <g id="line2d_35">
    <path clip-path="url(#pb35eb648a7)" d="M 437.752273 270.596047 
L 449.997403 266.056722 
L 462.242533 261.489828 
L 474.487663 257.027165 
L 486.732792 252.568268 
L 498.977922 248.143133 
L 511.223052 243.445637 
L 523.468182 238.772935 
L 535.713312 233.913706 
L 547.958442 229.07048 
L 560.203572 224.593068 
L 572.448701 220.064052 
L 584.693831 215.278973 
L 596.938961 210.137541 
L 609.184091 205.941367 
L 621.429221 201.339691 
L 633.674351 196.787516 
L 645.919481 192.648116 
L 658.16461 187.919664 
L 670.40974 183.966646 
L 682.65487 179.455065 
" style="fill:none;opacity:0.5;stroke:#808080;stroke-linecap:square;stroke-width:1.5;"/>
    <g clip-path="url(#pb35eb648a7)">
     <use style="fill:#808080;opacity:0.5;stroke:#808080;" x="437.752273" xlink:href="#mf50c8bb8b1" y="270.596047"/>
     <use style="fill:#808080;opacity:0.5;stroke:#808080;" x="449.997403" xlink:href="#mf50c8bb8b1" y="266.056722"/>
     <use style="fill:#808080;opacity:0.5;stroke:#808080;" x="462.242533" xlink:href="#mf50c8bb8b1" y="261.489828"/>
     <use style="fill:#808080;opacity:0.5;stroke:#808080;" x="474.487663" xlink:href="#mf50c8bb8b1" y="257.027165"/>
     <use style="fill:#808080;opacity:0.5;stroke:#808080;" x="486.732792" xlink:href="#mf50c8bb8b1" y="252.568268"/>
     <use style="fill:#808080;opacity:0.5;stroke:#808080;" x="498.977922" xlink:href="#mf50c8bb8b1" y="248.143133"/>
     <use style="fill:#808080;opacity:0.5;stroke:#808080;" x="511.223052" xlink:href="#mf50c8bb8b1" y="243.445637"/>
     <use style="fill:#808080;opacity:0.5;stroke:#808080;" x="523.468182" xlink:href="#mf50c8bb8b1" y="238.772935"/>
     <use style="fill:#808080;opacity:0.5;stroke:#808080;" x="535.713312" xlink:href="#mf50c8bb8b1" y="233.913706"/>
     <use style="fill:#808080;opacity:0.5;stroke:#808080;" x="547.958442" xlink:href="#mf50c8bb8b1" y="229.07048"/>
     <use style="fill:#808080;opacity:0.5;stroke:#808080;" x="560.203572" xlink:href="#mf50c8bb8b1" y="224.593068"/>
     <use style="fill:#808080;opacity:0.5;stroke:#808080;" x="572.448701" xlink:href="#mf50c8bb8b1" y="220.064052"/>
     <use style="fill:#808080;opacity:0.5;stroke:#808080;" x="584.693831" xlink:href="#mf50c8bb8b1" y="215.278973"/>
     <use style="fill:#808080;opacity:0.5;stroke:#808080;" x="596.938961" xlink:href="#mf50c8bb8b1" y="210.137541"/>
     <use style="fill:#808080;opacity:0.5;stroke:#808080;" x="609.184091" xlink:href="#mf50c8bb8b1" y="205.941367"/>
     <use style="fill:#808080;opacity:0.5;stroke:#808080;" x="621.429221" xlink:href="#mf50c8bb8b1" y="201.339691"/>
     <use style="fill:#808080;opacity:0.5;stroke:#808080;" x="633.674351" xlink:href="#mf50c8bb8b1" y="196.787516"/>
     <use style="fill:#808080;opacity:0.5;stroke:#808080;" x="645.919481" xlink:href="#mf50c8bb8b1" y="192.648116"/>
     <use style="fill:#808080;opacity:0.5;stroke:#808080;" x="658.16461" xlink:href="#mf50c8bb8b1" y="187.919664"/>
     <use style="fill:#808080;opacity:0.5;stroke:#808080;" x="670.40974" xlink:href="#mf50c8bb8b1" y="183.966646"/>
     <use style="fill:#808080;opacity:0.5;stroke:#808080;" x="682.65487" xlink:href="#mf50c8bb8b1" y="179.455065"/>
    </g>
   </g>
   <g id="line2d_36">
    <path clip-path="url(#pb35eb648a7)" d="M 437.752273 270.596047 
L 449.997403 268.36489 
L 462.242533 266.039579 
L 474.487663 263.668212 
L 486.732792 261.313959 
L 498.977922 259.171234 
L 511.223052 256.908098 
L 523.468182 254.740315 
L 535.713312 252.42213 
L 547.958442 250.194215 
L 560.203572 247.856054 
L 572.448701 245.527354 
L 584.693831 243.166589 
L 596.938961 240.910901 
L 609.184091 238.544995 
L 621.429221 236.285014 
L 633.674351 233.855676 
L 645.919481 231.724136 
L 658.16461 229.543328 
L 670.40974 227.324467 
L 682.65487 225.014108 
" style="fill:none;opacity:0.5;stroke:#c0c0c0;stroke-linecap:square;stroke-width:1.5;"/>
    <g clip-path="url(#pb35eb648a7)">
     <use style="fill:#c0c0c0;opacity:0.5;stroke:#c0c0c0;stroke-linejoin:miter;" x="437.752273" xlink:href="#m304121832d" y="270.596047"/>
     <use style="fill:#c0c0c0;opacity:0.5;stroke:#c0c0c0;stroke-linejoin:miter;" x="449.997403" xlink:href="#m304121832d" y="268.36489"/>
     <use style="fill:#c0c0c0;opacity:0.5;stroke:#c0c0c0;stroke-linejoin:miter;" x="462.242533" xlink:href="#m304121832d" y="266.039579"/>
     <use style="fill:#c0c0c0;opacity:0.5;stroke:#c0c0c0;stroke-linejoin:miter;" x="474.487663" xlink:href="#m304121832d" y="263.668212"/>
     <use style="fill:#c0c0c0;opacity:0.5;stroke:#c0c0c0;stroke-linejoin:miter;" x="486.732792" xlink:href="#m304121832d" y="261.313959"/>
     <use style="fill:#c0c0c0;opacity:0.5;stroke:#c0c0c0;stroke-linejoin:miter;" x="498.977922" xlink:href="#m304121832d" y="259.171234"/>
     <use style="fill:#c0c0c0;opacity:0.5;stroke:#c0c0c0;stroke-linejoin:miter;" x="511.223052" xlink:href="#m304121832d" y="256.908098"/>
     <use style="fill:#c0c0c0;opacity:0.5;stroke:#c0c0c0;stroke-linejoin:miter;" x="523.468182" xlink:href="#m304121832d" y="254.740315"/>
     <use style="fill:#c0c0c0;opacity:0.5;stroke:#c0c0c0;stroke-linejoin:miter;" x="535.713312" xlink:href="#m304121832d" y="252.42213"/>
     <use style="fill:#c0c0c0;opacity:0.5;stroke:#c0c0c0;stroke-linejoin:miter;" x="547.958442" xlink:href="#m304121832d" y="250.194215"/>
     <use style="fill:#c0c0c0;opacity:0.5;stroke:#c0c0c0;stroke-linejoin:miter;" x="560.203572" xlink:href="#m304121832d" y="247.856054"/>
     <use style="fill:#c0c0c0;opacity:0.5;stroke:#c0c0c0;stroke-linejoin:miter;" x="572.448701" xlink:href="#m304121832d" y="245.527354"/>
     <use style="fill:#c0c0c0;opacity:0.5;stroke:#c0c0c0;stroke-linejoin:miter;" x="584.693831" xlink:href="#m304121832d" y="243.166589"/>
     <use style="fill:#c0c0c0;opacity:0.5;stroke:#c0c0c0;stroke-linejoin:miter;" x="596.938961" xlink:href="#m304121832d" y="240.910901"/>
     <use style="fill:#c0c0c0;opacity:0.5;stroke:#c0c0c0;stroke-linejoin:miter;" x="609.184091" xlink:href="#m304121832d" y="238.544995"/>
     <use style="fill:#c0c0c0;opacity:0.5;stroke:#c0c0c0;stroke-linejoin:miter;" x="621.429221" xlink:href="#m304121832d" y="236.285014"/>
     <use style="fill:#c0c0c0;opacity:0.5;stroke:#c0c0c0;stroke-linejoin:miter;" x="633.674351" xlink:href="#m304121832d" y="233.855676"/>
     <use style="fill:#c0c0c0;opacity:0.5;stroke:#c0c0c0;stroke-linejoin:miter;" x="645.919481" xlink:href="#m304121832d" y="231.724136"/>
     <use style="fill:#c0c0c0;opacity:0.5;stroke:#c0c0c0;stroke-linejoin:miter;" x="658.16461" xlink:href="#m304121832d" y="229.543328"/>
     <use style="fill:#c0c0c0;opacity:0.5;stroke:#c0c0c0;stroke-linejoin:miter;" x="670.40974" xlink:href="#m304121832d" y="227.324467"/>
     <use style="fill:#c0c0c0;opacity:0.5;stroke:#c0c0c0;stroke-linejoin:miter;" x="682.65487" xlink:href="#m304121832d" y="225.014108"/>
    </g>
   </g>
   <g id="line2d_37">
    <path clip-path="url(#pb35eb648a7)" d="M 437.752273 270.596047 
L 449.997403 261.700625 
L 462.242533 252.600393 
L 474.487663 243.855111 
L 486.732792 234.581113 
L 498.977922 225.478925 
L 511.223052 216.579181 
L 523.468182 207.846252 
L 535.713312 198.611943 
L 547.958442 189.188477 
L 560.203572 179.921722 
L 572.448701 170.00257 
L 584.693831 161.211875 
L 596.938961 151.938782 
L 609.184091 142.213577 
L 621.429221 132.655741 
L 633.674351 123.587254 
L 645.919481 114.360538 
L 658.16461 105.61 
L 670.40974 96.825175 
L 682.65487 88.012606 
" style="fill:none;stroke:#ff0000;stroke-linecap:square;stroke-width:1.5;"/>
    <g clip-path="url(#pb35eb648a7)">
     <use style="fill:#ff0000;stroke:#ff0000;stroke-linejoin:bevel;" x="437.752273" xlink:href="#m6380d9714b" y="270.596047"/>
     <use style="fill:#ff0000;stroke:#ff0000;stroke-linejoin:bevel;" x="449.997403" xlink:href="#m6380d9714b" y="261.700625"/>
     <use style="fill:#ff0000;stroke:#ff0000;stroke-linejoin:bevel;" x="462.242533" xlink:href="#m6380d9714b" y="252.600393"/>
     <use style="fill:#ff0000;stroke:#ff0000;stroke-linejoin:bevel;" x="474.487663" xlink:href="#m6380d9714b" y="243.855111"/>
     <use style="fill:#ff0000;stroke:#ff0000;stroke-linejoin:bevel;" x="486.732792" xlink:href="#m6380d9714b" y="234.581113"/>
     <use style="fill:#ff0000;stroke:#ff0000;stroke-linejoin:bevel;" x="498.977922" xlink:href="#m6380d9714b" y="225.478925"/>
     <use style="fill:#ff0000;stroke:#ff0000;stroke-linejoin:bevel;" x="511.223052" xlink:href="#m6380d9714b" y="216.579181"/>
     <use style="fill:#ff0000;stroke:#ff0000;stroke-linejoin:bevel;" x="523.468182" xlink:href="#m6380d9714b" y="207.846252"/>
     <use style="fill:#ff0000;stroke:#ff0000;stroke-linejoin:bevel;" x="535.713312" xlink:href="#m6380d9714b" y="198.611943"/>
     <use style="fill:#ff0000;stroke:#ff0000;stroke-linejoin:bevel;" x="547.958442" xlink:href="#m6380d9714b" y="189.188477"/>
     <use style="fill:#ff0000;stroke:#ff0000;stroke-linejoin:bevel;" x="560.203572" xlink:href="#m6380d9714b" y="179.921722"/>
     <use style="fill:#ff0000;stroke:#ff0000;stroke-linejoin:bevel;" x="572.448701" xlink:href="#m6380d9714b" y="170.00257"/>
     <use style="fill:#ff0000;stroke:#ff0000;stroke-linejoin:bevel;" x="584.693831" xlink:href="#m6380d9714b" y="161.211875"/>
     <use style="fill:#ff0000;stroke:#ff0000;stroke-linejoin:bevel;" x="596.938961" xlink:href="#m6380d9714b" y="151.938782"/>
     <use style="fill:#ff0000;stroke:#ff0000;stroke-linejoin:bevel;" x="609.184091" xlink:href="#m6380d9714b" y="142.213577"/>
     <use style="fill:#ff0000;stroke:#ff0000;stroke-linejoin:bevel;" x="621.429221" xlink:href="#m6380d9714b" y="132.655741"/>
     <use style="fill:#ff0000;stroke:#ff0000;stroke-linejoin:bevel;" x="633.674351" xlink:href="#m6380d9714b" y="123.587254"/>
     <use style="fill:#ff0000;stroke:#ff0000;stroke-linejoin:bevel;" x="645.919481" xlink:href="#m6380d9714b" y="114.360538"/>
     <use style="fill:#ff0000;stroke:#ff0000;stroke-linejoin:bevel;" x="658.16461" xlink:href="#m6380d9714b" y="105.61"/>
     <use style="fill:#ff0000;stroke:#ff0000;stroke-linejoin:bevel;" x="670.40974" xlink:href="#m6380d9714b" y="96.825175"/>
     <use style="fill:#ff0000;stroke:#ff0000;stroke-linejoin:bevel;" x="682.65487" xlink:href="#m6380d9714b" y="88.012606"/>
    </g>
   </g>
   <g id="patch_9">
    <path d="M 425.507143 289.4 
L 425.507143 25.1 
" style="fill:none;stroke:#000000;stroke-linecap:square;stroke-linejoin:miter;stroke-width:0.8;"/>
   </g>
   <g id="patch_10">
    <path d="M 694.9 289.4 
L 694.9 25.1 
" style="fill:none;stroke:#000000;stroke-linecap:square;stroke-linejoin:miter;stroke-width:0.8;"/>
   </g>
   <g id="patch_11">
    <path d="M 425.507143 289.4 
L 694.9 289.4 
" style="fill:none;stroke:#000000;stroke-linecap:square;stroke-linejoin:miter;stroke-width:0.8;"/>
   </g>
   <g id="patch_12">
    <path d="M 425.507143 25.1 
L 694.9 25.1 
" style="fill:none;stroke:#000000;stroke-linecap:square;stroke-linejoin:miter;stroke-width:0.8;"/>
   </g>
   <g id="legend_2">
    <g id="patch_13">
     <path d="M 432.507143 89.981227 
L 499.656552 89.981227 
Q 501.656552 89.981227 501.656552 87.981227 
L 501.656552 32.1 
Q 501.656552 30.1 499.656552 30.1 
L 432.507143 30.1 
Q 430.507143 30.1 430.507143 32.1 
L 430.507143 87.981227 
Q 430.507143 89.981227 432.507143 89.981227 
z
" style="fill:#ffffff;opacity:0.8;stroke:#cccccc;stroke-linejoin:miter;"/>
    </g>
    <g id="LineCollection_4">
     <path d="M 444.507143 42.69832 
L 444.507143 32.69832 
" style="fill:none;stroke:#ff0000;stroke-width:1.5;"/>
    </g>
    <g id="line2d_38">
     <g>
      <use style="fill:#ff0000;stroke:#ff0000;" x="444.507143" xlink:href="#m04ded30542" y="42.69832"/>
     </g>
    </g>
    <g id="line2d_39">
     <g>
      <use style="fill:#ff0000;stroke:#ff0000;" x="444.507143" xlink:href="#m04ded30542" y="32.69832"/>
     </g>
    </g>
    <g id="line2d_40">
     <path d="M 434.507143 37.69832 
L 454.507143 37.69832 
" style="fill:none;stroke:#ff0000;stroke-linecap:square;stroke-width:1.5;"/>
    </g>
    <g id="line2d_41">
     <g>
      <use style="fill:#ff0000;stroke:#ff0000;stroke-linejoin:bevel;" x="444.507143" xlink:href="#m6380d9714b" y="37.69832"/>
     </g>
    </g>
    <g id="text_24">
     <!-- $f_s = 0.8$ -->
     <g transform="translate(462.507143 41.19832)scale(0.1 -0.1)">
      <use transform="translate(0 14.943915)scale(0.996264)" xlink:href="#CMMI12-102"/>
      <use transform="translate(48.083238 0)scale(0.697382)" xlink:href="#CMMI12-115"/>
      <use transform="translate(108.420267 14.943915)scale(0.996264)" xlink:href="#CMR17-61"/>
      <use transform="translate(207.809064 14.943915)scale(0.996264)" xlink:href="#CMR17-48"/>
      <use transform="translate(253.499542 14.943915)scale(0.996264)" xlink:href="#CMMI12-58"/>
      <use transform="translate(280.596719 14.943915)scale(0.996264)" xlink:href="#CMR17-56"/>
     </g>
    </g>
    <g id="line2d_42">
     <path d="M 434.507143 51.918627 
L 454.507143 51.918627 
" style="fill:none;opacity:0.5;stroke:#404040;stroke-linecap:square;stroke-width:1.5;"/>
    </g>
    <g id="line2d_43">
     <g>
      <use style="fill:#404040;opacity:0.5;stroke:#404040;stroke-linejoin:miter;" x="444.507143" xlink:href="#m1c676d77ab" y="51.918627"/>
     </g>
    </g>
    <g id="text_25">
     <!-- $f_s = 0.6$ -->
     <g transform="translate(462.507143 55.418627)scale(0.1 -0.1)">
      <use transform="translate(0 14.943915)scale(0.996264)" xlink:href="#CMMI12-102"/>
      <use transform="translate(48.083238 0)scale(0.697382)" xlink:href="#CMMI12-115"/>
      <use transform="translate(108.420267 14.943915)scale(0.996264)" xlink:href="#CMR17-61"/>
      <use transform="translate(207.809064 14.943915)scale(0.996264)" xlink:href="#CMR17-48"/>
      <use transform="translate(253.499542 14.943915)scale(0.996264)" xlink:href="#CMMI12-58"/>
      <use transform="translate(280.596719 14.943915)scale(0.996264)" xlink:href="#CMR17-54"/>
     </g>
    </g>
    <g id="line2d_44">
     <path d="M 434.507143 66.138934 
L 454.507143 66.138934 
" style="fill:none;opacity:0.5;stroke:#808080;stroke-linecap:square;stroke-width:1.5;"/>
    </g>
    <g id="line2d_45">
     <g>
      <use style="fill:#808080;opacity:0.5;stroke:#808080;" x="444.507143" xlink:href="#mf50c8bb8b1" y="66.138934"/>
     </g>
    </g>
    <g id="text_26">
     <!-- $f_s = 0.4$ -->
     <g transform="translate(462.507143 69.638934)scale(0.1 -0.1)">
      <use transform="translate(0 14.943915)scale(0.996264)" xlink:href="#CMMI12-102"/>
      <use transform="translate(48.083238 0)scale(0.697382)" xlink:href="#CMMI12-115"/>
      <use transform="translate(108.420267 14.943915)scale(0.996264)" xlink:href="#CMR17-61"/>
      <use transform="translate(207.809064 14.943915)scale(0.996264)" xlink:href="#CMR17-48"/>
      <use transform="translate(253.499542 14.943915)scale(0.996264)" xlink:href="#CMMI12-58"/>
      <use transform="translate(280.596719 14.943915)scale(0.996264)" xlink:href="#CMR17-52"/>
     </g>
    </g>
    <g id="line2d_46">
     <path d="M 434.507143 80.35924 
L 454.507143 80.35924 
" style="fill:none;opacity:0.5;stroke:#c0c0c0;stroke-linecap:square;stroke-width:1.5;"/>
    </g>
    <g id="line2d_47">
     <g>
      <use style="fill:#c0c0c0;opacity:0.5;stroke:#c0c0c0;stroke-linejoin:miter;" x="444.507143" xlink:href="#m304121832d" y="80.35924"/>
     </g>
    </g>
    <g id="text_27">
     <!-- $f_s = 0.2$ -->
     <g transform="translate(462.507143 83.85924)scale(0.1 -0.1)">
      <use transform="translate(0 14.943915)scale(0.996264)" xlink:href="#CMMI12-102"/>
      <use transform="translate(48.083238 0)scale(0.697382)" xlink:href="#CMMI12-115"/>
      <use transform="translate(108.420267 14.943915)scale(0.996264)" xlink:href="#CMR17-61"/>
      <use transform="translate(207.809064 14.943915)scale(0.996264)" xlink:href="#CMR17-48"/>
      <use transform="translate(253.499542 14.943915)scale(0.996264)" xlink:href="#CMMI12-58"/>
      <use transform="translate(280.596719 14.943915)scale(0.996264)" xlink:href="#CMR17-50"/>
     </g>
    </g>
   </g>
  </g>
 </g>
 <defs>
  <clipPath id="pda1e8ca0b2">
   <rect height="264.3" width="269.392857" x="69.876191" y="25.1"/>
  </clipPath>
  <clipPath id="pb35eb648a7">
   <rect height="264.3" width="269.392857" x="425.507143" y="25.1"/>
  </clipPath>
 </defs>
</svg>
